G04 #@! TF.GenerationSoftware,KiCad,Pcbnew,5.1.10-88a1d61d58~88~ubuntu20.04.1*
G04 #@! TF.CreationDate,2021-08-11T17:00:08+02:00*
G04 #@! TF.ProjectId,carrier,63617272-6965-4722-9e6b-696361645f70,0.1*
G04 #@! TF.SameCoordinates,Original*
G04 #@! TF.FileFunction,Legend,Bot*
G04 #@! TF.FilePolarity,Positive*
%FSLAX46Y46*%
G04 Gerber Fmt 4.6, Leading zero omitted, Abs format (unit mm)*
G04 Created by KiCad (PCBNEW 5.1.10-88a1d61d58~88~ubuntu20.04.1) date 2021-08-11 17:00:08*
%MOMM*%
%LPD*%
G01*
G04 APERTURE LIST*
%ADD10C,0.300000*%
%ADD11C,0.100000*%
%ADD12C,0.150000*%
%ADD13C,0.120000*%
G04 APERTURE END LIST*
D10*
X63360952Y-67683333D02*
X62408571Y-67683333D01*
X63551428Y-68254761D02*
X62884761Y-66254761D01*
X62218095Y-68254761D01*
X61646666Y-68159523D02*
X61360952Y-68254761D01*
X60884761Y-68254761D01*
X60694285Y-68159523D01*
X60599047Y-68064285D01*
X60503809Y-67873809D01*
X60503809Y-67683333D01*
X60599047Y-67492857D01*
X60694285Y-67397619D01*
X60884761Y-67302380D01*
X61265714Y-67207142D01*
X61456190Y-67111904D01*
X61551428Y-67016666D01*
X61646666Y-66826190D01*
X61646666Y-66635714D01*
X61551428Y-66445238D01*
X61456190Y-66350000D01*
X61265714Y-66254761D01*
X60789523Y-66254761D01*
X60503809Y-66350000D01*
X59646666Y-68254761D02*
X59646666Y-66254761D01*
X57551428Y-68064285D02*
X57646666Y-68159523D01*
X57932380Y-68254761D01*
X58122857Y-68254761D01*
X58408571Y-68159523D01*
X58599047Y-67969047D01*
X58694285Y-67778571D01*
X58789523Y-67397619D01*
X58789523Y-67111904D01*
X58694285Y-66730952D01*
X58599047Y-66540476D01*
X58408571Y-66350000D01*
X58122857Y-66254761D01*
X57932380Y-66254761D01*
X57646666Y-66350000D01*
X57551428Y-66445238D01*
X55456190Y-66254761D02*
X54789523Y-68254761D01*
X54122857Y-66254761D01*
X52408571Y-66350000D02*
X52599047Y-66254761D01*
X52884761Y-66254761D01*
X53170476Y-66350000D01*
X53360952Y-66540476D01*
X53456190Y-66730952D01*
X53551428Y-67111904D01*
X53551428Y-67397619D01*
X53456190Y-67778571D01*
X53360952Y-67969047D01*
X53170476Y-68159523D01*
X52884761Y-68254761D01*
X52694285Y-68254761D01*
X52408571Y-68159523D01*
X52313333Y-68064285D01*
X52313333Y-67397619D01*
X52694285Y-67397619D01*
X51551428Y-67683333D02*
X50599047Y-67683333D01*
X51741904Y-68254761D02*
X51075238Y-66254761D01*
X50408571Y-68254761D01*
X59456190Y-71364285D02*
X59551428Y-71459523D01*
X59837142Y-71554761D01*
X60027619Y-71554761D01*
X60313333Y-71459523D01*
X60503809Y-71269047D01*
X60599047Y-71078571D01*
X60694285Y-70697619D01*
X60694285Y-70411904D01*
X60599047Y-70030952D01*
X60503809Y-69840476D01*
X60313333Y-69650000D01*
X60027619Y-69554761D01*
X59837142Y-69554761D01*
X59551428Y-69650000D01*
X59456190Y-69745238D01*
X58313333Y-71554761D02*
X58503809Y-71459523D01*
X58599047Y-71269047D01*
X58599047Y-69554761D01*
X57265714Y-71554761D02*
X57456190Y-71459523D01*
X57551428Y-71364285D01*
X57646666Y-71173809D01*
X57646666Y-70602380D01*
X57551428Y-70411904D01*
X57456190Y-70316666D01*
X57265714Y-70221428D01*
X56980000Y-70221428D01*
X56789523Y-70316666D01*
X56694285Y-70411904D01*
X56599047Y-70602380D01*
X56599047Y-71173809D01*
X56694285Y-71364285D01*
X56789523Y-71459523D01*
X56980000Y-71554761D01*
X57265714Y-71554761D01*
X54884761Y-71459523D02*
X55075238Y-71554761D01*
X55456190Y-71554761D01*
X55646666Y-71459523D01*
X55741904Y-71364285D01*
X55837142Y-71173809D01*
X55837142Y-70602380D01*
X55741904Y-70411904D01*
X55646666Y-70316666D01*
X55456190Y-70221428D01*
X55075238Y-70221428D01*
X54884761Y-70316666D01*
X54027619Y-71554761D02*
X54027619Y-69554761D01*
X53837142Y-70792857D02*
X53265714Y-71554761D01*
X53265714Y-70221428D02*
X54027619Y-70983333D01*
D11*
G36*
X54730000Y-89750000D02*
G01*
X44730000Y-89750000D01*
X44730000Y-82750000D01*
X54730000Y-82750000D01*
X54730000Y-89750000D01*
G37*
X54730000Y-89750000D02*
X44730000Y-89750000D01*
X44730000Y-82750000D01*
X54730000Y-82750000D01*
X54730000Y-89750000D01*
D12*
X54599047Y-91654761D02*
X54456190Y-91702380D01*
X54218095Y-91702380D01*
X54122857Y-91654761D01*
X54075238Y-91607142D01*
X54027619Y-91511904D01*
X54027619Y-91416666D01*
X54075238Y-91321428D01*
X54122857Y-91273809D01*
X54218095Y-91226190D01*
X54408571Y-91178571D01*
X54503809Y-91130952D01*
X54551428Y-91083333D01*
X54599047Y-90988095D01*
X54599047Y-90892857D01*
X54551428Y-90797619D01*
X54503809Y-90750000D01*
X54408571Y-90702380D01*
X54170476Y-90702380D01*
X54027619Y-90750000D01*
X53218095Y-91654761D02*
X53313333Y-91702380D01*
X53503809Y-91702380D01*
X53599047Y-91654761D01*
X53646666Y-91559523D01*
X53646666Y-91178571D01*
X53599047Y-91083333D01*
X53503809Y-91035714D01*
X53313333Y-91035714D01*
X53218095Y-91083333D01*
X53170476Y-91178571D01*
X53170476Y-91273809D01*
X53646666Y-91369047D01*
X52741904Y-91702380D02*
X52741904Y-91035714D01*
X52741904Y-91226190D02*
X52694285Y-91130952D01*
X52646666Y-91083333D01*
X52551428Y-91035714D01*
X52456190Y-91035714D01*
X52122857Y-91702380D02*
X52122857Y-91035714D01*
X52122857Y-90702380D02*
X52170476Y-90750000D01*
X52122857Y-90797619D01*
X52075238Y-90750000D01*
X52122857Y-90702380D01*
X52122857Y-90797619D01*
X51218095Y-91702380D02*
X51218095Y-91178571D01*
X51265714Y-91083333D01*
X51360952Y-91035714D01*
X51551428Y-91035714D01*
X51646666Y-91083333D01*
X51218095Y-91654761D02*
X51313333Y-91702380D01*
X51551428Y-91702380D01*
X51646666Y-91654761D01*
X51694285Y-91559523D01*
X51694285Y-91464285D01*
X51646666Y-91369047D01*
X51551428Y-91321428D01*
X51313333Y-91321428D01*
X51218095Y-91273809D01*
X50599047Y-91702380D02*
X50694285Y-91654761D01*
X50741904Y-91559523D01*
X50741904Y-90702380D01*
X49456190Y-91035714D02*
X49456190Y-91702380D01*
X49456190Y-91130952D02*
X49408571Y-91083333D01*
X49313333Y-91035714D01*
X49170476Y-91035714D01*
X49075238Y-91083333D01*
X49027619Y-91178571D01*
X49027619Y-91702380D01*
X48122857Y-91035714D02*
X48122857Y-91702380D01*
X48551428Y-91035714D02*
X48551428Y-91559523D01*
X48503809Y-91654761D01*
X48408571Y-91702380D01*
X48265714Y-91702380D01*
X48170476Y-91654761D01*
X48122857Y-91607142D01*
X47646666Y-91702380D02*
X47646666Y-91035714D01*
X47646666Y-91130952D02*
X47599047Y-91083333D01*
X47503809Y-91035714D01*
X47360952Y-91035714D01*
X47265714Y-91083333D01*
X47218095Y-91178571D01*
X47218095Y-91702380D01*
X47218095Y-91178571D02*
X47170476Y-91083333D01*
X47075238Y-91035714D01*
X46932380Y-91035714D01*
X46837142Y-91083333D01*
X46789523Y-91178571D01*
X46789523Y-91702380D01*
X46313333Y-91702380D02*
X46313333Y-90702380D01*
X46313333Y-91083333D02*
X46218095Y-91035714D01*
X46027619Y-91035714D01*
X45932380Y-91083333D01*
X45884761Y-91130952D01*
X45837142Y-91226190D01*
X45837142Y-91511904D01*
X45884761Y-91607142D01*
X45932380Y-91654761D01*
X46027619Y-91702380D01*
X46218095Y-91702380D01*
X46313333Y-91654761D01*
X45027619Y-91654761D02*
X45122857Y-91702380D01*
X45313333Y-91702380D01*
X45408571Y-91654761D01*
X45456190Y-91559523D01*
X45456190Y-91178571D01*
X45408571Y-91083333D01*
X45313333Y-91035714D01*
X45122857Y-91035714D01*
X45027619Y-91083333D01*
X44980000Y-91178571D01*
X44980000Y-91273809D01*
X45456190Y-91369047D01*
X44551428Y-91702380D02*
X44551428Y-91035714D01*
X44551428Y-91226190D02*
X44503809Y-91130952D01*
X44456190Y-91083333D01*
X44360952Y-91035714D01*
X44265714Y-91035714D01*
X62872857Y-78452380D02*
X62968095Y-78404761D01*
X63015714Y-78357142D01*
X63063333Y-78261904D01*
X63063333Y-77976190D01*
X63015714Y-77880952D01*
X62968095Y-77833333D01*
X62872857Y-77785714D01*
X62730000Y-77785714D01*
X62634761Y-77833333D01*
X62587142Y-77880952D01*
X62539523Y-77976190D01*
X62539523Y-78261904D01*
X62587142Y-78357142D01*
X62634761Y-78404761D01*
X62730000Y-78452380D01*
X62872857Y-78452380D01*
X62110952Y-77785714D02*
X62110952Y-78785714D01*
X62110952Y-77833333D02*
X62015714Y-77785714D01*
X61825238Y-77785714D01*
X61730000Y-77833333D01*
X61682380Y-77880952D01*
X61634761Y-77976190D01*
X61634761Y-78261904D01*
X61682380Y-78357142D01*
X61730000Y-78404761D01*
X61825238Y-78452380D01*
X62015714Y-78452380D01*
X62110952Y-78404761D01*
X60825238Y-78404761D02*
X60920476Y-78452380D01*
X61110952Y-78452380D01*
X61206190Y-78404761D01*
X61253809Y-78309523D01*
X61253809Y-77928571D01*
X61206190Y-77833333D01*
X61110952Y-77785714D01*
X60920476Y-77785714D01*
X60825238Y-77833333D01*
X60777619Y-77928571D01*
X60777619Y-78023809D01*
X61253809Y-78119047D01*
X60349047Y-77785714D02*
X60349047Y-78452380D01*
X60349047Y-77880952D02*
X60301428Y-77833333D01*
X60206190Y-77785714D01*
X60063333Y-77785714D01*
X59968095Y-77833333D01*
X59920476Y-77928571D01*
X59920476Y-78452380D01*
X58730000Y-78404761D02*
X58634761Y-78452380D01*
X58444285Y-78452380D01*
X58349047Y-78404761D01*
X58301428Y-78309523D01*
X58301428Y-78261904D01*
X58349047Y-78166666D01*
X58444285Y-78119047D01*
X58587142Y-78119047D01*
X58682380Y-78071428D01*
X58730000Y-77976190D01*
X58730000Y-77928571D01*
X58682380Y-77833333D01*
X58587142Y-77785714D01*
X58444285Y-77785714D01*
X58349047Y-77833333D01*
X57730000Y-78452380D02*
X57825238Y-78404761D01*
X57872857Y-78357142D01*
X57920476Y-78261904D01*
X57920476Y-77976190D01*
X57872857Y-77880952D01*
X57825238Y-77833333D01*
X57730000Y-77785714D01*
X57587142Y-77785714D01*
X57491904Y-77833333D01*
X57444285Y-77880952D01*
X57396666Y-77976190D01*
X57396666Y-78261904D01*
X57444285Y-78357142D01*
X57491904Y-78404761D01*
X57587142Y-78452380D01*
X57730000Y-78452380D01*
X56539523Y-77785714D02*
X56539523Y-78452380D01*
X56968095Y-77785714D02*
X56968095Y-78309523D01*
X56920476Y-78404761D01*
X56825238Y-78452380D01*
X56682380Y-78452380D01*
X56587142Y-78404761D01*
X56539523Y-78357142D01*
X56063333Y-78452380D02*
X56063333Y-77785714D01*
X56063333Y-77976190D02*
X56015714Y-77880952D01*
X55968095Y-77833333D01*
X55872857Y-77785714D01*
X55777619Y-77785714D01*
X55015714Y-78404761D02*
X55110952Y-78452380D01*
X55301428Y-78452380D01*
X55396666Y-78404761D01*
X55444285Y-78357142D01*
X55491904Y-78261904D01*
X55491904Y-77976190D01*
X55444285Y-77880952D01*
X55396666Y-77833333D01*
X55301428Y-77785714D01*
X55110952Y-77785714D01*
X55015714Y-77833333D01*
X54206190Y-78404761D02*
X54301428Y-78452380D01*
X54491904Y-78452380D01*
X54587142Y-78404761D01*
X54634761Y-78309523D01*
X54634761Y-77928571D01*
X54587142Y-77833333D01*
X54491904Y-77785714D01*
X54301428Y-77785714D01*
X54206190Y-77833333D01*
X54158571Y-77928571D01*
X54158571Y-78023809D01*
X54634761Y-78119047D01*
X53015714Y-78166666D02*
X52539523Y-78166666D01*
X53110952Y-78452380D02*
X52777619Y-77452380D01*
X52444285Y-78452380D01*
X52158571Y-78404761D02*
X52015714Y-78452380D01*
X51777619Y-78452380D01*
X51682380Y-78404761D01*
X51634761Y-78357142D01*
X51587142Y-78261904D01*
X51587142Y-78166666D01*
X51634761Y-78071428D01*
X51682380Y-78023809D01*
X51777619Y-77976190D01*
X51968095Y-77928571D01*
X52063333Y-77880952D01*
X52110952Y-77833333D01*
X52158571Y-77738095D01*
X52158571Y-77642857D01*
X52110952Y-77547619D01*
X52063333Y-77500000D01*
X51968095Y-77452380D01*
X51730000Y-77452380D01*
X51587142Y-77500000D01*
X51158571Y-78452380D02*
X51158571Y-77452380D01*
X50110952Y-78357142D02*
X50158571Y-78404761D01*
X50301428Y-78452380D01*
X50396666Y-78452380D01*
X50539523Y-78404761D01*
X50634761Y-78309523D01*
X50682380Y-78214285D01*
X50730000Y-78023809D01*
X50730000Y-77880952D01*
X50682380Y-77690476D01*
X50634761Y-77595238D01*
X50539523Y-77500000D01*
X50396666Y-77452380D01*
X50301428Y-77452380D01*
X50158571Y-77500000D01*
X50110952Y-77547619D01*
X49634761Y-78404761D02*
X49634761Y-78452380D01*
X49682380Y-78547619D01*
X49730000Y-78595238D01*
X48444285Y-78452380D02*
X48444285Y-77452380D01*
X48063333Y-77452380D01*
X47968095Y-77500000D01*
X47920476Y-77547619D01*
X47872857Y-77642857D01*
X47872857Y-77785714D01*
X47920476Y-77880952D01*
X47968095Y-77928571D01*
X48063333Y-77976190D01*
X48444285Y-77976190D01*
X46872857Y-78357142D02*
X46920476Y-78404761D01*
X47063333Y-78452380D01*
X47158571Y-78452380D01*
X47301428Y-78404761D01*
X47396666Y-78309523D01*
X47444285Y-78214285D01*
X47491904Y-78023809D01*
X47491904Y-77880952D01*
X47444285Y-77690476D01*
X47396666Y-77595238D01*
X47301428Y-77500000D01*
X47158571Y-77452380D01*
X47063333Y-77452380D01*
X46920476Y-77500000D01*
X46872857Y-77547619D01*
X46110952Y-77928571D02*
X45968095Y-77976190D01*
X45920476Y-78023809D01*
X45872857Y-78119047D01*
X45872857Y-78261904D01*
X45920476Y-78357142D01*
X45968095Y-78404761D01*
X46063333Y-78452380D01*
X46444285Y-78452380D01*
X46444285Y-77452380D01*
X46110952Y-77452380D01*
X46015714Y-77500000D01*
X45968095Y-77547619D01*
X45920476Y-77642857D01*
X45920476Y-77738095D01*
X45968095Y-77833333D01*
X46015714Y-77880952D01*
X46110952Y-77928571D01*
X46444285Y-77928571D01*
X43872857Y-78452380D02*
X43920476Y-78452380D01*
X44015714Y-78404761D01*
X44158571Y-78261904D01*
X44396666Y-77976190D01*
X44491904Y-77833333D01*
X44539523Y-77690476D01*
X44539523Y-77595238D01*
X44491904Y-77500000D01*
X44396666Y-77452380D01*
X44349047Y-77452380D01*
X44253809Y-77500000D01*
X44206190Y-77595238D01*
X44206190Y-77642857D01*
X44253809Y-77738095D01*
X44301428Y-77785714D01*
X44587142Y-77976190D01*
X44634761Y-78023809D01*
X44682380Y-78119047D01*
X44682380Y-78261904D01*
X44634761Y-78357142D01*
X44587142Y-78404761D01*
X44491904Y-78452380D01*
X44349047Y-78452380D01*
X44253809Y-78404761D01*
X44206190Y-78357142D01*
X44063333Y-78166666D01*
X44015714Y-78023809D01*
X44015714Y-77928571D01*
X42349047Y-77928571D02*
X42682380Y-77928571D01*
X42682380Y-78452380D02*
X42682380Y-77452380D01*
X42206190Y-77452380D01*
X41825238Y-78452380D02*
X41825238Y-77785714D01*
X41825238Y-77452380D02*
X41872857Y-77500000D01*
X41825238Y-77547619D01*
X41777619Y-77500000D01*
X41825238Y-77452380D01*
X41825238Y-77547619D01*
X41349047Y-78452380D02*
X41349047Y-77785714D01*
X41349047Y-77976190D02*
X41301428Y-77880952D01*
X41253809Y-77833333D01*
X41158571Y-77785714D01*
X41063333Y-77785714D01*
X40730000Y-78452380D02*
X40730000Y-77785714D01*
X40730000Y-77880952D02*
X40682380Y-77833333D01*
X40587142Y-77785714D01*
X40444285Y-77785714D01*
X40349047Y-77833333D01*
X40301428Y-77928571D01*
X40301428Y-78452380D01*
X40301428Y-77928571D02*
X40253809Y-77833333D01*
X40158571Y-77785714D01*
X40015714Y-77785714D01*
X39920476Y-77833333D01*
X39872857Y-77928571D01*
X39872857Y-78452380D01*
X39491904Y-77785714D02*
X39301428Y-78452380D01*
X39110952Y-77976190D01*
X38920476Y-78452380D01*
X38730000Y-77785714D01*
X37920476Y-78452380D02*
X37920476Y-77928571D01*
X37968095Y-77833333D01*
X38063333Y-77785714D01*
X38253809Y-77785714D01*
X38349047Y-77833333D01*
X37920476Y-78404761D02*
X38015714Y-78452380D01*
X38253809Y-78452380D01*
X38349047Y-78404761D01*
X38396666Y-78309523D01*
X38396666Y-78214285D01*
X38349047Y-78119047D01*
X38253809Y-78071428D01*
X38015714Y-78071428D01*
X37920476Y-78023809D01*
X37444285Y-78452380D02*
X37444285Y-77785714D01*
X37444285Y-77976190D02*
X37396666Y-77880952D01*
X37349047Y-77833333D01*
X37253809Y-77785714D01*
X37158571Y-77785714D01*
X36444285Y-78404761D02*
X36539523Y-78452380D01*
X36730000Y-78452380D01*
X36825238Y-78404761D01*
X36872857Y-78309523D01*
X36872857Y-77928571D01*
X36825238Y-77833333D01*
X36730000Y-77785714D01*
X36539523Y-77785714D01*
X36444285Y-77833333D01*
X36396666Y-77928571D01*
X36396666Y-78023809D01*
X36872857Y-78119047D01*
X55515714Y-76452380D02*
X55515714Y-75452380D01*
X55182380Y-76166666D01*
X54849047Y-75452380D01*
X54849047Y-76452380D01*
X53944285Y-76452380D02*
X53944285Y-75928571D01*
X53991904Y-75833333D01*
X54087142Y-75785714D01*
X54277619Y-75785714D01*
X54372857Y-75833333D01*
X53944285Y-76404761D02*
X54039523Y-76452380D01*
X54277619Y-76452380D01*
X54372857Y-76404761D01*
X54420476Y-76309523D01*
X54420476Y-76214285D01*
X54372857Y-76119047D01*
X54277619Y-76071428D01*
X54039523Y-76071428D01*
X53944285Y-76023809D01*
X53610952Y-75785714D02*
X53230000Y-75785714D01*
X53468095Y-75452380D02*
X53468095Y-76309523D01*
X53420476Y-76404761D01*
X53325238Y-76452380D01*
X53230000Y-76452380D01*
X53039523Y-75785714D02*
X52658571Y-75785714D01*
X52896666Y-75452380D02*
X52896666Y-76309523D01*
X52849047Y-76404761D01*
X52753809Y-76452380D01*
X52658571Y-76452380D01*
X51706190Y-75452380D02*
X51372857Y-76452380D01*
X51039523Y-75452380D01*
X50325238Y-76404761D02*
X50420476Y-76452380D01*
X50610952Y-76452380D01*
X50706190Y-76404761D01*
X50753809Y-76309523D01*
X50753809Y-75928571D01*
X50706190Y-75833333D01*
X50610952Y-75785714D01*
X50420476Y-75785714D01*
X50325238Y-75833333D01*
X50277619Y-75928571D01*
X50277619Y-76023809D01*
X50753809Y-76119047D01*
X49849047Y-75785714D02*
X49849047Y-76452380D01*
X49849047Y-75880952D02*
X49801428Y-75833333D01*
X49706190Y-75785714D01*
X49563333Y-75785714D01*
X49468095Y-75833333D01*
X49420476Y-75928571D01*
X49420476Y-76452380D01*
X48944285Y-75785714D02*
X48944285Y-76452380D01*
X48944285Y-75880952D02*
X48896666Y-75833333D01*
X48801428Y-75785714D01*
X48658571Y-75785714D01*
X48563333Y-75833333D01*
X48515714Y-75928571D01*
X48515714Y-76452380D01*
X47325238Y-75547619D02*
X47277619Y-75500000D01*
X47182380Y-75452380D01*
X46944285Y-75452380D01*
X46849047Y-75500000D01*
X46801428Y-75547619D01*
X46753809Y-75642857D01*
X46753809Y-75738095D01*
X46801428Y-75880952D01*
X47372857Y-76452380D01*
X46753809Y-76452380D01*
X46134761Y-75452380D02*
X46039523Y-75452380D01*
X45944285Y-75500000D01*
X45896666Y-75547619D01*
X45849047Y-75642857D01*
X45801428Y-75833333D01*
X45801428Y-76071428D01*
X45849047Y-76261904D01*
X45896666Y-76357142D01*
X45944285Y-76404761D01*
X46039523Y-76452380D01*
X46134761Y-76452380D01*
X46230000Y-76404761D01*
X46277619Y-76357142D01*
X46325238Y-76261904D01*
X46372857Y-76071428D01*
X46372857Y-75833333D01*
X46325238Y-75642857D01*
X46277619Y-75547619D01*
X46230000Y-75500000D01*
X46134761Y-75452380D01*
X45420476Y-75547619D02*
X45372857Y-75500000D01*
X45277619Y-75452380D01*
X45039523Y-75452380D01*
X44944285Y-75500000D01*
X44896666Y-75547619D01*
X44849047Y-75642857D01*
X44849047Y-75738095D01*
X44896666Y-75880952D01*
X45468095Y-76452380D01*
X44849047Y-76452380D01*
X43896666Y-76452380D02*
X44468095Y-76452380D01*
X44182380Y-76452380D02*
X44182380Y-75452380D01*
X44277619Y-75595238D01*
X44372857Y-75690476D01*
X44468095Y-75738095D01*
X58287142Y-74452380D02*
X58287142Y-73452380D01*
X58287142Y-73833333D02*
X58191904Y-73785714D01*
X58001428Y-73785714D01*
X57906190Y-73833333D01*
X57858571Y-73880952D01*
X57810952Y-73976190D01*
X57810952Y-74261904D01*
X57858571Y-74357142D01*
X57906190Y-74404761D01*
X58001428Y-74452380D01*
X58191904Y-74452380D01*
X58287142Y-74404761D01*
X57239523Y-74452380D02*
X57334761Y-74404761D01*
X57382380Y-74357142D01*
X57430000Y-74261904D01*
X57430000Y-73976190D01*
X57382380Y-73880952D01*
X57334761Y-73833333D01*
X57239523Y-73785714D01*
X57096666Y-73785714D01*
X57001428Y-73833333D01*
X56953809Y-73880952D01*
X56906190Y-73976190D01*
X56906190Y-74261904D01*
X56953809Y-74357142D01*
X57001428Y-74404761D01*
X57096666Y-74452380D01*
X57239523Y-74452380D01*
X56049047Y-74452380D02*
X56049047Y-73928571D01*
X56096666Y-73833333D01*
X56191904Y-73785714D01*
X56382380Y-73785714D01*
X56477619Y-73833333D01*
X56049047Y-74404761D02*
X56144285Y-74452380D01*
X56382380Y-74452380D01*
X56477619Y-74404761D01*
X56525238Y-74309523D01*
X56525238Y-74214285D01*
X56477619Y-74119047D01*
X56382380Y-74071428D01*
X56144285Y-74071428D01*
X56049047Y-74023809D01*
X55572857Y-74452380D02*
X55572857Y-73785714D01*
X55572857Y-73976190D02*
X55525238Y-73880952D01*
X55477619Y-73833333D01*
X55382380Y-73785714D01*
X55287142Y-73785714D01*
X54525238Y-74452380D02*
X54525238Y-73452380D01*
X54525238Y-74404761D02*
X54620476Y-74452380D01*
X54810952Y-74452380D01*
X54906190Y-74404761D01*
X54953809Y-74357142D01*
X55001428Y-74261904D01*
X55001428Y-73976190D01*
X54953809Y-73880952D01*
X54906190Y-73833333D01*
X54810952Y-73785714D01*
X54620476Y-73785714D01*
X54525238Y-73833333D01*
X54096666Y-74404761D02*
X54001428Y-74452380D01*
X53810952Y-74452380D01*
X53715714Y-74404761D01*
X53668095Y-74309523D01*
X53668095Y-74261904D01*
X53715714Y-74166666D01*
X53810952Y-74119047D01*
X53953809Y-74119047D01*
X54049047Y-74071428D01*
X54096666Y-73976190D01*
X54096666Y-73928571D01*
X54049047Y-73833333D01*
X53953809Y-73785714D01*
X53810952Y-73785714D01*
X53715714Y-73833333D01*
X52477619Y-74452380D02*
X52477619Y-73452380D01*
X52477619Y-73833333D02*
X52382380Y-73785714D01*
X52191904Y-73785714D01*
X52096666Y-73833333D01*
X52049047Y-73880952D01*
X52001428Y-73976190D01*
X52001428Y-74261904D01*
X52049047Y-74357142D01*
X52096666Y-74404761D01*
X52191904Y-74452380D01*
X52382380Y-74452380D01*
X52477619Y-74404761D01*
X51668095Y-73785714D02*
X51430000Y-74452380D01*
X51191904Y-73785714D02*
X51430000Y-74452380D01*
X51525238Y-74690476D01*
X51572857Y-74738095D01*
X51668095Y-74785714D01*
X49858571Y-73452380D02*
X49668095Y-73452380D01*
X49572857Y-73500000D01*
X49477619Y-73595238D01*
X49430000Y-73785714D01*
X49430000Y-74119047D01*
X49477619Y-74309523D01*
X49572857Y-74404761D01*
X49668095Y-74452380D01*
X49858571Y-74452380D01*
X49953809Y-74404761D01*
X50049047Y-74309523D01*
X50096666Y-74119047D01*
X50096666Y-73785714D01*
X50049047Y-73595238D01*
X49953809Y-73500000D01*
X49858571Y-73452380D01*
X49049047Y-74404761D02*
X48906190Y-74452380D01*
X48668095Y-74452380D01*
X48572857Y-74404761D01*
X48525238Y-74357142D01*
X48477619Y-74261904D01*
X48477619Y-74166666D01*
X48525238Y-74071428D01*
X48572857Y-74023809D01*
X48668095Y-73976190D01*
X48858571Y-73928571D01*
X48953809Y-73880952D01*
X49001428Y-73833333D01*
X49049047Y-73738095D01*
X49049047Y-73642857D01*
X49001428Y-73547619D01*
X48953809Y-73500000D01*
X48858571Y-73452380D01*
X48620476Y-73452380D01*
X48477619Y-73500000D01*
X48049047Y-74452380D02*
X48049047Y-73452380D01*
X48049047Y-73928571D02*
X47477619Y-73928571D01*
X47477619Y-74452380D02*
X47477619Y-73452380D01*
X47001428Y-74452380D02*
X47001428Y-73452380D01*
X46620476Y-73452380D01*
X46525238Y-73500000D01*
X46477619Y-73547619D01*
X46430000Y-73642857D01*
X46430000Y-73785714D01*
X46477619Y-73880952D01*
X46525238Y-73928571D01*
X46620476Y-73976190D01*
X47001428Y-73976190D01*
X45572857Y-74452380D02*
X45572857Y-73928571D01*
X45620476Y-73833333D01*
X45715714Y-73785714D01*
X45906190Y-73785714D01*
X46001428Y-73833333D01*
X45572857Y-74404761D02*
X45668095Y-74452380D01*
X45906190Y-74452380D01*
X46001428Y-74404761D01*
X46049047Y-74309523D01*
X46049047Y-74214285D01*
X46001428Y-74119047D01*
X45906190Y-74071428D01*
X45668095Y-74071428D01*
X45572857Y-74023809D01*
X45096666Y-74452380D02*
X45096666Y-73785714D01*
X45096666Y-73976190D02*
X45049047Y-73880952D01*
X45001428Y-73833333D01*
X44906190Y-73785714D01*
X44810952Y-73785714D01*
X44477619Y-74452380D02*
X44477619Y-73452380D01*
X44382380Y-74071428D02*
X44096666Y-74452380D01*
X44096666Y-73785714D02*
X44477619Y-74166666D01*
X43668095Y-74357142D02*
X43620476Y-74404761D01*
X43668095Y-74452380D01*
X43715714Y-74404761D01*
X43668095Y-74357142D01*
X43668095Y-74452380D01*
X42763333Y-74404761D02*
X42858571Y-74452380D01*
X43049047Y-74452380D01*
X43144285Y-74404761D01*
X43191904Y-74357142D01*
X43239523Y-74261904D01*
X43239523Y-73976190D01*
X43191904Y-73880952D01*
X43144285Y-73833333D01*
X43049047Y-73785714D01*
X42858571Y-73785714D01*
X42763333Y-73833333D01*
X42191904Y-74452380D02*
X42287142Y-74404761D01*
X42334761Y-74357142D01*
X42382380Y-74261904D01*
X42382380Y-73976190D01*
X42334761Y-73880952D01*
X42287142Y-73833333D01*
X42191904Y-73785714D01*
X42049047Y-73785714D01*
X41953809Y-73833333D01*
X41906190Y-73880952D01*
X41858571Y-73976190D01*
X41858571Y-74261904D01*
X41906190Y-74357142D01*
X41953809Y-74404761D01*
X42049047Y-74452380D01*
X42191904Y-74452380D01*
X41430000Y-74452380D02*
X41430000Y-73785714D01*
X41430000Y-73880952D02*
X41382380Y-73833333D01*
X41287142Y-73785714D01*
X41144285Y-73785714D01*
X41049047Y-73833333D01*
X41001428Y-73928571D01*
X41001428Y-74452380D01*
X41001428Y-73928571D02*
X40953809Y-73833333D01*
X40858571Y-73785714D01*
X40715714Y-73785714D01*
X40620476Y-73833333D01*
X40572857Y-73928571D01*
X40572857Y-74452380D01*
D13*
G04 #@! TO.C,TP2*
X61180000Y-80500000D02*
G75*
G03*
X61180000Y-80500000I-700000J0D01*
G01*
G04 #@! TO.C,TP3*
X61180000Y-82500000D02*
G75*
G03*
X61180000Y-82500000I-700000J0D01*
G01*
G04 #@! TO.C,TP4*
X63180000Y-80500000D02*
G75*
G03*
X63180000Y-80500000I-700000J0D01*
G01*
G04 #@! TO.C,TP5*
X63180000Y-82500000D02*
G75*
G03*
X63180000Y-82500000I-700000J0D01*
G01*
G04 #@! TO.C,TP6*
X43330000Y-76000000D02*
G75*
G03*
X43330000Y-76000000I-700000J0D01*
G01*
G04 #@! TO.C,TP7*
X49530000Y-103250000D02*
G75*
G03*
X49530000Y-103250000I-700000J0D01*
G01*
G04 #@! TO.C,TP8*
X47230000Y-103250000D02*
G75*
G03*
X47230000Y-103250000I-700000J0D01*
G01*
G04 #@! TD*
M02*
