G04 #@! TF.GenerationSoftware,KiCad,Pcbnew,5.1.10-88a1d61d58~88~ubuntu20.04.1*
G04 #@! TF.CreationDate,2021-07-28T15:35:08+02:00*
G04 #@! TF.ProjectId,carrier,63617272-6965-4722-9e6b-696361645f70,0.1*
G04 #@! TF.SameCoordinates,Original*
G04 #@! TF.FileFunction,Soldermask,Top*
G04 #@! TF.FilePolarity,Negative*
%FSLAX46Y46*%
G04 Gerber Fmt 4.6, Leading zero omitted, Abs format (unit mm)*
G04 Created by KiCad (PCBNEW 5.1.10-88a1d61d58~88~ubuntu20.04.1) date 2021-07-28 15:35:08*
%MOMM*%
%LPD*%
G01*
G04 APERTURE LIST*
%ADD10C,2.100000*%
%ADD11C,5.100000*%
%ADD12C,0.370000*%
%ADD13C,1.550000*%
%ADD14O,1.300000X2.000000*%
G04 APERTURE END LIST*
D10*
G04 #@! TO.C,J2*
X52911000Y-97000000D03*
X50625000Y-97000000D03*
X55197000Y-97000000D03*
X48339000Y-97000000D03*
X46053000Y-97000000D03*
X49480000Y-94460000D03*
X44908000Y-94460000D03*
X54052000Y-94460000D03*
X47194000Y-94460000D03*
X51766000Y-94460000D03*
X44908000Y-99540000D03*
X47194000Y-99540000D03*
X49480000Y-99540000D03*
X51766000Y-99540000D03*
X54052000Y-99540000D03*
D11*
X37235000Y-97000000D03*
X62225000Y-97000000D03*
G04 #@! TD*
D12*
G04 #@! TO.C,U1*
X50480000Y-78750000D03*
X50980000Y-78750000D03*
X51480000Y-78750000D03*
X51980000Y-78750000D03*
X52480000Y-78750000D03*
X52980000Y-78750000D03*
X50480000Y-79250000D03*
X50980000Y-79250000D03*
X51480000Y-79250000D03*
X51980000Y-79250000D03*
X52480000Y-79250000D03*
X52980000Y-79250000D03*
X50480000Y-79750000D03*
X50980000Y-79750000D03*
X51480000Y-79750000D03*
X51980000Y-79750000D03*
X52480000Y-79750000D03*
X52980000Y-79750000D03*
X50480000Y-80250000D03*
X50980000Y-80250000D03*
X51480000Y-80250000D03*
X51980000Y-80250000D03*
X52480000Y-80250000D03*
X52980000Y-80250000D03*
X50480000Y-80750000D03*
X50980000Y-80750000D03*
X51480000Y-80750000D03*
X51980000Y-80750000D03*
X52480000Y-80750000D03*
X52980000Y-80750000D03*
X50480000Y-81250000D03*
X50980000Y-81250000D03*
X51480000Y-81250000D03*
X51980000Y-81250000D03*
X52480000Y-81250000D03*
X52980000Y-81250000D03*
X50480000Y-81750000D03*
X50980000Y-81750000D03*
X51480000Y-81750000D03*
X51980000Y-81750000D03*
X52480000Y-81750000D03*
X52980000Y-81750000D03*
X50480000Y-82250000D03*
X50980000Y-82250000D03*
X51480000Y-82250000D03*
X51980000Y-82250000D03*
X52480000Y-82250000D03*
X52980000Y-82250000D03*
X50480000Y-82750000D03*
X50980000Y-82750000D03*
X51480000Y-82750000D03*
X51980000Y-82750000D03*
X52480000Y-82750000D03*
X52980000Y-82750000D03*
X50480000Y-83250000D03*
X50980000Y-83250000D03*
X51480000Y-83250000D03*
X51980000Y-83250000D03*
X52480000Y-83250000D03*
X52980000Y-83250000D03*
G04 #@! TD*
G04 #@! TO.C,U2*
G36*
G01*
X59000000Y-78250000D02*
X58650000Y-78250000D01*
G75*
G02*
X58475000Y-78075000I0J175000D01*
G01*
X58475000Y-76725000D01*
G75*
G02*
X58650000Y-76550000I175000J0D01*
G01*
X59000000Y-76550000D01*
G75*
G02*
X59175000Y-76725000I0J-175000D01*
G01*
X59175000Y-78075000D01*
G75*
G02*
X59000000Y-78250000I-175000J0D01*
G01*
G37*
G36*
G01*
X60270000Y-78250000D02*
X59920000Y-78250000D01*
G75*
G02*
X59745000Y-78075000I0J175000D01*
G01*
X59745000Y-76725000D01*
G75*
G02*
X59920000Y-76550000I175000J0D01*
G01*
X60270000Y-76550000D01*
G75*
G02*
X60445000Y-76725000I0J-175000D01*
G01*
X60445000Y-78075000D01*
G75*
G02*
X60270000Y-78250000I-175000J0D01*
G01*
G37*
G36*
G01*
X61540000Y-78250000D02*
X61190000Y-78250000D01*
G75*
G02*
X61015000Y-78075000I0J175000D01*
G01*
X61015000Y-76725000D01*
G75*
G02*
X61190000Y-76550000I175000J0D01*
G01*
X61540000Y-76550000D01*
G75*
G02*
X61715000Y-76725000I0J-175000D01*
G01*
X61715000Y-78075000D01*
G75*
G02*
X61540000Y-78250000I-175000J0D01*
G01*
G37*
G36*
G01*
X62810000Y-78250000D02*
X62460000Y-78250000D01*
G75*
G02*
X62285000Y-78075000I0J175000D01*
G01*
X62285000Y-76725000D01*
G75*
G02*
X62460000Y-76550000I175000J0D01*
G01*
X62810000Y-76550000D01*
G75*
G02*
X62985000Y-76725000I0J-175000D01*
G01*
X62985000Y-78075000D01*
G75*
G02*
X62810000Y-78250000I-175000J0D01*
G01*
G37*
G36*
G01*
X62810000Y-85450000D02*
X62460000Y-85450000D01*
G75*
G02*
X62285000Y-85275000I0J175000D01*
G01*
X62285000Y-83925000D01*
G75*
G02*
X62460000Y-83750000I175000J0D01*
G01*
X62810000Y-83750000D01*
G75*
G02*
X62985000Y-83925000I0J-175000D01*
G01*
X62985000Y-85275000D01*
G75*
G02*
X62810000Y-85450000I-175000J0D01*
G01*
G37*
G36*
G01*
X61540000Y-85450000D02*
X61190000Y-85450000D01*
G75*
G02*
X61015000Y-85275000I0J175000D01*
G01*
X61015000Y-83925000D01*
G75*
G02*
X61190000Y-83750000I175000J0D01*
G01*
X61540000Y-83750000D01*
G75*
G02*
X61715000Y-83925000I0J-175000D01*
G01*
X61715000Y-85275000D01*
G75*
G02*
X61540000Y-85450000I-175000J0D01*
G01*
G37*
G36*
G01*
X60270000Y-85450000D02*
X59920000Y-85450000D01*
G75*
G02*
X59745000Y-85275000I0J175000D01*
G01*
X59745000Y-83925000D01*
G75*
G02*
X59920000Y-83750000I175000J0D01*
G01*
X60270000Y-83750000D01*
G75*
G02*
X60445000Y-83925000I0J-175000D01*
G01*
X60445000Y-85275000D01*
G75*
G02*
X60270000Y-85450000I-175000J0D01*
G01*
G37*
G36*
G01*
X59000000Y-85450000D02*
X58650000Y-85450000D01*
G75*
G02*
X58475000Y-85275000I0J175000D01*
G01*
X58475000Y-83925000D01*
G75*
G02*
X58650000Y-83750000I175000J0D01*
G01*
X59000000Y-83750000D01*
G75*
G02*
X59175000Y-83925000I0J-175000D01*
G01*
X59175000Y-85275000D01*
G75*
G02*
X59000000Y-85450000I-175000J0D01*
G01*
G37*
G04 #@! TD*
G04 #@! TO.C,J1*
G36*
G01*
X41430000Y-86545000D02*
X41430000Y-85805000D01*
G75*
G02*
X41480000Y-85755000I50000J0D01*
G01*
X43880000Y-85755000D01*
G75*
G02*
X43930000Y-85805000I0J-50000D01*
G01*
X43930000Y-86545000D01*
G75*
G02*
X43880000Y-86595000I-50000J0D01*
G01*
X41480000Y-86595000D01*
G75*
G02*
X41430000Y-86545000I0J50000D01*
G01*
G37*
G36*
G01*
X37530000Y-86545000D02*
X37530000Y-85805000D01*
G75*
G02*
X37580000Y-85755000I50000J0D01*
G01*
X39980000Y-85755000D01*
G75*
G02*
X40030000Y-85805000I0J-50000D01*
G01*
X40030000Y-86545000D01*
G75*
G02*
X39980000Y-86595000I-50000J0D01*
G01*
X37580000Y-86595000D01*
G75*
G02*
X37530000Y-86545000I0J50000D01*
G01*
G37*
G36*
G01*
X41430000Y-85275000D02*
X41430000Y-84535000D01*
G75*
G02*
X41480000Y-84485000I50000J0D01*
G01*
X43880000Y-84485000D01*
G75*
G02*
X43930000Y-84535000I0J-50000D01*
G01*
X43930000Y-85275000D01*
G75*
G02*
X43880000Y-85325000I-50000J0D01*
G01*
X41480000Y-85325000D01*
G75*
G02*
X41430000Y-85275000I0J50000D01*
G01*
G37*
G36*
G01*
X37530000Y-85275000D02*
X37530000Y-84535000D01*
G75*
G02*
X37580000Y-84485000I50000J0D01*
G01*
X39980000Y-84485000D01*
G75*
G02*
X40030000Y-84535000I0J-50000D01*
G01*
X40030000Y-85275000D01*
G75*
G02*
X39980000Y-85325000I-50000J0D01*
G01*
X37580000Y-85325000D01*
G75*
G02*
X37530000Y-85275000I0J50000D01*
G01*
G37*
G36*
G01*
X41430000Y-84005000D02*
X41430000Y-83265000D01*
G75*
G02*
X41480000Y-83215000I50000J0D01*
G01*
X43880000Y-83215000D01*
G75*
G02*
X43930000Y-83265000I0J-50000D01*
G01*
X43930000Y-84005000D01*
G75*
G02*
X43880000Y-84055000I-50000J0D01*
G01*
X41480000Y-84055000D01*
G75*
G02*
X41430000Y-84005000I0J50000D01*
G01*
G37*
G36*
G01*
X37530000Y-84005000D02*
X37530000Y-83265000D01*
G75*
G02*
X37580000Y-83215000I50000J0D01*
G01*
X39980000Y-83215000D01*
G75*
G02*
X40030000Y-83265000I0J-50000D01*
G01*
X40030000Y-84005000D01*
G75*
G02*
X39980000Y-84055000I-50000J0D01*
G01*
X37580000Y-84055000D01*
G75*
G02*
X37530000Y-84005000I0J50000D01*
G01*
G37*
G36*
G01*
X41430000Y-82735000D02*
X41430000Y-81995000D01*
G75*
G02*
X41480000Y-81945000I50000J0D01*
G01*
X43880000Y-81945000D01*
G75*
G02*
X43930000Y-81995000I0J-50000D01*
G01*
X43930000Y-82735000D01*
G75*
G02*
X43880000Y-82785000I-50000J0D01*
G01*
X41480000Y-82785000D01*
G75*
G02*
X41430000Y-82735000I0J50000D01*
G01*
G37*
G36*
G01*
X37530000Y-82735000D02*
X37530000Y-81995000D01*
G75*
G02*
X37580000Y-81945000I50000J0D01*
G01*
X39980000Y-81945000D01*
G75*
G02*
X40030000Y-81995000I0J-50000D01*
G01*
X40030000Y-82735000D01*
G75*
G02*
X39980000Y-82785000I-50000J0D01*
G01*
X37580000Y-82785000D01*
G75*
G02*
X37530000Y-82735000I0J50000D01*
G01*
G37*
G36*
G01*
X41430000Y-81465000D02*
X41430000Y-80725000D01*
G75*
G02*
X41480000Y-80675000I50000J0D01*
G01*
X43880000Y-80675000D01*
G75*
G02*
X43930000Y-80725000I0J-50000D01*
G01*
X43930000Y-81465000D01*
G75*
G02*
X43880000Y-81515000I-50000J0D01*
G01*
X41480000Y-81515000D01*
G75*
G02*
X41430000Y-81465000I0J50000D01*
G01*
G37*
G36*
G01*
X37530000Y-81465000D02*
X37530000Y-80725000D01*
G75*
G02*
X37580000Y-80675000I50000J0D01*
G01*
X39980000Y-80675000D01*
G75*
G02*
X40030000Y-80725000I0J-50000D01*
G01*
X40030000Y-81465000D01*
G75*
G02*
X39980000Y-81515000I-50000J0D01*
G01*
X37580000Y-81515000D01*
G75*
G02*
X37530000Y-81465000I0J50000D01*
G01*
G37*
G36*
G01*
X41430000Y-80195000D02*
X41430000Y-79455000D01*
G75*
G02*
X41480000Y-79405000I50000J0D01*
G01*
X43880000Y-79405000D01*
G75*
G02*
X43930000Y-79455000I0J-50000D01*
G01*
X43930000Y-80195000D01*
G75*
G02*
X43880000Y-80245000I-50000J0D01*
G01*
X41480000Y-80245000D01*
G75*
G02*
X41430000Y-80195000I0J50000D01*
G01*
G37*
G36*
G01*
X37530000Y-80195000D02*
X37530000Y-79455000D01*
G75*
G02*
X37580000Y-79405000I50000J0D01*
G01*
X39980000Y-79405000D01*
G75*
G02*
X40030000Y-79455000I0J-50000D01*
G01*
X40030000Y-80195000D01*
G75*
G02*
X39980000Y-80245000I-50000J0D01*
G01*
X37580000Y-80245000D01*
G75*
G02*
X37530000Y-80195000I0J50000D01*
G01*
G37*
G04 #@! TD*
G04 #@! TO.C,X1*
G36*
G01*
X42080000Y-71880000D02*
X43580000Y-71880000D01*
G75*
G02*
X43630000Y-71930000I0J-50000D01*
G01*
X43630000Y-73530000D01*
G75*
G02*
X43580000Y-73580000I-50000J0D01*
G01*
X42080000Y-73580000D01*
G75*
G02*
X42030000Y-73530000I0J50000D01*
G01*
X42030000Y-71930000D01*
G75*
G02*
X42080000Y-71880000I50000J0D01*
G01*
G37*
G36*
G01*
X42080000Y-74420000D02*
X43580000Y-74420000D01*
G75*
G02*
X43630000Y-74470000I0J-50000D01*
G01*
X43630000Y-76070000D01*
G75*
G02*
X43580000Y-76120000I-50000J0D01*
G01*
X42080000Y-76120000D01*
G75*
G02*
X42030000Y-76070000I0J50000D01*
G01*
X42030000Y-74470000D01*
G75*
G02*
X42080000Y-74420000I50000J0D01*
G01*
G37*
G36*
G01*
X39880000Y-74420000D02*
X41380000Y-74420000D01*
G75*
G02*
X41430000Y-74470000I0J-50000D01*
G01*
X41430000Y-76070000D01*
G75*
G02*
X41380000Y-76120000I-50000J0D01*
G01*
X39880000Y-76120000D01*
G75*
G02*
X39830000Y-76070000I0J50000D01*
G01*
X39830000Y-74470000D01*
G75*
G02*
X39880000Y-74420000I50000J0D01*
G01*
G37*
G36*
G01*
X39880000Y-71880000D02*
X41380000Y-71880000D01*
G75*
G02*
X41430000Y-71930000I0J-50000D01*
G01*
X41430000Y-73530000D01*
G75*
G02*
X41380000Y-73580000I-50000J0D01*
G01*
X39880000Y-73580000D01*
G75*
G02*
X39830000Y-73530000I0J50000D01*
G01*
X39830000Y-71930000D01*
G75*
G02*
X39880000Y-71880000I50000J0D01*
G01*
G37*
G04 #@! TD*
G04 #@! TO.C,U6*
G36*
G01*
X53505000Y-71270000D02*
X54155000Y-71270000D01*
G75*
G02*
X54205000Y-71320000I0J-50000D01*
G01*
X54205000Y-72380000D01*
G75*
G02*
X54155000Y-72430000I-50000J0D01*
G01*
X53505000Y-72430000D01*
G75*
G02*
X53455000Y-72380000I0J50000D01*
G01*
X53455000Y-71320000D01*
G75*
G02*
X53505000Y-71270000I50000J0D01*
G01*
G37*
G36*
G01*
X51605000Y-71270000D02*
X52255000Y-71270000D01*
G75*
G02*
X52305000Y-71320000I0J-50000D01*
G01*
X52305000Y-72380000D01*
G75*
G02*
X52255000Y-72430000I-50000J0D01*
G01*
X51605000Y-72430000D01*
G75*
G02*
X51555000Y-72380000I0J50000D01*
G01*
X51555000Y-71320000D01*
G75*
G02*
X51605000Y-71270000I50000J0D01*
G01*
G37*
G36*
G01*
X51605000Y-69070000D02*
X52255000Y-69070000D01*
G75*
G02*
X52305000Y-69120000I0J-50000D01*
G01*
X52305000Y-70180000D01*
G75*
G02*
X52255000Y-70230000I-50000J0D01*
G01*
X51605000Y-70230000D01*
G75*
G02*
X51555000Y-70180000I0J50000D01*
G01*
X51555000Y-69120000D01*
G75*
G02*
X51605000Y-69070000I50000J0D01*
G01*
G37*
G36*
G01*
X52555000Y-69070000D02*
X53205000Y-69070000D01*
G75*
G02*
X53255000Y-69120000I0J-50000D01*
G01*
X53255000Y-70180000D01*
G75*
G02*
X53205000Y-70230000I-50000J0D01*
G01*
X52555000Y-70230000D01*
G75*
G02*
X52505000Y-70180000I0J50000D01*
G01*
X52505000Y-69120000D01*
G75*
G02*
X52555000Y-69070000I50000J0D01*
G01*
G37*
G36*
G01*
X53505000Y-69070000D02*
X54155000Y-69070000D01*
G75*
G02*
X54205000Y-69120000I0J-50000D01*
G01*
X54205000Y-70180000D01*
G75*
G02*
X54155000Y-70230000I-50000J0D01*
G01*
X53505000Y-70230000D01*
G75*
G02*
X53455000Y-70180000I0J50000D01*
G01*
X53455000Y-69120000D01*
G75*
G02*
X53505000Y-69070000I50000J0D01*
G01*
G37*
G04 #@! TD*
G04 #@! TO.C,U5*
G36*
G01*
X60255000Y-71270000D02*
X60905000Y-71270000D01*
G75*
G02*
X60955000Y-71320000I0J-50000D01*
G01*
X60955000Y-72380000D01*
G75*
G02*
X60905000Y-72430000I-50000J0D01*
G01*
X60255000Y-72430000D01*
G75*
G02*
X60205000Y-72380000I0J50000D01*
G01*
X60205000Y-71320000D01*
G75*
G02*
X60255000Y-71270000I50000J0D01*
G01*
G37*
G36*
G01*
X58355000Y-71270000D02*
X59005000Y-71270000D01*
G75*
G02*
X59055000Y-71320000I0J-50000D01*
G01*
X59055000Y-72380000D01*
G75*
G02*
X59005000Y-72430000I-50000J0D01*
G01*
X58355000Y-72430000D01*
G75*
G02*
X58305000Y-72380000I0J50000D01*
G01*
X58305000Y-71320000D01*
G75*
G02*
X58355000Y-71270000I50000J0D01*
G01*
G37*
G36*
G01*
X58355000Y-69070000D02*
X59005000Y-69070000D01*
G75*
G02*
X59055000Y-69120000I0J-50000D01*
G01*
X59055000Y-70180000D01*
G75*
G02*
X59005000Y-70230000I-50000J0D01*
G01*
X58355000Y-70230000D01*
G75*
G02*
X58305000Y-70180000I0J50000D01*
G01*
X58305000Y-69120000D01*
G75*
G02*
X58355000Y-69070000I50000J0D01*
G01*
G37*
G36*
G01*
X59305000Y-69070000D02*
X59955000Y-69070000D01*
G75*
G02*
X60005000Y-69120000I0J-50000D01*
G01*
X60005000Y-70180000D01*
G75*
G02*
X59955000Y-70230000I-50000J0D01*
G01*
X59305000Y-70230000D01*
G75*
G02*
X59255000Y-70180000I0J50000D01*
G01*
X59255000Y-69120000D01*
G75*
G02*
X59305000Y-69070000I50000J0D01*
G01*
G37*
G36*
G01*
X60255000Y-69070000D02*
X60905000Y-69070000D01*
G75*
G02*
X60955000Y-69120000I0J-50000D01*
G01*
X60955000Y-70180000D01*
G75*
G02*
X60905000Y-70230000I-50000J0D01*
G01*
X60255000Y-70230000D01*
G75*
G02*
X60205000Y-70180000I0J50000D01*
G01*
X60205000Y-69120000D01*
G75*
G02*
X60255000Y-69070000I50000J0D01*
G01*
G37*
G04 #@! TD*
G04 #@! TO.C,C7*
G36*
G01*
X52880000Y-73218750D02*
X52880000Y-73781250D01*
G75*
G02*
X52636250Y-74025000I-243750J0D01*
G01*
X52148750Y-74025000D01*
G75*
G02*
X51905000Y-73781250I0J243750D01*
G01*
X51905000Y-73218750D01*
G75*
G02*
X52148750Y-72975000I243750J0D01*
G01*
X52636250Y-72975000D01*
G75*
G02*
X52880000Y-73218750I0J-243750D01*
G01*
G37*
G36*
G01*
X54455000Y-73218750D02*
X54455000Y-73781250D01*
G75*
G02*
X54211250Y-74025000I-243750J0D01*
G01*
X53723750Y-74025000D01*
G75*
G02*
X53480000Y-73781250I0J243750D01*
G01*
X53480000Y-73218750D01*
G75*
G02*
X53723750Y-72975000I243750J0D01*
G01*
X54211250Y-72975000D01*
G75*
G02*
X54455000Y-73218750I0J-243750D01*
G01*
G37*
G04 #@! TD*
G04 #@! TO.C,C5*
G36*
G01*
X52880000Y-67718750D02*
X52880000Y-68281250D01*
G75*
G02*
X52636250Y-68525000I-243750J0D01*
G01*
X52148750Y-68525000D01*
G75*
G02*
X51905000Y-68281250I0J243750D01*
G01*
X51905000Y-67718750D01*
G75*
G02*
X52148750Y-67475000I243750J0D01*
G01*
X52636250Y-67475000D01*
G75*
G02*
X52880000Y-67718750I0J-243750D01*
G01*
G37*
G36*
G01*
X54455000Y-67718750D02*
X54455000Y-68281250D01*
G75*
G02*
X54211250Y-68525000I-243750J0D01*
G01*
X53723750Y-68525000D01*
G75*
G02*
X53480000Y-68281250I0J243750D01*
G01*
X53480000Y-67718750D01*
G75*
G02*
X53723750Y-67475000I243750J0D01*
G01*
X54211250Y-67475000D01*
G75*
G02*
X54455000Y-67718750I0J-243750D01*
G01*
G37*
G04 #@! TD*
G04 #@! TO.C,C3*
G36*
G01*
X59630000Y-73218750D02*
X59630000Y-73781250D01*
G75*
G02*
X59386250Y-74025000I-243750J0D01*
G01*
X58898750Y-74025000D01*
G75*
G02*
X58655000Y-73781250I0J243750D01*
G01*
X58655000Y-73218750D01*
G75*
G02*
X58898750Y-72975000I243750J0D01*
G01*
X59386250Y-72975000D01*
G75*
G02*
X59630000Y-73218750I0J-243750D01*
G01*
G37*
G36*
G01*
X61205000Y-73218750D02*
X61205000Y-73781250D01*
G75*
G02*
X60961250Y-74025000I-243750J0D01*
G01*
X60473750Y-74025000D01*
G75*
G02*
X60230000Y-73781250I0J243750D01*
G01*
X60230000Y-73218750D01*
G75*
G02*
X60473750Y-72975000I243750J0D01*
G01*
X60961250Y-72975000D01*
G75*
G02*
X61205000Y-73218750I0J-243750D01*
G01*
G37*
G04 #@! TD*
G04 #@! TO.C,C1*
G36*
G01*
X59630000Y-67718750D02*
X59630000Y-68281250D01*
G75*
G02*
X59386250Y-68525000I-243750J0D01*
G01*
X58898750Y-68525000D01*
G75*
G02*
X58655000Y-68281250I0J243750D01*
G01*
X58655000Y-67718750D01*
G75*
G02*
X58898750Y-67475000I243750J0D01*
G01*
X59386250Y-67475000D01*
G75*
G02*
X59630000Y-67718750I0J-243750D01*
G01*
G37*
G36*
G01*
X61205000Y-67718750D02*
X61205000Y-68281250D01*
G75*
G02*
X60961250Y-68525000I-243750J0D01*
G01*
X60473750Y-68525000D01*
G75*
G02*
X60230000Y-68281250I0J243750D01*
G01*
X60230000Y-67718750D01*
G75*
G02*
X60473750Y-67475000I243750J0D01*
G01*
X60961250Y-67475000D01*
G75*
G02*
X61205000Y-67718750I0J-243750D01*
G01*
G37*
G04 #@! TD*
G04 #@! TO.C,C9*
G36*
G01*
X56005000Y-82725000D02*
X55455000Y-82725000D01*
G75*
G02*
X55205000Y-82475000I0J250000D01*
G01*
X55205000Y-81975000D01*
G75*
G02*
X55455000Y-81725000I250000J0D01*
G01*
X56005000Y-81725000D01*
G75*
G02*
X56255000Y-81975000I0J-250000D01*
G01*
X56255000Y-82475000D01*
G75*
G02*
X56005000Y-82725000I-250000J0D01*
G01*
G37*
G36*
G01*
X56005000Y-84275000D02*
X55455000Y-84275000D01*
G75*
G02*
X55205000Y-84025000I0J250000D01*
G01*
X55205000Y-83525000D01*
G75*
G02*
X55455000Y-83275000I250000J0D01*
G01*
X56005000Y-83275000D01*
G75*
G02*
X56255000Y-83525000I0J-250000D01*
G01*
X56255000Y-84025000D01*
G75*
G02*
X56005000Y-84275000I-250000J0D01*
G01*
G37*
G04 #@! TD*
G04 #@! TO.C,C10*
G36*
G01*
X51230000Y-75725000D02*
X51230000Y-76275000D01*
G75*
G02*
X50980000Y-76525000I-250000J0D01*
G01*
X50480000Y-76525000D01*
G75*
G02*
X50230000Y-76275000I0J250000D01*
G01*
X50230000Y-75725000D01*
G75*
G02*
X50480000Y-75475000I250000J0D01*
G01*
X50980000Y-75475000D01*
G75*
G02*
X51230000Y-75725000I0J-250000D01*
G01*
G37*
G36*
G01*
X49680000Y-75725000D02*
X49680000Y-76275000D01*
G75*
G02*
X49430000Y-76525000I-250000J0D01*
G01*
X48930000Y-76525000D01*
G75*
G02*
X48680000Y-76275000I0J250000D01*
G01*
X48680000Y-75725000D01*
G75*
G02*
X48930000Y-75475000I250000J0D01*
G01*
X49430000Y-75475000D01*
G75*
G02*
X49680000Y-75725000I0J-250000D01*
G01*
G37*
G04 #@! TD*
G04 #@! TO.C,C11*
G36*
G01*
X55455000Y-80275000D02*
X56005000Y-80275000D01*
G75*
G02*
X56255000Y-80525000I0J-250000D01*
G01*
X56255000Y-81025000D01*
G75*
G02*
X56005000Y-81275000I-250000J0D01*
G01*
X55455000Y-81275000D01*
G75*
G02*
X55205000Y-81025000I0J250000D01*
G01*
X55205000Y-80525000D01*
G75*
G02*
X55455000Y-80275000I250000J0D01*
G01*
G37*
G36*
G01*
X55455000Y-78725000D02*
X56005000Y-78725000D01*
G75*
G02*
X56255000Y-78975000I0J-250000D01*
G01*
X56255000Y-79475000D01*
G75*
G02*
X56005000Y-79725000I-250000J0D01*
G01*
X55455000Y-79725000D01*
G75*
G02*
X55205000Y-79475000I0J250000D01*
G01*
X55205000Y-78975000D01*
G75*
G02*
X55455000Y-78725000I250000J0D01*
G01*
G37*
G04 #@! TD*
G04 #@! TO.C,C16*
G36*
G01*
X44980000Y-75275000D02*
X44980000Y-74725000D01*
G75*
G02*
X45230000Y-74475000I250000J0D01*
G01*
X45730000Y-74475000D01*
G75*
G02*
X45980000Y-74725000I0J-250000D01*
G01*
X45980000Y-75275000D01*
G75*
G02*
X45730000Y-75525000I-250000J0D01*
G01*
X45230000Y-75525000D01*
G75*
G02*
X44980000Y-75275000I0J250000D01*
G01*
G37*
G36*
G01*
X46530000Y-75275000D02*
X46530000Y-74725000D01*
G75*
G02*
X46780000Y-74475000I250000J0D01*
G01*
X47280000Y-74475000D01*
G75*
G02*
X47530000Y-74725000I0J-250000D01*
G01*
X47530000Y-75275000D01*
G75*
G02*
X47280000Y-75525000I-250000J0D01*
G01*
X46780000Y-75525000D01*
G75*
G02*
X46530000Y-75275000I0J250000D01*
G01*
G37*
G04 #@! TD*
G04 #@! TO.C,R1*
G36*
G01*
X58030000Y-88625000D02*
X57430000Y-88625000D01*
G75*
G02*
X57205000Y-88400000I0J225000D01*
G01*
X57205000Y-87950000D01*
G75*
G02*
X57430000Y-87725000I225000J0D01*
G01*
X58030000Y-87725000D01*
G75*
G02*
X58255000Y-87950000I0J-225000D01*
G01*
X58255000Y-88400000D01*
G75*
G02*
X58030000Y-88625000I-225000J0D01*
G01*
G37*
G36*
G01*
X58030000Y-90275000D02*
X57430000Y-90275000D01*
G75*
G02*
X57205000Y-90050000I0J225000D01*
G01*
X57205000Y-89600000D01*
G75*
G02*
X57430000Y-89375000I225000J0D01*
G01*
X58030000Y-89375000D01*
G75*
G02*
X58255000Y-89600000I0J-225000D01*
G01*
X58255000Y-90050000D01*
G75*
G02*
X58030000Y-90275000I-225000J0D01*
G01*
G37*
G04 #@! TD*
G04 #@! TO.C,R2*
G36*
G01*
X56030000Y-90275000D02*
X55430000Y-90275000D01*
G75*
G02*
X55205000Y-90050000I0J225000D01*
G01*
X55205000Y-89600000D01*
G75*
G02*
X55430000Y-89375000I225000J0D01*
G01*
X56030000Y-89375000D01*
G75*
G02*
X56255000Y-89600000I0J-225000D01*
G01*
X56255000Y-90050000D01*
G75*
G02*
X56030000Y-90275000I-225000J0D01*
G01*
G37*
G36*
G01*
X56030000Y-88625000D02*
X55430000Y-88625000D01*
G75*
G02*
X55205000Y-88400000I0J225000D01*
G01*
X55205000Y-87950000D01*
G75*
G02*
X55430000Y-87725000I225000J0D01*
G01*
X56030000Y-87725000D01*
G75*
G02*
X56255000Y-87950000I0J-225000D01*
G01*
X56255000Y-88400000D01*
G75*
G02*
X56030000Y-88625000I-225000J0D01*
G01*
G37*
G04 #@! TD*
G04 #@! TO.C,R3*
G36*
G01*
X54030000Y-88625000D02*
X53430000Y-88625000D01*
G75*
G02*
X53205000Y-88400000I0J225000D01*
G01*
X53205000Y-87950000D01*
G75*
G02*
X53430000Y-87725000I225000J0D01*
G01*
X54030000Y-87725000D01*
G75*
G02*
X54255000Y-87950000I0J-225000D01*
G01*
X54255000Y-88400000D01*
G75*
G02*
X54030000Y-88625000I-225000J0D01*
G01*
G37*
G36*
G01*
X54030000Y-90275000D02*
X53430000Y-90275000D01*
G75*
G02*
X53205000Y-90050000I0J225000D01*
G01*
X53205000Y-89600000D01*
G75*
G02*
X53430000Y-89375000I225000J0D01*
G01*
X54030000Y-89375000D01*
G75*
G02*
X54255000Y-89600000I0J-225000D01*
G01*
X54255000Y-90050000D01*
G75*
G02*
X54030000Y-90275000I-225000J0D01*
G01*
G37*
G04 #@! TD*
G04 #@! TO.C,R4*
G36*
G01*
X52030000Y-90330001D02*
X51430000Y-90330001D01*
G75*
G02*
X51205000Y-90105001I0J225000D01*
G01*
X51205000Y-89655001D01*
G75*
G02*
X51430000Y-89430001I225000J0D01*
G01*
X52030000Y-89430001D01*
G75*
G02*
X52255000Y-89655001I0J-225000D01*
G01*
X52255000Y-90105001D01*
G75*
G02*
X52030000Y-90330001I-225000J0D01*
G01*
G37*
G36*
G01*
X52030000Y-88680001D02*
X51430000Y-88680001D01*
G75*
G02*
X51205000Y-88455001I0J225000D01*
G01*
X51205000Y-88005001D01*
G75*
G02*
X51430000Y-87780001I225000J0D01*
G01*
X52030000Y-87780001D01*
G75*
G02*
X52255000Y-88005001I0J-225000D01*
G01*
X52255000Y-88455001D01*
G75*
G02*
X52030000Y-88680001I-225000J0D01*
G01*
G37*
G04 #@! TD*
G04 #@! TO.C,R5*
G36*
G01*
X50030000Y-88625000D02*
X49430000Y-88625000D01*
G75*
G02*
X49205000Y-88400000I0J225000D01*
G01*
X49205000Y-87950000D01*
G75*
G02*
X49430000Y-87725000I225000J0D01*
G01*
X50030000Y-87725000D01*
G75*
G02*
X50255000Y-87950000I0J-225000D01*
G01*
X50255000Y-88400000D01*
G75*
G02*
X50030000Y-88625000I-225000J0D01*
G01*
G37*
G36*
G01*
X50030000Y-90275000D02*
X49430000Y-90275000D01*
G75*
G02*
X49205000Y-90050000I0J225000D01*
G01*
X49205000Y-89600000D01*
G75*
G02*
X49430000Y-89375000I225000J0D01*
G01*
X50030000Y-89375000D01*
G75*
G02*
X50255000Y-89600000I0J-225000D01*
G01*
X50255000Y-90050000D01*
G75*
G02*
X50030000Y-90275000I-225000J0D01*
G01*
G37*
G04 #@! TD*
G04 #@! TO.C,R6*
G36*
G01*
X48030000Y-90275000D02*
X47430000Y-90275000D01*
G75*
G02*
X47205000Y-90050000I0J225000D01*
G01*
X47205000Y-89600000D01*
G75*
G02*
X47430000Y-89375000I225000J0D01*
G01*
X48030000Y-89375000D01*
G75*
G02*
X48255000Y-89600000I0J-225000D01*
G01*
X48255000Y-90050000D01*
G75*
G02*
X48030000Y-90275000I-225000J0D01*
G01*
G37*
G36*
G01*
X48030000Y-88625000D02*
X47430000Y-88625000D01*
G75*
G02*
X47205000Y-88400000I0J225000D01*
G01*
X47205000Y-87950000D01*
G75*
G02*
X47430000Y-87725000I225000J0D01*
G01*
X48030000Y-87725000D01*
G75*
G02*
X48255000Y-87950000I0J-225000D01*
G01*
X48255000Y-88400000D01*
G75*
G02*
X48030000Y-88625000I-225000J0D01*
G01*
G37*
G04 #@! TD*
G04 #@! TO.C,J3*
G36*
G01*
X57530000Y-61050000D02*
X57530000Y-62950000D01*
G75*
G02*
X57480000Y-63000000I-50000J0D01*
G01*
X55980000Y-63000000D01*
G75*
G02*
X55930000Y-62950000I0J50000D01*
G01*
X55930000Y-61050000D01*
G75*
G02*
X55980000Y-61000000I50000J0D01*
G01*
X57480000Y-61000000D01*
G75*
G02*
X57530000Y-61050000I0J-50000D01*
G01*
G37*
D13*
X60230000Y-64700000D03*
G36*
G01*
X58630000Y-64025000D02*
X58630000Y-65375000D01*
G75*
G02*
X58580000Y-65425000I-50000J0D01*
G01*
X58180000Y-65425000D01*
G75*
G02*
X58130000Y-65375000I0J50000D01*
G01*
X58130000Y-64025000D01*
G75*
G02*
X58180000Y-63975000I50000J0D01*
G01*
X58580000Y-63975000D01*
G75*
G02*
X58630000Y-64025000I0J-50000D01*
G01*
G37*
G36*
G01*
X59280000Y-64025000D02*
X59280000Y-65375000D01*
G75*
G02*
X59230000Y-65425000I-50000J0D01*
G01*
X58830000Y-65425000D01*
G75*
G02*
X58780000Y-65375000I0J50000D01*
G01*
X58780000Y-64025000D01*
G75*
G02*
X58830000Y-63975000I50000J0D01*
G01*
X59230000Y-63975000D01*
G75*
G02*
X59280000Y-64025000I0J-50000D01*
G01*
G37*
G36*
G01*
X56680000Y-64025000D02*
X56680000Y-65375000D01*
G75*
G02*
X56630000Y-65425000I-50000J0D01*
G01*
X56230000Y-65425000D01*
G75*
G02*
X56180000Y-65375000I0J50000D01*
G01*
X56180000Y-64025000D01*
G75*
G02*
X56230000Y-63975000I50000J0D01*
G01*
X56630000Y-63975000D01*
G75*
G02*
X56680000Y-64025000I0J-50000D01*
G01*
G37*
G36*
G01*
X57330000Y-64025000D02*
X57330000Y-65375000D01*
G75*
G02*
X57280000Y-65425000I-50000J0D01*
G01*
X56880000Y-65425000D01*
G75*
G02*
X56830000Y-65375000I0J50000D01*
G01*
X56830000Y-64025000D01*
G75*
G02*
X56880000Y-63975000I50000J0D01*
G01*
X57280000Y-63975000D01*
G75*
G02*
X57330000Y-64025000I0J-50000D01*
G01*
G37*
G36*
G01*
X57980000Y-64025000D02*
X57980000Y-65375000D01*
G75*
G02*
X57930000Y-65425000I-50000J0D01*
G01*
X57530000Y-65425000D01*
G75*
G02*
X57480000Y-65375000I0J50000D01*
G01*
X57480000Y-64025000D01*
G75*
G02*
X57530000Y-63975000I50000J0D01*
G01*
X57930000Y-63975000D01*
G75*
G02*
X57980000Y-64025000I0J-50000D01*
G01*
G37*
X55230000Y-64700000D03*
G36*
G01*
X59530000Y-61050000D02*
X59530000Y-62950000D01*
G75*
G02*
X59480000Y-63000000I-50000J0D01*
G01*
X57980000Y-63000000D01*
G75*
G02*
X57930000Y-62950000I0J50000D01*
G01*
X57930000Y-61050000D01*
G75*
G02*
X57980000Y-61000000I50000J0D01*
G01*
X59480000Y-61000000D01*
G75*
G02*
X59530000Y-61050000I0J-50000D01*
G01*
G37*
D14*
X61230000Y-62000000D03*
X54230000Y-62000000D03*
G36*
G01*
X55480000Y-61050000D02*
X55480000Y-62950000D01*
G75*
G02*
X55430000Y-63000000I-50000J0D01*
G01*
X54230000Y-63000000D01*
G75*
G02*
X54180000Y-62950000I0J50000D01*
G01*
X54180000Y-61050000D01*
G75*
G02*
X54230000Y-61000000I50000J0D01*
G01*
X55430000Y-61000000D01*
G75*
G02*
X55480000Y-61050000I0J-50000D01*
G01*
G37*
G36*
G01*
X61280000Y-61050000D02*
X61280000Y-62950000D01*
G75*
G02*
X61230000Y-63000000I-50000J0D01*
G01*
X60030000Y-63000000D01*
G75*
G02*
X59980000Y-62950000I0J50000D01*
G01*
X59980000Y-61050000D01*
G75*
G02*
X60030000Y-61000000I50000J0D01*
G01*
X61230000Y-61000000D01*
G75*
G02*
X61280000Y-61050000I0J-50000D01*
G01*
G37*
G04 #@! TD*
G04 #@! TO.C,D1*
G36*
G01*
X45055000Y-71481250D02*
X45055000Y-70918750D01*
G75*
G02*
X45298750Y-70675000I243750J0D01*
G01*
X45786250Y-70675000D01*
G75*
G02*
X46030000Y-70918750I0J-243750D01*
G01*
X46030000Y-71481250D01*
G75*
G02*
X45786250Y-71725000I-243750J0D01*
G01*
X45298750Y-71725000D01*
G75*
G02*
X45055000Y-71481250I0J243750D01*
G01*
G37*
G36*
G01*
X46630000Y-71481250D02*
X46630000Y-70918750D01*
G75*
G02*
X46873750Y-70675000I243750J0D01*
G01*
X47361250Y-70675000D01*
G75*
G02*
X47605000Y-70918750I0J-243750D01*
G01*
X47605000Y-71481250D01*
G75*
G02*
X47361250Y-71725000I-243750J0D01*
G01*
X46873750Y-71725000D01*
G75*
G02*
X46630000Y-71481250I0J243750D01*
G01*
G37*
G04 #@! TD*
G04 #@! TO.C,R7*
G36*
G01*
X45055000Y-73500000D02*
X45055000Y-72900000D01*
G75*
G02*
X45280000Y-72675000I225000J0D01*
G01*
X45730000Y-72675000D01*
G75*
G02*
X45955000Y-72900000I0J-225000D01*
G01*
X45955000Y-73500000D01*
G75*
G02*
X45730000Y-73725000I-225000J0D01*
G01*
X45280000Y-73725000D01*
G75*
G02*
X45055000Y-73500000I0J225000D01*
G01*
G37*
G36*
G01*
X46705000Y-73500000D02*
X46705000Y-72900000D01*
G75*
G02*
X46930000Y-72675000I225000J0D01*
G01*
X47380000Y-72675000D01*
G75*
G02*
X47605000Y-72900000I0J-225000D01*
G01*
X47605000Y-73500000D01*
G75*
G02*
X47380000Y-73725000I-225000J0D01*
G01*
X46930000Y-73725000D01*
G75*
G02*
X46705000Y-73500000I0J225000D01*
G01*
G37*
G04 #@! TD*
G04 #@! TO.C,SW1*
G36*
G01*
X47630000Y-60400000D02*
X49830000Y-60400000D01*
G75*
G02*
X49880000Y-60450000I0J-50000D01*
G01*
X49880000Y-62650000D01*
G75*
G02*
X49830000Y-62700000I-50000J0D01*
G01*
X47630000Y-62700000D01*
G75*
G02*
X47580000Y-62650000I0J50000D01*
G01*
X47580000Y-60450000D01*
G75*
G02*
X47630000Y-60400000I50000J0D01*
G01*
G37*
G36*
G01*
X47630000Y-67300000D02*
X49830000Y-67300000D01*
G75*
G02*
X49880000Y-67350000I0J-50000D01*
G01*
X49880000Y-69550000D01*
G75*
G02*
X49830000Y-69600000I-50000J0D01*
G01*
X47630000Y-69600000D01*
G75*
G02*
X47580000Y-69550000I0J50000D01*
G01*
X47580000Y-67350000D01*
G75*
G02*
X47630000Y-67300000I50000J0D01*
G01*
G37*
G04 #@! TD*
G04 #@! TO.C,SW2*
G36*
G01*
X43130000Y-67300000D02*
X45330000Y-67300000D01*
G75*
G02*
X45380000Y-67350000I0J-50000D01*
G01*
X45380000Y-69550000D01*
G75*
G02*
X45330000Y-69600000I-50000J0D01*
G01*
X43130000Y-69600000D01*
G75*
G02*
X43080000Y-69550000I0J50000D01*
G01*
X43080000Y-67350000D01*
G75*
G02*
X43130000Y-67300000I50000J0D01*
G01*
G37*
G36*
G01*
X43130000Y-60400000D02*
X45330000Y-60400000D01*
G75*
G02*
X45380000Y-60450000I0J-50000D01*
G01*
X45380000Y-62650000D01*
G75*
G02*
X45330000Y-62700000I-50000J0D01*
G01*
X43130000Y-62700000D01*
G75*
G02*
X43080000Y-62650000I0J50000D01*
G01*
X43080000Y-60450000D01*
G75*
G02*
X43130000Y-60400000I50000J0D01*
G01*
G37*
G04 #@! TD*
G04 #@! TO.C,SW3*
G36*
G01*
X38630000Y-60400000D02*
X40830000Y-60400000D01*
G75*
G02*
X40880000Y-60450000I0J-50000D01*
G01*
X40880000Y-62650000D01*
G75*
G02*
X40830000Y-62700000I-50000J0D01*
G01*
X38630000Y-62700000D01*
G75*
G02*
X38580000Y-62650000I0J50000D01*
G01*
X38580000Y-60450000D01*
G75*
G02*
X38630000Y-60400000I50000J0D01*
G01*
G37*
G36*
G01*
X38630000Y-67300000D02*
X40830000Y-67300000D01*
G75*
G02*
X40880000Y-67350000I0J-50000D01*
G01*
X40880000Y-69550000D01*
G75*
G02*
X40830000Y-69600000I-50000J0D01*
G01*
X38630000Y-69600000D01*
G75*
G02*
X38580000Y-69550000I0J50000D01*
G01*
X38580000Y-67350000D01*
G75*
G02*
X38630000Y-67300000I50000J0D01*
G01*
G37*
G04 #@! TD*
M02*
