%TF.GenerationSoftware,KiCad,Pcbnew,(5.1.7-0-10_14)*%
%TF.CreationDate,2020-11-21T21:11:40+00:00*%
%TF.ProjectId,carrier,63617272-6965-4722-9e6b-696361645f70,0.1*%
%TF.SameCoordinates,Original*%
%TF.FileFunction,Legend,Top*%
%TF.FilePolarity,Positive*%
%FSLAX46Y46*%
G04 Gerber Fmt 4.6, Leading zero omitted, Abs format (unit mm)*
G04 Created by KiCad (PCBNEW (5.1.7-0-10_14)) date 2020-11-21 21:11:40*
%MOMM*%
%LPD*%
G01*
G04 APERTURE LIST*
%ADD10C,0.100000*%
%ADD11C,0.150000*%
%ADD12C,0.010000*%
%ADD13C,0.120000*%
G04 APERTURE END LIST*
D10*
X65015714Y-49502142D02*
X64980000Y-49466428D01*
X64908571Y-49430714D01*
X64837142Y-49430714D01*
X64765714Y-49466428D01*
X64730000Y-49502142D01*
X64694285Y-49573571D01*
X64694285Y-49645000D01*
X64730000Y-49716428D01*
X64765714Y-49752142D01*
X64837142Y-49787857D01*
X64908571Y-49787857D01*
X64980000Y-49752142D01*
X65015714Y-49716428D01*
X65015714Y-49430714D02*
X65015714Y-49716428D01*
X65051428Y-49752142D01*
X65087142Y-49752142D01*
X65158571Y-49716428D01*
X65194285Y-49645000D01*
X65194285Y-49466428D01*
X65122857Y-49359285D01*
X65015714Y-49287857D01*
X64872857Y-49252142D01*
X64730000Y-49287857D01*
X64622857Y-49359285D01*
X64551428Y-49466428D01*
X64515714Y-49609285D01*
X64551428Y-49752142D01*
X64622857Y-49859285D01*
X64730000Y-49930714D01*
X64872857Y-49966428D01*
X65015714Y-49930714D01*
X65122857Y-49859285D01*
X65480000Y-49823571D02*
X65551428Y-49859285D01*
X65694285Y-49859285D01*
X65765714Y-49823571D01*
X65801428Y-49752142D01*
X65801428Y-49716428D01*
X65765714Y-49645000D01*
X65694285Y-49609285D01*
X65587142Y-49609285D01*
X65515714Y-49573571D01*
X65480000Y-49502142D01*
X65480000Y-49466428D01*
X65515714Y-49395000D01*
X65587142Y-49359285D01*
X65694285Y-49359285D01*
X65765714Y-49395000D01*
X66444285Y-49859285D02*
X66444285Y-49466428D01*
X66408571Y-49395000D01*
X66337142Y-49359285D01*
X66194285Y-49359285D01*
X66122857Y-49395000D01*
X66444285Y-49823571D02*
X66372857Y-49859285D01*
X66194285Y-49859285D01*
X66122857Y-49823571D01*
X66087142Y-49752142D01*
X66087142Y-49680714D01*
X66122857Y-49609285D01*
X66194285Y-49573571D01*
X66372857Y-49573571D01*
X66444285Y-49537857D01*
X66801428Y-49859285D02*
X66801428Y-49359285D01*
X66801428Y-49430714D02*
X66837142Y-49395000D01*
X66908571Y-49359285D01*
X67015714Y-49359285D01*
X67087142Y-49395000D01*
X67122857Y-49466428D01*
X67122857Y-49859285D01*
X67122857Y-49466428D02*
X67158571Y-49395000D01*
X67230000Y-49359285D01*
X67337142Y-49359285D01*
X67408571Y-49395000D01*
X67444285Y-49466428D01*
X67444285Y-49859285D01*
X67908571Y-49859285D02*
X67837142Y-49823571D01*
X67801428Y-49752142D01*
X67801428Y-49109285D01*
X68194285Y-49859285D02*
X68194285Y-49359285D01*
X68194285Y-49109285D02*
X68158571Y-49145000D01*
X68194285Y-49180714D01*
X68230000Y-49145000D01*
X68194285Y-49109285D01*
X68194285Y-49180714D01*
X68444285Y-49359285D02*
X68730000Y-49359285D01*
X68551428Y-49109285D02*
X68551428Y-49752142D01*
X68587142Y-49823571D01*
X68658571Y-49859285D01*
X68730000Y-49859285D01*
X68872857Y-49359285D02*
X69158571Y-49359285D01*
X68980000Y-49109285D02*
X68980000Y-49752142D01*
X69015714Y-49823571D01*
X69087142Y-49859285D01*
X69158571Y-49859285D01*
X69515714Y-49859285D02*
X69444285Y-49823571D01*
X69408571Y-49752142D01*
X69408571Y-49109285D01*
X70087142Y-49823571D02*
X70015714Y-49859285D01*
X69872857Y-49859285D01*
X69801428Y-49823571D01*
X69765714Y-49752142D01*
X69765714Y-49466428D01*
X69801428Y-49395000D01*
X69872857Y-49359285D01*
X70015714Y-49359285D01*
X70087142Y-49395000D01*
X70122857Y-49466428D01*
X70122857Y-49537857D01*
X69765714Y-49609285D01*
X70372857Y-49359285D02*
X70515714Y-49859285D01*
X70658571Y-49502142D01*
X70801428Y-49859285D01*
X70944285Y-49359285D01*
X71337142Y-49859285D02*
X71265714Y-49823571D01*
X71230000Y-49787857D01*
X71194285Y-49716428D01*
X71194285Y-49502142D01*
X71230000Y-49430714D01*
X71265714Y-49395000D01*
X71337142Y-49359285D01*
X71444285Y-49359285D01*
X71515714Y-49395000D01*
X71551428Y-49430714D01*
X71587142Y-49502142D01*
X71587142Y-49716428D01*
X71551428Y-49787857D01*
X71515714Y-49823571D01*
X71444285Y-49859285D01*
X71337142Y-49859285D01*
X72015714Y-49859285D02*
X71944285Y-49823571D01*
X71908571Y-49787857D01*
X71872857Y-49716428D01*
X71872857Y-49502142D01*
X71908571Y-49430714D01*
X71944285Y-49395000D01*
X72015714Y-49359285D01*
X72122857Y-49359285D01*
X72194285Y-49395000D01*
X72230000Y-49430714D01*
X72265714Y-49502142D01*
X72265714Y-49716428D01*
X72230000Y-49787857D01*
X72194285Y-49823571D01*
X72122857Y-49859285D01*
X72015714Y-49859285D01*
X72908571Y-49859285D02*
X72908571Y-49109285D01*
X72908571Y-49823571D02*
X72837142Y-49859285D01*
X72694285Y-49859285D01*
X72622857Y-49823571D01*
X72587142Y-49787857D01*
X72551428Y-49716428D01*
X72551428Y-49502142D01*
X72587142Y-49430714D01*
X72622857Y-49395000D01*
X72694285Y-49359285D01*
X72837142Y-49359285D01*
X72908571Y-49395000D01*
D11*
X66753809Y-91407142D02*
X66706190Y-91454761D01*
X66563333Y-91502380D01*
X66468095Y-91502380D01*
X66325238Y-91454761D01*
X66230000Y-91359523D01*
X66182380Y-91264285D01*
X66134761Y-91073809D01*
X66134761Y-90930952D01*
X66182380Y-90740476D01*
X66230000Y-90645238D01*
X66325238Y-90550000D01*
X66468095Y-90502380D01*
X66563333Y-90502380D01*
X66706190Y-90550000D01*
X66753809Y-90597619D01*
X67610952Y-91502380D02*
X67610952Y-90978571D01*
X67563333Y-90883333D01*
X67468095Y-90835714D01*
X67277619Y-90835714D01*
X67182380Y-90883333D01*
X67610952Y-91454761D02*
X67515714Y-91502380D01*
X67277619Y-91502380D01*
X67182380Y-91454761D01*
X67134761Y-91359523D01*
X67134761Y-91264285D01*
X67182380Y-91169047D01*
X67277619Y-91121428D01*
X67515714Y-91121428D01*
X67610952Y-91073809D01*
X68087142Y-91502380D02*
X68087142Y-90835714D01*
X68087142Y-91026190D02*
X68134761Y-90930952D01*
X68182380Y-90883333D01*
X68277619Y-90835714D01*
X68372857Y-90835714D01*
X69134761Y-91502380D02*
X69134761Y-90978571D01*
X69087142Y-90883333D01*
X68991904Y-90835714D01*
X68801428Y-90835714D01*
X68706190Y-90883333D01*
X69134761Y-91454761D02*
X69039523Y-91502380D01*
X68801428Y-91502380D01*
X68706190Y-91454761D01*
X68658571Y-91359523D01*
X68658571Y-91264285D01*
X68706190Y-91169047D01*
X68801428Y-91121428D01*
X69039523Y-91121428D01*
X69134761Y-91073809D01*
X69515714Y-90835714D02*
X69753809Y-91502380D01*
X69991904Y-90835714D01*
X70753809Y-91454761D02*
X70658571Y-91502380D01*
X70468095Y-91502380D01*
X70372857Y-91454761D01*
X70325238Y-91359523D01*
X70325238Y-90978571D01*
X70372857Y-90883333D01*
X70468095Y-90835714D01*
X70658571Y-90835714D01*
X70753809Y-90883333D01*
X70801428Y-90978571D01*
X70801428Y-91073809D01*
X70325238Y-91169047D01*
X71372857Y-91502380D02*
X71277619Y-91454761D01*
X71230000Y-91359523D01*
X71230000Y-90502380D01*
X66991904Y-93057142D02*
X66944285Y-93104761D01*
X66801428Y-93152380D01*
X66706190Y-93152380D01*
X66563333Y-93104761D01*
X66468095Y-93009523D01*
X66420476Y-92914285D01*
X66372857Y-92723809D01*
X66372857Y-92580952D01*
X66420476Y-92390476D01*
X66468095Y-92295238D01*
X66563333Y-92200000D01*
X66706190Y-92152380D01*
X66801428Y-92152380D01*
X66944285Y-92200000D01*
X66991904Y-92247619D01*
X67849047Y-93152380D02*
X67849047Y-92628571D01*
X67801428Y-92533333D01*
X67706190Y-92485714D01*
X67515714Y-92485714D01*
X67420476Y-92533333D01*
X67849047Y-93104761D02*
X67753809Y-93152380D01*
X67515714Y-93152380D01*
X67420476Y-93104761D01*
X67372857Y-93009523D01*
X67372857Y-92914285D01*
X67420476Y-92819047D01*
X67515714Y-92771428D01*
X67753809Y-92771428D01*
X67849047Y-92723809D01*
X68325238Y-93152380D02*
X68325238Y-92485714D01*
X68325238Y-92676190D02*
X68372857Y-92580952D01*
X68420476Y-92533333D01*
X68515714Y-92485714D01*
X68610952Y-92485714D01*
X68944285Y-93152380D02*
X68944285Y-92485714D01*
X68944285Y-92676190D02*
X68991904Y-92580952D01*
X69039523Y-92533333D01*
X69134761Y-92485714D01*
X69230000Y-92485714D01*
X69563333Y-93152380D02*
X69563333Y-92485714D01*
X69563333Y-92152380D02*
X69515714Y-92200000D01*
X69563333Y-92247619D01*
X69610952Y-92200000D01*
X69563333Y-92152380D01*
X69563333Y-92247619D01*
X70420476Y-93104761D02*
X70325238Y-93152380D01*
X70134761Y-93152380D01*
X70039523Y-93104761D01*
X69991904Y-93009523D01*
X69991904Y-92628571D01*
X70039523Y-92533333D01*
X70134761Y-92485714D01*
X70325238Y-92485714D01*
X70420476Y-92533333D01*
X70468095Y-92628571D01*
X70468095Y-92723809D01*
X69991904Y-92819047D01*
X70896666Y-93152380D02*
X70896666Y-92485714D01*
X70896666Y-92676190D02*
X70944285Y-92580952D01*
X70991904Y-92533333D01*
X71087142Y-92485714D01*
X71182380Y-92485714D01*
X67968095Y-93802380D02*
X68063333Y-93802380D01*
X68158571Y-93850000D01*
X68206190Y-93897619D01*
X68253809Y-93992857D01*
X68301428Y-94183333D01*
X68301428Y-94421428D01*
X68253809Y-94611904D01*
X68206190Y-94707142D01*
X68158571Y-94754761D01*
X68063333Y-94802380D01*
X67968095Y-94802380D01*
X67872857Y-94754761D01*
X67825238Y-94707142D01*
X67777619Y-94611904D01*
X67730000Y-94421428D01*
X67730000Y-94183333D01*
X67777619Y-93992857D01*
X67825238Y-93897619D01*
X67872857Y-93850000D01*
X67968095Y-93802380D01*
X68730000Y-94707142D02*
X68777619Y-94754761D01*
X68730000Y-94802380D01*
X68682380Y-94754761D01*
X68730000Y-94707142D01*
X68730000Y-94802380D01*
X69730000Y-94802380D02*
X69158571Y-94802380D01*
X69444285Y-94802380D02*
X69444285Y-93802380D01*
X69349047Y-93945238D01*
X69253809Y-94040476D01*
X69158571Y-94088095D01*
D10*
X62552142Y-91019285D02*
X63016428Y-91019285D01*
X62766428Y-91305000D01*
X62873571Y-91305000D01*
X62945000Y-91340714D01*
X62980714Y-91376428D01*
X63016428Y-91447857D01*
X63016428Y-91626428D01*
X62980714Y-91697857D01*
X62945000Y-91733571D01*
X62873571Y-91769285D01*
X62659285Y-91769285D01*
X62587857Y-91733571D01*
X62552142Y-91697857D01*
X63695000Y-91019285D02*
X63337857Y-91019285D01*
X63302142Y-91376428D01*
X63337857Y-91340714D01*
X63409285Y-91305000D01*
X63587857Y-91305000D01*
X63659285Y-91340714D01*
X63695000Y-91376428D01*
X63730714Y-91447857D01*
X63730714Y-91626428D01*
X63695000Y-91697857D01*
X63659285Y-91733571D01*
X63587857Y-91769285D01*
X63409285Y-91769285D01*
X63337857Y-91733571D01*
X63302142Y-91697857D01*
X62825952Y-98675000D02*
X62778333Y-98639285D01*
X62706904Y-98639285D01*
X62635476Y-98675000D01*
X62587857Y-98746428D01*
X62564047Y-98817857D01*
X62540238Y-98960714D01*
X62540238Y-99067857D01*
X62564047Y-99210714D01*
X62587857Y-99282142D01*
X62635476Y-99353571D01*
X62706904Y-99389285D01*
X62754523Y-99389285D01*
X62825952Y-99353571D01*
X62849761Y-99317857D01*
X62849761Y-99067857D01*
X62754523Y-99067857D01*
X63064047Y-99389285D02*
X63064047Y-98639285D01*
X63349761Y-99389285D01*
X63349761Y-98639285D01*
X63587857Y-99389285D02*
X63587857Y-98639285D01*
X63706904Y-98639285D01*
X63778333Y-98675000D01*
X63825952Y-98746428D01*
X63849761Y-98817857D01*
X63873571Y-98960714D01*
X63873571Y-99067857D01*
X63849761Y-99210714D01*
X63825952Y-99282142D01*
X63778333Y-99353571D01*
X63706904Y-99389285D01*
X63587857Y-99389285D01*
X62552142Y-96099285D02*
X63016428Y-96099285D01*
X62766428Y-96385000D01*
X62873571Y-96385000D01*
X62945000Y-96420714D01*
X62980714Y-96456428D01*
X63016428Y-96527857D01*
X63016428Y-96706428D01*
X62980714Y-96777857D01*
X62945000Y-96813571D01*
X62873571Y-96849285D01*
X62659285Y-96849285D01*
X62587857Y-96813571D01*
X62552142Y-96777857D01*
X63266428Y-96099285D02*
X63766428Y-96099285D01*
X63445000Y-96849285D01*
X62552142Y-93559285D02*
X63016428Y-93559285D01*
X62766428Y-93845000D01*
X62873571Y-93845000D01*
X62945000Y-93880714D01*
X62980714Y-93916428D01*
X63016428Y-93987857D01*
X63016428Y-94166428D01*
X62980714Y-94237857D01*
X62945000Y-94273571D01*
X62873571Y-94309285D01*
X62659285Y-94309285D01*
X62587857Y-94273571D01*
X62552142Y-94237857D01*
X63659285Y-93559285D02*
X63516428Y-93559285D01*
X63445000Y-93595000D01*
X63409285Y-93630714D01*
X63337857Y-93737857D01*
X63302142Y-93880714D01*
X63302142Y-94166428D01*
X63337857Y-94237857D01*
X63373571Y-94273571D01*
X63445000Y-94309285D01*
X63587857Y-94309285D01*
X63659285Y-94273571D01*
X63695000Y-94237857D01*
X63730714Y-94166428D01*
X63730714Y-93987857D01*
X63695000Y-93916428D01*
X63659285Y-93880714D01*
X63587857Y-93845000D01*
X63445000Y-93845000D01*
X63373571Y-93880714D01*
X63337857Y-93916428D01*
X63302142Y-93987857D01*
X62552142Y-88479285D02*
X63016428Y-88479285D01*
X62766428Y-88765000D01*
X62873571Y-88765000D01*
X62945000Y-88800714D01*
X62980714Y-88836428D01*
X63016428Y-88907857D01*
X63016428Y-89086428D01*
X62980714Y-89157857D01*
X62945000Y-89193571D01*
X62873571Y-89229285D01*
X62659285Y-89229285D01*
X62587857Y-89193571D01*
X62552142Y-89157857D01*
X63659285Y-88729285D02*
X63659285Y-89229285D01*
X63480714Y-88443571D02*
X63302142Y-88979285D01*
X63766428Y-88979285D01*
X62552142Y-85939285D02*
X63016428Y-85939285D01*
X62766428Y-86225000D01*
X62873571Y-86225000D01*
X62945000Y-86260714D01*
X62980714Y-86296428D01*
X63016428Y-86367857D01*
X63016428Y-86546428D01*
X62980714Y-86617857D01*
X62945000Y-86653571D01*
X62873571Y-86689285D01*
X62659285Y-86689285D01*
X62587857Y-86653571D01*
X62552142Y-86617857D01*
X63266428Y-85939285D02*
X63730714Y-85939285D01*
X63480714Y-86225000D01*
X63587857Y-86225000D01*
X63659285Y-86260714D01*
X63695000Y-86296428D01*
X63730714Y-86367857D01*
X63730714Y-86546428D01*
X63695000Y-86617857D01*
X63659285Y-86653571D01*
X63587857Y-86689285D01*
X63373571Y-86689285D01*
X63302142Y-86653571D01*
X63266428Y-86617857D01*
X62552142Y-83399285D02*
X63016428Y-83399285D01*
X62766428Y-83685000D01*
X62873571Y-83685000D01*
X62945000Y-83720714D01*
X62980714Y-83756428D01*
X63016428Y-83827857D01*
X63016428Y-84006428D01*
X62980714Y-84077857D01*
X62945000Y-84113571D01*
X62873571Y-84149285D01*
X62659285Y-84149285D01*
X62587857Y-84113571D01*
X62552142Y-84077857D01*
X63302142Y-83470714D02*
X63337857Y-83435000D01*
X63409285Y-83399285D01*
X63587857Y-83399285D01*
X63659285Y-83435000D01*
X63695000Y-83470714D01*
X63730714Y-83542142D01*
X63730714Y-83613571D01*
X63695000Y-83720714D01*
X63266428Y-84149285D01*
X63730714Y-84149285D01*
X62552142Y-80859285D02*
X63016428Y-80859285D01*
X62766428Y-81145000D01*
X62873571Y-81145000D01*
X62945000Y-81180714D01*
X62980714Y-81216428D01*
X63016428Y-81287857D01*
X63016428Y-81466428D01*
X62980714Y-81537857D01*
X62945000Y-81573571D01*
X62873571Y-81609285D01*
X62659285Y-81609285D01*
X62587857Y-81573571D01*
X62552142Y-81537857D01*
X63730714Y-81609285D02*
X63302142Y-81609285D01*
X63516428Y-81609285D02*
X63516428Y-80859285D01*
X63445000Y-80966428D01*
X63373571Y-81037857D01*
X63302142Y-81073571D01*
X62552142Y-78319285D02*
X63016428Y-78319285D01*
X62766428Y-78605000D01*
X62873571Y-78605000D01*
X62945000Y-78640714D01*
X62980714Y-78676428D01*
X63016428Y-78747857D01*
X63016428Y-78926428D01*
X62980714Y-78997857D01*
X62945000Y-79033571D01*
X62873571Y-79069285D01*
X62659285Y-79069285D01*
X62587857Y-79033571D01*
X62552142Y-78997857D01*
X63480714Y-78319285D02*
X63552142Y-78319285D01*
X63623571Y-78355000D01*
X63659285Y-78390714D01*
X63695000Y-78462142D01*
X63730714Y-78605000D01*
X63730714Y-78783571D01*
X63695000Y-78926428D01*
X63659285Y-78997857D01*
X63623571Y-79033571D01*
X63552142Y-79069285D01*
X63480714Y-79069285D01*
X63409285Y-79033571D01*
X63373571Y-78997857D01*
X63337857Y-78926428D01*
X63302142Y-78783571D01*
X63302142Y-78605000D01*
X63337857Y-78462142D01*
X63373571Y-78390714D01*
X63409285Y-78355000D01*
X63480714Y-78319285D01*
X62587857Y-75850714D02*
X62623571Y-75815000D01*
X62695000Y-75779285D01*
X62873571Y-75779285D01*
X62945000Y-75815000D01*
X62980714Y-75850714D01*
X63016428Y-75922142D01*
X63016428Y-75993571D01*
X62980714Y-76100714D01*
X62552142Y-76529285D01*
X63016428Y-76529285D01*
X63373571Y-76529285D02*
X63516428Y-76529285D01*
X63587857Y-76493571D01*
X63623571Y-76457857D01*
X63695000Y-76350714D01*
X63730714Y-76207857D01*
X63730714Y-75922142D01*
X63695000Y-75850714D01*
X63659285Y-75815000D01*
X63587857Y-75779285D01*
X63445000Y-75779285D01*
X63373571Y-75815000D01*
X63337857Y-75850714D01*
X63302142Y-75922142D01*
X63302142Y-76100714D01*
X63337857Y-76172142D01*
X63373571Y-76207857D01*
X63445000Y-76243571D01*
X63587857Y-76243571D01*
X63659285Y-76207857D01*
X63695000Y-76172142D01*
X63730714Y-76100714D01*
X62587857Y-73310714D02*
X62623571Y-73275000D01*
X62695000Y-73239285D01*
X62873571Y-73239285D01*
X62945000Y-73275000D01*
X62980714Y-73310714D01*
X63016428Y-73382142D01*
X63016428Y-73453571D01*
X62980714Y-73560714D01*
X62552142Y-73989285D01*
X63016428Y-73989285D01*
X63445000Y-73560714D02*
X63373571Y-73525000D01*
X63337857Y-73489285D01*
X63302142Y-73417857D01*
X63302142Y-73382142D01*
X63337857Y-73310714D01*
X63373571Y-73275000D01*
X63445000Y-73239285D01*
X63587857Y-73239285D01*
X63659285Y-73275000D01*
X63695000Y-73310714D01*
X63730714Y-73382142D01*
X63730714Y-73417857D01*
X63695000Y-73489285D01*
X63659285Y-73525000D01*
X63587857Y-73560714D01*
X63445000Y-73560714D01*
X63373571Y-73596428D01*
X63337857Y-73632142D01*
X63302142Y-73703571D01*
X63302142Y-73846428D01*
X63337857Y-73917857D01*
X63373571Y-73953571D01*
X63445000Y-73989285D01*
X63587857Y-73989285D01*
X63659285Y-73953571D01*
X63695000Y-73917857D01*
X63730714Y-73846428D01*
X63730714Y-73703571D01*
X63695000Y-73632142D01*
X63659285Y-73596428D01*
X63587857Y-73560714D01*
X62587857Y-70770714D02*
X62623571Y-70735000D01*
X62695000Y-70699285D01*
X62873571Y-70699285D01*
X62945000Y-70735000D01*
X62980714Y-70770714D01*
X63016428Y-70842142D01*
X63016428Y-70913571D01*
X62980714Y-71020714D01*
X62552142Y-71449285D01*
X63016428Y-71449285D01*
X63266428Y-70699285D02*
X63766428Y-70699285D01*
X63445000Y-71449285D01*
X62587857Y-68230714D02*
X62623571Y-68195000D01*
X62695000Y-68159285D01*
X62873571Y-68159285D01*
X62945000Y-68195000D01*
X62980714Y-68230714D01*
X63016428Y-68302142D01*
X63016428Y-68373571D01*
X62980714Y-68480714D01*
X62552142Y-68909285D01*
X63016428Y-68909285D01*
X63659285Y-68159285D02*
X63516428Y-68159285D01*
X63445000Y-68195000D01*
X63409285Y-68230714D01*
X63337857Y-68337857D01*
X63302142Y-68480714D01*
X63302142Y-68766428D01*
X63337857Y-68837857D01*
X63373571Y-68873571D01*
X63445000Y-68909285D01*
X63587857Y-68909285D01*
X63659285Y-68873571D01*
X63695000Y-68837857D01*
X63730714Y-68766428D01*
X63730714Y-68587857D01*
X63695000Y-68516428D01*
X63659285Y-68480714D01*
X63587857Y-68445000D01*
X63445000Y-68445000D01*
X63373571Y-68480714D01*
X63337857Y-68516428D01*
X63302142Y-68587857D01*
X62587857Y-65690714D02*
X62623571Y-65655000D01*
X62695000Y-65619285D01*
X62873571Y-65619285D01*
X62945000Y-65655000D01*
X62980714Y-65690714D01*
X63016428Y-65762142D01*
X63016428Y-65833571D01*
X62980714Y-65940714D01*
X62552142Y-66369285D01*
X63016428Y-66369285D01*
X63695000Y-65619285D02*
X63337857Y-65619285D01*
X63302142Y-65976428D01*
X63337857Y-65940714D01*
X63409285Y-65905000D01*
X63587857Y-65905000D01*
X63659285Y-65940714D01*
X63695000Y-65976428D01*
X63730714Y-66047857D01*
X63730714Y-66226428D01*
X63695000Y-66297857D01*
X63659285Y-66333571D01*
X63587857Y-66369285D01*
X63409285Y-66369285D01*
X63337857Y-66333571D01*
X63302142Y-66297857D01*
X62587857Y-63150714D02*
X62623571Y-63115000D01*
X62695000Y-63079285D01*
X62873571Y-63079285D01*
X62945000Y-63115000D01*
X62980714Y-63150714D01*
X63016428Y-63222142D01*
X63016428Y-63293571D01*
X62980714Y-63400714D01*
X62552142Y-63829285D01*
X63016428Y-63829285D01*
X63659285Y-63329285D02*
X63659285Y-63829285D01*
X63480714Y-63043571D02*
X63302142Y-63579285D01*
X63766428Y-63579285D01*
X62587857Y-60610714D02*
X62623571Y-60575000D01*
X62695000Y-60539285D01*
X62873571Y-60539285D01*
X62945000Y-60575000D01*
X62980714Y-60610714D01*
X63016428Y-60682142D01*
X63016428Y-60753571D01*
X62980714Y-60860714D01*
X62552142Y-61289285D01*
X63016428Y-61289285D01*
X63266428Y-60539285D02*
X63730714Y-60539285D01*
X63480714Y-60825000D01*
X63587857Y-60825000D01*
X63659285Y-60860714D01*
X63695000Y-60896428D01*
X63730714Y-60967857D01*
X63730714Y-61146428D01*
X63695000Y-61217857D01*
X63659285Y-61253571D01*
X63587857Y-61289285D01*
X63373571Y-61289285D01*
X63302142Y-61253571D01*
X63266428Y-61217857D01*
X62587857Y-58070714D02*
X62623571Y-58035000D01*
X62695000Y-57999285D01*
X62873571Y-57999285D01*
X62945000Y-58035000D01*
X62980714Y-58070714D01*
X63016428Y-58142142D01*
X63016428Y-58213571D01*
X62980714Y-58320714D01*
X62552142Y-58749285D01*
X63016428Y-58749285D01*
X63302142Y-58070714D02*
X63337857Y-58035000D01*
X63409285Y-57999285D01*
X63587857Y-57999285D01*
X63659285Y-58035000D01*
X63695000Y-58070714D01*
X63730714Y-58142142D01*
X63730714Y-58213571D01*
X63695000Y-58320714D01*
X63266428Y-58749285D01*
X63730714Y-58749285D01*
X62587857Y-55530714D02*
X62623571Y-55495000D01*
X62695000Y-55459285D01*
X62873571Y-55459285D01*
X62945000Y-55495000D01*
X62980714Y-55530714D01*
X63016428Y-55602142D01*
X63016428Y-55673571D01*
X62980714Y-55780714D01*
X62552142Y-56209285D01*
X63016428Y-56209285D01*
X63730714Y-56209285D02*
X63302142Y-56209285D01*
X63516428Y-56209285D02*
X63516428Y-55459285D01*
X63445000Y-55566428D01*
X63373571Y-55637857D01*
X63302142Y-55673571D01*
X62587857Y-52990714D02*
X62623571Y-52955000D01*
X62695000Y-52919285D01*
X62873571Y-52919285D01*
X62945000Y-52955000D01*
X62980714Y-52990714D01*
X63016428Y-53062142D01*
X63016428Y-53133571D01*
X62980714Y-53240714D01*
X62552142Y-53669285D01*
X63016428Y-53669285D01*
X63480714Y-52919285D02*
X63552142Y-52919285D01*
X63623571Y-52955000D01*
X63659285Y-52990714D01*
X63695000Y-53062142D01*
X63730714Y-53205000D01*
X63730714Y-53383571D01*
X63695000Y-53526428D01*
X63659285Y-53597857D01*
X63623571Y-53633571D01*
X63552142Y-53669285D01*
X63480714Y-53669285D01*
X63409285Y-53633571D01*
X63373571Y-53597857D01*
X63337857Y-53526428D01*
X63302142Y-53383571D01*
X63302142Y-53205000D01*
X63337857Y-53062142D01*
X63373571Y-52990714D01*
X63409285Y-52955000D01*
X63480714Y-52919285D01*
X63016428Y-51129285D02*
X62587857Y-51129285D01*
X62802142Y-51129285D02*
X62802142Y-50379285D01*
X62730714Y-50486428D01*
X62659285Y-50557857D01*
X62587857Y-50593571D01*
X63373571Y-51129285D02*
X63516428Y-51129285D01*
X63587857Y-51093571D01*
X63623571Y-51057857D01*
X63695000Y-50950714D01*
X63730714Y-50807857D01*
X63730714Y-50522142D01*
X63695000Y-50450714D01*
X63659285Y-50415000D01*
X63587857Y-50379285D01*
X63445000Y-50379285D01*
X63373571Y-50415000D01*
X63337857Y-50450714D01*
X63302142Y-50522142D01*
X63302142Y-50700714D01*
X63337857Y-50772142D01*
X63373571Y-50807857D01*
X63445000Y-50843571D01*
X63587857Y-50843571D01*
X63659285Y-50807857D01*
X63695000Y-50772142D01*
X63730714Y-50700714D01*
D11*
X74529642Y-98639285D02*
X74601071Y-98639285D01*
X74672500Y-98675000D01*
X74708214Y-98710714D01*
X74743928Y-98782142D01*
X74779642Y-98925000D01*
X74779642Y-99103571D01*
X74743928Y-99246428D01*
X74708214Y-99317857D01*
X74672500Y-99353571D01*
X74601071Y-99389285D01*
X74529642Y-99389285D01*
X74458214Y-99353571D01*
X74422500Y-99317857D01*
X74386785Y-99246428D01*
X74351071Y-99103571D01*
X74351071Y-98925000D01*
X74386785Y-98782142D01*
X74422500Y-98710714D01*
X74458214Y-98675000D01*
X74529642Y-98639285D01*
D10*
X74812142Y-96849285D02*
X74383571Y-96849285D01*
X74597857Y-96849285D02*
X74597857Y-96099285D01*
X74526428Y-96206428D01*
X74455000Y-96277857D01*
X74383571Y-96313571D01*
X74383571Y-93630714D02*
X74419285Y-93595000D01*
X74490714Y-93559285D01*
X74669285Y-93559285D01*
X74740714Y-93595000D01*
X74776428Y-93630714D01*
X74812142Y-93702142D01*
X74812142Y-93773571D01*
X74776428Y-93880714D01*
X74347857Y-94309285D01*
X74812142Y-94309285D01*
X74347857Y-91019285D02*
X74812142Y-91019285D01*
X74562142Y-91305000D01*
X74669285Y-91305000D01*
X74740714Y-91340714D01*
X74776428Y-91376428D01*
X74812142Y-91447857D01*
X74812142Y-91626428D01*
X74776428Y-91697857D01*
X74740714Y-91733571D01*
X74669285Y-91769285D01*
X74455000Y-91769285D01*
X74383571Y-91733571D01*
X74347857Y-91697857D01*
X74740714Y-88729285D02*
X74740714Y-89229285D01*
X74562142Y-88443571D02*
X74383571Y-88979285D01*
X74847857Y-88979285D01*
X74776428Y-85939285D02*
X74419285Y-85939285D01*
X74383571Y-86296428D01*
X74419285Y-86260714D01*
X74490714Y-86225000D01*
X74669285Y-86225000D01*
X74740714Y-86260714D01*
X74776428Y-86296428D01*
X74812142Y-86367857D01*
X74812142Y-86546428D01*
X74776428Y-86617857D01*
X74740714Y-86653571D01*
X74669285Y-86689285D01*
X74490714Y-86689285D01*
X74419285Y-86653571D01*
X74383571Y-86617857D01*
X74740714Y-83399285D02*
X74597857Y-83399285D01*
X74526428Y-83435000D01*
X74490714Y-83470714D01*
X74419285Y-83577857D01*
X74383571Y-83720714D01*
X74383571Y-84006428D01*
X74419285Y-84077857D01*
X74455000Y-84113571D01*
X74526428Y-84149285D01*
X74669285Y-84149285D01*
X74740714Y-84113571D01*
X74776428Y-84077857D01*
X74812142Y-84006428D01*
X74812142Y-83827857D01*
X74776428Y-83756428D01*
X74740714Y-83720714D01*
X74669285Y-83685000D01*
X74526428Y-83685000D01*
X74455000Y-83720714D01*
X74419285Y-83756428D01*
X74383571Y-83827857D01*
X74347857Y-80859285D02*
X74847857Y-80859285D01*
X74526428Y-81609285D01*
X74526428Y-78640714D02*
X74455000Y-78605000D01*
X74419285Y-78569285D01*
X74383571Y-78497857D01*
X74383571Y-78462142D01*
X74419285Y-78390714D01*
X74455000Y-78355000D01*
X74526428Y-78319285D01*
X74669285Y-78319285D01*
X74740714Y-78355000D01*
X74776428Y-78390714D01*
X74812142Y-78462142D01*
X74812142Y-78497857D01*
X74776428Y-78569285D01*
X74740714Y-78605000D01*
X74669285Y-78640714D01*
X74526428Y-78640714D01*
X74455000Y-78676428D01*
X74419285Y-78712142D01*
X74383571Y-78783571D01*
X74383571Y-78926428D01*
X74419285Y-78997857D01*
X74455000Y-79033571D01*
X74526428Y-79069285D01*
X74669285Y-79069285D01*
X74740714Y-79033571D01*
X74776428Y-78997857D01*
X74812142Y-78926428D01*
X74812142Y-78783571D01*
X74776428Y-78712142D01*
X74740714Y-78676428D01*
X74669285Y-78640714D01*
X74455000Y-76529285D02*
X74597857Y-76529285D01*
X74669285Y-76493571D01*
X74705000Y-76457857D01*
X74776428Y-76350714D01*
X74812142Y-76207857D01*
X74812142Y-75922142D01*
X74776428Y-75850714D01*
X74740714Y-75815000D01*
X74669285Y-75779285D01*
X74526428Y-75779285D01*
X74455000Y-75815000D01*
X74419285Y-75850714D01*
X74383571Y-75922142D01*
X74383571Y-76100714D01*
X74419285Y-76172142D01*
X74455000Y-76207857D01*
X74526428Y-76243571D01*
X74669285Y-76243571D01*
X74740714Y-76207857D01*
X74776428Y-76172142D01*
X74812142Y-76100714D01*
X74097857Y-73989285D02*
X73669285Y-73989285D01*
X73883571Y-73989285D02*
X73883571Y-73239285D01*
X73812142Y-73346428D01*
X73740714Y-73417857D01*
X73669285Y-73453571D01*
X74562142Y-73239285D02*
X74633571Y-73239285D01*
X74705000Y-73275000D01*
X74740714Y-73310714D01*
X74776428Y-73382142D01*
X74812142Y-73525000D01*
X74812142Y-73703571D01*
X74776428Y-73846428D01*
X74740714Y-73917857D01*
X74705000Y-73953571D01*
X74633571Y-73989285D01*
X74562142Y-73989285D01*
X74490714Y-73953571D01*
X74455000Y-73917857D01*
X74419285Y-73846428D01*
X74383571Y-73703571D01*
X74383571Y-73525000D01*
X74419285Y-73382142D01*
X74455000Y-73310714D01*
X74490714Y-73275000D01*
X74562142Y-73239285D01*
X74097857Y-71449285D02*
X73669285Y-71449285D01*
X73883571Y-71449285D02*
X73883571Y-70699285D01*
X73812142Y-70806428D01*
X73740714Y-70877857D01*
X73669285Y-70913571D01*
X74812142Y-71449285D02*
X74383571Y-71449285D01*
X74597857Y-71449285D02*
X74597857Y-70699285D01*
X74526428Y-70806428D01*
X74455000Y-70877857D01*
X74383571Y-70913571D01*
X74097857Y-68909285D02*
X73669285Y-68909285D01*
X73883571Y-68909285D02*
X73883571Y-68159285D01*
X73812142Y-68266428D01*
X73740714Y-68337857D01*
X73669285Y-68373571D01*
X74383571Y-68230714D02*
X74419285Y-68195000D01*
X74490714Y-68159285D01*
X74669285Y-68159285D01*
X74740714Y-68195000D01*
X74776428Y-68230714D01*
X74812142Y-68302142D01*
X74812142Y-68373571D01*
X74776428Y-68480714D01*
X74347857Y-68909285D01*
X74812142Y-68909285D01*
X74097857Y-66369285D02*
X73669285Y-66369285D01*
X73883571Y-66369285D02*
X73883571Y-65619285D01*
X73812142Y-65726428D01*
X73740714Y-65797857D01*
X73669285Y-65833571D01*
X74347857Y-65619285D02*
X74812142Y-65619285D01*
X74562142Y-65905000D01*
X74669285Y-65905000D01*
X74740714Y-65940714D01*
X74776428Y-65976428D01*
X74812142Y-66047857D01*
X74812142Y-66226428D01*
X74776428Y-66297857D01*
X74740714Y-66333571D01*
X74669285Y-66369285D01*
X74455000Y-66369285D01*
X74383571Y-66333571D01*
X74347857Y-66297857D01*
X74097857Y-63829285D02*
X73669285Y-63829285D01*
X73883571Y-63829285D02*
X73883571Y-63079285D01*
X73812142Y-63186428D01*
X73740714Y-63257857D01*
X73669285Y-63293571D01*
X74740714Y-63329285D02*
X74740714Y-63829285D01*
X74562142Y-63043571D02*
X74383571Y-63579285D01*
X74847857Y-63579285D01*
X74097857Y-61289285D02*
X73669285Y-61289285D01*
X73883571Y-61289285D02*
X73883571Y-60539285D01*
X73812142Y-60646428D01*
X73740714Y-60717857D01*
X73669285Y-60753571D01*
X74776428Y-60539285D02*
X74419285Y-60539285D01*
X74383571Y-60896428D01*
X74419285Y-60860714D01*
X74490714Y-60825000D01*
X74669285Y-60825000D01*
X74740714Y-60860714D01*
X74776428Y-60896428D01*
X74812142Y-60967857D01*
X74812142Y-61146428D01*
X74776428Y-61217857D01*
X74740714Y-61253571D01*
X74669285Y-61289285D01*
X74490714Y-61289285D01*
X74419285Y-61253571D01*
X74383571Y-61217857D01*
X74097857Y-58749285D02*
X73669285Y-58749285D01*
X73883571Y-58749285D02*
X73883571Y-57999285D01*
X73812142Y-58106428D01*
X73740714Y-58177857D01*
X73669285Y-58213571D01*
X74740714Y-57999285D02*
X74597857Y-57999285D01*
X74526428Y-58035000D01*
X74490714Y-58070714D01*
X74419285Y-58177857D01*
X74383571Y-58320714D01*
X74383571Y-58606428D01*
X74419285Y-58677857D01*
X74455000Y-58713571D01*
X74526428Y-58749285D01*
X74669285Y-58749285D01*
X74740714Y-58713571D01*
X74776428Y-58677857D01*
X74812142Y-58606428D01*
X74812142Y-58427857D01*
X74776428Y-58356428D01*
X74740714Y-58320714D01*
X74669285Y-58285000D01*
X74526428Y-58285000D01*
X74455000Y-58320714D01*
X74419285Y-58356428D01*
X74383571Y-58427857D01*
X74097857Y-56209285D02*
X73669285Y-56209285D01*
X73883571Y-56209285D02*
X73883571Y-55459285D01*
X73812142Y-55566428D01*
X73740714Y-55637857D01*
X73669285Y-55673571D01*
X74347857Y-55459285D02*
X74847857Y-55459285D01*
X74526428Y-56209285D01*
X74097857Y-53669285D02*
X73669285Y-53669285D01*
X73883571Y-53669285D02*
X73883571Y-52919285D01*
X73812142Y-53026428D01*
X73740714Y-53097857D01*
X73669285Y-53133571D01*
X74526428Y-53240714D02*
X74455000Y-53205000D01*
X74419285Y-53169285D01*
X74383571Y-53097857D01*
X74383571Y-53062142D01*
X74419285Y-52990714D01*
X74455000Y-52955000D01*
X74526428Y-52919285D01*
X74669285Y-52919285D01*
X74740714Y-52955000D01*
X74776428Y-52990714D01*
X74812142Y-53062142D01*
X74812142Y-53097857D01*
X74776428Y-53169285D01*
X74740714Y-53205000D01*
X74669285Y-53240714D01*
X74526428Y-53240714D01*
X74455000Y-53276428D01*
X74419285Y-53312142D01*
X74383571Y-53383571D01*
X74383571Y-53526428D01*
X74419285Y-53597857D01*
X74455000Y-53633571D01*
X74526428Y-53669285D01*
X74669285Y-53669285D01*
X74740714Y-53633571D01*
X74776428Y-53597857D01*
X74812142Y-53526428D01*
X74812142Y-53383571D01*
X74776428Y-53312142D01*
X74740714Y-53276428D01*
X74669285Y-53240714D01*
X74133571Y-50379285D02*
X73776428Y-50379285D01*
X73740714Y-50736428D01*
X73776428Y-50700714D01*
X73847857Y-50665000D01*
X74026428Y-50665000D01*
X74097857Y-50700714D01*
X74133571Y-50736428D01*
X74169285Y-50807857D01*
X74169285Y-50986428D01*
X74133571Y-51057857D01*
X74097857Y-51093571D01*
X74026428Y-51129285D01*
X73847857Y-51129285D01*
X73776428Y-51093571D01*
X73740714Y-51057857D01*
X74383571Y-50379285D02*
X74633571Y-51129285D01*
X74883571Y-50379285D01*
D12*
%TO.C,G\u002A\u002A\u002A*%
G36*
X68754190Y-50399591D02*
G01*
X69143105Y-50400398D01*
X69516070Y-50401958D01*
X69817437Y-50403945D01*
X71174750Y-50414766D01*
X71174737Y-52372445D01*
X71174724Y-54330125D01*
X68727329Y-54330125D01*
X68338937Y-54329957D01*
X67969206Y-54329472D01*
X67623013Y-54328696D01*
X67305234Y-54327655D01*
X67020745Y-54326375D01*
X66774423Y-54324883D01*
X66571145Y-54323204D01*
X66415786Y-54321365D01*
X66313224Y-54319392D01*
X66268335Y-54317311D01*
X66266716Y-54316895D01*
X66264370Y-54283656D01*
X66262158Y-54192399D01*
X66260115Y-54048603D01*
X66259617Y-53996772D01*
X66305465Y-53996772D01*
X66321283Y-54048118D01*
X66345978Y-54127027D01*
X66351459Y-54183623D01*
X66366120Y-54214161D01*
X66386055Y-54211829D01*
X66448344Y-54209748D01*
X66491625Y-54221162D01*
X66581829Y-54245785D01*
X66662547Y-54233637D01*
X66727884Y-54204089D01*
X66817217Y-54126158D01*
X66863304Y-54019193D01*
X66863696Y-53979030D01*
X70541670Y-53979030D01*
X70572008Y-54080315D01*
X70642587Y-54162203D01*
X70750658Y-54211097D01*
X70825572Y-54219000D01*
X70932431Y-54205588D01*
X71011757Y-54156776D01*
X71033391Y-54134988D01*
X71099515Y-54026760D01*
X71113182Y-53915116D01*
X71082694Y-53811705D01*
X71016356Y-53728176D01*
X70922471Y-53676178D01*
X70809342Y-53667358D01*
X70719594Y-53694776D01*
X70612715Y-53772663D01*
X70554323Y-53871947D01*
X70541670Y-53979030D01*
X66863696Y-53979030D01*
X66864447Y-53902185D01*
X66818944Y-53794122D01*
X66769255Y-53742035D01*
X66657503Y-53686153D01*
X66543410Y-53680622D01*
X66439067Y-53717181D01*
X66356567Y-53787567D01*
X66308002Y-53883518D01*
X66305465Y-53996772D01*
X66259617Y-53996772D01*
X66258279Y-53857750D01*
X66256687Y-53625322D01*
X66255377Y-53356798D01*
X66254384Y-53057661D01*
X66253746Y-52733391D01*
X66253501Y-52389469D01*
X66253500Y-52359170D01*
X66253500Y-52299183D01*
X66920250Y-52299183D01*
X66920787Y-52570452D01*
X66922317Y-52821626D01*
X66924720Y-53045658D01*
X66927874Y-53235504D01*
X66931659Y-53384119D01*
X66935952Y-53484459D01*
X66940634Y-53529479D01*
X66941416Y-53531083D01*
X66976250Y-53535039D01*
X67068767Y-53538755D01*
X67213148Y-53542161D01*
X67403577Y-53545187D01*
X67634237Y-53547764D01*
X67899309Y-53549823D01*
X68192977Y-53551293D01*
X68509424Y-53552106D01*
X68713066Y-53552250D01*
X69116305Y-53551897D01*
X69459749Y-53550787D01*
X69747097Y-53548841D01*
X69982050Y-53545980D01*
X70168310Y-53542125D01*
X70309576Y-53537197D01*
X70409549Y-53531117D01*
X70471929Y-53523808D01*
X70500418Y-53515188D01*
X70501649Y-53514150D01*
X70512021Y-53472718D01*
X70520883Y-53376415D01*
X70528236Y-53233855D01*
X70534079Y-53053647D01*
X70538413Y-52844404D01*
X70541238Y-52614737D01*
X70542554Y-52373259D01*
X70542360Y-52128580D01*
X70540657Y-51889313D01*
X70537444Y-51664070D01*
X70532723Y-51461461D01*
X70526492Y-51290099D01*
X70518751Y-51158595D01*
X70509502Y-51075562D01*
X70501649Y-51050349D01*
X70461858Y-51041636D01*
X70365682Y-51033956D01*
X70220228Y-51027309D01*
X70032603Y-51021695D01*
X69809914Y-51017114D01*
X69559267Y-51013567D01*
X69287769Y-51011052D01*
X69002527Y-51009571D01*
X68710648Y-51009122D01*
X68419239Y-51009707D01*
X68135406Y-51011325D01*
X67866256Y-51013976D01*
X67618896Y-51017660D01*
X67400433Y-51022378D01*
X67217974Y-51028128D01*
X67078626Y-51034912D01*
X66989494Y-51042729D01*
X66958350Y-51050349D01*
X66947858Y-51078624D01*
X66939268Y-51143299D01*
X66932452Y-51248613D01*
X66927280Y-51398805D01*
X66923622Y-51598113D01*
X66921350Y-51850776D01*
X66920333Y-52161030D01*
X66920250Y-52299183D01*
X66253500Y-52299183D01*
X66253500Y-50832333D01*
X66772083Y-50832333D01*
X66776441Y-50851208D01*
X66793250Y-50853500D01*
X66819383Y-50841883D01*
X66814416Y-50832333D01*
X66776736Y-50828533D01*
X66772083Y-50832333D01*
X66253500Y-50832333D01*
X66253500Y-50790000D01*
X66698000Y-50790000D01*
X66709616Y-50816133D01*
X66719166Y-50811166D01*
X66722966Y-50773486D01*
X66719166Y-50768833D01*
X66700291Y-50773191D01*
X66698000Y-50790000D01*
X66253500Y-50790000D01*
X66253500Y-50705333D01*
X66867333Y-50705333D01*
X66871691Y-50724208D01*
X66888500Y-50726500D01*
X66914633Y-50714883D01*
X66909666Y-50705333D01*
X66871986Y-50701533D01*
X66867333Y-50705333D01*
X66253500Y-50705333D01*
X66253500Y-50698497D01*
X66983750Y-50698497D01*
X67003312Y-50715711D01*
X67015500Y-50710625D01*
X67027179Y-50694552D01*
X67269500Y-50694552D01*
X67282903Y-50707873D01*
X67328338Y-50731965D01*
X67379245Y-50753115D01*
X67388562Y-50756018D01*
X67395721Y-50732511D01*
X67396500Y-50713434D01*
X67382140Y-50694750D01*
X67428250Y-50694750D01*
X67452410Y-50725577D01*
X67460000Y-50726500D01*
X67470128Y-50718562D01*
X67526006Y-50718562D01*
X67534085Y-50748770D01*
X67538709Y-50742375D01*
X67682250Y-50742375D01*
X67698125Y-50758250D01*
X67714000Y-50742375D01*
X67904500Y-50742375D01*
X67921115Y-50784634D01*
X67935253Y-50790000D01*
X67952722Y-50766727D01*
X67947731Y-50742375D01*
X68126750Y-50742375D01*
X68133542Y-50784736D01*
X68139228Y-50790000D01*
X68159700Y-50765172D01*
X68162821Y-50758250D01*
X68222000Y-50758250D01*
X68233616Y-50784383D01*
X68243166Y-50779416D01*
X68243699Y-50774125D01*
X68539500Y-50774125D01*
X68555375Y-50790000D01*
X68571250Y-50774125D01*
X68555375Y-50758250D01*
X68539500Y-50774125D01*
X68243699Y-50774125D01*
X68246950Y-50741892D01*
X68615888Y-50741892D01*
X68618875Y-50758250D01*
X68659466Y-50788788D01*
X68668373Y-50790000D01*
X68693737Y-50768833D01*
X68835833Y-50768833D01*
X68840191Y-50787708D01*
X68857000Y-50790000D01*
X68883133Y-50778383D01*
X68878166Y-50768833D01*
X68840486Y-50765033D01*
X68835833Y-50768833D01*
X68693737Y-50768833D01*
X68697394Y-50765782D01*
X68698250Y-50758250D01*
X68672406Y-50730385D01*
X68648751Y-50726500D01*
X69047500Y-50726500D01*
X69071660Y-50757327D01*
X69079250Y-50758250D01*
X69174500Y-50758250D01*
X69186116Y-50784383D01*
X69195666Y-50779416D01*
X69196199Y-50774125D01*
X69365000Y-50774125D01*
X69380875Y-50790000D01*
X69396750Y-50774125D01*
X69380875Y-50758250D01*
X69365000Y-50774125D01*
X69196199Y-50774125D01*
X69199466Y-50741736D01*
X69195666Y-50737083D01*
X69176791Y-50741441D01*
X69174500Y-50758250D01*
X69079250Y-50758250D01*
X69110077Y-50734089D01*
X69111000Y-50726500D01*
X69269750Y-50726500D01*
X69280582Y-50757424D01*
X69283751Y-50758250D01*
X69303092Y-50742375D01*
X69777750Y-50742375D01*
X69793625Y-50758250D01*
X69809500Y-50742375D01*
X69793625Y-50726500D01*
X69777750Y-50742375D01*
X69303092Y-50742375D01*
X69310858Y-50736001D01*
X69317375Y-50726500D01*
X69316009Y-50710625D01*
X69396750Y-50710625D01*
X69412625Y-50726500D01*
X69428500Y-50710625D01*
X69873000Y-50710625D01*
X69888875Y-50726500D01*
X69904750Y-50710625D01*
X69888875Y-50694750D01*
X69873000Y-50710625D01*
X69428500Y-50710625D01*
X69412625Y-50694750D01*
X69396750Y-50710625D01*
X69316009Y-50710625D01*
X69314857Y-50697242D01*
X69303373Y-50694750D01*
X69271042Y-50717797D01*
X69269750Y-50726500D01*
X69111000Y-50726500D01*
X69086839Y-50695672D01*
X69079250Y-50694750D01*
X69048422Y-50718910D01*
X69047500Y-50726500D01*
X68648751Y-50726500D01*
X68615888Y-50741892D01*
X68246950Y-50741892D01*
X68246966Y-50741736D01*
X68243166Y-50737083D01*
X68224291Y-50741441D01*
X68222000Y-50758250D01*
X68162821Y-50758250D01*
X68169981Y-50742375D01*
X68170641Y-50701491D01*
X68157503Y-50694750D01*
X68130214Y-50720481D01*
X68126750Y-50742375D01*
X67947731Y-50742375D01*
X67930604Y-50710625D01*
X67968000Y-50710625D01*
X67983875Y-50726500D01*
X67999750Y-50710625D01*
X67983875Y-50694750D01*
X67968000Y-50710625D01*
X67930604Y-50710625D01*
X67925195Y-50700599D01*
X67916978Y-50694750D01*
X67905879Y-50720676D01*
X67904500Y-50742375D01*
X67714000Y-50742375D01*
X67698125Y-50726500D01*
X67682250Y-50742375D01*
X67538709Y-50742375D01*
X67544593Y-50734239D01*
X67578420Y-50710210D01*
X67594617Y-50715332D01*
X67613423Y-50716343D01*
X67605906Y-50699655D01*
X67581141Y-50678875D01*
X67682250Y-50678875D01*
X67698125Y-50694750D01*
X67714000Y-50678875D01*
X67711006Y-50675881D01*
X68898168Y-50675881D01*
X68920500Y-50694750D01*
X68971161Y-50723306D01*
X68977910Y-50712551D01*
X68968125Y-50694750D01*
X68943741Y-50678875D01*
X69682500Y-50678875D01*
X69698375Y-50694750D01*
X69714250Y-50678875D01*
X69968250Y-50678875D01*
X69984125Y-50694750D01*
X70000000Y-50678875D01*
X70031750Y-50678875D01*
X70047625Y-50694750D01*
X70063500Y-50678875D01*
X70056725Y-50672100D01*
X70132117Y-50672100D01*
X70139843Y-50689844D01*
X70171812Y-50723929D01*
X70190190Y-50716937D01*
X70190500Y-50712498D01*
X70167948Y-50685644D01*
X70153844Y-50675843D01*
X70132117Y-50672100D01*
X70056725Y-50672100D01*
X70047625Y-50663000D01*
X70031750Y-50678875D01*
X70000000Y-50678875D01*
X69984125Y-50663000D01*
X69968250Y-50678875D01*
X69714250Y-50678875D01*
X69698375Y-50663000D01*
X69682500Y-50678875D01*
X68943741Y-50678875D01*
X68921756Y-50664563D01*
X68910688Y-50663486D01*
X68898168Y-50675881D01*
X67711006Y-50675881D01*
X67698125Y-50663000D01*
X67682250Y-50678875D01*
X67581141Y-50678875D01*
X67564107Y-50664582D01*
X67531737Y-50682812D01*
X67526006Y-50718562D01*
X67470128Y-50718562D01*
X67490827Y-50702339D01*
X67491750Y-50694750D01*
X67467589Y-50663922D01*
X67460000Y-50663000D01*
X67429172Y-50687160D01*
X67428250Y-50694750D01*
X67382140Y-50694750D01*
X67372159Y-50681765D01*
X67298014Y-50686945D01*
X67269500Y-50694552D01*
X67027179Y-50694552D01*
X67046064Y-50668565D01*
X67047250Y-50659252D01*
X67027687Y-50642038D01*
X67015500Y-50647125D01*
X66984935Y-50689184D01*
X66983750Y-50698497D01*
X66253500Y-50698497D01*
X66253500Y-50641833D01*
X68042083Y-50641833D01*
X68046441Y-50660708D01*
X68063250Y-50663000D01*
X68089383Y-50651383D01*
X68087169Y-50647125D01*
X68666500Y-50647125D01*
X68682375Y-50663000D01*
X68698250Y-50647125D01*
X68682375Y-50631250D01*
X68666500Y-50647125D01*
X68087169Y-50647125D01*
X68084416Y-50641833D01*
X68046736Y-50638033D01*
X68042083Y-50641833D01*
X66253500Y-50641833D01*
X66253500Y-50608600D01*
X68957367Y-50608600D01*
X68965093Y-50626344D01*
X68997062Y-50660429D01*
X69015440Y-50653437D01*
X69015750Y-50648998D01*
X68993198Y-50622144D01*
X68979094Y-50612343D01*
X68957367Y-50608600D01*
X66253500Y-50608600D01*
X66253500Y-50583625D01*
X66825000Y-50583625D01*
X66840875Y-50599500D01*
X66856750Y-50583625D01*
X66920250Y-50583625D01*
X66936125Y-50599500D01*
X66952000Y-50583625D01*
X66936125Y-50567750D01*
X66920250Y-50583625D01*
X66856750Y-50583625D01*
X66840875Y-50567750D01*
X66825000Y-50583625D01*
X66253500Y-50583625D01*
X66253500Y-50414675D01*
X67356812Y-50403900D01*
X67650636Y-50401691D01*
X67992066Y-50400238D01*
X68365214Y-50399538D01*
X68754190Y-50399591D01*
G37*
X68754190Y-50399591D02*
X69143105Y-50400398D01*
X69516070Y-50401958D01*
X69817437Y-50403945D01*
X71174750Y-50414766D01*
X71174737Y-52372445D01*
X71174724Y-54330125D01*
X68727329Y-54330125D01*
X68338937Y-54329957D01*
X67969206Y-54329472D01*
X67623013Y-54328696D01*
X67305234Y-54327655D01*
X67020745Y-54326375D01*
X66774423Y-54324883D01*
X66571145Y-54323204D01*
X66415786Y-54321365D01*
X66313224Y-54319392D01*
X66268335Y-54317311D01*
X66266716Y-54316895D01*
X66264370Y-54283656D01*
X66262158Y-54192399D01*
X66260115Y-54048603D01*
X66259617Y-53996772D01*
X66305465Y-53996772D01*
X66321283Y-54048118D01*
X66345978Y-54127027D01*
X66351459Y-54183623D01*
X66366120Y-54214161D01*
X66386055Y-54211829D01*
X66448344Y-54209748D01*
X66491625Y-54221162D01*
X66581829Y-54245785D01*
X66662547Y-54233637D01*
X66727884Y-54204089D01*
X66817217Y-54126158D01*
X66863304Y-54019193D01*
X66863696Y-53979030D01*
X70541670Y-53979030D01*
X70572008Y-54080315D01*
X70642587Y-54162203D01*
X70750658Y-54211097D01*
X70825572Y-54219000D01*
X70932431Y-54205588D01*
X71011757Y-54156776D01*
X71033391Y-54134988D01*
X71099515Y-54026760D01*
X71113182Y-53915116D01*
X71082694Y-53811705D01*
X71016356Y-53728176D01*
X70922471Y-53676178D01*
X70809342Y-53667358D01*
X70719594Y-53694776D01*
X70612715Y-53772663D01*
X70554323Y-53871947D01*
X70541670Y-53979030D01*
X66863696Y-53979030D01*
X66864447Y-53902185D01*
X66818944Y-53794122D01*
X66769255Y-53742035D01*
X66657503Y-53686153D01*
X66543410Y-53680622D01*
X66439067Y-53717181D01*
X66356567Y-53787567D01*
X66308002Y-53883518D01*
X66305465Y-53996772D01*
X66259617Y-53996772D01*
X66258279Y-53857750D01*
X66256687Y-53625322D01*
X66255377Y-53356798D01*
X66254384Y-53057661D01*
X66253746Y-52733391D01*
X66253501Y-52389469D01*
X66253500Y-52359170D01*
X66253500Y-52299183D01*
X66920250Y-52299183D01*
X66920787Y-52570452D01*
X66922317Y-52821626D01*
X66924720Y-53045658D01*
X66927874Y-53235504D01*
X66931659Y-53384119D01*
X66935952Y-53484459D01*
X66940634Y-53529479D01*
X66941416Y-53531083D01*
X66976250Y-53535039D01*
X67068767Y-53538755D01*
X67213148Y-53542161D01*
X67403577Y-53545187D01*
X67634237Y-53547764D01*
X67899309Y-53549823D01*
X68192977Y-53551293D01*
X68509424Y-53552106D01*
X68713066Y-53552250D01*
X69116305Y-53551897D01*
X69459749Y-53550787D01*
X69747097Y-53548841D01*
X69982050Y-53545980D01*
X70168310Y-53542125D01*
X70309576Y-53537197D01*
X70409549Y-53531117D01*
X70471929Y-53523808D01*
X70500418Y-53515188D01*
X70501649Y-53514150D01*
X70512021Y-53472718D01*
X70520883Y-53376415D01*
X70528236Y-53233855D01*
X70534079Y-53053647D01*
X70538413Y-52844404D01*
X70541238Y-52614737D01*
X70542554Y-52373259D01*
X70542360Y-52128580D01*
X70540657Y-51889313D01*
X70537444Y-51664070D01*
X70532723Y-51461461D01*
X70526492Y-51290099D01*
X70518751Y-51158595D01*
X70509502Y-51075562D01*
X70501649Y-51050349D01*
X70461858Y-51041636D01*
X70365682Y-51033956D01*
X70220228Y-51027309D01*
X70032603Y-51021695D01*
X69809914Y-51017114D01*
X69559267Y-51013567D01*
X69287769Y-51011052D01*
X69002527Y-51009571D01*
X68710648Y-51009122D01*
X68419239Y-51009707D01*
X68135406Y-51011325D01*
X67866256Y-51013976D01*
X67618896Y-51017660D01*
X67400433Y-51022378D01*
X67217974Y-51028128D01*
X67078626Y-51034912D01*
X66989494Y-51042729D01*
X66958350Y-51050349D01*
X66947858Y-51078624D01*
X66939268Y-51143299D01*
X66932452Y-51248613D01*
X66927280Y-51398805D01*
X66923622Y-51598113D01*
X66921350Y-51850776D01*
X66920333Y-52161030D01*
X66920250Y-52299183D01*
X66253500Y-52299183D01*
X66253500Y-50832333D01*
X66772083Y-50832333D01*
X66776441Y-50851208D01*
X66793250Y-50853500D01*
X66819383Y-50841883D01*
X66814416Y-50832333D01*
X66776736Y-50828533D01*
X66772083Y-50832333D01*
X66253500Y-50832333D01*
X66253500Y-50790000D01*
X66698000Y-50790000D01*
X66709616Y-50816133D01*
X66719166Y-50811166D01*
X66722966Y-50773486D01*
X66719166Y-50768833D01*
X66700291Y-50773191D01*
X66698000Y-50790000D01*
X66253500Y-50790000D01*
X66253500Y-50705333D01*
X66867333Y-50705333D01*
X66871691Y-50724208D01*
X66888500Y-50726500D01*
X66914633Y-50714883D01*
X66909666Y-50705333D01*
X66871986Y-50701533D01*
X66867333Y-50705333D01*
X66253500Y-50705333D01*
X66253500Y-50698497D01*
X66983750Y-50698497D01*
X67003312Y-50715711D01*
X67015500Y-50710625D01*
X67027179Y-50694552D01*
X67269500Y-50694552D01*
X67282903Y-50707873D01*
X67328338Y-50731965D01*
X67379245Y-50753115D01*
X67388562Y-50756018D01*
X67395721Y-50732511D01*
X67396500Y-50713434D01*
X67382140Y-50694750D01*
X67428250Y-50694750D01*
X67452410Y-50725577D01*
X67460000Y-50726500D01*
X67470128Y-50718562D01*
X67526006Y-50718562D01*
X67534085Y-50748770D01*
X67538709Y-50742375D01*
X67682250Y-50742375D01*
X67698125Y-50758250D01*
X67714000Y-50742375D01*
X67904500Y-50742375D01*
X67921115Y-50784634D01*
X67935253Y-50790000D01*
X67952722Y-50766727D01*
X67947731Y-50742375D01*
X68126750Y-50742375D01*
X68133542Y-50784736D01*
X68139228Y-50790000D01*
X68159700Y-50765172D01*
X68162821Y-50758250D01*
X68222000Y-50758250D01*
X68233616Y-50784383D01*
X68243166Y-50779416D01*
X68243699Y-50774125D01*
X68539500Y-50774125D01*
X68555375Y-50790000D01*
X68571250Y-50774125D01*
X68555375Y-50758250D01*
X68539500Y-50774125D01*
X68243699Y-50774125D01*
X68246950Y-50741892D01*
X68615888Y-50741892D01*
X68618875Y-50758250D01*
X68659466Y-50788788D01*
X68668373Y-50790000D01*
X68693737Y-50768833D01*
X68835833Y-50768833D01*
X68840191Y-50787708D01*
X68857000Y-50790000D01*
X68883133Y-50778383D01*
X68878166Y-50768833D01*
X68840486Y-50765033D01*
X68835833Y-50768833D01*
X68693737Y-50768833D01*
X68697394Y-50765782D01*
X68698250Y-50758250D01*
X68672406Y-50730385D01*
X68648751Y-50726500D01*
X69047500Y-50726500D01*
X69071660Y-50757327D01*
X69079250Y-50758250D01*
X69174500Y-50758250D01*
X69186116Y-50784383D01*
X69195666Y-50779416D01*
X69196199Y-50774125D01*
X69365000Y-50774125D01*
X69380875Y-50790000D01*
X69396750Y-50774125D01*
X69380875Y-50758250D01*
X69365000Y-50774125D01*
X69196199Y-50774125D01*
X69199466Y-50741736D01*
X69195666Y-50737083D01*
X69176791Y-50741441D01*
X69174500Y-50758250D01*
X69079250Y-50758250D01*
X69110077Y-50734089D01*
X69111000Y-50726500D01*
X69269750Y-50726500D01*
X69280582Y-50757424D01*
X69283751Y-50758250D01*
X69303092Y-50742375D01*
X69777750Y-50742375D01*
X69793625Y-50758250D01*
X69809500Y-50742375D01*
X69793625Y-50726500D01*
X69777750Y-50742375D01*
X69303092Y-50742375D01*
X69310858Y-50736001D01*
X69317375Y-50726500D01*
X69316009Y-50710625D01*
X69396750Y-50710625D01*
X69412625Y-50726500D01*
X69428500Y-50710625D01*
X69873000Y-50710625D01*
X69888875Y-50726500D01*
X69904750Y-50710625D01*
X69888875Y-50694750D01*
X69873000Y-50710625D01*
X69428500Y-50710625D01*
X69412625Y-50694750D01*
X69396750Y-50710625D01*
X69316009Y-50710625D01*
X69314857Y-50697242D01*
X69303373Y-50694750D01*
X69271042Y-50717797D01*
X69269750Y-50726500D01*
X69111000Y-50726500D01*
X69086839Y-50695672D01*
X69079250Y-50694750D01*
X69048422Y-50718910D01*
X69047500Y-50726500D01*
X68648751Y-50726500D01*
X68615888Y-50741892D01*
X68246950Y-50741892D01*
X68246966Y-50741736D01*
X68243166Y-50737083D01*
X68224291Y-50741441D01*
X68222000Y-50758250D01*
X68162821Y-50758250D01*
X68169981Y-50742375D01*
X68170641Y-50701491D01*
X68157503Y-50694750D01*
X68130214Y-50720481D01*
X68126750Y-50742375D01*
X67947731Y-50742375D01*
X67930604Y-50710625D01*
X67968000Y-50710625D01*
X67983875Y-50726500D01*
X67999750Y-50710625D01*
X67983875Y-50694750D01*
X67968000Y-50710625D01*
X67930604Y-50710625D01*
X67925195Y-50700599D01*
X67916978Y-50694750D01*
X67905879Y-50720676D01*
X67904500Y-50742375D01*
X67714000Y-50742375D01*
X67698125Y-50726500D01*
X67682250Y-50742375D01*
X67538709Y-50742375D01*
X67544593Y-50734239D01*
X67578420Y-50710210D01*
X67594617Y-50715332D01*
X67613423Y-50716343D01*
X67605906Y-50699655D01*
X67581141Y-50678875D01*
X67682250Y-50678875D01*
X67698125Y-50694750D01*
X67714000Y-50678875D01*
X67711006Y-50675881D01*
X68898168Y-50675881D01*
X68920500Y-50694750D01*
X68971161Y-50723306D01*
X68977910Y-50712551D01*
X68968125Y-50694750D01*
X68943741Y-50678875D01*
X69682500Y-50678875D01*
X69698375Y-50694750D01*
X69714250Y-50678875D01*
X69968250Y-50678875D01*
X69984125Y-50694750D01*
X70000000Y-50678875D01*
X70031750Y-50678875D01*
X70047625Y-50694750D01*
X70063500Y-50678875D01*
X70056725Y-50672100D01*
X70132117Y-50672100D01*
X70139843Y-50689844D01*
X70171812Y-50723929D01*
X70190190Y-50716937D01*
X70190500Y-50712498D01*
X70167948Y-50685644D01*
X70153844Y-50675843D01*
X70132117Y-50672100D01*
X70056725Y-50672100D01*
X70047625Y-50663000D01*
X70031750Y-50678875D01*
X70000000Y-50678875D01*
X69984125Y-50663000D01*
X69968250Y-50678875D01*
X69714250Y-50678875D01*
X69698375Y-50663000D01*
X69682500Y-50678875D01*
X68943741Y-50678875D01*
X68921756Y-50664563D01*
X68910688Y-50663486D01*
X68898168Y-50675881D01*
X67711006Y-50675881D01*
X67698125Y-50663000D01*
X67682250Y-50678875D01*
X67581141Y-50678875D01*
X67564107Y-50664582D01*
X67531737Y-50682812D01*
X67526006Y-50718562D01*
X67470128Y-50718562D01*
X67490827Y-50702339D01*
X67491750Y-50694750D01*
X67467589Y-50663922D01*
X67460000Y-50663000D01*
X67429172Y-50687160D01*
X67428250Y-50694750D01*
X67382140Y-50694750D01*
X67372159Y-50681765D01*
X67298014Y-50686945D01*
X67269500Y-50694552D01*
X67027179Y-50694552D01*
X67046064Y-50668565D01*
X67047250Y-50659252D01*
X67027687Y-50642038D01*
X67015500Y-50647125D01*
X66984935Y-50689184D01*
X66983750Y-50698497D01*
X66253500Y-50698497D01*
X66253500Y-50641833D01*
X68042083Y-50641833D01*
X68046441Y-50660708D01*
X68063250Y-50663000D01*
X68089383Y-50651383D01*
X68087169Y-50647125D01*
X68666500Y-50647125D01*
X68682375Y-50663000D01*
X68698250Y-50647125D01*
X68682375Y-50631250D01*
X68666500Y-50647125D01*
X68087169Y-50647125D01*
X68084416Y-50641833D01*
X68046736Y-50638033D01*
X68042083Y-50641833D01*
X66253500Y-50641833D01*
X66253500Y-50608600D01*
X68957367Y-50608600D01*
X68965093Y-50626344D01*
X68997062Y-50660429D01*
X69015440Y-50653437D01*
X69015750Y-50648998D01*
X68993198Y-50622144D01*
X68979094Y-50612343D01*
X68957367Y-50608600D01*
X66253500Y-50608600D01*
X66253500Y-50583625D01*
X66825000Y-50583625D01*
X66840875Y-50599500D01*
X66856750Y-50583625D01*
X66920250Y-50583625D01*
X66936125Y-50599500D01*
X66952000Y-50583625D01*
X66936125Y-50567750D01*
X66920250Y-50583625D01*
X66856750Y-50583625D01*
X66840875Y-50567750D01*
X66825000Y-50583625D01*
X66253500Y-50583625D01*
X66253500Y-50414675D01*
X67356812Y-50403900D01*
X67650636Y-50401691D01*
X67992066Y-50400238D01*
X68365214Y-50399538D01*
X68754190Y-50399591D01*
G36*
X68970494Y-51477798D02*
G01*
X69094245Y-51504562D01*
X69223699Y-51538068D01*
X69344261Y-51574001D01*
X69424167Y-51602401D01*
X69534701Y-51631039D01*
X69647297Y-51615931D01*
X69747317Y-51594237D01*
X69835823Y-51584460D01*
X69841250Y-51584413D01*
X69892932Y-51589101D01*
X69887936Y-51607212D01*
X69873000Y-51618740D01*
X69848736Y-51641397D01*
X69878600Y-51640773D01*
X69898747Y-51636595D01*
X69968518Y-51642015D01*
X70002917Y-51691461D01*
X70002717Y-51776751D01*
X69968690Y-51889700D01*
X69901607Y-52022126D01*
X69855655Y-52093456D01*
X69806024Y-52183317D01*
X69780556Y-52266150D01*
X69782235Y-52325643D01*
X69809500Y-52345750D01*
X69829050Y-52373991D01*
X69840232Y-52444863D01*
X69841250Y-52478041D01*
X69836744Y-52553815D01*
X69825396Y-52589430D01*
X69819437Y-52588520D01*
X69784341Y-52592704D01*
X69727687Y-52634929D01*
X69663088Y-52700364D01*
X69604157Y-52774181D01*
X69564504Y-52841548D01*
X69555500Y-52876068D01*
X69561417Y-52929739D01*
X69584590Y-52942567D01*
X69633148Y-52912358D01*
X69715220Y-52836917D01*
X69720848Y-52831431D01*
X69787048Y-52771919D01*
X69830780Y-52742441D01*
X69841250Y-52744800D01*
X69819808Y-52779731D01*
X69762741Y-52845607D01*
X69680938Y-52930142D01*
X69651079Y-52959355D01*
X69568136Y-53035896D01*
X69508480Y-53084023D01*
X69480992Y-53096903D01*
X69481221Y-53090042D01*
X69486333Y-53056426D01*
X69455335Y-53049632D01*
X69394261Y-53060671D01*
X69225444Y-53101752D01*
X69113610Y-53139174D01*
X69052555Y-53175577D01*
X69036034Y-53213122D01*
X69028358Y-53243862D01*
X68989717Y-53259648D01*
X68906495Y-53264469D01*
X68861409Y-53264268D01*
X68749879Y-53257972D01*
X68656634Y-53244221D01*
X68618875Y-53232986D01*
X68608363Y-53219165D01*
X68659263Y-53215843D01*
X68769687Y-53223041D01*
X68984000Y-53242147D01*
X68984000Y-53111448D01*
X68990214Y-53030556D01*
X69005790Y-52984671D01*
X69012777Y-52980750D01*
X69029109Y-53006034D01*
X69024949Y-53044250D01*
X69017673Y-53080112D01*
X69026183Y-53099576D01*
X69061308Y-53103064D01*
X69133877Y-53090997D01*
X69254720Y-53063798D01*
X69293562Y-53054726D01*
X69411212Y-53025804D01*
X69479929Y-53001962D01*
X69512835Y-52974801D01*
X69523049Y-52935924D01*
X69523750Y-52907386D01*
X69520062Y-52848613D01*
X69497121Y-52825535D01*
X69437111Y-52828005D01*
X69395564Y-52834381D01*
X69275549Y-52859554D01*
X69156474Y-52893142D01*
X69148150Y-52895956D01*
X69071485Y-52915944D01*
X68987384Y-52920967D01*
X68875445Y-52911044D01*
X68776274Y-52896296D01*
X68523625Y-52855558D01*
X68753812Y-52872452D01*
X68984000Y-52889345D01*
X68984000Y-52761861D01*
X68982466Y-52699706D01*
X68970227Y-52658523D01*
X68935822Y-52632005D01*
X68867793Y-52613848D01*
X68754680Y-52597747D01*
X68666500Y-52587176D01*
X68639789Y-52581689D01*
X68669814Y-52579131D01*
X68749861Y-52579928D01*
X68771168Y-52580524D01*
X68986961Y-52587073D01*
X68974499Y-52395897D01*
X69015750Y-52395897D01*
X69019575Y-52497028D01*
X69039383Y-52551959D01*
X69087672Y-52568131D01*
X69176942Y-52552984D01*
X69247830Y-52534057D01*
X69334807Y-52515547D01*
X69398105Y-52511949D01*
X69406580Y-52513754D01*
X69397964Y-52526484D01*
X69339553Y-52547378D01*
X69243797Y-52572035D01*
X69238000Y-52573344D01*
X69126721Y-52600646D01*
X69063307Y-52625732D01*
X69033132Y-52657666D01*
X69021572Y-52705511D01*
X69021319Y-52707631D01*
X69021987Y-52813029D01*
X69052592Y-52869043D01*
X69102906Y-52873703D01*
X69167145Y-52856377D01*
X69262526Y-52832010D01*
X69301500Y-52822322D01*
X69395170Y-52798620D01*
X69464581Y-52779954D01*
X69480411Y-52775204D01*
X69498056Y-52736703D01*
X69493225Y-52643193D01*
X69466431Y-52498856D01*
X69427062Y-52340410D01*
X69409943Y-52278267D01*
X69390481Y-52242161D01*
X69354922Y-52228817D01*
X69289509Y-52234957D01*
X69180488Y-52257305D01*
X69126875Y-52268912D01*
X69063375Y-52282584D01*
X69126875Y-52252932D01*
X69207763Y-52223209D01*
X69277687Y-52204535D01*
X69302195Y-52194043D01*
X69444615Y-52194043D01*
X69452742Y-52273840D01*
X69456684Y-52314000D01*
X69477354Y-52382999D01*
X69490813Y-52408417D01*
X69518142Y-52433311D01*
X69556727Y-52417892D01*
X69601327Y-52379188D01*
X69659437Y-52333432D01*
X69697329Y-52319553D01*
X69700335Y-52321251D01*
X69689000Y-52349351D01*
X69639129Y-52398675D01*
X69611468Y-52420913D01*
X69542612Y-52481886D01*
X69515929Y-52539054D01*
X69517606Y-52614620D01*
X69531462Y-52688443D01*
X69548701Y-52725672D01*
X69551739Y-52726750D01*
X69586555Y-52708196D01*
X69651349Y-52661033D01*
X69691140Y-52629188D01*
X69760549Y-52565744D01*
X69803135Y-52514811D01*
X69809500Y-52499049D01*
X69796111Y-52441367D01*
X69763868Y-52369905D01*
X69724650Y-52305653D01*
X69690339Y-52269601D01*
X69679015Y-52268528D01*
X69652300Y-52274257D01*
X69660433Y-52245445D01*
X69698375Y-52198339D01*
X69737342Y-52145820D01*
X69746000Y-52118964D01*
X69728100Y-52112548D01*
X69696107Y-52137107D01*
X69643275Y-52181274D01*
X69624739Y-52172637D01*
X69634875Y-52123500D01*
X69637513Y-52071633D01*
X69619265Y-52060000D01*
X69600162Y-52039918D01*
X69606984Y-52022005D01*
X69600321Y-52013458D01*
X69555186Y-52038175D01*
X69533775Y-52052861D01*
X69460152Y-52126322D01*
X69444615Y-52194043D01*
X69302195Y-52194043D01*
X69340998Y-52177432D01*
X69365000Y-52142642D01*
X69388999Y-52094167D01*
X69436437Y-52051025D01*
X69483451Y-52007154D01*
X69481998Y-51999850D01*
X69797055Y-51999850D01*
X69797956Y-52035259D01*
X69826366Y-52035110D01*
X69863678Y-51996778D01*
X69891810Y-51939035D01*
X69889517Y-51907184D01*
X69858580Y-51910406D01*
X69822094Y-51949219D01*
X69797055Y-51999850D01*
X69481998Y-51999850D01*
X69475989Y-51969664D01*
X69471930Y-51965170D01*
X69418784Y-51945752D01*
X69361843Y-51969850D01*
X69321449Y-52022247D01*
X69316210Y-52081652D01*
X69321761Y-52123380D01*
X69304867Y-52151269D01*
X69253243Y-52172880D01*
X69154602Y-52195771D01*
X69118937Y-52203027D01*
X69059568Y-52218255D01*
X69028894Y-52244796D01*
X69017444Y-52300348D01*
X69015750Y-52395897D01*
X68974499Y-52395897D01*
X68968125Y-52298125D01*
X68809375Y-52279300D01*
X68650625Y-52260476D01*
X68816289Y-52255488D01*
X68911995Y-52250728D01*
X68957468Y-52239137D01*
X68965970Y-52213435D01*
X68955527Y-52179062D01*
X68938319Y-52151218D01*
X68990635Y-52151218D01*
X68994829Y-52176075D01*
X69038827Y-52181069D01*
X69115148Y-52171288D01*
X69206541Y-52151597D01*
X69270993Y-52129007D01*
X69282996Y-52121273D01*
X69290136Y-52091436D01*
X69251041Y-52072158D01*
X69182623Y-52067314D01*
X69103766Y-52080206D01*
X69030859Y-52112064D01*
X68991106Y-52149926D01*
X68990635Y-52151218D01*
X68938319Y-52151218D01*
X68927025Y-52132944D01*
X68873653Y-52112055D01*
X68789862Y-52107625D01*
X68694579Y-52115284D01*
X68658562Y-52138749D01*
X68658562Y-52147312D01*
X68648642Y-52183791D01*
X68638146Y-52187000D01*
X68605863Y-52218296D01*
X68573842Y-52310377D01*
X68542669Y-52460524D01*
X68512927Y-52666024D01*
X68489878Y-52875350D01*
X68470621Y-53071575D01*
X68682375Y-53097587D01*
X68575790Y-53102668D01*
X68503642Y-53113374D01*
X68483676Y-53139999D01*
X68487481Y-53155375D01*
X68488141Y-53196258D01*
X68475003Y-53203000D01*
X68449151Y-53176697D01*
X68444250Y-53145826D01*
X68417578Y-53102280D01*
X68350644Y-53049234D01*
X68263072Y-52998309D01*
X68174483Y-52961126D01*
X68111899Y-52949000D01*
X68063200Y-52930797D01*
X68034844Y-52892882D01*
X68040510Y-52865906D01*
X68074032Y-52871870D01*
X68146506Y-52902533D01*
X68234905Y-52947393D01*
X68329425Y-52997347D01*
X68399778Y-53032322D01*
X68429090Y-53044250D01*
X68439791Y-53016630D01*
X68444249Y-52950215D01*
X68444250Y-52950117D01*
X68425840Y-52868339D01*
X68366251Y-52818065D01*
X68258943Y-52796032D01*
X68136389Y-52796431D01*
X68027268Y-52807158D01*
X67967546Y-52827434D01*
X67943379Y-52861687D01*
X67921653Y-52907830D01*
X67888955Y-52905282D01*
X67839533Y-52850805D01*
X67788352Y-52774431D01*
X67732172Y-52694298D01*
X67685164Y-52642453D01*
X67666050Y-52631556D01*
X67624191Y-52611593D01*
X67559552Y-52561967D01*
X67539677Y-52544187D01*
X67472409Y-52488331D01*
X67421477Y-52457172D01*
X67413002Y-52454994D01*
X67359575Y-52444075D01*
X67342080Y-52438838D01*
X67491750Y-52438838D01*
X67516105Y-52476000D01*
X67574100Y-52526039D01*
X67643127Y-52572358D01*
X67700579Y-52598363D01*
X67710963Y-52599750D01*
X67744177Y-52624215D01*
X67745750Y-52634536D01*
X67763032Y-52686850D01*
X67804310Y-52751294D01*
X67853734Y-52808017D01*
X67895450Y-52837168D01*
X67906927Y-52836374D01*
X67935500Y-52798553D01*
X67936250Y-52792253D01*
X67914115Y-52748307D01*
X67858699Y-52679897D01*
X67935741Y-52679897D01*
X67953678Y-52733226D01*
X67957416Y-52737333D01*
X68001491Y-52757863D01*
X68023532Y-52726750D01*
X68063250Y-52726750D01*
X68090633Y-52749635D01*
X68150562Y-52758013D01*
X68205992Y-52753272D01*
X68204316Y-52736849D01*
X68190250Y-52726750D01*
X68123187Y-52698600D01*
X68074794Y-52703863D01*
X68063250Y-52726750D01*
X68023532Y-52726750D01*
X68027427Y-52721252D01*
X68031500Y-52679125D01*
X68014939Y-52615285D01*
X67983875Y-52599750D01*
X67947810Y-52624993D01*
X67935741Y-52679897D01*
X67858699Y-52679897D01*
X67857112Y-52677938D01*
X67779343Y-52595149D01*
X67694911Y-52513942D01*
X67617918Y-52448320D01*
X67562466Y-52412283D01*
X67550505Y-52409250D01*
X67501531Y-52422541D01*
X67491750Y-52438838D01*
X67342080Y-52438838D01*
X67306427Y-52428166D01*
X67255569Y-52406879D01*
X67261225Y-52385139D01*
X67290552Y-52363885D01*
X67372543Y-52317584D01*
X67434045Y-52299196D01*
X67459911Y-52313090D01*
X67460000Y-52314996D01*
X67434268Y-52342285D01*
X67412375Y-52345750D01*
X67370140Y-52364025D01*
X67364750Y-52379639D01*
X67388181Y-52396423D01*
X67440145Y-52390147D01*
X67493146Y-52367634D01*
X67518208Y-52341553D01*
X67552423Y-52313703D01*
X67597757Y-52329319D01*
X67627849Y-52377117D01*
X67668112Y-52434965D01*
X67726802Y-52471581D01*
X67787077Y-52504892D01*
X67809250Y-52535464D01*
X67836416Y-52559920D01*
X67888625Y-52568000D01*
X67952753Y-52549066D01*
X67964879Y-52501319D01*
X67930429Y-52447879D01*
X67907625Y-52406046D01*
X67912213Y-52390953D01*
X67937397Y-52402959D01*
X67975342Y-52457089D01*
X67984740Y-52474422D01*
X68023862Y-52538401D01*
X68052225Y-52549659D01*
X68069210Y-52532935D01*
X68089643Y-52513236D01*
X68087163Y-52549226D01*
X68084973Y-52559597D01*
X68084764Y-52602932D01*
X68113272Y-52641485D01*
X68181762Y-52686246D01*
X68253655Y-52724181D01*
X68350486Y-52769323D01*
X68423932Y-52796017D01*
X68456936Y-52798730D01*
X68470025Y-52756720D01*
X68475967Y-52680546D01*
X68476000Y-52674368D01*
X68470054Y-52611061D01*
X68442907Y-52565701D01*
X68380598Y-52522198D01*
X68312884Y-52486412D01*
X68215640Y-52441060D01*
X68158411Y-52426544D01*
X68127427Y-52439949D01*
X68122870Y-52446190D01*
X68102447Y-52461729D01*
X68095523Y-52417868D01*
X68095486Y-52414151D01*
X68079004Y-52345783D01*
X68158500Y-52345783D01*
X68184181Y-52376805D01*
X68247835Y-52419276D01*
X68329374Y-52462952D01*
X68408711Y-52497592D01*
X68465760Y-52512950D01*
X68480086Y-52509775D01*
X68498311Y-52467026D01*
X68517600Y-52388827D01*
X68520808Y-52371718D01*
X68528107Y-52285507D01*
X68506727Y-52235829D01*
X68484971Y-52218509D01*
X68446745Y-52192255D01*
X68462264Y-52192933D01*
X68483937Y-52199481D01*
X68534574Y-52208216D01*
X68538833Y-52193205D01*
X68504469Y-52163896D01*
X68439234Y-52129740D01*
X68420437Y-52122099D01*
X68340233Y-52090769D01*
X68287920Y-52069590D01*
X68281538Y-52066775D01*
X68260540Y-52087456D01*
X68228418Y-52147101D01*
X68194497Y-52224554D01*
X68168108Y-52298664D01*
X68158500Y-52345783D01*
X68079004Y-52345783D01*
X68076943Y-52337238D01*
X68032637Y-52252189D01*
X68029338Y-52247463D01*
X67993707Y-52187723D01*
X67988600Y-52156546D01*
X67992491Y-52155250D01*
X68024917Y-52181000D01*
X68059673Y-52239454D01*
X68095840Y-52292739D01*
X68126449Y-52295017D01*
X68152318Y-52248386D01*
X68175379Y-52174844D01*
X68191427Y-52095664D01*
X68196257Y-52032118D01*
X68185664Y-52005480D01*
X68183647Y-52005653D01*
X68142644Y-51988245D01*
X68118539Y-51960806D01*
X68116049Y-51941009D01*
X68230641Y-51941009D01*
X68253510Y-51980336D01*
X68310129Y-52017682D01*
X68320341Y-52013292D01*
X68378101Y-52013292D01*
X68388909Y-52051728D01*
X68430978Y-52093898D01*
X68468062Y-52113804D01*
X68559326Y-52140087D01*
X68610304Y-52127940D01*
X68626270Y-52101312D01*
X68606876Y-52072517D01*
X68549027Y-52038144D01*
X68475578Y-52009155D01*
X68409381Y-51996512D01*
X68407762Y-51996500D01*
X68378101Y-52013292D01*
X68320341Y-52013292D01*
X68357242Y-51997429D01*
X68364550Y-51979749D01*
X68464254Y-51979749D01*
X68589189Y-52017434D01*
X68699148Y-52043224D01*
X68804917Y-52057047D01*
X68817312Y-52057559D01*
X68890191Y-52051330D01*
X68918092Y-52021163D01*
X68920500Y-51996500D01*
X68918569Y-51992761D01*
X68957897Y-51992761D01*
X68962502Y-52009170D01*
X69008051Y-52051706D01*
X69082063Y-52054631D01*
X69140708Y-52030183D01*
X69169733Y-51998323D01*
X69147653Y-51954820D01*
X69144758Y-51951294D01*
X69085629Y-51912373D01*
X69021061Y-51910666D01*
X68971626Y-51939639D01*
X68957897Y-51992761D01*
X68918569Y-51992761D01*
X68895811Y-51948716D01*
X68837347Y-51931549D01*
X68768509Y-51947995D01*
X68734468Y-51972687D01*
X68707041Y-51993685D01*
X68713527Y-51962430D01*
X68715538Y-51957080D01*
X68715664Y-51903580D01*
X68673493Y-51881927D01*
X68603319Y-51895170D01*
X68552067Y-51922211D01*
X68464254Y-51979749D01*
X68364550Y-51979749D01*
X68375159Y-51954085D01*
X68360458Y-51902178D01*
X68349599Y-51896379D01*
X68393644Y-51896379D01*
X68394431Y-51897700D01*
X68416120Y-51925840D01*
X68445599Y-51927913D01*
X68505655Y-51903642D01*
X68522131Y-51896153D01*
X68587584Y-51855284D01*
X68597085Y-51822894D01*
X68549790Y-51806980D01*
X68531562Y-51806486D01*
X68448682Y-51820370D01*
X68397489Y-51853806D01*
X68393644Y-51896379D01*
X68349599Y-51896379D01*
X68311368Y-51875963D01*
X68255637Y-51888046D01*
X68246611Y-51895688D01*
X68230641Y-51941009D01*
X68116049Y-51941009D01*
X68113043Y-51917125D01*
X68126750Y-51917125D01*
X68142625Y-51933000D01*
X68158500Y-51917125D01*
X68142625Y-51901250D01*
X68126750Y-51917125D01*
X68113043Y-51917125D01*
X68110409Y-51896192D01*
X68144464Y-51812014D01*
X68208793Y-51721964D01*
X68291488Y-51639740D01*
X68380639Y-51579034D01*
X68464339Y-51553542D01*
X68472757Y-51553478D01*
X68476742Y-51566796D01*
X68433371Y-51599560D01*
X68379083Y-51630274D01*
X68287265Y-51691066D01*
X68217207Y-51761031D01*
X68178493Y-51827104D01*
X68180704Y-51876219D01*
X68191447Y-51886114D01*
X68219833Y-51882437D01*
X68222000Y-51871373D01*
X68247686Y-51841554D01*
X68269625Y-51837750D01*
X68314272Y-51820325D01*
X68321218Y-51806000D01*
X68328648Y-51744301D01*
X68329156Y-51739927D01*
X68357320Y-51702906D01*
X68417817Y-51658860D01*
X68484290Y-51625003D01*
X68517955Y-51616625D01*
X68520366Y-51633696D01*
X68496410Y-51663125D01*
X68442787Y-51702159D01*
X68414767Y-51710750D01*
X68384706Y-51736472D01*
X68380750Y-51758979D01*
X68396434Y-51791090D01*
X68452668Y-51789712D01*
X68468062Y-51786263D01*
X68547789Y-51762914D01*
X68571098Y-51740971D01*
X68563870Y-51733462D01*
X68645839Y-51733462D01*
X68652682Y-51787077D01*
X68694223Y-51841384D01*
X68748604Y-51868199D01*
X68750415Y-51868292D01*
X68791546Y-51843857D01*
X68798269Y-51832258D01*
X68823335Y-51832258D01*
X68842992Y-51870507D01*
X68906713Y-51890213D01*
X68920500Y-51890666D01*
X68987254Y-51885298D01*
X68995893Y-51881309D01*
X69151251Y-51881309D01*
X69161271Y-51930460D01*
X69175654Y-51950265D01*
X69223319Y-51990746D01*
X69281182Y-51988805D01*
X69314778Y-51977228D01*
X69360707Y-51945210D01*
X69344153Y-51909829D01*
X69270451Y-51874502D01*
X69249639Y-51870822D01*
X69460250Y-51870822D01*
X69481824Y-51932485D01*
X69530488Y-51955281D01*
X69582148Y-51937930D01*
X69612715Y-51879154D01*
X69612750Y-51878919D01*
X69606236Y-51829866D01*
X69556077Y-51814234D01*
X69541313Y-51813937D01*
X69476667Y-51829598D01*
X69460250Y-51870822D01*
X69249639Y-51870822D01*
X69190508Y-51860367D01*
X69151251Y-51881309D01*
X68995893Y-51881309D01*
X69015262Y-51872366D01*
X69015263Y-51872145D01*
X68999484Y-51832817D01*
X68983513Y-51806000D01*
X68953626Y-51774338D01*
X68925221Y-51799646D01*
X68920986Y-51806000D01*
X68895473Y-51833453D01*
X68889236Y-51812063D01*
X68871081Y-51785758D01*
X68857000Y-51790125D01*
X68823335Y-51832258D01*
X68798269Y-51832258D01*
X68806338Y-51818339D01*
X68808795Y-51781933D01*
X68777985Y-51785593D01*
X68736927Y-51785556D01*
X68731236Y-51773908D01*
X69019062Y-51773908D01*
X69029100Y-51797844D01*
X69042337Y-51814589D01*
X69085115Y-51848313D01*
X69125671Y-51828639D01*
X69145583Y-51790759D01*
X69190375Y-51790759D01*
X69285625Y-51843620D01*
X69357868Y-51870272D01*
X69410852Y-51868087D01*
X69429772Y-51841959D01*
X69406967Y-51803517D01*
X69352668Y-51781896D01*
X69287361Y-51780175D01*
X69670826Y-51780175D01*
X69678651Y-51830481D01*
X69680466Y-51833949D01*
X69701892Y-51912107D01*
X69701301Y-51951679D01*
X69698938Y-51983999D01*
X69705334Y-51972298D01*
X69732693Y-51945147D01*
X69744718Y-51948082D01*
X69772562Y-51933342D01*
X69806546Y-51876290D01*
X69810398Y-51867330D01*
X69821221Y-51821875D01*
X69873000Y-51821875D01*
X69890144Y-51864126D01*
X69904750Y-51869500D01*
X69932917Y-51843783D01*
X69936500Y-51821875D01*
X69919355Y-51779623D01*
X69904750Y-51774250D01*
X69876582Y-51799966D01*
X69873000Y-51821875D01*
X69821221Y-51821875D01*
X69831500Y-51778710D01*
X69810783Y-51729030D01*
X69753553Y-51725489D01*
X69717255Y-51740891D01*
X69670826Y-51780175D01*
X69287361Y-51780175D01*
X69281555Y-51780022D01*
X69190375Y-51790759D01*
X69145583Y-51790759D01*
X69153338Y-51776007D01*
X69151249Y-51750604D01*
X69120027Y-51713697D01*
X69108599Y-51710750D01*
X69094113Y-51734185D01*
X69099656Y-51758735D01*
X69101027Y-51791582D01*
X69058972Y-51784540D01*
X69019062Y-51773908D01*
X68731236Y-51773908D01*
X68730000Y-51771379D01*
X68710489Y-51753346D01*
X68698250Y-51758375D01*
X68668342Y-51752687D01*
X68663993Y-51736436D01*
X68656766Y-51713395D01*
X68645839Y-51733462D01*
X68563870Y-51733462D01*
X68544504Y-51713346D01*
X68538580Y-51709509D01*
X68515203Y-51687250D01*
X68548747Y-51679760D01*
X68563312Y-51679486D01*
X68621487Y-51664777D01*
X68631837Y-51633169D01*
X68595062Y-51604777D01*
X68582645Y-51590694D01*
X68609063Y-51586256D01*
X68666313Y-51600563D01*
X68682375Y-51615500D01*
X68726022Y-51646091D01*
X68735761Y-51647250D01*
X68759130Y-51635636D01*
X68743391Y-51612738D01*
X69069347Y-51612738D01*
X69105034Y-51652174D01*
X69128988Y-51660818D01*
X69187452Y-51686331D01*
X69206250Y-51711354D01*
X69233480Y-51734570D01*
X69287498Y-51742500D01*
X69341517Y-51732421D01*
X69349125Y-51710750D01*
X69303351Y-51681921D01*
X69281483Y-51679000D01*
X69221906Y-51657978D01*
X69181650Y-51627186D01*
X69149792Y-51591372D01*
X69167113Y-51587890D01*
X69207730Y-51599675D01*
X69325839Y-51639552D01*
X69399645Y-51673802D01*
X69446711Y-51711117D01*
X69457504Y-51723317D01*
X69504035Y-51765023D01*
X69527637Y-51774250D01*
X69528793Y-51755660D01*
X69494669Y-51713855D01*
X69587250Y-51713855D01*
X69594017Y-51738046D01*
X69625058Y-51735775D01*
X69696479Y-51705836D01*
X69696881Y-51705653D01*
X69763127Y-51665950D01*
X69772861Y-51640397D01*
X69728749Y-51638937D01*
X69682500Y-51652007D01*
X69616536Y-51683031D01*
X69587329Y-51712652D01*
X69587250Y-51713855D01*
X69494669Y-51713855D01*
X69492731Y-51711481D01*
X69411488Y-51651486D01*
X69303306Y-51596589D01*
X69196971Y-51559890D01*
X69142269Y-51552000D01*
X69082748Y-51571238D01*
X69069347Y-51612738D01*
X68743391Y-51612738D01*
X68740538Y-51608589D01*
X68695437Y-51577795D01*
X68639282Y-51554941D01*
X68607049Y-51549910D01*
X68581707Y-51542736D01*
X68617466Y-51524511D01*
X68698250Y-51499950D01*
X68798693Y-51475716D01*
X68880590Y-51468229D01*
X68970494Y-51477798D01*
G37*
X68970494Y-51477798D02*
X69094245Y-51504562D01*
X69223699Y-51538068D01*
X69344261Y-51574001D01*
X69424167Y-51602401D01*
X69534701Y-51631039D01*
X69647297Y-51615931D01*
X69747317Y-51594237D01*
X69835823Y-51584460D01*
X69841250Y-51584413D01*
X69892932Y-51589101D01*
X69887936Y-51607212D01*
X69873000Y-51618740D01*
X69848736Y-51641397D01*
X69878600Y-51640773D01*
X69898747Y-51636595D01*
X69968518Y-51642015D01*
X70002917Y-51691461D01*
X70002717Y-51776751D01*
X69968690Y-51889700D01*
X69901607Y-52022126D01*
X69855655Y-52093456D01*
X69806024Y-52183317D01*
X69780556Y-52266150D01*
X69782235Y-52325643D01*
X69809500Y-52345750D01*
X69829050Y-52373991D01*
X69840232Y-52444863D01*
X69841250Y-52478041D01*
X69836744Y-52553815D01*
X69825396Y-52589430D01*
X69819437Y-52588520D01*
X69784341Y-52592704D01*
X69727687Y-52634929D01*
X69663088Y-52700364D01*
X69604157Y-52774181D01*
X69564504Y-52841548D01*
X69555500Y-52876068D01*
X69561417Y-52929739D01*
X69584590Y-52942567D01*
X69633148Y-52912358D01*
X69715220Y-52836917D01*
X69720848Y-52831431D01*
X69787048Y-52771919D01*
X69830780Y-52742441D01*
X69841250Y-52744800D01*
X69819808Y-52779731D01*
X69762741Y-52845607D01*
X69680938Y-52930142D01*
X69651079Y-52959355D01*
X69568136Y-53035896D01*
X69508480Y-53084023D01*
X69480992Y-53096903D01*
X69481221Y-53090042D01*
X69486333Y-53056426D01*
X69455335Y-53049632D01*
X69394261Y-53060671D01*
X69225444Y-53101752D01*
X69113610Y-53139174D01*
X69052555Y-53175577D01*
X69036034Y-53213122D01*
X69028358Y-53243862D01*
X68989717Y-53259648D01*
X68906495Y-53264469D01*
X68861409Y-53264268D01*
X68749879Y-53257972D01*
X68656634Y-53244221D01*
X68618875Y-53232986D01*
X68608363Y-53219165D01*
X68659263Y-53215843D01*
X68769687Y-53223041D01*
X68984000Y-53242147D01*
X68984000Y-53111448D01*
X68990214Y-53030556D01*
X69005790Y-52984671D01*
X69012777Y-52980750D01*
X69029109Y-53006034D01*
X69024949Y-53044250D01*
X69017673Y-53080112D01*
X69026183Y-53099576D01*
X69061308Y-53103064D01*
X69133877Y-53090997D01*
X69254720Y-53063798D01*
X69293562Y-53054726D01*
X69411212Y-53025804D01*
X69479929Y-53001962D01*
X69512835Y-52974801D01*
X69523049Y-52935924D01*
X69523750Y-52907386D01*
X69520062Y-52848613D01*
X69497121Y-52825535D01*
X69437111Y-52828005D01*
X69395564Y-52834381D01*
X69275549Y-52859554D01*
X69156474Y-52893142D01*
X69148150Y-52895956D01*
X69071485Y-52915944D01*
X68987384Y-52920967D01*
X68875445Y-52911044D01*
X68776274Y-52896296D01*
X68523625Y-52855558D01*
X68753812Y-52872452D01*
X68984000Y-52889345D01*
X68984000Y-52761861D01*
X68982466Y-52699706D01*
X68970227Y-52658523D01*
X68935822Y-52632005D01*
X68867793Y-52613848D01*
X68754680Y-52597747D01*
X68666500Y-52587176D01*
X68639789Y-52581689D01*
X68669814Y-52579131D01*
X68749861Y-52579928D01*
X68771168Y-52580524D01*
X68986961Y-52587073D01*
X68974499Y-52395897D01*
X69015750Y-52395897D01*
X69019575Y-52497028D01*
X69039383Y-52551959D01*
X69087672Y-52568131D01*
X69176942Y-52552984D01*
X69247830Y-52534057D01*
X69334807Y-52515547D01*
X69398105Y-52511949D01*
X69406580Y-52513754D01*
X69397964Y-52526484D01*
X69339553Y-52547378D01*
X69243797Y-52572035D01*
X69238000Y-52573344D01*
X69126721Y-52600646D01*
X69063307Y-52625732D01*
X69033132Y-52657666D01*
X69021572Y-52705511D01*
X69021319Y-52707631D01*
X69021987Y-52813029D01*
X69052592Y-52869043D01*
X69102906Y-52873703D01*
X69167145Y-52856377D01*
X69262526Y-52832010D01*
X69301500Y-52822322D01*
X69395170Y-52798620D01*
X69464581Y-52779954D01*
X69480411Y-52775204D01*
X69498056Y-52736703D01*
X69493225Y-52643193D01*
X69466431Y-52498856D01*
X69427062Y-52340410D01*
X69409943Y-52278267D01*
X69390481Y-52242161D01*
X69354922Y-52228817D01*
X69289509Y-52234957D01*
X69180488Y-52257305D01*
X69126875Y-52268912D01*
X69063375Y-52282584D01*
X69126875Y-52252932D01*
X69207763Y-52223209D01*
X69277687Y-52204535D01*
X69302195Y-52194043D01*
X69444615Y-52194043D01*
X69452742Y-52273840D01*
X69456684Y-52314000D01*
X69477354Y-52382999D01*
X69490813Y-52408417D01*
X69518142Y-52433311D01*
X69556727Y-52417892D01*
X69601327Y-52379188D01*
X69659437Y-52333432D01*
X69697329Y-52319553D01*
X69700335Y-52321251D01*
X69689000Y-52349351D01*
X69639129Y-52398675D01*
X69611468Y-52420913D01*
X69542612Y-52481886D01*
X69515929Y-52539054D01*
X69517606Y-52614620D01*
X69531462Y-52688443D01*
X69548701Y-52725672D01*
X69551739Y-52726750D01*
X69586555Y-52708196D01*
X69651349Y-52661033D01*
X69691140Y-52629188D01*
X69760549Y-52565744D01*
X69803135Y-52514811D01*
X69809500Y-52499049D01*
X69796111Y-52441367D01*
X69763868Y-52369905D01*
X69724650Y-52305653D01*
X69690339Y-52269601D01*
X69679015Y-52268528D01*
X69652300Y-52274257D01*
X69660433Y-52245445D01*
X69698375Y-52198339D01*
X69737342Y-52145820D01*
X69746000Y-52118964D01*
X69728100Y-52112548D01*
X69696107Y-52137107D01*
X69643275Y-52181274D01*
X69624739Y-52172637D01*
X69634875Y-52123500D01*
X69637513Y-52071633D01*
X69619265Y-52060000D01*
X69600162Y-52039918D01*
X69606984Y-52022005D01*
X69600321Y-52013458D01*
X69555186Y-52038175D01*
X69533775Y-52052861D01*
X69460152Y-52126322D01*
X69444615Y-52194043D01*
X69302195Y-52194043D01*
X69340998Y-52177432D01*
X69365000Y-52142642D01*
X69388999Y-52094167D01*
X69436437Y-52051025D01*
X69483451Y-52007154D01*
X69481998Y-51999850D01*
X69797055Y-51999850D01*
X69797956Y-52035259D01*
X69826366Y-52035110D01*
X69863678Y-51996778D01*
X69891810Y-51939035D01*
X69889517Y-51907184D01*
X69858580Y-51910406D01*
X69822094Y-51949219D01*
X69797055Y-51999850D01*
X69481998Y-51999850D01*
X69475989Y-51969664D01*
X69471930Y-51965170D01*
X69418784Y-51945752D01*
X69361843Y-51969850D01*
X69321449Y-52022247D01*
X69316210Y-52081652D01*
X69321761Y-52123380D01*
X69304867Y-52151269D01*
X69253243Y-52172880D01*
X69154602Y-52195771D01*
X69118937Y-52203027D01*
X69059568Y-52218255D01*
X69028894Y-52244796D01*
X69017444Y-52300348D01*
X69015750Y-52395897D01*
X68974499Y-52395897D01*
X68968125Y-52298125D01*
X68809375Y-52279300D01*
X68650625Y-52260476D01*
X68816289Y-52255488D01*
X68911995Y-52250728D01*
X68957468Y-52239137D01*
X68965970Y-52213435D01*
X68955527Y-52179062D01*
X68938319Y-52151218D01*
X68990635Y-52151218D01*
X68994829Y-52176075D01*
X69038827Y-52181069D01*
X69115148Y-52171288D01*
X69206541Y-52151597D01*
X69270993Y-52129007D01*
X69282996Y-52121273D01*
X69290136Y-52091436D01*
X69251041Y-52072158D01*
X69182623Y-52067314D01*
X69103766Y-52080206D01*
X69030859Y-52112064D01*
X68991106Y-52149926D01*
X68990635Y-52151218D01*
X68938319Y-52151218D01*
X68927025Y-52132944D01*
X68873653Y-52112055D01*
X68789862Y-52107625D01*
X68694579Y-52115284D01*
X68658562Y-52138749D01*
X68658562Y-52147312D01*
X68648642Y-52183791D01*
X68638146Y-52187000D01*
X68605863Y-52218296D01*
X68573842Y-52310377D01*
X68542669Y-52460524D01*
X68512927Y-52666024D01*
X68489878Y-52875350D01*
X68470621Y-53071575D01*
X68682375Y-53097587D01*
X68575790Y-53102668D01*
X68503642Y-53113374D01*
X68483676Y-53139999D01*
X68487481Y-53155375D01*
X68488141Y-53196258D01*
X68475003Y-53203000D01*
X68449151Y-53176697D01*
X68444250Y-53145826D01*
X68417578Y-53102280D01*
X68350644Y-53049234D01*
X68263072Y-52998309D01*
X68174483Y-52961126D01*
X68111899Y-52949000D01*
X68063200Y-52930797D01*
X68034844Y-52892882D01*
X68040510Y-52865906D01*
X68074032Y-52871870D01*
X68146506Y-52902533D01*
X68234905Y-52947393D01*
X68329425Y-52997347D01*
X68399778Y-53032322D01*
X68429090Y-53044250D01*
X68439791Y-53016630D01*
X68444249Y-52950215D01*
X68444250Y-52950117D01*
X68425840Y-52868339D01*
X68366251Y-52818065D01*
X68258943Y-52796032D01*
X68136389Y-52796431D01*
X68027268Y-52807158D01*
X67967546Y-52827434D01*
X67943379Y-52861687D01*
X67921653Y-52907830D01*
X67888955Y-52905282D01*
X67839533Y-52850805D01*
X67788352Y-52774431D01*
X67732172Y-52694298D01*
X67685164Y-52642453D01*
X67666050Y-52631556D01*
X67624191Y-52611593D01*
X67559552Y-52561967D01*
X67539677Y-52544187D01*
X67472409Y-52488331D01*
X67421477Y-52457172D01*
X67413002Y-52454994D01*
X67359575Y-52444075D01*
X67342080Y-52438838D01*
X67491750Y-52438838D01*
X67516105Y-52476000D01*
X67574100Y-52526039D01*
X67643127Y-52572358D01*
X67700579Y-52598363D01*
X67710963Y-52599750D01*
X67744177Y-52624215D01*
X67745750Y-52634536D01*
X67763032Y-52686850D01*
X67804310Y-52751294D01*
X67853734Y-52808017D01*
X67895450Y-52837168D01*
X67906927Y-52836374D01*
X67935500Y-52798553D01*
X67936250Y-52792253D01*
X67914115Y-52748307D01*
X67858699Y-52679897D01*
X67935741Y-52679897D01*
X67953678Y-52733226D01*
X67957416Y-52737333D01*
X68001491Y-52757863D01*
X68023532Y-52726750D01*
X68063250Y-52726750D01*
X68090633Y-52749635D01*
X68150562Y-52758013D01*
X68205992Y-52753272D01*
X68204316Y-52736849D01*
X68190250Y-52726750D01*
X68123187Y-52698600D01*
X68074794Y-52703863D01*
X68063250Y-52726750D01*
X68023532Y-52726750D01*
X68027427Y-52721252D01*
X68031500Y-52679125D01*
X68014939Y-52615285D01*
X67983875Y-52599750D01*
X67947810Y-52624993D01*
X67935741Y-52679897D01*
X67858699Y-52679897D01*
X67857112Y-52677938D01*
X67779343Y-52595149D01*
X67694911Y-52513942D01*
X67617918Y-52448320D01*
X67562466Y-52412283D01*
X67550505Y-52409250D01*
X67501531Y-52422541D01*
X67491750Y-52438838D01*
X67342080Y-52438838D01*
X67306427Y-52428166D01*
X67255569Y-52406879D01*
X67261225Y-52385139D01*
X67290552Y-52363885D01*
X67372543Y-52317584D01*
X67434045Y-52299196D01*
X67459911Y-52313090D01*
X67460000Y-52314996D01*
X67434268Y-52342285D01*
X67412375Y-52345750D01*
X67370140Y-52364025D01*
X67364750Y-52379639D01*
X67388181Y-52396423D01*
X67440145Y-52390147D01*
X67493146Y-52367634D01*
X67518208Y-52341553D01*
X67552423Y-52313703D01*
X67597757Y-52329319D01*
X67627849Y-52377117D01*
X67668112Y-52434965D01*
X67726802Y-52471581D01*
X67787077Y-52504892D01*
X67809250Y-52535464D01*
X67836416Y-52559920D01*
X67888625Y-52568000D01*
X67952753Y-52549066D01*
X67964879Y-52501319D01*
X67930429Y-52447879D01*
X67907625Y-52406046D01*
X67912213Y-52390953D01*
X67937397Y-52402959D01*
X67975342Y-52457089D01*
X67984740Y-52474422D01*
X68023862Y-52538401D01*
X68052225Y-52549659D01*
X68069210Y-52532935D01*
X68089643Y-52513236D01*
X68087163Y-52549226D01*
X68084973Y-52559597D01*
X68084764Y-52602932D01*
X68113272Y-52641485D01*
X68181762Y-52686246D01*
X68253655Y-52724181D01*
X68350486Y-52769323D01*
X68423932Y-52796017D01*
X68456936Y-52798730D01*
X68470025Y-52756720D01*
X68475967Y-52680546D01*
X68476000Y-52674368D01*
X68470054Y-52611061D01*
X68442907Y-52565701D01*
X68380598Y-52522198D01*
X68312884Y-52486412D01*
X68215640Y-52441060D01*
X68158411Y-52426544D01*
X68127427Y-52439949D01*
X68122870Y-52446190D01*
X68102447Y-52461729D01*
X68095523Y-52417868D01*
X68095486Y-52414151D01*
X68079004Y-52345783D01*
X68158500Y-52345783D01*
X68184181Y-52376805D01*
X68247835Y-52419276D01*
X68329374Y-52462952D01*
X68408711Y-52497592D01*
X68465760Y-52512950D01*
X68480086Y-52509775D01*
X68498311Y-52467026D01*
X68517600Y-52388827D01*
X68520808Y-52371718D01*
X68528107Y-52285507D01*
X68506727Y-52235829D01*
X68484971Y-52218509D01*
X68446745Y-52192255D01*
X68462264Y-52192933D01*
X68483937Y-52199481D01*
X68534574Y-52208216D01*
X68538833Y-52193205D01*
X68504469Y-52163896D01*
X68439234Y-52129740D01*
X68420437Y-52122099D01*
X68340233Y-52090769D01*
X68287920Y-52069590D01*
X68281538Y-52066775D01*
X68260540Y-52087456D01*
X68228418Y-52147101D01*
X68194497Y-52224554D01*
X68168108Y-52298664D01*
X68158500Y-52345783D01*
X68079004Y-52345783D01*
X68076943Y-52337238D01*
X68032637Y-52252189D01*
X68029338Y-52247463D01*
X67993707Y-52187723D01*
X67988600Y-52156546D01*
X67992491Y-52155250D01*
X68024917Y-52181000D01*
X68059673Y-52239454D01*
X68095840Y-52292739D01*
X68126449Y-52295017D01*
X68152318Y-52248386D01*
X68175379Y-52174844D01*
X68191427Y-52095664D01*
X68196257Y-52032118D01*
X68185664Y-52005480D01*
X68183647Y-52005653D01*
X68142644Y-51988245D01*
X68118539Y-51960806D01*
X68116049Y-51941009D01*
X68230641Y-51941009D01*
X68253510Y-51980336D01*
X68310129Y-52017682D01*
X68320341Y-52013292D01*
X68378101Y-52013292D01*
X68388909Y-52051728D01*
X68430978Y-52093898D01*
X68468062Y-52113804D01*
X68559326Y-52140087D01*
X68610304Y-52127940D01*
X68626270Y-52101312D01*
X68606876Y-52072517D01*
X68549027Y-52038144D01*
X68475578Y-52009155D01*
X68409381Y-51996512D01*
X68407762Y-51996500D01*
X68378101Y-52013292D01*
X68320341Y-52013292D01*
X68357242Y-51997429D01*
X68364550Y-51979749D01*
X68464254Y-51979749D01*
X68589189Y-52017434D01*
X68699148Y-52043224D01*
X68804917Y-52057047D01*
X68817312Y-52057559D01*
X68890191Y-52051330D01*
X68918092Y-52021163D01*
X68920500Y-51996500D01*
X68918569Y-51992761D01*
X68957897Y-51992761D01*
X68962502Y-52009170D01*
X69008051Y-52051706D01*
X69082063Y-52054631D01*
X69140708Y-52030183D01*
X69169733Y-51998323D01*
X69147653Y-51954820D01*
X69144758Y-51951294D01*
X69085629Y-51912373D01*
X69021061Y-51910666D01*
X68971626Y-51939639D01*
X68957897Y-51992761D01*
X68918569Y-51992761D01*
X68895811Y-51948716D01*
X68837347Y-51931549D01*
X68768509Y-51947995D01*
X68734468Y-51972687D01*
X68707041Y-51993685D01*
X68713527Y-51962430D01*
X68715538Y-51957080D01*
X68715664Y-51903580D01*
X68673493Y-51881927D01*
X68603319Y-51895170D01*
X68552067Y-51922211D01*
X68464254Y-51979749D01*
X68364550Y-51979749D01*
X68375159Y-51954085D01*
X68360458Y-51902178D01*
X68349599Y-51896379D01*
X68393644Y-51896379D01*
X68394431Y-51897700D01*
X68416120Y-51925840D01*
X68445599Y-51927913D01*
X68505655Y-51903642D01*
X68522131Y-51896153D01*
X68587584Y-51855284D01*
X68597085Y-51822894D01*
X68549790Y-51806980D01*
X68531562Y-51806486D01*
X68448682Y-51820370D01*
X68397489Y-51853806D01*
X68393644Y-51896379D01*
X68349599Y-51896379D01*
X68311368Y-51875963D01*
X68255637Y-51888046D01*
X68246611Y-51895688D01*
X68230641Y-51941009D01*
X68116049Y-51941009D01*
X68113043Y-51917125D01*
X68126750Y-51917125D01*
X68142625Y-51933000D01*
X68158500Y-51917125D01*
X68142625Y-51901250D01*
X68126750Y-51917125D01*
X68113043Y-51917125D01*
X68110409Y-51896192D01*
X68144464Y-51812014D01*
X68208793Y-51721964D01*
X68291488Y-51639740D01*
X68380639Y-51579034D01*
X68464339Y-51553542D01*
X68472757Y-51553478D01*
X68476742Y-51566796D01*
X68433371Y-51599560D01*
X68379083Y-51630274D01*
X68287265Y-51691066D01*
X68217207Y-51761031D01*
X68178493Y-51827104D01*
X68180704Y-51876219D01*
X68191447Y-51886114D01*
X68219833Y-51882437D01*
X68222000Y-51871373D01*
X68247686Y-51841554D01*
X68269625Y-51837750D01*
X68314272Y-51820325D01*
X68321218Y-51806000D01*
X68328648Y-51744301D01*
X68329156Y-51739927D01*
X68357320Y-51702906D01*
X68417817Y-51658860D01*
X68484290Y-51625003D01*
X68517955Y-51616625D01*
X68520366Y-51633696D01*
X68496410Y-51663125D01*
X68442787Y-51702159D01*
X68414767Y-51710750D01*
X68384706Y-51736472D01*
X68380750Y-51758979D01*
X68396434Y-51791090D01*
X68452668Y-51789712D01*
X68468062Y-51786263D01*
X68547789Y-51762914D01*
X68571098Y-51740971D01*
X68563870Y-51733462D01*
X68645839Y-51733462D01*
X68652682Y-51787077D01*
X68694223Y-51841384D01*
X68748604Y-51868199D01*
X68750415Y-51868292D01*
X68791546Y-51843857D01*
X68798269Y-51832258D01*
X68823335Y-51832258D01*
X68842992Y-51870507D01*
X68906713Y-51890213D01*
X68920500Y-51890666D01*
X68987254Y-51885298D01*
X68995893Y-51881309D01*
X69151251Y-51881309D01*
X69161271Y-51930460D01*
X69175654Y-51950265D01*
X69223319Y-51990746D01*
X69281182Y-51988805D01*
X69314778Y-51977228D01*
X69360707Y-51945210D01*
X69344153Y-51909829D01*
X69270451Y-51874502D01*
X69249639Y-51870822D01*
X69460250Y-51870822D01*
X69481824Y-51932485D01*
X69530488Y-51955281D01*
X69582148Y-51937930D01*
X69612715Y-51879154D01*
X69612750Y-51878919D01*
X69606236Y-51829866D01*
X69556077Y-51814234D01*
X69541313Y-51813937D01*
X69476667Y-51829598D01*
X69460250Y-51870822D01*
X69249639Y-51870822D01*
X69190508Y-51860367D01*
X69151251Y-51881309D01*
X68995893Y-51881309D01*
X69015262Y-51872366D01*
X69015263Y-51872145D01*
X68999484Y-51832817D01*
X68983513Y-51806000D01*
X68953626Y-51774338D01*
X68925221Y-51799646D01*
X68920986Y-51806000D01*
X68895473Y-51833453D01*
X68889236Y-51812063D01*
X68871081Y-51785758D01*
X68857000Y-51790125D01*
X68823335Y-51832258D01*
X68798269Y-51832258D01*
X68806338Y-51818339D01*
X68808795Y-51781933D01*
X68777985Y-51785593D01*
X68736927Y-51785556D01*
X68731236Y-51773908D01*
X69019062Y-51773908D01*
X69029100Y-51797844D01*
X69042337Y-51814589D01*
X69085115Y-51848313D01*
X69125671Y-51828639D01*
X69145583Y-51790759D01*
X69190375Y-51790759D01*
X69285625Y-51843620D01*
X69357868Y-51870272D01*
X69410852Y-51868087D01*
X69429772Y-51841959D01*
X69406967Y-51803517D01*
X69352668Y-51781896D01*
X69287361Y-51780175D01*
X69670826Y-51780175D01*
X69678651Y-51830481D01*
X69680466Y-51833949D01*
X69701892Y-51912107D01*
X69701301Y-51951679D01*
X69698938Y-51983999D01*
X69705334Y-51972298D01*
X69732693Y-51945147D01*
X69744718Y-51948082D01*
X69772562Y-51933342D01*
X69806546Y-51876290D01*
X69810398Y-51867330D01*
X69821221Y-51821875D01*
X69873000Y-51821875D01*
X69890144Y-51864126D01*
X69904750Y-51869500D01*
X69932917Y-51843783D01*
X69936500Y-51821875D01*
X69919355Y-51779623D01*
X69904750Y-51774250D01*
X69876582Y-51799966D01*
X69873000Y-51821875D01*
X69821221Y-51821875D01*
X69831500Y-51778710D01*
X69810783Y-51729030D01*
X69753553Y-51725489D01*
X69717255Y-51740891D01*
X69670826Y-51780175D01*
X69287361Y-51780175D01*
X69281555Y-51780022D01*
X69190375Y-51790759D01*
X69145583Y-51790759D01*
X69153338Y-51776007D01*
X69151249Y-51750604D01*
X69120027Y-51713697D01*
X69108599Y-51710750D01*
X69094113Y-51734185D01*
X69099656Y-51758735D01*
X69101027Y-51791582D01*
X69058972Y-51784540D01*
X69019062Y-51773908D01*
X68731236Y-51773908D01*
X68730000Y-51771379D01*
X68710489Y-51753346D01*
X68698250Y-51758375D01*
X68668342Y-51752687D01*
X68663993Y-51736436D01*
X68656766Y-51713395D01*
X68645839Y-51733462D01*
X68563870Y-51733462D01*
X68544504Y-51713346D01*
X68538580Y-51709509D01*
X68515203Y-51687250D01*
X68548747Y-51679760D01*
X68563312Y-51679486D01*
X68621487Y-51664777D01*
X68631837Y-51633169D01*
X68595062Y-51604777D01*
X68582645Y-51590694D01*
X68609063Y-51586256D01*
X68666313Y-51600563D01*
X68682375Y-51615500D01*
X68726022Y-51646091D01*
X68735761Y-51647250D01*
X68759130Y-51635636D01*
X68743391Y-51612738D01*
X69069347Y-51612738D01*
X69105034Y-51652174D01*
X69128988Y-51660818D01*
X69187452Y-51686331D01*
X69206250Y-51711354D01*
X69233480Y-51734570D01*
X69287498Y-51742500D01*
X69341517Y-51732421D01*
X69349125Y-51710750D01*
X69303351Y-51681921D01*
X69281483Y-51679000D01*
X69221906Y-51657978D01*
X69181650Y-51627186D01*
X69149792Y-51591372D01*
X69167113Y-51587890D01*
X69207730Y-51599675D01*
X69325839Y-51639552D01*
X69399645Y-51673802D01*
X69446711Y-51711117D01*
X69457504Y-51723317D01*
X69504035Y-51765023D01*
X69527637Y-51774250D01*
X69528793Y-51755660D01*
X69494669Y-51713855D01*
X69587250Y-51713855D01*
X69594017Y-51738046D01*
X69625058Y-51735775D01*
X69696479Y-51705836D01*
X69696881Y-51705653D01*
X69763127Y-51665950D01*
X69772861Y-51640397D01*
X69728749Y-51638937D01*
X69682500Y-51652007D01*
X69616536Y-51683031D01*
X69587329Y-51712652D01*
X69587250Y-51713855D01*
X69494669Y-51713855D01*
X69492731Y-51711481D01*
X69411488Y-51651486D01*
X69303306Y-51596589D01*
X69196971Y-51559890D01*
X69142269Y-51552000D01*
X69082748Y-51571238D01*
X69069347Y-51612738D01*
X68743391Y-51612738D01*
X68740538Y-51608589D01*
X68695437Y-51577795D01*
X68639282Y-51554941D01*
X68607049Y-51549910D01*
X68581707Y-51542736D01*
X68617466Y-51524511D01*
X68698250Y-51499950D01*
X68798693Y-51475716D01*
X68880590Y-51468229D01*
X68970494Y-51477798D01*
G36*
X69165901Y-53215567D02*
G01*
X69156431Y-53229998D01*
X69124229Y-53232243D01*
X69090350Y-53224489D01*
X69105046Y-53213061D01*
X69154668Y-53209276D01*
X69165901Y-53215567D01*
G37*
X69165901Y-53215567D02*
X69156431Y-53229998D01*
X69124229Y-53232243D01*
X69090350Y-53224489D01*
X69105046Y-53213061D01*
X69154668Y-53209276D01*
X69165901Y-53215567D01*
G36*
X69292901Y-53183817D02*
G01*
X69283431Y-53198248D01*
X69251229Y-53200493D01*
X69217350Y-53192739D01*
X69232046Y-53181311D01*
X69281668Y-53177526D01*
X69292901Y-53183817D01*
G37*
X69292901Y-53183817D02*
X69283431Y-53198248D01*
X69251229Y-53200493D01*
X69217350Y-53192739D01*
X69232046Y-53181311D01*
X69281668Y-53177526D01*
X69292901Y-53183817D01*
G36*
X69386166Y-53150083D02*
G01*
X69381808Y-53168958D01*
X69365000Y-53171250D01*
X69338866Y-53159633D01*
X69343833Y-53150083D01*
X69381513Y-53146283D01*
X69386166Y-53150083D01*
G37*
X69386166Y-53150083D02*
X69381808Y-53168958D01*
X69365000Y-53171250D01*
X69338866Y-53159633D01*
X69343833Y-53150083D01*
X69381513Y-53146283D01*
X69386166Y-53150083D01*
G36*
X68896687Y-53117092D02*
G01*
X68911733Y-53124944D01*
X68871843Y-53129926D01*
X68825250Y-53130852D01*
X68756579Y-53128375D01*
X68737728Y-53122043D01*
X68753812Y-53117092D01*
X68846331Y-53111840D01*
X68896687Y-53117092D01*
G37*
X68896687Y-53117092D02*
X68911733Y-53124944D01*
X68871843Y-53129926D01*
X68825250Y-53130852D01*
X68756579Y-53128375D01*
X68737728Y-53122043D01*
X68753812Y-53117092D01*
X68846331Y-53111840D01*
X68896687Y-53117092D01*
G36*
X68880151Y-52199567D02*
G01*
X68870681Y-52213998D01*
X68838479Y-52216243D01*
X68804600Y-52208489D01*
X68819296Y-52197061D01*
X68868918Y-52193276D01*
X68880151Y-52199567D01*
G37*
X68880151Y-52199567D02*
X68870681Y-52213998D01*
X68838479Y-52216243D01*
X68804600Y-52208489D01*
X68819296Y-52197061D01*
X68868918Y-52193276D01*
X68880151Y-52199567D01*
G36*
X69580007Y-52076459D02*
G01*
X69559549Y-52102426D01*
X69512140Y-52143870D01*
X69472227Y-52156157D01*
X69460250Y-52140492D01*
X69484769Y-52116321D01*
X69531687Y-52087668D01*
X69579937Y-52064386D01*
X69580007Y-52076459D01*
G37*
X69580007Y-52076459D02*
X69559549Y-52102426D01*
X69512140Y-52143870D01*
X69472227Y-52156157D01*
X69460250Y-52140492D01*
X69484769Y-52116321D01*
X69531687Y-52087668D01*
X69579937Y-52064386D01*
X69580007Y-52076459D01*
G36*
X68353552Y-52140280D02*
G01*
X68380750Y-52155250D01*
X68406163Y-52180407D01*
X68396625Y-52186027D01*
X68344447Y-52170219D01*
X68317250Y-52155250D01*
X68291836Y-52130092D01*
X68301375Y-52124472D01*
X68353552Y-52140280D01*
G37*
X68353552Y-52140280D02*
X68380750Y-52155250D01*
X68406163Y-52180407D01*
X68396625Y-52186027D01*
X68344447Y-52170219D01*
X68317250Y-52155250D01*
X68291836Y-52130092D01*
X68301375Y-52124472D01*
X68353552Y-52140280D01*
D13*
%TO.C,U5*%
X68730000Y-69725000D02*
X71455000Y-69725000D01*
X71455000Y-69725000D02*
X71455000Y-69465000D01*
X68730000Y-69725000D02*
X66005000Y-69725000D01*
X66005000Y-69725000D02*
X66005000Y-69465000D01*
X68730000Y-64275000D02*
X71455000Y-64275000D01*
X71455000Y-64275000D02*
X71455000Y-64535000D01*
X68730000Y-64275000D02*
X66005000Y-64275000D01*
X66005000Y-64275000D02*
X66005000Y-64535000D01*
X66005000Y-64535000D02*
X64330000Y-64535000D01*
%TO.C,X1*%
X70901600Y-85200000D02*
X71331600Y-85200000D01*
X71331600Y-85200000D02*
X71331600Y-88800000D01*
X71331600Y-88800000D02*
X70901600Y-88800000D01*
X68361600Y-85200000D02*
X68901600Y-85200000D01*
X66361600Y-89050000D02*
X66361600Y-88800000D01*
X66361600Y-88800000D02*
X65931600Y-88800000D01*
X65931600Y-88800000D02*
X65931600Y-85200000D01*
X65931600Y-85200000D02*
X66361600Y-85200000D01*
X68901600Y-88800000D02*
X68361600Y-88800000D01*
X68361600Y-88800000D02*
X68361600Y-89050000D01*
%TO.C,J2*%
X75020000Y-115620000D02*
X77680000Y-115620000D01*
X75020000Y-52060000D02*
X75020000Y-115620000D01*
X77680000Y-52060000D02*
X77680000Y-115620000D01*
X75020000Y-52060000D02*
X77680000Y-52060000D01*
X75020000Y-50790000D02*
X75020000Y-49460000D01*
X75020000Y-49460000D02*
X76350000Y-49460000D01*
%TO.C,J1*%
X59780000Y-115620000D02*
X62440000Y-115620000D01*
X59780000Y-52060000D02*
X59780000Y-115620000D01*
X62440000Y-52060000D02*
X62440000Y-115620000D01*
X59780000Y-52060000D02*
X62440000Y-52060000D01*
X59780000Y-50790000D02*
X59780000Y-49460000D01*
X59780000Y-49460000D02*
X61110000Y-49460000D01*
%TO.C,J3*%
X65710000Y-59710000D02*
X65710000Y-57290000D01*
X71830000Y-59710000D02*
X71830000Y-57290000D01*
X65760000Y-61090000D02*
X65760000Y-59710000D01*
X65710000Y-59710000D02*
X65760000Y-59710000D01*
X65710000Y-57290000D02*
X65760000Y-57290000D01*
X71780000Y-59710000D02*
X71830000Y-59710000D01*
X71780000Y-57290000D02*
X71830000Y-57290000D01*
%TO.C,U6*%
X66280000Y-100710000D02*
X68080000Y-100710000D01*
X68080000Y-97490000D02*
X65630000Y-97490000D01*
%TO.C,U4*%
X66280000Y-114760000D02*
X68080000Y-114760000D01*
X68080000Y-111540000D02*
X65630000Y-111540000D01*
%TO.C,U3*%
X66280000Y-104460000D02*
X68080000Y-104460000D01*
X68080000Y-101240000D02*
X65630000Y-101240000D01*
%TO.C,U2*%
X66280000Y-111010000D02*
X68080000Y-111010000D01*
X68080000Y-107790000D02*
X65630000Y-107790000D01*
%TO.C,U1*%
X67330000Y-77250000D02*
X70480000Y-77250000D01*
X70480000Y-77250000D02*
X70480000Y-82750000D01*
X70480000Y-82750000D02*
X66980000Y-82750000D01*
X66980000Y-82750000D02*
X66980000Y-77600000D01*
X66730000Y-77000000D02*
X66830000Y-77000000D01*
X66830000Y-77000000D02*
X66830000Y-77100000D01*
X66830000Y-77100000D02*
X66730000Y-77100000D01*
X66730000Y-77100000D02*
X66730000Y-77000000D01*
%TO.C,JP1*%
X71080000Y-112150000D02*
X70780000Y-112450000D01*
X70780000Y-111850000D02*
X70780000Y-112450000D01*
X71080000Y-112150000D02*
X70780000Y-111850000D01*
X71280000Y-111400000D02*
X73280000Y-111400000D01*
X71280000Y-115500000D02*
X71280000Y-111400000D01*
X73280000Y-115500000D02*
X71280000Y-115500000D01*
X73280000Y-111400000D02*
X73280000Y-115500000D01*
%TO.C,JP3*%
X71080000Y-97600000D02*
X70780000Y-97900000D01*
X70780000Y-97300000D02*
X70780000Y-97900000D01*
X71080000Y-97600000D02*
X70780000Y-97300000D01*
X71280000Y-96850000D02*
X73280000Y-96850000D01*
X71280000Y-100950000D02*
X71280000Y-96850000D01*
X73280000Y-100950000D02*
X71280000Y-100950000D01*
X73280000Y-96850000D02*
X73280000Y-100950000D01*
%TO.C,JP2*%
X71080000Y-102450000D02*
X70780000Y-102750000D01*
X70780000Y-102150000D02*
X70780000Y-102750000D01*
X71080000Y-102450000D02*
X70780000Y-102150000D01*
X71280000Y-101700000D02*
X73280000Y-101700000D01*
X71280000Y-105800000D02*
X71280000Y-101700000D01*
X73280000Y-105800000D02*
X71280000Y-105800000D01*
X73280000Y-101700000D02*
X73280000Y-105800000D01*
%TO.C,C8*%
X70440000Y-98633221D02*
X70440000Y-98958779D01*
X69420000Y-98633221D02*
X69420000Y-98958779D01*
%TO.C,C7*%
X70440000Y-112687221D02*
X70440000Y-113012779D01*
X69420000Y-112687221D02*
X69420000Y-113012779D01*
%TO.C,C6*%
X64940000Y-102387221D02*
X64940000Y-102712779D01*
X63920000Y-102387221D02*
X63920000Y-102712779D01*
%TO.C,C5*%
X64940000Y-112687221D02*
X64940000Y-113012779D01*
X63920000Y-112687221D02*
X63920000Y-113012779D01*
%TO.C,C4*%
X70440000Y-102387221D02*
X70440000Y-102712779D01*
X69420000Y-102387221D02*
X69420000Y-102712779D01*
%TO.C,C3*%
X70440000Y-108937221D02*
X70440000Y-109262779D01*
X69420000Y-108937221D02*
X69420000Y-109262779D01*
%TO.C,C2*%
X64940000Y-98637221D02*
X64940000Y-98962779D01*
X63920000Y-98637221D02*
X63920000Y-98962779D01*
%TO.C,C1*%
X64940000Y-108937221D02*
X64940000Y-109262779D01*
X63920000Y-108937221D02*
X63920000Y-109262779D01*
%TO.C,U5*%
D11*
X67968095Y-70054380D02*
X67968095Y-70863904D01*
X68015714Y-70959142D01*
X68063333Y-71006761D01*
X68158571Y-71054380D01*
X68349047Y-71054380D01*
X68444285Y-71006761D01*
X68491904Y-70959142D01*
X68539523Y-70863904D01*
X68539523Y-70054380D01*
X69491904Y-70054380D02*
X69015714Y-70054380D01*
X68968095Y-70530571D01*
X69015714Y-70482952D01*
X69110952Y-70435333D01*
X69349047Y-70435333D01*
X69444285Y-70482952D01*
X69491904Y-70530571D01*
X69539523Y-70625809D01*
X69539523Y-70863904D01*
X69491904Y-70959142D01*
X69444285Y-71006761D01*
X69349047Y-71054380D01*
X69110952Y-71054380D01*
X69015714Y-71006761D01*
X68968095Y-70959142D01*
%TO.C,X1*%
X67820476Y-83952380D02*
X68487142Y-84952380D01*
X68487142Y-83952380D02*
X67820476Y-84952380D01*
X69391904Y-84952380D02*
X68820476Y-84952380D01*
X69106190Y-84952380D02*
X69106190Y-83952380D01*
X69010952Y-84095238D01*
X68915714Y-84190476D01*
X68820476Y-84238095D01*
%TO.C,J3*%
X68396666Y-61926380D02*
X68396666Y-62640666D01*
X68349047Y-62783523D01*
X68253809Y-62878761D01*
X68110952Y-62926380D01*
X68015714Y-62926380D01*
X68777619Y-61926380D02*
X69396666Y-61926380D01*
X69063333Y-62307333D01*
X69206190Y-62307333D01*
X69301428Y-62354952D01*
X69349047Y-62402571D01*
X69396666Y-62497809D01*
X69396666Y-62735904D01*
X69349047Y-62831142D01*
X69301428Y-62878761D01*
X69206190Y-62926380D01*
X68920476Y-62926380D01*
X68825238Y-62878761D01*
X68777619Y-62831142D01*
%TO.C,U6*%
X66468095Y-96152380D02*
X66468095Y-96961904D01*
X66515714Y-97057142D01*
X66563333Y-97104761D01*
X66658571Y-97152380D01*
X66849047Y-97152380D01*
X66944285Y-97104761D01*
X66991904Y-97057142D01*
X67039523Y-96961904D01*
X67039523Y-96152380D01*
X67944285Y-96152380D02*
X67753809Y-96152380D01*
X67658571Y-96200000D01*
X67610952Y-96247619D01*
X67515714Y-96390476D01*
X67468095Y-96580952D01*
X67468095Y-96961904D01*
X67515714Y-97057142D01*
X67563333Y-97104761D01*
X67658571Y-97152380D01*
X67849047Y-97152380D01*
X67944285Y-97104761D01*
X67991904Y-97057142D01*
X68039523Y-96961904D01*
X68039523Y-96723809D01*
X67991904Y-96628571D01*
X67944285Y-96580952D01*
X67849047Y-96533333D01*
X67658571Y-96533333D01*
X67563333Y-96580952D01*
X67515714Y-96628571D01*
X67468095Y-96723809D01*
%TO.C,U4*%
X66368095Y-115152380D02*
X66368095Y-115961904D01*
X66415714Y-116057142D01*
X66463333Y-116104761D01*
X66558571Y-116152380D01*
X66749047Y-116152380D01*
X66844285Y-116104761D01*
X66891904Y-116057142D01*
X66939523Y-115961904D01*
X66939523Y-115152380D01*
X67844285Y-115485714D02*
X67844285Y-116152380D01*
X67606190Y-115104761D02*
X67368095Y-115819047D01*
X67987142Y-115819047D01*
%TO.C,U3*%
X66393095Y-104777380D02*
X66393095Y-105586904D01*
X66440714Y-105682142D01*
X66488333Y-105729761D01*
X66583571Y-105777380D01*
X66774047Y-105777380D01*
X66869285Y-105729761D01*
X66916904Y-105682142D01*
X66964523Y-105586904D01*
X66964523Y-104777380D01*
X67345476Y-104777380D02*
X67964523Y-104777380D01*
X67631190Y-105158333D01*
X67774047Y-105158333D01*
X67869285Y-105205952D01*
X67916904Y-105253571D01*
X67964523Y-105348809D01*
X67964523Y-105586904D01*
X67916904Y-105682142D01*
X67869285Y-105729761D01*
X67774047Y-105777380D01*
X67488333Y-105777380D01*
X67393095Y-105729761D01*
X67345476Y-105682142D01*
%TO.C,U2*%
X66468095Y-106402380D02*
X66468095Y-107211904D01*
X66515714Y-107307142D01*
X66563333Y-107354761D01*
X66658571Y-107402380D01*
X66849047Y-107402380D01*
X66944285Y-107354761D01*
X66991904Y-107307142D01*
X67039523Y-107211904D01*
X67039523Y-106402380D01*
X67468095Y-106497619D02*
X67515714Y-106450000D01*
X67610952Y-106402380D01*
X67849047Y-106402380D01*
X67944285Y-106450000D01*
X67991904Y-106497619D01*
X68039523Y-106592857D01*
X68039523Y-106688095D01*
X67991904Y-106830952D01*
X67420476Y-107402380D01*
X68039523Y-107402380D01*
%TO.C,U1*%
X67968095Y-76052380D02*
X67968095Y-76861904D01*
X68015714Y-76957142D01*
X68063333Y-77004761D01*
X68158571Y-77052380D01*
X68349047Y-77052380D01*
X68444285Y-77004761D01*
X68491904Y-76957142D01*
X68539523Y-76861904D01*
X68539523Y-76052380D01*
X69539523Y-77052380D02*
X68968095Y-77052380D01*
X69253809Y-77052380D02*
X69253809Y-76052380D01*
X69158571Y-76195238D01*
X69063333Y-76290476D01*
X68968095Y-76338095D01*
%TO.C,JP1*%
X71396666Y-115652380D02*
X71396666Y-116366666D01*
X71349047Y-116509523D01*
X71253809Y-116604761D01*
X71110952Y-116652380D01*
X71015714Y-116652380D01*
X71872857Y-116652380D02*
X71872857Y-115652380D01*
X72253809Y-115652380D01*
X72349047Y-115700000D01*
X72396666Y-115747619D01*
X72444285Y-115842857D01*
X72444285Y-115985714D01*
X72396666Y-116080952D01*
X72349047Y-116128571D01*
X72253809Y-116176190D01*
X71872857Y-116176190D01*
X73396666Y-116652380D02*
X72825238Y-116652380D01*
X73110952Y-116652380D02*
X73110952Y-115652380D01*
X73015714Y-115795238D01*
X72920476Y-115890476D01*
X72825238Y-115938095D01*
%TO.C,JP3*%
X71396666Y-95652380D02*
X71396666Y-96366666D01*
X71349047Y-96509523D01*
X71253809Y-96604761D01*
X71110952Y-96652380D01*
X71015714Y-96652380D01*
X71872857Y-96652380D02*
X71872857Y-95652380D01*
X72253809Y-95652380D01*
X72349047Y-95700000D01*
X72396666Y-95747619D01*
X72444285Y-95842857D01*
X72444285Y-95985714D01*
X72396666Y-96080952D01*
X72349047Y-96128571D01*
X72253809Y-96176190D01*
X71872857Y-96176190D01*
X72777619Y-95652380D02*
X73396666Y-95652380D01*
X73063333Y-96033333D01*
X73206190Y-96033333D01*
X73301428Y-96080952D01*
X73349047Y-96128571D01*
X73396666Y-96223809D01*
X73396666Y-96461904D01*
X73349047Y-96557142D01*
X73301428Y-96604761D01*
X73206190Y-96652380D01*
X72920476Y-96652380D01*
X72825238Y-96604761D01*
X72777619Y-96557142D01*
%TO.C,JP2*%
X71296666Y-106052380D02*
X71296666Y-106766666D01*
X71249047Y-106909523D01*
X71153809Y-107004761D01*
X71010952Y-107052380D01*
X70915714Y-107052380D01*
X71772857Y-107052380D02*
X71772857Y-106052380D01*
X72153809Y-106052380D01*
X72249047Y-106100000D01*
X72296666Y-106147619D01*
X72344285Y-106242857D01*
X72344285Y-106385714D01*
X72296666Y-106480952D01*
X72249047Y-106528571D01*
X72153809Y-106576190D01*
X71772857Y-106576190D01*
X72725238Y-106147619D02*
X72772857Y-106100000D01*
X72868095Y-106052380D01*
X73106190Y-106052380D01*
X73201428Y-106100000D01*
X73249047Y-106147619D01*
X73296666Y-106242857D01*
X73296666Y-106338095D01*
X73249047Y-106480952D01*
X72677619Y-107052380D01*
X73296666Y-107052380D01*
%TD*%
M02*
