%TF.GenerationSoftware,KiCad,Pcbnew,(5.1.7-0-10_14)*%
%TF.CreationDate,2020-11-23T19:06:07+00:00*%
%TF.ProjectId,carrier,63617272-6965-4722-9e6b-696361645f70,0.1*%
%TF.SameCoordinates,Original*%
%TF.FileFunction,Copper,L4,Bot*%
%TF.FilePolarity,Positive*%
%FSLAX46Y46*%
G04 Gerber Fmt 4.6, Leading zero omitted, Abs format (unit mm)*
G04 Created by KiCad (PCBNEW (5.1.7-0-10_14)) date 2020-11-23 19:06:07*
%MOMM*%
%LPD*%
G01*
G04 APERTURE LIST*
%TA.AperFunction,ComponentPad*%
%ADD10O,1.700000X1.700000*%
%TD*%
%TA.AperFunction,ComponentPad*%
%ADD11R,1.700000X1.700000*%
%TD*%
%TA.AperFunction,ViaPad*%
%ADD12C,0.450000*%
%TD*%
%TA.AperFunction,Conductor*%
%ADD13C,0.450000*%
%TD*%
%TA.AperFunction,Conductor*%
%ADD14C,0.100000*%
%TD*%
%TA.AperFunction,Conductor*%
%ADD15C,0.254000*%
%TD*%
G04 APERTURE END LIST*
D10*
%TO.P,J3,26*%
%TO.N,mprj_io[19]*%
X76350000Y-109210000D03*
%TO.P,J3,25*%
%TO.N,mprj_io[20]*%
X76350000Y-106670000D03*
%TO.P,J3,24*%
%TO.N,mprj_io[21]*%
X76350000Y-104130000D03*
%TO.P,J3,23*%
%TO.N,mprj_io[22]*%
X76350000Y-101590000D03*
%TO.P,J3,22*%
%TO.N,mprj_io[23]*%
X76350000Y-99050000D03*
%TO.P,J3,21*%
%TO.N,mprj_io[24]*%
X76350000Y-96510000D03*
%TO.P,J3,20*%
%TO.N,mprj_io[25]*%
X76350000Y-93970000D03*
%TO.P,J3,19*%
%TO.N,mprj_io[26]*%
X76350000Y-91430000D03*
%TO.P,J3,18*%
%TO.N,mprj_io[27]*%
X76350000Y-88890000D03*
%TO.P,J3,17*%
%TO.N,mprj_io[28]*%
X76350000Y-86350000D03*
%TO.P,J3,16*%
%TO.N,mprj_io[29]*%
X76350000Y-83810000D03*
%TO.P,J3,15*%
%TO.N,mprj_io[30]*%
X76350000Y-81270000D03*
%TO.P,J3,14*%
%TO.N,mprj_io[31]*%
X76350000Y-78730000D03*
%TO.P,J3,13*%
%TO.N,mprj_io[32]*%
X76350000Y-76190000D03*
%TO.P,J3,12*%
%TO.N,mprj_io[33]*%
X76350000Y-73650000D03*
%TO.P,J3,11*%
%TO.N,mprj_io[34]*%
X76350000Y-71110000D03*
%TO.P,J3,10*%
%TO.N,mprj_io[35]*%
X76350000Y-68570000D03*
%TO.P,J3,9*%
%TO.N,mprj_io[36]*%
X76350000Y-66030000D03*
%TO.P,J3,8*%
%TO.N,mprj_io[37]*%
X76350000Y-63490000D03*
%TO.P,J3,7*%
%TO.N,+5V*%
X76350000Y-60950000D03*
%TO.P,J3,6*%
%TO.N,flash_csb*%
X76350000Y-58410000D03*
%TO.P,J3,5*%
%TO.N,flash_io0*%
X76350000Y-55870000D03*
%TO.P,J3,4*%
%TO.N,flash_io1*%
X76350000Y-53330000D03*
%TO.P,J3,3*%
%TO.N,flash_clk*%
X76350000Y-50790000D03*
%TO.P,J3,2*%
%TO.N,GND*%
X76350000Y-48250000D03*
D11*
%TO.P,J3,1*%
%TO.N,+5V*%
X76350000Y-45710000D03*
%TD*%
D10*
%TO.P,J2,26*%
%TO.N,GND*%
X61110000Y-109210000D03*
%TO.P,J2,25*%
%TO.N,mprj_io[18]*%
X61110000Y-106670000D03*
%TO.P,J2,24*%
%TO.N,mprj_io[17]*%
X61110000Y-104130000D03*
%TO.P,J2,23*%
%TO.N,mprj_io[16]*%
X61110000Y-101590000D03*
%TO.P,J2,22*%
%TO.N,mprj_io[15]*%
X61110000Y-99050000D03*
%TO.P,J2,21*%
%TO.N,mprj_io[14]*%
X61110000Y-96510000D03*
%TO.P,J2,20*%
%TO.N,mprj_io[13]*%
X61110000Y-93970000D03*
%TO.P,J2,19*%
%TO.N,mprj_io[12]*%
X61110000Y-91430000D03*
%TO.P,J2,18*%
%TO.N,mprj_io[11]*%
X61110000Y-88890000D03*
%TO.P,J2,17*%
%TO.N,mprj_io[10]*%
X61110000Y-86350000D03*
%TO.P,J2,16*%
%TO.N,mprj_io[9]*%
X61110000Y-83810000D03*
%TO.P,J2,15*%
%TO.N,mprj_io[8]*%
X61110000Y-81270000D03*
%TO.P,J2,14*%
%TO.N,mprj_io[7]*%
X61110000Y-78730000D03*
%TO.P,J2,13*%
%TO.N,mprj_io[6]*%
X61110000Y-76190000D03*
%TO.P,J2,12*%
%TO.N,mprj_io[5]*%
X61110000Y-73650000D03*
%TO.P,J2,11*%
%TO.N,mprj_io[4]*%
X61110000Y-71110000D03*
%TO.P,J2,10*%
%TO.N,mprj_io[3]*%
X61110000Y-68570000D03*
%TO.P,J2,9*%
%TO.N,mprj_io[2]*%
X61110000Y-66030000D03*
%TO.P,J2,8*%
%TO.N,mprj_io[1]*%
X61110000Y-63490000D03*
%TO.P,J2,7*%
%TO.N,mprj_io[0]*%
X61110000Y-60950000D03*
%TO.P,J2,6*%
%TO.N,clock*%
X61110000Y-58410000D03*
%TO.P,J2,5*%
%TO.N,resetb*%
X61110000Y-55870000D03*
%TO.P,J2,4*%
%TO.N,gpio*%
X61110000Y-53330000D03*
%TO.P,J2,3*%
%TO.N,ext_3v3*%
X61110000Y-50790000D03*
%TO.P,J2,2*%
%TO.N,ext_1v8*%
X61110000Y-48250000D03*
D11*
%TO.P,J2,1*%
%TO.N,ext_vddio*%
X61110000Y-45710000D03*
%TD*%
D12*
%TO.N,GND*%
X73830000Y-51650000D03*
X66680000Y-52100000D03*
X73780000Y-52100000D03*
X66730000Y-51650000D03*
X73830000Y-55400000D03*
X66680000Y-55850000D03*
X73780000Y-55850000D03*
X66730000Y-55400000D03*
X73830000Y-61950000D03*
X66680000Y-62400000D03*
X73780000Y-62400000D03*
X66730000Y-61950000D03*
X70455000Y-82125000D03*
X73730000Y-81900000D03*
X73480000Y-79275000D03*
X64730000Y-78100000D03*
X68730000Y-80000000D03*
X66680000Y-66150000D03*
X66730000Y-65700000D03*
X73780000Y-66150000D03*
X73830000Y-65700000D03*
X66530000Y-71450000D03*
X66530000Y-72250000D03*
X71780000Y-75975000D03*
X71270000Y-91095000D03*
X70855000Y-82525000D03*
X74004990Y-82600000D03*
X65530000Y-99400000D03*
X64430000Y-82000000D03*
X64479990Y-80500000D03*
X63650000Y-105400000D03*
X64920000Y-73142000D03*
X64920000Y-71872000D03*
X63650000Y-107432000D03*
X65682000Y-107432000D03*
X65428000Y-105908000D03*
X73048000Y-105400000D03*
X73048000Y-100320000D03*
X63650000Y-100320000D03*
X63650000Y-102860000D03*
X73048000Y-97780000D03*
X64158000Y-97780000D03*
X70254000Y-96256000D03*
X71270000Y-89144000D03*
X70000000Y-87874000D03*
X73240000Y-89000000D03*
X73810000Y-74666000D03*
X67206000Y-60354000D03*
X74064000Y-59500000D03*
X64412000Y-55274000D03*
X67206000Y-49940000D03*
X68984000Y-49940000D03*
X71778000Y-49940000D03*
X73810000Y-49940000D03*
X73048000Y-109210000D03*
X67206000Y-93716000D03*
X70000000Y-92446000D03*
X65530000Y-100000000D03*
X64930000Y-99400000D03*
X64930000Y-100000000D03*
X64380000Y-57450000D03*
X70000000Y-69840000D03*
X73810000Y-72380000D03*
X72540000Y-70475000D03*
X66620000Y-69770000D03*
X69492000Y-85080000D03*
X70254000Y-60188000D03*
%TO.N,+5V*%
X74064000Y-103622000D03*
X73556000Y-103622000D03*
X73556000Y-103114000D03*
X74064000Y-103114000D03*
X73830000Y-53200000D03*
X73780000Y-53650000D03*
X73830000Y-56950000D03*
X73780000Y-57400000D03*
X73830000Y-63500000D03*
X73780000Y-63950000D03*
X73830000Y-67250000D03*
X73780000Y-67700000D03*
X72130000Y-51500000D03*
X72130000Y-55200000D03*
%TO.N,vccd*%
X66730000Y-57500000D03*
X66730000Y-57000000D03*
X70755000Y-75450000D03*
%TO.N,vdda*%
X64980000Y-53500000D03*
X66190000Y-94905000D03*
X65230000Y-76950000D03*
X71130000Y-74550000D03*
X71130000Y-73650000D03*
X65480000Y-53250000D03*
%TO.N,vccd1*%
X64930000Y-61900000D03*
X65430000Y-61600000D03*
X65130000Y-83300000D03*
X71380000Y-83050000D03*
%TO.N,vdda1*%
X64930000Y-66750000D03*
X65430000Y-66500000D03*
X65030000Y-81800000D03*
X71930000Y-78725000D03*
%TO.N,vddio*%
X64930000Y-52200000D03*
X65430000Y-51900000D03*
X72530000Y-82450000D03*
X71230000Y-98500000D03*
%TO.N,gpio*%
X70380000Y-61700000D03*
X70380000Y-65450000D03*
X65630000Y-75650000D03*
%TO.N,flash_io0*%
X66805000Y-91100000D03*
X68005010Y-75650000D03*
%TO.N,flash_csb*%
X68780000Y-75400000D03*
X70780000Y-94900000D03*
%TO.N,resetb*%
X63330000Y-90050000D03*
X66180000Y-101700000D03*
%TO.N,mprj_io[2]*%
X64530000Y-86900000D03*
X69180000Y-98450000D03*
%TO.N,mprj_io[1]*%
X64530000Y-86250000D03*
X70180000Y-101700000D03*
%TO.N,flash_io1*%
X67280000Y-75850000D03*
X67180000Y-89900000D03*
%TO.N,mprj_io[36]*%
X73455000Y-75975000D03*
%TO.N,mprj_io[4]*%
X63930000Y-87800000D03*
X68230000Y-98450000D03*
%TO.N,mprj_io[3]*%
X63930000Y-87150000D03*
X69180000Y-101700000D03*
%TO.N,flash_clk*%
X66530000Y-77900000D03*
X66280000Y-92350000D03*
%TO.N,mprj_io[33]*%
X69980000Y-76775000D03*
%TO.N,mprj_io[34]*%
X73329998Y-76975000D03*
%TO.N,mprj_io[6]*%
X63330000Y-88700000D03*
X67180000Y-98450000D03*
%TO.N,mprj_io[5]*%
X63930000Y-88450000D03*
X68230000Y-101700000D03*
%TO.N,mprj_io[0]*%
X64530000Y-85600000D03*
X70230000Y-98450000D03*
%TO.N,mprj_io[32]*%
X71255000Y-79375000D03*
%TO.N,mprj_io[7]*%
X63330000Y-89350000D03*
X67180000Y-101700000D03*
%TO.N,mprj_io[12]*%
X66280000Y-81375010D03*
%TO.N,mprj_io[11]*%
X66305000Y-81950000D03*
%TO.N,mprj_io[24]*%
X73605000Y-86150000D03*
%TO.N,mprj_io[15]*%
X66380000Y-83424990D03*
%TO.N,mprj_io[19]*%
X73605000Y-86875000D03*
%TD*%
D13*
%TO.N,vdda*%
X65729999Y-89819657D02*
X65729999Y-94444999D01*
X65330000Y-79200000D02*
X67130000Y-81000000D01*
X65729999Y-94444999D02*
X66190000Y-94905000D01*
X65330000Y-77050000D02*
X65330000Y-79200000D01*
X65230000Y-76950000D02*
X65330000Y-77050000D01*
X67130000Y-88419656D02*
X65729999Y-89819657D01*
X67130000Y-81000000D02*
X67130000Y-88419656D01*
D14*
%TO.N,gpio*%
X63580000Y-57800000D02*
X64480000Y-58700000D01*
X63580000Y-55800000D02*
X61110000Y-53330000D01*
X63580000Y-57800000D02*
X63580000Y-55800000D01*
X64530000Y-58750000D02*
X63580000Y-57800000D01*
X64530000Y-64500000D02*
X64530000Y-58750000D01*
X65830000Y-65800000D02*
X64530000Y-64500000D01*
X70380000Y-65450000D02*
X70380000Y-61700000D01*
X65830000Y-65800000D02*
X65830000Y-75560000D01*
X65830000Y-75560000D02*
X65740000Y-75650000D01*
X70130000Y-65200000D02*
X70380000Y-65450000D01*
X66430000Y-65200000D02*
X70130000Y-65200000D01*
X65830000Y-65800000D02*
X66430000Y-65200000D01*
%TO.N,flash_io0*%
X67230000Y-91100000D02*
X66805000Y-91100000D01*
X68130000Y-90200000D02*
X67230000Y-91100000D01*
X68130000Y-75774990D02*
X68130000Y-90200000D01*
X68005010Y-75650000D02*
X68130000Y-75774990D01*
X67830000Y-75474990D02*
X68005010Y-75650000D01*
X67830000Y-70250000D02*
X67830000Y-75474990D01*
X74023193Y-64827521D02*
X73252479Y-64827521D01*
X75130000Y-63720714D02*
X74023193Y-64827521D01*
X73252479Y-64827521D02*
X67830000Y-70250000D01*
X75130000Y-57090000D02*
X75130000Y-63720714D01*
X76350000Y-55870000D02*
X75130000Y-57090000D01*
%TO.N,flash_csb*%
X68354999Y-89525001D02*
X68354999Y-89600000D01*
X69180000Y-94900000D02*
X70780000Y-94900000D01*
X68354999Y-94074999D02*
X69180000Y-94900000D01*
X68354999Y-89525001D02*
X68354999Y-94074999D01*
X68354999Y-75825001D02*
X68354999Y-89525001D01*
X68780000Y-75400000D02*
X68354999Y-75825001D01*
X68780000Y-69582858D02*
X68780000Y-75400000D01*
X74083570Y-65050000D02*
X73312858Y-65050000D01*
X73312858Y-65050000D02*
X68780000Y-69582858D01*
X75349999Y-63783571D02*
X74083570Y-65050000D01*
X75349999Y-59410001D02*
X75349999Y-63783571D01*
X76350000Y-58410000D02*
X75349999Y-59410001D01*
%TO.N,resetb*%
X65255001Y-88124999D02*
X63330000Y-90050000D01*
X64054999Y-84124999D02*
X65255001Y-85325001D01*
X64054999Y-58814999D02*
X64054999Y-84124999D01*
X65255001Y-85325001D02*
X65255001Y-88124999D01*
X61110000Y-55870000D02*
X64054999Y-58814999D01*
%TO.N,mprj_io[2]*%
X63430000Y-85800000D02*
X64430000Y-86800000D01*
X63430000Y-66275021D02*
X63430000Y-85800000D01*
X63184979Y-66030000D02*
X63430000Y-66275021D01*
X61110000Y-66030000D02*
X63184979Y-66030000D01*
%TO.N,mprj_io[1]*%
X63630000Y-63800000D02*
X63630000Y-85300000D01*
X63630000Y-85300000D02*
X64630000Y-86300000D01*
X61110000Y-63490000D02*
X61110000Y-63320000D01*
X61110000Y-63320000D02*
X61390000Y-63600000D01*
X63430000Y-63600000D02*
X63630000Y-63800000D01*
X61390000Y-63600000D02*
X63430000Y-63600000D01*
%TO.N,flash_io1*%
X67830000Y-89250000D02*
X67180000Y-89900000D01*
X67830000Y-76400000D02*
X67830000Y-89250000D01*
X67630000Y-70150000D02*
X67630000Y-75500000D01*
X67647144Y-70150000D02*
X67630000Y-70150000D01*
X73169633Y-64627511D02*
X67647144Y-70150000D01*
X67280000Y-75850000D02*
X67830000Y-76400000D01*
X67630000Y-75500000D02*
X67280000Y-75850000D01*
X74929990Y-63637868D02*
X73940347Y-64627511D01*
X76350000Y-53330000D02*
X74929990Y-54750010D01*
X74929990Y-54750010D02*
X74929990Y-63637868D01*
X73940347Y-64627511D02*
X73169633Y-64627511D01*
%TO.N,mprj_io[36]*%
X75130000Y-67250000D02*
X75130000Y-74300000D01*
X75130000Y-74300000D02*
X73455000Y-75975000D01*
X76350000Y-66030000D02*
X75130000Y-67250000D01*
%TO.N,mprj_io[4]*%
X62980000Y-71150000D02*
X62980000Y-86850000D01*
X62940000Y-71110000D02*
X62980000Y-71150000D01*
X62980000Y-86850000D02*
X63930000Y-87800000D01*
X61110000Y-71110000D02*
X62940000Y-71110000D01*
%TO.N,mprj_io[3]*%
X63180000Y-86400000D02*
X63930000Y-87150000D01*
X63180000Y-68590000D02*
X63180000Y-86400000D01*
X63200000Y-68570000D02*
X63180000Y-68590000D01*
X61110000Y-68570000D02*
X63200000Y-68570000D01*
%TO.N,flash_clk*%
X66330000Y-92350000D02*
X66280000Y-92350000D01*
X73857501Y-64427501D02*
X73002499Y-64427501D01*
X66429999Y-92250001D02*
X66330000Y-92350000D01*
X67530000Y-78900000D02*
X67530000Y-88550000D01*
X66429999Y-89650001D02*
X66429999Y-92250001D01*
X67530000Y-88550000D02*
X66429999Y-89650001D01*
X76350000Y-50790000D02*
X74729980Y-52410020D01*
X66080000Y-77450000D02*
X67530000Y-78900000D01*
X73002499Y-64427501D02*
X66080000Y-71350000D01*
X74729980Y-63555022D02*
X73857501Y-64427501D01*
X66080000Y-71350000D02*
X66080000Y-77450000D01*
X74729980Y-52410020D02*
X74729980Y-63555022D01*
%TO.N,mprj_io[33]*%
X70705000Y-77500000D02*
X69980000Y-76775000D01*
X73480000Y-77500000D02*
X70705000Y-77500000D01*
X76350000Y-74630000D02*
X73480000Y-77500000D01*
X76350000Y-73650000D02*
X76350000Y-74630000D01*
%TO.N,mprj_io[34]*%
X75330000Y-74974998D02*
X73329998Y-76975000D01*
X76350000Y-71110000D02*
X75330000Y-72130000D01*
X75330000Y-72130000D02*
X75330000Y-74974998D01*
%TO.N,mprj_io[6]*%
X62580000Y-87950000D02*
X63330000Y-88700000D01*
X62580000Y-76225061D02*
X62580000Y-87950000D01*
X62544939Y-76190000D02*
X62580000Y-76225061D01*
X61110000Y-76190000D02*
X62544939Y-76190000D01*
%TO.N,mprj_io[5]*%
X62780000Y-87300000D02*
X63930000Y-88450000D01*
X62780000Y-73825051D02*
X62780000Y-87300000D01*
X62604949Y-73650000D02*
X62780000Y-73825051D01*
X61110000Y-73650000D02*
X62604949Y-73650000D01*
%TO.N,mprj_io[0]*%
X61110000Y-60950000D02*
X61180000Y-60950000D01*
X63830000Y-84900000D02*
X64530000Y-85600000D01*
X63830000Y-61700000D02*
X63830000Y-84900000D01*
X63080000Y-60950000D02*
X63830000Y-61700000D01*
X61110000Y-60950000D02*
X63080000Y-60950000D01*
%TO.N,mprj_io[32]*%
X76350000Y-76960002D02*
X76350000Y-76190000D01*
X72130000Y-77800000D02*
X71255000Y-78675000D01*
X74740000Y-77800000D02*
X72130000Y-77800000D01*
X71255000Y-78675000D02*
X71255000Y-79375000D01*
X76350000Y-76190000D02*
X74740000Y-77800000D01*
%TO.N,mprj_io[7]*%
X62380000Y-79200000D02*
X62380000Y-88400000D01*
X62380000Y-88400000D02*
X63280000Y-89300000D01*
X61910000Y-78730000D02*
X62380000Y-79200000D01*
X63280000Y-89300000D02*
X63330000Y-89300000D01*
X61110000Y-78730000D02*
X61910000Y-78730000D01*
%TO.N,mprj_io[12]*%
X61140000Y-91400000D02*
X61110000Y-91430000D01*
X63230000Y-91400000D02*
X61140000Y-91400000D01*
X65880000Y-88750000D02*
X63230000Y-91400000D01*
X65880000Y-83350000D02*
X65880000Y-88750000D01*
X66680001Y-82549999D02*
X65880000Y-83350000D01*
X66280000Y-81375010D02*
X66479989Y-81574999D01*
X66680001Y-81769999D02*
X66680001Y-82549999D01*
X66485001Y-81574999D02*
X66680001Y-81769999D01*
X66479989Y-81574999D02*
X66485001Y-81574999D01*
%TO.N,mprj_io[11]*%
X61110000Y-89530000D02*
X61110000Y-88890000D01*
X63630000Y-90600000D02*
X62180000Y-90600000D01*
X65630000Y-88600000D02*
X63630000Y-90600000D01*
X66305000Y-82625000D02*
X65630000Y-83300000D01*
X65630000Y-83300000D02*
X65630000Y-88600000D01*
X62180000Y-90600000D02*
X61110000Y-89530000D01*
X66305000Y-81950000D02*
X66305000Y-82625000D01*
%TO.N,mprj_io[24]*%
X74980010Y-87525010D02*
X74980010Y-95140010D01*
X74980010Y-95140010D02*
X76350000Y-96510000D01*
X73605000Y-86150000D02*
X74980010Y-87525010D01*
%TO.N,mprj_io[15]*%
X62110001Y-98049999D02*
X61110000Y-99050000D01*
X62110001Y-92869999D02*
X62110001Y-98049999D01*
X66380000Y-88600000D02*
X62110001Y-92869999D01*
X66380000Y-83424990D02*
X66380000Y-88600000D01*
%TO.N,mprj_io[19]*%
X74780000Y-88050000D02*
X74780000Y-107640000D01*
X74780000Y-107640000D02*
X76350000Y-109210000D01*
X73605000Y-86875000D02*
X74780000Y-88050000D01*
%TD*%
D15*
%TO.N,GND*%
X78538001Y-111398000D02*
X58922000Y-111398000D01*
X58922000Y-109566890D01*
X59668524Y-109566890D01*
X59713175Y-109714099D01*
X59838359Y-109976920D01*
X60012412Y-110210269D01*
X60228645Y-110405178D01*
X60478748Y-110554157D01*
X60753109Y-110651481D01*
X60983000Y-110530814D01*
X60983000Y-109337000D01*
X61237000Y-109337000D01*
X61237000Y-110530814D01*
X61466891Y-110651481D01*
X61741252Y-110554157D01*
X61991355Y-110405178D01*
X62207588Y-110210269D01*
X62381641Y-109976920D01*
X62506825Y-109714099D01*
X62551476Y-109566890D01*
X62430155Y-109337000D01*
X61237000Y-109337000D01*
X60983000Y-109337000D01*
X59789845Y-109337000D01*
X59668524Y-109566890D01*
X58922000Y-109566890D01*
X58922000Y-108853110D01*
X59668524Y-108853110D01*
X59789845Y-109083000D01*
X60983000Y-109083000D01*
X60983000Y-109063000D01*
X61237000Y-109063000D01*
X61237000Y-109083000D01*
X62430155Y-109083000D01*
X62551476Y-108853110D01*
X62506825Y-108705901D01*
X62381641Y-108443080D01*
X62207588Y-108209731D01*
X61991355Y-108014822D01*
X61741252Y-107865843D01*
X61502821Y-107781264D01*
X61667519Y-107713044D01*
X61860294Y-107584236D01*
X62024236Y-107420294D01*
X62153044Y-107227519D01*
X62241769Y-107013318D01*
X62287000Y-106785924D01*
X62287000Y-106554076D01*
X62241769Y-106326682D01*
X62153044Y-106112481D01*
X62024236Y-105919706D01*
X61860294Y-105755764D01*
X61667519Y-105626956D01*
X61453318Y-105538231D01*
X61225924Y-105493000D01*
X60994076Y-105493000D01*
X60766682Y-105538231D01*
X60552481Y-105626956D01*
X60359706Y-105755764D01*
X60195764Y-105919706D01*
X60066956Y-106112481D01*
X59978231Y-106326682D01*
X59933000Y-106554076D01*
X59933000Y-106785924D01*
X59978231Y-107013318D01*
X60066956Y-107227519D01*
X60195764Y-107420294D01*
X60359706Y-107584236D01*
X60552481Y-107713044D01*
X60717179Y-107781264D01*
X60478748Y-107865843D01*
X60228645Y-108014822D01*
X60012412Y-108209731D01*
X59838359Y-108443080D01*
X59713175Y-108705901D01*
X59668524Y-108853110D01*
X58922000Y-108853110D01*
X58922000Y-104014076D01*
X59933000Y-104014076D01*
X59933000Y-104245924D01*
X59978231Y-104473318D01*
X60066956Y-104687519D01*
X60195764Y-104880294D01*
X60359706Y-105044236D01*
X60552481Y-105173044D01*
X60766682Y-105261769D01*
X60994076Y-105307000D01*
X61225924Y-105307000D01*
X61453318Y-105261769D01*
X61667519Y-105173044D01*
X61860294Y-105044236D01*
X62024236Y-104880294D01*
X62153044Y-104687519D01*
X62241769Y-104473318D01*
X62287000Y-104245924D01*
X62287000Y-104014076D01*
X62241769Y-103786682D01*
X62153044Y-103572481D01*
X62024236Y-103379706D01*
X61860294Y-103215764D01*
X61667519Y-103086956D01*
X61601556Y-103059633D01*
X73004000Y-103059633D01*
X73004000Y-103168367D01*
X73025213Y-103275012D01*
X73063730Y-103368000D01*
X73025213Y-103460988D01*
X73004000Y-103567633D01*
X73004000Y-103676367D01*
X73025213Y-103783012D01*
X73066824Y-103883470D01*
X73127234Y-103973880D01*
X73204120Y-104050766D01*
X73294530Y-104111176D01*
X73394988Y-104152787D01*
X73501633Y-104174000D01*
X73610367Y-104174000D01*
X73717012Y-104152787D01*
X73810000Y-104114270D01*
X73902988Y-104152787D01*
X74009633Y-104174000D01*
X74118367Y-104174000D01*
X74225012Y-104152787D01*
X74325470Y-104111176D01*
X74403001Y-104059372D01*
X74403001Y-107621478D01*
X74401177Y-107640000D01*
X74408455Y-107713905D01*
X74430012Y-107784969D01*
X74465020Y-107850463D01*
X74500326Y-107893484D01*
X74500329Y-107893487D01*
X74512132Y-107907869D01*
X74526514Y-107919672D01*
X75293005Y-108686163D01*
X75218231Y-108866682D01*
X75173000Y-109094076D01*
X75173000Y-109325924D01*
X75218231Y-109553318D01*
X75306956Y-109767519D01*
X75435764Y-109960294D01*
X75599706Y-110124236D01*
X75792481Y-110253044D01*
X76006682Y-110341769D01*
X76234076Y-110387000D01*
X76465924Y-110387000D01*
X76693318Y-110341769D01*
X76907519Y-110253044D01*
X77100294Y-110124236D01*
X77264236Y-109960294D01*
X77393044Y-109767519D01*
X77481769Y-109553318D01*
X77527000Y-109325924D01*
X77527000Y-109094076D01*
X77481769Y-108866682D01*
X77393044Y-108652481D01*
X77264236Y-108459706D01*
X77100294Y-108295764D01*
X76907519Y-108166956D01*
X76693318Y-108078231D01*
X76465924Y-108033000D01*
X76234076Y-108033000D01*
X76006682Y-108078231D01*
X75826163Y-108153005D01*
X75157000Y-107483842D01*
X75157000Y-106554076D01*
X75173000Y-106554076D01*
X75173000Y-106785924D01*
X75218231Y-107013318D01*
X75306956Y-107227519D01*
X75435764Y-107420294D01*
X75599706Y-107584236D01*
X75792481Y-107713044D01*
X76006682Y-107801769D01*
X76234076Y-107847000D01*
X76465924Y-107847000D01*
X76693318Y-107801769D01*
X76907519Y-107713044D01*
X77100294Y-107584236D01*
X77264236Y-107420294D01*
X77393044Y-107227519D01*
X77481769Y-107013318D01*
X77527000Y-106785924D01*
X77527000Y-106554076D01*
X77481769Y-106326682D01*
X77393044Y-106112481D01*
X77264236Y-105919706D01*
X77100294Y-105755764D01*
X76907519Y-105626956D01*
X76693318Y-105538231D01*
X76465924Y-105493000D01*
X76234076Y-105493000D01*
X76006682Y-105538231D01*
X75792481Y-105626956D01*
X75599706Y-105755764D01*
X75435764Y-105919706D01*
X75306956Y-106112481D01*
X75218231Y-106326682D01*
X75173000Y-106554076D01*
X75157000Y-106554076D01*
X75157000Y-104014076D01*
X75173000Y-104014076D01*
X75173000Y-104245924D01*
X75218231Y-104473318D01*
X75306956Y-104687519D01*
X75435764Y-104880294D01*
X75599706Y-105044236D01*
X75792481Y-105173044D01*
X76006682Y-105261769D01*
X76234076Y-105307000D01*
X76465924Y-105307000D01*
X76693318Y-105261769D01*
X76907519Y-105173044D01*
X77100294Y-105044236D01*
X77264236Y-104880294D01*
X77393044Y-104687519D01*
X77481769Y-104473318D01*
X77527000Y-104245924D01*
X77527000Y-104014076D01*
X77481769Y-103786682D01*
X77393044Y-103572481D01*
X77264236Y-103379706D01*
X77100294Y-103215764D01*
X76907519Y-103086956D01*
X76693318Y-102998231D01*
X76465924Y-102953000D01*
X76234076Y-102953000D01*
X76006682Y-102998231D01*
X75792481Y-103086956D01*
X75599706Y-103215764D01*
X75435764Y-103379706D01*
X75306956Y-103572481D01*
X75218231Y-103786682D01*
X75173000Y-104014076D01*
X75157000Y-104014076D01*
X75157000Y-101474076D01*
X75173000Y-101474076D01*
X75173000Y-101705924D01*
X75218231Y-101933318D01*
X75306956Y-102147519D01*
X75435764Y-102340294D01*
X75599706Y-102504236D01*
X75792481Y-102633044D01*
X76006682Y-102721769D01*
X76234076Y-102767000D01*
X76465924Y-102767000D01*
X76693318Y-102721769D01*
X76907519Y-102633044D01*
X77100294Y-102504236D01*
X77264236Y-102340294D01*
X77393044Y-102147519D01*
X77481769Y-101933318D01*
X77527000Y-101705924D01*
X77527000Y-101474076D01*
X77481769Y-101246682D01*
X77393044Y-101032481D01*
X77264236Y-100839706D01*
X77100294Y-100675764D01*
X76907519Y-100546956D01*
X76693318Y-100458231D01*
X76465924Y-100413000D01*
X76234076Y-100413000D01*
X76006682Y-100458231D01*
X75792481Y-100546956D01*
X75599706Y-100675764D01*
X75435764Y-100839706D01*
X75306956Y-101032481D01*
X75218231Y-101246682D01*
X75173000Y-101474076D01*
X75157000Y-101474076D01*
X75157000Y-98934076D01*
X75173000Y-98934076D01*
X75173000Y-99165924D01*
X75218231Y-99393318D01*
X75306956Y-99607519D01*
X75435764Y-99800294D01*
X75599706Y-99964236D01*
X75792481Y-100093044D01*
X76006682Y-100181769D01*
X76234076Y-100227000D01*
X76465924Y-100227000D01*
X76693318Y-100181769D01*
X76907519Y-100093044D01*
X77100294Y-99964236D01*
X77264236Y-99800294D01*
X77393044Y-99607519D01*
X77481769Y-99393318D01*
X77527000Y-99165924D01*
X77527000Y-98934076D01*
X77481769Y-98706682D01*
X77393044Y-98492481D01*
X77264236Y-98299706D01*
X77100294Y-98135764D01*
X76907519Y-98006956D01*
X76693318Y-97918231D01*
X76465924Y-97873000D01*
X76234076Y-97873000D01*
X76006682Y-97918231D01*
X75792481Y-98006956D01*
X75599706Y-98135764D01*
X75435764Y-98299706D01*
X75306956Y-98492481D01*
X75218231Y-98706682D01*
X75173000Y-98934076D01*
X75157000Y-98934076D01*
X75157000Y-95850158D01*
X75293005Y-95986163D01*
X75218231Y-96166682D01*
X75173000Y-96394076D01*
X75173000Y-96625924D01*
X75218231Y-96853318D01*
X75306956Y-97067519D01*
X75435764Y-97260294D01*
X75599706Y-97424236D01*
X75792481Y-97553044D01*
X76006682Y-97641769D01*
X76234076Y-97687000D01*
X76465924Y-97687000D01*
X76693318Y-97641769D01*
X76907519Y-97553044D01*
X77100294Y-97424236D01*
X77264236Y-97260294D01*
X77393044Y-97067519D01*
X77481769Y-96853318D01*
X77527000Y-96625924D01*
X77527000Y-96394076D01*
X77481769Y-96166682D01*
X77393044Y-95952481D01*
X77264236Y-95759706D01*
X77100294Y-95595764D01*
X76907519Y-95466956D01*
X76693318Y-95378231D01*
X76465924Y-95333000D01*
X76234076Y-95333000D01*
X76006682Y-95378231D01*
X75826163Y-95453005D01*
X75357010Y-94983852D01*
X75357010Y-94602430D01*
X75435764Y-94720294D01*
X75599706Y-94884236D01*
X75792481Y-95013044D01*
X76006682Y-95101769D01*
X76234076Y-95147000D01*
X76465924Y-95147000D01*
X76693318Y-95101769D01*
X76907519Y-95013044D01*
X77100294Y-94884236D01*
X77264236Y-94720294D01*
X77393044Y-94527519D01*
X77481769Y-94313318D01*
X77527000Y-94085924D01*
X77527000Y-93854076D01*
X77481769Y-93626682D01*
X77393044Y-93412481D01*
X77264236Y-93219706D01*
X77100294Y-93055764D01*
X76907519Y-92926956D01*
X76693318Y-92838231D01*
X76465924Y-92793000D01*
X76234076Y-92793000D01*
X76006682Y-92838231D01*
X75792481Y-92926956D01*
X75599706Y-93055764D01*
X75435764Y-93219706D01*
X75357010Y-93337570D01*
X75357010Y-92062430D01*
X75435764Y-92180294D01*
X75599706Y-92344236D01*
X75792481Y-92473044D01*
X76006682Y-92561769D01*
X76234076Y-92607000D01*
X76465924Y-92607000D01*
X76693318Y-92561769D01*
X76907519Y-92473044D01*
X77100294Y-92344236D01*
X77264236Y-92180294D01*
X77393044Y-91987519D01*
X77481769Y-91773318D01*
X77527000Y-91545924D01*
X77527000Y-91314076D01*
X77481769Y-91086682D01*
X77393044Y-90872481D01*
X77264236Y-90679706D01*
X77100294Y-90515764D01*
X76907519Y-90386956D01*
X76693318Y-90298231D01*
X76465924Y-90253000D01*
X76234076Y-90253000D01*
X76006682Y-90298231D01*
X75792481Y-90386956D01*
X75599706Y-90515764D01*
X75435764Y-90679706D01*
X75357010Y-90797570D01*
X75357010Y-89522430D01*
X75435764Y-89640294D01*
X75599706Y-89804236D01*
X75792481Y-89933044D01*
X76006682Y-90021769D01*
X76234076Y-90067000D01*
X76465924Y-90067000D01*
X76693318Y-90021769D01*
X76907519Y-89933044D01*
X77100294Y-89804236D01*
X77264236Y-89640294D01*
X77393044Y-89447519D01*
X77481769Y-89233318D01*
X77527000Y-89005924D01*
X77527000Y-88774076D01*
X77481769Y-88546682D01*
X77393044Y-88332481D01*
X77264236Y-88139706D01*
X77100294Y-87975764D01*
X76907519Y-87846956D01*
X76693318Y-87758231D01*
X76465924Y-87713000D01*
X76234076Y-87713000D01*
X76006682Y-87758231D01*
X75792481Y-87846956D01*
X75599706Y-87975764D01*
X75435764Y-88139706D01*
X75357010Y-88257570D01*
X75357010Y-87543529D01*
X75358834Y-87525010D01*
X75351555Y-87451104D01*
X75329998Y-87380040D01*
X75297114Y-87318519D01*
X75294991Y-87314547D01*
X75247879Y-87257141D01*
X75233498Y-87245339D01*
X74222235Y-86234076D01*
X75173000Y-86234076D01*
X75173000Y-86465924D01*
X75218231Y-86693318D01*
X75306956Y-86907519D01*
X75435764Y-87100294D01*
X75599706Y-87264236D01*
X75792481Y-87393044D01*
X76006682Y-87481769D01*
X76234076Y-87527000D01*
X76465924Y-87527000D01*
X76693318Y-87481769D01*
X76907519Y-87393044D01*
X77100294Y-87264236D01*
X77264236Y-87100294D01*
X77393044Y-86907519D01*
X77481769Y-86693318D01*
X77527000Y-86465924D01*
X77527000Y-86234076D01*
X77481769Y-86006682D01*
X77393044Y-85792481D01*
X77264236Y-85599706D01*
X77100294Y-85435764D01*
X76907519Y-85306956D01*
X76693318Y-85218231D01*
X76465924Y-85173000D01*
X76234076Y-85173000D01*
X76006682Y-85218231D01*
X75792481Y-85306956D01*
X75599706Y-85435764D01*
X75435764Y-85599706D01*
X75306956Y-85792481D01*
X75218231Y-86006682D01*
X75173000Y-86234076D01*
X74222235Y-86234076D01*
X74157000Y-86168842D01*
X74157000Y-86095633D01*
X74135787Y-85988988D01*
X74094176Y-85888530D01*
X74033766Y-85798120D01*
X73956880Y-85721234D01*
X73866470Y-85660824D01*
X73766012Y-85619213D01*
X73659367Y-85598000D01*
X73550633Y-85598000D01*
X73443988Y-85619213D01*
X73343530Y-85660824D01*
X73253120Y-85721234D01*
X73176234Y-85798120D01*
X73115824Y-85888530D01*
X73074213Y-85988988D01*
X73053000Y-86095633D01*
X73053000Y-86204367D01*
X73074213Y-86311012D01*
X73115824Y-86411470D01*
X73176234Y-86501880D01*
X73186854Y-86512500D01*
X73176234Y-86523120D01*
X73115824Y-86613530D01*
X73074213Y-86713988D01*
X73053000Y-86820633D01*
X73053000Y-86929367D01*
X73074213Y-87036012D01*
X73115824Y-87136470D01*
X73176234Y-87226880D01*
X73253120Y-87303766D01*
X73343530Y-87364176D01*
X73443988Y-87405787D01*
X73550633Y-87427000D01*
X73623842Y-87427000D01*
X74403000Y-88206159D01*
X74403001Y-102676628D01*
X74325470Y-102624824D01*
X74225012Y-102583213D01*
X74118367Y-102562000D01*
X74009633Y-102562000D01*
X73902988Y-102583213D01*
X73810000Y-102621730D01*
X73717012Y-102583213D01*
X73610367Y-102562000D01*
X73501633Y-102562000D01*
X73394988Y-102583213D01*
X73294530Y-102624824D01*
X73204120Y-102685234D01*
X73127234Y-102762120D01*
X73066824Y-102852530D01*
X73025213Y-102952988D01*
X73004000Y-103059633D01*
X61601556Y-103059633D01*
X61453318Y-102998231D01*
X61225924Y-102953000D01*
X60994076Y-102953000D01*
X60766682Y-102998231D01*
X60552481Y-103086956D01*
X60359706Y-103215764D01*
X60195764Y-103379706D01*
X60066956Y-103572481D01*
X59978231Y-103786682D01*
X59933000Y-104014076D01*
X58922000Y-104014076D01*
X58922000Y-101474076D01*
X59933000Y-101474076D01*
X59933000Y-101705924D01*
X59978231Y-101933318D01*
X60066956Y-102147519D01*
X60195764Y-102340294D01*
X60359706Y-102504236D01*
X60552481Y-102633044D01*
X60766682Y-102721769D01*
X60994076Y-102767000D01*
X61225924Y-102767000D01*
X61453318Y-102721769D01*
X61667519Y-102633044D01*
X61860294Y-102504236D01*
X62024236Y-102340294D01*
X62153044Y-102147519D01*
X62241769Y-101933318D01*
X62287000Y-101705924D01*
X62287000Y-101645633D01*
X65628000Y-101645633D01*
X65628000Y-101754367D01*
X65649213Y-101861012D01*
X65690824Y-101961470D01*
X65751234Y-102051880D01*
X65828120Y-102128766D01*
X65918530Y-102189176D01*
X66018988Y-102230787D01*
X66125633Y-102252000D01*
X66234367Y-102252000D01*
X66341012Y-102230787D01*
X66441470Y-102189176D01*
X66531880Y-102128766D01*
X66608766Y-102051880D01*
X66669176Y-101961470D01*
X66680000Y-101935339D01*
X66690824Y-101961470D01*
X66751234Y-102051880D01*
X66828120Y-102128766D01*
X66918530Y-102189176D01*
X67018988Y-102230787D01*
X67125633Y-102252000D01*
X67234367Y-102252000D01*
X67341012Y-102230787D01*
X67441470Y-102189176D01*
X67531880Y-102128766D01*
X67608766Y-102051880D01*
X67669176Y-101961470D01*
X67705000Y-101874983D01*
X67740824Y-101961470D01*
X67801234Y-102051880D01*
X67878120Y-102128766D01*
X67968530Y-102189176D01*
X68068988Y-102230787D01*
X68175633Y-102252000D01*
X68284367Y-102252000D01*
X68391012Y-102230787D01*
X68491470Y-102189176D01*
X68581880Y-102128766D01*
X68658766Y-102051880D01*
X68705000Y-101982686D01*
X68751234Y-102051880D01*
X68828120Y-102128766D01*
X68918530Y-102189176D01*
X69018988Y-102230787D01*
X69125633Y-102252000D01*
X69234367Y-102252000D01*
X69341012Y-102230787D01*
X69441470Y-102189176D01*
X69531880Y-102128766D01*
X69608766Y-102051880D01*
X69669176Y-101961470D01*
X69680000Y-101935339D01*
X69690824Y-101961470D01*
X69751234Y-102051880D01*
X69828120Y-102128766D01*
X69918530Y-102189176D01*
X70018988Y-102230787D01*
X70125633Y-102252000D01*
X70234367Y-102252000D01*
X70341012Y-102230787D01*
X70441470Y-102189176D01*
X70531880Y-102128766D01*
X70608766Y-102051880D01*
X70669176Y-101961470D01*
X70710787Y-101861012D01*
X70732000Y-101754367D01*
X70732000Y-101645633D01*
X70710787Y-101538988D01*
X70669176Y-101438530D01*
X70608766Y-101348120D01*
X70531880Y-101271234D01*
X70441470Y-101210824D01*
X70341012Y-101169213D01*
X70234367Y-101148000D01*
X70125633Y-101148000D01*
X70018988Y-101169213D01*
X69918530Y-101210824D01*
X69828120Y-101271234D01*
X69751234Y-101348120D01*
X69690824Y-101438530D01*
X69680000Y-101464661D01*
X69669176Y-101438530D01*
X69608766Y-101348120D01*
X69531880Y-101271234D01*
X69441470Y-101210824D01*
X69341012Y-101169213D01*
X69234367Y-101148000D01*
X69125633Y-101148000D01*
X69018988Y-101169213D01*
X68918530Y-101210824D01*
X68828120Y-101271234D01*
X68751234Y-101348120D01*
X68705000Y-101417314D01*
X68658766Y-101348120D01*
X68581880Y-101271234D01*
X68491470Y-101210824D01*
X68391012Y-101169213D01*
X68284367Y-101148000D01*
X68175633Y-101148000D01*
X68068988Y-101169213D01*
X67968530Y-101210824D01*
X67878120Y-101271234D01*
X67801234Y-101348120D01*
X67740824Y-101438530D01*
X67705000Y-101525017D01*
X67669176Y-101438530D01*
X67608766Y-101348120D01*
X67531880Y-101271234D01*
X67441470Y-101210824D01*
X67341012Y-101169213D01*
X67234367Y-101148000D01*
X67125633Y-101148000D01*
X67018988Y-101169213D01*
X66918530Y-101210824D01*
X66828120Y-101271234D01*
X66751234Y-101348120D01*
X66690824Y-101438530D01*
X66680000Y-101464661D01*
X66669176Y-101438530D01*
X66608766Y-101348120D01*
X66531880Y-101271234D01*
X66441470Y-101210824D01*
X66341012Y-101169213D01*
X66234367Y-101148000D01*
X66125633Y-101148000D01*
X66018988Y-101169213D01*
X65918530Y-101210824D01*
X65828120Y-101271234D01*
X65751234Y-101348120D01*
X65690824Y-101438530D01*
X65649213Y-101538988D01*
X65628000Y-101645633D01*
X62287000Y-101645633D01*
X62287000Y-101474076D01*
X62241769Y-101246682D01*
X62153044Y-101032481D01*
X62024236Y-100839706D01*
X61860294Y-100675764D01*
X61667519Y-100546956D01*
X61453318Y-100458231D01*
X61225924Y-100413000D01*
X60994076Y-100413000D01*
X60766682Y-100458231D01*
X60552481Y-100546956D01*
X60359706Y-100675764D01*
X60195764Y-100839706D01*
X60066956Y-101032481D01*
X59978231Y-101246682D01*
X59933000Y-101474076D01*
X58922000Y-101474076D01*
X58922000Y-58294076D01*
X59933000Y-58294076D01*
X59933000Y-58525924D01*
X59978231Y-58753318D01*
X60066956Y-58967519D01*
X60195764Y-59160294D01*
X60359706Y-59324236D01*
X60552481Y-59453044D01*
X60766682Y-59541769D01*
X60994076Y-59587000D01*
X61225924Y-59587000D01*
X61453318Y-59541769D01*
X61667519Y-59453044D01*
X61860294Y-59324236D01*
X62024236Y-59160294D01*
X62153044Y-58967519D01*
X62241769Y-58753318D01*
X62287000Y-58525924D01*
X62287000Y-58294076D01*
X62241769Y-58066682D01*
X62153044Y-57852481D01*
X62024236Y-57659706D01*
X61860294Y-57495764D01*
X61667519Y-57366956D01*
X61453318Y-57278231D01*
X61225924Y-57233000D01*
X60994076Y-57233000D01*
X60766682Y-57278231D01*
X60552481Y-57366956D01*
X60359706Y-57495764D01*
X60195764Y-57659706D01*
X60066956Y-57852481D01*
X59978231Y-58066682D01*
X59933000Y-58294076D01*
X58922000Y-58294076D01*
X58922000Y-53214076D01*
X59933000Y-53214076D01*
X59933000Y-53445924D01*
X59978231Y-53673318D01*
X60066956Y-53887519D01*
X60195764Y-54080294D01*
X60359706Y-54244236D01*
X60552481Y-54373044D01*
X60766682Y-54461769D01*
X60994076Y-54507000D01*
X61225924Y-54507000D01*
X61453318Y-54461769D01*
X61633837Y-54386995D01*
X63203001Y-55956159D01*
X63203000Y-57429842D01*
X62166995Y-56393837D01*
X62241769Y-56213318D01*
X62287000Y-55985924D01*
X62287000Y-55754076D01*
X62241769Y-55526682D01*
X62153044Y-55312481D01*
X62024236Y-55119706D01*
X61860294Y-54955764D01*
X61667519Y-54826956D01*
X61453318Y-54738231D01*
X61225924Y-54693000D01*
X60994076Y-54693000D01*
X60766682Y-54738231D01*
X60552481Y-54826956D01*
X60359706Y-54955764D01*
X60195764Y-55119706D01*
X60066956Y-55312481D01*
X59978231Y-55526682D01*
X59933000Y-55754076D01*
X59933000Y-55985924D01*
X59978231Y-56213318D01*
X60066956Y-56427519D01*
X60195764Y-56620294D01*
X60359706Y-56784236D01*
X60552481Y-56913044D01*
X60766682Y-57001769D01*
X60994076Y-57047000D01*
X61225924Y-57047000D01*
X61453318Y-57001769D01*
X61633837Y-56926995D01*
X63677999Y-58971158D01*
X63677999Y-61014841D01*
X63359677Y-60696519D01*
X63347869Y-60682131D01*
X63290463Y-60635019D01*
X63224970Y-60600012D01*
X63153905Y-60578455D01*
X63098519Y-60573000D01*
X63098512Y-60573000D01*
X63080000Y-60571177D01*
X63061488Y-60573000D01*
X62227817Y-60573000D01*
X62153044Y-60392481D01*
X62024236Y-60199706D01*
X61860294Y-60035764D01*
X61667519Y-59906956D01*
X61453318Y-59818231D01*
X61225924Y-59773000D01*
X60994076Y-59773000D01*
X60766682Y-59818231D01*
X60552481Y-59906956D01*
X60359706Y-60035764D01*
X60195764Y-60199706D01*
X60066956Y-60392481D01*
X59978231Y-60606682D01*
X59933000Y-60834076D01*
X59933000Y-61065924D01*
X59978231Y-61293318D01*
X60066956Y-61507519D01*
X60195764Y-61700294D01*
X60359706Y-61864236D01*
X60552481Y-61993044D01*
X60766682Y-62081769D01*
X60994076Y-62127000D01*
X61225924Y-62127000D01*
X61453318Y-62081769D01*
X61667519Y-61993044D01*
X61860294Y-61864236D01*
X62024236Y-61700294D01*
X62153044Y-61507519D01*
X62227817Y-61327000D01*
X62923842Y-61327000D01*
X63453000Y-61856159D01*
X63453000Y-63223441D01*
X63448519Y-63223000D01*
X63448512Y-63223000D01*
X63430000Y-63221177D01*
X63411488Y-63223000D01*
X62256949Y-63223000D01*
X62241769Y-63146682D01*
X62153044Y-62932481D01*
X62024236Y-62739706D01*
X61860294Y-62575764D01*
X61667519Y-62446956D01*
X61453318Y-62358231D01*
X61225924Y-62313000D01*
X60994076Y-62313000D01*
X60766682Y-62358231D01*
X60552481Y-62446956D01*
X60359706Y-62575764D01*
X60195764Y-62739706D01*
X60066956Y-62932481D01*
X59978231Y-63146682D01*
X59933000Y-63374076D01*
X59933000Y-63605924D01*
X59978231Y-63833318D01*
X60066956Y-64047519D01*
X60195764Y-64240294D01*
X60359706Y-64404236D01*
X60552481Y-64533044D01*
X60766682Y-64621769D01*
X60994076Y-64667000D01*
X61225924Y-64667000D01*
X61453318Y-64621769D01*
X61667519Y-64533044D01*
X61860294Y-64404236D01*
X62024236Y-64240294D01*
X62153044Y-64047519D01*
X62182254Y-63977000D01*
X63253000Y-63977000D01*
X63253000Y-65657875D01*
X63203498Y-65653000D01*
X63203491Y-65653000D01*
X63184979Y-65651177D01*
X63166467Y-65653000D01*
X62227817Y-65653000D01*
X62153044Y-65472481D01*
X62024236Y-65279706D01*
X61860294Y-65115764D01*
X61667519Y-64986956D01*
X61453318Y-64898231D01*
X61225924Y-64853000D01*
X60994076Y-64853000D01*
X60766682Y-64898231D01*
X60552481Y-64986956D01*
X60359706Y-65115764D01*
X60195764Y-65279706D01*
X60066956Y-65472481D01*
X59978231Y-65686682D01*
X59933000Y-65914076D01*
X59933000Y-66145924D01*
X59978231Y-66373318D01*
X60066956Y-66587519D01*
X60195764Y-66780294D01*
X60359706Y-66944236D01*
X60552481Y-67073044D01*
X60766682Y-67161769D01*
X60994076Y-67207000D01*
X61225924Y-67207000D01*
X61453318Y-67161769D01*
X61667519Y-67073044D01*
X61860294Y-66944236D01*
X62024236Y-66780294D01*
X62153044Y-66587519D01*
X62227817Y-66407000D01*
X63028821Y-66407000D01*
X63053000Y-66431179D01*
X63053000Y-68193000D01*
X62227817Y-68193000D01*
X62153044Y-68012481D01*
X62024236Y-67819706D01*
X61860294Y-67655764D01*
X61667519Y-67526956D01*
X61453318Y-67438231D01*
X61225924Y-67393000D01*
X60994076Y-67393000D01*
X60766682Y-67438231D01*
X60552481Y-67526956D01*
X60359706Y-67655764D01*
X60195764Y-67819706D01*
X60066956Y-68012481D01*
X59978231Y-68226682D01*
X59933000Y-68454076D01*
X59933000Y-68685924D01*
X59978231Y-68913318D01*
X60066956Y-69127519D01*
X60195764Y-69320294D01*
X60359706Y-69484236D01*
X60552481Y-69613044D01*
X60766682Y-69701769D01*
X60994076Y-69747000D01*
X61225924Y-69747000D01*
X61453318Y-69701769D01*
X61667519Y-69613044D01*
X61860294Y-69484236D01*
X62024236Y-69320294D01*
X62153044Y-69127519D01*
X62227817Y-68947000D01*
X62803000Y-68947000D01*
X62803000Y-70733000D01*
X62227817Y-70733000D01*
X62153044Y-70552481D01*
X62024236Y-70359706D01*
X61860294Y-70195764D01*
X61667519Y-70066956D01*
X61453318Y-69978231D01*
X61225924Y-69933000D01*
X60994076Y-69933000D01*
X60766682Y-69978231D01*
X60552481Y-70066956D01*
X60359706Y-70195764D01*
X60195764Y-70359706D01*
X60066956Y-70552481D01*
X59978231Y-70766682D01*
X59933000Y-70994076D01*
X59933000Y-71225924D01*
X59978231Y-71453318D01*
X60066956Y-71667519D01*
X60195764Y-71860294D01*
X60359706Y-72024236D01*
X60552481Y-72153044D01*
X60766682Y-72241769D01*
X60994076Y-72287000D01*
X61225924Y-72287000D01*
X61453318Y-72241769D01*
X61667519Y-72153044D01*
X61860294Y-72024236D01*
X62024236Y-71860294D01*
X62153044Y-71667519D01*
X62227817Y-71487000D01*
X62603000Y-71487000D01*
X62603000Y-73271369D01*
X62586437Y-73273000D01*
X62227817Y-73273000D01*
X62153044Y-73092481D01*
X62024236Y-72899706D01*
X61860294Y-72735764D01*
X61667519Y-72606956D01*
X61453318Y-72518231D01*
X61225924Y-72473000D01*
X60994076Y-72473000D01*
X60766682Y-72518231D01*
X60552481Y-72606956D01*
X60359706Y-72735764D01*
X60195764Y-72899706D01*
X60066956Y-73092481D01*
X59978231Y-73306682D01*
X59933000Y-73534076D01*
X59933000Y-73765924D01*
X59978231Y-73993318D01*
X60066956Y-74207519D01*
X60195764Y-74400294D01*
X60359706Y-74564236D01*
X60552481Y-74693044D01*
X60766682Y-74781769D01*
X60994076Y-74827000D01*
X61225924Y-74827000D01*
X61453318Y-74781769D01*
X61667519Y-74693044D01*
X61860294Y-74564236D01*
X62024236Y-74400294D01*
X62153044Y-74207519D01*
X62227817Y-74027000D01*
X62403000Y-74027000D01*
X62403000Y-75813000D01*
X62227817Y-75813000D01*
X62153044Y-75632481D01*
X62024236Y-75439706D01*
X61860294Y-75275764D01*
X61667519Y-75146956D01*
X61453318Y-75058231D01*
X61225924Y-75013000D01*
X60994076Y-75013000D01*
X60766682Y-75058231D01*
X60552481Y-75146956D01*
X60359706Y-75275764D01*
X60195764Y-75439706D01*
X60066956Y-75632481D01*
X59978231Y-75846682D01*
X59933000Y-76074076D01*
X59933000Y-76305924D01*
X59978231Y-76533318D01*
X60066956Y-76747519D01*
X60195764Y-76940294D01*
X60359706Y-77104236D01*
X60552481Y-77233044D01*
X60766682Y-77321769D01*
X60994076Y-77367000D01*
X61225924Y-77367000D01*
X61453318Y-77321769D01*
X61667519Y-77233044D01*
X61860294Y-77104236D01*
X62024236Y-76940294D01*
X62153044Y-76747519D01*
X62203000Y-76626915D01*
X62203000Y-78293086D01*
X62153044Y-78172481D01*
X62024236Y-77979706D01*
X61860294Y-77815764D01*
X61667519Y-77686956D01*
X61453318Y-77598231D01*
X61225924Y-77553000D01*
X60994076Y-77553000D01*
X60766682Y-77598231D01*
X60552481Y-77686956D01*
X60359706Y-77815764D01*
X60195764Y-77979706D01*
X60066956Y-78172481D01*
X59978231Y-78386682D01*
X59933000Y-78614076D01*
X59933000Y-78845924D01*
X59978231Y-79073318D01*
X60066956Y-79287519D01*
X60195764Y-79480294D01*
X60359706Y-79644236D01*
X60552481Y-79773044D01*
X60766682Y-79861769D01*
X60994076Y-79907000D01*
X61225924Y-79907000D01*
X61453318Y-79861769D01*
X61667519Y-79773044D01*
X61860294Y-79644236D01*
X62003000Y-79501530D01*
X62003000Y-80498470D01*
X61860294Y-80355764D01*
X61667519Y-80226956D01*
X61453318Y-80138231D01*
X61225924Y-80093000D01*
X60994076Y-80093000D01*
X60766682Y-80138231D01*
X60552481Y-80226956D01*
X60359706Y-80355764D01*
X60195764Y-80519706D01*
X60066956Y-80712481D01*
X59978231Y-80926682D01*
X59933000Y-81154076D01*
X59933000Y-81385924D01*
X59978231Y-81613318D01*
X60066956Y-81827519D01*
X60195764Y-82020294D01*
X60359706Y-82184236D01*
X60552481Y-82313044D01*
X60766682Y-82401769D01*
X60994076Y-82447000D01*
X61225924Y-82447000D01*
X61453318Y-82401769D01*
X61667519Y-82313044D01*
X61860294Y-82184236D01*
X62003000Y-82041530D01*
X62003000Y-83038470D01*
X61860294Y-82895764D01*
X61667519Y-82766956D01*
X61453318Y-82678231D01*
X61225924Y-82633000D01*
X60994076Y-82633000D01*
X60766682Y-82678231D01*
X60552481Y-82766956D01*
X60359706Y-82895764D01*
X60195764Y-83059706D01*
X60066956Y-83252481D01*
X59978231Y-83466682D01*
X59933000Y-83694076D01*
X59933000Y-83925924D01*
X59978231Y-84153318D01*
X60066956Y-84367519D01*
X60195764Y-84560294D01*
X60359706Y-84724236D01*
X60552481Y-84853044D01*
X60766682Y-84941769D01*
X60994076Y-84987000D01*
X61225924Y-84987000D01*
X61453318Y-84941769D01*
X61667519Y-84853044D01*
X61860294Y-84724236D01*
X62003001Y-84581529D01*
X62003001Y-85578471D01*
X61860294Y-85435764D01*
X61667519Y-85306956D01*
X61453318Y-85218231D01*
X61225924Y-85173000D01*
X60994076Y-85173000D01*
X60766682Y-85218231D01*
X60552481Y-85306956D01*
X60359706Y-85435764D01*
X60195764Y-85599706D01*
X60066956Y-85792481D01*
X59978231Y-86006682D01*
X59933000Y-86234076D01*
X59933000Y-86465924D01*
X59978231Y-86693318D01*
X60066956Y-86907519D01*
X60195764Y-87100294D01*
X60359706Y-87264236D01*
X60552481Y-87393044D01*
X60766682Y-87481769D01*
X60994076Y-87527000D01*
X61225924Y-87527000D01*
X61453318Y-87481769D01*
X61667519Y-87393044D01*
X61860294Y-87264236D01*
X62003001Y-87121529D01*
X62003001Y-88118471D01*
X61860294Y-87975764D01*
X61667519Y-87846956D01*
X61453318Y-87758231D01*
X61225924Y-87713000D01*
X60994076Y-87713000D01*
X60766682Y-87758231D01*
X60552481Y-87846956D01*
X60359706Y-87975764D01*
X60195764Y-88139706D01*
X60066956Y-88332481D01*
X59978231Y-88546682D01*
X59933000Y-88774076D01*
X59933000Y-89005924D01*
X59978231Y-89233318D01*
X60066956Y-89447519D01*
X60195764Y-89640294D01*
X60359706Y-89804236D01*
X60552481Y-89933044D01*
X60766682Y-90021769D01*
X60994076Y-90067000D01*
X61113842Y-90067000D01*
X61318195Y-90271354D01*
X61225924Y-90253000D01*
X60994076Y-90253000D01*
X60766682Y-90298231D01*
X60552481Y-90386956D01*
X60359706Y-90515764D01*
X60195764Y-90679706D01*
X60066956Y-90872481D01*
X59978231Y-91086682D01*
X59933000Y-91314076D01*
X59933000Y-91545924D01*
X59978231Y-91773318D01*
X60066956Y-91987519D01*
X60195764Y-92180294D01*
X60359706Y-92344236D01*
X60552481Y-92473044D01*
X60766682Y-92561769D01*
X60994076Y-92607000D01*
X61225924Y-92607000D01*
X61453318Y-92561769D01*
X61667519Y-92473044D01*
X61860294Y-92344236D01*
X62024236Y-92180294D01*
X62153044Y-91987519D01*
X62240244Y-91777000D01*
X62669842Y-91777000D01*
X61856520Y-92590322D01*
X61842132Y-92602130D01*
X61795020Y-92659537D01*
X61772387Y-92701880D01*
X61760013Y-92725030D01*
X61743713Y-92778766D01*
X61738456Y-92796095D01*
X61733001Y-92851481D01*
X61733001Y-92851487D01*
X61731178Y-92869999D01*
X61733001Y-92888511D01*
X61733001Y-92970710D01*
X61667519Y-92926956D01*
X61453318Y-92838231D01*
X61225924Y-92793000D01*
X60994076Y-92793000D01*
X60766682Y-92838231D01*
X60552481Y-92926956D01*
X60359706Y-93055764D01*
X60195764Y-93219706D01*
X60066956Y-93412481D01*
X59978231Y-93626682D01*
X59933000Y-93854076D01*
X59933000Y-94085924D01*
X59978231Y-94313318D01*
X60066956Y-94527519D01*
X60195764Y-94720294D01*
X60359706Y-94884236D01*
X60552481Y-95013044D01*
X60766682Y-95101769D01*
X60994076Y-95147000D01*
X61225924Y-95147000D01*
X61453318Y-95101769D01*
X61667519Y-95013044D01*
X61733001Y-94969290D01*
X61733002Y-95510710D01*
X61667519Y-95466956D01*
X61453318Y-95378231D01*
X61225924Y-95333000D01*
X60994076Y-95333000D01*
X60766682Y-95378231D01*
X60552481Y-95466956D01*
X60359706Y-95595764D01*
X60195764Y-95759706D01*
X60066956Y-95952481D01*
X59978231Y-96166682D01*
X59933000Y-96394076D01*
X59933000Y-96625924D01*
X59978231Y-96853318D01*
X60066956Y-97067519D01*
X60195764Y-97260294D01*
X60359706Y-97424236D01*
X60552481Y-97553044D01*
X60766682Y-97641769D01*
X60994076Y-97687000D01*
X61225924Y-97687000D01*
X61453318Y-97641769D01*
X61667519Y-97553044D01*
X61733002Y-97509290D01*
X61733002Y-97893839D01*
X61633837Y-97993004D01*
X61453318Y-97918231D01*
X61225924Y-97873000D01*
X60994076Y-97873000D01*
X60766682Y-97918231D01*
X60552481Y-98006956D01*
X60359706Y-98135764D01*
X60195764Y-98299706D01*
X60066956Y-98492481D01*
X59978231Y-98706682D01*
X59933000Y-98934076D01*
X59933000Y-99165924D01*
X59978231Y-99393318D01*
X60066956Y-99607519D01*
X60195764Y-99800294D01*
X60359706Y-99964236D01*
X60552481Y-100093044D01*
X60766682Y-100181769D01*
X60994076Y-100227000D01*
X61225924Y-100227000D01*
X61453318Y-100181769D01*
X61667519Y-100093044D01*
X61860294Y-99964236D01*
X62024236Y-99800294D01*
X62153044Y-99607519D01*
X62241769Y-99393318D01*
X62287000Y-99165924D01*
X62287000Y-98934076D01*
X62241769Y-98706682D01*
X62166996Y-98526163D01*
X62297526Y-98395633D01*
X66628000Y-98395633D01*
X66628000Y-98504367D01*
X66649213Y-98611012D01*
X66690824Y-98711470D01*
X66751234Y-98801880D01*
X66828120Y-98878766D01*
X66918530Y-98939176D01*
X67018988Y-98980787D01*
X67125633Y-99002000D01*
X67234367Y-99002000D01*
X67341012Y-98980787D01*
X67441470Y-98939176D01*
X67531880Y-98878766D01*
X67608766Y-98801880D01*
X67669176Y-98711470D01*
X67705000Y-98624983D01*
X67740824Y-98711470D01*
X67801234Y-98801880D01*
X67878120Y-98878766D01*
X67968530Y-98939176D01*
X68068988Y-98980787D01*
X68175633Y-99002000D01*
X68284367Y-99002000D01*
X68391012Y-98980787D01*
X68491470Y-98939176D01*
X68581880Y-98878766D01*
X68658766Y-98801880D01*
X68705000Y-98732686D01*
X68751234Y-98801880D01*
X68828120Y-98878766D01*
X68918530Y-98939176D01*
X69018988Y-98980787D01*
X69125633Y-99002000D01*
X69234367Y-99002000D01*
X69341012Y-98980787D01*
X69441470Y-98939176D01*
X69531880Y-98878766D01*
X69608766Y-98801880D01*
X69669176Y-98711470D01*
X69705000Y-98624983D01*
X69740824Y-98711470D01*
X69801234Y-98801880D01*
X69878120Y-98878766D01*
X69968530Y-98939176D01*
X70068988Y-98980787D01*
X70175633Y-99002000D01*
X70284367Y-99002000D01*
X70391012Y-98980787D01*
X70491470Y-98939176D01*
X70581880Y-98878766D01*
X70658766Y-98801880D01*
X70719176Y-98711470D01*
X70719645Y-98710339D01*
X70740824Y-98761470D01*
X70801234Y-98851880D01*
X70878120Y-98928766D01*
X70968530Y-98989176D01*
X71068988Y-99030787D01*
X71175633Y-99052000D01*
X71284367Y-99052000D01*
X71391012Y-99030787D01*
X71491470Y-98989176D01*
X71581880Y-98928766D01*
X71658766Y-98851880D01*
X71719176Y-98761470D01*
X71760787Y-98661012D01*
X71782000Y-98554367D01*
X71782000Y-98445633D01*
X71760787Y-98338988D01*
X71719176Y-98238530D01*
X71658766Y-98148120D01*
X71581880Y-98071234D01*
X71491470Y-98010824D01*
X71391012Y-97969213D01*
X71284367Y-97948000D01*
X71175633Y-97948000D01*
X71068988Y-97969213D01*
X70968530Y-98010824D01*
X70878120Y-98071234D01*
X70801234Y-98148120D01*
X70740824Y-98238530D01*
X70740355Y-98239661D01*
X70719176Y-98188530D01*
X70658766Y-98098120D01*
X70581880Y-98021234D01*
X70491470Y-97960824D01*
X70391012Y-97919213D01*
X70284367Y-97898000D01*
X70175633Y-97898000D01*
X70068988Y-97919213D01*
X69968530Y-97960824D01*
X69878120Y-98021234D01*
X69801234Y-98098120D01*
X69740824Y-98188530D01*
X69705000Y-98275017D01*
X69669176Y-98188530D01*
X69608766Y-98098120D01*
X69531880Y-98021234D01*
X69441470Y-97960824D01*
X69341012Y-97919213D01*
X69234367Y-97898000D01*
X69125633Y-97898000D01*
X69018988Y-97919213D01*
X68918530Y-97960824D01*
X68828120Y-98021234D01*
X68751234Y-98098120D01*
X68705000Y-98167314D01*
X68658766Y-98098120D01*
X68581880Y-98021234D01*
X68491470Y-97960824D01*
X68391012Y-97919213D01*
X68284367Y-97898000D01*
X68175633Y-97898000D01*
X68068988Y-97919213D01*
X67968530Y-97960824D01*
X67878120Y-98021234D01*
X67801234Y-98098120D01*
X67740824Y-98188530D01*
X67705000Y-98275017D01*
X67669176Y-98188530D01*
X67608766Y-98098120D01*
X67531880Y-98021234D01*
X67441470Y-97960824D01*
X67341012Y-97919213D01*
X67234367Y-97898000D01*
X67125633Y-97898000D01*
X67018988Y-97919213D01*
X66918530Y-97960824D01*
X66828120Y-98021234D01*
X66751234Y-98098120D01*
X66690824Y-98188530D01*
X66649213Y-98288988D01*
X66628000Y-98395633D01*
X62297526Y-98395633D01*
X62363488Y-98329671D01*
X62377870Y-98317868D01*
X62424982Y-98260462D01*
X62459989Y-98194969D01*
X62474200Y-98148120D01*
X62481546Y-98123905D01*
X62486733Y-98071234D01*
X62487001Y-98068518D01*
X62487001Y-98068511D01*
X62488824Y-98049999D01*
X62487001Y-98031487D01*
X62487001Y-93026157D01*
X65177999Y-90335159D01*
X65178000Y-94417883D01*
X65175329Y-94444999D01*
X65185988Y-94553209D01*
X65217551Y-94657261D01*
X65263908Y-94743988D01*
X65268809Y-94753157D01*
X65337789Y-94837210D01*
X65358850Y-94854494D01*
X65761234Y-95256879D01*
X65761234Y-95256880D01*
X65838120Y-95333766D01*
X65860786Y-95348911D01*
X65881842Y-95366191D01*
X65905864Y-95379031D01*
X65928530Y-95394176D01*
X65953715Y-95404608D01*
X65977737Y-95417448D01*
X66003803Y-95425355D01*
X66028988Y-95435787D01*
X66055723Y-95441105D01*
X66081789Y-95449012D01*
X66108898Y-95451682D01*
X66135633Y-95457000D01*
X66162891Y-95457000D01*
X66190000Y-95459670D01*
X66217108Y-95457000D01*
X66244367Y-95457000D01*
X66271103Y-95451682D01*
X66298210Y-95449012D01*
X66324275Y-95441105D01*
X66351012Y-95435787D01*
X66376197Y-95425355D01*
X66402263Y-95417448D01*
X66426285Y-95404608D01*
X66451470Y-95394176D01*
X66474136Y-95379031D01*
X66498158Y-95366191D01*
X66519214Y-95348911D01*
X66541880Y-95333766D01*
X66561155Y-95314491D01*
X66582211Y-95297211D01*
X66599491Y-95276155D01*
X66618766Y-95256880D01*
X66633911Y-95234214D01*
X66651191Y-95213158D01*
X66664031Y-95189136D01*
X66679176Y-95166470D01*
X66689608Y-95141285D01*
X66702448Y-95117263D01*
X66710355Y-95091197D01*
X66720787Y-95066012D01*
X66726105Y-95039275D01*
X66734012Y-95013210D01*
X66736682Y-94986103D01*
X66742000Y-94959367D01*
X66742000Y-94932108D01*
X66744670Y-94905000D01*
X66742000Y-94877891D01*
X66742000Y-94850633D01*
X66736682Y-94823898D01*
X66734012Y-94796789D01*
X66726105Y-94770723D01*
X66720787Y-94743988D01*
X66710355Y-94718803D01*
X66702448Y-94692737D01*
X66689608Y-94668715D01*
X66679176Y-94643530D01*
X66664031Y-94620864D01*
X66651191Y-94596842D01*
X66633911Y-94575786D01*
X66618766Y-94553120D01*
X66541880Y-94476234D01*
X66541879Y-94476234D01*
X66281999Y-94216354D01*
X66281999Y-92902000D01*
X66334367Y-92902000D01*
X66441012Y-92880787D01*
X66541470Y-92839176D01*
X66631880Y-92778766D01*
X66708766Y-92701880D01*
X66769176Y-92611470D01*
X66810787Y-92511012D01*
X66832000Y-92404367D01*
X66832000Y-92295633D01*
X66810787Y-92188988D01*
X66806999Y-92179843D01*
X66806999Y-91652000D01*
X66859367Y-91652000D01*
X66966012Y-91630787D01*
X67066470Y-91589176D01*
X67156880Y-91528766D01*
X67208646Y-91477000D01*
X67211488Y-91477000D01*
X67230000Y-91478823D01*
X67248512Y-91477000D01*
X67248519Y-91477000D01*
X67303905Y-91471545D01*
X67374970Y-91449988D01*
X67440463Y-91414981D01*
X67497869Y-91367869D01*
X67509677Y-91353481D01*
X67977999Y-90885159D01*
X67978000Y-94056477D01*
X67976176Y-94074999D01*
X67983454Y-94148904D01*
X68005011Y-94219968D01*
X68040019Y-94285462D01*
X68075325Y-94328483D01*
X68075328Y-94328486D01*
X68087131Y-94342868D01*
X68101513Y-94354671D01*
X68900328Y-95153487D01*
X68912131Y-95167869D01*
X68969537Y-95214981D01*
X69035030Y-95249988D01*
X69106094Y-95271545D01*
X69180000Y-95278824D01*
X69198519Y-95277000D01*
X70376354Y-95277000D01*
X70428120Y-95328766D01*
X70518530Y-95389176D01*
X70618988Y-95430787D01*
X70725633Y-95452000D01*
X70834367Y-95452000D01*
X70941012Y-95430787D01*
X71041470Y-95389176D01*
X71131880Y-95328766D01*
X71208766Y-95251880D01*
X71269176Y-95161470D01*
X71310787Y-95061012D01*
X71332000Y-94954367D01*
X71332000Y-94845633D01*
X71310787Y-94738988D01*
X71269176Y-94638530D01*
X71208766Y-94548120D01*
X71131880Y-94471234D01*
X71041470Y-94410824D01*
X70941012Y-94369213D01*
X70834367Y-94348000D01*
X70725633Y-94348000D01*
X70618988Y-94369213D01*
X70518530Y-94410824D01*
X70428120Y-94471234D01*
X70376354Y-94523000D01*
X69336159Y-94523000D01*
X68731999Y-93918841D01*
X68731999Y-83694076D01*
X75173000Y-83694076D01*
X75173000Y-83925924D01*
X75218231Y-84153318D01*
X75306956Y-84367519D01*
X75435764Y-84560294D01*
X75599706Y-84724236D01*
X75792481Y-84853044D01*
X76006682Y-84941769D01*
X76234076Y-84987000D01*
X76465924Y-84987000D01*
X76693318Y-84941769D01*
X76907519Y-84853044D01*
X77100294Y-84724236D01*
X77264236Y-84560294D01*
X77393044Y-84367519D01*
X77481769Y-84153318D01*
X77527000Y-83925924D01*
X77527000Y-83694076D01*
X77481769Y-83466682D01*
X77393044Y-83252481D01*
X77264236Y-83059706D01*
X77100294Y-82895764D01*
X76907519Y-82766956D01*
X76693318Y-82678231D01*
X76465924Y-82633000D01*
X76234076Y-82633000D01*
X76006682Y-82678231D01*
X75792481Y-82766956D01*
X75599706Y-82895764D01*
X75435764Y-83059706D01*
X75306956Y-83252481D01*
X75218231Y-83466682D01*
X75173000Y-83694076D01*
X68731999Y-83694076D01*
X68731999Y-82995633D01*
X70828000Y-82995633D01*
X70828000Y-83104367D01*
X70849213Y-83211012D01*
X70890824Y-83311470D01*
X70951234Y-83401880D01*
X71028120Y-83478766D01*
X71118530Y-83539176D01*
X71218988Y-83580787D01*
X71325633Y-83602000D01*
X71434367Y-83602000D01*
X71541012Y-83580787D01*
X71641470Y-83539176D01*
X71731880Y-83478766D01*
X71808766Y-83401880D01*
X71869176Y-83311470D01*
X71910787Y-83211012D01*
X71932000Y-83104367D01*
X71932000Y-82995633D01*
X71910787Y-82888988D01*
X71869176Y-82788530D01*
X71808766Y-82698120D01*
X71731880Y-82621234D01*
X71641470Y-82560824D01*
X71541012Y-82519213D01*
X71434367Y-82498000D01*
X71325633Y-82498000D01*
X71218988Y-82519213D01*
X71118530Y-82560824D01*
X71028120Y-82621234D01*
X70951234Y-82698120D01*
X70890824Y-82788530D01*
X70849213Y-82888988D01*
X70828000Y-82995633D01*
X68731999Y-82995633D01*
X68731999Y-82395633D01*
X71978000Y-82395633D01*
X71978000Y-82504367D01*
X71999213Y-82611012D01*
X72040824Y-82711470D01*
X72101234Y-82801880D01*
X72178120Y-82878766D01*
X72268530Y-82939176D01*
X72368988Y-82980787D01*
X72475633Y-83002000D01*
X72584367Y-83002000D01*
X72691012Y-82980787D01*
X72791470Y-82939176D01*
X72881880Y-82878766D01*
X72958766Y-82801880D01*
X73019176Y-82711470D01*
X73060787Y-82611012D01*
X73082000Y-82504367D01*
X73082000Y-82395633D01*
X73060787Y-82288988D01*
X73019176Y-82188530D01*
X72958766Y-82098120D01*
X72881880Y-82021234D01*
X72791470Y-81960824D01*
X72691012Y-81919213D01*
X72584367Y-81898000D01*
X72475633Y-81898000D01*
X72368988Y-81919213D01*
X72268530Y-81960824D01*
X72178120Y-82021234D01*
X72101234Y-82098120D01*
X72040824Y-82188530D01*
X71999213Y-82288988D01*
X71978000Y-82395633D01*
X68731999Y-82395633D01*
X68731999Y-81154076D01*
X75173000Y-81154076D01*
X75173000Y-81385924D01*
X75218231Y-81613318D01*
X75306956Y-81827519D01*
X75435764Y-82020294D01*
X75599706Y-82184236D01*
X75792481Y-82313044D01*
X76006682Y-82401769D01*
X76234076Y-82447000D01*
X76465924Y-82447000D01*
X76693318Y-82401769D01*
X76907519Y-82313044D01*
X77100294Y-82184236D01*
X77264236Y-82020294D01*
X77393044Y-81827519D01*
X77481769Y-81613318D01*
X77527000Y-81385924D01*
X77527000Y-81154076D01*
X77481769Y-80926682D01*
X77393044Y-80712481D01*
X77264236Y-80519706D01*
X77100294Y-80355764D01*
X76907519Y-80226956D01*
X76693318Y-80138231D01*
X76465924Y-80093000D01*
X76234076Y-80093000D01*
X76006682Y-80138231D01*
X75792481Y-80226956D01*
X75599706Y-80355764D01*
X75435764Y-80519706D01*
X75306956Y-80712481D01*
X75218231Y-80926682D01*
X75173000Y-81154076D01*
X68731999Y-81154076D01*
X68731999Y-76720633D01*
X69428000Y-76720633D01*
X69428000Y-76829367D01*
X69449213Y-76936012D01*
X69490824Y-77036470D01*
X69551234Y-77126880D01*
X69628120Y-77203766D01*
X69718530Y-77264176D01*
X69818988Y-77305787D01*
X69925633Y-77327000D01*
X69998842Y-77327000D01*
X70425328Y-77753487D01*
X70437131Y-77767869D01*
X70494537Y-77814981D01*
X70560030Y-77849988D01*
X70631094Y-77871545D01*
X70705000Y-77878824D01*
X70723519Y-77877000D01*
X71519841Y-77877000D01*
X71001519Y-78395323D01*
X70987131Y-78407131D01*
X70940019Y-78464538D01*
X70905012Y-78530031D01*
X70883455Y-78601096D01*
X70878000Y-78656482D01*
X70878000Y-78656488D01*
X70876177Y-78675000D01*
X70878000Y-78693512D01*
X70878000Y-78971354D01*
X70826234Y-79023120D01*
X70765824Y-79113530D01*
X70724213Y-79213988D01*
X70703000Y-79320633D01*
X70703000Y-79429367D01*
X70724213Y-79536012D01*
X70765824Y-79636470D01*
X70826234Y-79726880D01*
X70903120Y-79803766D01*
X70993530Y-79864176D01*
X71093988Y-79905787D01*
X71200633Y-79927000D01*
X71309367Y-79927000D01*
X71416012Y-79905787D01*
X71516470Y-79864176D01*
X71606880Y-79803766D01*
X71683766Y-79726880D01*
X71744176Y-79636470D01*
X71785787Y-79536012D01*
X71807000Y-79429367D01*
X71807000Y-79320633D01*
X71795136Y-79260988D01*
X71875633Y-79277000D01*
X71984367Y-79277000D01*
X72091012Y-79255787D01*
X72191470Y-79214176D01*
X72281880Y-79153766D01*
X72358766Y-79076880D01*
X72419176Y-78986470D01*
X72460787Y-78886012D01*
X72482000Y-78779367D01*
X72482000Y-78670633D01*
X72470751Y-78614076D01*
X75173000Y-78614076D01*
X75173000Y-78845924D01*
X75218231Y-79073318D01*
X75306956Y-79287519D01*
X75435764Y-79480294D01*
X75599706Y-79644236D01*
X75792481Y-79773044D01*
X76006682Y-79861769D01*
X76234076Y-79907000D01*
X76465924Y-79907000D01*
X76693318Y-79861769D01*
X76907519Y-79773044D01*
X77100294Y-79644236D01*
X77264236Y-79480294D01*
X77393044Y-79287519D01*
X77481769Y-79073318D01*
X77527000Y-78845924D01*
X77527000Y-78614076D01*
X77481769Y-78386682D01*
X77393044Y-78172481D01*
X77264236Y-77979706D01*
X77100294Y-77815764D01*
X76907519Y-77686956D01*
X76693318Y-77598231D01*
X76465924Y-77553000D01*
X76234076Y-77553000D01*
X76006682Y-77598231D01*
X75792481Y-77686956D01*
X75599706Y-77815764D01*
X75435764Y-77979706D01*
X75306956Y-78172481D01*
X75218231Y-78386682D01*
X75173000Y-78614076D01*
X72470751Y-78614076D01*
X72460787Y-78563988D01*
X72419176Y-78463530D01*
X72358766Y-78373120D01*
X72281880Y-78296234D01*
X72212969Y-78250189D01*
X72286159Y-78177000D01*
X74721488Y-78177000D01*
X74740000Y-78178823D01*
X74758512Y-78177000D01*
X74758519Y-78177000D01*
X74813905Y-78171545D01*
X74884970Y-78149988D01*
X74950463Y-78114981D01*
X75007869Y-78067869D01*
X75019677Y-78053481D01*
X75826163Y-77246996D01*
X76006682Y-77321769D01*
X76234076Y-77367000D01*
X76465924Y-77367000D01*
X76693318Y-77321769D01*
X76907519Y-77233044D01*
X77100294Y-77104236D01*
X77264236Y-76940294D01*
X77393044Y-76747519D01*
X77481769Y-76533318D01*
X77527000Y-76305924D01*
X77527000Y-76074076D01*
X77481769Y-75846682D01*
X77393044Y-75632481D01*
X77264236Y-75439706D01*
X77100294Y-75275764D01*
X76907519Y-75146956D01*
X76693318Y-75058231D01*
X76494479Y-75018680D01*
X76603487Y-74909672D01*
X76617869Y-74897869D01*
X76641387Y-74869213D01*
X76652498Y-74855674D01*
X76664981Y-74840463D01*
X76697217Y-74780154D01*
X76907519Y-74693044D01*
X77100294Y-74564236D01*
X77264236Y-74400294D01*
X77393044Y-74207519D01*
X77481769Y-73993318D01*
X77527000Y-73765924D01*
X77527000Y-73534076D01*
X77481769Y-73306682D01*
X77393044Y-73092481D01*
X77264236Y-72899706D01*
X77100294Y-72735764D01*
X76907519Y-72606956D01*
X76693318Y-72518231D01*
X76465924Y-72473000D01*
X76234076Y-72473000D01*
X76006682Y-72518231D01*
X75792481Y-72606956D01*
X75707000Y-72664073D01*
X75707000Y-72286158D01*
X75826163Y-72166995D01*
X76006682Y-72241769D01*
X76234076Y-72287000D01*
X76465924Y-72287000D01*
X76693318Y-72241769D01*
X76907519Y-72153044D01*
X77100294Y-72024236D01*
X77264236Y-71860294D01*
X77393044Y-71667519D01*
X77481769Y-71453318D01*
X77527000Y-71225924D01*
X77527000Y-70994076D01*
X77481769Y-70766682D01*
X77393044Y-70552481D01*
X77264236Y-70359706D01*
X77100294Y-70195764D01*
X76907519Y-70066956D01*
X76693318Y-69978231D01*
X76465924Y-69933000D01*
X76234076Y-69933000D01*
X76006682Y-69978231D01*
X75792481Y-70066956D01*
X75599706Y-70195764D01*
X75507000Y-70288470D01*
X75507000Y-69391530D01*
X75599706Y-69484236D01*
X75792481Y-69613044D01*
X76006682Y-69701769D01*
X76234076Y-69747000D01*
X76465924Y-69747000D01*
X76693318Y-69701769D01*
X76907519Y-69613044D01*
X77100294Y-69484236D01*
X77264236Y-69320294D01*
X77393044Y-69127519D01*
X77481769Y-68913318D01*
X77527000Y-68685924D01*
X77527000Y-68454076D01*
X77481769Y-68226682D01*
X77393044Y-68012481D01*
X77264236Y-67819706D01*
X77100294Y-67655764D01*
X76907519Y-67526956D01*
X76693318Y-67438231D01*
X76465924Y-67393000D01*
X76234076Y-67393000D01*
X76006682Y-67438231D01*
X75792481Y-67526956D01*
X75599706Y-67655764D01*
X75507000Y-67748470D01*
X75507000Y-67406158D01*
X75826163Y-67086995D01*
X76006682Y-67161769D01*
X76234076Y-67207000D01*
X76465924Y-67207000D01*
X76693318Y-67161769D01*
X76907519Y-67073044D01*
X77100294Y-66944236D01*
X77264236Y-66780294D01*
X77393044Y-66587519D01*
X77481769Y-66373318D01*
X77527000Y-66145924D01*
X77527000Y-65914076D01*
X77481769Y-65686682D01*
X77393044Y-65472481D01*
X77264236Y-65279706D01*
X77100294Y-65115764D01*
X76907519Y-64986956D01*
X76693318Y-64898231D01*
X76465924Y-64853000D01*
X76234076Y-64853000D01*
X76006682Y-64898231D01*
X75792481Y-64986956D01*
X75599706Y-65115764D01*
X75435764Y-65279706D01*
X75306956Y-65472481D01*
X75218231Y-65686682D01*
X75173000Y-65914076D01*
X75173000Y-66145924D01*
X75218231Y-66373318D01*
X75293005Y-66553837D01*
X74876519Y-66970323D01*
X74862131Y-66982131D01*
X74815019Y-67039538D01*
X74780012Y-67105031D01*
X74758455Y-67176096D01*
X74753000Y-67231482D01*
X74753000Y-67231488D01*
X74751177Y-67250000D01*
X74753000Y-67268512D01*
X74753001Y-74143840D01*
X73473842Y-75423000D01*
X73400633Y-75423000D01*
X73293988Y-75444213D01*
X73193530Y-75485824D01*
X73103120Y-75546234D01*
X73026234Y-75623120D01*
X72965824Y-75713530D01*
X72924213Y-75813988D01*
X72903000Y-75920633D01*
X72903000Y-76029367D01*
X72924213Y-76136012D01*
X72965824Y-76236470D01*
X73026234Y-76326880D01*
X73103120Y-76403766D01*
X73165694Y-76445577D01*
X73068528Y-76485824D01*
X72978118Y-76546234D01*
X72901232Y-76623120D01*
X72840822Y-76713530D01*
X72799211Y-76813988D01*
X72777998Y-76920633D01*
X72777998Y-77029367D01*
X72796623Y-77123000D01*
X70861159Y-77123000D01*
X70532000Y-76793842D01*
X70532000Y-76720633D01*
X70510787Y-76613988D01*
X70469176Y-76513530D01*
X70408766Y-76423120D01*
X70331880Y-76346234D01*
X70241470Y-76285824D01*
X70141012Y-76244213D01*
X70034367Y-76223000D01*
X69925633Y-76223000D01*
X69818988Y-76244213D01*
X69718530Y-76285824D01*
X69628120Y-76346234D01*
X69551234Y-76423120D01*
X69490824Y-76513530D01*
X69449213Y-76613988D01*
X69428000Y-76720633D01*
X68731999Y-76720633D01*
X68731999Y-75981159D01*
X68761158Y-75952000D01*
X68834367Y-75952000D01*
X68941012Y-75930787D01*
X69041470Y-75889176D01*
X69131880Y-75828766D01*
X69208766Y-75751880D01*
X69269176Y-75661470D01*
X69310787Y-75561012D01*
X69332000Y-75454367D01*
X69332000Y-75395633D01*
X70203000Y-75395633D01*
X70203000Y-75504367D01*
X70224213Y-75611012D01*
X70265824Y-75711470D01*
X70326234Y-75801880D01*
X70403120Y-75878766D01*
X70493530Y-75939176D01*
X70593988Y-75980787D01*
X70700633Y-76002000D01*
X70809367Y-76002000D01*
X70916012Y-75980787D01*
X71016470Y-75939176D01*
X71106880Y-75878766D01*
X71183766Y-75801880D01*
X71244176Y-75711470D01*
X71285787Y-75611012D01*
X71307000Y-75504367D01*
X71307000Y-75395633D01*
X71285787Y-75288988D01*
X71244176Y-75188530D01*
X71186125Y-75101650D01*
X71291012Y-75080787D01*
X71391470Y-75039176D01*
X71481880Y-74978766D01*
X71558766Y-74901880D01*
X71619176Y-74811470D01*
X71660787Y-74711012D01*
X71682000Y-74604367D01*
X71682000Y-74495633D01*
X71660787Y-74388988D01*
X71619176Y-74288530D01*
X71558766Y-74198120D01*
X71481880Y-74121234D01*
X71450101Y-74100000D01*
X71481880Y-74078766D01*
X71558766Y-74001880D01*
X71619176Y-73911470D01*
X71660787Y-73811012D01*
X71682000Y-73704367D01*
X71682000Y-73595633D01*
X71660787Y-73488988D01*
X71619176Y-73388530D01*
X71558766Y-73298120D01*
X71481880Y-73221234D01*
X71391470Y-73160824D01*
X71291012Y-73119213D01*
X71184367Y-73098000D01*
X71075633Y-73098000D01*
X70968988Y-73119213D01*
X70868530Y-73160824D01*
X70778120Y-73221234D01*
X70701234Y-73298120D01*
X70640824Y-73388530D01*
X70599213Y-73488988D01*
X70578000Y-73595633D01*
X70578000Y-73704367D01*
X70599213Y-73811012D01*
X70640824Y-73911470D01*
X70701234Y-74001880D01*
X70778120Y-74078766D01*
X70809899Y-74100000D01*
X70778120Y-74121234D01*
X70701234Y-74198120D01*
X70640824Y-74288530D01*
X70599213Y-74388988D01*
X70578000Y-74495633D01*
X70578000Y-74604367D01*
X70599213Y-74711012D01*
X70640824Y-74811470D01*
X70698875Y-74898350D01*
X70593988Y-74919213D01*
X70493530Y-74960824D01*
X70403120Y-75021234D01*
X70326234Y-75098120D01*
X70265824Y-75188530D01*
X70224213Y-75288988D01*
X70203000Y-75395633D01*
X69332000Y-75395633D01*
X69332000Y-75345633D01*
X69310787Y-75238988D01*
X69269176Y-75138530D01*
X69208766Y-75048120D01*
X69157000Y-74996354D01*
X69157000Y-69739016D01*
X71250383Y-67645633D01*
X73228000Y-67645633D01*
X73228000Y-67754367D01*
X73249213Y-67861012D01*
X73290824Y-67961470D01*
X73351234Y-68051880D01*
X73428120Y-68128766D01*
X73518530Y-68189176D01*
X73618988Y-68230787D01*
X73725633Y-68252000D01*
X73834367Y-68252000D01*
X73941012Y-68230787D01*
X74041470Y-68189176D01*
X74131880Y-68128766D01*
X74208766Y-68051880D01*
X74269176Y-67961470D01*
X74310787Y-67861012D01*
X74332000Y-67754367D01*
X74332000Y-67645633D01*
X74310787Y-67538988D01*
X74306961Y-67529751D01*
X74319176Y-67511470D01*
X74360787Y-67411012D01*
X74382000Y-67304367D01*
X74382000Y-67195633D01*
X74360787Y-67088988D01*
X74319176Y-66988530D01*
X74258766Y-66898120D01*
X74181880Y-66821234D01*
X74091470Y-66760824D01*
X73991012Y-66719213D01*
X73884367Y-66698000D01*
X73775633Y-66698000D01*
X73668988Y-66719213D01*
X73568530Y-66760824D01*
X73478120Y-66821234D01*
X73401234Y-66898120D01*
X73340824Y-66988530D01*
X73299213Y-67088988D01*
X73278000Y-67195633D01*
X73278000Y-67304367D01*
X73299213Y-67411012D01*
X73303039Y-67420249D01*
X73290824Y-67438530D01*
X73249213Y-67538988D01*
X73228000Y-67645633D01*
X71250383Y-67645633D01*
X73469016Y-65427000D01*
X74065058Y-65427000D01*
X74083570Y-65428823D01*
X74102082Y-65427000D01*
X74102089Y-65427000D01*
X74157475Y-65421545D01*
X74228540Y-65399988D01*
X74294033Y-65364981D01*
X74351439Y-65317869D01*
X74363247Y-65303481D01*
X75432027Y-64234702D01*
X75435764Y-64240294D01*
X75599706Y-64404236D01*
X75792481Y-64533044D01*
X76006682Y-64621769D01*
X76234076Y-64667000D01*
X76465924Y-64667000D01*
X76693318Y-64621769D01*
X76907519Y-64533044D01*
X77100294Y-64404236D01*
X77264236Y-64240294D01*
X77393044Y-64047519D01*
X77481769Y-63833318D01*
X77527000Y-63605924D01*
X77527000Y-63374076D01*
X77481769Y-63146682D01*
X77393044Y-62932481D01*
X77264236Y-62739706D01*
X77100294Y-62575764D01*
X76907519Y-62446956D01*
X76693318Y-62358231D01*
X76465924Y-62313000D01*
X76234076Y-62313000D01*
X76006682Y-62358231D01*
X75792481Y-62446956D01*
X75726999Y-62490710D01*
X75726999Y-61949290D01*
X75792481Y-61993044D01*
X76006682Y-62081769D01*
X76234076Y-62127000D01*
X76465924Y-62127000D01*
X76693318Y-62081769D01*
X76907519Y-61993044D01*
X77100294Y-61864236D01*
X77264236Y-61700294D01*
X77393044Y-61507519D01*
X77481769Y-61293318D01*
X77527000Y-61065924D01*
X77527000Y-60834076D01*
X77481769Y-60606682D01*
X77393044Y-60392481D01*
X77264236Y-60199706D01*
X77100294Y-60035764D01*
X76907519Y-59906956D01*
X76693318Y-59818231D01*
X76465924Y-59773000D01*
X76234076Y-59773000D01*
X76006682Y-59818231D01*
X75792481Y-59906956D01*
X75726999Y-59950710D01*
X75726999Y-59566159D01*
X75826163Y-59466995D01*
X76006682Y-59541769D01*
X76234076Y-59587000D01*
X76465924Y-59587000D01*
X76693318Y-59541769D01*
X76907519Y-59453044D01*
X77100294Y-59324236D01*
X77264236Y-59160294D01*
X77393044Y-58967519D01*
X77481769Y-58753318D01*
X77527000Y-58525924D01*
X77527000Y-58294076D01*
X77481769Y-58066682D01*
X77393044Y-57852481D01*
X77264236Y-57659706D01*
X77100294Y-57495764D01*
X76907519Y-57366956D01*
X76693318Y-57278231D01*
X76465924Y-57233000D01*
X76234076Y-57233000D01*
X76006682Y-57278231D01*
X75792481Y-57366956D01*
X75599706Y-57495764D01*
X75507000Y-57588470D01*
X75507000Y-57246158D01*
X75826163Y-56926995D01*
X76006682Y-57001769D01*
X76234076Y-57047000D01*
X76465924Y-57047000D01*
X76693318Y-57001769D01*
X76907519Y-56913044D01*
X77100294Y-56784236D01*
X77264236Y-56620294D01*
X77393044Y-56427519D01*
X77481769Y-56213318D01*
X77527000Y-55985924D01*
X77527000Y-55754076D01*
X77481769Y-55526682D01*
X77393044Y-55312481D01*
X77264236Y-55119706D01*
X77100294Y-54955764D01*
X76907519Y-54826956D01*
X76693318Y-54738231D01*
X76465924Y-54693000D01*
X76234076Y-54693000D01*
X76006682Y-54738231D01*
X75792481Y-54826956D01*
X75599706Y-54955764D01*
X75435764Y-55119706D01*
X75306990Y-55312430D01*
X75306990Y-54906168D01*
X75826163Y-54386995D01*
X76006682Y-54461769D01*
X76234076Y-54507000D01*
X76465924Y-54507000D01*
X76693318Y-54461769D01*
X76907519Y-54373044D01*
X77100294Y-54244236D01*
X77264236Y-54080294D01*
X77393044Y-53887519D01*
X77481769Y-53673318D01*
X77527000Y-53445924D01*
X77527000Y-53214076D01*
X77481769Y-52986682D01*
X77393044Y-52772481D01*
X77264236Y-52579706D01*
X77100294Y-52415764D01*
X76907519Y-52286956D01*
X76693318Y-52198231D01*
X76465924Y-52153000D01*
X76234076Y-52153000D01*
X76006682Y-52198231D01*
X75792481Y-52286956D01*
X75599706Y-52415764D01*
X75435764Y-52579706D01*
X75306956Y-52772481D01*
X75218231Y-52986682D01*
X75173000Y-53214076D01*
X75173000Y-53445924D01*
X75218231Y-53673318D01*
X75293005Y-53853837D01*
X75106980Y-54039862D01*
X75106980Y-52566178D01*
X75826163Y-51846995D01*
X76006682Y-51921769D01*
X76234076Y-51967000D01*
X76465924Y-51967000D01*
X76693318Y-51921769D01*
X76907519Y-51833044D01*
X77100294Y-51704236D01*
X77264236Y-51540294D01*
X77393044Y-51347519D01*
X77481769Y-51133318D01*
X77527000Y-50905924D01*
X77527000Y-50674076D01*
X77481769Y-50446682D01*
X77393044Y-50232481D01*
X77264236Y-50039706D01*
X77100294Y-49875764D01*
X76907519Y-49746956D01*
X76742821Y-49678736D01*
X76981252Y-49594157D01*
X77231355Y-49445178D01*
X77447588Y-49250269D01*
X77621641Y-49016920D01*
X77746825Y-48754099D01*
X77791476Y-48606890D01*
X77670155Y-48377000D01*
X76477000Y-48377000D01*
X76477000Y-48397000D01*
X76223000Y-48397000D01*
X76223000Y-48377000D01*
X75029845Y-48377000D01*
X74908524Y-48606890D01*
X74953175Y-48754099D01*
X75078359Y-49016920D01*
X75252412Y-49250269D01*
X75468645Y-49445178D01*
X75718748Y-49594157D01*
X75957179Y-49678736D01*
X75792481Y-49746956D01*
X75599706Y-49875764D01*
X75435764Y-50039706D01*
X75306956Y-50232481D01*
X75218231Y-50446682D01*
X75173000Y-50674076D01*
X75173000Y-50905924D01*
X75218231Y-51133318D01*
X75293005Y-51313837D01*
X74476499Y-52130343D01*
X74462111Y-52142151D01*
X74450306Y-52156536D01*
X74415000Y-52199557D01*
X74379992Y-52265051D01*
X74360665Y-52328766D01*
X74358435Y-52336116D01*
X74352980Y-52391502D01*
X74352980Y-52391508D01*
X74351157Y-52410020D01*
X74352980Y-52428532D01*
X74352980Y-53020140D01*
X74319176Y-52938530D01*
X74258766Y-52848120D01*
X74181880Y-52771234D01*
X74091470Y-52710824D01*
X73991012Y-52669213D01*
X73884367Y-52648000D01*
X73775633Y-52648000D01*
X73668988Y-52669213D01*
X73568530Y-52710824D01*
X73478120Y-52771234D01*
X73401234Y-52848120D01*
X73340824Y-52938530D01*
X73299213Y-53038988D01*
X73278000Y-53145633D01*
X73278000Y-53254367D01*
X73299213Y-53361012D01*
X73303039Y-53370249D01*
X73290824Y-53388530D01*
X73249213Y-53488988D01*
X73228000Y-53595633D01*
X73228000Y-53704367D01*
X73249213Y-53811012D01*
X73290824Y-53911470D01*
X73351234Y-54001880D01*
X73428120Y-54078766D01*
X73518530Y-54139176D01*
X73618988Y-54180787D01*
X73725633Y-54202000D01*
X73834367Y-54202000D01*
X73941012Y-54180787D01*
X74041470Y-54139176D01*
X74131880Y-54078766D01*
X74208766Y-54001880D01*
X74269176Y-53911470D01*
X74310787Y-53811012D01*
X74332000Y-53704367D01*
X74332000Y-53595633D01*
X74310787Y-53488988D01*
X74306961Y-53479751D01*
X74319176Y-53461470D01*
X74352980Y-53379860D01*
X74352980Y-56770141D01*
X74319176Y-56688530D01*
X74258766Y-56598120D01*
X74181880Y-56521234D01*
X74091470Y-56460824D01*
X73991012Y-56419213D01*
X73884367Y-56398000D01*
X73775633Y-56398000D01*
X73668988Y-56419213D01*
X73568530Y-56460824D01*
X73478120Y-56521234D01*
X73401234Y-56598120D01*
X73340824Y-56688530D01*
X73299213Y-56788988D01*
X73278000Y-56895633D01*
X73278000Y-57004367D01*
X73299213Y-57111012D01*
X73303039Y-57120249D01*
X73290824Y-57138530D01*
X73249213Y-57238988D01*
X73228000Y-57345633D01*
X73228000Y-57454367D01*
X73249213Y-57561012D01*
X73290824Y-57661470D01*
X73351234Y-57751880D01*
X73428120Y-57828766D01*
X73518530Y-57889176D01*
X73618988Y-57930787D01*
X73725633Y-57952000D01*
X73834367Y-57952000D01*
X73941012Y-57930787D01*
X74041470Y-57889176D01*
X74131880Y-57828766D01*
X74208766Y-57751880D01*
X74269176Y-57661470D01*
X74310787Y-57561012D01*
X74332000Y-57454367D01*
X74332000Y-57345633D01*
X74310787Y-57238988D01*
X74306961Y-57229751D01*
X74319176Y-57211470D01*
X74352980Y-57129859D01*
X74352981Y-63320143D01*
X74319176Y-63238530D01*
X74258766Y-63148120D01*
X74181880Y-63071234D01*
X74091470Y-63010824D01*
X73991012Y-62969213D01*
X73884367Y-62948000D01*
X73775633Y-62948000D01*
X73668988Y-62969213D01*
X73568530Y-63010824D01*
X73478120Y-63071234D01*
X73401234Y-63148120D01*
X73340824Y-63238530D01*
X73299213Y-63338988D01*
X73278000Y-63445633D01*
X73278000Y-63554367D01*
X73299213Y-63661012D01*
X73303039Y-63670249D01*
X73290824Y-63688530D01*
X73249213Y-63788988D01*
X73228000Y-63895633D01*
X73228000Y-64004367D01*
X73237177Y-64050501D01*
X73021011Y-64050501D01*
X73002499Y-64048678D01*
X72983987Y-64050501D01*
X72983980Y-64050501D01*
X72935553Y-64055271D01*
X72928593Y-64055956D01*
X72889321Y-64067869D01*
X72857529Y-64077513D01*
X72792036Y-64112520D01*
X72734630Y-64159632D01*
X72722827Y-64174014D01*
X66207000Y-70689842D01*
X66207000Y-65956158D01*
X66586159Y-65577000D01*
X69842448Y-65577000D01*
X69849213Y-65611012D01*
X69890824Y-65711470D01*
X69951234Y-65801880D01*
X70028120Y-65878766D01*
X70118530Y-65939176D01*
X70218988Y-65980787D01*
X70325633Y-66002000D01*
X70434367Y-66002000D01*
X70541012Y-65980787D01*
X70641470Y-65939176D01*
X70731880Y-65878766D01*
X70808766Y-65801880D01*
X70869176Y-65711470D01*
X70910787Y-65611012D01*
X70932000Y-65504367D01*
X70932000Y-65395633D01*
X70910787Y-65288988D01*
X70869176Y-65188530D01*
X70808766Y-65098120D01*
X70757000Y-65046354D01*
X70757000Y-62103646D01*
X70808766Y-62051880D01*
X70869176Y-61961470D01*
X70910787Y-61861012D01*
X70932000Y-61754367D01*
X70932000Y-61645633D01*
X70910787Y-61538988D01*
X70869176Y-61438530D01*
X70808766Y-61348120D01*
X70731880Y-61271234D01*
X70641470Y-61210824D01*
X70541012Y-61169213D01*
X70434367Y-61148000D01*
X70325633Y-61148000D01*
X70218988Y-61169213D01*
X70118530Y-61210824D01*
X70028120Y-61271234D01*
X69951234Y-61348120D01*
X69890824Y-61438530D01*
X69849213Y-61538988D01*
X69828000Y-61645633D01*
X69828000Y-61754367D01*
X69849213Y-61861012D01*
X69890824Y-61961470D01*
X69951234Y-62051880D01*
X70003001Y-62103647D01*
X70003000Y-64823000D01*
X66448508Y-64823000D01*
X66429999Y-64821177D01*
X66411490Y-64823000D01*
X66411481Y-64823000D01*
X66356095Y-64828455D01*
X66285030Y-64850012D01*
X66219537Y-64885019D01*
X66219535Y-64885020D01*
X66219536Y-64885020D01*
X66177872Y-64919213D01*
X66162131Y-64932131D01*
X66150328Y-64946513D01*
X65830000Y-65266841D01*
X64907000Y-64343842D01*
X64907000Y-62452000D01*
X64984367Y-62452000D01*
X65091012Y-62430787D01*
X65191470Y-62389176D01*
X65281880Y-62328766D01*
X65358766Y-62251880D01*
X65419176Y-62161470D01*
X65423099Y-62152000D01*
X65484367Y-62152000D01*
X65591012Y-62130787D01*
X65691470Y-62089176D01*
X65781880Y-62028766D01*
X65858766Y-61951880D01*
X65919176Y-61861470D01*
X65960787Y-61761012D01*
X65982000Y-61654367D01*
X65982000Y-61545633D01*
X65960787Y-61438988D01*
X65919176Y-61338530D01*
X65858766Y-61248120D01*
X65781880Y-61171234D01*
X65691470Y-61110824D01*
X65591012Y-61069213D01*
X65484367Y-61048000D01*
X65375633Y-61048000D01*
X65268988Y-61069213D01*
X65168530Y-61110824D01*
X65078120Y-61171234D01*
X65001234Y-61248120D01*
X64940824Y-61338530D01*
X64936901Y-61348000D01*
X64907000Y-61348000D01*
X64907000Y-58768519D01*
X64908824Y-58750000D01*
X64901545Y-58676094D01*
X64879988Y-58605030D01*
X64853230Y-58554970D01*
X64844981Y-58539537D01*
X64797869Y-58482131D01*
X64783487Y-58470328D01*
X64302335Y-57989176D01*
X63957000Y-57643842D01*
X63957000Y-56945633D01*
X66178000Y-56945633D01*
X66178000Y-57054367D01*
X66199213Y-57161012D01*
X66236073Y-57250000D01*
X66199213Y-57338988D01*
X66178000Y-57445633D01*
X66178000Y-57554367D01*
X66199213Y-57661012D01*
X66240824Y-57761470D01*
X66301234Y-57851880D01*
X66378120Y-57928766D01*
X66468530Y-57989176D01*
X66568988Y-58030787D01*
X66675633Y-58052000D01*
X66784367Y-58052000D01*
X66891012Y-58030787D01*
X66991470Y-57989176D01*
X67081880Y-57928766D01*
X67158766Y-57851880D01*
X67219176Y-57761470D01*
X67260787Y-57661012D01*
X67282000Y-57554367D01*
X67282000Y-57445633D01*
X67260787Y-57338988D01*
X67223927Y-57250000D01*
X67260787Y-57161012D01*
X67282000Y-57054367D01*
X67282000Y-56945633D01*
X67260787Y-56838988D01*
X67219176Y-56738530D01*
X67158766Y-56648120D01*
X67081880Y-56571234D01*
X66991470Y-56510824D01*
X66891012Y-56469213D01*
X66784367Y-56448000D01*
X66675633Y-56448000D01*
X66568988Y-56469213D01*
X66468530Y-56510824D01*
X66378120Y-56571234D01*
X66301234Y-56648120D01*
X66240824Y-56738530D01*
X66199213Y-56838988D01*
X66178000Y-56945633D01*
X63957000Y-56945633D01*
X63957000Y-55818508D01*
X63958823Y-55799999D01*
X63957000Y-55781490D01*
X63957000Y-55781481D01*
X63951545Y-55726095D01*
X63929988Y-55655030D01*
X63894981Y-55589537D01*
X63847869Y-55532131D01*
X63833481Y-55520323D01*
X63458791Y-55145633D01*
X71578000Y-55145633D01*
X71578000Y-55254367D01*
X71599213Y-55361012D01*
X71640824Y-55461470D01*
X71701234Y-55551880D01*
X71778120Y-55628766D01*
X71868530Y-55689176D01*
X71968988Y-55730787D01*
X72075633Y-55752000D01*
X72184367Y-55752000D01*
X72291012Y-55730787D01*
X72391470Y-55689176D01*
X72481880Y-55628766D01*
X72558766Y-55551880D01*
X72619176Y-55461470D01*
X72660787Y-55361012D01*
X72682000Y-55254367D01*
X72682000Y-55145633D01*
X72660787Y-55038988D01*
X72619176Y-54938530D01*
X72558766Y-54848120D01*
X72481880Y-54771234D01*
X72391470Y-54710824D01*
X72291012Y-54669213D01*
X72184367Y-54648000D01*
X72075633Y-54648000D01*
X71968988Y-54669213D01*
X71868530Y-54710824D01*
X71778120Y-54771234D01*
X71701234Y-54848120D01*
X71640824Y-54938530D01*
X71599213Y-55038988D01*
X71578000Y-55145633D01*
X63458791Y-55145633D01*
X62166995Y-53853837D01*
X62241769Y-53673318D01*
X62287000Y-53445924D01*
X62287000Y-53445633D01*
X64428000Y-53445633D01*
X64428000Y-53554367D01*
X64449213Y-53661012D01*
X64490824Y-53761470D01*
X64551234Y-53851880D01*
X64628120Y-53928766D01*
X64718530Y-53989176D01*
X64818988Y-54030787D01*
X64925633Y-54052000D01*
X65034367Y-54052000D01*
X65141012Y-54030787D01*
X65241470Y-53989176D01*
X65331880Y-53928766D01*
X65408766Y-53851880D01*
X65442095Y-53802000D01*
X65534367Y-53802000D01*
X65641012Y-53780787D01*
X65741470Y-53739176D01*
X65831880Y-53678766D01*
X65908766Y-53601880D01*
X65969176Y-53511470D01*
X66010787Y-53411012D01*
X66032000Y-53304367D01*
X66032000Y-53195633D01*
X66010787Y-53088988D01*
X65969176Y-52988530D01*
X65908766Y-52898120D01*
X65831880Y-52821234D01*
X65741470Y-52760824D01*
X65641012Y-52719213D01*
X65534367Y-52698000D01*
X65425633Y-52698000D01*
X65318988Y-52719213D01*
X65218530Y-52760824D01*
X65128120Y-52821234D01*
X65051234Y-52898120D01*
X65017905Y-52948000D01*
X64925633Y-52948000D01*
X64818988Y-52969213D01*
X64718530Y-53010824D01*
X64628120Y-53071234D01*
X64551234Y-53148120D01*
X64490824Y-53238530D01*
X64449213Y-53338988D01*
X64428000Y-53445633D01*
X62287000Y-53445633D01*
X62287000Y-53214076D01*
X62241769Y-52986682D01*
X62153044Y-52772481D01*
X62024236Y-52579706D01*
X61860294Y-52415764D01*
X61667519Y-52286956D01*
X61453318Y-52198231D01*
X61225924Y-52153000D01*
X60994076Y-52153000D01*
X60766682Y-52198231D01*
X60552481Y-52286956D01*
X60359706Y-52415764D01*
X60195764Y-52579706D01*
X60066956Y-52772481D01*
X59978231Y-52986682D01*
X59933000Y-53214076D01*
X58922000Y-53214076D01*
X58922000Y-52145633D01*
X64378000Y-52145633D01*
X64378000Y-52254367D01*
X64399213Y-52361012D01*
X64440824Y-52461470D01*
X64501234Y-52551880D01*
X64578120Y-52628766D01*
X64668530Y-52689176D01*
X64768988Y-52730787D01*
X64875633Y-52752000D01*
X64984367Y-52752000D01*
X65091012Y-52730787D01*
X65191470Y-52689176D01*
X65281880Y-52628766D01*
X65358766Y-52551880D01*
X65419176Y-52461470D01*
X65423099Y-52452000D01*
X65484367Y-52452000D01*
X65591012Y-52430787D01*
X65691470Y-52389176D01*
X65781880Y-52328766D01*
X65858766Y-52251880D01*
X65919176Y-52161470D01*
X65960787Y-52061012D01*
X65982000Y-51954367D01*
X65982000Y-51845633D01*
X65960787Y-51738988D01*
X65919176Y-51638530D01*
X65858766Y-51548120D01*
X65781880Y-51471234D01*
X65743566Y-51445633D01*
X71578000Y-51445633D01*
X71578000Y-51554367D01*
X71599213Y-51661012D01*
X71640824Y-51761470D01*
X71701234Y-51851880D01*
X71778120Y-51928766D01*
X71868530Y-51989176D01*
X71968988Y-52030787D01*
X72075633Y-52052000D01*
X72184367Y-52052000D01*
X72291012Y-52030787D01*
X72391470Y-51989176D01*
X72481880Y-51928766D01*
X72558766Y-51851880D01*
X72619176Y-51761470D01*
X72660787Y-51661012D01*
X72682000Y-51554367D01*
X72682000Y-51445633D01*
X72660787Y-51338988D01*
X72619176Y-51238530D01*
X72558766Y-51148120D01*
X72481880Y-51071234D01*
X72391470Y-51010824D01*
X72291012Y-50969213D01*
X72184367Y-50948000D01*
X72075633Y-50948000D01*
X71968988Y-50969213D01*
X71868530Y-51010824D01*
X71778120Y-51071234D01*
X71701234Y-51148120D01*
X71640824Y-51238530D01*
X71599213Y-51338988D01*
X71578000Y-51445633D01*
X65743566Y-51445633D01*
X65691470Y-51410824D01*
X65591012Y-51369213D01*
X65484367Y-51348000D01*
X65375633Y-51348000D01*
X65268988Y-51369213D01*
X65168530Y-51410824D01*
X65078120Y-51471234D01*
X65001234Y-51548120D01*
X64940824Y-51638530D01*
X64936901Y-51648000D01*
X64875633Y-51648000D01*
X64768988Y-51669213D01*
X64668530Y-51710824D01*
X64578120Y-51771234D01*
X64501234Y-51848120D01*
X64440824Y-51938530D01*
X64399213Y-52038988D01*
X64378000Y-52145633D01*
X58922000Y-52145633D01*
X58922000Y-50674076D01*
X59933000Y-50674076D01*
X59933000Y-50905924D01*
X59978231Y-51133318D01*
X60066956Y-51347519D01*
X60195764Y-51540294D01*
X60359706Y-51704236D01*
X60552481Y-51833044D01*
X60766682Y-51921769D01*
X60994076Y-51967000D01*
X61225924Y-51967000D01*
X61453318Y-51921769D01*
X61667519Y-51833044D01*
X61860294Y-51704236D01*
X62024236Y-51540294D01*
X62153044Y-51347519D01*
X62241769Y-51133318D01*
X62287000Y-50905924D01*
X62287000Y-50674076D01*
X62241769Y-50446682D01*
X62153044Y-50232481D01*
X62024236Y-50039706D01*
X61860294Y-49875764D01*
X61667519Y-49746956D01*
X61453318Y-49658231D01*
X61225924Y-49613000D01*
X60994076Y-49613000D01*
X60766682Y-49658231D01*
X60552481Y-49746956D01*
X60359706Y-49875764D01*
X60195764Y-50039706D01*
X60066956Y-50232481D01*
X59978231Y-50446682D01*
X59933000Y-50674076D01*
X58922000Y-50674076D01*
X58922000Y-48134076D01*
X59933000Y-48134076D01*
X59933000Y-48365924D01*
X59978231Y-48593318D01*
X60066956Y-48807519D01*
X60195764Y-49000294D01*
X60359706Y-49164236D01*
X60552481Y-49293044D01*
X60766682Y-49381769D01*
X60994076Y-49427000D01*
X61225924Y-49427000D01*
X61453318Y-49381769D01*
X61667519Y-49293044D01*
X61860294Y-49164236D01*
X62024236Y-49000294D01*
X62153044Y-48807519D01*
X62241769Y-48593318D01*
X62287000Y-48365924D01*
X62287000Y-48134076D01*
X62241769Y-47906682D01*
X62236148Y-47893110D01*
X74908524Y-47893110D01*
X75029845Y-48123000D01*
X76223000Y-48123000D01*
X76223000Y-48103000D01*
X76477000Y-48103000D01*
X76477000Y-48123000D01*
X77670155Y-48123000D01*
X77791476Y-47893110D01*
X77746825Y-47745901D01*
X77621641Y-47483080D01*
X77447588Y-47249731D01*
X77231355Y-47054822D01*
X76981252Y-46905843D01*
X76932592Y-46888582D01*
X77200000Y-46888582D01*
X77264103Y-46882268D01*
X77325743Y-46863570D01*
X77382550Y-46833206D01*
X77432343Y-46792343D01*
X77473206Y-46742550D01*
X77503570Y-46685743D01*
X77522268Y-46624103D01*
X77528582Y-46560000D01*
X77528582Y-44860000D01*
X77522268Y-44795897D01*
X77503570Y-44734257D01*
X77473206Y-44677450D01*
X77432343Y-44627657D01*
X77382550Y-44586794D01*
X77325743Y-44556430D01*
X77264103Y-44537732D01*
X77200000Y-44531418D01*
X75500000Y-44531418D01*
X75435897Y-44537732D01*
X75374257Y-44556430D01*
X75317450Y-44586794D01*
X75267657Y-44627657D01*
X75226794Y-44677450D01*
X75196430Y-44734257D01*
X75177732Y-44795897D01*
X75171418Y-44860000D01*
X75171418Y-46560000D01*
X75177732Y-46624103D01*
X75196430Y-46685743D01*
X75226794Y-46742550D01*
X75267657Y-46792343D01*
X75317450Y-46833206D01*
X75374257Y-46863570D01*
X75435897Y-46882268D01*
X75500000Y-46888582D01*
X75767408Y-46888582D01*
X75718748Y-46905843D01*
X75468645Y-47054822D01*
X75252412Y-47249731D01*
X75078359Y-47483080D01*
X74953175Y-47745901D01*
X74908524Y-47893110D01*
X62236148Y-47893110D01*
X62153044Y-47692481D01*
X62024236Y-47499706D01*
X61860294Y-47335764D01*
X61667519Y-47206956D01*
X61453318Y-47118231D01*
X61225924Y-47073000D01*
X60994076Y-47073000D01*
X60766682Y-47118231D01*
X60552481Y-47206956D01*
X60359706Y-47335764D01*
X60195764Y-47499706D01*
X60066956Y-47692481D01*
X59978231Y-47906682D01*
X59933000Y-48134076D01*
X58922000Y-48134076D01*
X58922000Y-44860000D01*
X59931418Y-44860000D01*
X59931418Y-46560000D01*
X59937732Y-46624103D01*
X59956430Y-46685743D01*
X59986794Y-46742550D01*
X60027657Y-46792343D01*
X60077450Y-46833206D01*
X60134257Y-46863570D01*
X60195897Y-46882268D01*
X60260000Y-46888582D01*
X61960000Y-46888582D01*
X62024103Y-46882268D01*
X62085743Y-46863570D01*
X62142550Y-46833206D01*
X62192343Y-46792343D01*
X62233206Y-46742550D01*
X62263570Y-46685743D01*
X62282268Y-46624103D01*
X62288582Y-46560000D01*
X62288582Y-44860000D01*
X62282268Y-44795897D01*
X62263570Y-44734257D01*
X62233206Y-44677450D01*
X62192343Y-44627657D01*
X62142550Y-44586794D01*
X62085743Y-44556430D01*
X62024103Y-44537732D01*
X61960000Y-44531418D01*
X60260000Y-44531418D01*
X60195897Y-44537732D01*
X60134257Y-44556430D01*
X60077450Y-44586794D01*
X60027657Y-44627657D01*
X59986794Y-44677450D01*
X59956430Y-44734257D01*
X59937732Y-44795897D01*
X59931418Y-44860000D01*
X58922000Y-44860000D01*
X58922000Y-43522000D01*
X78538000Y-43522000D01*
X78538001Y-111398000D01*
%TA.AperFunction,Conductor*%
D14*
G36*
X78538001Y-111398000D02*
G01*
X58922000Y-111398000D01*
X58922000Y-109566890D01*
X59668524Y-109566890D01*
X59713175Y-109714099D01*
X59838359Y-109976920D01*
X60012412Y-110210269D01*
X60228645Y-110405178D01*
X60478748Y-110554157D01*
X60753109Y-110651481D01*
X60983000Y-110530814D01*
X60983000Y-109337000D01*
X61237000Y-109337000D01*
X61237000Y-110530814D01*
X61466891Y-110651481D01*
X61741252Y-110554157D01*
X61991355Y-110405178D01*
X62207588Y-110210269D01*
X62381641Y-109976920D01*
X62506825Y-109714099D01*
X62551476Y-109566890D01*
X62430155Y-109337000D01*
X61237000Y-109337000D01*
X60983000Y-109337000D01*
X59789845Y-109337000D01*
X59668524Y-109566890D01*
X58922000Y-109566890D01*
X58922000Y-108853110D01*
X59668524Y-108853110D01*
X59789845Y-109083000D01*
X60983000Y-109083000D01*
X60983000Y-109063000D01*
X61237000Y-109063000D01*
X61237000Y-109083000D01*
X62430155Y-109083000D01*
X62551476Y-108853110D01*
X62506825Y-108705901D01*
X62381641Y-108443080D01*
X62207588Y-108209731D01*
X61991355Y-108014822D01*
X61741252Y-107865843D01*
X61502821Y-107781264D01*
X61667519Y-107713044D01*
X61860294Y-107584236D01*
X62024236Y-107420294D01*
X62153044Y-107227519D01*
X62241769Y-107013318D01*
X62287000Y-106785924D01*
X62287000Y-106554076D01*
X62241769Y-106326682D01*
X62153044Y-106112481D01*
X62024236Y-105919706D01*
X61860294Y-105755764D01*
X61667519Y-105626956D01*
X61453318Y-105538231D01*
X61225924Y-105493000D01*
X60994076Y-105493000D01*
X60766682Y-105538231D01*
X60552481Y-105626956D01*
X60359706Y-105755764D01*
X60195764Y-105919706D01*
X60066956Y-106112481D01*
X59978231Y-106326682D01*
X59933000Y-106554076D01*
X59933000Y-106785924D01*
X59978231Y-107013318D01*
X60066956Y-107227519D01*
X60195764Y-107420294D01*
X60359706Y-107584236D01*
X60552481Y-107713044D01*
X60717179Y-107781264D01*
X60478748Y-107865843D01*
X60228645Y-108014822D01*
X60012412Y-108209731D01*
X59838359Y-108443080D01*
X59713175Y-108705901D01*
X59668524Y-108853110D01*
X58922000Y-108853110D01*
X58922000Y-104014076D01*
X59933000Y-104014076D01*
X59933000Y-104245924D01*
X59978231Y-104473318D01*
X60066956Y-104687519D01*
X60195764Y-104880294D01*
X60359706Y-105044236D01*
X60552481Y-105173044D01*
X60766682Y-105261769D01*
X60994076Y-105307000D01*
X61225924Y-105307000D01*
X61453318Y-105261769D01*
X61667519Y-105173044D01*
X61860294Y-105044236D01*
X62024236Y-104880294D01*
X62153044Y-104687519D01*
X62241769Y-104473318D01*
X62287000Y-104245924D01*
X62287000Y-104014076D01*
X62241769Y-103786682D01*
X62153044Y-103572481D01*
X62024236Y-103379706D01*
X61860294Y-103215764D01*
X61667519Y-103086956D01*
X61601556Y-103059633D01*
X73004000Y-103059633D01*
X73004000Y-103168367D01*
X73025213Y-103275012D01*
X73063730Y-103368000D01*
X73025213Y-103460988D01*
X73004000Y-103567633D01*
X73004000Y-103676367D01*
X73025213Y-103783012D01*
X73066824Y-103883470D01*
X73127234Y-103973880D01*
X73204120Y-104050766D01*
X73294530Y-104111176D01*
X73394988Y-104152787D01*
X73501633Y-104174000D01*
X73610367Y-104174000D01*
X73717012Y-104152787D01*
X73810000Y-104114270D01*
X73902988Y-104152787D01*
X74009633Y-104174000D01*
X74118367Y-104174000D01*
X74225012Y-104152787D01*
X74325470Y-104111176D01*
X74403001Y-104059372D01*
X74403001Y-107621478D01*
X74401177Y-107640000D01*
X74408455Y-107713905D01*
X74430012Y-107784969D01*
X74465020Y-107850463D01*
X74500326Y-107893484D01*
X74500329Y-107893487D01*
X74512132Y-107907869D01*
X74526514Y-107919672D01*
X75293005Y-108686163D01*
X75218231Y-108866682D01*
X75173000Y-109094076D01*
X75173000Y-109325924D01*
X75218231Y-109553318D01*
X75306956Y-109767519D01*
X75435764Y-109960294D01*
X75599706Y-110124236D01*
X75792481Y-110253044D01*
X76006682Y-110341769D01*
X76234076Y-110387000D01*
X76465924Y-110387000D01*
X76693318Y-110341769D01*
X76907519Y-110253044D01*
X77100294Y-110124236D01*
X77264236Y-109960294D01*
X77393044Y-109767519D01*
X77481769Y-109553318D01*
X77527000Y-109325924D01*
X77527000Y-109094076D01*
X77481769Y-108866682D01*
X77393044Y-108652481D01*
X77264236Y-108459706D01*
X77100294Y-108295764D01*
X76907519Y-108166956D01*
X76693318Y-108078231D01*
X76465924Y-108033000D01*
X76234076Y-108033000D01*
X76006682Y-108078231D01*
X75826163Y-108153005D01*
X75157000Y-107483842D01*
X75157000Y-106554076D01*
X75173000Y-106554076D01*
X75173000Y-106785924D01*
X75218231Y-107013318D01*
X75306956Y-107227519D01*
X75435764Y-107420294D01*
X75599706Y-107584236D01*
X75792481Y-107713044D01*
X76006682Y-107801769D01*
X76234076Y-107847000D01*
X76465924Y-107847000D01*
X76693318Y-107801769D01*
X76907519Y-107713044D01*
X77100294Y-107584236D01*
X77264236Y-107420294D01*
X77393044Y-107227519D01*
X77481769Y-107013318D01*
X77527000Y-106785924D01*
X77527000Y-106554076D01*
X77481769Y-106326682D01*
X77393044Y-106112481D01*
X77264236Y-105919706D01*
X77100294Y-105755764D01*
X76907519Y-105626956D01*
X76693318Y-105538231D01*
X76465924Y-105493000D01*
X76234076Y-105493000D01*
X76006682Y-105538231D01*
X75792481Y-105626956D01*
X75599706Y-105755764D01*
X75435764Y-105919706D01*
X75306956Y-106112481D01*
X75218231Y-106326682D01*
X75173000Y-106554076D01*
X75157000Y-106554076D01*
X75157000Y-104014076D01*
X75173000Y-104014076D01*
X75173000Y-104245924D01*
X75218231Y-104473318D01*
X75306956Y-104687519D01*
X75435764Y-104880294D01*
X75599706Y-105044236D01*
X75792481Y-105173044D01*
X76006682Y-105261769D01*
X76234076Y-105307000D01*
X76465924Y-105307000D01*
X76693318Y-105261769D01*
X76907519Y-105173044D01*
X77100294Y-105044236D01*
X77264236Y-104880294D01*
X77393044Y-104687519D01*
X77481769Y-104473318D01*
X77527000Y-104245924D01*
X77527000Y-104014076D01*
X77481769Y-103786682D01*
X77393044Y-103572481D01*
X77264236Y-103379706D01*
X77100294Y-103215764D01*
X76907519Y-103086956D01*
X76693318Y-102998231D01*
X76465924Y-102953000D01*
X76234076Y-102953000D01*
X76006682Y-102998231D01*
X75792481Y-103086956D01*
X75599706Y-103215764D01*
X75435764Y-103379706D01*
X75306956Y-103572481D01*
X75218231Y-103786682D01*
X75173000Y-104014076D01*
X75157000Y-104014076D01*
X75157000Y-101474076D01*
X75173000Y-101474076D01*
X75173000Y-101705924D01*
X75218231Y-101933318D01*
X75306956Y-102147519D01*
X75435764Y-102340294D01*
X75599706Y-102504236D01*
X75792481Y-102633044D01*
X76006682Y-102721769D01*
X76234076Y-102767000D01*
X76465924Y-102767000D01*
X76693318Y-102721769D01*
X76907519Y-102633044D01*
X77100294Y-102504236D01*
X77264236Y-102340294D01*
X77393044Y-102147519D01*
X77481769Y-101933318D01*
X77527000Y-101705924D01*
X77527000Y-101474076D01*
X77481769Y-101246682D01*
X77393044Y-101032481D01*
X77264236Y-100839706D01*
X77100294Y-100675764D01*
X76907519Y-100546956D01*
X76693318Y-100458231D01*
X76465924Y-100413000D01*
X76234076Y-100413000D01*
X76006682Y-100458231D01*
X75792481Y-100546956D01*
X75599706Y-100675764D01*
X75435764Y-100839706D01*
X75306956Y-101032481D01*
X75218231Y-101246682D01*
X75173000Y-101474076D01*
X75157000Y-101474076D01*
X75157000Y-98934076D01*
X75173000Y-98934076D01*
X75173000Y-99165924D01*
X75218231Y-99393318D01*
X75306956Y-99607519D01*
X75435764Y-99800294D01*
X75599706Y-99964236D01*
X75792481Y-100093044D01*
X76006682Y-100181769D01*
X76234076Y-100227000D01*
X76465924Y-100227000D01*
X76693318Y-100181769D01*
X76907519Y-100093044D01*
X77100294Y-99964236D01*
X77264236Y-99800294D01*
X77393044Y-99607519D01*
X77481769Y-99393318D01*
X77527000Y-99165924D01*
X77527000Y-98934076D01*
X77481769Y-98706682D01*
X77393044Y-98492481D01*
X77264236Y-98299706D01*
X77100294Y-98135764D01*
X76907519Y-98006956D01*
X76693318Y-97918231D01*
X76465924Y-97873000D01*
X76234076Y-97873000D01*
X76006682Y-97918231D01*
X75792481Y-98006956D01*
X75599706Y-98135764D01*
X75435764Y-98299706D01*
X75306956Y-98492481D01*
X75218231Y-98706682D01*
X75173000Y-98934076D01*
X75157000Y-98934076D01*
X75157000Y-95850158D01*
X75293005Y-95986163D01*
X75218231Y-96166682D01*
X75173000Y-96394076D01*
X75173000Y-96625924D01*
X75218231Y-96853318D01*
X75306956Y-97067519D01*
X75435764Y-97260294D01*
X75599706Y-97424236D01*
X75792481Y-97553044D01*
X76006682Y-97641769D01*
X76234076Y-97687000D01*
X76465924Y-97687000D01*
X76693318Y-97641769D01*
X76907519Y-97553044D01*
X77100294Y-97424236D01*
X77264236Y-97260294D01*
X77393044Y-97067519D01*
X77481769Y-96853318D01*
X77527000Y-96625924D01*
X77527000Y-96394076D01*
X77481769Y-96166682D01*
X77393044Y-95952481D01*
X77264236Y-95759706D01*
X77100294Y-95595764D01*
X76907519Y-95466956D01*
X76693318Y-95378231D01*
X76465924Y-95333000D01*
X76234076Y-95333000D01*
X76006682Y-95378231D01*
X75826163Y-95453005D01*
X75357010Y-94983852D01*
X75357010Y-94602430D01*
X75435764Y-94720294D01*
X75599706Y-94884236D01*
X75792481Y-95013044D01*
X76006682Y-95101769D01*
X76234076Y-95147000D01*
X76465924Y-95147000D01*
X76693318Y-95101769D01*
X76907519Y-95013044D01*
X77100294Y-94884236D01*
X77264236Y-94720294D01*
X77393044Y-94527519D01*
X77481769Y-94313318D01*
X77527000Y-94085924D01*
X77527000Y-93854076D01*
X77481769Y-93626682D01*
X77393044Y-93412481D01*
X77264236Y-93219706D01*
X77100294Y-93055764D01*
X76907519Y-92926956D01*
X76693318Y-92838231D01*
X76465924Y-92793000D01*
X76234076Y-92793000D01*
X76006682Y-92838231D01*
X75792481Y-92926956D01*
X75599706Y-93055764D01*
X75435764Y-93219706D01*
X75357010Y-93337570D01*
X75357010Y-92062430D01*
X75435764Y-92180294D01*
X75599706Y-92344236D01*
X75792481Y-92473044D01*
X76006682Y-92561769D01*
X76234076Y-92607000D01*
X76465924Y-92607000D01*
X76693318Y-92561769D01*
X76907519Y-92473044D01*
X77100294Y-92344236D01*
X77264236Y-92180294D01*
X77393044Y-91987519D01*
X77481769Y-91773318D01*
X77527000Y-91545924D01*
X77527000Y-91314076D01*
X77481769Y-91086682D01*
X77393044Y-90872481D01*
X77264236Y-90679706D01*
X77100294Y-90515764D01*
X76907519Y-90386956D01*
X76693318Y-90298231D01*
X76465924Y-90253000D01*
X76234076Y-90253000D01*
X76006682Y-90298231D01*
X75792481Y-90386956D01*
X75599706Y-90515764D01*
X75435764Y-90679706D01*
X75357010Y-90797570D01*
X75357010Y-89522430D01*
X75435764Y-89640294D01*
X75599706Y-89804236D01*
X75792481Y-89933044D01*
X76006682Y-90021769D01*
X76234076Y-90067000D01*
X76465924Y-90067000D01*
X76693318Y-90021769D01*
X76907519Y-89933044D01*
X77100294Y-89804236D01*
X77264236Y-89640294D01*
X77393044Y-89447519D01*
X77481769Y-89233318D01*
X77527000Y-89005924D01*
X77527000Y-88774076D01*
X77481769Y-88546682D01*
X77393044Y-88332481D01*
X77264236Y-88139706D01*
X77100294Y-87975764D01*
X76907519Y-87846956D01*
X76693318Y-87758231D01*
X76465924Y-87713000D01*
X76234076Y-87713000D01*
X76006682Y-87758231D01*
X75792481Y-87846956D01*
X75599706Y-87975764D01*
X75435764Y-88139706D01*
X75357010Y-88257570D01*
X75357010Y-87543529D01*
X75358834Y-87525010D01*
X75351555Y-87451104D01*
X75329998Y-87380040D01*
X75297114Y-87318519D01*
X75294991Y-87314547D01*
X75247879Y-87257141D01*
X75233498Y-87245339D01*
X74222235Y-86234076D01*
X75173000Y-86234076D01*
X75173000Y-86465924D01*
X75218231Y-86693318D01*
X75306956Y-86907519D01*
X75435764Y-87100294D01*
X75599706Y-87264236D01*
X75792481Y-87393044D01*
X76006682Y-87481769D01*
X76234076Y-87527000D01*
X76465924Y-87527000D01*
X76693318Y-87481769D01*
X76907519Y-87393044D01*
X77100294Y-87264236D01*
X77264236Y-87100294D01*
X77393044Y-86907519D01*
X77481769Y-86693318D01*
X77527000Y-86465924D01*
X77527000Y-86234076D01*
X77481769Y-86006682D01*
X77393044Y-85792481D01*
X77264236Y-85599706D01*
X77100294Y-85435764D01*
X76907519Y-85306956D01*
X76693318Y-85218231D01*
X76465924Y-85173000D01*
X76234076Y-85173000D01*
X76006682Y-85218231D01*
X75792481Y-85306956D01*
X75599706Y-85435764D01*
X75435764Y-85599706D01*
X75306956Y-85792481D01*
X75218231Y-86006682D01*
X75173000Y-86234076D01*
X74222235Y-86234076D01*
X74157000Y-86168842D01*
X74157000Y-86095633D01*
X74135787Y-85988988D01*
X74094176Y-85888530D01*
X74033766Y-85798120D01*
X73956880Y-85721234D01*
X73866470Y-85660824D01*
X73766012Y-85619213D01*
X73659367Y-85598000D01*
X73550633Y-85598000D01*
X73443988Y-85619213D01*
X73343530Y-85660824D01*
X73253120Y-85721234D01*
X73176234Y-85798120D01*
X73115824Y-85888530D01*
X73074213Y-85988988D01*
X73053000Y-86095633D01*
X73053000Y-86204367D01*
X73074213Y-86311012D01*
X73115824Y-86411470D01*
X73176234Y-86501880D01*
X73186854Y-86512500D01*
X73176234Y-86523120D01*
X73115824Y-86613530D01*
X73074213Y-86713988D01*
X73053000Y-86820633D01*
X73053000Y-86929367D01*
X73074213Y-87036012D01*
X73115824Y-87136470D01*
X73176234Y-87226880D01*
X73253120Y-87303766D01*
X73343530Y-87364176D01*
X73443988Y-87405787D01*
X73550633Y-87427000D01*
X73623842Y-87427000D01*
X74403000Y-88206159D01*
X74403001Y-102676628D01*
X74325470Y-102624824D01*
X74225012Y-102583213D01*
X74118367Y-102562000D01*
X74009633Y-102562000D01*
X73902988Y-102583213D01*
X73810000Y-102621730D01*
X73717012Y-102583213D01*
X73610367Y-102562000D01*
X73501633Y-102562000D01*
X73394988Y-102583213D01*
X73294530Y-102624824D01*
X73204120Y-102685234D01*
X73127234Y-102762120D01*
X73066824Y-102852530D01*
X73025213Y-102952988D01*
X73004000Y-103059633D01*
X61601556Y-103059633D01*
X61453318Y-102998231D01*
X61225924Y-102953000D01*
X60994076Y-102953000D01*
X60766682Y-102998231D01*
X60552481Y-103086956D01*
X60359706Y-103215764D01*
X60195764Y-103379706D01*
X60066956Y-103572481D01*
X59978231Y-103786682D01*
X59933000Y-104014076D01*
X58922000Y-104014076D01*
X58922000Y-101474076D01*
X59933000Y-101474076D01*
X59933000Y-101705924D01*
X59978231Y-101933318D01*
X60066956Y-102147519D01*
X60195764Y-102340294D01*
X60359706Y-102504236D01*
X60552481Y-102633044D01*
X60766682Y-102721769D01*
X60994076Y-102767000D01*
X61225924Y-102767000D01*
X61453318Y-102721769D01*
X61667519Y-102633044D01*
X61860294Y-102504236D01*
X62024236Y-102340294D01*
X62153044Y-102147519D01*
X62241769Y-101933318D01*
X62287000Y-101705924D01*
X62287000Y-101645633D01*
X65628000Y-101645633D01*
X65628000Y-101754367D01*
X65649213Y-101861012D01*
X65690824Y-101961470D01*
X65751234Y-102051880D01*
X65828120Y-102128766D01*
X65918530Y-102189176D01*
X66018988Y-102230787D01*
X66125633Y-102252000D01*
X66234367Y-102252000D01*
X66341012Y-102230787D01*
X66441470Y-102189176D01*
X66531880Y-102128766D01*
X66608766Y-102051880D01*
X66669176Y-101961470D01*
X66680000Y-101935339D01*
X66690824Y-101961470D01*
X66751234Y-102051880D01*
X66828120Y-102128766D01*
X66918530Y-102189176D01*
X67018988Y-102230787D01*
X67125633Y-102252000D01*
X67234367Y-102252000D01*
X67341012Y-102230787D01*
X67441470Y-102189176D01*
X67531880Y-102128766D01*
X67608766Y-102051880D01*
X67669176Y-101961470D01*
X67705000Y-101874983D01*
X67740824Y-101961470D01*
X67801234Y-102051880D01*
X67878120Y-102128766D01*
X67968530Y-102189176D01*
X68068988Y-102230787D01*
X68175633Y-102252000D01*
X68284367Y-102252000D01*
X68391012Y-102230787D01*
X68491470Y-102189176D01*
X68581880Y-102128766D01*
X68658766Y-102051880D01*
X68705000Y-101982686D01*
X68751234Y-102051880D01*
X68828120Y-102128766D01*
X68918530Y-102189176D01*
X69018988Y-102230787D01*
X69125633Y-102252000D01*
X69234367Y-102252000D01*
X69341012Y-102230787D01*
X69441470Y-102189176D01*
X69531880Y-102128766D01*
X69608766Y-102051880D01*
X69669176Y-101961470D01*
X69680000Y-101935339D01*
X69690824Y-101961470D01*
X69751234Y-102051880D01*
X69828120Y-102128766D01*
X69918530Y-102189176D01*
X70018988Y-102230787D01*
X70125633Y-102252000D01*
X70234367Y-102252000D01*
X70341012Y-102230787D01*
X70441470Y-102189176D01*
X70531880Y-102128766D01*
X70608766Y-102051880D01*
X70669176Y-101961470D01*
X70710787Y-101861012D01*
X70732000Y-101754367D01*
X70732000Y-101645633D01*
X70710787Y-101538988D01*
X70669176Y-101438530D01*
X70608766Y-101348120D01*
X70531880Y-101271234D01*
X70441470Y-101210824D01*
X70341012Y-101169213D01*
X70234367Y-101148000D01*
X70125633Y-101148000D01*
X70018988Y-101169213D01*
X69918530Y-101210824D01*
X69828120Y-101271234D01*
X69751234Y-101348120D01*
X69690824Y-101438530D01*
X69680000Y-101464661D01*
X69669176Y-101438530D01*
X69608766Y-101348120D01*
X69531880Y-101271234D01*
X69441470Y-101210824D01*
X69341012Y-101169213D01*
X69234367Y-101148000D01*
X69125633Y-101148000D01*
X69018988Y-101169213D01*
X68918530Y-101210824D01*
X68828120Y-101271234D01*
X68751234Y-101348120D01*
X68705000Y-101417314D01*
X68658766Y-101348120D01*
X68581880Y-101271234D01*
X68491470Y-101210824D01*
X68391012Y-101169213D01*
X68284367Y-101148000D01*
X68175633Y-101148000D01*
X68068988Y-101169213D01*
X67968530Y-101210824D01*
X67878120Y-101271234D01*
X67801234Y-101348120D01*
X67740824Y-101438530D01*
X67705000Y-101525017D01*
X67669176Y-101438530D01*
X67608766Y-101348120D01*
X67531880Y-101271234D01*
X67441470Y-101210824D01*
X67341012Y-101169213D01*
X67234367Y-101148000D01*
X67125633Y-101148000D01*
X67018988Y-101169213D01*
X66918530Y-101210824D01*
X66828120Y-101271234D01*
X66751234Y-101348120D01*
X66690824Y-101438530D01*
X66680000Y-101464661D01*
X66669176Y-101438530D01*
X66608766Y-101348120D01*
X66531880Y-101271234D01*
X66441470Y-101210824D01*
X66341012Y-101169213D01*
X66234367Y-101148000D01*
X66125633Y-101148000D01*
X66018988Y-101169213D01*
X65918530Y-101210824D01*
X65828120Y-101271234D01*
X65751234Y-101348120D01*
X65690824Y-101438530D01*
X65649213Y-101538988D01*
X65628000Y-101645633D01*
X62287000Y-101645633D01*
X62287000Y-101474076D01*
X62241769Y-101246682D01*
X62153044Y-101032481D01*
X62024236Y-100839706D01*
X61860294Y-100675764D01*
X61667519Y-100546956D01*
X61453318Y-100458231D01*
X61225924Y-100413000D01*
X60994076Y-100413000D01*
X60766682Y-100458231D01*
X60552481Y-100546956D01*
X60359706Y-100675764D01*
X60195764Y-100839706D01*
X60066956Y-101032481D01*
X59978231Y-101246682D01*
X59933000Y-101474076D01*
X58922000Y-101474076D01*
X58922000Y-58294076D01*
X59933000Y-58294076D01*
X59933000Y-58525924D01*
X59978231Y-58753318D01*
X60066956Y-58967519D01*
X60195764Y-59160294D01*
X60359706Y-59324236D01*
X60552481Y-59453044D01*
X60766682Y-59541769D01*
X60994076Y-59587000D01*
X61225924Y-59587000D01*
X61453318Y-59541769D01*
X61667519Y-59453044D01*
X61860294Y-59324236D01*
X62024236Y-59160294D01*
X62153044Y-58967519D01*
X62241769Y-58753318D01*
X62287000Y-58525924D01*
X62287000Y-58294076D01*
X62241769Y-58066682D01*
X62153044Y-57852481D01*
X62024236Y-57659706D01*
X61860294Y-57495764D01*
X61667519Y-57366956D01*
X61453318Y-57278231D01*
X61225924Y-57233000D01*
X60994076Y-57233000D01*
X60766682Y-57278231D01*
X60552481Y-57366956D01*
X60359706Y-57495764D01*
X60195764Y-57659706D01*
X60066956Y-57852481D01*
X59978231Y-58066682D01*
X59933000Y-58294076D01*
X58922000Y-58294076D01*
X58922000Y-53214076D01*
X59933000Y-53214076D01*
X59933000Y-53445924D01*
X59978231Y-53673318D01*
X60066956Y-53887519D01*
X60195764Y-54080294D01*
X60359706Y-54244236D01*
X60552481Y-54373044D01*
X60766682Y-54461769D01*
X60994076Y-54507000D01*
X61225924Y-54507000D01*
X61453318Y-54461769D01*
X61633837Y-54386995D01*
X63203001Y-55956159D01*
X63203000Y-57429842D01*
X62166995Y-56393837D01*
X62241769Y-56213318D01*
X62287000Y-55985924D01*
X62287000Y-55754076D01*
X62241769Y-55526682D01*
X62153044Y-55312481D01*
X62024236Y-55119706D01*
X61860294Y-54955764D01*
X61667519Y-54826956D01*
X61453318Y-54738231D01*
X61225924Y-54693000D01*
X60994076Y-54693000D01*
X60766682Y-54738231D01*
X60552481Y-54826956D01*
X60359706Y-54955764D01*
X60195764Y-55119706D01*
X60066956Y-55312481D01*
X59978231Y-55526682D01*
X59933000Y-55754076D01*
X59933000Y-55985924D01*
X59978231Y-56213318D01*
X60066956Y-56427519D01*
X60195764Y-56620294D01*
X60359706Y-56784236D01*
X60552481Y-56913044D01*
X60766682Y-57001769D01*
X60994076Y-57047000D01*
X61225924Y-57047000D01*
X61453318Y-57001769D01*
X61633837Y-56926995D01*
X63677999Y-58971158D01*
X63677999Y-61014841D01*
X63359677Y-60696519D01*
X63347869Y-60682131D01*
X63290463Y-60635019D01*
X63224970Y-60600012D01*
X63153905Y-60578455D01*
X63098519Y-60573000D01*
X63098512Y-60573000D01*
X63080000Y-60571177D01*
X63061488Y-60573000D01*
X62227817Y-60573000D01*
X62153044Y-60392481D01*
X62024236Y-60199706D01*
X61860294Y-60035764D01*
X61667519Y-59906956D01*
X61453318Y-59818231D01*
X61225924Y-59773000D01*
X60994076Y-59773000D01*
X60766682Y-59818231D01*
X60552481Y-59906956D01*
X60359706Y-60035764D01*
X60195764Y-60199706D01*
X60066956Y-60392481D01*
X59978231Y-60606682D01*
X59933000Y-60834076D01*
X59933000Y-61065924D01*
X59978231Y-61293318D01*
X60066956Y-61507519D01*
X60195764Y-61700294D01*
X60359706Y-61864236D01*
X60552481Y-61993044D01*
X60766682Y-62081769D01*
X60994076Y-62127000D01*
X61225924Y-62127000D01*
X61453318Y-62081769D01*
X61667519Y-61993044D01*
X61860294Y-61864236D01*
X62024236Y-61700294D01*
X62153044Y-61507519D01*
X62227817Y-61327000D01*
X62923842Y-61327000D01*
X63453000Y-61856159D01*
X63453000Y-63223441D01*
X63448519Y-63223000D01*
X63448512Y-63223000D01*
X63430000Y-63221177D01*
X63411488Y-63223000D01*
X62256949Y-63223000D01*
X62241769Y-63146682D01*
X62153044Y-62932481D01*
X62024236Y-62739706D01*
X61860294Y-62575764D01*
X61667519Y-62446956D01*
X61453318Y-62358231D01*
X61225924Y-62313000D01*
X60994076Y-62313000D01*
X60766682Y-62358231D01*
X60552481Y-62446956D01*
X60359706Y-62575764D01*
X60195764Y-62739706D01*
X60066956Y-62932481D01*
X59978231Y-63146682D01*
X59933000Y-63374076D01*
X59933000Y-63605924D01*
X59978231Y-63833318D01*
X60066956Y-64047519D01*
X60195764Y-64240294D01*
X60359706Y-64404236D01*
X60552481Y-64533044D01*
X60766682Y-64621769D01*
X60994076Y-64667000D01*
X61225924Y-64667000D01*
X61453318Y-64621769D01*
X61667519Y-64533044D01*
X61860294Y-64404236D01*
X62024236Y-64240294D01*
X62153044Y-64047519D01*
X62182254Y-63977000D01*
X63253000Y-63977000D01*
X63253000Y-65657875D01*
X63203498Y-65653000D01*
X63203491Y-65653000D01*
X63184979Y-65651177D01*
X63166467Y-65653000D01*
X62227817Y-65653000D01*
X62153044Y-65472481D01*
X62024236Y-65279706D01*
X61860294Y-65115764D01*
X61667519Y-64986956D01*
X61453318Y-64898231D01*
X61225924Y-64853000D01*
X60994076Y-64853000D01*
X60766682Y-64898231D01*
X60552481Y-64986956D01*
X60359706Y-65115764D01*
X60195764Y-65279706D01*
X60066956Y-65472481D01*
X59978231Y-65686682D01*
X59933000Y-65914076D01*
X59933000Y-66145924D01*
X59978231Y-66373318D01*
X60066956Y-66587519D01*
X60195764Y-66780294D01*
X60359706Y-66944236D01*
X60552481Y-67073044D01*
X60766682Y-67161769D01*
X60994076Y-67207000D01*
X61225924Y-67207000D01*
X61453318Y-67161769D01*
X61667519Y-67073044D01*
X61860294Y-66944236D01*
X62024236Y-66780294D01*
X62153044Y-66587519D01*
X62227817Y-66407000D01*
X63028821Y-66407000D01*
X63053000Y-66431179D01*
X63053000Y-68193000D01*
X62227817Y-68193000D01*
X62153044Y-68012481D01*
X62024236Y-67819706D01*
X61860294Y-67655764D01*
X61667519Y-67526956D01*
X61453318Y-67438231D01*
X61225924Y-67393000D01*
X60994076Y-67393000D01*
X60766682Y-67438231D01*
X60552481Y-67526956D01*
X60359706Y-67655764D01*
X60195764Y-67819706D01*
X60066956Y-68012481D01*
X59978231Y-68226682D01*
X59933000Y-68454076D01*
X59933000Y-68685924D01*
X59978231Y-68913318D01*
X60066956Y-69127519D01*
X60195764Y-69320294D01*
X60359706Y-69484236D01*
X60552481Y-69613044D01*
X60766682Y-69701769D01*
X60994076Y-69747000D01*
X61225924Y-69747000D01*
X61453318Y-69701769D01*
X61667519Y-69613044D01*
X61860294Y-69484236D01*
X62024236Y-69320294D01*
X62153044Y-69127519D01*
X62227817Y-68947000D01*
X62803000Y-68947000D01*
X62803000Y-70733000D01*
X62227817Y-70733000D01*
X62153044Y-70552481D01*
X62024236Y-70359706D01*
X61860294Y-70195764D01*
X61667519Y-70066956D01*
X61453318Y-69978231D01*
X61225924Y-69933000D01*
X60994076Y-69933000D01*
X60766682Y-69978231D01*
X60552481Y-70066956D01*
X60359706Y-70195764D01*
X60195764Y-70359706D01*
X60066956Y-70552481D01*
X59978231Y-70766682D01*
X59933000Y-70994076D01*
X59933000Y-71225924D01*
X59978231Y-71453318D01*
X60066956Y-71667519D01*
X60195764Y-71860294D01*
X60359706Y-72024236D01*
X60552481Y-72153044D01*
X60766682Y-72241769D01*
X60994076Y-72287000D01*
X61225924Y-72287000D01*
X61453318Y-72241769D01*
X61667519Y-72153044D01*
X61860294Y-72024236D01*
X62024236Y-71860294D01*
X62153044Y-71667519D01*
X62227817Y-71487000D01*
X62603000Y-71487000D01*
X62603000Y-73271369D01*
X62586437Y-73273000D01*
X62227817Y-73273000D01*
X62153044Y-73092481D01*
X62024236Y-72899706D01*
X61860294Y-72735764D01*
X61667519Y-72606956D01*
X61453318Y-72518231D01*
X61225924Y-72473000D01*
X60994076Y-72473000D01*
X60766682Y-72518231D01*
X60552481Y-72606956D01*
X60359706Y-72735764D01*
X60195764Y-72899706D01*
X60066956Y-73092481D01*
X59978231Y-73306682D01*
X59933000Y-73534076D01*
X59933000Y-73765924D01*
X59978231Y-73993318D01*
X60066956Y-74207519D01*
X60195764Y-74400294D01*
X60359706Y-74564236D01*
X60552481Y-74693044D01*
X60766682Y-74781769D01*
X60994076Y-74827000D01*
X61225924Y-74827000D01*
X61453318Y-74781769D01*
X61667519Y-74693044D01*
X61860294Y-74564236D01*
X62024236Y-74400294D01*
X62153044Y-74207519D01*
X62227817Y-74027000D01*
X62403000Y-74027000D01*
X62403000Y-75813000D01*
X62227817Y-75813000D01*
X62153044Y-75632481D01*
X62024236Y-75439706D01*
X61860294Y-75275764D01*
X61667519Y-75146956D01*
X61453318Y-75058231D01*
X61225924Y-75013000D01*
X60994076Y-75013000D01*
X60766682Y-75058231D01*
X60552481Y-75146956D01*
X60359706Y-75275764D01*
X60195764Y-75439706D01*
X60066956Y-75632481D01*
X59978231Y-75846682D01*
X59933000Y-76074076D01*
X59933000Y-76305924D01*
X59978231Y-76533318D01*
X60066956Y-76747519D01*
X60195764Y-76940294D01*
X60359706Y-77104236D01*
X60552481Y-77233044D01*
X60766682Y-77321769D01*
X60994076Y-77367000D01*
X61225924Y-77367000D01*
X61453318Y-77321769D01*
X61667519Y-77233044D01*
X61860294Y-77104236D01*
X62024236Y-76940294D01*
X62153044Y-76747519D01*
X62203000Y-76626915D01*
X62203000Y-78293086D01*
X62153044Y-78172481D01*
X62024236Y-77979706D01*
X61860294Y-77815764D01*
X61667519Y-77686956D01*
X61453318Y-77598231D01*
X61225924Y-77553000D01*
X60994076Y-77553000D01*
X60766682Y-77598231D01*
X60552481Y-77686956D01*
X60359706Y-77815764D01*
X60195764Y-77979706D01*
X60066956Y-78172481D01*
X59978231Y-78386682D01*
X59933000Y-78614076D01*
X59933000Y-78845924D01*
X59978231Y-79073318D01*
X60066956Y-79287519D01*
X60195764Y-79480294D01*
X60359706Y-79644236D01*
X60552481Y-79773044D01*
X60766682Y-79861769D01*
X60994076Y-79907000D01*
X61225924Y-79907000D01*
X61453318Y-79861769D01*
X61667519Y-79773044D01*
X61860294Y-79644236D01*
X62003000Y-79501530D01*
X62003000Y-80498470D01*
X61860294Y-80355764D01*
X61667519Y-80226956D01*
X61453318Y-80138231D01*
X61225924Y-80093000D01*
X60994076Y-80093000D01*
X60766682Y-80138231D01*
X60552481Y-80226956D01*
X60359706Y-80355764D01*
X60195764Y-80519706D01*
X60066956Y-80712481D01*
X59978231Y-80926682D01*
X59933000Y-81154076D01*
X59933000Y-81385924D01*
X59978231Y-81613318D01*
X60066956Y-81827519D01*
X60195764Y-82020294D01*
X60359706Y-82184236D01*
X60552481Y-82313044D01*
X60766682Y-82401769D01*
X60994076Y-82447000D01*
X61225924Y-82447000D01*
X61453318Y-82401769D01*
X61667519Y-82313044D01*
X61860294Y-82184236D01*
X62003000Y-82041530D01*
X62003000Y-83038470D01*
X61860294Y-82895764D01*
X61667519Y-82766956D01*
X61453318Y-82678231D01*
X61225924Y-82633000D01*
X60994076Y-82633000D01*
X60766682Y-82678231D01*
X60552481Y-82766956D01*
X60359706Y-82895764D01*
X60195764Y-83059706D01*
X60066956Y-83252481D01*
X59978231Y-83466682D01*
X59933000Y-83694076D01*
X59933000Y-83925924D01*
X59978231Y-84153318D01*
X60066956Y-84367519D01*
X60195764Y-84560294D01*
X60359706Y-84724236D01*
X60552481Y-84853044D01*
X60766682Y-84941769D01*
X60994076Y-84987000D01*
X61225924Y-84987000D01*
X61453318Y-84941769D01*
X61667519Y-84853044D01*
X61860294Y-84724236D01*
X62003001Y-84581529D01*
X62003001Y-85578471D01*
X61860294Y-85435764D01*
X61667519Y-85306956D01*
X61453318Y-85218231D01*
X61225924Y-85173000D01*
X60994076Y-85173000D01*
X60766682Y-85218231D01*
X60552481Y-85306956D01*
X60359706Y-85435764D01*
X60195764Y-85599706D01*
X60066956Y-85792481D01*
X59978231Y-86006682D01*
X59933000Y-86234076D01*
X59933000Y-86465924D01*
X59978231Y-86693318D01*
X60066956Y-86907519D01*
X60195764Y-87100294D01*
X60359706Y-87264236D01*
X60552481Y-87393044D01*
X60766682Y-87481769D01*
X60994076Y-87527000D01*
X61225924Y-87527000D01*
X61453318Y-87481769D01*
X61667519Y-87393044D01*
X61860294Y-87264236D01*
X62003001Y-87121529D01*
X62003001Y-88118471D01*
X61860294Y-87975764D01*
X61667519Y-87846956D01*
X61453318Y-87758231D01*
X61225924Y-87713000D01*
X60994076Y-87713000D01*
X60766682Y-87758231D01*
X60552481Y-87846956D01*
X60359706Y-87975764D01*
X60195764Y-88139706D01*
X60066956Y-88332481D01*
X59978231Y-88546682D01*
X59933000Y-88774076D01*
X59933000Y-89005924D01*
X59978231Y-89233318D01*
X60066956Y-89447519D01*
X60195764Y-89640294D01*
X60359706Y-89804236D01*
X60552481Y-89933044D01*
X60766682Y-90021769D01*
X60994076Y-90067000D01*
X61113842Y-90067000D01*
X61318195Y-90271354D01*
X61225924Y-90253000D01*
X60994076Y-90253000D01*
X60766682Y-90298231D01*
X60552481Y-90386956D01*
X60359706Y-90515764D01*
X60195764Y-90679706D01*
X60066956Y-90872481D01*
X59978231Y-91086682D01*
X59933000Y-91314076D01*
X59933000Y-91545924D01*
X59978231Y-91773318D01*
X60066956Y-91987519D01*
X60195764Y-92180294D01*
X60359706Y-92344236D01*
X60552481Y-92473044D01*
X60766682Y-92561769D01*
X60994076Y-92607000D01*
X61225924Y-92607000D01*
X61453318Y-92561769D01*
X61667519Y-92473044D01*
X61860294Y-92344236D01*
X62024236Y-92180294D01*
X62153044Y-91987519D01*
X62240244Y-91777000D01*
X62669842Y-91777000D01*
X61856520Y-92590322D01*
X61842132Y-92602130D01*
X61795020Y-92659537D01*
X61772387Y-92701880D01*
X61760013Y-92725030D01*
X61743713Y-92778766D01*
X61738456Y-92796095D01*
X61733001Y-92851481D01*
X61733001Y-92851487D01*
X61731178Y-92869999D01*
X61733001Y-92888511D01*
X61733001Y-92970710D01*
X61667519Y-92926956D01*
X61453318Y-92838231D01*
X61225924Y-92793000D01*
X60994076Y-92793000D01*
X60766682Y-92838231D01*
X60552481Y-92926956D01*
X60359706Y-93055764D01*
X60195764Y-93219706D01*
X60066956Y-93412481D01*
X59978231Y-93626682D01*
X59933000Y-93854076D01*
X59933000Y-94085924D01*
X59978231Y-94313318D01*
X60066956Y-94527519D01*
X60195764Y-94720294D01*
X60359706Y-94884236D01*
X60552481Y-95013044D01*
X60766682Y-95101769D01*
X60994076Y-95147000D01*
X61225924Y-95147000D01*
X61453318Y-95101769D01*
X61667519Y-95013044D01*
X61733001Y-94969290D01*
X61733002Y-95510710D01*
X61667519Y-95466956D01*
X61453318Y-95378231D01*
X61225924Y-95333000D01*
X60994076Y-95333000D01*
X60766682Y-95378231D01*
X60552481Y-95466956D01*
X60359706Y-95595764D01*
X60195764Y-95759706D01*
X60066956Y-95952481D01*
X59978231Y-96166682D01*
X59933000Y-96394076D01*
X59933000Y-96625924D01*
X59978231Y-96853318D01*
X60066956Y-97067519D01*
X60195764Y-97260294D01*
X60359706Y-97424236D01*
X60552481Y-97553044D01*
X60766682Y-97641769D01*
X60994076Y-97687000D01*
X61225924Y-97687000D01*
X61453318Y-97641769D01*
X61667519Y-97553044D01*
X61733002Y-97509290D01*
X61733002Y-97893839D01*
X61633837Y-97993004D01*
X61453318Y-97918231D01*
X61225924Y-97873000D01*
X60994076Y-97873000D01*
X60766682Y-97918231D01*
X60552481Y-98006956D01*
X60359706Y-98135764D01*
X60195764Y-98299706D01*
X60066956Y-98492481D01*
X59978231Y-98706682D01*
X59933000Y-98934076D01*
X59933000Y-99165924D01*
X59978231Y-99393318D01*
X60066956Y-99607519D01*
X60195764Y-99800294D01*
X60359706Y-99964236D01*
X60552481Y-100093044D01*
X60766682Y-100181769D01*
X60994076Y-100227000D01*
X61225924Y-100227000D01*
X61453318Y-100181769D01*
X61667519Y-100093044D01*
X61860294Y-99964236D01*
X62024236Y-99800294D01*
X62153044Y-99607519D01*
X62241769Y-99393318D01*
X62287000Y-99165924D01*
X62287000Y-98934076D01*
X62241769Y-98706682D01*
X62166996Y-98526163D01*
X62297526Y-98395633D01*
X66628000Y-98395633D01*
X66628000Y-98504367D01*
X66649213Y-98611012D01*
X66690824Y-98711470D01*
X66751234Y-98801880D01*
X66828120Y-98878766D01*
X66918530Y-98939176D01*
X67018988Y-98980787D01*
X67125633Y-99002000D01*
X67234367Y-99002000D01*
X67341012Y-98980787D01*
X67441470Y-98939176D01*
X67531880Y-98878766D01*
X67608766Y-98801880D01*
X67669176Y-98711470D01*
X67705000Y-98624983D01*
X67740824Y-98711470D01*
X67801234Y-98801880D01*
X67878120Y-98878766D01*
X67968530Y-98939176D01*
X68068988Y-98980787D01*
X68175633Y-99002000D01*
X68284367Y-99002000D01*
X68391012Y-98980787D01*
X68491470Y-98939176D01*
X68581880Y-98878766D01*
X68658766Y-98801880D01*
X68705000Y-98732686D01*
X68751234Y-98801880D01*
X68828120Y-98878766D01*
X68918530Y-98939176D01*
X69018988Y-98980787D01*
X69125633Y-99002000D01*
X69234367Y-99002000D01*
X69341012Y-98980787D01*
X69441470Y-98939176D01*
X69531880Y-98878766D01*
X69608766Y-98801880D01*
X69669176Y-98711470D01*
X69705000Y-98624983D01*
X69740824Y-98711470D01*
X69801234Y-98801880D01*
X69878120Y-98878766D01*
X69968530Y-98939176D01*
X70068988Y-98980787D01*
X70175633Y-99002000D01*
X70284367Y-99002000D01*
X70391012Y-98980787D01*
X70491470Y-98939176D01*
X70581880Y-98878766D01*
X70658766Y-98801880D01*
X70719176Y-98711470D01*
X70719645Y-98710339D01*
X70740824Y-98761470D01*
X70801234Y-98851880D01*
X70878120Y-98928766D01*
X70968530Y-98989176D01*
X71068988Y-99030787D01*
X71175633Y-99052000D01*
X71284367Y-99052000D01*
X71391012Y-99030787D01*
X71491470Y-98989176D01*
X71581880Y-98928766D01*
X71658766Y-98851880D01*
X71719176Y-98761470D01*
X71760787Y-98661012D01*
X71782000Y-98554367D01*
X71782000Y-98445633D01*
X71760787Y-98338988D01*
X71719176Y-98238530D01*
X71658766Y-98148120D01*
X71581880Y-98071234D01*
X71491470Y-98010824D01*
X71391012Y-97969213D01*
X71284367Y-97948000D01*
X71175633Y-97948000D01*
X71068988Y-97969213D01*
X70968530Y-98010824D01*
X70878120Y-98071234D01*
X70801234Y-98148120D01*
X70740824Y-98238530D01*
X70740355Y-98239661D01*
X70719176Y-98188530D01*
X70658766Y-98098120D01*
X70581880Y-98021234D01*
X70491470Y-97960824D01*
X70391012Y-97919213D01*
X70284367Y-97898000D01*
X70175633Y-97898000D01*
X70068988Y-97919213D01*
X69968530Y-97960824D01*
X69878120Y-98021234D01*
X69801234Y-98098120D01*
X69740824Y-98188530D01*
X69705000Y-98275017D01*
X69669176Y-98188530D01*
X69608766Y-98098120D01*
X69531880Y-98021234D01*
X69441470Y-97960824D01*
X69341012Y-97919213D01*
X69234367Y-97898000D01*
X69125633Y-97898000D01*
X69018988Y-97919213D01*
X68918530Y-97960824D01*
X68828120Y-98021234D01*
X68751234Y-98098120D01*
X68705000Y-98167314D01*
X68658766Y-98098120D01*
X68581880Y-98021234D01*
X68491470Y-97960824D01*
X68391012Y-97919213D01*
X68284367Y-97898000D01*
X68175633Y-97898000D01*
X68068988Y-97919213D01*
X67968530Y-97960824D01*
X67878120Y-98021234D01*
X67801234Y-98098120D01*
X67740824Y-98188530D01*
X67705000Y-98275017D01*
X67669176Y-98188530D01*
X67608766Y-98098120D01*
X67531880Y-98021234D01*
X67441470Y-97960824D01*
X67341012Y-97919213D01*
X67234367Y-97898000D01*
X67125633Y-97898000D01*
X67018988Y-97919213D01*
X66918530Y-97960824D01*
X66828120Y-98021234D01*
X66751234Y-98098120D01*
X66690824Y-98188530D01*
X66649213Y-98288988D01*
X66628000Y-98395633D01*
X62297526Y-98395633D01*
X62363488Y-98329671D01*
X62377870Y-98317868D01*
X62424982Y-98260462D01*
X62459989Y-98194969D01*
X62474200Y-98148120D01*
X62481546Y-98123905D01*
X62486733Y-98071234D01*
X62487001Y-98068518D01*
X62487001Y-98068511D01*
X62488824Y-98049999D01*
X62487001Y-98031487D01*
X62487001Y-93026157D01*
X65177999Y-90335159D01*
X65178000Y-94417883D01*
X65175329Y-94444999D01*
X65185988Y-94553209D01*
X65217551Y-94657261D01*
X65263908Y-94743988D01*
X65268809Y-94753157D01*
X65337789Y-94837210D01*
X65358850Y-94854494D01*
X65761234Y-95256879D01*
X65761234Y-95256880D01*
X65838120Y-95333766D01*
X65860786Y-95348911D01*
X65881842Y-95366191D01*
X65905864Y-95379031D01*
X65928530Y-95394176D01*
X65953715Y-95404608D01*
X65977737Y-95417448D01*
X66003803Y-95425355D01*
X66028988Y-95435787D01*
X66055723Y-95441105D01*
X66081789Y-95449012D01*
X66108898Y-95451682D01*
X66135633Y-95457000D01*
X66162891Y-95457000D01*
X66190000Y-95459670D01*
X66217108Y-95457000D01*
X66244367Y-95457000D01*
X66271103Y-95451682D01*
X66298210Y-95449012D01*
X66324275Y-95441105D01*
X66351012Y-95435787D01*
X66376197Y-95425355D01*
X66402263Y-95417448D01*
X66426285Y-95404608D01*
X66451470Y-95394176D01*
X66474136Y-95379031D01*
X66498158Y-95366191D01*
X66519214Y-95348911D01*
X66541880Y-95333766D01*
X66561155Y-95314491D01*
X66582211Y-95297211D01*
X66599491Y-95276155D01*
X66618766Y-95256880D01*
X66633911Y-95234214D01*
X66651191Y-95213158D01*
X66664031Y-95189136D01*
X66679176Y-95166470D01*
X66689608Y-95141285D01*
X66702448Y-95117263D01*
X66710355Y-95091197D01*
X66720787Y-95066012D01*
X66726105Y-95039275D01*
X66734012Y-95013210D01*
X66736682Y-94986103D01*
X66742000Y-94959367D01*
X66742000Y-94932108D01*
X66744670Y-94905000D01*
X66742000Y-94877891D01*
X66742000Y-94850633D01*
X66736682Y-94823898D01*
X66734012Y-94796789D01*
X66726105Y-94770723D01*
X66720787Y-94743988D01*
X66710355Y-94718803D01*
X66702448Y-94692737D01*
X66689608Y-94668715D01*
X66679176Y-94643530D01*
X66664031Y-94620864D01*
X66651191Y-94596842D01*
X66633911Y-94575786D01*
X66618766Y-94553120D01*
X66541880Y-94476234D01*
X66541879Y-94476234D01*
X66281999Y-94216354D01*
X66281999Y-92902000D01*
X66334367Y-92902000D01*
X66441012Y-92880787D01*
X66541470Y-92839176D01*
X66631880Y-92778766D01*
X66708766Y-92701880D01*
X66769176Y-92611470D01*
X66810787Y-92511012D01*
X66832000Y-92404367D01*
X66832000Y-92295633D01*
X66810787Y-92188988D01*
X66806999Y-92179843D01*
X66806999Y-91652000D01*
X66859367Y-91652000D01*
X66966012Y-91630787D01*
X67066470Y-91589176D01*
X67156880Y-91528766D01*
X67208646Y-91477000D01*
X67211488Y-91477000D01*
X67230000Y-91478823D01*
X67248512Y-91477000D01*
X67248519Y-91477000D01*
X67303905Y-91471545D01*
X67374970Y-91449988D01*
X67440463Y-91414981D01*
X67497869Y-91367869D01*
X67509677Y-91353481D01*
X67977999Y-90885159D01*
X67978000Y-94056477D01*
X67976176Y-94074999D01*
X67983454Y-94148904D01*
X68005011Y-94219968D01*
X68040019Y-94285462D01*
X68075325Y-94328483D01*
X68075328Y-94328486D01*
X68087131Y-94342868D01*
X68101513Y-94354671D01*
X68900328Y-95153487D01*
X68912131Y-95167869D01*
X68969537Y-95214981D01*
X69035030Y-95249988D01*
X69106094Y-95271545D01*
X69180000Y-95278824D01*
X69198519Y-95277000D01*
X70376354Y-95277000D01*
X70428120Y-95328766D01*
X70518530Y-95389176D01*
X70618988Y-95430787D01*
X70725633Y-95452000D01*
X70834367Y-95452000D01*
X70941012Y-95430787D01*
X71041470Y-95389176D01*
X71131880Y-95328766D01*
X71208766Y-95251880D01*
X71269176Y-95161470D01*
X71310787Y-95061012D01*
X71332000Y-94954367D01*
X71332000Y-94845633D01*
X71310787Y-94738988D01*
X71269176Y-94638530D01*
X71208766Y-94548120D01*
X71131880Y-94471234D01*
X71041470Y-94410824D01*
X70941012Y-94369213D01*
X70834367Y-94348000D01*
X70725633Y-94348000D01*
X70618988Y-94369213D01*
X70518530Y-94410824D01*
X70428120Y-94471234D01*
X70376354Y-94523000D01*
X69336159Y-94523000D01*
X68731999Y-93918841D01*
X68731999Y-83694076D01*
X75173000Y-83694076D01*
X75173000Y-83925924D01*
X75218231Y-84153318D01*
X75306956Y-84367519D01*
X75435764Y-84560294D01*
X75599706Y-84724236D01*
X75792481Y-84853044D01*
X76006682Y-84941769D01*
X76234076Y-84987000D01*
X76465924Y-84987000D01*
X76693318Y-84941769D01*
X76907519Y-84853044D01*
X77100294Y-84724236D01*
X77264236Y-84560294D01*
X77393044Y-84367519D01*
X77481769Y-84153318D01*
X77527000Y-83925924D01*
X77527000Y-83694076D01*
X77481769Y-83466682D01*
X77393044Y-83252481D01*
X77264236Y-83059706D01*
X77100294Y-82895764D01*
X76907519Y-82766956D01*
X76693318Y-82678231D01*
X76465924Y-82633000D01*
X76234076Y-82633000D01*
X76006682Y-82678231D01*
X75792481Y-82766956D01*
X75599706Y-82895764D01*
X75435764Y-83059706D01*
X75306956Y-83252481D01*
X75218231Y-83466682D01*
X75173000Y-83694076D01*
X68731999Y-83694076D01*
X68731999Y-82995633D01*
X70828000Y-82995633D01*
X70828000Y-83104367D01*
X70849213Y-83211012D01*
X70890824Y-83311470D01*
X70951234Y-83401880D01*
X71028120Y-83478766D01*
X71118530Y-83539176D01*
X71218988Y-83580787D01*
X71325633Y-83602000D01*
X71434367Y-83602000D01*
X71541012Y-83580787D01*
X71641470Y-83539176D01*
X71731880Y-83478766D01*
X71808766Y-83401880D01*
X71869176Y-83311470D01*
X71910787Y-83211012D01*
X71932000Y-83104367D01*
X71932000Y-82995633D01*
X71910787Y-82888988D01*
X71869176Y-82788530D01*
X71808766Y-82698120D01*
X71731880Y-82621234D01*
X71641470Y-82560824D01*
X71541012Y-82519213D01*
X71434367Y-82498000D01*
X71325633Y-82498000D01*
X71218988Y-82519213D01*
X71118530Y-82560824D01*
X71028120Y-82621234D01*
X70951234Y-82698120D01*
X70890824Y-82788530D01*
X70849213Y-82888988D01*
X70828000Y-82995633D01*
X68731999Y-82995633D01*
X68731999Y-82395633D01*
X71978000Y-82395633D01*
X71978000Y-82504367D01*
X71999213Y-82611012D01*
X72040824Y-82711470D01*
X72101234Y-82801880D01*
X72178120Y-82878766D01*
X72268530Y-82939176D01*
X72368988Y-82980787D01*
X72475633Y-83002000D01*
X72584367Y-83002000D01*
X72691012Y-82980787D01*
X72791470Y-82939176D01*
X72881880Y-82878766D01*
X72958766Y-82801880D01*
X73019176Y-82711470D01*
X73060787Y-82611012D01*
X73082000Y-82504367D01*
X73082000Y-82395633D01*
X73060787Y-82288988D01*
X73019176Y-82188530D01*
X72958766Y-82098120D01*
X72881880Y-82021234D01*
X72791470Y-81960824D01*
X72691012Y-81919213D01*
X72584367Y-81898000D01*
X72475633Y-81898000D01*
X72368988Y-81919213D01*
X72268530Y-81960824D01*
X72178120Y-82021234D01*
X72101234Y-82098120D01*
X72040824Y-82188530D01*
X71999213Y-82288988D01*
X71978000Y-82395633D01*
X68731999Y-82395633D01*
X68731999Y-81154076D01*
X75173000Y-81154076D01*
X75173000Y-81385924D01*
X75218231Y-81613318D01*
X75306956Y-81827519D01*
X75435764Y-82020294D01*
X75599706Y-82184236D01*
X75792481Y-82313044D01*
X76006682Y-82401769D01*
X76234076Y-82447000D01*
X76465924Y-82447000D01*
X76693318Y-82401769D01*
X76907519Y-82313044D01*
X77100294Y-82184236D01*
X77264236Y-82020294D01*
X77393044Y-81827519D01*
X77481769Y-81613318D01*
X77527000Y-81385924D01*
X77527000Y-81154076D01*
X77481769Y-80926682D01*
X77393044Y-80712481D01*
X77264236Y-80519706D01*
X77100294Y-80355764D01*
X76907519Y-80226956D01*
X76693318Y-80138231D01*
X76465924Y-80093000D01*
X76234076Y-80093000D01*
X76006682Y-80138231D01*
X75792481Y-80226956D01*
X75599706Y-80355764D01*
X75435764Y-80519706D01*
X75306956Y-80712481D01*
X75218231Y-80926682D01*
X75173000Y-81154076D01*
X68731999Y-81154076D01*
X68731999Y-76720633D01*
X69428000Y-76720633D01*
X69428000Y-76829367D01*
X69449213Y-76936012D01*
X69490824Y-77036470D01*
X69551234Y-77126880D01*
X69628120Y-77203766D01*
X69718530Y-77264176D01*
X69818988Y-77305787D01*
X69925633Y-77327000D01*
X69998842Y-77327000D01*
X70425328Y-77753487D01*
X70437131Y-77767869D01*
X70494537Y-77814981D01*
X70560030Y-77849988D01*
X70631094Y-77871545D01*
X70705000Y-77878824D01*
X70723519Y-77877000D01*
X71519841Y-77877000D01*
X71001519Y-78395323D01*
X70987131Y-78407131D01*
X70940019Y-78464538D01*
X70905012Y-78530031D01*
X70883455Y-78601096D01*
X70878000Y-78656482D01*
X70878000Y-78656488D01*
X70876177Y-78675000D01*
X70878000Y-78693512D01*
X70878000Y-78971354D01*
X70826234Y-79023120D01*
X70765824Y-79113530D01*
X70724213Y-79213988D01*
X70703000Y-79320633D01*
X70703000Y-79429367D01*
X70724213Y-79536012D01*
X70765824Y-79636470D01*
X70826234Y-79726880D01*
X70903120Y-79803766D01*
X70993530Y-79864176D01*
X71093988Y-79905787D01*
X71200633Y-79927000D01*
X71309367Y-79927000D01*
X71416012Y-79905787D01*
X71516470Y-79864176D01*
X71606880Y-79803766D01*
X71683766Y-79726880D01*
X71744176Y-79636470D01*
X71785787Y-79536012D01*
X71807000Y-79429367D01*
X71807000Y-79320633D01*
X71795136Y-79260988D01*
X71875633Y-79277000D01*
X71984367Y-79277000D01*
X72091012Y-79255787D01*
X72191470Y-79214176D01*
X72281880Y-79153766D01*
X72358766Y-79076880D01*
X72419176Y-78986470D01*
X72460787Y-78886012D01*
X72482000Y-78779367D01*
X72482000Y-78670633D01*
X72470751Y-78614076D01*
X75173000Y-78614076D01*
X75173000Y-78845924D01*
X75218231Y-79073318D01*
X75306956Y-79287519D01*
X75435764Y-79480294D01*
X75599706Y-79644236D01*
X75792481Y-79773044D01*
X76006682Y-79861769D01*
X76234076Y-79907000D01*
X76465924Y-79907000D01*
X76693318Y-79861769D01*
X76907519Y-79773044D01*
X77100294Y-79644236D01*
X77264236Y-79480294D01*
X77393044Y-79287519D01*
X77481769Y-79073318D01*
X77527000Y-78845924D01*
X77527000Y-78614076D01*
X77481769Y-78386682D01*
X77393044Y-78172481D01*
X77264236Y-77979706D01*
X77100294Y-77815764D01*
X76907519Y-77686956D01*
X76693318Y-77598231D01*
X76465924Y-77553000D01*
X76234076Y-77553000D01*
X76006682Y-77598231D01*
X75792481Y-77686956D01*
X75599706Y-77815764D01*
X75435764Y-77979706D01*
X75306956Y-78172481D01*
X75218231Y-78386682D01*
X75173000Y-78614076D01*
X72470751Y-78614076D01*
X72460787Y-78563988D01*
X72419176Y-78463530D01*
X72358766Y-78373120D01*
X72281880Y-78296234D01*
X72212969Y-78250189D01*
X72286159Y-78177000D01*
X74721488Y-78177000D01*
X74740000Y-78178823D01*
X74758512Y-78177000D01*
X74758519Y-78177000D01*
X74813905Y-78171545D01*
X74884970Y-78149988D01*
X74950463Y-78114981D01*
X75007869Y-78067869D01*
X75019677Y-78053481D01*
X75826163Y-77246996D01*
X76006682Y-77321769D01*
X76234076Y-77367000D01*
X76465924Y-77367000D01*
X76693318Y-77321769D01*
X76907519Y-77233044D01*
X77100294Y-77104236D01*
X77264236Y-76940294D01*
X77393044Y-76747519D01*
X77481769Y-76533318D01*
X77527000Y-76305924D01*
X77527000Y-76074076D01*
X77481769Y-75846682D01*
X77393044Y-75632481D01*
X77264236Y-75439706D01*
X77100294Y-75275764D01*
X76907519Y-75146956D01*
X76693318Y-75058231D01*
X76494479Y-75018680D01*
X76603487Y-74909672D01*
X76617869Y-74897869D01*
X76641387Y-74869213D01*
X76652498Y-74855674D01*
X76664981Y-74840463D01*
X76697217Y-74780154D01*
X76907519Y-74693044D01*
X77100294Y-74564236D01*
X77264236Y-74400294D01*
X77393044Y-74207519D01*
X77481769Y-73993318D01*
X77527000Y-73765924D01*
X77527000Y-73534076D01*
X77481769Y-73306682D01*
X77393044Y-73092481D01*
X77264236Y-72899706D01*
X77100294Y-72735764D01*
X76907519Y-72606956D01*
X76693318Y-72518231D01*
X76465924Y-72473000D01*
X76234076Y-72473000D01*
X76006682Y-72518231D01*
X75792481Y-72606956D01*
X75707000Y-72664073D01*
X75707000Y-72286158D01*
X75826163Y-72166995D01*
X76006682Y-72241769D01*
X76234076Y-72287000D01*
X76465924Y-72287000D01*
X76693318Y-72241769D01*
X76907519Y-72153044D01*
X77100294Y-72024236D01*
X77264236Y-71860294D01*
X77393044Y-71667519D01*
X77481769Y-71453318D01*
X77527000Y-71225924D01*
X77527000Y-70994076D01*
X77481769Y-70766682D01*
X77393044Y-70552481D01*
X77264236Y-70359706D01*
X77100294Y-70195764D01*
X76907519Y-70066956D01*
X76693318Y-69978231D01*
X76465924Y-69933000D01*
X76234076Y-69933000D01*
X76006682Y-69978231D01*
X75792481Y-70066956D01*
X75599706Y-70195764D01*
X75507000Y-70288470D01*
X75507000Y-69391530D01*
X75599706Y-69484236D01*
X75792481Y-69613044D01*
X76006682Y-69701769D01*
X76234076Y-69747000D01*
X76465924Y-69747000D01*
X76693318Y-69701769D01*
X76907519Y-69613044D01*
X77100294Y-69484236D01*
X77264236Y-69320294D01*
X77393044Y-69127519D01*
X77481769Y-68913318D01*
X77527000Y-68685924D01*
X77527000Y-68454076D01*
X77481769Y-68226682D01*
X77393044Y-68012481D01*
X77264236Y-67819706D01*
X77100294Y-67655764D01*
X76907519Y-67526956D01*
X76693318Y-67438231D01*
X76465924Y-67393000D01*
X76234076Y-67393000D01*
X76006682Y-67438231D01*
X75792481Y-67526956D01*
X75599706Y-67655764D01*
X75507000Y-67748470D01*
X75507000Y-67406158D01*
X75826163Y-67086995D01*
X76006682Y-67161769D01*
X76234076Y-67207000D01*
X76465924Y-67207000D01*
X76693318Y-67161769D01*
X76907519Y-67073044D01*
X77100294Y-66944236D01*
X77264236Y-66780294D01*
X77393044Y-66587519D01*
X77481769Y-66373318D01*
X77527000Y-66145924D01*
X77527000Y-65914076D01*
X77481769Y-65686682D01*
X77393044Y-65472481D01*
X77264236Y-65279706D01*
X77100294Y-65115764D01*
X76907519Y-64986956D01*
X76693318Y-64898231D01*
X76465924Y-64853000D01*
X76234076Y-64853000D01*
X76006682Y-64898231D01*
X75792481Y-64986956D01*
X75599706Y-65115764D01*
X75435764Y-65279706D01*
X75306956Y-65472481D01*
X75218231Y-65686682D01*
X75173000Y-65914076D01*
X75173000Y-66145924D01*
X75218231Y-66373318D01*
X75293005Y-66553837D01*
X74876519Y-66970323D01*
X74862131Y-66982131D01*
X74815019Y-67039538D01*
X74780012Y-67105031D01*
X74758455Y-67176096D01*
X74753000Y-67231482D01*
X74753000Y-67231488D01*
X74751177Y-67250000D01*
X74753000Y-67268512D01*
X74753001Y-74143840D01*
X73473842Y-75423000D01*
X73400633Y-75423000D01*
X73293988Y-75444213D01*
X73193530Y-75485824D01*
X73103120Y-75546234D01*
X73026234Y-75623120D01*
X72965824Y-75713530D01*
X72924213Y-75813988D01*
X72903000Y-75920633D01*
X72903000Y-76029367D01*
X72924213Y-76136012D01*
X72965824Y-76236470D01*
X73026234Y-76326880D01*
X73103120Y-76403766D01*
X73165694Y-76445577D01*
X73068528Y-76485824D01*
X72978118Y-76546234D01*
X72901232Y-76623120D01*
X72840822Y-76713530D01*
X72799211Y-76813988D01*
X72777998Y-76920633D01*
X72777998Y-77029367D01*
X72796623Y-77123000D01*
X70861159Y-77123000D01*
X70532000Y-76793842D01*
X70532000Y-76720633D01*
X70510787Y-76613988D01*
X70469176Y-76513530D01*
X70408766Y-76423120D01*
X70331880Y-76346234D01*
X70241470Y-76285824D01*
X70141012Y-76244213D01*
X70034367Y-76223000D01*
X69925633Y-76223000D01*
X69818988Y-76244213D01*
X69718530Y-76285824D01*
X69628120Y-76346234D01*
X69551234Y-76423120D01*
X69490824Y-76513530D01*
X69449213Y-76613988D01*
X69428000Y-76720633D01*
X68731999Y-76720633D01*
X68731999Y-75981159D01*
X68761158Y-75952000D01*
X68834367Y-75952000D01*
X68941012Y-75930787D01*
X69041470Y-75889176D01*
X69131880Y-75828766D01*
X69208766Y-75751880D01*
X69269176Y-75661470D01*
X69310787Y-75561012D01*
X69332000Y-75454367D01*
X69332000Y-75395633D01*
X70203000Y-75395633D01*
X70203000Y-75504367D01*
X70224213Y-75611012D01*
X70265824Y-75711470D01*
X70326234Y-75801880D01*
X70403120Y-75878766D01*
X70493530Y-75939176D01*
X70593988Y-75980787D01*
X70700633Y-76002000D01*
X70809367Y-76002000D01*
X70916012Y-75980787D01*
X71016470Y-75939176D01*
X71106880Y-75878766D01*
X71183766Y-75801880D01*
X71244176Y-75711470D01*
X71285787Y-75611012D01*
X71307000Y-75504367D01*
X71307000Y-75395633D01*
X71285787Y-75288988D01*
X71244176Y-75188530D01*
X71186125Y-75101650D01*
X71291012Y-75080787D01*
X71391470Y-75039176D01*
X71481880Y-74978766D01*
X71558766Y-74901880D01*
X71619176Y-74811470D01*
X71660787Y-74711012D01*
X71682000Y-74604367D01*
X71682000Y-74495633D01*
X71660787Y-74388988D01*
X71619176Y-74288530D01*
X71558766Y-74198120D01*
X71481880Y-74121234D01*
X71450101Y-74100000D01*
X71481880Y-74078766D01*
X71558766Y-74001880D01*
X71619176Y-73911470D01*
X71660787Y-73811012D01*
X71682000Y-73704367D01*
X71682000Y-73595633D01*
X71660787Y-73488988D01*
X71619176Y-73388530D01*
X71558766Y-73298120D01*
X71481880Y-73221234D01*
X71391470Y-73160824D01*
X71291012Y-73119213D01*
X71184367Y-73098000D01*
X71075633Y-73098000D01*
X70968988Y-73119213D01*
X70868530Y-73160824D01*
X70778120Y-73221234D01*
X70701234Y-73298120D01*
X70640824Y-73388530D01*
X70599213Y-73488988D01*
X70578000Y-73595633D01*
X70578000Y-73704367D01*
X70599213Y-73811012D01*
X70640824Y-73911470D01*
X70701234Y-74001880D01*
X70778120Y-74078766D01*
X70809899Y-74100000D01*
X70778120Y-74121234D01*
X70701234Y-74198120D01*
X70640824Y-74288530D01*
X70599213Y-74388988D01*
X70578000Y-74495633D01*
X70578000Y-74604367D01*
X70599213Y-74711012D01*
X70640824Y-74811470D01*
X70698875Y-74898350D01*
X70593988Y-74919213D01*
X70493530Y-74960824D01*
X70403120Y-75021234D01*
X70326234Y-75098120D01*
X70265824Y-75188530D01*
X70224213Y-75288988D01*
X70203000Y-75395633D01*
X69332000Y-75395633D01*
X69332000Y-75345633D01*
X69310787Y-75238988D01*
X69269176Y-75138530D01*
X69208766Y-75048120D01*
X69157000Y-74996354D01*
X69157000Y-69739016D01*
X71250383Y-67645633D01*
X73228000Y-67645633D01*
X73228000Y-67754367D01*
X73249213Y-67861012D01*
X73290824Y-67961470D01*
X73351234Y-68051880D01*
X73428120Y-68128766D01*
X73518530Y-68189176D01*
X73618988Y-68230787D01*
X73725633Y-68252000D01*
X73834367Y-68252000D01*
X73941012Y-68230787D01*
X74041470Y-68189176D01*
X74131880Y-68128766D01*
X74208766Y-68051880D01*
X74269176Y-67961470D01*
X74310787Y-67861012D01*
X74332000Y-67754367D01*
X74332000Y-67645633D01*
X74310787Y-67538988D01*
X74306961Y-67529751D01*
X74319176Y-67511470D01*
X74360787Y-67411012D01*
X74382000Y-67304367D01*
X74382000Y-67195633D01*
X74360787Y-67088988D01*
X74319176Y-66988530D01*
X74258766Y-66898120D01*
X74181880Y-66821234D01*
X74091470Y-66760824D01*
X73991012Y-66719213D01*
X73884367Y-66698000D01*
X73775633Y-66698000D01*
X73668988Y-66719213D01*
X73568530Y-66760824D01*
X73478120Y-66821234D01*
X73401234Y-66898120D01*
X73340824Y-66988530D01*
X73299213Y-67088988D01*
X73278000Y-67195633D01*
X73278000Y-67304367D01*
X73299213Y-67411012D01*
X73303039Y-67420249D01*
X73290824Y-67438530D01*
X73249213Y-67538988D01*
X73228000Y-67645633D01*
X71250383Y-67645633D01*
X73469016Y-65427000D01*
X74065058Y-65427000D01*
X74083570Y-65428823D01*
X74102082Y-65427000D01*
X74102089Y-65427000D01*
X74157475Y-65421545D01*
X74228540Y-65399988D01*
X74294033Y-65364981D01*
X74351439Y-65317869D01*
X74363247Y-65303481D01*
X75432027Y-64234702D01*
X75435764Y-64240294D01*
X75599706Y-64404236D01*
X75792481Y-64533044D01*
X76006682Y-64621769D01*
X76234076Y-64667000D01*
X76465924Y-64667000D01*
X76693318Y-64621769D01*
X76907519Y-64533044D01*
X77100294Y-64404236D01*
X77264236Y-64240294D01*
X77393044Y-64047519D01*
X77481769Y-63833318D01*
X77527000Y-63605924D01*
X77527000Y-63374076D01*
X77481769Y-63146682D01*
X77393044Y-62932481D01*
X77264236Y-62739706D01*
X77100294Y-62575764D01*
X76907519Y-62446956D01*
X76693318Y-62358231D01*
X76465924Y-62313000D01*
X76234076Y-62313000D01*
X76006682Y-62358231D01*
X75792481Y-62446956D01*
X75726999Y-62490710D01*
X75726999Y-61949290D01*
X75792481Y-61993044D01*
X76006682Y-62081769D01*
X76234076Y-62127000D01*
X76465924Y-62127000D01*
X76693318Y-62081769D01*
X76907519Y-61993044D01*
X77100294Y-61864236D01*
X77264236Y-61700294D01*
X77393044Y-61507519D01*
X77481769Y-61293318D01*
X77527000Y-61065924D01*
X77527000Y-60834076D01*
X77481769Y-60606682D01*
X77393044Y-60392481D01*
X77264236Y-60199706D01*
X77100294Y-60035764D01*
X76907519Y-59906956D01*
X76693318Y-59818231D01*
X76465924Y-59773000D01*
X76234076Y-59773000D01*
X76006682Y-59818231D01*
X75792481Y-59906956D01*
X75726999Y-59950710D01*
X75726999Y-59566159D01*
X75826163Y-59466995D01*
X76006682Y-59541769D01*
X76234076Y-59587000D01*
X76465924Y-59587000D01*
X76693318Y-59541769D01*
X76907519Y-59453044D01*
X77100294Y-59324236D01*
X77264236Y-59160294D01*
X77393044Y-58967519D01*
X77481769Y-58753318D01*
X77527000Y-58525924D01*
X77527000Y-58294076D01*
X77481769Y-58066682D01*
X77393044Y-57852481D01*
X77264236Y-57659706D01*
X77100294Y-57495764D01*
X76907519Y-57366956D01*
X76693318Y-57278231D01*
X76465924Y-57233000D01*
X76234076Y-57233000D01*
X76006682Y-57278231D01*
X75792481Y-57366956D01*
X75599706Y-57495764D01*
X75507000Y-57588470D01*
X75507000Y-57246158D01*
X75826163Y-56926995D01*
X76006682Y-57001769D01*
X76234076Y-57047000D01*
X76465924Y-57047000D01*
X76693318Y-57001769D01*
X76907519Y-56913044D01*
X77100294Y-56784236D01*
X77264236Y-56620294D01*
X77393044Y-56427519D01*
X77481769Y-56213318D01*
X77527000Y-55985924D01*
X77527000Y-55754076D01*
X77481769Y-55526682D01*
X77393044Y-55312481D01*
X77264236Y-55119706D01*
X77100294Y-54955764D01*
X76907519Y-54826956D01*
X76693318Y-54738231D01*
X76465924Y-54693000D01*
X76234076Y-54693000D01*
X76006682Y-54738231D01*
X75792481Y-54826956D01*
X75599706Y-54955764D01*
X75435764Y-55119706D01*
X75306990Y-55312430D01*
X75306990Y-54906168D01*
X75826163Y-54386995D01*
X76006682Y-54461769D01*
X76234076Y-54507000D01*
X76465924Y-54507000D01*
X76693318Y-54461769D01*
X76907519Y-54373044D01*
X77100294Y-54244236D01*
X77264236Y-54080294D01*
X77393044Y-53887519D01*
X77481769Y-53673318D01*
X77527000Y-53445924D01*
X77527000Y-53214076D01*
X77481769Y-52986682D01*
X77393044Y-52772481D01*
X77264236Y-52579706D01*
X77100294Y-52415764D01*
X76907519Y-52286956D01*
X76693318Y-52198231D01*
X76465924Y-52153000D01*
X76234076Y-52153000D01*
X76006682Y-52198231D01*
X75792481Y-52286956D01*
X75599706Y-52415764D01*
X75435764Y-52579706D01*
X75306956Y-52772481D01*
X75218231Y-52986682D01*
X75173000Y-53214076D01*
X75173000Y-53445924D01*
X75218231Y-53673318D01*
X75293005Y-53853837D01*
X75106980Y-54039862D01*
X75106980Y-52566178D01*
X75826163Y-51846995D01*
X76006682Y-51921769D01*
X76234076Y-51967000D01*
X76465924Y-51967000D01*
X76693318Y-51921769D01*
X76907519Y-51833044D01*
X77100294Y-51704236D01*
X77264236Y-51540294D01*
X77393044Y-51347519D01*
X77481769Y-51133318D01*
X77527000Y-50905924D01*
X77527000Y-50674076D01*
X77481769Y-50446682D01*
X77393044Y-50232481D01*
X77264236Y-50039706D01*
X77100294Y-49875764D01*
X76907519Y-49746956D01*
X76742821Y-49678736D01*
X76981252Y-49594157D01*
X77231355Y-49445178D01*
X77447588Y-49250269D01*
X77621641Y-49016920D01*
X77746825Y-48754099D01*
X77791476Y-48606890D01*
X77670155Y-48377000D01*
X76477000Y-48377000D01*
X76477000Y-48397000D01*
X76223000Y-48397000D01*
X76223000Y-48377000D01*
X75029845Y-48377000D01*
X74908524Y-48606890D01*
X74953175Y-48754099D01*
X75078359Y-49016920D01*
X75252412Y-49250269D01*
X75468645Y-49445178D01*
X75718748Y-49594157D01*
X75957179Y-49678736D01*
X75792481Y-49746956D01*
X75599706Y-49875764D01*
X75435764Y-50039706D01*
X75306956Y-50232481D01*
X75218231Y-50446682D01*
X75173000Y-50674076D01*
X75173000Y-50905924D01*
X75218231Y-51133318D01*
X75293005Y-51313837D01*
X74476499Y-52130343D01*
X74462111Y-52142151D01*
X74450306Y-52156536D01*
X74415000Y-52199557D01*
X74379992Y-52265051D01*
X74360665Y-52328766D01*
X74358435Y-52336116D01*
X74352980Y-52391502D01*
X74352980Y-52391508D01*
X74351157Y-52410020D01*
X74352980Y-52428532D01*
X74352980Y-53020140D01*
X74319176Y-52938530D01*
X74258766Y-52848120D01*
X74181880Y-52771234D01*
X74091470Y-52710824D01*
X73991012Y-52669213D01*
X73884367Y-52648000D01*
X73775633Y-52648000D01*
X73668988Y-52669213D01*
X73568530Y-52710824D01*
X73478120Y-52771234D01*
X73401234Y-52848120D01*
X73340824Y-52938530D01*
X73299213Y-53038988D01*
X73278000Y-53145633D01*
X73278000Y-53254367D01*
X73299213Y-53361012D01*
X73303039Y-53370249D01*
X73290824Y-53388530D01*
X73249213Y-53488988D01*
X73228000Y-53595633D01*
X73228000Y-53704367D01*
X73249213Y-53811012D01*
X73290824Y-53911470D01*
X73351234Y-54001880D01*
X73428120Y-54078766D01*
X73518530Y-54139176D01*
X73618988Y-54180787D01*
X73725633Y-54202000D01*
X73834367Y-54202000D01*
X73941012Y-54180787D01*
X74041470Y-54139176D01*
X74131880Y-54078766D01*
X74208766Y-54001880D01*
X74269176Y-53911470D01*
X74310787Y-53811012D01*
X74332000Y-53704367D01*
X74332000Y-53595633D01*
X74310787Y-53488988D01*
X74306961Y-53479751D01*
X74319176Y-53461470D01*
X74352980Y-53379860D01*
X74352980Y-56770141D01*
X74319176Y-56688530D01*
X74258766Y-56598120D01*
X74181880Y-56521234D01*
X74091470Y-56460824D01*
X73991012Y-56419213D01*
X73884367Y-56398000D01*
X73775633Y-56398000D01*
X73668988Y-56419213D01*
X73568530Y-56460824D01*
X73478120Y-56521234D01*
X73401234Y-56598120D01*
X73340824Y-56688530D01*
X73299213Y-56788988D01*
X73278000Y-56895633D01*
X73278000Y-57004367D01*
X73299213Y-57111012D01*
X73303039Y-57120249D01*
X73290824Y-57138530D01*
X73249213Y-57238988D01*
X73228000Y-57345633D01*
X73228000Y-57454367D01*
X73249213Y-57561012D01*
X73290824Y-57661470D01*
X73351234Y-57751880D01*
X73428120Y-57828766D01*
X73518530Y-57889176D01*
X73618988Y-57930787D01*
X73725633Y-57952000D01*
X73834367Y-57952000D01*
X73941012Y-57930787D01*
X74041470Y-57889176D01*
X74131880Y-57828766D01*
X74208766Y-57751880D01*
X74269176Y-57661470D01*
X74310787Y-57561012D01*
X74332000Y-57454367D01*
X74332000Y-57345633D01*
X74310787Y-57238988D01*
X74306961Y-57229751D01*
X74319176Y-57211470D01*
X74352980Y-57129859D01*
X74352981Y-63320143D01*
X74319176Y-63238530D01*
X74258766Y-63148120D01*
X74181880Y-63071234D01*
X74091470Y-63010824D01*
X73991012Y-62969213D01*
X73884367Y-62948000D01*
X73775633Y-62948000D01*
X73668988Y-62969213D01*
X73568530Y-63010824D01*
X73478120Y-63071234D01*
X73401234Y-63148120D01*
X73340824Y-63238530D01*
X73299213Y-63338988D01*
X73278000Y-63445633D01*
X73278000Y-63554367D01*
X73299213Y-63661012D01*
X73303039Y-63670249D01*
X73290824Y-63688530D01*
X73249213Y-63788988D01*
X73228000Y-63895633D01*
X73228000Y-64004367D01*
X73237177Y-64050501D01*
X73021011Y-64050501D01*
X73002499Y-64048678D01*
X72983987Y-64050501D01*
X72983980Y-64050501D01*
X72935553Y-64055271D01*
X72928593Y-64055956D01*
X72889321Y-64067869D01*
X72857529Y-64077513D01*
X72792036Y-64112520D01*
X72734630Y-64159632D01*
X72722827Y-64174014D01*
X66207000Y-70689842D01*
X66207000Y-65956158D01*
X66586159Y-65577000D01*
X69842448Y-65577000D01*
X69849213Y-65611012D01*
X69890824Y-65711470D01*
X69951234Y-65801880D01*
X70028120Y-65878766D01*
X70118530Y-65939176D01*
X70218988Y-65980787D01*
X70325633Y-66002000D01*
X70434367Y-66002000D01*
X70541012Y-65980787D01*
X70641470Y-65939176D01*
X70731880Y-65878766D01*
X70808766Y-65801880D01*
X70869176Y-65711470D01*
X70910787Y-65611012D01*
X70932000Y-65504367D01*
X70932000Y-65395633D01*
X70910787Y-65288988D01*
X70869176Y-65188530D01*
X70808766Y-65098120D01*
X70757000Y-65046354D01*
X70757000Y-62103646D01*
X70808766Y-62051880D01*
X70869176Y-61961470D01*
X70910787Y-61861012D01*
X70932000Y-61754367D01*
X70932000Y-61645633D01*
X70910787Y-61538988D01*
X70869176Y-61438530D01*
X70808766Y-61348120D01*
X70731880Y-61271234D01*
X70641470Y-61210824D01*
X70541012Y-61169213D01*
X70434367Y-61148000D01*
X70325633Y-61148000D01*
X70218988Y-61169213D01*
X70118530Y-61210824D01*
X70028120Y-61271234D01*
X69951234Y-61348120D01*
X69890824Y-61438530D01*
X69849213Y-61538988D01*
X69828000Y-61645633D01*
X69828000Y-61754367D01*
X69849213Y-61861012D01*
X69890824Y-61961470D01*
X69951234Y-62051880D01*
X70003001Y-62103647D01*
X70003000Y-64823000D01*
X66448508Y-64823000D01*
X66429999Y-64821177D01*
X66411490Y-64823000D01*
X66411481Y-64823000D01*
X66356095Y-64828455D01*
X66285030Y-64850012D01*
X66219537Y-64885019D01*
X66219535Y-64885020D01*
X66219536Y-64885020D01*
X66177872Y-64919213D01*
X66162131Y-64932131D01*
X66150328Y-64946513D01*
X65830000Y-65266841D01*
X64907000Y-64343842D01*
X64907000Y-62452000D01*
X64984367Y-62452000D01*
X65091012Y-62430787D01*
X65191470Y-62389176D01*
X65281880Y-62328766D01*
X65358766Y-62251880D01*
X65419176Y-62161470D01*
X65423099Y-62152000D01*
X65484367Y-62152000D01*
X65591012Y-62130787D01*
X65691470Y-62089176D01*
X65781880Y-62028766D01*
X65858766Y-61951880D01*
X65919176Y-61861470D01*
X65960787Y-61761012D01*
X65982000Y-61654367D01*
X65982000Y-61545633D01*
X65960787Y-61438988D01*
X65919176Y-61338530D01*
X65858766Y-61248120D01*
X65781880Y-61171234D01*
X65691470Y-61110824D01*
X65591012Y-61069213D01*
X65484367Y-61048000D01*
X65375633Y-61048000D01*
X65268988Y-61069213D01*
X65168530Y-61110824D01*
X65078120Y-61171234D01*
X65001234Y-61248120D01*
X64940824Y-61338530D01*
X64936901Y-61348000D01*
X64907000Y-61348000D01*
X64907000Y-58768519D01*
X64908824Y-58750000D01*
X64901545Y-58676094D01*
X64879988Y-58605030D01*
X64853230Y-58554970D01*
X64844981Y-58539537D01*
X64797869Y-58482131D01*
X64783487Y-58470328D01*
X64302335Y-57989176D01*
X63957000Y-57643842D01*
X63957000Y-56945633D01*
X66178000Y-56945633D01*
X66178000Y-57054367D01*
X66199213Y-57161012D01*
X66236073Y-57250000D01*
X66199213Y-57338988D01*
X66178000Y-57445633D01*
X66178000Y-57554367D01*
X66199213Y-57661012D01*
X66240824Y-57761470D01*
X66301234Y-57851880D01*
X66378120Y-57928766D01*
X66468530Y-57989176D01*
X66568988Y-58030787D01*
X66675633Y-58052000D01*
X66784367Y-58052000D01*
X66891012Y-58030787D01*
X66991470Y-57989176D01*
X67081880Y-57928766D01*
X67158766Y-57851880D01*
X67219176Y-57761470D01*
X67260787Y-57661012D01*
X67282000Y-57554367D01*
X67282000Y-57445633D01*
X67260787Y-57338988D01*
X67223927Y-57250000D01*
X67260787Y-57161012D01*
X67282000Y-57054367D01*
X67282000Y-56945633D01*
X67260787Y-56838988D01*
X67219176Y-56738530D01*
X67158766Y-56648120D01*
X67081880Y-56571234D01*
X66991470Y-56510824D01*
X66891012Y-56469213D01*
X66784367Y-56448000D01*
X66675633Y-56448000D01*
X66568988Y-56469213D01*
X66468530Y-56510824D01*
X66378120Y-56571234D01*
X66301234Y-56648120D01*
X66240824Y-56738530D01*
X66199213Y-56838988D01*
X66178000Y-56945633D01*
X63957000Y-56945633D01*
X63957000Y-55818508D01*
X63958823Y-55799999D01*
X63957000Y-55781490D01*
X63957000Y-55781481D01*
X63951545Y-55726095D01*
X63929988Y-55655030D01*
X63894981Y-55589537D01*
X63847869Y-55532131D01*
X63833481Y-55520323D01*
X63458791Y-55145633D01*
X71578000Y-55145633D01*
X71578000Y-55254367D01*
X71599213Y-55361012D01*
X71640824Y-55461470D01*
X71701234Y-55551880D01*
X71778120Y-55628766D01*
X71868530Y-55689176D01*
X71968988Y-55730787D01*
X72075633Y-55752000D01*
X72184367Y-55752000D01*
X72291012Y-55730787D01*
X72391470Y-55689176D01*
X72481880Y-55628766D01*
X72558766Y-55551880D01*
X72619176Y-55461470D01*
X72660787Y-55361012D01*
X72682000Y-55254367D01*
X72682000Y-55145633D01*
X72660787Y-55038988D01*
X72619176Y-54938530D01*
X72558766Y-54848120D01*
X72481880Y-54771234D01*
X72391470Y-54710824D01*
X72291012Y-54669213D01*
X72184367Y-54648000D01*
X72075633Y-54648000D01*
X71968988Y-54669213D01*
X71868530Y-54710824D01*
X71778120Y-54771234D01*
X71701234Y-54848120D01*
X71640824Y-54938530D01*
X71599213Y-55038988D01*
X71578000Y-55145633D01*
X63458791Y-55145633D01*
X62166995Y-53853837D01*
X62241769Y-53673318D01*
X62287000Y-53445924D01*
X62287000Y-53445633D01*
X64428000Y-53445633D01*
X64428000Y-53554367D01*
X64449213Y-53661012D01*
X64490824Y-53761470D01*
X64551234Y-53851880D01*
X64628120Y-53928766D01*
X64718530Y-53989176D01*
X64818988Y-54030787D01*
X64925633Y-54052000D01*
X65034367Y-54052000D01*
X65141012Y-54030787D01*
X65241470Y-53989176D01*
X65331880Y-53928766D01*
X65408766Y-53851880D01*
X65442095Y-53802000D01*
X65534367Y-53802000D01*
X65641012Y-53780787D01*
X65741470Y-53739176D01*
X65831880Y-53678766D01*
X65908766Y-53601880D01*
X65969176Y-53511470D01*
X66010787Y-53411012D01*
X66032000Y-53304367D01*
X66032000Y-53195633D01*
X66010787Y-53088988D01*
X65969176Y-52988530D01*
X65908766Y-52898120D01*
X65831880Y-52821234D01*
X65741470Y-52760824D01*
X65641012Y-52719213D01*
X65534367Y-52698000D01*
X65425633Y-52698000D01*
X65318988Y-52719213D01*
X65218530Y-52760824D01*
X65128120Y-52821234D01*
X65051234Y-52898120D01*
X65017905Y-52948000D01*
X64925633Y-52948000D01*
X64818988Y-52969213D01*
X64718530Y-53010824D01*
X64628120Y-53071234D01*
X64551234Y-53148120D01*
X64490824Y-53238530D01*
X64449213Y-53338988D01*
X64428000Y-53445633D01*
X62287000Y-53445633D01*
X62287000Y-53214076D01*
X62241769Y-52986682D01*
X62153044Y-52772481D01*
X62024236Y-52579706D01*
X61860294Y-52415764D01*
X61667519Y-52286956D01*
X61453318Y-52198231D01*
X61225924Y-52153000D01*
X60994076Y-52153000D01*
X60766682Y-52198231D01*
X60552481Y-52286956D01*
X60359706Y-52415764D01*
X60195764Y-52579706D01*
X60066956Y-52772481D01*
X59978231Y-52986682D01*
X59933000Y-53214076D01*
X58922000Y-53214076D01*
X58922000Y-52145633D01*
X64378000Y-52145633D01*
X64378000Y-52254367D01*
X64399213Y-52361012D01*
X64440824Y-52461470D01*
X64501234Y-52551880D01*
X64578120Y-52628766D01*
X64668530Y-52689176D01*
X64768988Y-52730787D01*
X64875633Y-52752000D01*
X64984367Y-52752000D01*
X65091012Y-52730787D01*
X65191470Y-52689176D01*
X65281880Y-52628766D01*
X65358766Y-52551880D01*
X65419176Y-52461470D01*
X65423099Y-52452000D01*
X65484367Y-52452000D01*
X65591012Y-52430787D01*
X65691470Y-52389176D01*
X65781880Y-52328766D01*
X65858766Y-52251880D01*
X65919176Y-52161470D01*
X65960787Y-52061012D01*
X65982000Y-51954367D01*
X65982000Y-51845633D01*
X65960787Y-51738988D01*
X65919176Y-51638530D01*
X65858766Y-51548120D01*
X65781880Y-51471234D01*
X65743566Y-51445633D01*
X71578000Y-51445633D01*
X71578000Y-51554367D01*
X71599213Y-51661012D01*
X71640824Y-51761470D01*
X71701234Y-51851880D01*
X71778120Y-51928766D01*
X71868530Y-51989176D01*
X71968988Y-52030787D01*
X72075633Y-52052000D01*
X72184367Y-52052000D01*
X72291012Y-52030787D01*
X72391470Y-51989176D01*
X72481880Y-51928766D01*
X72558766Y-51851880D01*
X72619176Y-51761470D01*
X72660787Y-51661012D01*
X72682000Y-51554367D01*
X72682000Y-51445633D01*
X72660787Y-51338988D01*
X72619176Y-51238530D01*
X72558766Y-51148120D01*
X72481880Y-51071234D01*
X72391470Y-51010824D01*
X72291012Y-50969213D01*
X72184367Y-50948000D01*
X72075633Y-50948000D01*
X71968988Y-50969213D01*
X71868530Y-51010824D01*
X71778120Y-51071234D01*
X71701234Y-51148120D01*
X71640824Y-51238530D01*
X71599213Y-51338988D01*
X71578000Y-51445633D01*
X65743566Y-51445633D01*
X65691470Y-51410824D01*
X65591012Y-51369213D01*
X65484367Y-51348000D01*
X65375633Y-51348000D01*
X65268988Y-51369213D01*
X65168530Y-51410824D01*
X65078120Y-51471234D01*
X65001234Y-51548120D01*
X64940824Y-51638530D01*
X64936901Y-51648000D01*
X64875633Y-51648000D01*
X64768988Y-51669213D01*
X64668530Y-51710824D01*
X64578120Y-51771234D01*
X64501234Y-51848120D01*
X64440824Y-51938530D01*
X64399213Y-52038988D01*
X64378000Y-52145633D01*
X58922000Y-52145633D01*
X58922000Y-50674076D01*
X59933000Y-50674076D01*
X59933000Y-50905924D01*
X59978231Y-51133318D01*
X60066956Y-51347519D01*
X60195764Y-51540294D01*
X60359706Y-51704236D01*
X60552481Y-51833044D01*
X60766682Y-51921769D01*
X60994076Y-51967000D01*
X61225924Y-51967000D01*
X61453318Y-51921769D01*
X61667519Y-51833044D01*
X61860294Y-51704236D01*
X62024236Y-51540294D01*
X62153044Y-51347519D01*
X62241769Y-51133318D01*
X62287000Y-50905924D01*
X62287000Y-50674076D01*
X62241769Y-50446682D01*
X62153044Y-50232481D01*
X62024236Y-50039706D01*
X61860294Y-49875764D01*
X61667519Y-49746956D01*
X61453318Y-49658231D01*
X61225924Y-49613000D01*
X60994076Y-49613000D01*
X60766682Y-49658231D01*
X60552481Y-49746956D01*
X60359706Y-49875764D01*
X60195764Y-50039706D01*
X60066956Y-50232481D01*
X59978231Y-50446682D01*
X59933000Y-50674076D01*
X58922000Y-50674076D01*
X58922000Y-48134076D01*
X59933000Y-48134076D01*
X59933000Y-48365924D01*
X59978231Y-48593318D01*
X60066956Y-48807519D01*
X60195764Y-49000294D01*
X60359706Y-49164236D01*
X60552481Y-49293044D01*
X60766682Y-49381769D01*
X60994076Y-49427000D01*
X61225924Y-49427000D01*
X61453318Y-49381769D01*
X61667519Y-49293044D01*
X61860294Y-49164236D01*
X62024236Y-49000294D01*
X62153044Y-48807519D01*
X62241769Y-48593318D01*
X62287000Y-48365924D01*
X62287000Y-48134076D01*
X62241769Y-47906682D01*
X62236148Y-47893110D01*
X74908524Y-47893110D01*
X75029845Y-48123000D01*
X76223000Y-48123000D01*
X76223000Y-48103000D01*
X76477000Y-48103000D01*
X76477000Y-48123000D01*
X77670155Y-48123000D01*
X77791476Y-47893110D01*
X77746825Y-47745901D01*
X77621641Y-47483080D01*
X77447588Y-47249731D01*
X77231355Y-47054822D01*
X76981252Y-46905843D01*
X76932592Y-46888582D01*
X77200000Y-46888582D01*
X77264103Y-46882268D01*
X77325743Y-46863570D01*
X77382550Y-46833206D01*
X77432343Y-46792343D01*
X77473206Y-46742550D01*
X77503570Y-46685743D01*
X77522268Y-46624103D01*
X77528582Y-46560000D01*
X77528582Y-44860000D01*
X77522268Y-44795897D01*
X77503570Y-44734257D01*
X77473206Y-44677450D01*
X77432343Y-44627657D01*
X77382550Y-44586794D01*
X77325743Y-44556430D01*
X77264103Y-44537732D01*
X77200000Y-44531418D01*
X75500000Y-44531418D01*
X75435897Y-44537732D01*
X75374257Y-44556430D01*
X75317450Y-44586794D01*
X75267657Y-44627657D01*
X75226794Y-44677450D01*
X75196430Y-44734257D01*
X75177732Y-44795897D01*
X75171418Y-44860000D01*
X75171418Y-46560000D01*
X75177732Y-46624103D01*
X75196430Y-46685743D01*
X75226794Y-46742550D01*
X75267657Y-46792343D01*
X75317450Y-46833206D01*
X75374257Y-46863570D01*
X75435897Y-46882268D01*
X75500000Y-46888582D01*
X75767408Y-46888582D01*
X75718748Y-46905843D01*
X75468645Y-47054822D01*
X75252412Y-47249731D01*
X75078359Y-47483080D01*
X74953175Y-47745901D01*
X74908524Y-47893110D01*
X62236148Y-47893110D01*
X62153044Y-47692481D01*
X62024236Y-47499706D01*
X61860294Y-47335764D01*
X61667519Y-47206956D01*
X61453318Y-47118231D01*
X61225924Y-47073000D01*
X60994076Y-47073000D01*
X60766682Y-47118231D01*
X60552481Y-47206956D01*
X60359706Y-47335764D01*
X60195764Y-47499706D01*
X60066956Y-47692481D01*
X59978231Y-47906682D01*
X59933000Y-48134076D01*
X58922000Y-48134076D01*
X58922000Y-44860000D01*
X59931418Y-44860000D01*
X59931418Y-46560000D01*
X59937732Y-46624103D01*
X59956430Y-46685743D01*
X59986794Y-46742550D01*
X60027657Y-46792343D01*
X60077450Y-46833206D01*
X60134257Y-46863570D01*
X60195897Y-46882268D01*
X60260000Y-46888582D01*
X61960000Y-46888582D01*
X62024103Y-46882268D01*
X62085743Y-46863570D01*
X62142550Y-46833206D01*
X62192343Y-46792343D01*
X62233206Y-46742550D01*
X62263570Y-46685743D01*
X62282268Y-46624103D01*
X62288582Y-46560000D01*
X62288582Y-44860000D01*
X62282268Y-44795897D01*
X62263570Y-44734257D01*
X62233206Y-44677450D01*
X62192343Y-44627657D01*
X62142550Y-44586794D01*
X62085743Y-44556430D01*
X62024103Y-44537732D01*
X61960000Y-44531418D01*
X60260000Y-44531418D01*
X60195897Y-44537732D01*
X60134257Y-44556430D01*
X60077450Y-44586794D01*
X60027657Y-44627657D01*
X59986794Y-44677450D01*
X59956430Y-44734257D01*
X59937732Y-44795897D01*
X59931418Y-44860000D01*
X58922000Y-44860000D01*
X58922000Y-43522000D01*
X78538000Y-43522000D01*
X78538001Y-111398000D01*
G37*
%TD.AperFunction*%
D15*
X64440824Y-67011470D02*
X64501234Y-67101880D01*
X64578120Y-67178766D01*
X64668530Y-67239176D01*
X64768988Y-67280787D01*
X64875633Y-67302000D01*
X64984367Y-67302000D01*
X65091012Y-67280787D01*
X65191470Y-67239176D01*
X65281880Y-67178766D01*
X65358766Y-67101880D01*
X65392095Y-67052000D01*
X65453000Y-67052000D01*
X65453001Y-75125835D01*
X65368530Y-75160824D01*
X65278120Y-75221234D01*
X65201234Y-75298120D01*
X65140824Y-75388530D01*
X65099213Y-75488988D01*
X65078000Y-75595633D01*
X65078000Y-75704367D01*
X65099213Y-75811012D01*
X65140824Y-75911470D01*
X65201234Y-76001880D01*
X65278120Y-76078766D01*
X65368530Y-76139176D01*
X65468988Y-76180787D01*
X65575633Y-76202000D01*
X65684367Y-76202000D01*
X65703001Y-76198294D01*
X65703001Y-76642024D01*
X65701147Y-76640503D01*
X65658769Y-76598125D01*
X65658766Y-76598120D01*
X65581880Y-76521234D01*
X65559207Y-76506084D01*
X65538157Y-76488809D01*
X65514140Y-76475972D01*
X65491470Y-76460824D01*
X65466281Y-76450390D01*
X65442262Y-76437552D01*
X65416202Y-76429647D01*
X65391012Y-76419213D01*
X65364267Y-76413893D01*
X65338210Y-76405989D01*
X65311111Y-76403320D01*
X65284367Y-76398000D01*
X65257106Y-76398000D01*
X65230000Y-76395330D01*
X65202894Y-76398000D01*
X65175633Y-76398000D01*
X65148889Y-76403320D01*
X65121790Y-76405989D01*
X65095733Y-76413893D01*
X65068988Y-76419213D01*
X65043798Y-76429647D01*
X65017738Y-76437552D01*
X64993719Y-76450390D01*
X64968530Y-76460824D01*
X64945860Y-76475972D01*
X64921843Y-76488809D01*
X64900793Y-76506084D01*
X64878120Y-76521234D01*
X64858837Y-76540517D01*
X64837790Y-76557790D01*
X64820517Y-76578837D01*
X64801234Y-76598120D01*
X64786084Y-76620793D01*
X64768809Y-76641843D01*
X64755972Y-76665860D01*
X64740824Y-76688530D01*
X64730390Y-76713719D01*
X64717552Y-76737738D01*
X64709647Y-76763798D01*
X64699213Y-76788988D01*
X64693893Y-76815733D01*
X64685989Y-76841790D01*
X64683320Y-76868889D01*
X64678000Y-76895633D01*
X64678000Y-76922894D01*
X64675330Y-76950000D01*
X64678000Y-76977106D01*
X64678000Y-77004367D01*
X64683320Y-77031111D01*
X64685989Y-77058210D01*
X64693893Y-77084267D01*
X64699213Y-77111012D01*
X64709647Y-77136202D01*
X64717552Y-77162262D01*
X64730390Y-77186281D01*
X64740824Y-77211470D01*
X64755972Y-77234140D01*
X64768809Y-77258157D01*
X64778000Y-77269356D01*
X64778001Y-79172884D01*
X64775330Y-79200000D01*
X64785989Y-79308210D01*
X64817552Y-79412262D01*
X64853584Y-79479673D01*
X64868810Y-79508158D01*
X64937790Y-79592211D01*
X64958852Y-79609496D01*
X66181202Y-80831848D01*
X66118988Y-80844223D01*
X66018530Y-80885834D01*
X65928120Y-80946244D01*
X65851234Y-81023130D01*
X65790824Y-81113540D01*
X65749213Y-81213998D01*
X65728000Y-81320643D01*
X65728000Y-81429377D01*
X65749213Y-81536022D01*
X65790824Y-81636480D01*
X65820713Y-81681213D01*
X65815824Y-81688530D01*
X65774213Y-81788988D01*
X65753000Y-81895633D01*
X65753000Y-82004367D01*
X65774213Y-82111012D01*
X65815824Y-82211470D01*
X65876234Y-82301880D01*
X65928001Y-82353647D01*
X65928001Y-82468840D01*
X65503744Y-82893098D01*
X65481880Y-82871234D01*
X65391470Y-82810824D01*
X65291012Y-82769213D01*
X65184367Y-82748000D01*
X65075633Y-82748000D01*
X64968988Y-82769213D01*
X64868530Y-82810824D01*
X64778120Y-82871234D01*
X64701234Y-82948120D01*
X64640824Y-83038530D01*
X64599213Y-83138988D01*
X64578000Y-83245633D01*
X64578000Y-83354367D01*
X64599213Y-83461012D01*
X64640824Y-83561470D01*
X64701234Y-83651880D01*
X64778120Y-83728766D01*
X64868530Y-83789176D01*
X64968988Y-83830787D01*
X65075633Y-83852000D01*
X65184367Y-83852000D01*
X65253000Y-83838348D01*
X65253000Y-84789842D01*
X64431999Y-83968841D01*
X64431999Y-81745633D01*
X64478000Y-81745633D01*
X64478000Y-81854367D01*
X64499213Y-81961012D01*
X64540824Y-82061470D01*
X64601234Y-82151880D01*
X64678120Y-82228766D01*
X64768530Y-82289176D01*
X64868988Y-82330787D01*
X64975633Y-82352000D01*
X65084367Y-82352000D01*
X65191012Y-82330787D01*
X65291470Y-82289176D01*
X65381880Y-82228766D01*
X65458766Y-82151880D01*
X65519176Y-82061470D01*
X65560787Y-81961012D01*
X65582000Y-81854367D01*
X65582000Y-81745633D01*
X65560787Y-81638988D01*
X65519176Y-81538530D01*
X65458766Y-81448120D01*
X65381880Y-81371234D01*
X65291470Y-81310824D01*
X65191012Y-81269213D01*
X65084367Y-81248000D01*
X64975633Y-81248000D01*
X64868988Y-81269213D01*
X64768530Y-81310824D01*
X64678120Y-81371234D01*
X64601234Y-81448120D01*
X64540824Y-81538530D01*
X64499213Y-81638988D01*
X64478000Y-81745633D01*
X64431999Y-81745633D01*
X64431999Y-66990165D01*
X64440824Y-67011470D01*
%TA.AperFunction,Conductor*%
D14*
G36*
X64440824Y-67011470D02*
G01*
X64501234Y-67101880D01*
X64578120Y-67178766D01*
X64668530Y-67239176D01*
X64768988Y-67280787D01*
X64875633Y-67302000D01*
X64984367Y-67302000D01*
X65091012Y-67280787D01*
X65191470Y-67239176D01*
X65281880Y-67178766D01*
X65358766Y-67101880D01*
X65392095Y-67052000D01*
X65453000Y-67052000D01*
X65453001Y-75125835D01*
X65368530Y-75160824D01*
X65278120Y-75221234D01*
X65201234Y-75298120D01*
X65140824Y-75388530D01*
X65099213Y-75488988D01*
X65078000Y-75595633D01*
X65078000Y-75704367D01*
X65099213Y-75811012D01*
X65140824Y-75911470D01*
X65201234Y-76001880D01*
X65278120Y-76078766D01*
X65368530Y-76139176D01*
X65468988Y-76180787D01*
X65575633Y-76202000D01*
X65684367Y-76202000D01*
X65703001Y-76198294D01*
X65703001Y-76642024D01*
X65701147Y-76640503D01*
X65658769Y-76598125D01*
X65658766Y-76598120D01*
X65581880Y-76521234D01*
X65559207Y-76506084D01*
X65538157Y-76488809D01*
X65514140Y-76475972D01*
X65491470Y-76460824D01*
X65466281Y-76450390D01*
X65442262Y-76437552D01*
X65416202Y-76429647D01*
X65391012Y-76419213D01*
X65364267Y-76413893D01*
X65338210Y-76405989D01*
X65311111Y-76403320D01*
X65284367Y-76398000D01*
X65257106Y-76398000D01*
X65230000Y-76395330D01*
X65202894Y-76398000D01*
X65175633Y-76398000D01*
X65148889Y-76403320D01*
X65121790Y-76405989D01*
X65095733Y-76413893D01*
X65068988Y-76419213D01*
X65043798Y-76429647D01*
X65017738Y-76437552D01*
X64993719Y-76450390D01*
X64968530Y-76460824D01*
X64945860Y-76475972D01*
X64921843Y-76488809D01*
X64900793Y-76506084D01*
X64878120Y-76521234D01*
X64858837Y-76540517D01*
X64837790Y-76557790D01*
X64820517Y-76578837D01*
X64801234Y-76598120D01*
X64786084Y-76620793D01*
X64768809Y-76641843D01*
X64755972Y-76665860D01*
X64740824Y-76688530D01*
X64730390Y-76713719D01*
X64717552Y-76737738D01*
X64709647Y-76763798D01*
X64699213Y-76788988D01*
X64693893Y-76815733D01*
X64685989Y-76841790D01*
X64683320Y-76868889D01*
X64678000Y-76895633D01*
X64678000Y-76922894D01*
X64675330Y-76950000D01*
X64678000Y-76977106D01*
X64678000Y-77004367D01*
X64683320Y-77031111D01*
X64685989Y-77058210D01*
X64693893Y-77084267D01*
X64699213Y-77111012D01*
X64709647Y-77136202D01*
X64717552Y-77162262D01*
X64730390Y-77186281D01*
X64740824Y-77211470D01*
X64755972Y-77234140D01*
X64768809Y-77258157D01*
X64778000Y-77269356D01*
X64778001Y-79172884D01*
X64775330Y-79200000D01*
X64785989Y-79308210D01*
X64817552Y-79412262D01*
X64853584Y-79479673D01*
X64868810Y-79508158D01*
X64937790Y-79592211D01*
X64958852Y-79609496D01*
X66181202Y-80831848D01*
X66118988Y-80844223D01*
X66018530Y-80885834D01*
X65928120Y-80946244D01*
X65851234Y-81023130D01*
X65790824Y-81113540D01*
X65749213Y-81213998D01*
X65728000Y-81320643D01*
X65728000Y-81429377D01*
X65749213Y-81536022D01*
X65790824Y-81636480D01*
X65820713Y-81681213D01*
X65815824Y-81688530D01*
X65774213Y-81788988D01*
X65753000Y-81895633D01*
X65753000Y-82004367D01*
X65774213Y-82111012D01*
X65815824Y-82211470D01*
X65876234Y-82301880D01*
X65928001Y-82353647D01*
X65928001Y-82468840D01*
X65503744Y-82893098D01*
X65481880Y-82871234D01*
X65391470Y-82810824D01*
X65291012Y-82769213D01*
X65184367Y-82748000D01*
X65075633Y-82748000D01*
X64968988Y-82769213D01*
X64868530Y-82810824D01*
X64778120Y-82871234D01*
X64701234Y-82948120D01*
X64640824Y-83038530D01*
X64599213Y-83138988D01*
X64578000Y-83245633D01*
X64578000Y-83354367D01*
X64599213Y-83461012D01*
X64640824Y-83561470D01*
X64701234Y-83651880D01*
X64778120Y-83728766D01*
X64868530Y-83789176D01*
X64968988Y-83830787D01*
X65075633Y-83852000D01*
X65184367Y-83852000D01*
X65253000Y-83838348D01*
X65253000Y-84789842D01*
X64431999Y-83968841D01*
X64431999Y-81745633D01*
X64478000Y-81745633D01*
X64478000Y-81854367D01*
X64499213Y-81961012D01*
X64540824Y-82061470D01*
X64601234Y-82151880D01*
X64678120Y-82228766D01*
X64768530Y-82289176D01*
X64868988Y-82330787D01*
X64975633Y-82352000D01*
X65084367Y-82352000D01*
X65191012Y-82330787D01*
X65291470Y-82289176D01*
X65381880Y-82228766D01*
X65458766Y-82151880D01*
X65519176Y-82061470D01*
X65560787Y-81961012D01*
X65582000Y-81854367D01*
X65582000Y-81745633D01*
X65560787Y-81638988D01*
X65519176Y-81538530D01*
X65458766Y-81448120D01*
X65381880Y-81371234D01*
X65291470Y-81310824D01*
X65191012Y-81269213D01*
X65084367Y-81248000D01*
X64975633Y-81248000D01*
X64868988Y-81269213D01*
X64768530Y-81310824D01*
X64678120Y-81371234D01*
X64601234Y-81448120D01*
X64540824Y-81538530D01*
X64499213Y-81638988D01*
X64478000Y-81745633D01*
X64431999Y-81745633D01*
X64431999Y-66990165D01*
X64440824Y-67011470D01*
G37*
%TD.AperFunction*%
D15*
X67253001Y-75298000D02*
X67225633Y-75298000D01*
X67118988Y-75319213D01*
X67018530Y-75360824D01*
X66928120Y-75421234D01*
X66851234Y-75498120D01*
X66790824Y-75588530D01*
X66749213Y-75688988D01*
X66728000Y-75795633D01*
X66728000Y-75904367D01*
X66749213Y-76011012D01*
X66790824Y-76111470D01*
X66851234Y-76201880D01*
X66928120Y-76278766D01*
X67018530Y-76339176D01*
X67118988Y-76380787D01*
X67225633Y-76402000D01*
X67298842Y-76402000D01*
X67453000Y-76556158D01*
X67453000Y-78289841D01*
X67082000Y-77918841D01*
X67082000Y-77845633D01*
X67060787Y-77738988D01*
X67019176Y-77638530D01*
X66958766Y-77548120D01*
X66881880Y-77471234D01*
X66791470Y-77410824D01*
X66691012Y-77369213D01*
X66584367Y-77348000D01*
X66511158Y-77348000D01*
X66457000Y-77293842D01*
X66457000Y-71506158D01*
X67253000Y-70710158D01*
X67253001Y-75298000D01*
%TA.AperFunction,Conductor*%
D14*
G36*
X67253001Y-75298000D02*
G01*
X67225633Y-75298000D01*
X67118988Y-75319213D01*
X67018530Y-75360824D01*
X66928120Y-75421234D01*
X66851234Y-75498120D01*
X66790824Y-75588530D01*
X66749213Y-75688988D01*
X66728000Y-75795633D01*
X66728000Y-75904367D01*
X66749213Y-76011012D01*
X66790824Y-76111470D01*
X66851234Y-76201880D01*
X66928120Y-76278766D01*
X67018530Y-76339176D01*
X67118988Y-76380787D01*
X67225633Y-76402000D01*
X67298842Y-76402000D01*
X67453000Y-76556158D01*
X67453000Y-78289841D01*
X67082000Y-77918841D01*
X67082000Y-77845633D01*
X67060787Y-77738988D01*
X67019176Y-77638530D01*
X66958766Y-77548120D01*
X66881880Y-77471234D01*
X66791470Y-77410824D01*
X66691012Y-77369213D01*
X66584367Y-77348000D01*
X66511158Y-77348000D01*
X66457000Y-77293842D01*
X66457000Y-71506158D01*
X67253000Y-70710158D01*
X67253001Y-75298000D01*
G37*
%TD.AperFunction*%
%TD*%
M02*
