%TF.GenerationSoftware,KiCad,Pcbnew,(5.1.7-0-10_14)*%
%TF.CreationDate,2020-11-23T16:09:30+00:00*%
%TF.ProjectId,carrier,63617272-6965-4722-9e6b-696361645f70,0.1*%
%TF.SameCoordinates,Original*%
%TF.FileFunction,Paste,Top*%
%TF.FilePolarity,Positive*%
%FSLAX46Y46*%
G04 Gerber Fmt 4.6, Leading zero omitted, Abs format (unit mm)*
G04 Created by KiCad (PCBNEW (5.1.7-0-10_14)) date 2020-11-23 16:09:30*
%MOMM*%
%LPD*%
G01*
G04 APERTURE LIST*
%ADD10R,1.500000X1.400000*%
%ADD11R,0.400000X1.900000*%
%ADD12R,0.960000X0.550000*%
%ADD13C,0.180000*%
G04 APERTURE END LIST*
%TO.C,U2*%
G36*
G01*
X65880000Y-94780000D02*
X65880000Y-95030000D01*
G75*
G02*
X65755000Y-95155000I-125000J0D01*
G01*
X64505000Y-95155000D01*
G75*
G02*
X64380000Y-95030000I0J125000D01*
G01*
X64380000Y-94780000D01*
G75*
G02*
X64505000Y-94655000I125000J0D01*
G01*
X65755000Y-94655000D01*
G75*
G02*
X65880000Y-94780000I0J-125000D01*
G01*
G37*
G36*
G01*
X65880000Y-93510000D02*
X65880000Y-93760000D01*
G75*
G02*
X65755000Y-93885000I-125000J0D01*
G01*
X64505000Y-93885000D01*
G75*
G02*
X64380000Y-93760000I0J125000D01*
G01*
X64380000Y-93510000D01*
G75*
G02*
X64505000Y-93385000I125000J0D01*
G01*
X65755000Y-93385000D01*
G75*
G02*
X65880000Y-93510000I0J-125000D01*
G01*
G37*
G36*
G01*
X65880000Y-92240000D02*
X65880000Y-92490000D01*
G75*
G02*
X65755000Y-92615000I-125000J0D01*
G01*
X64505000Y-92615000D01*
G75*
G02*
X64380000Y-92490000I0J125000D01*
G01*
X64380000Y-92240000D01*
G75*
G02*
X64505000Y-92115000I125000J0D01*
G01*
X65755000Y-92115000D01*
G75*
G02*
X65880000Y-92240000I0J-125000D01*
G01*
G37*
G36*
G01*
X65880000Y-90970000D02*
X65880000Y-91220000D01*
G75*
G02*
X65755000Y-91345000I-125000J0D01*
G01*
X64505000Y-91345000D01*
G75*
G02*
X64380000Y-91220000I0J125000D01*
G01*
X64380000Y-90970000D01*
G75*
G02*
X64505000Y-90845000I125000J0D01*
G01*
X65755000Y-90845000D01*
G75*
G02*
X65880000Y-90970000I0J-125000D01*
G01*
G37*
G36*
G01*
X73080000Y-90970000D02*
X73080000Y-91220000D01*
G75*
G02*
X72955000Y-91345000I-125000J0D01*
G01*
X71705000Y-91345000D01*
G75*
G02*
X71580000Y-91220000I0J125000D01*
G01*
X71580000Y-90970000D01*
G75*
G02*
X71705000Y-90845000I125000J0D01*
G01*
X72955000Y-90845000D01*
G75*
G02*
X73080000Y-90970000I0J-125000D01*
G01*
G37*
G36*
G01*
X73080000Y-92240000D02*
X73080000Y-92490000D01*
G75*
G02*
X72955000Y-92615000I-125000J0D01*
G01*
X71705000Y-92615000D01*
G75*
G02*
X71580000Y-92490000I0J125000D01*
G01*
X71580000Y-92240000D01*
G75*
G02*
X71705000Y-92115000I125000J0D01*
G01*
X72955000Y-92115000D01*
G75*
G02*
X73080000Y-92240000I0J-125000D01*
G01*
G37*
G36*
G01*
X73080000Y-93510000D02*
X73080000Y-93760000D01*
G75*
G02*
X72955000Y-93885000I-125000J0D01*
G01*
X71705000Y-93885000D01*
G75*
G02*
X71580000Y-93760000I0J125000D01*
G01*
X71580000Y-93510000D01*
G75*
G02*
X71705000Y-93385000I125000J0D01*
G01*
X72955000Y-93385000D01*
G75*
G02*
X73080000Y-93510000I0J-125000D01*
G01*
G37*
G36*
G01*
X73080000Y-94780000D02*
X73080000Y-95030000D01*
G75*
G02*
X72955000Y-95155000I-125000J0D01*
G01*
X71705000Y-95155000D01*
G75*
G02*
X71580000Y-95030000I0J125000D01*
G01*
X71580000Y-94780000D01*
G75*
G02*
X71705000Y-94655000I125000J0D01*
G01*
X72955000Y-94655000D01*
G75*
G02*
X73080000Y-94780000I0J-125000D01*
G01*
G37*
%TD*%
D10*
%TO.C,X1*%
X70098400Y-74100000D03*
X67558400Y-74100000D03*
X67558400Y-71900000D03*
X70098400Y-71900000D03*
%TD*%
%TO.C,C16*%
G36*
G01*
X72327500Y-73245000D02*
X72032500Y-73245000D01*
G75*
G02*
X71910000Y-73122500I0J122500D01*
G01*
X71910000Y-72877500D01*
G75*
G02*
X72032500Y-72755000I122500J0D01*
G01*
X72327500Y-72755000D01*
G75*
G02*
X72450000Y-72877500I0J-122500D01*
G01*
X72450000Y-73122500D01*
G75*
G02*
X72327500Y-73245000I-122500J0D01*
G01*
G37*
G36*
G01*
X72327500Y-74215000D02*
X72032500Y-74215000D01*
G75*
G02*
X71910000Y-74092500I0J122500D01*
G01*
X71910000Y-73847500D01*
G75*
G02*
X72032500Y-73725000I122500J0D01*
G01*
X72327500Y-73725000D01*
G75*
G02*
X72450000Y-73847500I0J-122500D01*
G01*
X72450000Y-74092500D01*
G75*
G02*
X72327500Y-74215000I-122500J0D01*
G01*
G37*
%TD*%
%TO.C,C15*%
G36*
G01*
X72770000Y-83197500D02*
X72770000Y-82902500D01*
G75*
G02*
X72892500Y-82780000I122500J0D01*
G01*
X73137500Y-82780000D01*
G75*
G02*
X73260000Y-82902500I0J-122500D01*
G01*
X73260000Y-83197500D01*
G75*
G02*
X73137500Y-83320000I-122500J0D01*
G01*
X72892500Y-83320000D01*
G75*
G02*
X72770000Y-83197500I0J122500D01*
G01*
G37*
G36*
G01*
X71800000Y-83197500D02*
X71800000Y-82902500D01*
G75*
G02*
X71922500Y-82780000I122500J0D01*
G01*
X72167500Y-82780000D01*
G75*
G02*
X72290000Y-82902500I0J-122500D01*
G01*
X72290000Y-83197500D01*
G75*
G02*
X72167500Y-83320000I-122500J0D01*
G01*
X71922500Y-83320000D01*
G75*
G02*
X71800000Y-83197500I0J122500D01*
G01*
G37*
%TD*%
%TO.C,C14*%
G36*
G01*
X72720000Y-79422500D02*
X72720000Y-79127500D01*
G75*
G02*
X72842500Y-79005000I122500J0D01*
G01*
X73087500Y-79005000D01*
G75*
G02*
X73210000Y-79127500I0J-122500D01*
G01*
X73210000Y-79422500D01*
G75*
G02*
X73087500Y-79545000I-122500J0D01*
G01*
X72842500Y-79545000D01*
G75*
G02*
X72720000Y-79422500I0J122500D01*
G01*
G37*
G36*
G01*
X71750000Y-79422500D02*
X71750000Y-79127500D01*
G75*
G02*
X71872500Y-79005000I122500J0D01*
G01*
X72117500Y-79005000D01*
G75*
G02*
X72240000Y-79127500I0J-122500D01*
G01*
X72240000Y-79422500D01*
G75*
G02*
X72117500Y-79545000I-122500J0D01*
G01*
X71872500Y-79545000D01*
G75*
G02*
X71750000Y-79422500I0J122500D01*
G01*
G37*
%TD*%
%TO.C,C13*%
G36*
G01*
X64890000Y-82552500D02*
X64890000Y-82847500D01*
G75*
G02*
X64767500Y-82970000I-122500J0D01*
G01*
X64522500Y-82970000D01*
G75*
G02*
X64400000Y-82847500I0J122500D01*
G01*
X64400000Y-82552500D01*
G75*
G02*
X64522500Y-82430000I122500J0D01*
G01*
X64767500Y-82430000D01*
G75*
G02*
X64890000Y-82552500I0J-122500D01*
G01*
G37*
G36*
G01*
X65860000Y-82552500D02*
X65860000Y-82847500D01*
G75*
G02*
X65737500Y-82970000I-122500J0D01*
G01*
X65492500Y-82970000D01*
G75*
G02*
X65370000Y-82847500I0J122500D01*
G01*
X65370000Y-82552500D01*
G75*
G02*
X65492500Y-82430000I122500J0D01*
G01*
X65737500Y-82430000D01*
G75*
G02*
X65860000Y-82552500I0J-122500D01*
G01*
G37*
%TD*%
%TO.C,C12*%
G36*
G01*
X64890000Y-80952500D02*
X64890000Y-81247500D01*
G75*
G02*
X64767500Y-81370000I-122500J0D01*
G01*
X64522500Y-81370000D01*
G75*
G02*
X64400000Y-81247500I0J122500D01*
G01*
X64400000Y-80952500D01*
G75*
G02*
X64522500Y-80830000I122500J0D01*
G01*
X64767500Y-80830000D01*
G75*
G02*
X64890000Y-80952500I0J-122500D01*
G01*
G37*
G36*
G01*
X65860000Y-80952500D02*
X65860000Y-81247500D01*
G75*
G02*
X65737500Y-81370000I-122500J0D01*
G01*
X65492500Y-81370000D01*
G75*
G02*
X65370000Y-81247500I0J122500D01*
G01*
X65370000Y-80952500D01*
G75*
G02*
X65492500Y-80830000I122500J0D01*
G01*
X65737500Y-80830000D01*
G75*
G02*
X65860000Y-80952500I0J-122500D01*
G01*
G37*
%TD*%
%TO.C,C11*%
G36*
G01*
X71545000Y-76122500D02*
X71545000Y-75827500D01*
G75*
G02*
X71667500Y-75705000I122500J0D01*
G01*
X71912500Y-75705000D01*
G75*
G02*
X72035000Y-75827500I0J-122500D01*
G01*
X72035000Y-76122500D01*
G75*
G02*
X71912500Y-76245000I-122500J0D01*
G01*
X71667500Y-76245000D01*
G75*
G02*
X71545000Y-76122500I0J122500D01*
G01*
G37*
G36*
G01*
X70575000Y-76122500D02*
X70575000Y-75827500D01*
G75*
G02*
X70697500Y-75705000I122500J0D01*
G01*
X70942500Y-75705000D01*
G75*
G02*
X71065000Y-75827500I0J-122500D01*
G01*
X71065000Y-76122500D01*
G75*
G02*
X70942500Y-76245000I-122500J0D01*
G01*
X70697500Y-76245000D01*
G75*
G02*
X70575000Y-76122500I0J122500D01*
G01*
G37*
%TD*%
%TO.C,C10*%
G36*
G01*
X64975000Y-77352500D02*
X64975000Y-77647500D01*
G75*
G02*
X64852500Y-77770000I-122500J0D01*
G01*
X64607500Y-77770000D01*
G75*
G02*
X64485000Y-77647500I0J122500D01*
G01*
X64485000Y-77352500D01*
G75*
G02*
X64607500Y-77230000I122500J0D01*
G01*
X64852500Y-77230000D01*
G75*
G02*
X64975000Y-77352500I0J-122500D01*
G01*
G37*
G36*
G01*
X65945000Y-77352500D02*
X65945000Y-77647500D01*
G75*
G02*
X65822500Y-77770000I-122500J0D01*
G01*
X65577500Y-77770000D01*
G75*
G02*
X65455000Y-77647500I0J122500D01*
G01*
X65455000Y-77352500D01*
G75*
G02*
X65577500Y-77230000I122500J0D01*
G01*
X65822500Y-77230000D01*
G75*
G02*
X65945000Y-77352500I0J-122500D01*
G01*
G37*
%TD*%
%TO.C,C9*%
G36*
G01*
X72770000Y-82047500D02*
X72770000Y-81752500D01*
G75*
G02*
X72892500Y-81630000I122500J0D01*
G01*
X73137500Y-81630000D01*
G75*
G02*
X73260000Y-81752500I0J-122500D01*
G01*
X73260000Y-82047500D01*
G75*
G02*
X73137500Y-82170000I-122500J0D01*
G01*
X72892500Y-82170000D01*
G75*
G02*
X72770000Y-82047500I0J122500D01*
G01*
G37*
G36*
G01*
X71800000Y-82047500D02*
X71800000Y-81752500D01*
G75*
G02*
X71922500Y-81630000I122500J0D01*
G01*
X72167500Y-81630000D01*
G75*
G02*
X72290000Y-81752500I0J-122500D01*
G01*
X72290000Y-82047500D01*
G75*
G02*
X72167500Y-82170000I-122500J0D01*
G01*
X71922500Y-82170000D01*
G75*
G02*
X71800000Y-82047500I0J122500D01*
G01*
G37*
%TD*%
D11*
%TO.C,J1*%
X66190000Y-103150000D03*
X66190000Y-99850000D03*
X67190000Y-103150000D03*
X67190000Y-99850000D03*
X68190000Y-103150000D03*
X68190000Y-99850000D03*
X69190000Y-103150000D03*
X69190000Y-99850000D03*
X70190000Y-103150000D03*
X70190000Y-99850000D03*
X71190000Y-103150000D03*
X71190000Y-99850000D03*
%TD*%
D12*
%TO.C,U3*%
X69180000Y-67350000D03*
X69180000Y-65450000D03*
X71380000Y-65450000D03*
X71380000Y-66400000D03*
X71380000Y-67350000D03*
%TD*%
%TO.C,U6*%
X69180000Y-53300000D03*
X69180000Y-51400000D03*
X71380000Y-51400000D03*
X71380000Y-52350000D03*
X71380000Y-53300000D03*
%TD*%
%TO.C,U4*%
X69180000Y-63600000D03*
X69180000Y-61700000D03*
X71380000Y-61700000D03*
X71380000Y-62650000D03*
X71380000Y-63600000D03*
%TD*%
%TO.C,U5*%
X69180000Y-57050000D03*
X69180000Y-55150000D03*
X71380000Y-55150000D03*
X71380000Y-56100000D03*
X71380000Y-57050000D03*
%TD*%
D13*
%TO.C,U1*%
X67480000Y-77750000D03*
X67980000Y-77750000D03*
X68480000Y-77750000D03*
X68980000Y-77750000D03*
X69480000Y-77750000D03*
X69980000Y-77750000D03*
X67480000Y-78250000D03*
X67980000Y-78250000D03*
X68480000Y-78250000D03*
X68980000Y-78250000D03*
X69480000Y-78250000D03*
X69980000Y-78250000D03*
X67480000Y-78750000D03*
X67980000Y-78750000D03*
X68480000Y-78750000D03*
X68980000Y-78750000D03*
X69480000Y-78750000D03*
X69980000Y-78750000D03*
X67480000Y-79250000D03*
X67980000Y-79250000D03*
X68480000Y-79250000D03*
X68980000Y-79250000D03*
X69480000Y-79250000D03*
X69980000Y-79250000D03*
X67480000Y-79750000D03*
X67980000Y-79750000D03*
X68480000Y-79750000D03*
X68980000Y-79750000D03*
X69480000Y-79750000D03*
X69980000Y-79750000D03*
X67480000Y-80250000D03*
X67980000Y-80250000D03*
X68480000Y-80250000D03*
X68980000Y-80250000D03*
X69480000Y-80250000D03*
X69980000Y-80250000D03*
X67480000Y-80750000D03*
X67980000Y-80750000D03*
X68480000Y-80750000D03*
X68980000Y-80750000D03*
X69480000Y-80750000D03*
X69980000Y-80750000D03*
X67480000Y-81250000D03*
X67980000Y-81250000D03*
X68480000Y-81250000D03*
X68980000Y-81250000D03*
X69480000Y-81250000D03*
X69980000Y-81250000D03*
X67480000Y-81750000D03*
X67980000Y-81750000D03*
X68480000Y-81750000D03*
X68980000Y-81750000D03*
X69480000Y-81750000D03*
X69980000Y-81750000D03*
X67480000Y-82250000D03*
X67980000Y-82250000D03*
X68480000Y-82250000D03*
X68980000Y-82250000D03*
X69480000Y-82250000D03*
X69980000Y-82250000D03*
%TD*%
%TO.C,C8*%
G36*
G01*
X67761250Y-66304000D02*
X67298750Y-66304000D01*
G75*
G02*
X67105000Y-66110250I0J193750D01*
G01*
X67105000Y-65722750D01*
G75*
G02*
X67298750Y-65529000I193750J0D01*
G01*
X67761250Y-65529000D01*
G75*
G02*
X67955000Y-65722750I0J-193750D01*
G01*
X67955000Y-66110250D01*
G75*
G02*
X67761250Y-66304000I-193750J0D01*
G01*
G37*
G36*
G01*
X67761250Y-67879000D02*
X67298750Y-67879000D01*
G75*
G02*
X67105000Y-67685250I0J193750D01*
G01*
X67105000Y-67297750D01*
G75*
G02*
X67298750Y-67104000I193750J0D01*
G01*
X67761250Y-67104000D01*
G75*
G02*
X67955000Y-67297750I0J-193750D01*
G01*
X67955000Y-67685250D01*
G75*
G02*
X67761250Y-67879000I-193750J0D01*
G01*
G37*
%TD*%
%TO.C,C7*%
G36*
G01*
X67761250Y-52250000D02*
X67298750Y-52250000D01*
G75*
G02*
X67105000Y-52056250I0J193750D01*
G01*
X67105000Y-51668750D01*
G75*
G02*
X67298750Y-51475000I193750J0D01*
G01*
X67761250Y-51475000D01*
G75*
G02*
X67955000Y-51668750I0J-193750D01*
G01*
X67955000Y-52056250D01*
G75*
G02*
X67761250Y-52250000I-193750J0D01*
G01*
G37*
G36*
G01*
X67761250Y-53825000D02*
X67298750Y-53825000D01*
G75*
G02*
X67105000Y-53631250I0J193750D01*
G01*
X67105000Y-53243750D01*
G75*
G02*
X67298750Y-53050000I193750J0D01*
G01*
X67761250Y-53050000D01*
G75*
G02*
X67955000Y-53243750I0J-193750D01*
G01*
X67955000Y-53631250D01*
G75*
G02*
X67761250Y-53825000I-193750J0D01*
G01*
G37*
%TD*%
%TO.C,C6*%
G36*
G01*
X73261250Y-62550000D02*
X72798750Y-62550000D01*
G75*
G02*
X72605000Y-62356250I0J193750D01*
G01*
X72605000Y-61968750D01*
G75*
G02*
X72798750Y-61775000I193750J0D01*
G01*
X73261250Y-61775000D01*
G75*
G02*
X73455000Y-61968750I0J-193750D01*
G01*
X73455000Y-62356250D01*
G75*
G02*
X73261250Y-62550000I-193750J0D01*
G01*
G37*
G36*
G01*
X73261250Y-64125000D02*
X72798750Y-64125000D01*
G75*
G02*
X72605000Y-63931250I0J193750D01*
G01*
X72605000Y-63543750D01*
G75*
G02*
X72798750Y-63350000I193750J0D01*
G01*
X73261250Y-63350000D01*
G75*
G02*
X73455000Y-63543750I0J-193750D01*
G01*
X73455000Y-63931250D01*
G75*
G02*
X73261250Y-64125000I-193750J0D01*
G01*
G37*
%TD*%
%TO.C,C5*%
G36*
G01*
X73261250Y-52250000D02*
X72798750Y-52250000D01*
G75*
G02*
X72605000Y-52056250I0J193750D01*
G01*
X72605000Y-51668750D01*
G75*
G02*
X72798750Y-51475000I193750J0D01*
G01*
X73261250Y-51475000D01*
G75*
G02*
X73455000Y-51668750I0J-193750D01*
G01*
X73455000Y-52056250D01*
G75*
G02*
X73261250Y-52250000I-193750J0D01*
G01*
G37*
G36*
G01*
X73261250Y-53825000D02*
X72798750Y-53825000D01*
G75*
G02*
X72605000Y-53631250I0J193750D01*
G01*
X72605000Y-53243750D01*
G75*
G02*
X72798750Y-53050000I193750J0D01*
G01*
X73261250Y-53050000D01*
G75*
G02*
X73455000Y-53243750I0J-193750D01*
G01*
X73455000Y-53631250D01*
G75*
G02*
X73261250Y-53825000I-193750J0D01*
G01*
G37*
%TD*%
%TO.C,C4*%
G36*
G01*
X67761250Y-62550000D02*
X67298750Y-62550000D01*
G75*
G02*
X67105000Y-62356250I0J193750D01*
G01*
X67105000Y-61968750D01*
G75*
G02*
X67298750Y-61775000I193750J0D01*
G01*
X67761250Y-61775000D01*
G75*
G02*
X67955000Y-61968750I0J-193750D01*
G01*
X67955000Y-62356250D01*
G75*
G02*
X67761250Y-62550000I-193750J0D01*
G01*
G37*
G36*
G01*
X67761250Y-64125000D02*
X67298750Y-64125000D01*
G75*
G02*
X67105000Y-63931250I0J193750D01*
G01*
X67105000Y-63543750D01*
G75*
G02*
X67298750Y-63350000I193750J0D01*
G01*
X67761250Y-63350000D01*
G75*
G02*
X67955000Y-63543750I0J-193750D01*
G01*
X67955000Y-63931250D01*
G75*
G02*
X67761250Y-64125000I-193750J0D01*
G01*
G37*
%TD*%
%TO.C,C3*%
G36*
G01*
X67761250Y-56000000D02*
X67298750Y-56000000D01*
G75*
G02*
X67105000Y-55806250I0J193750D01*
G01*
X67105000Y-55418750D01*
G75*
G02*
X67298750Y-55225000I193750J0D01*
G01*
X67761250Y-55225000D01*
G75*
G02*
X67955000Y-55418750I0J-193750D01*
G01*
X67955000Y-55806250D01*
G75*
G02*
X67761250Y-56000000I-193750J0D01*
G01*
G37*
G36*
G01*
X67761250Y-57575000D02*
X67298750Y-57575000D01*
G75*
G02*
X67105000Y-57381250I0J193750D01*
G01*
X67105000Y-56993750D01*
G75*
G02*
X67298750Y-56800000I193750J0D01*
G01*
X67761250Y-56800000D01*
G75*
G02*
X67955000Y-56993750I0J-193750D01*
G01*
X67955000Y-57381250D01*
G75*
G02*
X67761250Y-57575000I-193750J0D01*
G01*
G37*
%TD*%
%TO.C,C2*%
G36*
G01*
X73261250Y-66300000D02*
X72798750Y-66300000D01*
G75*
G02*
X72605000Y-66106250I0J193750D01*
G01*
X72605000Y-65718750D01*
G75*
G02*
X72798750Y-65525000I193750J0D01*
G01*
X73261250Y-65525000D01*
G75*
G02*
X73455000Y-65718750I0J-193750D01*
G01*
X73455000Y-66106250D01*
G75*
G02*
X73261250Y-66300000I-193750J0D01*
G01*
G37*
G36*
G01*
X73261250Y-67875000D02*
X72798750Y-67875000D01*
G75*
G02*
X72605000Y-67681250I0J193750D01*
G01*
X72605000Y-67293750D01*
G75*
G02*
X72798750Y-67100000I193750J0D01*
G01*
X73261250Y-67100000D01*
G75*
G02*
X73455000Y-67293750I0J-193750D01*
G01*
X73455000Y-67681250D01*
G75*
G02*
X73261250Y-67875000I-193750J0D01*
G01*
G37*
%TD*%
%TO.C,C1*%
G36*
G01*
X73261250Y-56000000D02*
X72798750Y-56000000D01*
G75*
G02*
X72605000Y-55806250I0J193750D01*
G01*
X72605000Y-55418750D01*
G75*
G02*
X72798750Y-55225000I193750J0D01*
G01*
X73261250Y-55225000D01*
G75*
G02*
X73455000Y-55418750I0J-193750D01*
G01*
X73455000Y-55806250D01*
G75*
G02*
X73261250Y-56000000I-193750J0D01*
G01*
G37*
G36*
G01*
X73261250Y-57575000D02*
X72798750Y-57575000D01*
G75*
G02*
X72605000Y-57381250I0J193750D01*
G01*
X72605000Y-56993750D01*
G75*
G02*
X72798750Y-56800000I193750J0D01*
G01*
X73261250Y-56800000D01*
G75*
G02*
X73455000Y-56993750I0J-193750D01*
G01*
X73455000Y-57381250D01*
G75*
G02*
X73261250Y-57575000I-193750J0D01*
G01*
G37*
%TD*%
M02*
