M48
; DRILL file {KiCad (5.1.7-0-10_14)} date Monday, November 23, 2020 at 12:08:03 PM
; FORMAT={-:-/ absolute / inch / decimal}
; #@! TF.CreationDate,2020-11-23T12:08:03+00:00
; #@! TF.GenerationSoftware,Kicad,Pcbnew,(5.1.7-0-10_14)
; #@! TF.FileFunction,Plated,1,4,PTH
FMAT,2
INCH
T1C0.0079
T2C0.0394
%
G90
G05
T1
X2.4959Y-2.2196
X2.4959Y-2.2396
X2.4959Y-3.4596
X2.4959Y-4.1496
X2.4982Y-3.0472
X2.5051Y-3.8681
X2.5051Y-3.9291
X2.5051Y-4.0157
X2.5051Y-4.0768
X2.5051Y-4.2736
X2.5051Y-4.3346
X2.5051Y-4.4213
X2.5051Y-4.4823
X2.5059Y-3.3596
X2.5059Y-3.5196
X2.5059Y-3.6196
X2.5059Y-4.5496
X2.5071Y-3.8504
X2.5071Y-3.9114
X2.5071Y-3.998
X2.5071Y-4.0591
X2.5071Y-4.2559
X2.5071Y-4.3169
X2.5071Y-4.4035
X2.5071Y-4.4646
X2.5091Y-3.0748
X2.514Y-2.8789
X2.514Y-2.9075
X2.5159Y-2.2196
X2.5159Y-2.2396
X2.5179Y-3.2687
X2.5189Y-3.1781
X2.5199Y-3.3081
X2.5359Y-1.9996
X2.5359Y-2.1496
X2.5359Y-2.3496
X2.5359Y-2.4496
X2.5359Y-2.7996
X2.5459Y-3.5696
X2.5559Y-3.6696
X2.5563Y-3.0079
X2.5563Y-3.0531
X2.5583Y-3.1998
X2.5652Y-3.3081
X2.572Y-2.9055
X2.572Y-4.3425
X2.572Y-4.4882
X2.5859Y-4.5496
X2.6045Y-3.3297
X2.6059Y-2.7128
X2.6059Y-2.7896
X2.6065Y-3.1742
X2.6075Y-2.4213
X2.6114Y-3.3642
X2.6114Y-3.3996
X2.6222Y-3.0502
X2.6252Y-2.563
X2.638Y-3.0659
X2.6409Y-3.939
X2.6409Y-4.0866
X2.6459Y-2.5096
X2.6459Y-3.7196
X2.6469Y-2.4232
X2.6488Y-2.2953
X2.6547Y-3.3091
X2.6559Y-2.6596
X2.6559Y-2.8396
X2.6882Y-2.2953
X2.6882Y-2.4232
X2.6959Y-4.5496
X2.7039Y-3.3307
X2.7059Y-3.1496
X2.7059Y-4.1396
X2.7159Y-3.7696
X2.7256Y-2.2953
X2.7256Y-2.4232
X2.7344Y-3.3209
X2.765Y-3.3209
X2.7659Y-2.6096
X2.7659Y-4.1396
X2.7659Y-4.5496
X2.7669Y-2.2953
X2.7669Y-2.4232
X2.7669Y-2.7598
X2.7817Y-2.7126
X2.7846Y-3.9291
X2.7846Y-4.0768
X2.7846Y-4.252
X2.7846Y-4.2717
X2.7846Y-4.3346
X2.7846Y-4.4823
X2.7866Y-3.9114
X2.7866Y-4.0591
X2.7866Y-4.3169
X2.7866Y-4.4646
X2.7925Y-3.2323
X2.7925Y-3.4547
X2.7925Y-3.4862
X2.7959Y-3.5496
X2.7959Y-3.6196
X2.7959Y-3.7196
X2.7984Y-3.0148
X2.8014Y-3.0728
X2.8024Y-2.6634
X2.8024Y-3.0955
X2.8043Y-2.4213
X2.8059Y-2.5628
X2.8063Y-2.2953
X2.8259Y-2.0696
X2.8299Y-3.3209
X2.8339Y-4.4193
X2.8358Y-3.8976
X2.8358Y-4.0906
X2.8358Y-4.4724
X2.8359Y-2.1296
X2.8359Y-3.7696
X2.8437Y-3.2697
X2.8459Y-3.2996
X2.8476Y-3.0197
X2.8516Y-3.0787
X2.8535Y-4.4094
X2.8555Y-3.8878
X2.8555Y-4.0787
X2.8555Y-4.4606
X2.8559Y-3.4196
X2.8559Y-3.4696
X2.8559Y-3.6496
X2.8634Y-3.2244
X2.8713Y-2.878
X2.8713Y-2.9035
X2.8713Y-2.9291
X2.8732Y-3.1299
X2.8752Y-3.0709
X2.8759Y-4.3396
X2.8859Y-2.4496
X2.8949Y-2.8169
X2.8949Y-2.8425
X2.8949Y-2.8681
X2.9059Y-2.0696
X2.9059Y-2.1496
X2.9059Y-2.2496
X2.9059Y-2.3496
X2.9185Y-2.7539
X2.9185Y-2.7815
X2.9185Y-2.8071
T2
X2.4059Y-1.9996
X2.4059Y-2.0996
X2.4059Y-2.1996
X2.4059Y-2.2996
X2.4059Y-2.3996
X2.4059Y-2.4996
X2.4059Y-2.5996
X2.4059Y-2.6996
X2.4059Y-2.7996
X2.4059Y-2.8996
X2.4059Y-2.9996
X2.4059Y-3.0996
X2.4059Y-3.1996
X2.4059Y-3.2996
X2.4059Y-3.3996
X2.4059Y-3.4996
X2.4059Y-3.5996
X2.4059Y-3.6996
X2.4059Y-3.7996
X2.4059Y-3.8996
X2.4059Y-3.9996
X2.4059Y-4.0996
X2.4059Y-4.1996
X2.4059Y-4.2996
X2.4059Y-4.3996
X2.4059Y-4.4996
X3.0059Y-1.9996
X3.0059Y-2.0996
X3.0059Y-2.1996
X3.0059Y-2.2996
X3.0059Y-2.3996
X3.0059Y-2.4996
X3.0059Y-2.5996
X3.0059Y-2.6996
X3.0059Y-2.7996
X3.0059Y-2.8996
X3.0059Y-2.9996
X3.0059Y-3.0996
X3.0059Y-3.1996
X3.0059Y-3.2996
X3.0059Y-3.3996
X3.0059Y-3.4996
X3.0059Y-3.5996
X3.0059Y-3.6996
X3.0059Y-3.7996
X3.0059Y-3.8996
X3.0059Y-3.9996
X3.0059Y-4.0996
X3.0059Y-4.1996
X3.0059Y-4.2996
X3.0059Y-4.3996
X3.0059Y-4.4996
T0
M30
