%TF.GenerationSoftware,KiCad,Pcbnew,(5.1.7-0-10_14)*%
%TF.CreationDate,2020-11-24T15:50:36+00:00*%
%TF.ProjectId,carrier,63617272-6965-4722-9e6b-696361645f70,0.1*%
%TF.SameCoordinates,Original*%
%TF.FileFunction,Paste,Top*%
%TF.FilePolarity,Positive*%
%FSLAX46Y46*%
G04 Gerber Fmt 4.6, Leading zero omitted, Abs format (unit mm)*
G04 Created by KiCad (PCBNEW (5.1.7-0-10_14)) date 2020-11-24 15:50:36*
%MOMM*%
%LPD*%
G01*
G04 APERTURE LIST*
%ADD10R,0.740000X2.400000*%
%ADD11C,0.280000*%
%ADD12R,1.600000X1.500000*%
%ADD13R,1.060000X0.650000*%
G04 APERTURE END LIST*
D10*
%TO.C,J1*%
X65515000Y-103450000D03*
X65515000Y-99550000D03*
X66785000Y-103450000D03*
X66785000Y-99550000D03*
X68055000Y-103450000D03*
X68055000Y-99550000D03*
X69325000Y-103450000D03*
X69325000Y-99550000D03*
X70595000Y-103450000D03*
X70595000Y-99550000D03*
X71865000Y-103450000D03*
X71865000Y-99550000D03*
%TD*%
D11*
%TO.C,U1*%
X67480000Y-77750000D03*
X67980000Y-77750000D03*
X68480000Y-77750000D03*
X68980000Y-77750000D03*
X69480000Y-77750000D03*
X69980000Y-77750000D03*
X67480000Y-78250000D03*
X67980000Y-78250000D03*
X68480000Y-78250000D03*
X68980000Y-78250000D03*
X69480000Y-78250000D03*
X69980000Y-78250000D03*
X67480000Y-78750000D03*
X67980000Y-78750000D03*
X68480000Y-78750000D03*
X68980000Y-78750000D03*
X69480000Y-78750000D03*
X69980000Y-78750000D03*
X67480000Y-79250000D03*
X67980000Y-79250000D03*
X68480000Y-79250000D03*
X68980000Y-79250000D03*
X69480000Y-79250000D03*
X69980000Y-79250000D03*
X67480000Y-79750000D03*
X67980000Y-79750000D03*
X68480000Y-79750000D03*
X68980000Y-79750000D03*
X69480000Y-79750000D03*
X69980000Y-79750000D03*
X67480000Y-80250000D03*
X67980000Y-80250000D03*
X68480000Y-80250000D03*
X68980000Y-80250000D03*
X69480000Y-80250000D03*
X69980000Y-80250000D03*
X67480000Y-80750000D03*
X67980000Y-80750000D03*
X68480000Y-80750000D03*
X68980000Y-80750000D03*
X69480000Y-80750000D03*
X69980000Y-80750000D03*
X67480000Y-81250000D03*
X67980000Y-81250000D03*
X68480000Y-81250000D03*
X68980000Y-81250000D03*
X69480000Y-81250000D03*
X69980000Y-81250000D03*
X67480000Y-81750000D03*
X67980000Y-81750000D03*
X68480000Y-81750000D03*
X68980000Y-81750000D03*
X69480000Y-81750000D03*
X69980000Y-81750000D03*
X67480000Y-82250000D03*
X67980000Y-82250000D03*
X68480000Y-82250000D03*
X68980000Y-82250000D03*
X69480000Y-82250000D03*
X69980000Y-82250000D03*
%TD*%
%TO.C,U2*%
G36*
G01*
X65930000Y-94755000D02*
X65930000Y-95055000D01*
G75*
G02*
X65780000Y-95205000I-150000J0D01*
G01*
X64480000Y-95205000D01*
G75*
G02*
X64330000Y-95055000I0J150000D01*
G01*
X64330000Y-94755000D01*
G75*
G02*
X64480000Y-94605000I150000J0D01*
G01*
X65780000Y-94605000D01*
G75*
G02*
X65930000Y-94755000I0J-150000D01*
G01*
G37*
G36*
G01*
X65930000Y-93485000D02*
X65930000Y-93785000D01*
G75*
G02*
X65780000Y-93935000I-150000J0D01*
G01*
X64480000Y-93935000D01*
G75*
G02*
X64330000Y-93785000I0J150000D01*
G01*
X64330000Y-93485000D01*
G75*
G02*
X64480000Y-93335000I150000J0D01*
G01*
X65780000Y-93335000D01*
G75*
G02*
X65930000Y-93485000I0J-150000D01*
G01*
G37*
G36*
G01*
X65930000Y-92215000D02*
X65930000Y-92515000D01*
G75*
G02*
X65780000Y-92665000I-150000J0D01*
G01*
X64480000Y-92665000D01*
G75*
G02*
X64330000Y-92515000I0J150000D01*
G01*
X64330000Y-92215000D01*
G75*
G02*
X64480000Y-92065000I150000J0D01*
G01*
X65780000Y-92065000D01*
G75*
G02*
X65930000Y-92215000I0J-150000D01*
G01*
G37*
G36*
G01*
X65930000Y-90945000D02*
X65930000Y-91245000D01*
G75*
G02*
X65780000Y-91395000I-150000J0D01*
G01*
X64480000Y-91395000D01*
G75*
G02*
X64330000Y-91245000I0J150000D01*
G01*
X64330000Y-90945000D01*
G75*
G02*
X64480000Y-90795000I150000J0D01*
G01*
X65780000Y-90795000D01*
G75*
G02*
X65930000Y-90945000I0J-150000D01*
G01*
G37*
G36*
G01*
X73130000Y-90945000D02*
X73130000Y-91245000D01*
G75*
G02*
X72980000Y-91395000I-150000J0D01*
G01*
X71680000Y-91395000D01*
G75*
G02*
X71530000Y-91245000I0J150000D01*
G01*
X71530000Y-90945000D01*
G75*
G02*
X71680000Y-90795000I150000J0D01*
G01*
X72980000Y-90795000D01*
G75*
G02*
X73130000Y-90945000I0J-150000D01*
G01*
G37*
G36*
G01*
X73130000Y-92215000D02*
X73130000Y-92515000D01*
G75*
G02*
X72980000Y-92665000I-150000J0D01*
G01*
X71680000Y-92665000D01*
G75*
G02*
X71530000Y-92515000I0J150000D01*
G01*
X71530000Y-92215000D01*
G75*
G02*
X71680000Y-92065000I150000J0D01*
G01*
X72980000Y-92065000D01*
G75*
G02*
X73130000Y-92215000I0J-150000D01*
G01*
G37*
G36*
G01*
X73130000Y-93485000D02*
X73130000Y-93785000D01*
G75*
G02*
X72980000Y-93935000I-150000J0D01*
G01*
X71680000Y-93935000D01*
G75*
G02*
X71530000Y-93785000I0J150000D01*
G01*
X71530000Y-93485000D01*
G75*
G02*
X71680000Y-93335000I150000J0D01*
G01*
X72980000Y-93335000D01*
G75*
G02*
X73130000Y-93485000I0J-150000D01*
G01*
G37*
G36*
G01*
X73130000Y-94755000D02*
X73130000Y-95055000D01*
G75*
G02*
X72980000Y-95205000I-150000J0D01*
G01*
X71680000Y-95205000D01*
G75*
G02*
X71530000Y-95055000I0J150000D01*
G01*
X71530000Y-94755000D01*
G75*
G02*
X71680000Y-94605000I150000J0D01*
G01*
X72980000Y-94605000D01*
G75*
G02*
X73130000Y-94755000I0J-150000D01*
G01*
G37*
%TD*%
D12*
%TO.C,X1*%
X70098400Y-74100000D03*
X67558400Y-74100000D03*
X67558400Y-71900000D03*
X70098400Y-71900000D03*
%TD*%
%TO.C,C16*%
G36*
G01*
X72352500Y-73295000D02*
X72007500Y-73295000D01*
G75*
G02*
X71860000Y-73147500I0J147500D01*
G01*
X71860000Y-72852500D01*
G75*
G02*
X72007500Y-72705000I147500J0D01*
G01*
X72352500Y-72705000D01*
G75*
G02*
X72500000Y-72852500I0J-147500D01*
G01*
X72500000Y-73147500D01*
G75*
G02*
X72352500Y-73295000I-147500J0D01*
G01*
G37*
G36*
G01*
X72352500Y-74265000D02*
X72007500Y-74265000D01*
G75*
G02*
X71860000Y-74117500I0J147500D01*
G01*
X71860000Y-73822500D01*
G75*
G02*
X72007500Y-73675000I147500J0D01*
G01*
X72352500Y-73675000D01*
G75*
G02*
X72500000Y-73822500I0J-147500D01*
G01*
X72500000Y-74117500D01*
G75*
G02*
X72352500Y-74265000I-147500J0D01*
G01*
G37*
%TD*%
%TO.C,C15*%
G36*
G01*
X72720000Y-83222500D02*
X72720000Y-82877500D01*
G75*
G02*
X72867500Y-82730000I147500J0D01*
G01*
X73162500Y-82730000D01*
G75*
G02*
X73310000Y-82877500I0J-147500D01*
G01*
X73310000Y-83222500D01*
G75*
G02*
X73162500Y-83370000I-147500J0D01*
G01*
X72867500Y-83370000D01*
G75*
G02*
X72720000Y-83222500I0J147500D01*
G01*
G37*
G36*
G01*
X71750000Y-83222500D02*
X71750000Y-82877500D01*
G75*
G02*
X71897500Y-82730000I147500J0D01*
G01*
X72192500Y-82730000D01*
G75*
G02*
X72340000Y-82877500I0J-147500D01*
G01*
X72340000Y-83222500D01*
G75*
G02*
X72192500Y-83370000I-147500J0D01*
G01*
X71897500Y-83370000D01*
G75*
G02*
X71750000Y-83222500I0J147500D01*
G01*
G37*
%TD*%
%TO.C,C14*%
G36*
G01*
X72670000Y-79447500D02*
X72670000Y-79102500D01*
G75*
G02*
X72817500Y-78955000I147500J0D01*
G01*
X73112500Y-78955000D01*
G75*
G02*
X73260000Y-79102500I0J-147500D01*
G01*
X73260000Y-79447500D01*
G75*
G02*
X73112500Y-79595000I-147500J0D01*
G01*
X72817500Y-79595000D01*
G75*
G02*
X72670000Y-79447500I0J147500D01*
G01*
G37*
G36*
G01*
X71700000Y-79447500D02*
X71700000Y-79102500D01*
G75*
G02*
X71847500Y-78955000I147500J0D01*
G01*
X72142500Y-78955000D01*
G75*
G02*
X72290000Y-79102500I0J-147500D01*
G01*
X72290000Y-79447500D01*
G75*
G02*
X72142500Y-79595000I-147500J0D01*
G01*
X71847500Y-79595000D01*
G75*
G02*
X71700000Y-79447500I0J147500D01*
G01*
G37*
%TD*%
%TO.C,C13*%
G36*
G01*
X64940000Y-82527500D02*
X64940000Y-82872500D01*
G75*
G02*
X64792500Y-83020000I-147500J0D01*
G01*
X64497500Y-83020000D01*
G75*
G02*
X64350000Y-82872500I0J147500D01*
G01*
X64350000Y-82527500D01*
G75*
G02*
X64497500Y-82380000I147500J0D01*
G01*
X64792500Y-82380000D01*
G75*
G02*
X64940000Y-82527500I0J-147500D01*
G01*
G37*
G36*
G01*
X65910000Y-82527500D02*
X65910000Y-82872500D01*
G75*
G02*
X65762500Y-83020000I-147500J0D01*
G01*
X65467500Y-83020000D01*
G75*
G02*
X65320000Y-82872500I0J147500D01*
G01*
X65320000Y-82527500D01*
G75*
G02*
X65467500Y-82380000I147500J0D01*
G01*
X65762500Y-82380000D01*
G75*
G02*
X65910000Y-82527500I0J-147500D01*
G01*
G37*
%TD*%
%TO.C,C12*%
G36*
G01*
X64940000Y-80927500D02*
X64940000Y-81272500D01*
G75*
G02*
X64792500Y-81420000I-147500J0D01*
G01*
X64497500Y-81420000D01*
G75*
G02*
X64350000Y-81272500I0J147500D01*
G01*
X64350000Y-80927500D01*
G75*
G02*
X64497500Y-80780000I147500J0D01*
G01*
X64792500Y-80780000D01*
G75*
G02*
X64940000Y-80927500I0J-147500D01*
G01*
G37*
G36*
G01*
X65910000Y-80927500D02*
X65910000Y-81272500D01*
G75*
G02*
X65762500Y-81420000I-147500J0D01*
G01*
X65467500Y-81420000D01*
G75*
G02*
X65320000Y-81272500I0J147500D01*
G01*
X65320000Y-80927500D01*
G75*
G02*
X65467500Y-80780000I147500J0D01*
G01*
X65762500Y-80780000D01*
G75*
G02*
X65910000Y-80927500I0J-147500D01*
G01*
G37*
%TD*%
%TO.C,C11*%
G36*
G01*
X70970000Y-76147500D02*
X70970000Y-75802500D01*
G75*
G02*
X71117500Y-75655000I147500J0D01*
G01*
X71412500Y-75655000D01*
G75*
G02*
X71560000Y-75802500I0J-147500D01*
G01*
X71560000Y-76147500D01*
G75*
G02*
X71412500Y-76295000I-147500J0D01*
G01*
X71117500Y-76295000D01*
G75*
G02*
X70970000Y-76147500I0J147500D01*
G01*
G37*
G36*
G01*
X70000000Y-76147500D02*
X70000000Y-75802500D01*
G75*
G02*
X70147500Y-75655000I147500J0D01*
G01*
X70442500Y-75655000D01*
G75*
G02*
X70590000Y-75802500I0J-147500D01*
G01*
X70590000Y-76147500D01*
G75*
G02*
X70442500Y-76295000I-147500J0D01*
G01*
X70147500Y-76295000D01*
G75*
G02*
X70000000Y-76147500I0J147500D01*
G01*
G37*
%TD*%
%TO.C,C10*%
G36*
G01*
X65025000Y-77327500D02*
X65025000Y-77672500D01*
G75*
G02*
X64877500Y-77820000I-147500J0D01*
G01*
X64582500Y-77820000D01*
G75*
G02*
X64435000Y-77672500I0J147500D01*
G01*
X64435000Y-77327500D01*
G75*
G02*
X64582500Y-77180000I147500J0D01*
G01*
X64877500Y-77180000D01*
G75*
G02*
X65025000Y-77327500I0J-147500D01*
G01*
G37*
G36*
G01*
X65995000Y-77327500D02*
X65995000Y-77672500D01*
G75*
G02*
X65847500Y-77820000I-147500J0D01*
G01*
X65552500Y-77820000D01*
G75*
G02*
X65405000Y-77672500I0J147500D01*
G01*
X65405000Y-77327500D01*
G75*
G02*
X65552500Y-77180000I147500J0D01*
G01*
X65847500Y-77180000D01*
G75*
G02*
X65995000Y-77327500I0J-147500D01*
G01*
G37*
%TD*%
%TO.C,C9*%
G36*
G01*
X72720000Y-82072500D02*
X72720000Y-81727500D01*
G75*
G02*
X72867500Y-81580000I147500J0D01*
G01*
X73162500Y-81580000D01*
G75*
G02*
X73310000Y-81727500I0J-147500D01*
G01*
X73310000Y-82072500D01*
G75*
G02*
X73162500Y-82220000I-147500J0D01*
G01*
X72867500Y-82220000D01*
G75*
G02*
X72720000Y-82072500I0J147500D01*
G01*
G37*
G36*
G01*
X71750000Y-82072500D02*
X71750000Y-81727500D01*
G75*
G02*
X71897500Y-81580000I147500J0D01*
G01*
X72192500Y-81580000D01*
G75*
G02*
X72340000Y-81727500I0J-147500D01*
G01*
X72340000Y-82072500D01*
G75*
G02*
X72192500Y-82220000I-147500J0D01*
G01*
X71897500Y-82220000D01*
G75*
G02*
X71750000Y-82072500I0J147500D01*
G01*
G37*
%TD*%
D13*
%TO.C,U3*%
X69180000Y-67350000D03*
X69180000Y-65450000D03*
X71380000Y-65450000D03*
X71380000Y-66400000D03*
X71380000Y-67350000D03*
%TD*%
%TO.C,U6*%
X69180000Y-53300000D03*
X69180000Y-51400000D03*
X71380000Y-51400000D03*
X71380000Y-52350000D03*
X71380000Y-53300000D03*
%TD*%
%TO.C,U4*%
X69180000Y-63600000D03*
X69180000Y-61700000D03*
X71380000Y-61700000D03*
X71380000Y-62650000D03*
X71380000Y-63600000D03*
%TD*%
%TO.C,U5*%
X69180000Y-57050000D03*
X69180000Y-55150000D03*
X71380000Y-55150000D03*
X71380000Y-56100000D03*
X71380000Y-57050000D03*
%TD*%
%TO.C,C8*%
G36*
G01*
X67786250Y-66354000D02*
X67273750Y-66354000D01*
G75*
G02*
X67055000Y-66135250I0J218750D01*
G01*
X67055000Y-65697750D01*
G75*
G02*
X67273750Y-65479000I218750J0D01*
G01*
X67786250Y-65479000D01*
G75*
G02*
X68005000Y-65697750I0J-218750D01*
G01*
X68005000Y-66135250D01*
G75*
G02*
X67786250Y-66354000I-218750J0D01*
G01*
G37*
G36*
G01*
X67786250Y-67929000D02*
X67273750Y-67929000D01*
G75*
G02*
X67055000Y-67710250I0J218750D01*
G01*
X67055000Y-67272750D01*
G75*
G02*
X67273750Y-67054000I218750J0D01*
G01*
X67786250Y-67054000D01*
G75*
G02*
X68005000Y-67272750I0J-218750D01*
G01*
X68005000Y-67710250D01*
G75*
G02*
X67786250Y-67929000I-218750J0D01*
G01*
G37*
%TD*%
%TO.C,C7*%
G36*
G01*
X67786250Y-52300000D02*
X67273750Y-52300000D01*
G75*
G02*
X67055000Y-52081250I0J218750D01*
G01*
X67055000Y-51643750D01*
G75*
G02*
X67273750Y-51425000I218750J0D01*
G01*
X67786250Y-51425000D01*
G75*
G02*
X68005000Y-51643750I0J-218750D01*
G01*
X68005000Y-52081250D01*
G75*
G02*
X67786250Y-52300000I-218750J0D01*
G01*
G37*
G36*
G01*
X67786250Y-53875000D02*
X67273750Y-53875000D01*
G75*
G02*
X67055000Y-53656250I0J218750D01*
G01*
X67055000Y-53218750D01*
G75*
G02*
X67273750Y-53000000I218750J0D01*
G01*
X67786250Y-53000000D01*
G75*
G02*
X68005000Y-53218750I0J-218750D01*
G01*
X68005000Y-53656250D01*
G75*
G02*
X67786250Y-53875000I-218750J0D01*
G01*
G37*
%TD*%
%TO.C,C6*%
G36*
G01*
X73286250Y-62600000D02*
X72773750Y-62600000D01*
G75*
G02*
X72555000Y-62381250I0J218750D01*
G01*
X72555000Y-61943750D01*
G75*
G02*
X72773750Y-61725000I218750J0D01*
G01*
X73286250Y-61725000D01*
G75*
G02*
X73505000Y-61943750I0J-218750D01*
G01*
X73505000Y-62381250D01*
G75*
G02*
X73286250Y-62600000I-218750J0D01*
G01*
G37*
G36*
G01*
X73286250Y-64175000D02*
X72773750Y-64175000D01*
G75*
G02*
X72555000Y-63956250I0J218750D01*
G01*
X72555000Y-63518750D01*
G75*
G02*
X72773750Y-63300000I218750J0D01*
G01*
X73286250Y-63300000D01*
G75*
G02*
X73505000Y-63518750I0J-218750D01*
G01*
X73505000Y-63956250D01*
G75*
G02*
X73286250Y-64175000I-218750J0D01*
G01*
G37*
%TD*%
%TO.C,C5*%
G36*
G01*
X73286250Y-52300000D02*
X72773750Y-52300000D01*
G75*
G02*
X72555000Y-52081250I0J218750D01*
G01*
X72555000Y-51643750D01*
G75*
G02*
X72773750Y-51425000I218750J0D01*
G01*
X73286250Y-51425000D01*
G75*
G02*
X73505000Y-51643750I0J-218750D01*
G01*
X73505000Y-52081250D01*
G75*
G02*
X73286250Y-52300000I-218750J0D01*
G01*
G37*
G36*
G01*
X73286250Y-53875000D02*
X72773750Y-53875000D01*
G75*
G02*
X72555000Y-53656250I0J218750D01*
G01*
X72555000Y-53218750D01*
G75*
G02*
X72773750Y-53000000I218750J0D01*
G01*
X73286250Y-53000000D01*
G75*
G02*
X73505000Y-53218750I0J-218750D01*
G01*
X73505000Y-53656250D01*
G75*
G02*
X73286250Y-53875000I-218750J0D01*
G01*
G37*
%TD*%
%TO.C,C4*%
G36*
G01*
X67786250Y-62600000D02*
X67273750Y-62600000D01*
G75*
G02*
X67055000Y-62381250I0J218750D01*
G01*
X67055000Y-61943750D01*
G75*
G02*
X67273750Y-61725000I218750J0D01*
G01*
X67786250Y-61725000D01*
G75*
G02*
X68005000Y-61943750I0J-218750D01*
G01*
X68005000Y-62381250D01*
G75*
G02*
X67786250Y-62600000I-218750J0D01*
G01*
G37*
G36*
G01*
X67786250Y-64175000D02*
X67273750Y-64175000D01*
G75*
G02*
X67055000Y-63956250I0J218750D01*
G01*
X67055000Y-63518750D01*
G75*
G02*
X67273750Y-63300000I218750J0D01*
G01*
X67786250Y-63300000D01*
G75*
G02*
X68005000Y-63518750I0J-218750D01*
G01*
X68005000Y-63956250D01*
G75*
G02*
X67786250Y-64175000I-218750J0D01*
G01*
G37*
%TD*%
%TO.C,C3*%
G36*
G01*
X67786250Y-56050000D02*
X67273750Y-56050000D01*
G75*
G02*
X67055000Y-55831250I0J218750D01*
G01*
X67055000Y-55393750D01*
G75*
G02*
X67273750Y-55175000I218750J0D01*
G01*
X67786250Y-55175000D01*
G75*
G02*
X68005000Y-55393750I0J-218750D01*
G01*
X68005000Y-55831250D01*
G75*
G02*
X67786250Y-56050000I-218750J0D01*
G01*
G37*
G36*
G01*
X67786250Y-57625000D02*
X67273750Y-57625000D01*
G75*
G02*
X67055000Y-57406250I0J218750D01*
G01*
X67055000Y-56968750D01*
G75*
G02*
X67273750Y-56750000I218750J0D01*
G01*
X67786250Y-56750000D01*
G75*
G02*
X68005000Y-56968750I0J-218750D01*
G01*
X68005000Y-57406250D01*
G75*
G02*
X67786250Y-57625000I-218750J0D01*
G01*
G37*
%TD*%
%TO.C,C2*%
G36*
G01*
X73286250Y-66350000D02*
X72773750Y-66350000D01*
G75*
G02*
X72555000Y-66131250I0J218750D01*
G01*
X72555000Y-65693750D01*
G75*
G02*
X72773750Y-65475000I218750J0D01*
G01*
X73286250Y-65475000D01*
G75*
G02*
X73505000Y-65693750I0J-218750D01*
G01*
X73505000Y-66131250D01*
G75*
G02*
X73286250Y-66350000I-218750J0D01*
G01*
G37*
G36*
G01*
X73286250Y-67925000D02*
X72773750Y-67925000D01*
G75*
G02*
X72555000Y-67706250I0J218750D01*
G01*
X72555000Y-67268750D01*
G75*
G02*
X72773750Y-67050000I218750J0D01*
G01*
X73286250Y-67050000D01*
G75*
G02*
X73505000Y-67268750I0J-218750D01*
G01*
X73505000Y-67706250D01*
G75*
G02*
X73286250Y-67925000I-218750J0D01*
G01*
G37*
%TD*%
%TO.C,C1*%
G36*
G01*
X73286250Y-56050000D02*
X72773750Y-56050000D01*
G75*
G02*
X72555000Y-55831250I0J218750D01*
G01*
X72555000Y-55393750D01*
G75*
G02*
X72773750Y-55175000I218750J0D01*
G01*
X73286250Y-55175000D01*
G75*
G02*
X73505000Y-55393750I0J-218750D01*
G01*
X73505000Y-55831250D01*
G75*
G02*
X73286250Y-56050000I-218750J0D01*
G01*
G37*
G36*
G01*
X73286250Y-57625000D02*
X72773750Y-57625000D01*
G75*
G02*
X72555000Y-57406250I0J218750D01*
G01*
X72555000Y-56968750D01*
G75*
G02*
X72773750Y-56750000I218750J0D01*
G01*
X73286250Y-56750000D01*
G75*
G02*
X73505000Y-56968750I0J-218750D01*
G01*
X73505000Y-57406250D01*
G75*
G02*
X73286250Y-57625000I-218750J0D01*
G01*
G37*
%TD*%
M02*
