%TF.GenerationSoftware,KiCad,Pcbnew,(5.1.7-0-10_14)*%
%TF.CreationDate,2020-11-27T18:15:49+00:00*%
%TF.ProjectId,carrier,63617272-6965-4722-9e6b-696361645f70,0.1*%
%TF.SameCoordinates,Original*%
%TF.FileFunction,Copper,L2,Inr*%
%TF.FilePolarity,Positive*%
%FSLAX46Y46*%
G04 Gerber Fmt 4.6, Leading zero omitted, Abs format (unit mm)*
G04 Created by KiCad (PCBNEW (5.1.7-0-10_14)) date 2020-11-27 18:15:49*
%MOMM*%
%LPD*%
G01*
G04 APERTURE LIST*
%TA.AperFunction,ComponentPad*%
%ADD10O,1.700000X1.700000*%
%TD*%
%TA.AperFunction,ComponentPad*%
%ADD11R,1.700000X1.700000*%
%TD*%
%TA.AperFunction,ViaPad*%
%ADD12C,0.450000*%
%TD*%
%TA.AperFunction,Conductor*%
%ADD13C,0.100000*%
%TD*%
G04 APERTURE END LIST*
D10*
%TO.N,mprj_io[19]*%
%TO.C,J3*%
X76350000Y-109210000D03*
%TO.N,mprj_io[20]*%
X76350000Y-106670000D03*
%TO.N,mprj_io[21]*%
X76350000Y-104130000D03*
%TO.N,mprj_io[22]*%
X76350000Y-101590000D03*
%TO.N,mprj_io[23]*%
X76350000Y-99050000D03*
%TO.N,mprj_io[24]*%
X76350000Y-96510000D03*
%TO.N,mprj_io[25]*%
X76350000Y-93970000D03*
%TO.N,mprj_io[26]*%
X76350000Y-91430000D03*
%TO.N,mprj_io[27]*%
X76350000Y-88890000D03*
%TO.N,mprj_io[28]*%
X76350000Y-86350000D03*
%TO.N,mprj_io[29]*%
X76350000Y-83810000D03*
%TO.N,mprj_io[30]*%
X76350000Y-81270000D03*
%TO.N,mprj_io[31]*%
X76350000Y-78730000D03*
%TO.N,mprj_io[32]*%
X76350000Y-76190000D03*
%TO.N,mprj_io[33]*%
X76350000Y-73650000D03*
%TO.N,mprj_io[34]*%
X76350000Y-71110000D03*
%TO.N,mprj_io[35]*%
X76350000Y-68570000D03*
%TO.N,mprj_io[36]*%
X76350000Y-66030000D03*
%TO.N,mprj_io[37]*%
X76350000Y-63490000D03*
%TO.N,+5V*%
X76350000Y-60950000D03*
%TO.N,flash_csb*%
X76350000Y-58410000D03*
%TO.N,flash_io0*%
X76350000Y-55870000D03*
%TO.N,flash_io1*%
X76350000Y-53330000D03*
%TO.N,flash_clk*%
X76350000Y-50790000D03*
%TO.N,GND*%
X76350000Y-48250000D03*
D11*
%TO.N,+5V*%
X76350000Y-45710000D03*
%TD*%
D10*
%TO.N,GND*%
%TO.C,J2*%
X61110000Y-109210000D03*
%TO.N,mprj_io[18]*%
X61110000Y-106670000D03*
%TO.N,mprj_io[17]*%
X61110000Y-104130000D03*
%TO.N,mprj_io[16]*%
X61110000Y-101590000D03*
%TO.N,mprj_io[15]*%
X61110000Y-99050000D03*
%TO.N,mprj_io[14]*%
X61110000Y-96510000D03*
%TO.N,mprj_io[13]*%
X61110000Y-93970000D03*
%TO.N,mprj_io[12]*%
X61110000Y-91430000D03*
%TO.N,mprj_io[11]*%
X61110000Y-88890000D03*
%TO.N,mprj_io[10]*%
X61110000Y-86350000D03*
%TO.N,mprj_io[9]*%
X61110000Y-83810000D03*
%TO.N,mprj_io[8]*%
X61110000Y-81270000D03*
%TO.N,mprj_io[7]*%
X61110000Y-78730000D03*
%TO.N,mprj_io[6]*%
X61110000Y-76190000D03*
%TO.N,mprj_io[5]*%
X61110000Y-73650000D03*
%TO.N,mprj_io[4]*%
X61110000Y-71110000D03*
%TO.N,mprj_io[3]*%
X61110000Y-68570000D03*
%TO.N,mprj_io[2]*%
X61110000Y-66030000D03*
%TO.N,mprj_io[1]*%
X61110000Y-63490000D03*
%TO.N,mprj_io[0]*%
X61110000Y-60950000D03*
%TO.N,clock*%
X61110000Y-58410000D03*
%TO.N,resetb*%
X61110000Y-55870000D03*
%TO.N,gpio*%
X61110000Y-53330000D03*
%TO.N,ext_3v3*%
X61110000Y-50790000D03*
%TO.N,ext_1v8*%
X61110000Y-48250000D03*
D11*
%TO.N,ext_vddio*%
X61110000Y-45710000D03*
%TD*%
D12*
%TO.N,GND*%
X73830000Y-51650000D03*
X66680000Y-52100000D03*
X73780000Y-52100000D03*
X66730000Y-51650000D03*
X73830000Y-55400000D03*
X66680000Y-55850000D03*
X73780000Y-55850000D03*
X66730000Y-55400000D03*
X73830000Y-61950000D03*
X66680000Y-62400000D03*
X73780000Y-62400000D03*
X66730000Y-61950000D03*
X70455000Y-82125000D03*
X73730000Y-81900000D03*
X73480000Y-79275000D03*
X64730000Y-78100000D03*
X68730000Y-80000000D03*
X66680000Y-66150000D03*
X66730000Y-65700000D03*
X73780000Y-66150000D03*
X73830000Y-65700000D03*
X66530000Y-71450000D03*
X66530000Y-72250000D03*
X71780000Y-75975000D03*
X71270000Y-91095000D03*
X70855000Y-82525000D03*
X74004990Y-82600000D03*
X64895000Y-101305000D03*
X64430000Y-82000000D03*
X64479990Y-80500000D03*
X63650000Y-105400000D03*
X64920000Y-73142000D03*
X64920000Y-71872000D03*
X63650000Y-107432000D03*
X71270000Y-89144000D03*
X70000000Y-87874000D03*
X73240000Y-89000000D03*
X73810000Y-74666000D03*
X67206000Y-60354000D03*
X74064000Y-59500000D03*
X64680000Y-55000000D03*
X67206000Y-93716000D03*
X70000000Y-92446000D03*
X64895000Y-101905000D03*
X64295000Y-101305000D03*
X64295000Y-101905000D03*
X64130000Y-57550000D03*
X70000000Y-69840000D03*
X73810000Y-72380000D03*
X72540000Y-70475000D03*
X66620000Y-69770000D03*
X69492000Y-85080000D03*
X70254000Y-60188000D03*
X73175000Y-97780000D03*
X70635000Y-96510000D03*
X68095000Y-96510000D03*
X64285000Y-97145000D03*
X64285000Y-99050000D03*
X63650000Y-110480000D03*
X66825000Y-110480000D03*
X70000000Y-110480000D03*
X73175000Y-110480000D03*
X73175000Y-102860000D03*
X72540000Y-46980000D03*
X70000000Y-46980000D03*
X67460000Y-46980000D03*
X64920000Y-46980000D03*
%TO.N,+5V*%
X74064000Y-105527000D03*
X73556000Y-105527000D03*
X73556000Y-105019000D03*
X74064000Y-105019000D03*
X73830000Y-53200000D03*
X73780000Y-53650000D03*
X73830000Y-56950000D03*
X73780000Y-57400000D03*
X73830000Y-63500000D03*
X73780000Y-63950000D03*
X73830000Y-67250000D03*
X73780000Y-67700000D03*
X72130000Y-51500000D03*
X72130000Y-55200000D03*
%TO.N,vccd*%
X66730000Y-57500000D03*
X66730000Y-57000000D03*
X70755000Y-75450000D03*
%TO.N,vdda*%
X64980000Y-53500000D03*
X66444000Y-94905000D03*
X65230000Y-76950000D03*
X71130000Y-74550000D03*
X71130000Y-73650000D03*
X65480000Y-53250000D03*
%TO.N,vccd1*%
X64930000Y-61900000D03*
X65430000Y-61600000D03*
X65130000Y-83300000D03*
X71380000Y-83050000D03*
%TO.N,vdda1*%
X64930000Y-66750000D03*
X65430000Y-66500000D03*
X65030000Y-81800000D03*
X71930000Y-78725000D03*
%TO.N,vddio*%
X64930000Y-52200000D03*
X65430000Y-51900000D03*
X72530000Y-82450000D03*
X71778000Y-99939000D03*
%TO.N,gpio*%
X70380000Y-61700000D03*
X70380000Y-65450000D03*
X65630000Y-75650000D03*
%TO.N,flash_io0*%
X66805000Y-91100000D03*
X68005010Y-75650000D03*
%TO.N,flash_csb*%
X68780000Y-75400000D03*
X70780000Y-94900000D03*
%TO.N,resetb*%
X63330000Y-90050000D03*
X65428000Y-103749000D03*
%TO.N,mprj_io[2]*%
X64530000Y-86900000D03*
X69111000Y-102987000D03*
%TO.N,mprj_io[1]*%
X64530000Y-86250000D03*
X70381000Y-103749000D03*
%TO.N,flash_io1*%
X67280000Y-75850000D03*
X67180000Y-89900000D03*
%TO.N,mprj_io[36]*%
X73455000Y-75975000D03*
%TO.N,mprj_io[4]*%
X63930000Y-87800000D03*
X67841000Y-102987000D03*
%TO.N,mprj_io[3]*%
X63930000Y-87150000D03*
X69111000Y-103749000D03*
%TO.N,flash_clk*%
X66530000Y-77900000D03*
X66280000Y-92350000D03*
%TO.N,mprj_io[33]*%
X69980000Y-76775000D03*
%TO.N,mprj_io[34]*%
X73329998Y-76975000D03*
%TO.N,mprj_io[6]*%
X63330000Y-88700000D03*
X66698000Y-102987000D03*
%TO.N,mprj_io[5]*%
X63930000Y-88450000D03*
X67841000Y-103749000D03*
%TO.N,mprj_io[0]*%
X64530000Y-85600000D03*
X70381000Y-102987000D03*
%TO.N,mprj_io[32]*%
X71255000Y-79375000D03*
%TO.N,mprj_io[7]*%
X63330000Y-89350000D03*
X66698000Y-103749000D03*
%TO.N,mprj_io[12]*%
X66280000Y-81375010D03*
%TO.N,mprj_io[11]*%
X66305000Y-81950000D03*
%TO.N,mprj_io[24]*%
X73605000Y-86150000D03*
%TO.N,mprj_io[15]*%
X66380000Y-83424990D03*
%TO.N,mprj_io[19]*%
X73605000Y-86875000D03*
%TD*%
D13*
%TO.N,GND*%
X78205000Y-111065000D02*
X59255000Y-111065000D01*
X59255000Y-109589171D01*
X60020071Y-109589171D01*
X60071181Y-109712588D01*
X60189192Y-109905594D01*
X60342589Y-110071869D01*
X60525477Y-110205023D01*
X60730828Y-110299939D01*
X60906000Y-110269836D01*
X60906000Y-109414000D01*
X61314000Y-109414000D01*
X61314000Y-110269836D01*
X61489172Y-110299939D01*
X61694523Y-110205023D01*
X61877411Y-110071869D01*
X62030808Y-109905594D01*
X62148819Y-109712588D01*
X62199929Y-109589171D01*
X62168522Y-109414000D01*
X61314000Y-109414000D01*
X60906000Y-109414000D01*
X60051478Y-109414000D01*
X60020071Y-109589171D01*
X59255000Y-109589171D01*
X59255000Y-109106584D01*
X75300000Y-109106584D01*
X75300000Y-109313416D01*
X75340350Y-109516274D01*
X75419502Y-109707362D01*
X75534411Y-109879336D01*
X75680664Y-110025589D01*
X75852638Y-110140498D01*
X76043726Y-110219650D01*
X76246584Y-110260000D01*
X76453416Y-110260000D01*
X76656274Y-110219650D01*
X76847362Y-110140498D01*
X77019336Y-110025589D01*
X77165589Y-109879336D01*
X77280498Y-109707362D01*
X77359650Y-109516274D01*
X77400000Y-109313416D01*
X77400000Y-109106584D01*
X77359650Y-108903726D01*
X77280498Y-108712638D01*
X77165589Y-108540664D01*
X77019336Y-108394411D01*
X76847362Y-108279502D01*
X76656274Y-108200350D01*
X76453416Y-108160000D01*
X76246584Y-108160000D01*
X76043726Y-108200350D01*
X75852638Y-108279502D01*
X75680664Y-108394411D01*
X75534411Y-108540664D01*
X75419502Y-108712638D01*
X75340350Y-108903726D01*
X75300000Y-109106584D01*
X59255000Y-109106584D01*
X59255000Y-108830829D01*
X60020071Y-108830829D01*
X60051478Y-109006000D01*
X60906000Y-109006000D01*
X60906000Y-108150164D01*
X61314000Y-108150164D01*
X61314000Y-109006000D01*
X62168522Y-109006000D01*
X62199929Y-108830829D01*
X62148819Y-108707412D01*
X62030808Y-108514406D01*
X61877411Y-108348131D01*
X61694523Y-108214977D01*
X61489172Y-108120061D01*
X61314000Y-108150164D01*
X60906000Y-108150164D01*
X60730828Y-108120061D01*
X60525477Y-108214977D01*
X60342589Y-108348131D01*
X60189192Y-108514406D01*
X60071181Y-108707412D01*
X60020071Y-108830829D01*
X59255000Y-108830829D01*
X59255000Y-106566584D01*
X60060000Y-106566584D01*
X60060000Y-106773416D01*
X60100350Y-106976274D01*
X60179502Y-107167362D01*
X60294411Y-107339336D01*
X60440664Y-107485589D01*
X60612638Y-107600498D01*
X60803726Y-107679650D01*
X61006584Y-107720000D01*
X61213416Y-107720000D01*
X61416274Y-107679650D01*
X61607362Y-107600498D01*
X61779336Y-107485589D01*
X61925589Y-107339336D01*
X62040498Y-107167362D01*
X62119650Y-106976274D01*
X62160000Y-106773416D01*
X62160000Y-106566584D01*
X75300000Y-106566584D01*
X75300000Y-106773416D01*
X75340350Y-106976274D01*
X75419502Y-107167362D01*
X75534411Y-107339336D01*
X75680664Y-107485589D01*
X75852638Y-107600498D01*
X76043726Y-107679650D01*
X76246584Y-107720000D01*
X76453416Y-107720000D01*
X76656274Y-107679650D01*
X76847362Y-107600498D01*
X77019336Y-107485589D01*
X77165589Y-107339336D01*
X77280498Y-107167362D01*
X77359650Y-106976274D01*
X77400000Y-106773416D01*
X77400000Y-106566584D01*
X77359650Y-106363726D01*
X77280498Y-106172638D01*
X77165589Y-106000664D01*
X77019336Y-105854411D01*
X76847362Y-105739502D01*
X76656274Y-105660350D01*
X76453416Y-105620000D01*
X76246584Y-105620000D01*
X76043726Y-105660350D01*
X75852638Y-105739502D01*
X75680664Y-105854411D01*
X75534411Y-106000664D01*
X75419502Y-106172638D01*
X75340350Y-106363726D01*
X75300000Y-106566584D01*
X62160000Y-106566584D01*
X62119650Y-106363726D01*
X62040498Y-106172638D01*
X61925589Y-106000664D01*
X61779336Y-105854411D01*
X61607362Y-105739502D01*
X61416274Y-105660350D01*
X61213416Y-105620000D01*
X61006584Y-105620000D01*
X60803726Y-105660350D01*
X60612638Y-105739502D01*
X60440664Y-105854411D01*
X60294411Y-106000664D01*
X60179502Y-106172638D01*
X60100350Y-106363726D01*
X60060000Y-106566584D01*
X59255000Y-106566584D01*
X59255000Y-104026584D01*
X60060000Y-104026584D01*
X60060000Y-104233416D01*
X60100350Y-104436274D01*
X60179502Y-104627362D01*
X60294411Y-104799336D01*
X60440664Y-104945589D01*
X60612638Y-105060498D01*
X60803726Y-105139650D01*
X61006584Y-105180000D01*
X61213416Y-105180000D01*
X61416274Y-105139650D01*
X61607362Y-105060498D01*
X61732114Y-104977141D01*
X73131000Y-104977141D01*
X73131000Y-105060859D01*
X73147333Y-105142968D01*
X73179370Y-105220313D01*
X73214575Y-105273000D01*
X73179370Y-105325687D01*
X73147333Y-105403032D01*
X73131000Y-105485141D01*
X73131000Y-105568859D01*
X73147333Y-105650968D01*
X73179370Y-105728313D01*
X73225881Y-105797921D01*
X73285079Y-105857119D01*
X73354687Y-105903630D01*
X73432032Y-105935667D01*
X73514141Y-105952000D01*
X73597859Y-105952000D01*
X73679968Y-105935667D01*
X73757313Y-105903630D01*
X73810000Y-105868425D01*
X73862687Y-105903630D01*
X73940032Y-105935667D01*
X74022141Y-105952000D01*
X74105859Y-105952000D01*
X74187968Y-105935667D01*
X74265313Y-105903630D01*
X74334921Y-105857119D01*
X74394119Y-105797921D01*
X74440630Y-105728313D01*
X74472667Y-105650968D01*
X74489000Y-105568859D01*
X74489000Y-105485141D01*
X74472667Y-105403032D01*
X74440630Y-105325687D01*
X74405425Y-105273000D01*
X74440630Y-105220313D01*
X74472667Y-105142968D01*
X74489000Y-105060859D01*
X74489000Y-104977141D01*
X74472667Y-104895032D01*
X74440630Y-104817687D01*
X74394119Y-104748079D01*
X74334921Y-104688881D01*
X74265313Y-104642370D01*
X74187968Y-104610333D01*
X74105859Y-104594000D01*
X74022141Y-104594000D01*
X73940032Y-104610333D01*
X73862687Y-104642370D01*
X73810000Y-104677575D01*
X73757313Y-104642370D01*
X73679968Y-104610333D01*
X73597859Y-104594000D01*
X73514141Y-104594000D01*
X73432032Y-104610333D01*
X73354687Y-104642370D01*
X73285079Y-104688881D01*
X73225881Y-104748079D01*
X73179370Y-104817687D01*
X73147333Y-104895032D01*
X73131000Y-104977141D01*
X61732114Y-104977141D01*
X61779336Y-104945589D01*
X61925589Y-104799336D01*
X62040498Y-104627362D01*
X62119650Y-104436274D01*
X62160000Y-104233416D01*
X62160000Y-104026584D01*
X62119650Y-103823726D01*
X62071359Y-103707141D01*
X65003000Y-103707141D01*
X65003000Y-103790859D01*
X65019333Y-103872968D01*
X65051370Y-103950313D01*
X65097881Y-104019921D01*
X65157079Y-104079119D01*
X65226687Y-104125630D01*
X65304032Y-104157667D01*
X65386141Y-104174000D01*
X65469859Y-104174000D01*
X65551968Y-104157667D01*
X65629313Y-104125630D01*
X65698921Y-104079119D01*
X65758119Y-104019921D01*
X65804630Y-103950313D01*
X65836667Y-103872968D01*
X65853000Y-103790859D01*
X65853000Y-103707141D01*
X65836667Y-103625032D01*
X65804630Y-103547687D01*
X65758119Y-103478079D01*
X65698921Y-103418881D01*
X65629313Y-103372370D01*
X65551968Y-103340333D01*
X65469859Y-103324000D01*
X65386141Y-103324000D01*
X65304032Y-103340333D01*
X65226687Y-103372370D01*
X65157079Y-103418881D01*
X65097881Y-103478079D01*
X65051370Y-103547687D01*
X65019333Y-103625032D01*
X65003000Y-103707141D01*
X62071359Y-103707141D01*
X62040498Y-103632638D01*
X61925589Y-103460664D01*
X61779336Y-103314411D01*
X61607362Y-103199502D01*
X61416274Y-103120350D01*
X61213416Y-103080000D01*
X61006584Y-103080000D01*
X60803726Y-103120350D01*
X60612638Y-103199502D01*
X60440664Y-103314411D01*
X60294411Y-103460664D01*
X60179502Y-103632638D01*
X60100350Y-103823726D01*
X60060000Y-104026584D01*
X59255000Y-104026584D01*
X59255000Y-102945141D01*
X66273000Y-102945141D01*
X66273000Y-103028859D01*
X66289333Y-103110968D01*
X66321370Y-103188313D01*
X66367881Y-103257921D01*
X66427079Y-103317119D01*
X66496687Y-103363630D01*
X66507237Y-103368000D01*
X66496687Y-103372370D01*
X66427079Y-103418881D01*
X66367881Y-103478079D01*
X66321370Y-103547687D01*
X66289333Y-103625032D01*
X66273000Y-103707141D01*
X66273000Y-103790859D01*
X66289333Y-103872968D01*
X66321370Y-103950313D01*
X66367881Y-104019921D01*
X66427079Y-104079119D01*
X66496687Y-104125630D01*
X66574032Y-104157667D01*
X66656141Y-104174000D01*
X66739859Y-104174000D01*
X66821968Y-104157667D01*
X66899313Y-104125630D01*
X66968921Y-104079119D01*
X67028119Y-104019921D01*
X67074630Y-103950313D01*
X67106667Y-103872968D01*
X67123000Y-103790859D01*
X67123000Y-103707141D01*
X67106667Y-103625032D01*
X67074630Y-103547687D01*
X67028119Y-103478079D01*
X66968921Y-103418881D01*
X66899313Y-103372370D01*
X66888763Y-103368000D01*
X66899313Y-103363630D01*
X66968921Y-103317119D01*
X67028119Y-103257921D01*
X67074630Y-103188313D01*
X67106667Y-103110968D01*
X67123000Y-103028859D01*
X67123000Y-102945141D01*
X67416000Y-102945141D01*
X67416000Y-103028859D01*
X67432333Y-103110968D01*
X67464370Y-103188313D01*
X67510881Y-103257921D01*
X67570079Y-103317119D01*
X67639687Y-103363630D01*
X67650237Y-103368000D01*
X67639687Y-103372370D01*
X67570079Y-103418881D01*
X67510881Y-103478079D01*
X67464370Y-103547687D01*
X67432333Y-103625032D01*
X67416000Y-103707141D01*
X67416000Y-103790859D01*
X67432333Y-103872968D01*
X67464370Y-103950313D01*
X67510881Y-104019921D01*
X67570079Y-104079119D01*
X67639687Y-104125630D01*
X67717032Y-104157667D01*
X67799141Y-104174000D01*
X67882859Y-104174000D01*
X67964968Y-104157667D01*
X68042313Y-104125630D01*
X68111921Y-104079119D01*
X68171119Y-104019921D01*
X68217630Y-103950313D01*
X68249667Y-103872968D01*
X68266000Y-103790859D01*
X68266000Y-103707141D01*
X68249667Y-103625032D01*
X68217630Y-103547687D01*
X68171119Y-103478079D01*
X68111921Y-103418881D01*
X68042313Y-103372370D01*
X68031763Y-103368000D01*
X68042313Y-103363630D01*
X68111921Y-103317119D01*
X68171119Y-103257921D01*
X68217630Y-103188313D01*
X68249667Y-103110968D01*
X68266000Y-103028859D01*
X68266000Y-102945141D01*
X68686000Y-102945141D01*
X68686000Y-103028859D01*
X68702333Y-103110968D01*
X68734370Y-103188313D01*
X68780881Y-103257921D01*
X68840079Y-103317119D01*
X68909687Y-103363630D01*
X68920237Y-103368000D01*
X68909687Y-103372370D01*
X68840079Y-103418881D01*
X68780881Y-103478079D01*
X68734370Y-103547687D01*
X68702333Y-103625032D01*
X68686000Y-103707141D01*
X68686000Y-103790859D01*
X68702333Y-103872968D01*
X68734370Y-103950313D01*
X68780881Y-104019921D01*
X68840079Y-104079119D01*
X68909687Y-104125630D01*
X68987032Y-104157667D01*
X69069141Y-104174000D01*
X69152859Y-104174000D01*
X69234968Y-104157667D01*
X69312313Y-104125630D01*
X69381921Y-104079119D01*
X69441119Y-104019921D01*
X69487630Y-103950313D01*
X69519667Y-103872968D01*
X69536000Y-103790859D01*
X69536000Y-103707141D01*
X69519667Y-103625032D01*
X69487630Y-103547687D01*
X69441119Y-103478079D01*
X69381921Y-103418881D01*
X69312313Y-103372370D01*
X69301763Y-103368000D01*
X69312313Y-103363630D01*
X69381921Y-103317119D01*
X69441119Y-103257921D01*
X69487630Y-103188313D01*
X69519667Y-103110968D01*
X69536000Y-103028859D01*
X69536000Y-102945141D01*
X69956000Y-102945141D01*
X69956000Y-103028859D01*
X69972333Y-103110968D01*
X70004370Y-103188313D01*
X70050881Y-103257921D01*
X70110079Y-103317119D01*
X70179687Y-103363630D01*
X70190237Y-103368000D01*
X70179687Y-103372370D01*
X70110079Y-103418881D01*
X70050881Y-103478079D01*
X70004370Y-103547687D01*
X69972333Y-103625032D01*
X69956000Y-103707141D01*
X69956000Y-103790859D01*
X69972333Y-103872968D01*
X70004370Y-103950313D01*
X70050881Y-104019921D01*
X70110079Y-104079119D01*
X70179687Y-104125630D01*
X70257032Y-104157667D01*
X70339141Y-104174000D01*
X70422859Y-104174000D01*
X70504968Y-104157667D01*
X70582313Y-104125630D01*
X70651921Y-104079119D01*
X70704456Y-104026584D01*
X75300000Y-104026584D01*
X75300000Y-104233416D01*
X75340350Y-104436274D01*
X75419502Y-104627362D01*
X75534411Y-104799336D01*
X75680664Y-104945589D01*
X75852638Y-105060498D01*
X76043726Y-105139650D01*
X76246584Y-105180000D01*
X76453416Y-105180000D01*
X76656274Y-105139650D01*
X76847362Y-105060498D01*
X77019336Y-104945589D01*
X77165589Y-104799336D01*
X77280498Y-104627362D01*
X77359650Y-104436274D01*
X77400000Y-104233416D01*
X77400000Y-104026584D01*
X77359650Y-103823726D01*
X77280498Y-103632638D01*
X77165589Y-103460664D01*
X77019336Y-103314411D01*
X76847362Y-103199502D01*
X76656274Y-103120350D01*
X76453416Y-103080000D01*
X76246584Y-103080000D01*
X76043726Y-103120350D01*
X75852638Y-103199502D01*
X75680664Y-103314411D01*
X75534411Y-103460664D01*
X75419502Y-103632638D01*
X75340350Y-103823726D01*
X75300000Y-104026584D01*
X70704456Y-104026584D01*
X70711119Y-104019921D01*
X70757630Y-103950313D01*
X70789667Y-103872968D01*
X70806000Y-103790859D01*
X70806000Y-103707141D01*
X70789667Y-103625032D01*
X70757630Y-103547687D01*
X70711119Y-103478079D01*
X70651921Y-103418881D01*
X70582313Y-103372370D01*
X70571763Y-103368000D01*
X70582313Y-103363630D01*
X70651921Y-103317119D01*
X70711119Y-103257921D01*
X70757630Y-103188313D01*
X70789667Y-103110968D01*
X70806000Y-103028859D01*
X70806000Y-102945141D01*
X70789667Y-102863032D01*
X70757630Y-102785687D01*
X70711119Y-102716079D01*
X70651921Y-102656881D01*
X70582313Y-102610370D01*
X70504968Y-102578333D01*
X70422859Y-102562000D01*
X70339141Y-102562000D01*
X70257032Y-102578333D01*
X70179687Y-102610370D01*
X70110079Y-102656881D01*
X70050881Y-102716079D01*
X70004370Y-102785687D01*
X69972333Y-102863032D01*
X69956000Y-102945141D01*
X69536000Y-102945141D01*
X69519667Y-102863032D01*
X69487630Y-102785687D01*
X69441119Y-102716079D01*
X69381921Y-102656881D01*
X69312313Y-102610370D01*
X69234968Y-102578333D01*
X69152859Y-102562000D01*
X69069141Y-102562000D01*
X68987032Y-102578333D01*
X68909687Y-102610370D01*
X68840079Y-102656881D01*
X68780881Y-102716079D01*
X68734370Y-102785687D01*
X68702333Y-102863032D01*
X68686000Y-102945141D01*
X68266000Y-102945141D01*
X68249667Y-102863032D01*
X68217630Y-102785687D01*
X68171119Y-102716079D01*
X68111921Y-102656881D01*
X68042313Y-102610370D01*
X67964968Y-102578333D01*
X67882859Y-102562000D01*
X67799141Y-102562000D01*
X67717032Y-102578333D01*
X67639687Y-102610370D01*
X67570079Y-102656881D01*
X67510881Y-102716079D01*
X67464370Y-102785687D01*
X67432333Y-102863032D01*
X67416000Y-102945141D01*
X67123000Y-102945141D01*
X67106667Y-102863032D01*
X67074630Y-102785687D01*
X67028119Y-102716079D01*
X66968921Y-102656881D01*
X66899313Y-102610370D01*
X66821968Y-102578333D01*
X66739859Y-102562000D01*
X66656141Y-102562000D01*
X66574032Y-102578333D01*
X66496687Y-102610370D01*
X66427079Y-102656881D01*
X66367881Y-102716079D01*
X66321370Y-102785687D01*
X66289333Y-102863032D01*
X66273000Y-102945141D01*
X59255000Y-102945141D01*
X59255000Y-101486584D01*
X60060000Y-101486584D01*
X60060000Y-101693416D01*
X60100350Y-101896274D01*
X60179502Y-102087362D01*
X60294411Y-102259336D01*
X60440664Y-102405589D01*
X60612638Y-102520498D01*
X60803726Y-102599650D01*
X61006584Y-102640000D01*
X61213416Y-102640000D01*
X61416274Y-102599650D01*
X61607362Y-102520498D01*
X61779336Y-102405589D01*
X61925589Y-102259336D01*
X62040498Y-102087362D01*
X62119650Y-101896274D01*
X62160000Y-101693416D01*
X62160000Y-101486584D01*
X75300000Y-101486584D01*
X75300000Y-101693416D01*
X75340350Y-101896274D01*
X75419502Y-102087362D01*
X75534411Y-102259336D01*
X75680664Y-102405589D01*
X75852638Y-102520498D01*
X76043726Y-102599650D01*
X76246584Y-102640000D01*
X76453416Y-102640000D01*
X76656274Y-102599650D01*
X76847362Y-102520498D01*
X77019336Y-102405589D01*
X77165589Y-102259336D01*
X77280498Y-102087362D01*
X77359650Y-101896274D01*
X77400000Y-101693416D01*
X77400000Y-101486584D01*
X77359650Y-101283726D01*
X77280498Y-101092638D01*
X77165589Y-100920664D01*
X77019336Y-100774411D01*
X76847362Y-100659502D01*
X76656274Y-100580350D01*
X76453416Y-100540000D01*
X76246584Y-100540000D01*
X76043726Y-100580350D01*
X75852638Y-100659502D01*
X75680664Y-100774411D01*
X75534411Y-100920664D01*
X75419502Y-101092638D01*
X75340350Y-101283726D01*
X75300000Y-101486584D01*
X62160000Y-101486584D01*
X62119650Y-101283726D01*
X62040498Y-101092638D01*
X61925589Y-100920664D01*
X61779336Y-100774411D01*
X61607362Y-100659502D01*
X61416274Y-100580350D01*
X61213416Y-100540000D01*
X61006584Y-100540000D01*
X60803726Y-100580350D01*
X60612638Y-100659502D01*
X60440664Y-100774411D01*
X60294411Y-100920664D01*
X60179502Y-101092638D01*
X60100350Y-101283726D01*
X60060000Y-101486584D01*
X59255000Y-101486584D01*
X59255000Y-98946584D01*
X60060000Y-98946584D01*
X60060000Y-99153416D01*
X60100350Y-99356274D01*
X60179502Y-99547362D01*
X60294411Y-99719336D01*
X60440664Y-99865589D01*
X60612638Y-99980498D01*
X60803726Y-100059650D01*
X61006584Y-100100000D01*
X61213416Y-100100000D01*
X61416274Y-100059650D01*
X61607362Y-99980498D01*
X61732114Y-99897141D01*
X71353000Y-99897141D01*
X71353000Y-99980859D01*
X71369333Y-100062968D01*
X71401370Y-100140313D01*
X71447881Y-100209921D01*
X71507079Y-100269119D01*
X71576687Y-100315630D01*
X71654032Y-100347667D01*
X71736141Y-100364000D01*
X71819859Y-100364000D01*
X71901968Y-100347667D01*
X71979313Y-100315630D01*
X72048921Y-100269119D01*
X72108119Y-100209921D01*
X72154630Y-100140313D01*
X72186667Y-100062968D01*
X72203000Y-99980859D01*
X72203000Y-99897141D01*
X72186667Y-99815032D01*
X72154630Y-99737687D01*
X72108119Y-99668079D01*
X72048921Y-99608881D01*
X71979313Y-99562370D01*
X71901968Y-99530333D01*
X71819859Y-99514000D01*
X71736141Y-99514000D01*
X71654032Y-99530333D01*
X71576687Y-99562370D01*
X71507079Y-99608881D01*
X71447881Y-99668079D01*
X71401370Y-99737687D01*
X71369333Y-99815032D01*
X71353000Y-99897141D01*
X61732114Y-99897141D01*
X61779336Y-99865589D01*
X61925589Y-99719336D01*
X62040498Y-99547362D01*
X62119650Y-99356274D01*
X62160000Y-99153416D01*
X62160000Y-98946584D01*
X75300000Y-98946584D01*
X75300000Y-99153416D01*
X75340350Y-99356274D01*
X75419502Y-99547362D01*
X75534411Y-99719336D01*
X75680664Y-99865589D01*
X75852638Y-99980498D01*
X76043726Y-100059650D01*
X76246584Y-100100000D01*
X76453416Y-100100000D01*
X76656274Y-100059650D01*
X76847362Y-99980498D01*
X77019336Y-99865589D01*
X77165589Y-99719336D01*
X77280498Y-99547362D01*
X77359650Y-99356274D01*
X77400000Y-99153416D01*
X77400000Y-98946584D01*
X77359650Y-98743726D01*
X77280498Y-98552638D01*
X77165589Y-98380664D01*
X77019336Y-98234411D01*
X76847362Y-98119502D01*
X76656274Y-98040350D01*
X76453416Y-98000000D01*
X76246584Y-98000000D01*
X76043726Y-98040350D01*
X75852638Y-98119502D01*
X75680664Y-98234411D01*
X75534411Y-98380664D01*
X75419502Y-98552638D01*
X75340350Y-98743726D01*
X75300000Y-98946584D01*
X62160000Y-98946584D01*
X62119650Y-98743726D01*
X62040498Y-98552638D01*
X61925589Y-98380664D01*
X61779336Y-98234411D01*
X61607362Y-98119502D01*
X61416274Y-98040350D01*
X61213416Y-98000000D01*
X61006584Y-98000000D01*
X60803726Y-98040350D01*
X60612638Y-98119502D01*
X60440664Y-98234411D01*
X60294411Y-98380664D01*
X60179502Y-98552638D01*
X60100350Y-98743726D01*
X60060000Y-98946584D01*
X59255000Y-98946584D01*
X59255000Y-96406584D01*
X60060000Y-96406584D01*
X60060000Y-96613416D01*
X60100350Y-96816274D01*
X60179502Y-97007362D01*
X60294411Y-97179336D01*
X60440664Y-97325589D01*
X60612638Y-97440498D01*
X60803726Y-97519650D01*
X61006584Y-97560000D01*
X61213416Y-97560000D01*
X61416274Y-97519650D01*
X61607362Y-97440498D01*
X61779336Y-97325589D01*
X61925589Y-97179336D01*
X62040498Y-97007362D01*
X62119650Y-96816274D01*
X62160000Y-96613416D01*
X62160000Y-96406584D01*
X75300000Y-96406584D01*
X75300000Y-96613416D01*
X75340350Y-96816274D01*
X75419502Y-97007362D01*
X75534411Y-97179336D01*
X75680664Y-97325589D01*
X75852638Y-97440498D01*
X76043726Y-97519650D01*
X76246584Y-97560000D01*
X76453416Y-97560000D01*
X76656274Y-97519650D01*
X76847362Y-97440498D01*
X77019336Y-97325589D01*
X77165589Y-97179336D01*
X77280498Y-97007362D01*
X77359650Y-96816274D01*
X77400000Y-96613416D01*
X77400000Y-96406584D01*
X77359650Y-96203726D01*
X77280498Y-96012638D01*
X77165589Y-95840664D01*
X77019336Y-95694411D01*
X76847362Y-95579502D01*
X76656274Y-95500350D01*
X76453416Y-95460000D01*
X76246584Y-95460000D01*
X76043726Y-95500350D01*
X75852638Y-95579502D01*
X75680664Y-95694411D01*
X75534411Y-95840664D01*
X75419502Y-96012638D01*
X75340350Y-96203726D01*
X75300000Y-96406584D01*
X62160000Y-96406584D01*
X62119650Y-96203726D01*
X62040498Y-96012638D01*
X61925589Y-95840664D01*
X61779336Y-95694411D01*
X61607362Y-95579502D01*
X61416274Y-95500350D01*
X61213416Y-95460000D01*
X61006584Y-95460000D01*
X60803726Y-95500350D01*
X60612638Y-95579502D01*
X60440664Y-95694411D01*
X60294411Y-95840664D01*
X60179502Y-96012638D01*
X60100350Y-96203726D01*
X60060000Y-96406584D01*
X59255000Y-96406584D01*
X59255000Y-93866584D01*
X60060000Y-93866584D01*
X60060000Y-94073416D01*
X60100350Y-94276274D01*
X60179502Y-94467362D01*
X60294411Y-94639336D01*
X60440664Y-94785589D01*
X60612638Y-94900498D01*
X60803726Y-94979650D01*
X61006584Y-95020000D01*
X61213416Y-95020000D01*
X61416274Y-94979650D01*
X61607362Y-94900498D01*
X61663270Y-94863141D01*
X66019000Y-94863141D01*
X66019000Y-94946859D01*
X66035333Y-95028968D01*
X66067370Y-95106313D01*
X66113881Y-95175921D01*
X66173079Y-95235119D01*
X66242687Y-95281630D01*
X66320032Y-95313667D01*
X66402141Y-95330000D01*
X66485859Y-95330000D01*
X66567968Y-95313667D01*
X66645313Y-95281630D01*
X66714921Y-95235119D01*
X66774119Y-95175921D01*
X66820630Y-95106313D01*
X66852667Y-95028968D01*
X66869000Y-94946859D01*
X66869000Y-94863141D01*
X66868006Y-94858141D01*
X70355000Y-94858141D01*
X70355000Y-94941859D01*
X70371333Y-95023968D01*
X70403370Y-95101313D01*
X70449881Y-95170921D01*
X70509079Y-95230119D01*
X70578687Y-95276630D01*
X70656032Y-95308667D01*
X70738141Y-95325000D01*
X70821859Y-95325000D01*
X70903968Y-95308667D01*
X70981313Y-95276630D01*
X71050921Y-95230119D01*
X71110119Y-95170921D01*
X71156630Y-95101313D01*
X71188667Y-95023968D01*
X71205000Y-94941859D01*
X71205000Y-94858141D01*
X71188667Y-94776032D01*
X71156630Y-94698687D01*
X71110119Y-94629079D01*
X71050921Y-94569881D01*
X70981313Y-94523370D01*
X70903968Y-94491333D01*
X70821859Y-94475000D01*
X70738141Y-94475000D01*
X70656032Y-94491333D01*
X70578687Y-94523370D01*
X70509079Y-94569881D01*
X70449881Y-94629079D01*
X70403370Y-94698687D01*
X70371333Y-94776032D01*
X70355000Y-94858141D01*
X66868006Y-94858141D01*
X66852667Y-94781032D01*
X66820630Y-94703687D01*
X66774119Y-94634079D01*
X66714921Y-94574881D01*
X66645313Y-94528370D01*
X66567968Y-94496333D01*
X66485859Y-94480000D01*
X66402141Y-94480000D01*
X66320032Y-94496333D01*
X66242687Y-94528370D01*
X66173079Y-94574881D01*
X66113881Y-94634079D01*
X66067370Y-94703687D01*
X66035333Y-94781032D01*
X66019000Y-94863141D01*
X61663270Y-94863141D01*
X61779336Y-94785589D01*
X61925589Y-94639336D01*
X62040498Y-94467362D01*
X62119650Y-94276274D01*
X62160000Y-94073416D01*
X62160000Y-93866584D01*
X75300000Y-93866584D01*
X75300000Y-94073416D01*
X75340350Y-94276274D01*
X75419502Y-94467362D01*
X75534411Y-94639336D01*
X75680664Y-94785589D01*
X75852638Y-94900498D01*
X76043726Y-94979650D01*
X76246584Y-95020000D01*
X76453416Y-95020000D01*
X76656274Y-94979650D01*
X76847362Y-94900498D01*
X77019336Y-94785589D01*
X77165589Y-94639336D01*
X77280498Y-94467362D01*
X77359650Y-94276274D01*
X77400000Y-94073416D01*
X77400000Y-93866584D01*
X77359650Y-93663726D01*
X77280498Y-93472638D01*
X77165589Y-93300664D01*
X77019336Y-93154411D01*
X76847362Y-93039502D01*
X76656274Y-92960350D01*
X76453416Y-92920000D01*
X76246584Y-92920000D01*
X76043726Y-92960350D01*
X75852638Y-93039502D01*
X75680664Y-93154411D01*
X75534411Y-93300664D01*
X75419502Y-93472638D01*
X75340350Y-93663726D01*
X75300000Y-93866584D01*
X62160000Y-93866584D01*
X62119650Y-93663726D01*
X62040498Y-93472638D01*
X61925589Y-93300664D01*
X61779336Y-93154411D01*
X61607362Y-93039502D01*
X61416274Y-92960350D01*
X61213416Y-92920000D01*
X61006584Y-92920000D01*
X60803726Y-92960350D01*
X60612638Y-93039502D01*
X60440664Y-93154411D01*
X60294411Y-93300664D01*
X60179502Y-93472638D01*
X60100350Y-93663726D01*
X60060000Y-93866584D01*
X59255000Y-93866584D01*
X59255000Y-91326584D01*
X60060000Y-91326584D01*
X60060000Y-91533416D01*
X60100350Y-91736274D01*
X60179502Y-91927362D01*
X60294411Y-92099336D01*
X60440664Y-92245589D01*
X60612638Y-92360498D01*
X60803726Y-92439650D01*
X61006584Y-92480000D01*
X61213416Y-92480000D01*
X61416274Y-92439650D01*
X61607362Y-92360498D01*
X61685720Y-92308141D01*
X65855000Y-92308141D01*
X65855000Y-92391859D01*
X65871333Y-92473968D01*
X65903370Y-92551313D01*
X65949881Y-92620921D01*
X66009079Y-92680119D01*
X66078687Y-92726630D01*
X66156032Y-92758667D01*
X66238141Y-92775000D01*
X66321859Y-92775000D01*
X66403968Y-92758667D01*
X66481313Y-92726630D01*
X66550921Y-92680119D01*
X66610119Y-92620921D01*
X66656630Y-92551313D01*
X66688667Y-92473968D01*
X66705000Y-92391859D01*
X66705000Y-92308141D01*
X66688667Y-92226032D01*
X66656630Y-92148687D01*
X66610119Y-92079079D01*
X66550921Y-92019881D01*
X66481313Y-91973370D01*
X66403968Y-91941333D01*
X66321859Y-91925000D01*
X66238141Y-91925000D01*
X66156032Y-91941333D01*
X66078687Y-91973370D01*
X66009079Y-92019881D01*
X65949881Y-92079079D01*
X65903370Y-92148687D01*
X65871333Y-92226032D01*
X65855000Y-92308141D01*
X61685720Y-92308141D01*
X61779336Y-92245589D01*
X61925589Y-92099336D01*
X62040498Y-91927362D01*
X62119650Y-91736274D01*
X62160000Y-91533416D01*
X62160000Y-91326584D01*
X62119650Y-91123726D01*
X62092484Y-91058141D01*
X66380000Y-91058141D01*
X66380000Y-91141859D01*
X66396333Y-91223968D01*
X66428370Y-91301313D01*
X66474881Y-91370921D01*
X66534079Y-91430119D01*
X66603687Y-91476630D01*
X66681032Y-91508667D01*
X66763141Y-91525000D01*
X66846859Y-91525000D01*
X66928968Y-91508667D01*
X67006313Y-91476630D01*
X67075921Y-91430119D01*
X67135119Y-91370921D01*
X67164744Y-91326584D01*
X75300000Y-91326584D01*
X75300000Y-91533416D01*
X75340350Y-91736274D01*
X75419502Y-91927362D01*
X75534411Y-92099336D01*
X75680664Y-92245589D01*
X75852638Y-92360498D01*
X76043726Y-92439650D01*
X76246584Y-92480000D01*
X76453416Y-92480000D01*
X76656274Y-92439650D01*
X76847362Y-92360498D01*
X77019336Y-92245589D01*
X77165589Y-92099336D01*
X77280498Y-91927362D01*
X77359650Y-91736274D01*
X77400000Y-91533416D01*
X77400000Y-91326584D01*
X77359650Y-91123726D01*
X77280498Y-90932638D01*
X77165589Y-90760664D01*
X77019336Y-90614411D01*
X76847362Y-90499502D01*
X76656274Y-90420350D01*
X76453416Y-90380000D01*
X76246584Y-90380000D01*
X76043726Y-90420350D01*
X75852638Y-90499502D01*
X75680664Y-90614411D01*
X75534411Y-90760664D01*
X75419502Y-90932638D01*
X75340350Y-91123726D01*
X75300000Y-91326584D01*
X67164744Y-91326584D01*
X67181630Y-91301313D01*
X67213667Y-91223968D01*
X67230000Y-91141859D01*
X67230000Y-91058141D01*
X67213667Y-90976032D01*
X67181630Y-90898687D01*
X67135119Y-90829079D01*
X67075921Y-90769881D01*
X67006313Y-90723370D01*
X66928968Y-90691333D01*
X66846859Y-90675000D01*
X66763141Y-90675000D01*
X66681032Y-90691333D01*
X66603687Y-90723370D01*
X66534079Y-90769881D01*
X66474881Y-90829079D01*
X66428370Y-90898687D01*
X66396333Y-90976032D01*
X66380000Y-91058141D01*
X62092484Y-91058141D01*
X62040498Y-90932638D01*
X61925589Y-90760664D01*
X61779336Y-90614411D01*
X61607362Y-90499502D01*
X61416274Y-90420350D01*
X61213416Y-90380000D01*
X61006584Y-90380000D01*
X60803726Y-90420350D01*
X60612638Y-90499502D01*
X60440664Y-90614411D01*
X60294411Y-90760664D01*
X60179502Y-90932638D01*
X60100350Y-91123726D01*
X60060000Y-91326584D01*
X59255000Y-91326584D01*
X59255000Y-88786584D01*
X60060000Y-88786584D01*
X60060000Y-88993416D01*
X60100350Y-89196274D01*
X60179502Y-89387362D01*
X60294411Y-89559336D01*
X60440664Y-89705589D01*
X60612638Y-89820498D01*
X60803726Y-89899650D01*
X61006584Y-89940000D01*
X61213416Y-89940000D01*
X61416274Y-89899650D01*
X61607362Y-89820498D01*
X61779336Y-89705589D01*
X61925589Y-89559336D01*
X62040498Y-89387362D01*
X62119650Y-89196274D01*
X62160000Y-88993416D01*
X62160000Y-88786584D01*
X62134452Y-88658141D01*
X62905000Y-88658141D01*
X62905000Y-88741859D01*
X62921333Y-88823968D01*
X62953370Y-88901313D01*
X62999881Y-88970921D01*
X63053960Y-89025000D01*
X62999881Y-89079079D01*
X62953370Y-89148687D01*
X62921333Y-89226032D01*
X62905000Y-89308141D01*
X62905000Y-89391859D01*
X62921333Y-89473968D01*
X62953370Y-89551313D01*
X62999881Y-89620921D01*
X63059079Y-89680119D01*
X63088833Y-89700000D01*
X63059079Y-89719881D01*
X62999881Y-89779079D01*
X62953370Y-89848687D01*
X62921333Y-89926032D01*
X62905000Y-90008141D01*
X62905000Y-90091859D01*
X62921333Y-90173968D01*
X62953370Y-90251313D01*
X62999881Y-90320921D01*
X63059079Y-90380119D01*
X63128687Y-90426630D01*
X63206032Y-90458667D01*
X63288141Y-90475000D01*
X63371859Y-90475000D01*
X63453968Y-90458667D01*
X63531313Y-90426630D01*
X63600921Y-90380119D01*
X63660119Y-90320921D01*
X63706630Y-90251313D01*
X63738667Y-90173968D01*
X63755000Y-90091859D01*
X63755000Y-90008141D01*
X63738667Y-89926032D01*
X63710546Y-89858141D01*
X66755000Y-89858141D01*
X66755000Y-89941859D01*
X66771333Y-90023968D01*
X66803370Y-90101313D01*
X66849881Y-90170921D01*
X66909079Y-90230119D01*
X66978687Y-90276630D01*
X67056032Y-90308667D01*
X67138141Y-90325000D01*
X67221859Y-90325000D01*
X67303968Y-90308667D01*
X67381313Y-90276630D01*
X67450921Y-90230119D01*
X67510119Y-90170921D01*
X67556630Y-90101313D01*
X67588667Y-90023968D01*
X67605000Y-89941859D01*
X67605000Y-89858141D01*
X67588667Y-89776032D01*
X67556630Y-89698687D01*
X67510119Y-89629079D01*
X67450921Y-89569881D01*
X67381313Y-89523370D01*
X67303968Y-89491333D01*
X67221859Y-89475000D01*
X67138141Y-89475000D01*
X67056032Y-89491333D01*
X66978687Y-89523370D01*
X66909079Y-89569881D01*
X66849881Y-89629079D01*
X66803370Y-89698687D01*
X66771333Y-89776032D01*
X66755000Y-89858141D01*
X63710546Y-89858141D01*
X63706630Y-89848687D01*
X63660119Y-89779079D01*
X63600921Y-89719881D01*
X63571167Y-89700000D01*
X63600921Y-89680119D01*
X63660119Y-89620921D01*
X63706630Y-89551313D01*
X63738667Y-89473968D01*
X63755000Y-89391859D01*
X63755000Y-89308141D01*
X63738667Y-89226032D01*
X63706630Y-89148687D01*
X63660119Y-89079079D01*
X63606040Y-89025000D01*
X63660119Y-88970921D01*
X63706630Y-88901313D01*
X63736264Y-88829769D01*
X63806032Y-88858667D01*
X63888141Y-88875000D01*
X63971859Y-88875000D01*
X64053968Y-88858667D01*
X64131313Y-88826630D01*
X64191245Y-88786584D01*
X75300000Y-88786584D01*
X75300000Y-88993416D01*
X75340350Y-89196274D01*
X75419502Y-89387362D01*
X75534411Y-89559336D01*
X75680664Y-89705589D01*
X75852638Y-89820498D01*
X76043726Y-89899650D01*
X76246584Y-89940000D01*
X76453416Y-89940000D01*
X76656274Y-89899650D01*
X76847362Y-89820498D01*
X77019336Y-89705589D01*
X77165589Y-89559336D01*
X77280498Y-89387362D01*
X77359650Y-89196274D01*
X77400000Y-88993416D01*
X77400000Y-88786584D01*
X77359650Y-88583726D01*
X77280498Y-88392638D01*
X77165589Y-88220664D01*
X77019336Y-88074411D01*
X76847362Y-87959502D01*
X76656274Y-87880350D01*
X76453416Y-87840000D01*
X76246584Y-87840000D01*
X76043726Y-87880350D01*
X75852638Y-87959502D01*
X75680664Y-88074411D01*
X75534411Y-88220664D01*
X75419502Y-88392638D01*
X75340350Y-88583726D01*
X75300000Y-88786584D01*
X64191245Y-88786584D01*
X64200921Y-88780119D01*
X64260119Y-88720921D01*
X64306630Y-88651313D01*
X64338667Y-88573968D01*
X64355000Y-88491859D01*
X64355000Y-88408141D01*
X64338667Y-88326032D01*
X64306630Y-88248687D01*
X64260119Y-88179079D01*
X64206040Y-88125000D01*
X64260119Y-88070921D01*
X64306630Y-88001313D01*
X64338667Y-87923968D01*
X64355000Y-87841859D01*
X64355000Y-87758141D01*
X64338667Y-87676032D01*
X64306630Y-87598687D01*
X64260119Y-87529079D01*
X64206040Y-87475000D01*
X64260119Y-87420921D01*
X64306630Y-87351313D01*
X64336264Y-87279769D01*
X64406032Y-87308667D01*
X64488141Y-87325000D01*
X64571859Y-87325000D01*
X64653968Y-87308667D01*
X64731313Y-87276630D01*
X64800921Y-87230119D01*
X64860119Y-87170921D01*
X64906630Y-87101313D01*
X64938667Y-87023968D01*
X64955000Y-86941859D01*
X64955000Y-86858141D01*
X64938667Y-86776032D01*
X64906630Y-86698687D01*
X64860119Y-86629079D01*
X64806040Y-86575000D01*
X64860119Y-86520921D01*
X64906630Y-86451313D01*
X64938667Y-86373968D01*
X64955000Y-86291859D01*
X64955000Y-86208141D01*
X64938667Y-86126032D01*
X64931257Y-86108141D01*
X73180000Y-86108141D01*
X73180000Y-86191859D01*
X73196333Y-86273968D01*
X73228370Y-86351313D01*
X73274881Y-86420921D01*
X73334079Y-86480119D01*
X73382540Y-86512500D01*
X73334079Y-86544881D01*
X73274881Y-86604079D01*
X73228370Y-86673687D01*
X73196333Y-86751032D01*
X73180000Y-86833141D01*
X73180000Y-86916859D01*
X73196333Y-86998968D01*
X73228370Y-87076313D01*
X73274881Y-87145921D01*
X73334079Y-87205119D01*
X73403687Y-87251630D01*
X73481032Y-87283667D01*
X73563141Y-87300000D01*
X73646859Y-87300000D01*
X73728968Y-87283667D01*
X73806313Y-87251630D01*
X73875921Y-87205119D01*
X73935119Y-87145921D01*
X73981630Y-87076313D01*
X74013667Y-86998968D01*
X74030000Y-86916859D01*
X74030000Y-86833141D01*
X74013667Y-86751032D01*
X73981630Y-86673687D01*
X73935119Y-86604079D01*
X73875921Y-86544881D01*
X73827460Y-86512500D01*
X73875921Y-86480119D01*
X73935119Y-86420921D01*
X73981630Y-86351313D01*
X74013667Y-86273968D01*
X74019114Y-86246584D01*
X75300000Y-86246584D01*
X75300000Y-86453416D01*
X75340350Y-86656274D01*
X75419502Y-86847362D01*
X75534411Y-87019336D01*
X75680664Y-87165589D01*
X75852638Y-87280498D01*
X76043726Y-87359650D01*
X76246584Y-87400000D01*
X76453416Y-87400000D01*
X76656274Y-87359650D01*
X76847362Y-87280498D01*
X77019336Y-87165589D01*
X77165589Y-87019336D01*
X77280498Y-86847362D01*
X77359650Y-86656274D01*
X77400000Y-86453416D01*
X77400000Y-86246584D01*
X77359650Y-86043726D01*
X77280498Y-85852638D01*
X77165589Y-85680664D01*
X77019336Y-85534411D01*
X76847362Y-85419502D01*
X76656274Y-85340350D01*
X76453416Y-85300000D01*
X76246584Y-85300000D01*
X76043726Y-85340350D01*
X75852638Y-85419502D01*
X75680664Y-85534411D01*
X75534411Y-85680664D01*
X75419502Y-85852638D01*
X75340350Y-86043726D01*
X75300000Y-86246584D01*
X74019114Y-86246584D01*
X74030000Y-86191859D01*
X74030000Y-86108141D01*
X74013667Y-86026032D01*
X73981630Y-85948687D01*
X73935119Y-85879079D01*
X73875921Y-85819881D01*
X73806313Y-85773370D01*
X73728968Y-85741333D01*
X73646859Y-85725000D01*
X73563141Y-85725000D01*
X73481032Y-85741333D01*
X73403687Y-85773370D01*
X73334079Y-85819881D01*
X73274881Y-85879079D01*
X73228370Y-85948687D01*
X73196333Y-86026032D01*
X73180000Y-86108141D01*
X64931257Y-86108141D01*
X64906630Y-86048687D01*
X64860119Y-85979079D01*
X64806040Y-85925000D01*
X64860119Y-85870921D01*
X64906630Y-85801313D01*
X64938667Y-85723968D01*
X64955000Y-85641859D01*
X64955000Y-85558141D01*
X64938667Y-85476032D01*
X64906630Y-85398687D01*
X64860119Y-85329079D01*
X64800921Y-85269881D01*
X64731313Y-85223370D01*
X64653968Y-85191333D01*
X64571859Y-85175000D01*
X64488141Y-85175000D01*
X64406032Y-85191333D01*
X64328687Y-85223370D01*
X64259079Y-85269881D01*
X64199881Y-85329079D01*
X64153370Y-85398687D01*
X64121333Y-85476032D01*
X64105000Y-85558141D01*
X64105000Y-85641859D01*
X64121333Y-85723968D01*
X64153370Y-85801313D01*
X64199881Y-85870921D01*
X64253960Y-85925000D01*
X64199881Y-85979079D01*
X64153370Y-86048687D01*
X64121333Y-86126032D01*
X64105000Y-86208141D01*
X64105000Y-86291859D01*
X64121333Y-86373968D01*
X64153370Y-86451313D01*
X64199881Y-86520921D01*
X64253960Y-86575000D01*
X64199881Y-86629079D01*
X64153370Y-86698687D01*
X64123736Y-86770231D01*
X64053968Y-86741333D01*
X63971859Y-86725000D01*
X63888141Y-86725000D01*
X63806032Y-86741333D01*
X63728687Y-86773370D01*
X63659079Y-86819881D01*
X63599881Y-86879079D01*
X63553370Y-86948687D01*
X63521333Y-87026032D01*
X63505000Y-87108141D01*
X63505000Y-87191859D01*
X63521333Y-87273968D01*
X63553370Y-87351313D01*
X63599881Y-87420921D01*
X63653960Y-87475000D01*
X63599881Y-87529079D01*
X63553370Y-87598687D01*
X63521333Y-87676032D01*
X63505000Y-87758141D01*
X63505000Y-87841859D01*
X63521333Y-87923968D01*
X63553370Y-88001313D01*
X63599881Y-88070921D01*
X63653960Y-88125000D01*
X63599881Y-88179079D01*
X63553370Y-88248687D01*
X63523736Y-88320231D01*
X63453968Y-88291333D01*
X63371859Y-88275000D01*
X63288141Y-88275000D01*
X63206032Y-88291333D01*
X63128687Y-88323370D01*
X63059079Y-88369881D01*
X62999881Y-88429079D01*
X62953370Y-88498687D01*
X62921333Y-88576032D01*
X62905000Y-88658141D01*
X62134452Y-88658141D01*
X62119650Y-88583726D01*
X62040498Y-88392638D01*
X61925589Y-88220664D01*
X61779336Y-88074411D01*
X61607362Y-87959502D01*
X61416274Y-87880350D01*
X61213416Y-87840000D01*
X61006584Y-87840000D01*
X60803726Y-87880350D01*
X60612638Y-87959502D01*
X60440664Y-88074411D01*
X60294411Y-88220664D01*
X60179502Y-88392638D01*
X60100350Y-88583726D01*
X60060000Y-88786584D01*
X59255000Y-88786584D01*
X59255000Y-86246584D01*
X60060000Y-86246584D01*
X60060000Y-86453416D01*
X60100350Y-86656274D01*
X60179502Y-86847362D01*
X60294411Y-87019336D01*
X60440664Y-87165589D01*
X60612638Y-87280498D01*
X60803726Y-87359650D01*
X61006584Y-87400000D01*
X61213416Y-87400000D01*
X61416274Y-87359650D01*
X61607362Y-87280498D01*
X61779336Y-87165589D01*
X61925589Y-87019336D01*
X62040498Y-86847362D01*
X62119650Y-86656274D01*
X62160000Y-86453416D01*
X62160000Y-86246584D01*
X62119650Y-86043726D01*
X62040498Y-85852638D01*
X61925589Y-85680664D01*
X61779336Y-85534411D01*
X61607362Y-85419502D01*
X61416274Y-85340350D01*
X61213416Y-85300000D01*
X61006584Y-85300000D01*
X60803726Y-85340350D01*
X60612638Y-85419502D01*
X60440664Y-85534411D01*
X60294411Y-85680664D01*
X60179502Y-85852638D01*
X60100350Y-86043726D01*
X60060000Y-86246584D01*
X59255000Y-86246584D01*
X59255000Y-83706584D01*
X60060000Y-83706584D01*
X60060000Y-83913416D01*
X60100350Y-84116274D01*
X60179502Y-84307362D01*
X60294411Y-84479336D01*
X60440664Y-84625589D01*
X60612638Y-84740498D01*
X60803726Y-84819650D01*
X61006584Y-84860000D01*
X61213416Y-84860000D01*
X61416274Y-84819650D01*
X61607362Y-84740498D01*
X61779336Y-84625589D01*
X61925589Y-84479336D01*
X62040498Y-84307362D01*
X62119650Y-84116274D01*
X62160000Y-83913416D01*
X62160000Y-83706584D01*
X62119650Y-83503726D01*
X62040498Y-83312638D01*
X62004085Y-83258141D01*
X64705000Y-83258141D01*
X64705000Y-83341859D01*
X64721333Y-83423968D01*
X64753370Y-83501313D01*
X64799881Y-83570921D01*
X64859079Y-83630119D01*
X64928687Y-83676630D01*
X65006032Y-83708667D01*
X65088141Y-83725000D01*
X65171859Y-83725000D01*
X65253968Y-83708667D01*
X65331313Y-83676630D01*
X65400921Y-83630119D01*
X65460119Y-83570921D01*
X65506630Y-83501313D01*
X65538667Y-83423968D01*
X65546790Y-83383131D01*
X65955000Y-83383131D01*
X65955000Y-83466849D01*
X65971333Y-83548958D01*
X66003370Y-83626303D01*
X66049881Y-83695911D01*
X66109079Y-83755109D01*
X66178687Y-83801620D01*
X66256032Y-83833657D01*
X66338141Y-83849990D01*
X66421859Y-83849990D01*
X66503968Y-83833657D01*
X66581313Y-83801620D01*
X66650921Y-83755109D01*
X66699446Y-83706584D01*
X75300000Y-83706584D01*
X75300000Y-83913416D01*
X75340350Y-84116274D01*
X75419502Y-84307362D01*
X75534411Y-84479336D01*
X75680664Y-84625589D01*
X75852638Y-84740498D01*
X76043726Y-84819650D01*
X76246584Y-84860000D01*
X76453416Y-84860000D01*
X76656274Y-84819650D01*
X76847362Y-84740498D01*
X77019336Y-84625589D01*
X77165589Y-84479336D01*
X77280498Y-84307362D01*
X77359650Y-84116274D01*
X77400000Y-83913416D01*
X77400000Y-83706584D01*
X77359650Y-83503726D01*
X77280498Y-83312638D01*
X77165589Y-83140664D01*
X77019336Y-82994411D01*
X76847362Y-82879502D01*
X76656274Y-82800350D01*
X76453416Y-82760000D01*
X76246584Y-82760000D01*
X76043726Y-82800350D01*
X75852638Y-82879502D01*
X75680664Y-82994411D01*
X75534411Y-83140664D01*
X75419502Y-83312638D01*
X75340350Y-83503726D01*
X75300000Y-83706584D01*
X66699446Y-83706584D01*
X66710119Y-83695911D01*
X66756630Y-83626303D01*
X66788667Y-83548958D01*
X66805000Y-83466849D01*
X66805000Y-83383131D01*
X66788667Y-83301022D01*
X66756630Y-83223677D01*
X66710119Y-83154069D01*
X66650921Y-83094871D01*
X66581313Y-83048360D01*
X66503968Y-83016323D01*
X66462836Y-83008141D01*
X70955000Y-83008141D01*
X70955000Y-83091859D01*
X70971333Y-83173968D01*
X71003370Y-83251313D01*
X71049881Y-83320921D01*
X71109079Y-83380119D01*
X71178687Y-83426630D01*
X71256032Y-83458667D01*
X71338141Y-83475000D01*
X71421859Y-83475000D01*
X71503968Y-83458667D01*
X71581313Y-83426630D01*
X71650921Y-83380119D01*
X71710119Y-83320921D01*
X71756630Y-83251313D01*
X71788667Y-83173968D01*
X71805000Y-83091859D01*
X71805000Y-83008141D01*
X71788667Y-82926032D01*
X71756630Y-82848687D01*
X71710119Y-82779079D01*
X71650921Y-82719881D01*
X71581313Y-82673370D01*
X71503968Y-82641333D01*
X71421859Y-82625000D01*
X71338141Y-82625000D01*
X71256032Y-82641333D01*
X71178687Y-82673370D01*
X71109079Y-82719881D01*
X71049881Y-82779079D01*
X71003370Y-82848687D01*
X70971333Y-82926032D01*
X70955000Y-83008141D01*
X66462836Y-83008141D01*
X66421859Y-82999990D01*
X66338141Y-82999990D01*
X66256032Y-83016323D01*
X66178687Y-83048360D01*
X66109079Y-83094871D01*
X66049881Y-83154069D01*
X66003370Y-83223677D01*
X65971333Y-83301022D01*
X65955000Y-83383131D01*
X65546790Y-83383131D01*
X65555000Y-83341859D01*
X65555000Y-83258141D01*
X65538667Y-83176032D01*
X65506630Y-83098687D01*
X65460119Y-83029079D01*
X65400921Y-82969881D01*
X65331313Y-82923370D01*
X65253968Y-82891333D01*
X65171859Y-82875000D01*
X65088141Y-82875000D01*
X65006032Y-82891333D01*
X64928687Y-82923370D01*
X64859079Y-82969881D01*
X64799881Y-83029079D01*
X64753370Y-83098687D01*
X64721333Y-83176032D01*
X64705000Y-83258141D01*
X62004085Y-83258141D01*
X61925589Y-83140664D01*
X61779336Y-82994411D01*
X61607362Y-82879502D01*
X61416274Y-82800350D01*
X61213416Y-82760000D01*
X61006584Y-82760000D01*
X60803726Y-82800350D01*
X60612638Y-82879502D01*
X60440664Y-82994411D01*
X60294411Y-83140664D01*
X60179502Y-83312638D01*
X60100350Y-83503726D01*
X60060000Y-83706584D01*
X59255000Y-83706584D01*
X59255000Y-82408141D01*
X72105000Y-82408141D01*
X72105000Y-82491859D01*
X72121333Y-82573968D01*
X72153370Y-82651313D01*
X72199881Y-82720921D01*
X72259079Y-82780119D01*
X72328687Y-82826630D01*
X72406032Y-82858667D01*
X72488141Y-82875000D01*
X72571859Y-82875000D01*
X72653968Y-82858667D01*
X72731313Y-82826630D01*
X72800921Y-82780119D01*
X72860119Y-82720921D01*
X72906630Y-82651313D01*
X72938667Y-82573968D01*
X72955000Y-82491859D01*
X72955000Y-82408141D01*
X72938667Y-82326032D01*
X72906630Y-82248687D01*
X72860119Y-82179079D01*
X72800921Y-82119881D01*
X72731313Y-82073370D01*
X72653968Y-82041333D01*
X72571859Y-82025000D01*
X72488141Y-82025000D01*
X72406032Y-82041333D01*
X72328687Y-82073370D01*
X72259079Y-82119881D01*
X72199881Y-82179079D01*
X72153370Y-82248687D01*
X72121333Y-82326032D01*
X72105000Y-82408141D01*
X59255000Y-82408141D01*
X59255000Y-81166584D01*
X60060000Y-81166584D01*
X60060000Y-81373416D01*
X60100350Y-81576274D01*
X60179502Y-81767362D01*
X60294411Y-81939336D01*
X60440664Y-82085589D01*
X60612638Y-82200498D01*
X60803726Y-82279650D01*
X61006584Y-82320000D01*
X61213416Y-82320000D01*
X61416274Y-82279650D01*
X61607362Y-82200498D01*
X61779336Y-82085589D01*
X61925589Y-81939336D01*
X62040498Y-81767362D01*
X62044317Y-81758141D01*
X64605000Y-81758141D01*
X64605000Y-81841859D01*
X64621333Y-81923968D01*
X64653370Y-82001313D01*
X64699881Y-82070921D01*
X64759079Y-82130119D01*
X64828687Y-82176630D01*
X64906032Y-82208667D01*
X64988141Y-82225000D01*
X65071859Y-82225000D01*
X65153968Y-82208667D01*
X65231313Y-82176630D01*
X65300921Y-82130119D01*
X65360119Y-82070921D01*
X65406630Y-82001313D01*
X65438667Y-81923968D01*
X65455000Y-81841859D01*
X65455000Y-81758141D01*
X65438667Y-81676032D01*
X65406630Y-81598687D01*
X65360119Y-81529079D01*
X65300921Y-81469881D01*
X65231313Y-81423370D01*
X65153968Y-81391333D01*
X65071859Y-81375000D01*
X64988141Y-81375000D01*
X64906032Y-81391333D01*
X64828687Y-81423370D01*
X64759079Y-81469881D01*
X64699881Y-81529079D01*
X64653370Y-81598687D01*
X64621333Y-81676032D01*
X64605000Y-81758141D01*
X62044317Y-81758141D01*
X62119650Y-81576274D01*
X62160000Y-81373416D01*
X62160000Y-81333151D01*
X65855000Y-81333151D01*
X65855000Y-81416869D01*
X65871333Y-81498978D01*
X65903370Y-81576323D01*
X65949881Y-81645931D01*
X65978955Y-81675005D01*
X65974881Y-81679079D01*
X65928370Y-81748687D01*
X65896333Y-81826032D01*
X65880000Y-81908141D01*
X65880000Y-81991859D01*
X65896333Y-82073968D01*
X65928370Y-82151313D01*
X65974881Y-82220921D01*
X66034079Y-82280119D01*
X66103687Y-82326630D01*
X66181032Y-82358667D01*
X66263141Y-82375000D01*
X66346859Y-82375000D01*
X66428968Y-82358667D01*
X66506313Y-82326630D01*
X66575921Y-82280119D01*
X66635119Y-82220921D01*
X66681630Y-82151313D01*
X66713667Y-82073968D01*
X66730000Y-81991859D01*
X66730000Y-81908141D01*
X66713667Y-81826032D01*
X66681630Y-81748687D01*
X66635119Y-81679079D01*
X66606045Y-81650005D01*
X66610119Y-81645931D01*
X66656630Y-81576323D01*
X66688667Y-81498978D01*
X66705000Y-81416869D01*
X66705000Y-81333151D01*
X66688667Y-81251042D01*
X66656630Y-81173697D01*
X66651878Y-81166584D01*
X75300000Y-81166584D01*
X75300000Y-81373416D01*
X75340350Y-81576274D01*
X75419502Y-81767362D01*
X75534411Y-81939336D01*
X75680664Y-82085589D01*
X75852638Y-82200498D01*
X76043726Y-82279650D01*
X76246584Y-82320000D01*
X76453416Y-82320000D01*
X76656274Y-82279650D01*
X76847362Y-82200498D01*
X77019336Y-82085589D01*
X77165589Y-81939336D01*
X77280498Y-81767362D01*
X77359650Y-81576274D01*
X77400000Y-81373416D01*
X77400000Y-81166584D01*
X77359650Y-80963726D01*
X77280498Y-80772638D01*
X77165589Y-80600664D01*
X77019336Y-80454411D01*
X76847362Y-80339502D01*
X76656274Y-80260350D01*
X76453416Y-80220000D01*
X76246584Y-80220000D01*
X76043726Y-80260350D01*
X75852638Y-80339502D01*
X75680664Y-80454411D01*
X75534411Y-80600664D01*
X75419502Y-80772638D01*
X75340350Y-80963726D01*
X75300000Y-81166584D01*
X66651878Y-81166584D01*
X66610119Y-81104089D01*
X66550921Y-81044891D01*
X66481313Y-80998380D01*
X66403968Y-80966343D01*
X66321859Y-80950010D01*
X66238141Y-80950010D01*
X66156032Y-80966343D01*
X66078687Y-80998380D01*
X66009079Y-81044891D01*
X65949881Y-81104089D01*
X65903370Y-81173697D01*
X65871333Y-81251042D01*
X65855000Y-81333151D01*
X62160000Y-81333151D01*
X62160000Y-81166584D01*
X62119650Y-80963726D01*
X62040498Y-80772638D01*
X61925589Y-80600664D01*
X61779336Y-80454411D01*
X61607362Y-80339502D01*
X61416274Y-80260350D01*
X61213416Y-80220000D01*
X61006584Y-80220000D01*
X60803726Y-80260350D01*
X60612638Y-80339502D01*
X60440664Y-80454411D01*
X60294411Y-80600664D01*
X60179502Y-80772638D01*
X60100350Y-80963726D01*
X60060000Y-81166584D01*
X59255000Y-81166584D01*
X59255000Y-78626584D01*
X60060000Y-78626584D01*
X60060000Y-78833416D01*
X60100350Y-79036274D01*
X60179502Y-79227362D01*
X60294411Y-79399336D01*
X60440664Y-79545589D01*
X60612638Y-79660498D01*
X60803726Y-79739650D01*
X61006584Y-79780000D01*
X61213416Y-79780000D01*
X61416274Y-79739650D01*
X61607362Y-79660498D01*
X61779336Y-79545589D01*
X61925589Y-79399336D01*
X61969818Y-79333141D01*
X70830000Y-79333141D01*
X70830000Y-79416859D01*
X70846333Y-79498968D01*
X70878370Y-79576313D01*
X70924881Y-79645921D01*
X70984079Y-79705119D01*
X71053687Y-79751630D01*
X71131032Y-79783667D01*
X71213141Y-79800000D01*
X71296859Y-79800000D01*
X71378968Y-79783667D01*
X71456313Y-79751630D01*
X71525921Y-79705119D01*
X71585119Y-79645921D01*
X71631630Y-79576313D01*
X71663667Y-79498968D01*
X71680000Y-79416859D01*
X71680000Y-79333141D01*
X71663667Y-79251032D01*
X71631630Y-79173687D01*
X71585119Y-79104079D01*
X71525921Y-79044881D01*
X71456313Y-78998370D01*
X71378968Y-78966333D01*
X71296859Y-78950000D01*
X71213141Y-78950000D01*
X71131032Y-78966333D01*
X71053687Y-78998370D01*
X70984079Y-79044881D01*
X70924881Y-79104079D01*
X70878370Y-79173687D01*
X70846333Y-79251032D01*
X70830000Y-79333141D01*
X61969818Y-79333141D01*
X62040498Y-79227362D01*
X62119650Y-79036274D01*
X62160000Y-78833416D01*
X62160000Y-78683141D01*
X71505000Y-78683141D01*
X71505000Y-78766859D01*
X71521333Y-78848968D01*
X71553370Y-78926313D01*
X71599881Y-78995921D01*
X71659079Y-79055119D01*
X71728687Y-79101630D01*
X71806032Y-79133667D01*
X71888141Y-79150000D01*
X71971859Y-79150000D01*
X72053968Y-79133667D01*
X72131313Y-79101630D01*
X72200921Y-79055119D01*
X72260119Y-78995921D01*
X72306630Y-78926313D01*
X72338667Y-78848968D01*
X72355000Y-78766859D01*
X72355000Y-78683141D01*
X72343750Y-78626584D01*
X75300000Y-78626584D01*
X75300000Y-78833416D01*
X75340350Y-79036274D01*
X75419502Y-79227362D01*
X75534411Y-79399336D01*
X75680664Y-79545589D01*
X75852638Y-79660498D01*
X76043726Y-79739650D01*
X76246584Y-79780000D01*
X76453416Y-79780000D01*
X76656274Y-79739650D01*
X76847362Y-79660498D01*
X77019336Y-79545589D01*
X77165589Y-79399336D01*
X77280498Y-79227362D01*
X77359650Y-79036274D01*
X77400000Y-78833416D01*
X77400000Y-78626584D01*
X77359650Y-78423726D01*
X77280498Y-78232638D01*
X77165589Y-78060664D01*
X77019336Y-77914411D01*
X76847362Y-77799502D01*
X76656274Y-77720350D01*
X76453416Y-77680000D01*
X76246584Y-77680000D01*
X76043726Y-77720350D01*
X75852638Y-77799502D01*
X75680664Y-77914411D01*
X75534411Y-78060664D01*
X75419502Y-78232638D01*
X75340350Y-78423726D01*
X75300000Y-78626584D01*
X72343750Y-78626584D01*
X72338667Y-78601032D01*
X72306630Y-78523687D01*
X72260119Y-78454079D01*
X72200921Y-78394881D01*
X72131313Y-78348370D01*
X72053968Y-78316333D01*
X71971859Y-78300000D01*
X71888141Y-78300000D01*
X71806032Y-78316333D01*
X71728687Y-78348370D01*
X71659079Y-78394881D01*
X71599881Y-78454079D01*
X71553370Y-78523687D01*
X71521333Y-78601032D01*
X71505000Y-78683141D01*
X62160000Y-78683141D01*
X62160000Y-78626584D01*
X62119650Y-78423726D01*
X62040498Y-78232638D01*
X61925589Y-78060664D01*
X61779336Y-77914411D01*
X61695122Y-77858141D01*
X66105000Y-77858141D01*
X66105000Y-77941859D01*
X66121333Y-78023968D01*
X66153370Y-78101313D01*
X66199881Y-78170921D01*
X66259079Y-78230119D01*
X66328687Y-78276630D01*
X66406032Y-78308667D01*
X66488141Y-78325000D01*
X66571859Y-78325000D01*
X66653968Y-78308667D01*
X66731313Y-78276630D01*
X66800921Y-78230119D01*
X66860119Y-78170921D01*
X66906630Y-78101313D01*
X66938667Y-78023968D01*
X66955000Y-77941859D01*
X66955000Y-77858141D01*
X66938667Y-77776032D01*
X66906630Y-77698687D01*
X66860119Y-77629079D01*
X66800921Y-77569881D01*
X66731313Y-77523370D01*
X66653968Y-77491333D01*
X66571859Y-77475000D01*
X66488141Y-77475000D01*
X66406032Y-77491333D01*
X66328687Y-77523370D01*
X66259079Y-77569881D01*
X66199881Y-77629079D01*
X66153370Y-77698687D01*
X66121333Y-77776032D01*
X66105000Y-77858141D01*
X61695122Y-77858141D01*
X61607362Y-77799502D01*
X61416274Y-77720350D01*
X61213416Y-77680000D01*
X61006584Y-77680000D01*
X60803726Y-77720350D01*
X60612638Y-77799502D01*
X60440664Y-77914411D01*
X60294411Y-78060664D01*
X60179502Y-78232638D01*
X60100350Y-78423726D01*
X60060000Y-78626584D01*
X59255000Y-78626584D01*
X59255000Y-76086584D01*
X60060000Y-76086584D01*
X60060000Y-76293416D01*
X60100350Y-76496274D01*
X60179502Y-76687362D01*
X60294411Y-76859336D01*
X60440664Y-77005589D01*
X60612638Y-77120498D01*
X60803726Y-77199650D01*
X61006584Y-77240000D01*
X61213416Y-77240000D01*
X61416274Y-77199650D01*
X61607362Y-77120498D01*
X61779336Y-77005589D01*
X61876784Y-76908141D01*
X64805000Y-76908141D01*
X64805000Y-76991859D01*
X64821333Y-77073968D01*
X64853370Y-77151313D01*
X64899881Y-77220921D01*
X64959079Y-77280119D01*
X65028687Y-77326630D01*
X65106032Y-77358667D01*
X65188141Y-77375000D01*
X65271859Y-77375000D01*
X65353968Y-77358667D01*
X65431313Y-77326630D01*
X65500921Y-77280119D01*
X65560119Y-77220921D01*
X65606630Y-77151313D01*
X65638667Y-77073968D01*
X65655000Y-76991859D01*
X65655000Y-76908141D01*
X65638667Y-76826032D01*
X65606630Y-76748687D01*
X65596243Y-76733141D01*
X69555000Y-76733141D01*
X69555000Y-76816859D01*
X69571333Y-76898968D01*
X69603370Y-76976313D01*
X69649881Y-77045921D01*
X69709079Y-77105119D01*
X69778687Y-77151630D01*
X69856032Y-77183667D01*
X69938141Y-77200000D01*
X70021859Y-77200000D01*
X70103968Y-77183667D01*
X70181313Y-77151630D01*
X70250921Y-77105119D01*
X70310119Y-77045921D01*
X70356630Y-76976313D01*
X70374512Y-76933141D01*
X72904998Y-76933141D01*
X72904998Y-77016859D01*
X72921331Y-77098968D01*
X72953368Y-77176313D01*
X72999879Y-77245921D01*
X73059077Y-77305119D01*
X73128685Y-77351630D01*
X73206030Y-77383667D01*
X73288139Y-77400000D01*
X73371857Y-77400000D01*
X73453966Y-77383667D01*
X73531311Y-77351630D01*
X73600919Y-77305119D01*
X73660117Y-77245921D01*
X73706628Y-77176313D01*
X73738665Y-77098968D01*
X73754998Y-77016859D01*
X73754998Y-76933141D01*
X73738665Y-76851032D01*
X73706628Y-76773687D01*
X73660117Y-76704079D01*
X73600919Y-76644881D01*
X73531311Y-76598370D01*
X73453966Y-76566333D01*
X73371857Y-76550000D01*
X73288139Y-76550000D01*
X73206030Y-76566333D01*
X73128685Y-76598370D01*
X73059077Y-76644881D01*
X72999879Y-76704079D01*
X72953368Y-76773687D01*
X72921331Y-76851032D01*
X72904998Y-76933141D01*
X70374512Y-76933141D01*
X70388667Y-76898968D01*
X70405000Y-76816859D01*
X70405000Y-76733141D01*
X70388667Y-76651032D01*
X70356630Y-76573687D01*
X70310119Y-76504079D01*
X70250921Y-76444881D01*
X70181313Y-76398370D01*
X70103968Y-76366333D01*
X70021859Y-76350000D01*
X69938141Y-76350000D01*
X69856032Y-76366333D01*
X69778687Y-76398370D01*
X69709079Y-76444881D01*
X69649881Y-76504079D01*
X69603370Y-76573687D01*
X69571333Y-76651032D01*
X69555000Y-76733141D01*
X65596243Y-76733141D01*
X65560119Y-76679079D01*
X65500921Y-76619881D01*
X65431313Y-76573370D01*
X65353968Y-76541333D01*
X65271859Y-76525000D01*
X65188141Y-76525000D01*
X65106032Y-76541333D01*
X65028687Y-76573370D01*
X64959079Y-76619881D01*
X64899881Y-76679079D01*
X64853370Y-76748687D01*
X64821333Y-76826032D01*
X64805000Y-76908141D01*
X61876784Y-76908141D01*
X61925589Y-76859336D01*
X62040498Y-76687362D01*
X62119650Y-76496274D01*
X62160000Y-76293416D01*
X62160000Y-76086584D01*
X62119650Y-75883726D01*
X62040498Y-75692638D01*
X61984040Y-75608141D01*
X65205000Y-75608141D01*
X65205000Y-75691859D01*
X65221333Y-75773968D01*
X65253370Y-75851313D01*
X65299881Y-75920921D01*
X65359079Y-75980119D01*
X65428687Y-76026630D01*
X65506032Y-76058667D01*
X65588141Y-76075000D01*
X65671859Y-76075000D01*
X65753968Y-76058667D01*
X65831313Y-76026630D01*
X65900921Y-75980119D01*
X65960119Y-75920921D01*
X66006630Y-75851313D01*
X66024512Y-75808141D01*
X66855000Y-75808141D01*
X66855000Y-75891859D01*
X66871333Y-75973968D01*
X66903370Y-76051313D01*
X66949881Y-76120921D01*
X67009079Y-76180119D01*
X67078687Y-76226630D01*
X67156032Y-76258667D01*
X67238141Y-76275000D01*
X67321859Y-76275000D01*
X67403968Y-76258667D01*
X67481313Y-76226630D01*
X67550921Y-76180119D01*
X67610119Y-76120921D01*
X67656630Y-76051313D01*
X67688667Y-75973968D01*
X67695183Y-75941213D01*
X67734089Y-75980119D01*
X67803697Y-76026630D01*
X67881042Y-76058667D01*
X67963151Y-76075000D01*
X68046869Y-76075000D01*
X68128978Y-76058667D01*
X68206323Y-76026630D01*
X68275931Y-75980119D01*
X68322909Y-75933141D01*
X73030000Y-75933141D01*
X73030000Y-76016859D01*
X73046333Y-76098968D01*
X73078370Y-76176313D01*
X73124881Y-76245921D01*
X73184079Y-76305119D01*
X73253687Y-76351630D01*
X73331032Y-76383667D01*
X73413141Y-76400000D01*
X73496859Y-76400000D01*
X73578968Y-76383667D01*
X73656313Y-76351630D01*
X73725921Y-76305119D01*
X73785119Y-76245921D01*
X73831630Y-76176313D01*
X73863667Y-76098968D01*
X73866130Y-76086584D01*
X75300000Y-76086584D01*
X75300000Y-76293416D01*
X75340350Y-76496274D01*
X75419502Y-76687362D01*
X75534411Y-76859336D01*
X75680664Y-77005589D01*
X75852638Y-77120498D01*
X76043726Y-77199650D01*
X76246584Y-77240000D01*
X76453416Y-77240000D01*
X76656274Y-77199650D01*
X76847362Y-77120498D01*
X77019336Y-77005589D01*
X77165589Y-76859336D01*
X77280498Y-76687362D01*
X77359650Y-76496274D01*
X77400000Y-76293416D01*
X77400000Y-76086584D01*
X77359650Y-75883726D01*
X77280498Y-75692638D01*
X77165589Y-75520664D01*
X77019336Y-75374411D01*
X76847362Y-75259502D01*
X76656274Y-75180350D01*
X76453416Y-75140000D01*
X76246584Y-75140000D01*
X76043726Y-75180350D01*
X75852638Y-75259502D01*
X75680664Y-75374411D01*
X75534411Y-75520664D01*
X75419502Y-75692638D01*
X75340350Y-75883726D01*
X75300000Y-76086584D01*
X73866130Y-76086584D01*
X73880000Y-76016859D01*
X73880000Y-75933141D01*
X73863667Y-75851032D01*
X73831630Y-75773687D01*
X73785119Y-75704079D01*
X73725921Y-75644881D01*
X73656313Y-75598370D01*
X73578968Y-75566333D01*
X73496859Y-75550000D01*
X73413141Y-75550000D01*
X73331032Y-75566333D01*
X73253687Y-75598370D01*
X73184079Y-75644881D01*
X73124881Y-75704079D01*
X73078370Y-75773687D01*
X73046333Y-75851032D01*
X73030000Y-75933141D01*
X68322909Y-75933141D01*
X68335129Y-75920921D01*
X68381640Y-75851313D01*
X68413677Y-75773968D01*
X68430010Y-75691859D01*
X68430010Y-75641182D01*
X68449881Y-75670921D01*
X68509079Y-75730119D01*
X68578687Y-75776630D01*
X68656032Y-75808667D01*
X68738141Y-75825000D01*
X68821859Y-75825000D01*
X68903968Y-75808667D01*
X68981313Y-75776630D01*
X69050921Y-75730119D01*
X69110119Y-75670921D01*
X69156630Y-75601313D01*
X69188667Y-75523968D01*
X69205000Y-75441859D01*
X69205000Y-75408141D01*
X70330000Y-75408141D01*
X70330000Y-75491859D01*
X70346333Y-75573968D01*
X70378370Y-75651313D01*
X70424881Y-75720921D01*
X70484079Y-75780119D01*
X70553687Y-75826630D01*
X70631032Y-75858667D01*
X70713141Y-75875000D01*
X70796859Y-75875000D01*
X70878968Y-75858667D01*
X70956313Y-75826630D01*
X71025921Y-75780119D01*
X71085119Y-75720921D01*
X71131630Y-75651313D01*
X71163667Y-75573968D01*
X71180000Y-75491859D01*
X71180000Y-75408141D01*
X71163667Y-75326032D01*
X71131630Y-75248687D01*
X71085119Y-75179079D01*
X71025921Y-75119881D01*
X70956313Y-75073370D01*
X70878968Y-75041333D01*
X70796859Y-75025000D01*
X70713141Y-75025000D01*
X70631032Y-75041333D01*
X70553687Y-75073370D01*
X70484079Y-75119881D01*
X70424881Y-75179079D01*
X70378370Y-75248687D01*
X70346333Y-75326032D01*
X70330000Y-75408141D01*
X69205000Y-75408141D01*
X69205000Y-75358141D01*
X69188667Y-75276032D01*
X69156630Y-75198687D01*
X69110119Y-75129079D01*
X69050921Y-75069881D01*
X68981313Y-75023370D01*
X68903968Y-74991333D01*
X68821859Y-74975000D01*
X68738141Y-74975000D01*
X68656032Y-74991333D01*
X68578687Y-75023370D01*
X68509079Y-75069881D01*
X68449881Y-75129079D01*
X68403370Y-75198687D01*
X68371333Y-75276032D01*
X68355000Y-75358141D01*
X68355000Y-75408818D01*
X68335129Y-75379079D01*
X68275931Y-75319881D01*
X68206323Y-75273370D01*
X68128978Y-75241333D01*
X68046869Y-75225000D01*
X67963151Y-75225000D01*
X67881042Y-75241333D01*
X67803697Y-75273370D01*
X67734089Y-75319881D01*
X67674891Y-75379079D01*
X67628380Y-75448687D01*
X67596343Y-75526032D01*
X67589827Y-75558787D01*
X67550921Y-75519881D01*
X67481313Y-75473370D01*
X67403968Y-75441333D01*
X67321859Y-75425000D01*
X67238141Y-75425000D01*
X67156032Y-75441333D01*
X67078687Y-75473370D01*
X67009079Y-75519881D01*
X66949881Y-75579079D01*
X66903370Y-75648687D01*
X66871333Y-75726032D01*
X66855000Y-75808141D01*
X66024512Y-75808141D01*
X66038667Y-75773968D01*
X66055000Y-75691859D01*
X66055000Y-75608141D01*
X66038667Y-75526032D01*
X66006630Y-75448687D01*
X65960119Y-75379079D01*
X65900921Y-75319881D01*
X65831313Y-75273370D01*
X65753968Y-75241333D01*
X65671859Y-75225000D01*
X65588141Y-75225000D01*
X65506032Y-75241333D01*
X65428687Y-75273370D01*
X65359079Y-75319881D01*
X65299881Y-75379079D01*
X65253370Y-75448687D01*
X65221333Y-75526032D01*
X65205000Y-75608141D01*
X61984040Y-75608141D01*
X61925589Y-75520664D01*
X61779336Y-75374411D01*
X61607362Y-75259502D01*
X61416274Y-75180350D01*
X61213416Y-75140000D01*
X61006584Y-75140000D01*
X60803726Y-75180350D01*
X60612638Y-75259502D01*
X60440664Y-75374411D01*
X60294411Y-75520664D01*
X60179502Y-75692638D01*
X60100350Y-75883726D01*
X60060000Y-76086584D01*
X59255000Y-76086584D01*
X59255000Y-73546584D01*
X60060000Y-73546584D01*
X60060000Y-73753416D01*
X60100350Y-73956274D01*
X60179502Y-74147362D01*
X60294411Y-74319336D01*
X60440664Y-74465589D01*
X60612638Y-74580498D01*
X60803726Y-74659650D01*
X61006584Y-74700000D01*
X61213416Y-74700000D01*
X61416274Y-74659650D01*
X61607362Y-74580498D01*
X61715652Y-74508141D01*
X70705000Y-74508141D01*
X70705000Y-74591859D01*
X70721333Y-74673968D01*
X70753370Y-74751313D01*
X70799881Y-74820921D01*
X70859079Y-74880119D01*
X70928687Y-74926630D01*
X71006032Y-74958667D01*
X71088141Y-74975000D01*
X71171859Y-74975000D01*
X71253968Y-74958667D01*
X71331313Y-74926630D01*
X71400921Y-74880119D01*
X71460119Y-74820921D01*
X71506630Y-74751313D01*
X71538667Y-74673968D01*
X71555000Y-74591859D01*
X71555000Y-74508141D01*
X71538667Y-74426032D01*
X71506630Y-74348687D01*
X71460119Y-74279079D01*
X71400921Y-74219881D01*
X71331313Y-74173370D01*
X71253968Y-74141333D01*
X71171859Y-74125000D01*
X71088141Y-74125000D01*
X71006032Y-74141333D01*
X70928687Y-74173370D01*
X70859079Y-74219881D01*
X70799881Y-74279079D01*
X70753370Y-74348687D01*
X70721333Y-74426032D01*
X70705000Y-74508141D01*
X61715652Y-74508141D01*
X61779336Y-74465589D01*
X61925589Y-74319336D01*
X62040498Y-74147362D01*
X62119650Y-73956274D01*
X62160000Y-73753416D01*
X62160000Y-73608141D01*
X70705000Y-73608141D01*
X70705000Y-73691859D01*
X70721333Y-73773968D01*
X70753370Y-73851313D01*
X70799881Y-73920921D01*
X70859079Y-73980119D01*
X70928687Y-74026630D01*
X71006032Y-74058667D01*
X71088141Y-74075000D01*
X71171859Y-74075000D01*
X71253968Y-74058667D01*
X71331313Y-74026630D01*
X71400921Y-73980119D01*
X71460119Y-73920921D01*
X71506630Y-73851313D01*
X71538667Y-73773968D01*
X71555000Y-73691859D01*
X71555000Y-73608141D01*
X71542756Y-73546584D01*
X75300000Y-73546584D01*
X75300000Y-73753416D01*
X75340350Y-73956274D01*
X75419502Y-74147362D01*
X75534411Y-74319336D01*
X75680664Y-74465589D01*
X75852638Y-74580498D01*
X76043726Y-74659650D01*
X76246584Y-74700000D01*
X76453416Y-74700000D01*
X76656274Y-74659650D01*
X76847362Y-74580498D01*
X77019336Y-74465589D01*
X77165589Y-74319336D01*
X77280498Y-74147362D01*
X77359650Y-73956274D01*
X77400000Y-73753416D01*
X77400000Y-73546584D01*
X77359650Y-73343726D01*
X77280498Y-73152638D01*
X77165589Y-72980664D01*
X77019336Y-72834411D01*
X76847362Y-72719502D01*
X76656274Y-72640350D01*
X76453416Y-72600000D01*
X76246584Y-72600000D01*
X76043726Y-72640350D01*
X75852638Y-72719502D01*
X75680664Y-72834411D01*
X75534411Y-72980664D01*
X75419502Y-73152638D01*
X75340350Y-73343726D01*
X75300000Y-73546584D01*
X71542756Y-73546584D01*
X71538667Y-73526032D01*
X71506630Y-73448687D01*
X71460119Y-73379079D01*
X71400921Y-73319881D01*
X71331313Y-73273370D01*
X71253968Y-73241333D01*
X71171859Y-73225000D01*
X71088141Y-73225000D01*
X71006032Y-73241333D01*
X70928687Y-73273370D01*
X70859079Y-73319881D01*
X70799881Y-73379079D01*
X70753370Y-73448687D01*
X70721333Y-73526032D01*
X70705000Y-73608141D01*
X62160000Y-73608141D01*
X62160000Y-73546584D01*
X62119650Y-73343726D01*
X62040498Y-73152638D01*
X61925589Y-72980664D01*
X61779336Y-72834411D01*
X61607362Y-72719502D01*
X61416274Y-72640350D01*
X61213416Y-72600000D01*
X61006584Y-72600000D01*
X60803726Y-72640350D01*
X60612638Y-72719502D01*
X60440664Y-72834411D01*
X60294411Y-72980664D01*
X60179502Y-73152638D01*
X60100350Y-73343726D01*
X60060000Y-73546584D01*
X59255000Y-73546584D01*
X59255000Y-71006584D01*
X60060000Y-71006584D01*
X60060000Y-71213416D01*
X60100350Y-71416274D01*
X60179502Y-71607362D01*
X60294411Y-71779336D01*
X60440664Y-71925589D01*
X60612638Y-72040498D01*
X60803726Y-72119650D01*
X61006584Y-72160000D01*
X61213416Y-72160000D01*
X61416274Y-72119650D01*
X61607362Y-72040498D01*
X61779336Y-71925589D01*
X61925589Y-71779336D01*
X62040498Y-71607362D01*
X62119650Y-71416274D01*
X62160000Y-71213416D01*
X62160000Y-71006584D01*
X75300000Y-71006584D01*
X75300000Y-71213416D01*
X75340350Y-71416274D01*
X75419502Y-71607362D01*
X75534411Y-71779336D01*
X75680664Y-71925589D01*
X75852638Y-72040498D01*
X76043726Y-72119650D01*
X76246584Y-72160000D01*
X76453416Y-72160000D01*
X76656274Y-72119650D01*
X76847362Y-72040498D01*
X77019336Y-71925589D01*
X77165589Y-71779336D01*
X77280498Y-71607362D01*
X77359650Y-71416274D01*
X77400000Y-71213416D01*
X77400000Y-71006584D01*
X77359650Y-70803726D01*
X77280498Y-70612638D01*
X77165589Y-70440664D01*
X77019336Y-70294411D01*
X76847362Y-70179502D01*
X76656274Y-70100350D01*
X76453416Y-70060000D01*
X76246584Y-70060000D01*
X76043726Y-70100350D01*
X75852638Y-70179502D01*
X75680664Y-70294411D01*
X75534411Y-70440664D01*
X75419502Y-70612638D01*
X75340350Y-70803726D01*
X75300000Y-71006584D01*
X62160000Y-71006584D01*
X62119650Y-70803726D01*
X62040498Y-70612638D01*
X61925589Y-70440664D01*
X61779336Y-70294411D01*
X61607362Y-70179502D01*
X61416274Y-70100350D01*
X61213416Y-70060000D01*
X61006584Y-70060000D01*
X60803726Y-70100350D01*
X60612638Y-70179502D01*
X60440664Y-70294411D01*
X60294411Y-70440664D01*
X60179502Y-70612638D01*
X60100350Y-70803726D01*
X60060000Y-71006584D01*
X59255000Y-71006584D01*
X59255000Y-68466584D01*
X60060000Y-68466584D01*
X60060000Y-68673416D01*
X60100350Y-68876274D01*
X60179502Y-69067362D01*
X60294411Y-69239336D01*
X60440664Y-69385589D01*
X60612638Y-69500498D01*
X60803726Y-69579650D01*
X61006584Y-69620000D01*
X61213416Y-69620000D01*
X61416274Y-69579650D01*
X61607362Y-69500498D01*
X61779336Y-69385589D01*
X61925589Y-69239336D01*
X62040498Y-69067362D01*
X62119650Y-68876274D01*
X62160000Y-68673416D01*
X62160000Y-68466584D01*
X75300000Y-68466584D01*
X75300000Y-68673416D01*
X75340350Y-68876274D01*
X75419502Y-69067362D01*
X75534411Y-69239336D01*
X75680664Y-69385589D01*
X75852638Y-69500498D01*
X76043726Y-69579650D01*
X76246584Y-69620000D01*
X76453416Y-69620000D01*
X76656274Y-69579650D01*
X76847362Y-69500498D01*
X77019336Y-69385589D01*
X77165589Y-69239336D01*
X77280498Y-69067362D01*
X77359650Y-68876274D01*
X77400000Y-68673416D01*
X77400000Y-68466584D01*
X77359650Y-68263726D01*
X77280498Y-68072638D01*
X77165589Y-67900664D01*
X77019336Y-67754411D01*
X76847362Y-67639502D01*
X76656274Y-67560350D01*
X76453416Y-67520000D01*
X76246584Y-67520000D01*
X76043726Y-67560350D01*
X75852638Y-67639502D01*
X75680664Y-67754411D01*
X75534411Y-67900664D01*
X75419502Y-68072638D01*
X75340350Y-68263726D01*
X75300000Y-68466584D01*
X62160000Y-68466584D01*
X62119650Y-68263726D01*
X62040498Y-68072638D01*
X61925589Y-67900664D01*
X61779336Y-67754411D01*
X61635258Y-67658141D01*
X73355000Y-67658141D01*
X73355000Y-67741859D01*
X73371333Y-67823968D01*
X73403370Y-67901313D01*
X73449881Y-67970921D01*
X73509079Y-68030119D01*
X73578687Y-68076630D01*
X73656032Y-68108667D01*
X73738141Y-68125000D01*
X73821859Y-68125000D01*
X73903968Y-68108667D01*
X73981313Y-68076630D01*
X74050921Y-68030119D01*
X74110119Y-67970921D01*
X74156630Y-67901313D01*
X74188667Y-67823968D01*
X74205000Y-67741859D01*
X74205000Y-67658141D01*
X74188667Y-67576032D01*
X74163650Y-67515636D01*
X74206630Y-67451313D01*
X74238667Y-67373968D01*
X74255000Y-67291859D01*
X74255000Y-67208141D01*
X74238667Y-67126032D01*
X74206630Y-67048687D01*
X74160119Y-66979079D01*
X74100921Y-66919881D01*
X74031313Y-66873370D01*
X73953968Y-66841333D01*
X73871859Y-66825000D01*
X73788141Y-66825000D01*
X73706032Y-66841333D01*
X73628687Y-66873370D01*
X73559079Y-66919881D01*
X73499881Y-66979079D01*
X73453370Y-67048687D01*
X73421333Y-67126032D01*
X73405000Y-67208141D01*
X73405000Y-67291859D01*
X73421333Y-67373968D01*
X73446350Y-67434364D01*
X73403370Y-67498687D01*
X73371333Y-67576032D01*
X73355000Y-67658141D01*
X61635258Y-67658141D01*
X61607362Y-67639502D01*
X61416274Y-67560350D01*
X61213416Y-67520000D01*
X61006584Y-67520000D01*
X60803726Y-67560350D01*
X60612638Y-67639502D01*
X60440664Y-67754411D01*
X60294411Y-67900664D01*
X60179502Y-68072638D01*
X60100350Y-68263726D01*
X60060000Y-68466584D01*
X59255000Y-68466584D01*
X59255000Y-65926584D01*
X60060000Y-65926584D01*
X60060000Y-66133416D01*
X60100350Y-66336274D01*
X60179502Y-66527362D01*
X60294411Y-66699336D01*
X60440664Y-66845589D01*
X60612638Y-66960498D01*
X60803726Y-67039650D01*
X61006584Y-67080000D01*
X61213416Y-67080000D01*
X61416274Y-67039650D01*
X61607362Y-66960498D01*
X61779336Y-66845589D01*
X61916784Y-66708141D01*
X64505000Y-66708141D01*
X64505000Y-66791859D01*
X64521333Y-66873968D01*
X64553370Y-66951313D01*
X64599881Y-67020921D01*
X64659079Y-67080119D01*
X64728687Y-67126630D01*
X64806032Y-67158667D01*
X64888141Y-67175000D01*
X64971859Y-67175000D01*
X65053968Y-67158667D01*
X65131313Y-67126630D01*
X65200921Y-67080119D01*
X65260119Y-67020921D01*
X65306630Y-66951313D01*
X65322904Y-66912023D01*
X65388141Y-66925000D01*
X65471859Y-66925000D01*
X65553968Y-66908667D01*
X65631313Y-66876630D01*
X65700921Y-66830119D01*
X65760119Y-66770921D01*
X65806630Y-66701313D01*
X65838667Y-66623968D01*
X65855000Y-66541859D01*
X65855000Y-66458141D01*
X65838667Y-66376032D01*
X65806630Y-66298687D01*
X65760119Y-66229079D01*
X65700921Y-66169881D01*
X65631313Y-66123370D01*
X65553968Y-66091333D01*
X65471859Y-66075000D01*
X65388141Y-66075000D01*
X65306032Y-66091333D01*
X65228687Y-66123370D01*
X65159079Y-66169881D01*
X65099881Y-66229079D01*
X65053370Y-66298687D01*
X65037096Y-66337977D01*
X64971859Y-66325000D01*
X64888141Y-66325000D01*
X64806032Y-66341333D01*
X64728687Y-66373370D01*
X64659079Y-66419881D01*
X64599881Y-66479079D01*
X64553370Y-66548687D01*
X64521333Y-66626032D01*
X64505000Y-66708141D01*
X61916784Y-66708141D01*
X61925589Y-66699336D01*
X62040498Y-66527362D01*
X62119650Y-66336274D01*
X62160000Y-66133416D01*
X62160000Y-65926584D01*
X75300000Y-65926584D01*
X75300000Y-66133416D01*
X75340350Y-66336274D01*
X75419502Y-66527362D01*
X75534411Y-66699336D01*
X75680664Y-66845589D01*
X75852638Y-66960498D01*
X76043726Y-67039650D01*
X76246584Y-67080000D01*
X76453416Y-67080000D01*
X76656274Y-67039650D01*
X76847362Y-66960498D01*
X77019336Y-66845589D01*
X77165589Y-66699336D01*
X77280498Y-66527362D01*
X77359650Y-66336274D01*
X77400000Y-66133416D01*
X77400000Y-65926584D01*
X77359650Y-65723726D01*
X77280498Y-65532638D01*
X77165589Y-65360664D01*
X77019336Y-65214411D01*
X76847362Y-65099502D01*
X76656274Y-65020350D01*
X76453416Y-64980000D01*
X76246584Y-64980000D01*
X76043726Y-65020350D01*
X75852638Y-65099502D01*
X75680664Y-65214411D01*
X75534411Y-65360664D01*
X75419502Y-65532638D01*
X75340350Y-65723726D01*
X75300000Y-65926584D01*
X62160000Y-65926584D01*
X62119650Y-65723726D01*
X62040498Y-65532638D01*
X61957313Y-65408141D01*
X69955000Y-65408141D01*
X69955000Y-65491859D01*
X69971333Y-65573968D01*
X70003370Y-65651313D01*
X70049881Y-65720921D01*
X70109079Y-65780119D01*
X70178687Y-65826630D01*
X70256032Y-65858667D01*
X70338141Y-65875000D01*
X70421859Y-65875000D01*
X70503968Y-65858667D01*
X70581313Y-65826630D01*
X70650921Y-65780119D01*
X70710119Y-65720921D01*
X70756630Y-65651313D01*
X70788667Y-65573968D01*
X70805000Y-65491859D01*
X70805000Y-65408141D01*
X70788667Y-65326032D01*
X70756630Y-65248687D01*
X70710119Y-65179079D01*
X70650921Y-65119881D01*
X70581313Y-65073370D01*
X70503968Y-65041333D01*
X70421859Y-65025000D01*
X70338141Y-65025000D01*
X70256032Y-65041333D01*
X70178687Y-65073370D01*
X70109079Y-65119881D01*
X70049881Y-65179079D01*
X70003370Y-65248687D01*
X69971333Y-65326032D01*
X69955000Y-65408141D01*
X61957313Y-65408141D01*
X61925589Y-65360664D01*
X61779336Y-65214411D01*
X61607362Y-65099502D01*
X61416274Y-65020350D01*
X61213416Y-64980000D01*
X61006584Y-64980000D01*
X60803726Y-65020350D01*
X60612638Y-65099502D01*
X60440664Y-65214411D01*
X60294411Y-65360664D01*
X60179502Y-65532638D01*
X60100350Y-65723726D01*
X60060000Y-65926584D01*
X59255000Y-65926584D01*
X59255000Y-63386584D01*
X60060000Y-63386584D01*
X60060000Y-63593416D01*
X60100350Y-63796274D01*
X60179502Y-63987362D01*
X60294411Y-64159336D01*
X60440664Y-64305589D01*
X60612638Y-64420498D01*
X60803726Y-64499650D01*
X61006584Y-64540000D01*
X61213416Y-64540000D01*
X61416274Y-64499650D01*
X61607362Y-64420498D01*
X61779336Y-64305589D01*
X61925589Y-64159336D01*
X62040498Y-63987362D01*
X62073312Y-63908141D01*
X73355000Y-63908141D01*
X73355000Y-63991859D01*
X73371333Y-64073968D01*
X73403370Y-64151313D01*
X73449881Y-64220921D01*
X73509079Y-64280119D01*
X73578687Y-64326630D01*
X73656032Y-64358667D01*
X73738141Y-64375000D01*
X73821859Y-64375000D01*
X73903968Y-64358667D01*
X73981313Y-64326630D01*
X74050921Y-64280119D01*
X74110119Y-64220921D01*
X74156630Y-64151313D01*
X74188667Y-64073968D01*
X74205000Y-63991859D01*
X74205000Y-63908141D01*
X74188667Y-63826032D01*
X74163650Y-63765636D01*
X74206630Y-63701313D01*
X74238667Y-63623968D01*
X74255000Y-63541859D01*
X74255000Y-63458141D01*
X74240766Y-63386584D01*
X75300000Y-63386584D01*
X75300000Y-63593416D01*
X75340350Y-63796274D01*
X75419502Y-63987362D01*
X75534411Y-64159336D01*
X75680664Y-64305589D01*
X75852638Y-64420498D01*
X76043726Y-64499650D01*
X76246584Y-64540000D01*
X76453416Y-64540000D01*
X76656274Y-64499650D01*
X76847362Y-64420498D01*
X77019336Y-64305589D01*
X77165589Y-64159336D01*
X77280498Y-63987362D01*
X77359650Y-63796274D01*
X77400000Y-63593416D01*
X77400000Y-63386584D01*
X77359650Y-63183726D01*
X77280498Y-62992638D01*
X77165589Y-62820664D01*
X77019336Y-62674411D01*
X76847362Y-62559502D01*
X76656274Y-62480350D01*
X76453416Y-62440000D01*
X76246584Y-62440000D01*
X76043726Y-62480350D01*
X75852638Y-62559502D01*
X75680664Y-62674411D01*
X75534411Y-62820664D01*
X75419502Y-62992638D01*
X75340350Y-63183726D01*
X75300000Y-63386584D01*
X74240766Y-63386584D01*
X74238667Y-63376032D01*
X74206630Y-63298687D01*
X74160119Y-63229079D01*
X74100921Y-63169881D01*
X74031313Y-63123370D01*
X73953968Y-63091333D01*
X73871859Y-63075000D01*
X73788141Y-63075000D01*
X73706032Y-63091333D01*
X73628687Y-63123370D01*
X73559079Y-63169881D01*
X73499881Y-63229079D01*
X73453370Y-63298687D01*
X73421333Y-63376032D01*
X73405000Y-63458141D01*
X73405000Y-63541859D01*
X73421333Y-63623968D01*
X73446350Y-63684364D01*
X73403370Y-63748687D01*
X73371333Y-63826032D01*
X73355000Y-63908141D01*
X62073312Y-63908141D01*
X62119650Y-63796274D01*
X62160000Y-63593416D01*
X62160000Y-63386584D01*
X62119650Y-63183726D01*
X62040498Y-62992638D01*
X61925589Y-62820664D01*
X61779336Y-62674411D01*
X61607362Y-62559502D01*
X61416274Y-62480350D01*
X61213416Y-62440000D01*
X61006584Y-62440000D01*
X60803726Y-62480350D01*
X60612638Y-62559502D01*
X60440664Y-62674411D01*
X60294411Y-62820664D01*
X60179502Y-62992638D01*
X60100350Y-63183726D01*
X60060000Y-63386584D01*
X59255000Y-63386584D01*
X59255000Y-60846584D01*
X60060000Y-60846584D01*
X60060000Y-61053416D01*
X60100350Y-61256274D01*
X60179502Y-61447362D01*
X60294411Y-61619336D01*
X60440664Y-61765589D01*
X60612638Y-61880498D01*
X60803726Y-61959650D01*
X61006584Y-62000000D01*
X61213416Y-62000000D01*
X61416274Y-61959650D01*
X61607362Y-61880498D01*
X61640821Y-61858141D01*
X64505000Y-61858141D01*
X64505000Y-61941859D01*
X64521333Y-62023968D01*
X64553370Y-62101313D01*
X64599881Y-62170921D01*
X64659079Y-62230119D01*
X64728687Y-62276630D01*
X64806032Y-62308667D01*
X64888141Y-62325000D01*
X64971859Y-62325000D01*
X65053968Y-62308667D01*
X65131313Y-62276630D01*
X65200921Y-62230119D01*
X65260119Y-62170921D01*
X65306630Y-62101313D01*
X65338667Y-62023968D01*
X65340353Y-62015494D01*
X65388141Y-62025000D01*
X65471859Y-62025000D01*
X65553968Y-62008667D01*
X65631313Y-61976630D01*
X65700921Y-61930119D01*
X65760119Y-61870921D01*
X65806630Y-61801313D01*
X65838667Y-61723968D01*
X65851761Y-61658141D01*
X69955000Y-61658141D01*
X69955000Y-61741859D01*
X69971333Y-61823968D01*
X70003370Y-61901313D01*
X70049881Y-61970921D01*
X70109079Y-62030119D01*
X70178687Y-62076630D01*
X70256032Y-62108667D01*
X70338141Y-62125000D01*
X70421859Y-62125000D01*
X70503968Y-62108667D01*
X70581313Y-62076630D01*
X70650921Y-62030119D01*
X70710119Y-61970921D01*
X70756630Y-61901313D01*
X70788667Y-61823968D01*
X70805000Y-61741859D01*
X70805000Y-61658141D01*
X70788667Y-61576032D01*
X70756630Y-61498687D01*
X70710119Y-61429079D01*
X70650921Y-61369881D01*
X70581313Y-61323370D01*
X70503968Y-61291333D01*
X70421859Y-61275000D01*
X70338141Y-61275000D01*
X70256032Y-61291333D01*
X70178687Y-61323370D01*
X70109079Y-61369881D01*
X70049881Y-61429079D01*
X70003370Y-61498687D01*
X69971333Y-61576032D01*
X69955000Y-61658141D01*
X65851761Y-61658141D01*
X65855000Y-61641859D01*
X65855000Y-61558141D01*
X65838667Y-61476032D01*
X65806630Y-61398687D01*
X65760119Y-61329079D01*
X65700921Y-61269881D01*
X65631313Y-61223370D01*
X65553968Y-61191333D01*
X65471859Y-61175000D01*
X65388141Y-61175000D01*
X65306032Y-61191333D01*
X65228687Y-61223370D01*
X65159079Y-61269881D01*
X65099881Y-61329079D01*
X65053370Y-61398687D01*
X65021333Y-61476032D01*
X65019647Y-61484506D01*
X64971859Y-61475000D01*
X64888141Y-61475000D01*
X64806032Y-61491333D01*
X64728687Y-61523370D01*
X64659079Y-61569881D01*
X64599881Y-61629079D01*
X64553370Y-61698687D01*
X64521333Y-61776032D01*
X64505000Y-61858141D01*
X61640821Y-61858141D01*
X61779336Y-61765589D01*
X61925589Y-61619336D01*
X62040498Y-61447362D01*
X62119650Y-61256274D01*
X62160000Y-61053416D01*
X62160000Y-60846584D01*
X75300000Y-60846584D01*
X75300000Y-61053416D01*
X75340350Y-61256274D01*
X75419502Y-61447362D01*
X75534411Y-61619336D01*
X75680664Y-61765589D01*
X75852638Y-61880498D01*
X76043726Y-61959650D01*
X76246584Y-62000000D01*
X76453416Y-62000000D01*
X76656274Y-61959650D01*
X76847362Y-61880498D01*
X77019336Y-61765589D01*
X77165589Y-61619336D01*
X77280498Y-61447362D01*
X77359650Y-61256274D01*
X77400000Y-61053416D01*
X77400000Y-60846584D01*
X77359650Y-60643726D01*
X77280498Y-60452638D01*
X77165589Y-60280664D01*
X77019336Y-60134411D01*
X76847362Y-60019502D01*
X76656274Y-59940350D01*
X76453416Y-59900000D01*
X76246584Y-59900000D01*
X76043726Y-59940350D01*
X75852638Y-60019502D01*
X75680664Y-60134411D01*
X75534411Y-60280664D01*
X75419502Y-60452638D01*
X75340350Y-60643726D01*
X75300000Y-60846584D01*
X62160000Y-60846584D01*
X62119650Y-60643726D01*
X62040498Y-60452638D01*
X61925589Y-60280664D01*
X61779336Y-60134411D01*
X61607362Y-60019502D01*
X61416274Y-59940350D01*
X61213416Y-59900000D01*
X61006584Y-59900000D01*
X60803726Y-59940350D01*
X60612638Y-60019502D01*
X60440664Y-60134411D01*
X60294411Y-60280664D01*
X60179502Y-60452638D01*
X60100350Y-60643726D01*
X60060000Y-60846584D01*
X59255000Y-60846584D01*
X59255000Y-58306584D01*
X60060000Y-58306584D01*
X60060000Y-58513416D01*
X60100350Y-58716274D01*
X60179502Y-58907362D01*
X60294411Y-59079336D01*
X60440664Y-59225589D01*
X60612638Y-59340498D01*
X60803726Y-59419650D01*
X61006584Y-59460000D01*
X61213416Y-59460000D01*
X61416274Y-59419650D01*
X61607362Y-59340498D01*
X61779336Y-59225589D01*
X61925589Y-59079336D01*
X62040498Y-58907362D01*
X62119650Y-58716274D01*
X62160000Y-58513416D01*
X62160000Y-58306584D01*
X75300000Y-58306584D01*
X75300000Y-58513416D01*
X75340350Y-58716274D01*
X75419502Y-58907362D01*
X75534411Y-59079336D01*
X75680664Y-59225589D01*
X75852638Y-59340498D01*
X76043726Y-59419650D01*
X76246584Y-59460000D01*
X76453416Y-59460000D01*
X76656274Y-59419650D01*
X76847362Y-59340498D01*
X77019336Y-59225589D01*
X77165589Y-59079336D01*
X77280498Y-58907362D01*
X77359650Y-58716274D01*
X77400000Y-58513416D01*
X77400000Y-58306584D01*
X77359650Y-58103726D01*
X77280498Y-57912638D01*
X77165589Y-57740664D01*
X77019336Y-57594411D01*
X76847362Y-57479502D01*
X76656274Y-57400350D01*
X76453416Y-57360000D01*
X76246584Y-57360000D01*
X76043726Y-57400350D01*
X75852638Y-57479502D01*
X75680664Y-57594411D01*
X75534411Y-57740664D01*
X75419502Y-57912638D01*
X75340350Y-58103726D01*
X75300000Y-58306584D01*
X62160000Y-58306584D01*
X62119650Y-58103726D01*
X62040498Y-57912638D01*
X61925589Y-57740664D01*
X61779336Y-57594411D01*
X61607362Y-57479502D01*
X61416274Y-57400350D01*
X61213416Y-57360000D01*
X61006584Y-57360000D01*
X60803726Y-57400350D01*
X60612638Y-57479502D01*
X60440664Y-57594411D01*
X60294411Y-57740664D01*
X60179502Y-57912638D01*
X60100350Y-58103726D01*
X60060000Y-58306584D01*
X59255000Y-58306584D01*
X59255000Y-56958141D01*
X66305000Y-56958141D01*
X66305000Y-57041859D01*
X66321333Y-57123968D01*
X66353370Y-57201313D01*
X66385902Y-57250000D01*
X66353370Y-57298687D01*
X66321333Y-57376032D01*
X66305000Y-57458141D01*
X66305000Y-57541859D01*
X66321333Y-57623968D01*
X66353370Y-57701313D01*
X66399881Y-57770921D01*
X66459079Y-57830119D01*
X66528687Y-57876630D01*
X66606032Y-57908667D01*
X66688141Y-57925000D01*
X66771859Y-57925000D01*
X66853968Y-57908667D01*
X66931313Y-57876630D01*
X67000921Y-57830119D01*
X67060119Y-57770921D01*
X67106630Y-57701313D01*
X67138667Y-57623968D01*
X67155000Y-57541859D01*
X67155000Y-57458141D01*
X67138667Y-57376032D01*
X67131257Y-57358141D01*
X73355000Y-57358141D01*
X73355000Y-57441859D01*
X73371333Y-57523968D01*
X73403370Y-57601313D01*
X73449881Y-57670921D01*
X73509079Y-57730119D01*
X73578687Y-57776630D01*
X73656032Y-57808667D01*
X73738141Y-57825000D01*
X73821859Y-57825000D01*
X73903968Y-57808667D01*
X73981313Y-57776630D01*
X74050921Y-57730119D01*
X74110119Y-57670921D01*
X74156630Y-57601313D01*
X74188667Y-57523968D01*
X74205000Y-57441859D01*
X74205000Y-57358141D01*
X74188667Y-57276032D01*
X74163650Y-57215636D01*
X74206630Y-57151313D01*
X74238667Y-57073968D01*
X74255000Y-56991859D01*
X74255000Y-56908141D01*
X74238667Y-56826032D01*
X74206630Y-56748687D01*
X74160119Y-56679079D01*
X74100921Y-56619881D01*
X74031313Y-56573370D01*
X73953968Y-56541333D01*
X73871859Y-56525000D01*
X73788141Y-56525000D01*
X73706032Y-56541333D01*
X73628687Y-56573370D01*
X73559079Y-56619881D01*
X73499881Y-56679079D01*
X73453370Y-56748687D01*
X73421333Y-56826032D01*
X73405000Y-56908141D01*
X73405000Y-56991859D01*
X73421333Y-57073968D01*
X73446350Y-57134364D01*
X73403370Y-57198687D01*
X73371333Y-57276032D01*
X73355000Y-57358141D01*
X67131257Y-57358141D01*
X67106630Y-57298687D01*
X67074098Y-57250000D01*
X67106630Y-57201313D01*
X67138667Y-57123968D01*
X67155000Y-57041859D01*
X67155000Y-56958141D01*
X67138667Y-56876032D01*
X67106630Y-56798687D01*
X67060119Y-56729079D01*
X67000921Y-56669881D01*
X66931313Y-56623370D01*
X66853968Y-56591333D01*
X66771859Y-56575000D01*
X66688141Y-56575000D01*
X66606032Y-56591333D01*
X66528687Y-56623370D01*
X66459079Y-56669881D01*
X66399881Y-56729079D01*
X66353370Y-56798687D01*
X66321333Y-56876032D01*
X66305000Y-56958141D01*
X59255000Y-56958141D01*
X59255000Y-55766584D01*
X60060000Y-55766584D01*
X60060000Y-55973416D01*
X60100350Y-56176274D01*
X60179502Y-56367362D01*
X60294411Y-56539336D01*
X60440664Y-56685589D01*
X60612638Y-56800498D01*
X60803726Y-56879650D01*
X61006584Y-56920000D01*
X61213416Y-56920000D01*
X61416274Y-56879650D01*
X61607362Y-56800498D01*
X61779336Y-56685589D01*
X61925589Y-56539336D01*
X62040498Y-56367362D01*
X62119650Y-56176274D01*
X62160000Y-55973416D01*
X62160000Y-55766584D01*
X75300000Y-55766584D01*
X75300000Y-55973416D01*
X75340350Y-56176274D01*
X75419502Y-56367362D01*
X75534411Y-56539336D01*
X75680664Y-56685589D01*
X75852638Y-56800498D01*
X76043726Y-56879650D01*
X76246584Y-56920000D01*
X76453416Y-56920000D01*
X76656274Y-56879650D01*
X76847362Y-56800498D01*
X77019336Y-56685589D01*
X77165589Y-56539336D01*
X77280498Y-56367362D01*
X77359650Y-56176274D01*
X77400000Y-55973416D01*
X77400000Y-55766584D01*
X77359650Y-55563726D01*
X77280498Y-55372638D01*
X77165589Y-55200664D01*
X77019336Y-55054411D01*
X76847362Y-54939502D01*
X76656274Y-54860350D01*
X76453416Y-54820000D01*
X76246584Y-54820000D01*
X76043726Y-54860350D01*
X75852638Y-54939502D01*
X75680664Y-55054411D01*
X75534411Y-55200664D01*
X75419502Y-55372638D01*
X75340350Y-55563726D01*
X75300000Y-55766584D01*
X62160000Y-55766584D01*
X62119650Y-55563726D01*
X62040498Y-55372638D01*
X61925589Y-55200664D01*
X61883066Y-55158141D01*
X71705000Y-55158141D01*
X71705000Y-55241859D01*
X71721333Y-55323968D01*
X71753370Y-55401313D01*
X71799881Y-55470921D01*
X71859079Y-55530119D01*
X71928687Y-55576630D01*
X72006032Y-55608667D01*
X72088141Y-55625000D01*
X72171859Y-55625000D01*
X72253968Y-55608667D01*
X72331313Y-55576630D01*
X72400921Y-55530119D01*
X72460119Y-55470921D01*
X72506630Y-55401313D01*
X72538667Y-55323968D01*
X72555000Y-55241859D01*
X72555000Y-55158141D01*
X72538667Y-55076032D01*
X72506630Y-54998687D01*
X72460119Y-54929079D01*
X72400921Y-54869881D01*
X72331313Y-54823370D01*
X72253968Y-54791333D01*
X72171859Y-54775000D01*
X72088141Y-54775000D01*
X72006032Y-54791333D01*
X71928687Y-54823370D01*
X71859079Y-54869881D01*
X71799881Y-54929079D01*
X71753370Y-54998687D01*
X71721333Y-55076032D01*
X71705000Y-55158141D01*
X61883066Y-55158141D01*
X61779336Y-55054411D01*
X61607362Y-54939502D01*
X61416274Y-54860350D01*
X61213416Y-54820000D01*
X61006584Y-54820000D01*
X60803726Y-54860350D01*
X60612638Y-54939502D01*
X60440664Y-55054411D01*
X60294411Y-55200664D01*
X60179502Y-55372638D01*
X60100350Y-55563726D01*
X60060000Y-55766584D01*
X59255000Y-55766584D01*
X59255000Y-53226584D01*
X60060000Y-53226584D01*
X60060000Y-53433416D01*
X60100350Y-53636274D01*
X60179502Y-53827362D01*
X60294411Y-53999336D01*
X60440664Y-54145589D01*
X60612638Y-54260498D01*
X60803726Y-54339650D01*
X61006584Y-54380000D01*
X61213416Y-54380000D01*
X61416274Y-54339650D01*
X61607362Y-54260498D01*
X61779336Y-54145589D01*
X61925589Y-53999336D01*
X62040498Y-53827362D01*
X62119650Y-53636274D01*
X62155082Y-53458141D01*
X64555000Y-53458141D01*
X64555000Y-53541859D01*
X64571333Y-53623968D01*
X64603370Y-53701313D01*
X64649881Y-53770921D01*
X64709079Y-53830119D01*
X64778687Y-53876630D01*
X64856032Y-53908667D01*
X64938141Y-53925000D01*
X65021859Y-53925000D01*
X65103968Y-53908667D01*
X65181313Y-53876630D01*
X65250921Y-53830119D01*
X65310119Y-53770921D01*
X65356630Y-53701313D01*
X65372904Y-53662023D01*
X65438141Y-53675000D01*
X65521859Y-53675000D01*
X65603968Y-53658667D01*
X65681313Y-53626630D01*
X65708983Y-53608141D01*
X73355000Y-53608141D01*
X73355000Y-53691859D01*
X73371333Y-53773968D01*
X73403370Y-53851313D01*
X73449881Y-53920921D01*
X73509079Y-53980119D01*
X73578687Y-54026630D01*
X73656032Y-54058667D01*
X73738141Y-54075000D01*
X73821859Y-54075000D01*
X73903968Y-54058667D01*
X73981313Y-54026630D01*
X74050921Y-53980119D01*
X74110119Y-53920921D01*
X74156630Y-53851313D01*
X74188667Y-53773968D01*
X74205000Y-53691859D01*
X74205000Y-53608141D01*
X74188667Y-53526032D01*
X74163650Y-53465636D01*
X74206630Y-53401313D01*
X74238667Y-53323968D01*
X74255000Y-53241859D01*
X74255000Y-53226584D01*
X75300000Y-53226584D01*
X75300000Y-53433416D01*
X75340350Y-53636274D01*
X75419502Y-53827362D01*
X75534411Y-53999336D01*
X75680664Y-54145589D01*
X75852638Y-54260498D01*
X76043726Y-54339650D01*
X76246584Y-54380000D01*
X76453416Y-54380000D01*
X76656274Y-54339650D01*
X76847362Y-54260498D01*
X77019336Y-54145589D01*
X77165589Y-53999336D01*
X77280498Y-53827362D01*
X77359650Y-53636274D01*
X77400000Y-53433416D01*
X77400000Y-53226584D01*
X77359650Y-53023726D01*
X77280498Y-52832638D01*
X77165589Y-52660664D01*
X77019336Y-52514411D01*
X76847362Y-52399502D01*
X76656274Y-52320350D01*
X76453416Y-52280000D01*
X76246584Y-52280000D01*
X76043726Y-52320350D01*
X75852638Y-52399502D01*
X75680664Y-52514411D01*
X75534411Y-52660664D01*
X75419502Y-52832638D01*
X75340350Y-53023726D01*
X75300000Y-53226584D01*
X74255000Y-53226584D01*
X74255000Y-53158141D01*
X74238667Y-53076032D01*
X74206630Y-52998687D01*
X74160119Y-52929079D01*
X74100921Y-52869881D01*
X74031313Y-52823370D01*
X73953968Y-52791333D01*
X73871859Y-52775000D01*
X73788141Y-52775000D01*
X73706032Y-52791333D01*
X73628687Y-52823370D01*
X73559079Y-52869881D01*
X73499881Y-52929079D01*
X73453370Y-52998687D01*
X73421333Y-53076032D01*
X73405000Y-53158141D01*
X73405000Y-53241859D01*
X73421333Y-53323968D01*
X73446350Y-53384364D01*
X73403370Y-53448687D01*
X73371333Y-53526032D01*
X73355000Y-53608141D01*
X65708983Y-53608141D01*
X65750921Y-53580119D01*
X65810119Y-53520921D01*
X65856630Y-53451313D01*
X65888667Y-53373968D01*
X65905000Y-53291859D01*
X65905000Y-53208141D01*
X65888667Y-53126032D01*
X65856630Y-53048687D01*
X65810119Y-52979079D01*
X65750921Y-52919881D01*
X65681313Y-52873370D01*
X65603968Y-52841333D01*
X65521859Y-52825000D01*
X65438141Y-52825000D01*
X65356032Y-52841333D01*
X65278687Y-52873370D01*
X65209079Y-52919881D01*
X65149881Y-52979079D01*
X65103370Y-53048687D01*
X65087096Y-53087977D01*
X65021859Y-53075000D01*
X64938141Y-53075000D01*
X64856032Y-53091333D01*
X64778687Y-53123370D01*
X64709079Y-53169881D01*
X64649881Y-53229079D01*
X64603370Y-53298687D01*
X64571333Y-53376032D01*
X64555000Y-53458141D01*
X62155082Y-53458141D01*
X62160000Y-53433416D01*
X62160000Y-53226584D01*
X62119650Y-53023726D01*
X62040498Y-52832638D01*
X61925589Y-52660664D01*
X61779336Y-52514411D01*
X61607362Y-52399502D01*
X61416274Y-52320350D01*
X61213416Y-52280000D01*
X61006584Y-52280000D01*
X60803726Y-52320350D01*
X60612638Y-52399502D01*
X60440664Y-52514411D01*
X60294411Y-52660664D01*
X60179502Y-52832638D01*
X60100350Y-53023726D01*
X60060000Y-53226584D01*
X59255000Y-53226584D01*
X59255000Y-52158141D01*
X64505000Y-52158141D01*
X64505000Y-52241859D01*
X64521333Y-52323968D01*
X64553370Y-52401313D01*
X64599881Y-52470921D01*
X64659079Y-52530119D01*
X64728687Y-52576630D01*
X64806032Y-52608667D01*
X64888141Y-52625000D01*
X64971859Y-52625000D01*
X65053968Y-52608667D01*
X65131313Y-52576630D01*
X65200921Y-52530119D01*
X65260119Y-52470921D01*
X65306630Y-52401313D01*
X65338667Y-52323968D01*
X65340353Y-52315494D01*
X65388141Y-52325000D01*
X65471859Y-52325000D01*
X65553968Y-52308667D01*
X65631313Y-52276630D01*
X65700921Y-52230119D01*
X65760119Y-52170921D01*
X65806630Y-52101313D01*
X65838667Y-52023968D01*
X65855000Y-51941859D01*
X65855000Y-51858141D01*
X65838667Y-51776032D01*
X65806630Y-51698687D01*
X65760119Y-51629079D01*
X65700921Y-51569881D01*
X65631313Y-51523370D01*
X65553968Y-51491333D01*
X65471859Y-51475000D01*
X65388141Y-51475000D01*
X65306032Y-51491333D01*
X65228687Y-51523370D01*
X65159079Y-51569881D01*
X65099881Y-51629079D01*
X65053370Y-51698687D01*
X65021333Y-51776032D01*
X65019647Y-51784506D01*
X64971859Y-51775000D01*
X64888141Y-51775000D01*
X64806032Y-51791333D01*
X64728687Y-51823370D01*
X64659079Y-51869881D01*
X64599881Y-51929079D01*
X64553370Y-51998687D01*
X64521333Y-52076032D01*
X64505000Y-52158141D01*
X59255000Y-52158141D01*
X59255000Y-50686584D01*
X60060000Y-50686584D01*
X60060000Y-50893416D01*
X60100350Y-51096274D01*
X60179502Y-51287362D01*
X60294411Y-51459336D01*
X60440664Y-51605589D01*
X60612638Y-51720498D01*
X60803726Y-51799650D01*
X61006584Y-51840000D01*
X61213416Y-51840000D01*
X61416274Y-51799650D01*
X61607362Y-51720498D01*
X61779336Y-51605589D01*
X61925589Y-51459336D01*
X61926387Y-51458141D01*
X71705000Y-51458141D01*
X71705000Y-51541859D01*
X71721333Y-51623968D01*
X71753370Y-51701313D01*
X71799881Y-51770921D01*
X71859079Y-51830119D01*
X71928687Y-51876630D01*
X72006032Y-51908667D01*
X72088141Y-51925000D01*
X72171859Y-51925000D01*
X72253968Y-51908667D01*
X72331313Y-51876630D01*
X72400921Y-51830119D01*
X72460119Y-51770921D01*
X72506630Y-51701313D01*
X72538667Y-51623968D01*
X72555000Y-51541859D01*
X72555000Y-51458141D01*
X72538667Y-51376032D01*
X72506630Y-51298687D01*
X72460119Y-51229079D01*
X72400921Y-51169881D01*
X72331313Y-51123370D01*
X72253968Y-51091333D01*
X72171859Y-51075000D01*
X72088141Y-51075000D01*
X72006032Y-51091333D01*
X71928687Y-51123370D01*
X71859079Y-51169881D01*
X71799881Y-51229079D01*
X71753370Y-51298687D01*
X71721333Y-51376032D01*
X71705000Y-51458141D01*
X61926387Y-51458141D01*
X62040498Y-51287362D01*
X62119650Y-51096274D01*
X62160000Y-50893416D01*
X62160000Y-50686584D01*
X75300000Y-50686584D01*
X75300000Y-50893416D01*
X75340350Y-51096274D01*
X75419502Y-51287362D01*
X75534411Y-51459336D01*
X75680664Y-51605589D01*
X75852638Y-51720498D01*
X76043726Y-51799650D01*
X76246584Y-51840000D01*
X76453416Y-51840000D01*
X76656274Y-51799650D01*
X76847362Y-51720498D01*
X77019336Y-51605589D01*
X77165589Y-51459336D01*
X77280498Y-51287362D01*
X77359650Y-51096274D01*
X77400000Y-50893416D01*
X77400000Y-50686584D01*
X77359650Y-50483726D01*
X77280498Y-50292638D01*
X77165589Y-50120664D01*
X77019336Y-49974411D01*
X76847362Y-49859502D01*
X76656274Y-49780350D01*
X76453416Y-49740000D01*
X76246584Y-49740000D01*
X76043726Y-49780350D01*
X75852638Y-49859502D01*
X75680664Y-49974411D01*
X75534411Y-50120664D01*
X75419502Y-50292638D01*
X75340350Y-50483726D01*
X75300000Y-50686584D01*
X62160000Y-50686584D01*
X62119650Y-50483726D01*
X62040498Y-50292638D01*
X61925589Y-50120664D01*
X61779336Y-49974411D01*
X61607362Y-49859502D01*
X61416274Y-49780350D01*
X61213416Y-49740000D01*
X61006584Y-49740000D01*
X60803726Y-49780350D01*
X60612638Y-49859502D01*
X60440664Y-49974411D01*
X60294411Y-50120664D01*
X60179502Y-50292638D01*
X60100350Y-50483726D01*
X60060000Y-50686584D01*
X59255000Y-50686584D01*
X59255000Y-48146584D01*
X60060000Y-48146584D01*
X60060000Y-48353416D01*
X60100350Y-48556274D01*
X60179502Y-48747362D01*
X60294411Y-48919336D01*
X60440664Y-49065589D01*
X60612638Y-49180498D01*
X60803726Y-49259650D01*
X61006584Y-49300000D01*
X61213416Y-49300000D01*
X61416274Y-49259650D01*
X61607362Y-49180498D01*
X61779336Y-49065589D01*
X61925589Y-48919336D01*
X62040498Y-48747362D01*
X62089454Y-48629171D01*
X75260071Y-48629171D01*
X75311181Y-48752588D01*
X75429192Y-48945594D01*
X75582589Y-49111869D01*
X75765477Y-49245023D01*
X75970828Y-49339939D01*
X76146000Y-49309836D01*
X76146000Y-48454000D01*
X76554000Y-48454000D01*
X76554000Y-49309836D01*
X76729172Y-49339939D01*
X76934523Y-49245023D01*
X77117411Y-49111869D01*
X77270808Y-48945594D01*
X77388819Y-48752588D01*
X77439929Y-48629171D01*
X77408522Y-48454000D01*
X76554000Y-48454000D01*
X76146000Y-48454000D01*
X75291478Y-48454000D01*
X75260071Y-48629171D01*
X62089454Y-48629171D01*
X62119650Y-48556274D01*
X62160000Y-48353416D01*
X62160000Y-48146584D01*
X62119650Y-47943726D01*
X62089455Y-47870829D01*
X75260071Y-47870829D01*
X75291478Y-48046000D01*
X76146000Y-48046000D01*
X76146000Y-47190164D01*
X76554000Y-47190164D01*
X76554000Y-48046000D01*
X77408522Y-48046000D01*
X77439929Y-47870829D01*
X77388819Y-47747412D01*
X77270808Y-47554406D01*
X77117411Y-47388131D01*
X76934523Y-47254977D01*
X76729172Y-47160061D01*
X76554000Y-47190164D01*
X76146000Y-47190164D01*
X75970828Y-47160061D01*
X75765477Y-47254977D01*
X75582589Y-47388131D01*
X75429192Y-47554406D01*
X75311181Y-47747412D01*
X75260071Y-47870829D01*
X62089455Y-47870829D01*
X62040498Y-47752638D01*
X61925589Y-47580664D01*
X61779336Y-47434411D01*
X61607362Y-47319502D01*
X61416274Y-47240350D01*
X61213416Y-47200000D01*
X61006584Y-47200000D01*
X60803726Y-47240350D01*
X60612638Y-47319502D01*
X60440664Y-47434411D01*
X60294411Y-47580664D01*
X60179502Y-47752638D01*
X60100350Y-47943726D01*
X60060000Y-48146584D01*
X59255000Y-48146584D01*
X59255000Y-44860000D01*
X60059033Y-44860000D01*
X60059033Y-46560000D01*
X60062895Y-46599207D01*
X60074331Y-46636907D01*
X60092902Y-46671651D01*
X60117895Y-46702105D01*
X60148349Y-46727098D01*
X60183093Y-46745669D01*
X60220793Y-46757105D01*
X60260000Y-46760967D01*
X61960000Y-46760967D01*
X61999207Y-46757105D01*
X62036907Y-46745669D01*
X62071651Y-46727098D01*
X62102105Y-46702105D01*
X62127098Y-46671651D01*
X62145669Y-46636907D01*
X62157105Y-46599207D01*
X62160967Y-46560000D01*
X62160967Y-44860000D01*
X75299033Y-44860000D01*
X75299033Y-46560000D01*
X75302895Y-46599207D01*
X75314331Y-46636907D01*
X75332902Y-46671651D01*
X75357895Y-46702105D01*
X75388349Y-46727098D01*
X75423093Y-46745669D01*
X75460793Y-46757105D01*
X75500000Y-46760967D01*
X77200000Y-46760967D01*
X77239207Y-46757105D01*
X77276907Y-46745669D01*
X77311651Y-46727098D01*
X77342105Y-46702105D01*
X77367098Y-46671651D01*
X77385669Y-46636907D01*
X77397105Y-46599207D01*
X77400967Y-46560000D01*
X77400967Y-44860000D01*
X77397105Y-44820793D01*
X77385669Y-44783093D01*
X77367098Y-44748349D01*
X77342105Y-44717895D01*
X77311651Y-44692902D01*
X77276907Y-44674331D01*
X77239207Y-44662895D01*
X77200000Y-44659033D01*
X75500000Y-44659033D01*
X75460793Y-44662895D01*
X75423093Y-44674331D01*
X75388349Y-44692902D01*
X75357895Y-44717895D01*
X75332902Y-44748349D01*
X75314331Y-44783093D01*
X75302895Y-44820793D01*
X75299033Y-44860000D01*
X62160967Y-44860000D01*
X62157105Y-44820793D01*
X62145669Y-44783093D01*
X62127098Y-44748349D01*
X62102105Y-44717895D01*
X62071651Y-44692902D01*
X62036907Y-44674331D01*
X61999207Y-44662895D01*
X61960000Y-44659033D01*
X60260000Y-44659033D01*
X60220793Y-44662895D01*
X60183093Y-44674331D01*
X60148349Y-44692902D01*
X60117895Y-44717895D01*
X60092902Y-44748349D01*
X60074331Y-44783093D01*
X60062895Y-44820793D01*
X60059033Y-44860000D01*
X59255000Y-44860000D01*
X59255000Y-43855000D01*
X78205000Y-43855000D01*
X78205000Y-111065000D01*
%TA.AperFunction,Conductor*%
G36*
X78205000Y-111065000D02*
G01*
X59255000Y-111065000D01*
X59255000Y-109589171D01*
X60020071Y-109589171D01*
X60071181Y-109712588D01*
X60189192Y-109905594D01*
X60342589Y-110071869D01*
X60525477Y-110205023D01*
X60730828Y-110299939D01*
X60906000Y-110269836D01*
X60906000Y-109414000D01*
X61314000Y-109414000D01*
X61314000Y-110269836D01*
X61489172Y-110299939D01*
X61694523Y-110205023D01*
X61877411Y-110071869D01*
X62030808Y-109905594D01*
X62148819Y-109712588D01*
X62199929Y-109589171D01*
X62168522Y-109414000D01*
X61314000Y-109414000D01*
X60906000Y-109414000D01*
X60051478Y-109414000D01*
X60020071Y-109589171D01*
X59255000Y-109589171D01*
X59255000Y-109106584D01*
X75300000Y-109106584D01*
X75300000Y-109313416D01*
X75340350Y-109516274D01*
X75419502Y-109707362D01*
X75534411Y-109879336D01*
X75680664Y-110025589D01*
X75852638Y-110140498D01*
X76043726Y-110219650D01*
X76246584Y-110260000D01*
X76453416Y-110260000D01*
X76656274Y-110219650D01*
X76847362Y-110140498D01*
X77019336Y-110025589D01*
X77165589Y-109879336D01*
X77280498Y-109707362D01*
X77359650Y-109516274D01*
X77400000Y-109313416D01*
X77400000Y-109106584D01*
X77359650Y-108903726D01*
X77280498Y-108712638D01*
X77165589Y-108540664D01*
X77019336Y-108394411D01*
X76847362Y-108279502D01*
X76656274Y-108200350D01*
X76453416Y-108160000D01*
X76246584Y-108160000D01*
X76043726Y-108200350D01*
X75852638Y-108279502D01*
X75680664Y-108394411D01*
X75534411Y-108540664D01*
X75419502Y-108712638D01*
X75340350Y-108903726D01*
X75300000Y-109106584D01*
X59255000Y-109106584D01*
X59255000Y-108830829D01*
X60020071Y-108830829D01*
X60051478Y-109006000D01*
X60906000Y-109006000D01*
X60906000Y-108150164D01*
X61314000Y-108150164D01*
X61314000Y-109006000D01*
X62168522Y-109006000D01*
X62199929Y-108830829D01*
X62148819Y-108707412D01*
X62030808Y-108514406D01*
X61877411Y-108348131D01*
X61694523Y-108214977D01*
X61489172Y-108120061D01*
X61314000Y-108150164D01*
X60906000Y-108150164D01*
X60730828Y-108120061D01*
X60525477Y-108214977D01*
X60342589Y-108348131D01*
X60189192Y-108514406D01*
X60071181Y-108707412D01*
X60020071Y-108830829D01*
X59255000Y-108830829D01*
X59255000Y-106566584D01*
X60060000Y-106566584D01*
X60060000Y-106773416D01*
X60100350Y-106976274D01*
X60179502Y-107167362D01*
X60294411Y-107339336D01*
X60440664Y-107485589D01*
X60612638Y-107600498D01*
X60803726Y-107679650D01*
X61006584Y-107720000D01*
X61213416Y-107720000D01*
X61416274Y-107679650D01*
X61607362Y-107600498D01*
X61779336Y-107485589D01*
X61925589Y-107339336D01*
X62040498Y-107167362D01*
X62119650Y-106976274D01*
X62160000Y-106773416D01*
X62160000Y-106566584D01*
X75300000Y-106566584D01*
X75300000Y-106773416D01*
X75340350Y-106976274D01*
X75419502Y-107167362D01*
X75534411Y-107339336D01*
X75680664Y-107485589D01*
X75852638Y-107600498D01*
X76043726Y-107679650D01*
X76246584Y-107720000D01*
X76453416Y-107720000D01*
X76656274Y-107679650D01*
X76847362Y-107600498D01*
X77019336Y-107485589D01*
X77165589Y-107339336D01*
X77280498Y-107167362D01*
X77359650Y-106976274D01*
X77400000Y-106773416D01*
X77400000Y-106566584D01*
X77359650Y-106363726D01*
X77280498Y-106172638D01*
X77165589Y-106000664D01*
X77019336Y-105854411D01*
X76847362Y-105739502D01*
X76656274Y-105660350D01*
X76453416Y-105620000D01*
X76246584Y-105620000D01*
X76043726Y-105660350D01*
X75852638Y-105739502D01*
X75680664Y-105854411D01*
X75534411Y-106000664D01*
X75419502Y-106172638D01*
X75340350Y-106363726D01*
X75300000Y-106566584D01*
X62160000Y-106566584D01*
X62119650Y-106363726D01*
X62040498Y-106172638D01*
X61925589Y-106000664D01*
X61779336Y-105854411D01*
X61607362Y-105739502D01*
X61416274Y-105660350D01*
X61213416Y-105620000D01*
X61006584Y-105620000D01*
X60803726Y-105660350D01*
X60612638Y-105739502D01*
X60440664Y-105854411D01*
X60294411Y-106000664D01*
X60179502Y-106172638D01*
X60100350Y-106363726D01*
X60060000Y-106566584D01*
X59255000Y-106566584D01*
X59255000Y-104026584D01*
X60060000Y-104026584D01*
X60060000Y-104233416D01*
X60100350Y-104436274D01*
X60179502Y-104627362D01*
X60294411Y-104799336D01*
X60440664Y-104945589D01*
X60612638Y-105060498D01*
X60803726Y-105139650D01*
X61006584Y-105180000D01*
X61213416Y-105180000D01*
X61416274Y-105139650D01*
X61607362Y-105060498D01*
X61732114Y-104977141D01*
X73131000Y-104977141D01*
X73131000Y-105060859D01*
X73147333Y-105142968D01*
X73179370Y-105220313D01*
X73214575Y-105273000D01*
X73179370Y-105325687D01*
X73147333Y-105403032D01*
X73131000Y-105485141D01*
X73131000Y-105568859D01*
X73147333Y-105650968D01*
X73179370Y-105728313D01*
X73225881Y-105797921D01*
X73285079Y-105857119D01*
X73354687Y-105903630D01*
X73432032Y-105935667D01*
X73514141Y-105952000D01*
X73597859Y-105952000D01*
X73679968Y-105935667D01*
X73757313Y-105903630D01*
X73810000Y-105868425D01*
X73862687Y-105903630D01*
X73940032Y-105935667D01*
X74022141Y-105952000D01*
X74105859Y-105952000D01*
X74187968Y-105935667D01*
X74265313Y-105903630D01*
X74334921Y-105857119D01*
X74394119Y-105797921D01*
X74440630Y-105728313D01*
X74472667Y-105650968D01*
X74489000Y-105568859D01*
X74489000Y-105485141D01*
X74472667Y-105403032D01*
X74440630Y-105325687D01*
X74405425Y-105273000D01*
X74440630Y-105220313D01*
X74472667Y-105142968D01*
X74489000Y-105060859D01*
X74489000Y-104977141D01*
X74472667Y-104895032D01*
X74440630Y-104817687D01*
X74394119Y-104748079D01*
X74334921Y-104688881D01*
X74265313Y-104642370D01*
X74187968Y-104610333D01*
X74105859Y-104594000D01*
X74022141Y-104594000D01*
X73940032Y-104610333D01*
X73862687Y-104642370D01*
X73810000Y-104677575D01*
X73757313Y-104642370D01*
X73679968Y-104610333D01*
X73597859Y-104594000D01*
X73514141Y-104594000D01*
X73432032Y-104610333D01*
X73354687Y-104642370D01*
X73285079Y-104688881D01*
X73225881Y-104748079D01*
X73179370Y-104817687D01*
X73147333Y-104895032D01*
X73131000Y-104977141D01*
X61732114Y-104977141D01*
X61779336Y-104945589D01*
X61925589Y-104799336D01*
X62040498Y-104627362D01*
X62119650Y-104436274D01*
X62160000Y-104233416D01*
X62160000Y-104026584D01*
X62119650Y-103823726D01*
X62071359Y-103707141D01*
X65003000Y-103707141D01*
X65003000Y-103790859D01*
X65019333Y-103872968D01*
X65051370Y-103950313D01*
X65097881Y-104019921D01*
X65157079Y-104079119D01*
X65226687Y-104125630D01*
X65304032Y-104157667D01*
X65386141Y-104174000D01*
X65469859Y-104174000D01*
X65551968Y-104157667D01*
X65629313Y-104125630D01*
X65698921Y-104079119D01*
X65758119Y-104019921D01*
X65804630Y-103950313D01*
X65836667Y-103872968D01*
X65853000Y-103790859D01*
X65853000Y-103707141D01*
X65836667Y-103625032D01*
X65804630Y-103547687D01*
X65758119Y-103478079D01*
X65698921Y-103418881D01*
X65629313Y-103372370D01*
X65551968Y-103340333D01*
X65469859Y-103324000D01*
X65386141Y-103324000D01*
X65304032Y-103340333D01*
X65226687Y-103372370D01*
X65157079Y-103418881D01*
X65097881Y-103478079D01*
X65051370Y-103547687D01*
X65019333Y-103625032D01*
X65003000Y-103707141D01*
X62071359Y-103707141D01*
X62040498Y-103632638D01*
X61925589Y-103460664D01*
X61779336Y-103314411D01*
X61607362Y-103199502D01*
X61416274Y-103120350D01*
X61213416Y-103080000D01*
X61006584Y-103080000D01*
X60803726Y-103120350D01*
X60612638Y-103199502D01*
X60440664Y-103314411D01*
X60294411Y-103460664D01*
X60179502Y-103632638D01*
X60100350Y-103823726D01*
X60060000Y-104026584D01*
X59255000Y-104026584D01*
X59255000Y-102945141D01*
X66273000Y-102945141D01*
X66273000Y-103028859D01*
X66289333Y-103110968D01*
X66321370Y-103188313D01*
X66367881Y-103257921D01*
X66427079Y-103317119D01*
X66496687Y-103363630D01*
X66507237Y-103368000D01*
X66496687Y-103372370D01*
X66427079Y-103418881D01*
X66367881Y-103478079D01*
X66321370Y-103547687D01*
X66289333Y-103625032D01*
X66273000Y-103707141D01*
X66273000Y-103790859D01*
X66289333Y-103872968D01*
X66321370Y-103950313D01*
X66367881Y-104019921D01*
X66427079Y-104079119D01*
X66496687Y-104125630D01*
X66574032Y-104157667D01*
X66656141Y-104174000D01*
X66739859Y-104174000D01*
X66821968Y-104157667D01*
X66899313Y-104125630D01*
X66968921Y-104079119D01*
X67028119Y-104019921D01*
X67074630Y-103950313D01*
X67106667Y-103872968D01*
X67123000Y-103790859D01*
X67123000Y-103707141D01*
X67106667Y-103625032D01*
X67074630Y-103547687D01*
X67028119Y-103478079D01*
X66968921Y-103418881D01*
X66899313Y-103372370D01*
X66888763Y-103368000D01*
X66899313Y-103363630D01*
X66968921Y-103317119D01*
X67028119Y-103257921D01*
X67074630Y-103188313D01*
X67106667Y-103110968D01*
X67123000Y-103028859D01*
X67123000Y-102945141D01*
X67416000Y-102945141D01*
X67416000Y-103028859D01*
X67432333Y-103110968D01*
X67464370Y-103188313D01*
X67510881Y-103257921D01*
X67570079Y-103317119D01*
X67639687Y-103363630D01*
X67650237Y-103368000D01*
X67639687Y-103372370D01*
X67570079Y-103418881D01*
X67510881Y-103478079D01*
X67464370Y-103547687D01*
X67432333Y-103625032D01*
X67416000Y-103707141D01*
X67416000Y-103790859D01*
X67432333Y-103872968D01*
X67464370Y-103950313D01*
X67510881Y-104019921D01*
X67570079Y-104079119D01*
X67639687Y-104125630D01*
X67717032Y-104157667D01*
X67799141Y-104174000D01*
X67882859Y-104174000D01*
X67964968Y-104157667D01*
X68042313Y-104125630D01*
X68111921Y-104079119D01*
X68171119Y-104019921D01*
X68217630Y-103950313D01*
X68249667Y-103872968D01*
X68266000Y-103790859D01*
X68266000Y-103707141D01*
X68249667Y-103625032D01*
X68217630Y-103547687D01*
X68171119Y-103478079D01*
X68111921Y-103418881D01*
X68042313Y-103372370D01*
X68031763Y-103368000D01*
X68042313Y-103363630D01*
X68111921Y-103317119D01*
X68171119Y-103257921D01*
X68217630Y-103188313D01*
X68249667Y-103110968D01*
X68266000Y-103028859D01*
X68266000Y-102945141D01*
X68686000Y-102945141D01*
X68686000Y-103028859D01*
X68702333Y-103110968D01*
X68734370Y-103188313D01*
X68780881Y-103257921D01*
X68840079Y-103317119D01*
X68909687Y-103363630D01*
X68920237Y-103368000D01*
X68909687Y-103372370D01*
X68840079Y-103418881D01*
X68780881Y-103478079D01*
X68734370Y-103547687D01*
X68702333Y-103625032D01*
X68686000Y-103707141D01*
X68686000Y-103790859D01*
X68702333Y-103872968D01*
X68734370Y-103950313D01*
X68780881Y-104019921D01*
X68840079Y-104079119D01*
X68909687Y-104125630D01*
X68987032Y-104157667D01*
X69069141Y-104174000D01*
X69152859Y-104174000D01*
X69234968Y-104157667D01*
X69312313Y-104125630D01*
X69381921Y-104079119D01*
X69441119Y-104019921D01*
X69487630Y-103950313D01*
X69519667Y-103872968D01*
X69536000Y-103790859D01*
X69536000Y-103707141D01*
X69519667Y-103625032D01*
X69487630Y-103547687D01*
X69441119Y-103478079D01*
X69381921Y-103418881D01*
X69312313Y-103372370D01*
X69301763Y-103368000D01*
X69312313Y-103363630D01*
X69381921Y-103317119D01*
X69441119Y-103257921D01*
X69487630Y-103188313D01*
X69519667Y-103110968D01*
X69536000Y-103028859D01*
X69536000Y-102945141D01*
X69956000Y-102945141D01*
X69956000Y-103028859D01*
X69972333Y-103110968D01*
X70004370Y-103188313D01*
X70050881Y-103257921D01*
X70110079Y-103317119D01*
X70179687Y-103363630D01*
X70190237Y-103368000D01*
X70179687Y-103372370D01*
X70110079Y-103418881D01*
X70050881Y-103478079D01*
X70004370Y-103547687D01*
X69972333Y-103625032D01*
X69956000Y-103707141D01*
X69956000Y-103790859D01*
X69972333Y-103872968D01*
X70004370Y-103950313D01*
X70050881Y-104019921D01*
X70110079Y-104079119D01*
X70179687Y-104125630D01*
X70257032Y-104157667D01*
X70339141Y-104174000D01*
X70422859Y-104174000D01*
X70504968Y-104157667D01*
X70582313Y-104125630D01*
X70651921Y-104079119D01*
X70704456Y-104026584D01*
X75300000Y-104026584D01*
X75300000Y-104233416D01*
X75340350Y-104436274D01*
X75419502Y-104627362D01*
X75534411Y-104799336D01*
X75680664Y-104945589D01*
X75852638Y-105060498D01*
X76043726Y-105139650D01*
X76246584Y-105180000D01*
X76453416Y-105180000D01*
X76656274Y-105139650D01*
X76847362Y-105060498D01*
X77019336Y-104945589D01*
X77165589Y-104799336D01*
X77280498Y-104627362D01*
X77359650Y-104436274D01*
X77400000Y-104233416D01*
X77400000Y-104026584D01*
X77359650Y-103823726D01*
X77280498Y-103632638D01*
X77165589Y-103460664D01*
X77019336Y-103314411D01*
X76847362Y-103199502D01*
X76656274Y-103120350D01*
X76453416Y-103080000D01*
X76246584Y-103080000D01*
X76043726Y-103120350D01*
X75852638Y-103199502D01*
X75680664Y-103314411D01*
X75534411Y-103460664D01*
X75419502Y-103632638D01*
X75340350Y-103823726D01*
X75300000Y-104026584D01*
X70704456Y-104026584D01*
X70711119Y-104019921D01*
X70757630Y-103950313D01*
X70789667Y-103872968D01*
X70806000Y-103790859D01*
X70806000Y-103707141D01*
X70789667Y-103625032D01*
X70757630Y-103547687D01*
X70711119Y-103478079D01*
X70651921Y-103418881D01*
X70582313Y-103372370D01*
X70571763Y-103368000D01*
X70582313Y-103363630D01*
X70651921Y-103317119D01*
X70711119Y-103257921D01*
X70757630Y-103188313D01*
X70789667Y-103110968D01*
X70806000Y-103028859D01*
X70806000Y-102945141D01*
X70789667Y-102863032D01*
X70757630Y-102785687D01*
X70711119Y-102716079D01*
X70651921Y-102656881D01*
X70582313Y-102610370D01*
X70504968Y-102578333D01*
X70422859Y-102562000D01*
X70339141Y-102562000D01*
X70257032Y-102578333D01*
X70179687Y-102610370D01*
X70110079Y-102656881D01*
X70050881Y-102716079D01*
X70004370Y-102785687D01*
X69972333Y-102863032D01*
X69956000Y-102945141D01*
X69536000Y-102945141D01*
X69519667Y-102863032D01*
X69487630Y-102785687D01*
X69441119Y-102716079D01*
X69381921Y-102656881D01*
X69312313Y-102610370D01*
X69234968Y-102578333D01*
X69152859Y-102562000D01*
X69069141Y-102562000D01*
X68987032Y-102578333D01*
X68909687Y-102610370D01*
X68840079Y-102656881D01*
X68780881Y-102716079D01*
X68734370Y-102785687D01*
X68702333Y-102863032D01*
X68686000Y-102945141D01*
X68266000Y-102945141D01*
X68249667Y-102863032D01*
X68217630Y-102785687D01*
X68171119Y-102716079D01*
X68111921Y-102656881D01*
X68042313Y-102610370D01*
X67964968Y-102578333D01*
X67882859Y-102562000D01*
X67799141Y-102562000D01*
X67717032Y-102578333D01*
X67639687Y-102610370D01*
X67570079Y-102656881D01*
X67510881Y-102716079D01*
X67464370Y-102785687D01*
X67432333Y-102863032D01*
X67416000Y-102945141D01*
X67123000Y-102945141D01*
X67106667Y-102863032D01*
X67074630Y-102785687D01*
X67028119Y-102716079D01*
X66968921Y-102656881D01*
X66899313Y-102610370D01*
X66821968Y-102578333D01*
X66739859Y-102562000D01*
X66656141Y-102562000D01*
X66574032Y-102578333D01*
X66496687Y-102610370D01*
X66427079Y-102656881D01*
X66367881Y-102716079D01*
X66321370Y-102785687D01*
X66289333Y-102863032D01*
X66273000Y-102945141D01*
X59255000Y-102945141D01*
X59255000Y-101486584D01*
X60060000Y-101486584D01*
X60060000Y-101693416D01*
X60100350Y-101896274D01*
X60179502Y-102087362D01*
X60294411Y-102259336D01*
X60440664Y-102405589D01*
X60612638Y-102520498D01*
X60803726Y-102599650D01*
X61006584Y-102640000D01*
X61213416Y-102640000D01*
X61416274Y-102599650D01*
X61607362Y-102520498D01*
X61779336Y-102405589D01*
X61925589Y-102259336D01*
X62040498Y-102087362D01*
X62119650Y-101896274D01*
X62160000Y-101693416D01*
X62160000Y-101486584D01*
X75300000Y-101486584D01*
X75300000Y-101693416D01*
X75340350Y-101896274D01*
X75419502Y-102087362D01*
X75534411Y-102259336D01*
X75680664Y-102405589D01*
X75852638Y-102520498D01*
X76043726Y-102599650D01*
X76246584Y-102640000D01*
X76453416Y-102640000D01*
X76656274Y-102599650D01*
X76847362Y-102520498D01*
X77019336Y-102405589D01*
X77165589Y-102259336D01*
X77280498Y-102087362D01*
X77359650Y-101896274D01*
X77400000Y-101693416D01*
X77400000Y-101486584D01*
X77359650Y-101283726D01*
X77280498Y-101092638D01*
X77165589Y-100920664D01*
X77019336Y-100774411D01*
X76847362Y-100659502D01*
X76656274Y-100580350D01*
X76453416Y-100540000D01*
X76246584Y-100540000D01*
X76043726Y-100580350D01*
X75852638Y-100659502D01*
X75680664Y-100774411D01*
X75534411Y-100920664D01*
X75419502Y-101092638D01*
X75340350Y-101283726D01*
X75300000Y-101486584D01*
X62160000Y-101486584D01*
X62119650Y-101283726D01*
X62040498Y-101092638D01*
X61925589Y-100920664D01*
X61779336Y-100774411D01*
X61607362Y-100659502D01*
X61416274Y-100580350D01*
X61213416Y-100540000D01*
X61006584Y-100540000D01*
X60803726Y-100580350D01*
X60612638Y-100659502D01*
X60440664Y-100774411D01*
X60294411Y-100920664D01*
X60179502Y-101092638D01*
X60100350Y-101283726D01*
X60060000Y-101486584D01*
X59255000Y-101486584D01*
X59255000Y-98946584D01*
X60060000Y-98946584D01*
X60060000Y-99153416D01*
X60100350Y-99356274D01*
X60179502Y-99547362D01*
X60294411Y-99719336D01*
X60440664Y-99865589D01*
X60612638Y-99980498D01*
X60803726Y-100059650D01*
X61006584Y-100100000D01*
X61213416Y-100100000D01*
X61416274Y-100059650D01*
X61607362Y-99980498D01*
X61732114Y-99897141D01*
X71353000Y-99897141D01*
X71353000Y-99980859D01*
X71369333Y-100062968D01*
X71401370Y-100140313D01*
X71447881Y-100209921D01*
X71507079Y-100269119D01*
X71576687Y-100315630D01*
X71654032Y-100347667D01*
X71736141Y-100364000D01*
X71819859Y-100364000D01*
X71901968Y-100347667D01*
X71979313Y-100315630D01*
X72048921Y-100269119D01*
X72108119Y-100209921D01*
X72154630Y-100140313D01*
X72186667Y-100062968D01*
X72203000Y-99980859D01*
X72203000Y-99897141D01*
X72186667Y-99815032D01*
X72154630Y-99737687D01*
X72108119Y-99668079D01*
X72048921Y-99608881D01*
X71979313Y-99562370D01*
X71901968Y-99530333D01*
X71819859Y-99514000D01*
X71736141Y-99514000D01*
X71654032Y-99530333D01*
X71576687Y-99562370D01*
X71507079Y-99608881D01*
X71447881Y-99668079D01*
X71401370Y-99737687D01*
X71369333Y-99815032D01*
X71353000Y-99897141D01*
X61732114Y-99897141D01*
X61779336Y-99865589D01*
X61925589Y-99719336D01*
X62040498Y-99547362D01*
X62119650Y-99356274D01*
X62160000Y-99153416D01*
X62160000Y-98946584D01*
X75300000Y-98946584D01*
X75300000Y-99153416D01*
X75340350Y-99356274D01*
X75419502Y-99547362D01*
X75534411Y-99719336D01*
X75680664Y-99865589D01*
X75852638Y-99980498D01*
X76043726Y-100059650D01*
X76246584Y-100100000D01*
X76453416Y-100100000D01*
X76656274Y-100059650D01*
X76847362Y-99980498D01*
X77019336Y-99865589D01*
X77165589Y-99719336D01*
X77280498Y-99547362D01*
X77359650Y-99356274D01*
X77400000Y-99153416D01*
X77400000Y-98946584D01*
X77359650Y-98743726D01*
X77280498Y-98552638D01*
X77165589Y-98380664D01*
X77019336Y-98234411D01*
X76847362Y-98119502D01*
X76656274Y-98040350D01*
X76453416Y-98000000D01*
X76246584Y-98000000D01*
X76043726Y-98040350D01*
X75852638Y-98119502D01*
X75680664Y-98234411D01*
X75534411Y-98380664D01*
X75419502Y-98552638D01*
X75340350Y-98743726D01*
X75300000Y-98946584D01*
X62160000Y-98946584D01*
X62119650Y-98743726D01*
X62040498Y-98552638D01*
X61925589Y-98380664D01*
X61779336Y-98234411D01*
X61607362Y-98119502D01*
X61416274Y-98040350D01*
X61213416Y-98000000D01*
X61006584Y-98000000D01*
X60803726Y-98040350D01*
X60612638Y-98119502D01*
X60440664Y-98234411D01*
X60294411Y-98380664D01*
X60179502Y-98552638D01*
X60100350Y-98743726D01*
X60060000Y-98946584D01*
X59255000Y-98946584D01*
X59255000Y-96406584D01*
X60060000Y-96406584D01*
X60060000Y-96613416D01*
X60100350Y-96816274D01*
X60179502Y-97007362D01*
X60294411Y-97179336D01*
X60440664Y-97325589D01*
X60612638Y-97440498D01*
X60803726Y-97519650D01*
X61006584Y-97560000D01*
X61213416Y-97560000D01*
X61416274Y-97519650D01*
X61607362Y-97440498D01*
X61779336Y-97325589D01*
X61925589Y-97179336D01*
X62040498Y-97007362D01*
X62119650Y-96816274D01*
X62160000Y-96613416D01*
X62160000Y-96406584D01*
X75300000Y-96406584D01*
X75300000Y-96613416D01*
X75340350Y-96816274D01*
X75419502Y-97007362D01*
X75534411Y-97179336D01*
X75680664Y-97325589D01*
X75852638Y-97440498D01*
X76043726Y-97519650D01*
X76246584Y-97560000D01*
X76453416Y-97560000D01*
X76656274Y-97519650D01*
X76847362Y-97440498D01*
X77019336Y-97325589D01*
X77165589Y-97179336D01*
X77280498Y-97007362D01*
X77359650Y-96816274D01*
X77400000Y-96613416D01*
X77400000Y-96406584D01*
X77359650Y-96203726D01*
X77280498Y-96012638D01*
X77165589Y-95840664D01*
X77019336Y-95694411D01*
X76847362Y-95579502D01*
X76656274Y-95500350D01*
X76453416Y-95460000D01*
X76246584Y-95460000D01*
X76043726Y-95500350D01*
X75852638Y-95579502D01*
X75680664Y-95694411D01*
X75534411Y-95840664D01*
X75419502Y-96012638D01*
X75340350Y-96203726D01*
X75300000Y-96406584D01*
X62160000Y-96406584D01*
X62119650Y-96203726D01*
X62040498Y-96012638D01*
X61925589Y-95840664D01*
X61779336Y-95694411D01*
X61607362Y-95579502D01*
X61416274Y-95500350D01*
X61213416Y-95460000D01*
X61006584Y-95460000D01*
X60803726Y-95500350D01*
X60612638Y-95579502D01*
X60440664Y-95694411D01*
X60294411Y-95840664D01*
X60179502Y-96012638D01*
X60100350Y-96203726D01*
X60060000Y-96406584D01*
X59255000Y-96406584D01*
X59255000Y-93866584D01*
X60060000Y-93866584D01*
X60060000Y-94073416D01*
X60100350Y-94276274D01*
X60179502Y-94467362D01*
X60294411Y-94639336D01*
X60440664Y-94785589D01*
X60612638Y-94900498D01*
X60803726Y-94979650D01*
X61006584Y-95020000D01*
X61213416Y-95020000D01*
X61416274Y-94979650D01*
X61607362Y-94900498D01*
X61663270Y-94863141D01*
X66019000Y-94863141D01*
X66019000Y-94946859D01*
X66035333Y-95028968D01*
X66067370Y-95106313D01*
X66113881Y-95175921D01*
X66173079Y-95235119D01*
X66242687Y-95281630D01*
X66320032Y-95313667D01*
X66402141Y-95330000D01*
X66485859Y-95330000D01*
X66567968Y-95313667D01*
X66645313Y-95281630D01*
X66714921Y-95235119D01*
X66774119Y-95175921D01*
X66820630Y-95106313D01*
X66852667Y-95028968D01*
X66869000Y-94946859D01*
X66869000Y-94863141D01*
X66868006Y-94858141D01*
X70355000Y-94858141D01*
X70355000Y-94941859D01*
X70371333Y-95023968D01*
X70403370Y-95101313D01*
X70449881Y-95170921D01*
X70509079Y-95230119D01*
X70578687Y-95276630D01*
X70656032Y-95308667D01*
X70738141Y-95325000D01*
X70821859Y-95325000D01*
X70903968Y-95308667D01*
X70981313Y-95276630D01*
X71050921Y-95230119D01*
X71110119Y-95170921D01*
X71156630Y-95101313D01*
X71188667Y-95023968D01*
X71205000Y-94941859D01*
X71205000Y-94858141D01*
X71188667Y-94776032D01*
X71156630Y-94698687D01*
X71110119Y-94629079D01*
X71050921Y-94569881D01*
X70981313Y-94523370D01*
X70903968Y-94491333D01*
X70821859Y-94475000D01*
X70738141Y-94475000D01*
X70656032Y-94491333D01*
X70578687Y-94523370D01*
X70509079Y-94569881D01*
X70449881Y-94629079D01*
X70403370Y-94698687D01*
X70371333Y-94776032D01*
X70355000Y-94858141D01*
X66868006Y-94858141D01*
X66852667Y-94781032D01*
X66820630Y-94703687D01*
X66774119Y-94634079D01*
X66714921Y-94574881D01*
X66645313Y-94528370D01*
X66567968Y-94496333D01*
X66485859Y-94480000D01*
X66402141Y-94480000D01*
X66320032Y-94496333D01*
X66242687Y-94528370D01*
X66173079Y-94574881D01*
X66113881Y-94634079D01*
X66067370Y-94703687D01*
X66035333Y-94781032D01*
X66019000Y-94863141D01*
X61663270Y-94863141D01*
X61779336Y-94785589D01*
X61925589Y-94639336D01*
X62040498Y-94467362D01*
X62119650Y-94276274D01*
X62160000Y-94073416D01*
X62160000Y-93866584D01*
X75300000Y-93866584D01*
X75300000Y-94073416D01*
X75340350Y-94276274D01*
X75419502Y-94467362D01*
X75534411Y-94639336D01*
X75680664Y-94785589D01*
X75852638Y-94900498D01*
X76043726Y-94979650D01*
X76246584Y-95020000D01*
X76453416Y-95020000D01*
X76656274Y-94979650D01*
X76847362Y-94900498D01*
X77019336Y-94785589D01*
X77165589Y-94639336D01*
X77280498Y-94467362D01*
X77359650Y-94276274D01*
X77400000Y-94073416D01*
X77400000Y-93866584D01*
X77359650Y-93663726D01*
X77280498Y-93472638D01*
X77165589Y-93300664D01*
X77019336Y-93154411D01*
X76847362Y-93039502D01*
X76656274Y-92960350D01*
X76453416Y-92920000D01*
X76246584Y-92920000D01*
X76043726Y-92960350D01*
X75852638Y-93039502D01*
X75680664Y-93154411D01*
X75534411Y-93300664D01*
X75419502Y-93472638D01*
X75340350Y-93663726D01*
X75300000Y-93866584D01*
X62160000Y-93866584D01*
X62119650Y-93663726D01*
X62040498Y-93472638D01*
X61925589Y-93300664D01*
X61779336Y-93154411D01*
X61607362Y-93039502D01*
X61416274Y-92960350D01*
X61213416Y-92920000D01*
X61006584Y-92920000D01*
X60803726Y-92960350D01*
X60612638Y-93039502D01*
X60440664Y-93154411D01*
X60294411Y-93300664D01*
X60179502Y-93472638D01*
X60100350Y-93663726D01*
X60060000Y-93866584D01*
X59255000Y-93866584D01*
X59255000Y-91326584D01*
X60060000Y-91326584D01*
X60060000Y-91533416D01*
X60100350Y-91736274D01*
X60179502Y-91927362D01*
X60294411Y-92099336D01*
X60440664Y-92245589D01*
X60612638Y-92360498D01*
X60803726Y-92439650D01*
X61006584Y-92480000D01*
X61213416Y-92480000D01*
X61416274Y-92439650D01*
X61607362Y-92360498D01*
X61685720Y-92308141D01*
X65855000Y-92308141D01*
X65855000Y-92391859D01*
X65871333Y-92473968D01*
X65903370Y-92551313D01*
X65949881Y-92620921D01*
X66009079Y-92680119D01*
X66078687Y-92726630D01*
X66156032Y-92758667D01*
X66238141Y-92775000D01*
X66321859Y-92775000D01*
X66403968Y-92758667D01*
X66481313Y-92726630D01*
X66550921Y-92680119D01*
X66610119Y-92620921D01*
X66656630Y-92551313D01*
X66688667Y-92473968D01*
X66705000Y-92391859D01*
X66705000Y-92308141D01*
X66688667Y-92226032D01*
X66656630Y-92148687D01*
X66610119Y-92079079D01*
X66550921Y-92019881D01*
X66481313Y-91973370D01*
X66403968Y-91941333D01*
X66321859Y-91925000D01*
X66238141Y-91925000D01*
X66156032Y-91941333D01*
X66078687Y-91973370D01*
X66009079Y-92019881D01*
X65949881Y-92079079D01*
X65903370Y-92148687D01*
X65871333Y-92226032D01*
X65855000Y-92308141D01*
X61685720Y-92308141D01*
X61779336Y-92245589D01*
X61925589Y-92099336D01*
X62040498Y-91927362D01*
X62119650Y-91736274D01*
X62160000Y-91533416D01*
X62160000Y-91326584D01*
X62119650Y-91123726D01*
X62092484Y-91058141D01*
X66380000Y-91058141D01*
X66380000Y-91141859D01*
X66396333Y-91223968D01*
X66428370Y-91301313D01*
X66474881Y-91370921D01*
X66534079Y-91430119D01*
X66603687Y-91476630D01*
X66681032Y-91508667D01*
X66763141Y-91525000D01*
X66846859Y-91525000D01*
X66928968Y-91508667D01*
X67006313Y-91476630D01*
X67075921Y-91430119D01*
X67135119Y-91370921D01*
X67164744Y-91326584D01*
X75300000Y-91326584D01*
X75300000Y-91533416D01*
X75340350Y-91736274D01*
X75419502Y-91927362D01*
X75534411Y-92099336D01*
X75680664Y-92245589D01*
X75852638Y-92360498D01*
X76043726Y-92439650D01*
X76246584Y-92480000D01*
X76453416Y-92480000D01*
X76656274Y-92439650D01*
X76847362Y-92360498D01*
X77019336Y-92245589D01*
X77165589Y-92099336D01*
X77280498Y-91927362D01*
X77359650Y-91736274D01*
X77400000Y-91533416D01*
X77400000Y-91326584D01*
X77359650Y-91123726D01*
X77280498Y-90932638D01*
X77165589Y-90760664D01*
X77019336Y-90614411D01*
X76847362Y-90499502D01*
X76656274Y-90420350D01*
X76453416Y-90380000D01*
X76246584Y-90380000D01*
X76043726Y-90420350D01*
X75852638Y-90499502D01*
X75680664Y-90614411D01*
X75534411Y-90760664D01*
X75419502Y-90932638D01*
X75340350Y-91123726D01*
X75300000Y-91326584D01*
X67164744Y-91326584D01*
X67181630Y-91301313D01*
X67213667Y-91223968D01*
X67230000Y-91141859D01*
X67230000Y-91058141D01*
X67213667Y-90976032D01*
X67181630Y-90898687D01*
X67135119Y-90829079D01*
X67075921Y-90769881D01*
X67006313Y-90723370D01*
X66928968Y-90691333D01*
X66846859Y-90675000D01*
X66763141Y-90675000D01*
X66681032Y-90691333D01*
X66603687Y-90723370D01*
X66534079Y-90769881D01*
X66474881Y-90829079D01*
X66428370Y-90898687D01*
X66396333Y-90976032D01*
X66380000Y-91058141D01*
X62092484Y-91058141D01*
X62040498Y-90932638D01*
X61925589Y-90760664D01*
X61779336Y-90614411D01*
X61607362Y-90499502D01*
X61416274Y-90420350D01*
X61213416Y-90380000D01*
X61006584Y-90380000D01*
X60803726Y-90420350D01*
X60612638Y-90499502D01*
X60440664Y-90614411D01*
X60294411Y-90760664D01*
X60179502Y-90932638D01*
X60100350Y-91123726D01*
X60060000Y-91326584D01*
X59255000Y-91326584D01*
X59255000Y-88786584D01*
X60060000Y-88786584D01*
X60060000Y-88993416D01*
X60100350Y-89196274D01*
X60179502Y-89387362D01*
X60294411Y-89559336D01*
X60440664Y-89705589D01*
X60612638Y-89820498D01*
X60803726Y-89899650D01*
X61006584Y-89940000D01*
X61213416Y-89940000D01*
X61416274Y-89899650D01*
X61607362Y-89820498D01*
X61779336Y-89705589D01*
X61925589Y-89559336D01*
X62040498Y-89387362D01*
X62119650Y-89196274D01*
X62160000Y-88993416D01*
X62160000Y-88786584D01*
X62134452Y-88658141D01*
X62905000Y-88658141D01*
X62905000Y-88741859D01*
X62921333Y-88823968D01*
X62953370Y-88901313D01*
X62999881Y-88970921D01*
X63053960Y-89025000D01*
X62999881Y-89079079D01*
X62953370Y-89148687D01*
X62921333Y-89226032D01*
X62905000Y-89308141D01*
X62905000Y-89391859D01*
X62921333Y-89473968D01*
X62953370Y-89551313D01*
X62999881Y-89620921D01*
X63059079Y-89680119D01*
X63088833Y-89700000D01*
X63059079Y-89719881D01*
X62999881Y-89779079D01*
X62953370Y-89848687D01*
X62921333Y-89926032D01*
X62905000Y-90008141D01*
X62905000Y-90091859D01*
X62921333Y-90173968D01*
X62953370Y-90251313D01*
X62999881Y-90320921D01*
X63059079Y-90380119D01*
X63128687Y-90426630D01*
X63206032Y-90458667D01*
X63288141Y-90475000D01*
X63371859Y-90475000D01*
X63453968Y-90458667D01*
X63531313Y-90426630D01*
X63600921Y-90380119D01*
X63660119Y-90320921D01*
X63706630Y-90251313D01*
X63738667Y-90173968D01*
X63755000Y-90091859D01*
X63755000Y-90008141D01*
X63738667Y-89926032D01*
X63710546Y-89858141D01*
X66755000Y-89858141D01*
X66755000Y-89941859D01*
X66771333Y-90023968D01*
X66803370Y-90101313D01*
X66849881Y-90170921D01*
X66909079Y-90230119D01*
X66978687Y-90276630D01*
X67056032Y-90308667D01*
X67138141Y-90325000D01*
X67221859Y-90325000D01*
X67303968Y-90308667D01*
X67381313Y-90276630D01*
X67450921Y-90230119D01*
X67510119Y-90170921D01*
X67556630Y-90101313D01*
X67588667Y-90023968D01*
X67605000Y-89941859D01*
X67605000Y-89858141D01*
X67588667Y-89776032D01*
X67556630Y-89698687D01*
X67510119Y-89629079D01*
X67450921Y-89569881D01*
X67381313Y-89523370D01*
X67303968Y-89491333D01*
X67221859Y-89475000D01*
X67138141Y-89475000D01*
X67056032Y-89491333D01*
X66978687Y-89523370D01*
X66909079Y-89569881D01*
X66849881Y-89629079D01*
X66803370Y-89698687D01*
X66771333Y-89776032D01*
X66755000Y-89858141D01*
X63710546Y-89858141D01*
X63706630Y-89848687D01*
X63660119Y-89779079D01*
X63600921Y-89719881D01*
X63571167Y-89700000D01*
X63600921Y-89680119D01*
X63660119Y-89620921D01*
X63706630Y-89551313D01*
X63738667Y-89473968D01*
X63755000Y-89391859D01*
X63755000Y-89308141D01*
X63738667Y-89226032D01*
X63706630Y-89148687D01*
X63660119Y-89079079D01*
X63606040Y-89025000D01*
X63660119Y-88970921D01*
X63706630Y-88901313D01*
X63736264Y-88829769D01*
X63806032Y-88858667D01*
X63888141Y-88875000D01*
X63971859Y-88875000D01*
X64053968Y-88858667D01*
X64131313Y-88826630D01*
X64191245Y-88786584D01*
X75300000Y-88786584D01*
X75300000Y-88993416D01*
X75340350Y-89196274D01*
X75419502Y-89387362D01*
X75534411Y-89559336D01*
X75680664Y-89705589D01*
X75852638Y-89820498D01*
X76043726Y-89899650D01*
X76246584Y-89940000D01*
X76453416Y-89940000D01*
X76656274Y-89899650D01*
X76847362Y-89820498D01*
X77019336Y-89705589D01*
X77165589Y-89559336D01*
X77280498Y-89387362D01*
X77359650Y-89196274D01*
X77400000Y-88993416D01*
X77400000Y-88786584D01*
X77359650Y-88583726D01*
X77280498Y-88392638D01*
X77165589Y-88220664D01*
X77019336Y-88074411D01*
X76847362Y-87959502D01*
X76656274Y-87880350D01*
X76453416Y-87840000D01*
X76246584Y-87840000D01*
X76043726Y-87880350D01*
X75852638Y-87959502D01*
X75680664Y-88074411D01*
X75534411Y-88220664D01*
X75419502Y-88392638D01*
X75340350Y-88583726D01*
X75300000Y-88786584D01*
X64191245Y-88786584D01*
X64200921Y-88780119D01*
X64260119Y-88720921D01*
X64306630Y-88651313D01*
X64338667Y-88573968D01*
X64355000Y-88491859D01*
X64355000Y-88408141D01*
X64338667Y-88326032D01*
X64306630Y-88248687D01*
X64260119Y-88179079D01*
X64206040Y-88125000D01*
X64260119Y-88070921D01*
X64306630Y-88001313D01*
X64338667Y-87923968D01*
X64355000Y-87841859D01*
X64355000Y-87758141D01*
X64338667Y-87676032D01*
X64306630Y-87598687D01*
X64260119Y-87529079D01*
X64206040Y-87475000D01*
X64260119Y-87420921D01*
X64306630Y-87351313D01*
X64336264Y-87279769D01*
X64406032Y-87308667D01*
X64488141Y-87325000D01*
X64571859Y-87325000D01*
X64653968Y-87308667D01*
X64731313Y-87276630D01*
X64800921Y-87230119D01*
X64860119Y-87170921D01*
X64906630Y-87101313D01*
X64938667Y-87023968D01*
X64955000Y-86941859D01*
X64955000Y-86858141D01*
X64938667Y-86776032D01*
X64906630Y-86698687D01*
X64860119Y-86629079D01*
X64806040Y-86575000D01*
X64860119Y-86520921D01*
X64906630Y-86451313D01*
X64938667Y-86373968D01*
X64955000Y-86291859D01*
X64955000Y-86208141D01*
X64938667Y-86126032D01*
X64931257Y-86108141D01*
X73180000Y-86108141D01*
X73180000Y-86191859D01*
X73196333Y-86273968D01*
X73228370Y-86351313D01*
X73274881Y-86420921D01*
X73334079Y-86480119D01*
X73382540Y-86512500D01*
X73334079Y-86544881D01*
X73274881Y-86604079D01*
X73228370Y-86673687D01*
X73196333Y-86751032D01*
X73180000Y-86833141D01*
X73180000Y-86916859D01*
X73196333Y-86998968D01*
X73228370Y-87076313D01*
X73274881Y-87145921D01*
X73334079Y-87205119D01*
X73403687Y-87251630D01*
X73481032Y-87283667D01*
X73563141Y-87300000D01*
X73646859Y-87300000D01*
X73728968Y-87283667D01*
X73806313Y-87251630D01*
X73875921Y-87205119D01*
X73935119Y-87145921D01*
X73981630Y-87076313D01*
X74013667Y-86998968D01*
X74030000Y-86916859D01*
X74030000Y-86833141D01*
X74013667Y-86751032D01*
X73981630Y-86673687D01*
X73935119Y-86604079D01*
X73875921Y-86544881D01*
X73827460Y-86512500D01*
X73875921Y-86480119D01*
X73935119Y-86420921D01*
X73981630Y-86351313D01*
X74013667Y-86273968D01*
X74019114Y-86246584D01*
X75300000Y-86246584D01*
X75300000Y-86453416D01*
X75340350Y-86656274D01*
X75419502Y-86847362D01*
X75534411Y-87019336D01*
X75680664Y-87165589D01*
X75852638Y-87280498D01*
X76043726Y-87359650D01*
X76246584Y-87400000D01*
X76453416Y-87400000D01*
X76656274Y-87359650D01*
X76847362Y-87280498D01*
X77019336Y-87165589D01*
X77165589Y-87019336D01*
X77280498Y-86847362D01*
X77359650Y-86656274D01*
X77400000Y-86453416D01*
X77400000Y-86246584D01*
X77359650Y-86043726D01*
X77280498Y-85852638D01*
X77165589Y-85680664D01*
X77019336Y-85534411D01*
X76847362Y-85419502D01*
X76656274Y-85340350D01*
X76453416Y-85300000D01*
X76246584Y-85300000D01*
X76043726Y-85340350D01*
X75852638Y-85419502D01*
X75680664Y-85534411D01*
X75534411Y-85680664D01*
X75419502Y-85852638D01*
X75340350Y-86043726D01*
X75300000Y-86246584D01*
X74019114Y-86246584D01*
X74030000Y-86191859D01*
X74030000Y-86108141D01*
X74013667Y-86026032D01*
X73981630Y-85948687D01*
X73935119Y-85879079D01*
X73875921Y-85819881D01*
X73806313Y-85773370D01*
X73728968Y-85741333D01*
X73646859Y-85725000D01*
X73563141Y-85725000D01*
X73481032Y-85741333D01*
X73403687Y-85773370D01*
X73334079Y-85819881D01*
X73274881Y-85879079D01*
X73228370Y-85948687D01*
X73196333Y-86026032D01*
X73180000Y-86108141D01*
X64931257Y-86108141D01*
X64906630Y-86048687D01*
X64860119Y-85979079D01*
X64806040Y-85925000D01*
X64860119Y-85870921D01*
X64906630Y-85801313D01*
X64938667Y-85723968D01*
X64955000Y-85641859D01*
X64955000Y-85558141D01*
X64938667Y-85476032D01*
X64906630Y-85398687D01*
X64860119Y-85329079D01*
X64800921Y-85269881D01*
X64731313Y-85223370D01*
X64653968Y-85191333D01*
X64571859Y-85175000D01*
X64488141Y-85175000D01*
X64406032Y-85191333D01*
X64328687Y-85223370D01*
X64259079Y-85269881D01*
X64199881Y-85329079D01*
X64153370Y-85398687D01*
X64121333Y-85476032D01*
X64105000Y-85558141D01*
X64105000Y-85641859D01*
X64121333Y-85723968D01*
X64153370Y-85801313D01*
X64199881Y-85870921D01*
X64253960Y-85925000D01*
X64199881Y-85979079D01*
X64153370Y-86048687D01*
X64121333Y-86126032D01*
X64105000Y-86208141D01*
X64105000Y-86291859D01*
X64121333Y-86373968D01*
X64153370Y-86451313D01*
X64199881Y-86520921D01*
X64253960Y-86575000D01*
X64199881Y-86629079D01*
X64153370Y-86698687D01*
X64123736Y-86770231D01*
X64053968Y-86741333D01*
X63971859Y-86725000D01*
X63888141Y-86725000D01*
X63806032Y-86741333D01*
X63728687Y-86773370D01*
X63659079Y-86819881D01*
X63599881Y-86879079D01*
X63553370Y-86948687D01*
X63521333Y-87026032D01*
X63505000Y-87108141D01*
X63505000Y-87191859D01*
X63521333Y-87273968D01*
X63553370Y-87351313D01*
X63599881Y-87420921D01*
X63653960Y-87475000D01*
X63599881Y-87529079D01*
X63553370Y-87598687D01*
X63521333Y-87676032D01*
X63505000Y-87758141D01*
X63505000Y-87841859D01*
X63521333Y-87923968D01*
X63553370Y-88001313D01*
X63599881Y-88070921D01*
X63653960Y-88125000D01*
X63599881Y-88179079D01*
X63553370Y-88248687D01*
X63523736Y-88320231D01*
X63453968Y-88291333D01*
X63371859Y-88275000D01*
X63288141Y-88275000D01*
X63206032Y-88291333D01*
X63128687Y-88323370D01*
X63059079Y-88369881D01*
X62999881Y-88429079D01*
X62953370Y-88498687D01*
X62921333Y-88576032D01*
X62905000Y-88658141D01*
X62134452Y-88658141D01*
X62119650Y-88583726D01*
X62040498Y-88392638D01*
X61925589Y-88220664D01*
X61779336Y-88074411D01*
X61607362Y-87959502D01*
X61416274Y-87880350D01*
X61213416Y-87840000D01*
X61006584Y-87840000D01*
X60803726Y-87880350D01*
X60612638Y-87959502D01*
X60440664Y-88074411D01*
X60294411Y-88220664D01*
X60179502Y-88392638D01*
X60100350Y-88583726D01*
X60060000Y-88786584D01*
X59255000Y-88786584D01*
X59255000Y-86246584D01*
X60060000Y-86246584D01*
X60060000Y-86453416D01*
X60100350Y-86656274D01*
X60179502Y-86847362D01*
X60294411Y-87019336D01*
X60440664Y-87165589D01*
X60612638Y-87280498D01*
X60803726Y-87359650D01*
X61006584Y-87400000D01*
X61213416Y-87400000D01*
X61416274Y-87359650D01*
X61607362Y-87280498D01*
X61779336Y-87165589D01*
X61925589Y-87019336D01*
X62040498Y-86847362D01*
X62119650Y-86656274D01*
X62160000Y-86453416D01*
X62160000Y-86246584D01*
X62119650Y-86043726D01*
X62040498Y-85852638D01*
X61925589Y-85680664D01*
X61779336Y-85534411D01*
X61607362Y-85419502D01*
X61416274Y-85340350D01*
X61213416Y-85300000D01*
X61006584Y-85300000D01*
X60803726Y-85340350D01*
X60612638Y-85419502D01*
X60440664Y-85534411D01*
X60294411Y-85680664D01*
X60179502Y-85852638D01*
X60100350Y-86043726D01*
X60060000Y-86246584D01*
X59255000Y-86246584D01*
X59255000Y-83706584D01*
X60060000Y-83706584D01*
X60060000Y-83913416D01*
X60100350Y-84116274D01*
X60179502Y-84307362D01*
X60294411Y-84479336D01*
X60440664Y-84625589D01*
X60612638Y-84740498D01*
X60803726Y-84819650D01*
X61006584Y-84860000D01*
X61213416Y-84860000D01*
X61416274Y-84819650D01*
X61607362Y-84740498D01*
X61779336Y-84625589D01*
X61925589Y-84479336D01*
X62040498Y-84307362D01*
X62119650Y-84116274D01*
X62160000Y-83913416D01*
X62160000Y-83706584D01*
X62119650Y-83503726D01*
X62040498Y-83312638D01*
X62004085Y-83258141D01*
X64705000Y-83258141D01*
X64705000Y-83341859D01*
X64721333Y-83423968D01*
X64753370Y-83501313D01*
X64799881Y-83570921D01*
X64859079Y-83630119D01*
X64928687Y-83676630D01*
X65006032Y-83708667D01*
X65088141Y-83725000D01*
X65171859Y-83725000D01*
X65253968Y-83708667D01*
X65331313Y-83676630D01*
X65400921Y-83630119D01*
X65460119Y-83570921D01*
X65506630Y-83501313D01*
X65538667Y-83423968D01*
X65546790Y-83383131D01*
X65955000Y-83383131D01*
X65955000Y-83466849D01*
X65971333Y-83548958D01*
X66003370Y-83626303D01*
X66049881Y-83695911D01*
X66109079Y-83755109D01*
X66178687Y-83801620D01*
X66256032Y-83833657D01*
X66338141Y-83849990D01*
X66421859Y-83849990D01*
X66503968Y-83833657D01*
X66581313Y-83801620D01*
X66650921Y-83755109D01*
X66699446Y-83706584D01*
X75300000Y-83706584D01*
X75300000Y-83913416D01*
X75340350Y-84116274D01*
X75419502Y-84307362D01*
X75534411Y-84479336D01*
X75680664Y-84625589D01*
X75852638Y-84740498D01*
X76043726Y-84819650D01*
X76246584Y-84860000D01*
X76453416Y-84860000D01*
X76656274Y-84819650D01*
X76847362Y-84740498D01*
X77019336Y-84625589D01*
X77165589Y-84479336D01*
X77280498Y-84307362D01*
X77359650Y-84116274D01*
X77400000Y-83913416D01*
X77400000Y-83706584D01*
X77359650Y-83503726D01*
X77280498Y-83312638D01*
X77165589Y-83140664D01*
X77019336Y-82994411D01*
X76847362Y-82879502D01*
X76656274Y-82800350D01*
X76453416Y-82760000D01*
X76246584Y-82760000D01*
X76043726Y-82800350D01*
X75852638Y-82879502D01*
X75680664Y-82994411D01*
X75534411Y-83140664D01*
X75419502Y-83312638D01*
X75340350Y-83503726D01*
X75300000Y-83706584D01*
X66699446Y-83706584D01*
X66710119Y-83695911D01*
X66756630Y-83626303D01*
X66788667Y-83548958D01*
X66805000Y-83466849D01*
X66805000Y-83383131D01*
X66788667Y-83301022D01*
X66756630Y-83223677D01*
X66710119Y-83154069D01*
X66650921Y-83094871D01*
X66581313Y-83048360D01*
X66503968Y-83016323D01*
X66462836Y-83008141D01*
X70955000Y-83008141D01*
X70955000Y-83091859D01*
X70971333Y-83173968D01*
X71003370Y-83251313D01*
X71049881Y-83320921D01*
X71109079Y-83380119D01*
X71178687Y-83426630D01*
X71256032Y-83458667D01*
X71338141Y-83475000D01*
X71421859Y-83475000D01*
X71503968Y-83458667D01*
X71581313Y-83426630D01*
X71650921Y-83380119D01*
X71710119Y-83320921D01*
X71756630Y-83251313D01*
X71788667Y-83173968D01*
X71805000Y-83091859D01*
X71805000Y-83008141D01*
X71788667Y-82926032D01*
X71756630Y-82848687D01*
X71710119Y-82779079D01*
X71650921Y-82719881D01*
X71581313Y-82673370D01*
X71503968Y-82641333D01*
X71421859Y-82625000D01*
X71338141Y-82625000D01*
X71256032Y-82641333D01*
X71178687Y-82673370D01*
X71109079Y-82719881D01*
X71049881Y-82779079D01*
X71003370Y-82848687D01*
X70971333Y-82926032D01*
X70955000Y-83008141D01*
X66462836Y-83008141D01*
X66421859Y-82999990D01*
X66338141Y-82999990D01*
X66256032Y-83016323D01*
X66178687Y-83048360D01*
X66109079Y-83094871D01*
X66049881Y-83154069D01*
X66003370Y-83223677D01*
X65971333Y-83301022D01*
X65955000Y-83383131D01*
X65546790Y-83383131D01*
X65555000Y-83341859D01*
X65555000Y-83258141D01*
X65538667Y-83176032D01*
X65506630Y-83098687D01*
X65460119Y-83029079D01*
X65400921Y-82969881D01*
X65331313Y-82923370D01*
X65253968Y-82891333D01*
X65171859Y-82875000D01*
X65088141Y-82875000D01*
X65006032Y-82891333D01*
X64928687Y-82923370D01*
X64859079Y-82969881D01*
X64799881Y-83029079D01*
X64753370Y-83098687D01*
X64721333Y-83176032D01*
X64705000Y-83258141D01*
X62004085Y-83258141D01*
X61925589Y-83140664D01*
X61779336Y-82994411D01*
X61607362Y-82879502D01*
X61416274Y-82800350D01*
X61213416Y-82760000D01*
X61006584Y-82760000D01*
X60803726Y-82800350D01*
X60612638Y-82879502D01*
X60440664Y-82994411D01*
X60294411Y-83140664D01*
X60179502Y-83312638D01*
X60100350Y-83503726D01*
X60060000Y-83706584D01*
X59255000Y-83706584D01*
X59255000Y-82408141D01*
X72105000Y-82408141D01*
X72105000Y-82491859D01*
X72121333Y-82573968D01*
X72153370Y-82651313D01*
X72199881Y-82720921D01*
X72259079Y-82780119D01*
X72328687Y-82826630D01*
X72406032Y-82858667D01*
X72488141Y-82875000D01*
X72571859Y-82875000D01*
X72653968Y-82858667D01*
X72731313Y-82826630D01*
X72800921Y-82780119D01*
X72860119Y-82720921D01*
X72906630Y-82651313D01*
X72938667Y-82573968D01*
X72955000Y-82491859D01*
X72955000Y-82408141D01*
X72938667Y-82326032D01*
X72906630Y-82248687D01*
X72860119Y-82179079D01*
X72800921Y-82119881D01*
X72731313Y-82073370D01*
X72653968Y-82041333D01*
X72571859Y-82025000D01*
X72488141Y-82025000D01*
X72406032Y-82041333D01*
X72328687Y-82073370D01*
X72259079Y-82119881D01*
X72199881Y-82179079D01*
X72153370Y-82248687D01*
X72121333Y-82326032D01*
X72105000Y-82408141D01*
X59255000Y-82408141D01*
X59255000Y-81166584D01*
X60060000Y-81166584D01*
X60060000Y-81373416D01*
X60100350Y-81576274D01*
X60179502Y-81767362D01*
X60294411Y-81939336D01*
X60440664Y-82085589D01*
X60612638Y-82200498D01*
X60803726Y-82279650D01*
X61006584Y-82320000D01*
X61213416Y-82320000D01*
X61416274Y-82279650D01*
X61607362Y-82200498D01*
X61779336Y-82085589D01*
X61925589Y-81939336D01*
X62040498Y-81767362D01*
X62044317Y-81758141D01*
X64605000Y-81758141D01*
X64605000Y-81841859D01*
X64621333Y-81923968D01*
X64653370Y-82001313D01*
X64699881Y-82070921D01*
X64759079Y-82130119D01*
X64828687Y-82176630D01*
X64906032Y-82208667D01*
X64988141Y-82225000D01*
X65071859Y-82225000D01*
X65153968Y-82208667D01*
X65231313Y-82176630D01*
X65300921Y-82130119D01*
X65360119Y-82070921D01*
X65406630Y-82001313D01*
X65438667Y-81923968D01*
X65455000Y-81841859D01*
X65455000Y-81758141D01*
X65438667Y-81676032D01*
X65406630Y-81598687D01*
X65360119Y-81529079D01*
X65300921Y-81469881D01*
X65231313Y-81423370D01*
X65153968Y-81391333D01*
X65071859Y-81375000D01*
X64988141Y-81375000D01*
X64906032Y-81391333D01*
X64828687Y-81423370D01*
X64759079Y-81469881D01*
X64699881Y-81529079D01*
X64653370Y-81598687D01*
X64621333Y-81676032D01*
X64605000Y-81758141D01*
X62044317Y-81758141D01*
X62119650Y-81576274D01*
X62160000Y-81373416D01*
X62160000Y-81333151D01*
X65855000Y-81333151D01*
X65855000Y-81416869D01*
X65871333Y-81498978D01*
X65903370Y-81576323D01*
X65949881Y-81645931D01*
X65978955Y-81675005D01*
X65974881Y-81679079D01*
X65928370Y-81748687D01*
X65896333Y-81826032D01*
X65880000Y-81908141D01*
X65880000Y-81991859D01*
X65896333Y-82073968D01*
X65928370Y-82151313D01*
X65974881Y-82220921D01*
X66034079Y-82280119D01*
X66103687Y-82326630D01*
X66181032Y-82358667D01*
X66263141Y-82375000D01*
X66346859Y-82375000D01*
X66428968Y-82358667D01*
X66506313Y-82326630D01*
X66575921Y-82280119D01*
X66635119Y-82220921D01*
X66681630Y-82151313D01*
X66713667Y-82073968D01*
X66730000Y-81991859D01*
X66730000Y-81908141D01*
X66713667Y-81826032D01*
X66681630Y-81748687D01*
X66635119Y-81679079D01*
X66606045Y-81650005D01*
X66610119Y-81645931D01*
X66656630Y-81576323D01*
X66688667Y-81498978D01*
X66705000Y-81416869D01*
X66705000Y-81333151D01*
X66688667Y-81251042D01*
X66656630Y-81173697D01*
X66651878Y-81166584D01*
X75300000Y-81166584D01*
X75300000Y-81373416D01*
X75340350Y-81576274D01*
X75419502Y-81767362D01*
X75534411Y-81939336D01*
X75680664Y-82085589D01*
X75852638Y-82200498D01*
X76043726Y-82279650D01*
X76246584Y-82320000D01*
X76453416Y-82320000D01*
X76656274Y-82279650D01*
X76847362Y-82200498D01*
X77019336Y-82085589D01*
X77165589Y-81939336D01*
X77280498Y-81767362D01*
X77359650Y-81576274D01*
X77400000Y-81373416D01*
X77400000Y-81166584D01*
X77359650Y-80963726D01*
X77280498Y-80772638D01*
X77165589Y-80600664D01*
X77019336Y-80454411D01*
X76847362Y-80339502D01*
X76656274Y-80260350D01*
X76453416Y-80220000D01*
X76246584Y-80220000D01*
X76043726Y-80260350D01*
X75852638Y-80339502D01*
X75680664Y-80454411D01*
X75534411Y-80600664D01*
X75419502Y-80772638D01*
X75340350Y-80963726D01*
X75300000Y-81166584D01*
X66651878Y-81166584D01*
X66610119Y-81104089D01*
X66550921Y-81044891D01*
X66481313Y-80998380D01*
X66403968Y-80966343D01*
X66321859Y-80950010D01*
X66238141Y-80950010D01*
X66156032Y-80966343D01*
X66078687Y-80998380D01*
X66009079Y-81044891D01*
X65949881Y-81104089D01*
X65903370Y-81173697D01*
X65871333Y-81251042D01*
X65855000Y-81333151D01*
X62160000Y-81333151D01*
X62160000Y-81166584D01*
X62119650Y-80963726D01*
X62040498Y-80772638D01*
X61925589Y-80600664D01*
X61779336Y-80454411D01*
X61607362Y-80339502D01*
X61416274Y-80260350D01*
X61213416Y-80220000D01*
X61006584Y-80220000D01*
X60803726Y-80260350D01*
X60612638Y-80339502D01*
X60440664Y-80454411D01*
X60294411Y-80600664D01*
X60179502Y-80772638D01*
X60100350Y-80963726D01*
X60060000Y-81166584D01*
X59255000Y-81166584D01*
X59255000Y-78626584D01*
X60060000Y-78626584D01*
X60060000Y-78833416D01*
X60100350Y-79036274D01*
X60179502Y-79227362D01*
X60294411Y-79399336D01*
X60440664Y-79545589D01*
X60612638Y-79660498D01*
X60803726Y-79739650D01*
X61006584Y-79780000D01*
X61213416Y-79780000D01*
X61416274Y-79739650D01*
X61607362Y-79660498D01*
X61779336Y-79545589D01*
X61925589Y-79399336D01*
X61969818Y-79333141D01*
X70830000Y-79333141D01*
X70830000Y-79416859D01*
X70846333Y-79498968D01*
X70878370Y-79576313D01*
X70924881Y-79645921D01*
X70984079Y-79705119D01*
X71053687Y-79751630D01*
X71131032Y-79783667D01*
X71213141Y-79800000D01*
X71296859Y-79800000D01*
X71378968Y-79783667D01*
X71456313Y-79751630D01*
X71525921Y-79705119D01*
X71585119Y-79645921D01*
X71631630Y-79576313D01*
X71663667Y-79498968D01*
X71680000Y-79416859D01*
X71680000Y-79333141D01*
X71663667Y-79251032D01*
X71631630Y-79173687D01*
X71585119Y-79104079D01*
X71525921Y-79044881D01*
X71456313Y-78998370D01*
X71378968Y-78966333D01*
X71296859Y-78950000D01*
X71213141Y-78950000D01*
X71131032Y-78966333D01*
X71053687Y-78998370D01*
X70984079Y-79044881D01*
X70924881Y-79104079D01*
X70878370Y-79173687D01*
X70846333Y-79251032D01*
X70830000Y-79333141D01*
X61969818Y-79333141D01*
X62040498Y-79227362D01*
X62119650Y-79036274D01*
X62160000Y-78833416D01*
X62160000Y-78683141D01*
X71505000Y-78683141D01*
X71505000Y-78766859D01*
X71521333Y-78848968D01*
X71553370Y-78926313D01*
X71599881Y-78995921D01*
X71659079Y-79055119D01*
X71728687Y-79101630D01*
X71806032Y-79133667D01*
X71888141Y-79150000D01*
X71971859Y-79150000D01*
X72053968Y-79133667D01*
X72131313Y-79101630D01*
X72200921Y-79055119D01*
X72260119Y-78995921D01*
X72306630Y-78926313D01*
X72338667Y-78848968D01*
X72355000Y-78766859D01*
X72355000Y-78683141D01*
X72343750Y-78626584D01*
X75300000Y-78626584D01*
X75300000Y-78833416D01*
X75340350Y-79036274D01*
X75419502Y-79227362D01*
X75534411Y-79399336D01*
X75680664Y-79545589D01*
X75852638Y-79660498D01*
X76043726Y-79739650D01*
X76246584Y-79780000D01*
X76453416Y-79780000D01*
X76656274Y-79739650D01*
X76847362Y-79660498D01*
X77019336Y-79545589D01*
X77165589Y-79399336D01*
X77280498Y-79227362D01*
X77359650Y-79036274D01*
X77400000Y-78833416D01*
X77400000Y-78626584D01*
X77359650Y-78423726D01*
X77280498Y-78232638D01*
X77165589Y-78060664D01*
X77019336Y-77914411D01*
X76847362Y-77799502D01*
X76656274Y-77720350D01*
X76453416Y-77680000D01*
X76246584Y-77680000D01*
X76043726Y-77720350D01*
X75852638Y-77799502D01*
X75680664Y-77914411D01*
X75534411Y-78060664D01*
X75419502Y-78232638D01*
X75340350Y-78423726D01*
X75300000Y-78626584D01*
X72343750Y-78626584D01*
X72338667Y-78601032D01*
X72306630Y-78523687D01*
X72260119Y-78454079D01*
X72200921Y-78394881D01*
X72131313Y-78348370D01*
X72053968Y-78316333D01*
X71971859Y-78300000D01*
X71888141Y-78300000D01*
X71806032Y-78316333D01*
X71728687Y-78348370D01*
X71659079Y-78394881D01*
X71599881Y-78454079D01*
X71553370Y-78523687D01*
X71521333Y-78601032D01*
X71505000Y-78683141D01*
X62160000Y-78683141D01*
X62160000Y-78626584D01*
X62119650Y-78423726D01*
X62040498Y-78232638D01*
X61925589Y-78060664D01*
X61779336Y-77914411D01*
X61695122Y-77858141D01*
X66105000Y-77858141D01*
X66105000Y-77941859D01*
X66121333Y-78023968D01*
X66153370Y-78101313D01*
X66199881Y-78170921D01*
X66259079Y-78230119D01*
X66328687Y-78276630D01*
X66406032Y-78308667D01*
X66488141Y-78325000D01*
X66571859Y-78325000D01*
X66653968Y-78308667D01*
X66731313Y-78276630D01*
X66800921Y-78230119D01*
X66860119Y-78170921D01*
X66906630Y-78101313D01*
X66938667Y-78023968D01*
X66955000Y-77941859D01*
X66955000Y-77858141D01*
X66938667Y-77776032D01*
X66906630Y-77698687D01*
X66860119Y-77629079D01*
X66800921Y-77569881D01*
X66731313Y-77523370D01*
X66653968Y-77491333D01*
X66571859Y-77475000D01*
X66488141Y-77475000D01*
X66406032Y-77491333D01*
X66328687Y-77523370D01*
X66259079Y-77569881D01*
X66199881Y-77629079D01*
X66153370Y-77698687D01*
X66121333Y-77776032D01*
X66105000Y-77858141D01*
X61695122Y-77858141D01*
X61607362Y-77799502D01*
X61416274Y-77720350D01*
X61213416Y-77680000D01*
X61006584Y-77680000D01*
X60803726Y-77720350D01*
X60612638Y-77799502D01*
X60440664Y-77914411D01*
X60294411Y-78060664D01*
X60179502Y-78232638D01*
X60100350Y-78423726D01*
X60060000Y-78626584D01*
X59255000Y-78626584D01*
X59255000Y-76086584D01*
X60060000Y-76086584D01*
X60060000Y-76293416D01*
X60100350Y-76496274D01*
X60179502Y-76687362D01*
X60294411Y-76859336D01*
X60440664Y-77005589D01*
X60612638Y-77120498D01*
X60803726Y-77199650D01*
X61006584Y-77240000D01*
X61213416Y-77240000D01*
X61416274Y-77199650D01*
X61607362Y-77120498D01*
X61779336Y-77005589D01*
X61876784Y-76908141D01*
X64805000Y-76908141D01*
X64805000Y-76991859D01*
X64821333Y-77073968D01*
X64853370Y-77151313D01*
X64899881Y-77220921D01*
X64959079Y-77280119D01*
X65028687Y-77326630D01*
X65106032Y-77358667D01*
X65188141Y-77375000D01*
X65271859Y-77375000D01*
X65353968Y-77358667D01*
X65431313Y-77326630D01*
X65500921Y-77280119D01*
X65560119Y-77220921D01*
X65606630Y-77151313D01*
X65638667Y-77073968D01*
X65655000Y-76991859D01*
X65655000Y-76908141D01*
X65638667Y-76826032D01*
X65606630Y-76748687D01*
X65596243Y-76733141D01*
X69555000Y-76733141D01*
X69555000Y-76816859D01*
X69571333Y-76898968D01*
X69603370Y-76976313D01*
X69649881Y-77045921D01*
X69709079Y-77105119D01*
X69778687Y-77151630D01*
X69856032Y-77183667D01*
X69938141Y-77200000D01*
X70021859Y-77200000D01*
X70103968Y-77183667D01*
X70181313Y-77151630D01*
X70250921Y-77105119D01*
X70310119Y-77045921D01*
X70356630Y-76976313D01*
X70374512Y-76933141D01*
X72904998Y-76933141D01*
X72904998Y-77016859D01*
X72921331Y-77098968D01*
X72953368Y-77176313D01*
X72999879Y-77245921D01*
X73059077Y-77305119D01*
X73128685Y-77351630D01*
X73206030Y-77383667D01*
X73288139Y-77400000D01*
X73371857Y-77400000D01*
X73453966Y-77383667D01*
X73531311Y-77351630D01*
X73600919Y-77305119D01*
X73660117Y-77245921D01*
X73706628Y-77176313D01*
X73738665Y-77098968D01*
X73754998Y-77016859D01*
X73754998Y-76933141D01*
X73738665Y-76851032D01*
X73706628Y-76773687D01*
X73660117Y-76704079D01*
X73600919Y-76644881D01*
X73531311Y-76598370D01*
X73453966Y-76566333D01*
X73371857Y-76550000D01*
X73288139Y-76550000D01*
X73206030Y-76566333D01*
X73128685Y-76598370D01*
X73059077Y-76644881D01*
X72999879Y-76704079D01*
X72953368Y-76773687D01*
X72921331Y-76851032D01*
X72904998Y-76933141D01*
X70374512Y-76933141D01*
X70388667Y-76898968D01*
X70405000Y-76816859D01*
X70405000Y-76733141D01*
X70388667Y-76651032D01*
X70356630Y-76573687D01*
X70310119Y-76504079D01*
X70250921Y-76444881D01*
X70181313Y-76398370D01*
X70103968Y-76366333D01*
X70021859Y-76350000D01*
X69938141Y-76350000D01*
X69856032Y-76366333D01*
X69778687Y-76398370D01*
X69709079Y-76444881D01*
X69649881Y-76504079D01*
X69603370Y-76573687D01*
X69571333Y-76651032D01*
X69555000Y-76733141D01*
X65596243Y-76733141D01*
X65560119Y-76679079D01*
X65500921Y-76619881D01*
X65431313Y-76573370D01*
X65353968Y-76541333D01*
X65271859Y-76525000D01*
X65188141Y-76525000D01*
X65106032Y-76541333D01*
X65028687Y-76573370D01*
X64959079Y-76619881D01*
X64899881Y-76679079D01*
X64853370Y-76748687D01*
X64821333Y-76826032D01*
X64805000Y-76908141D01*
X61876784Y-76908141D01*
X61925589Y-76859336D01*
X62040498Y-76687362D01*
X62119650Y-76496274D01*
X62160000Y-76293416D01*
X62160000Y-76086584D01*
X62119650Y-75883726D01*
X62040498Y-75692638D01*
X61984040Y-75608141D01*
X65205000Y-75608141D01*
X65205000Y-75691859D01*
X65221333Y-75773968D01*
X65253370Y-75851313D01*
X65299881Y-75920921D01*
X65359079Y-75980119D01*
X65428687Y-76026630D01*
X65506032Y-76058667D01*
X65588141Y-76075000D01*
X65671859Y-76075000D01*
X65753968Y-76058667D01*
X65831313Y-76026630D01*
X65900921Y-75980119D01*
X65960119Y-75920921D01*
X66006630Y-75851313D01*
X66024512Y-75808141D01*
X66855000Y-75808141D01*
X66855000Y-75891859D01*
X66871333Y-75973968D01*
X66903370Y-76051313D01*
X66949881Y-76120921D01*
X67009079Y-76180119D01*
X67078687Y-76226630D01*
X67156032Y-76258667D01*
X67238141Y-76275000D01*
X67321859Y-76275000D01*
X67403968Y-76258667D01*
X67481313Y-76226630D01*
X67550921Y-76180119D01*
X67610119Y-76120921D01*
X67656630Y-76051313D01*
X67688667Y-75973968D01*
X67695183Y-75941213D01*
X67734089Y-75980119D01*
X67803697Y-76026630D01*
X67881042Y-76058667D01*
X67963151Y-76075000D01*
X68046869Y-76075000D01*
X68128978Y-76058667D01*
X68206323Y-76026630D01*
X68275931Y-75980119D01*
X68322909Y-75933141D01*
X73030000Y-75933141D01*
X73030000Y-76016859D01*
X73046333Y-76098968D01*
X73078370Y-76176313D01*
X73124881Y-76245921D01*
X73184079Y-76305119D01*
X73253687Y-76351630D01*
X73331032Y-76383667D01*
X73413141Y-76400000D01*
X73496859Y-76400000D01*
X73578968Y-76383667D01*
X73656313Y-76351630D01*
X73725921Y-76305119D01*
X73785119Y-76245921D01*
X73831630Y-76176313D01*
X73863667Y-76098968D01*
X73866130Y-76086584D01*
X75300000Y-76086584D01*
X75300000Y-76293416D01*
X75340350Y-76496274D01*
X75419502Y-76687362D01*
X75534411Y-76859336D01*
X75680664Y-77005589D01*
X75852638Y-77120498D01*
X76043726Y-77199650D01*
X76246584Y-77240000D01*
X76453416Y-77240000D01*
X76656274Y-77199650D01*
X76847362Y-77120498D01*
X77019336Y-77005589D01*
X77165589Y-76859336D01*
X77280498Y-76687362D01*
X77359650Y-76496274D01*
X77400000Y-76293416D01*
X77400000Y-76086584D01*
X77359650Y-75883726D01*
X77280498Y-75692638D01*
X77165589Y-75520664D01*
X77019336Y-75374411D01*
X76847362Y-75259502D01*
X76656274Y-75180350D01*
X76453416Y-75140000D01*
X76246584Y-75140000D01*
X76043726Y-75180350D01*
X75852638Y-75259502D01*
X75680664Y-75374411D01*
X75534411Y-75520664D01*
X75419502Y-75692638D01*
X75340350Y-75883726D01*
X75300000Y-76086584D01*
X73866130Y-76086584D01*
X73880000Y-76016859D01*
X73880000Y-75933141D01*
X73863667Y-75851032D01*
X73831630Y-75773687D01*
X73785119Y-75704079D01*
X73725921Y-75644881D01*
X73656313Y-75598370D01*
X73578968Y-75566333D01*
X73496859Y-75550000D01*
X73413141Y-75550000D01*
X73331032Y-75566333D01*
X73253687Y-75598370D01*
X73184079Y-75644881D01*
X73124881Y-75704079D01*
X73078370Y-75773687D01*
X73046333Y-75851032D01*
X73030000Y-75933141D01*
X68322909Y-75933141D01*
X68335129Y-75920921D01*
X68381640Y-75851313D01*
X68413677Y-75773968D01*
X68430010Y-75691859D01*
X68430010Y-75641182D01*
X68449881Y-75670921D01*
X68509079Y-75730119D01*
X68578687Y-75776630D01*
X68656032Y-75808667D01*
X68738141Y-75825000D01*
X68821859Y-75825000D01*
X68903968Y-75808667D01*
X68981313Y-75776630D01*
X69050921Y-75730119D01*
X69110119Y-75670921D01*
X69156630Y-75601313D01*
X69188667Y-75523968D01*
X69205000Y-75441859D01*
X69205000Y-75408141D01*
X70330000Y-75408141D01*
X70330000Y-75491859D01*
X70346333Y-75573968D01*
X70378370Y-75651313D01*
X70424881Y-75720921D01*
X70484079Y-75780119D01*
X70553687Y-75826630D01*
X70631032Y-75858667D01*
X70713141Y-75875000D01*
X70796859Y-75875000D01*
X70878968Y-75858667D01*
X70956313Y-75826630D01*
X71025921Y-75780119D01*
X71085119Y-75720921D01*
X71131630Y-75651313D01*
X71163667Y-75573968D01*
X71180000Y-75491859D01*
X71180000Y-75408141D01*
X71163667Y-75326032D01*
X71131630Y-75248687D01*
X71085119Y-75179079D01*
X71025921Y-75119881D01*
X70956313Y-75073370D01*
X70878968Y-75041333D01*
X70796859Y-75025000D01*
X70713141Y-75025000D01*
X70631032Y-75041333D01*
X70553687Y-75073370D01*
X70484079Y-75119881D01*
X70424881Y-75179079D01*
X70378370Y-75248687D01*
X70346333Y-75326032D01*
X70330000Y-75408141D01*
X69205000Y-75408141D01*
X69205000Y-75358141D01*
X69188667Y-75276032D01*
X69156630Y-75198687D01*
X69110119Y-75129079D01*
X69050921Y-75069881D01*
X68981313Y-75023370D01*
X68903968Y-74991333D01*
X68821859Y-74975000D01*
X68738141Y-74975000D01*
X68656032Y-74991333D01*
X68578687Y-75023370D01*
X68509079Y-75069881D01*
X68449881Y-75129079D01*
X68403370Y-75198687D01*
X68371333Y-75276032D01*
X68355000Y-75358141D01*
X68355000Y-75408818D01*
X68335129Y-75379079D01*
X68275931Y-75319881D01*
X68206323Y-75273370D01*
X68128978Y-75241333D01*
X68046869Y-75225000D01*
X67963151Y-75225000D01*
X67881042Y-75241333D01*
X67803697Y-75273370D01*
X67734089Y-75319881D01*
X67674891Y-75379079D01*
X67628380Y-75448687D01*
X67596343Y-75526032D01*
X67589827Y-75558787D01*
X67550921Y-75519881D01*
X67481313Y-75473370D01*
X67403968Y-75441333D01*
X67321859Y-75425000D01*
X67238141Y-75425000D01*
X67156032Y-75441333D01*
X67078687Y-75473370D01*
X67009079Y-75519881D01*
X66949881Y-75579079D01*
X66903370Y-75648687D01*
X66871333Y-75726032D01*
X66855000Y-75808141D01*
X66024512Y-75808141D01*
X66038667Y-75773968D01*
X66055000Y-75691859D01*
X66055000Y-75608141D01*
X66038667Y-75526032D01*
X66006630Y-75448687D01*
X65960119Y-75379079D01*
X65900921Y-75319881D01*
X65831313Y-75273370D01*
X65753968Y-75241333D01*
X65671859Y-75225000D01*
X65588141Y-75225000D01*
X65506032Y-75241333D01*
X65428687Y-75273370D01*
X65359079Y-75319881D01*
X65299881Y-75379079D01*
X65253370Y-75448687D01*
X65221333Y-75526032D01*
X65205000Y-75608141D01*
X61984040Y-75608141D01*
X61925589Y-75520664D01*
X61779336Y-75374411D01*
X61607362Y-75259502D01*
X61416274Y-75180350D01*
X61213416Y-75140000D01*
X61006584Y-75140000D01*
X60803726Y-75180350D01*
X60612638Y-75259502D01*
X60440664Y-75374411D01*
X60294411Y-75520664D01*
X60179502Y-75692638D01*
X60100350Y-75883726D01*
X60060000Y-76086584D01*
X59255000Y-76086584D01*
X59255000Y-73546584D01*
X60060000Y-73546584D01*
X60060000Y-73753416D01*
X60100350Y-73956274D01*
X60179502Y-74147362D01*
X60294411Y-74319336D01*
X60440664Y-74465589D01*
X60612638Y-74580498D01*
X60803726Y-74659650D01*
X61006584Y-74700000D01*
X61213416Y-74700000D01*
X61416274Y-74659650D01*
X61607362Y-74580498D01*
X61715652Y-74508141D01*
X70705000Y-74508141D01*
X70705000Y-74591859D01*
X70721333Y-74673968D01*
X70753370Y-74751313D01*
X70799881Y-74820921D01*
X70859079Y-74880119D01*
X70928687Y-74926630D01*
X71006032Y-74958667D01*
X71088141Y-74975000D01*
X71171859Y-74975000D01*
X71253968Y-74958667D01*
X71331313Y-74926630D01*
X71400921Y-74880119D01*
X71460119Y-74820921D01*
X71506630Y-74751313D01*
X71538667Y-74673968D01*
X71555000Y-74591859D01*
X71555000Y-74508141D01*
X71538667Y-74426032D01*
X71506630Y-74348687D01*
X71460119Y-74279079D01*
X71400921Y-74219881D01*
X71331313Y-74173370D01*
X71253968Y-74141333D01*
X71171859Y-74125000D01*
X71088141Y-74125000D01*
X71006032Y-74141333D01*
X70928687Y-74173370D01*
X70859079Y-74219881D01*
X70799881Y-74279079D01*
X70753370Y-74348687D01*
X70721333Y-74426032D01*
X70705000Y-74508141D01*
X61715652Y-74508141D01*
X61779336Y-74465589D01*
X61925589Y-74319336D01*
X62040498Y-74147362D01*
X62119650Y-73956274D01*
X62160000Y-73753416D01*
X62160000Y-73608141D01*
X70705000Y-73608141D01*
X70705000Y-73691859D01*
X70721333Y-73773968D01*
X70753370Y-73851313D01*
X70799881Y-73920921D01*
X70859079Y-73980119D01*
X70928687Y-74026630D01*
X71006032Y-74058667D01*
X71088141Y-74075000D01*
X71171859Y-74075000D01*
X71253968Y-74058667D01*
X71331313Y-74026630D01*
X71400921Y-73980119D01*
X71460119Y-73920921D01*
X71506630Y-73851313D01*
X71538667Y-73773968D01*
X71555000Y-73691859D01*
X71555000Y-73608141D01*
X71542756Y-73546584D01*
X75300000Y-73546584D01*
X75300000Y-73753416D01*
X75340350Y-73956274D01*
X75419502Y-74147362D01*
X75534411Y-74319336D01*
X75680664Y-74465589D01*
X75852638Y-74580498D01*
X76043726Y-74659650D01*
X76246584Y-74700000D01*
X76453416Y-74700000D01*
X76656274Y-74659650D01*
X76847362Y-74580498D01*
X77019336Y-74465589D01*
X77165589Y-74319336D01*
X77280498Y-74147362D01*
X77359650Y-73956274D01*
X77400000Y-73753416D01*
X77400000Y-73546584D01*
X77359650Y-73343726D01*
X77280498Y-73152638D01*
X77165589Y-72980664D01*
X77019336Y-72834411D01*
X76847362Y-72719502D01*
X76656274Y-72640350D01*
X76453416Y-72600000D01*
X76246584Y-72600000D01*
X76043726Y-72640350D01*
X75852638Y-72719502D01*
X75680664Y-72834411D01*
X75534411Y-72980664D01*
X75419502Y-73152638D01*
X75340350Y-73343726D01*
X75300000Y-73546584D01*
X71542756Y-73546584D01*
X71538667Y-73526032D01*
X71506630Y-73448687D01*
X71460119Y-73379079D01*
X71400921Y-73319881D01*
X71331313Y-73273370D01*
X71253968Y-73241333D01*
X71171859Y-73225000D01*
X71088141Y-73225000D01*
X71006032Y-73241333D01*
X70928687Y-73273370D01*
X70859079Y-73319881D01*
X70799881Y-73379079D01*
X70753370Y-73448687D01*
X70721333Y-73526032D01*
X70705000Y-73608141D01*
X62160000Y-73608141D01*
X62160000Y-73546584D01*
X62119650Y-73343726D01*
X62040498Y-73152638D01*
X61925589Y-72980664D01*
X61779336Y-72834411D01*
X61607362Y-72719502D01*
X61416274Y-72640350D01*
X61213416Y-72600000D01*
X61006584Y-72600000D01*
X60803726Y-72640350D01*
X60612638Y-72719502D01*
X60440664Y-72834411D01*
X60294411Y-72980664D01*
X60179502Y-73152638D01*
X60100350Y-73343726D01*
X60060000Y-73546584D01*
X59255000Y-73546584D01*
X59255000Y-71006584D01*
X60060000Y-71006584D01*
X60060000Y-71213416D01*
X60100350Y-71416274D01*
X60179502Y-71607362D01*
X60294411Y-71779336D01*
X60440664Y-71925589D01*
X60612638Y-72040498D01*
X60803726Y-72119650D01*
X61006584Y-72160000D01*
X61213416Y-72160000D01*
X61416274Y-72119650D01*
X61607362Y-72040498D01*
X61779336Y-71925589D01*
X61925589Y-71779336D01*
X62040498Y-71607362D01*
X62119650Y-71416274D01*
X62160000Y-71213416D01*
X62160000Y-71006584D01*
X75300000Y-71006584D01*
X75300000Y-71213416D01*
X75340350Y-71416274D01*
X75419502Y-71607362D01*
X75534411Y-71779336D01*
X75680664Y-71925589D01*
X75852638Y-72040498D01*
X76043726Y-72119650D01*
X76246584Y-72160000D01*
X76453416Y-72160000D01*
X76656274Y-72119650D01*
X76847362Y-72040498D01*
X77019336Y-71925589D01*
X77165589Y-71779336D01*
X77280498Y-71607362D01*
X77359650Y-71416274D01*
X77400000Y-71213416D01*
X77400000Y-71006584D01*
X77359650Y-70803726D01*
X77280498Y-70612638D01*
X77165589Y-70440664D01*
X77019336Y-70294411D01*
X76847362Y-70179502D01*
X76656274Y-70100350D01*
X76453416Y-70060000D01*
X76246584Y-70060000D01*
X76043726Y-70100350D01*
X75852638Y-70179502D01*
X75680664Y-70294411D01*
X75534411Y-70440664D01*
X75419502Y-70612638D01*
X75340350Y-70803726D01*
X75300000Y-71006584D01*
X62160000Y-71006584D01*
X62119650Y-70803726D01*
X62040498Y-70612638D01*
X61925589Y-70440664D01*
X61779336Y-70294411D01*
X61607362Y-70179502D01*
X61416274Y-70100350D01*
X61213416Y-70060000D01*
X61006584Y-70060000D01*
X60803726Y-70100350D01*
X60612638Y-70179502D01*
X60440664Y-70294411D01*
X60294411Y-70440664D01*
X60179502Y-70612638D01*
X60100350Y-70803726D01*
X60060000Y-71006584D01*
X59255000Y-71006584D01*
X59255000Y-68466584D01*
X60060000Y-68466584D01*
X60060000Y-68673416D01*
X60100350Y-68876274D01*
X60179502Y-69067362D01*
X60294411Y-69239336D01*
X60440664Y-69385589D01*
X60612638Y-69500498D01*
X60803726Y-69579650D01*
X61006584Y-69620000D01*
X61213416Y-69620000D01*
X61416274Y-69579650D01*
X61607362Y-69500498D01*
X61779336Y-69385589D01*
X61925589Y-69239336D01*
X62040498Y-69067362D01*
X62119650Y-68876274D01*
X62160000Y-68673416D01*
X62160000Y-68466584D01*
X75300000Y-68466584D01*
X75300000Y-68673416D01*
X75340350Y-68876274D01*
X75419502Y-69067362D01*
X75534411Y-69239336D01*
X75680664Y-69385589D01*
X75852638Y-69500498D01*
X76043726Y-69579650D01*
X76246584Y-69620000D01*
X76453416Y-69620000D01*
X76656274Y-69579650D01*
X76847362Y-69500498D01*
X77019336Y-69385589D01*
X77165589Y-69239336D01*
X77280498Y-69067362D01*
X77359650Y-68876274D01*
X77400000Y-68673416D01*
X77400000Y-68466584D01*
X77359650Y-68263726D01*
X77280498Y-68072638D01*
X77165589Y-67900664D01*
X77019336Y-67754411D01*
X76847362Y-67639502D01*
X76656274Y-67560350D01*
X76453416Y-67520000D01*
X76246584Y-67520000D01*
X76043726Y-67560350D01*
X75852638Y-67639502D01*
X75680664Y-67754411D01*
X75534411Y-67900664D01*
X75419502Y-68072638D01*
X75340350Y-68263726D01*
X75300000Y-68466584D01*
X62160000Y-68466584D01*
X62119650Y-68263726D01*
X62040498Y-68072638D01*
X61925589Y-67900664D01*
X61779336Y-67754411D01*
X61635258Y-67658141D01*
X73355000Y-67658141D01*
X73355000Y-67741859D01*
X73371333Y-67823968D01*
X73403370Y-67901313D01*
X73449881Y-67970921D01*
X73509079Y-68030119D01*
X73578687Y-68076630D01*
X73656032Y-68108667D01*
X73738141Y-68125000D01*
X73821859Y-68125000D01*
X73903968Y-68108667D01*
X73981313Y-68076630D01*
X74050921Y-68030119D01*
X74110119Y-67970921D01*
X74156630Y-67901313D01*
X74188667Y-67823968D01*
X74205000Y-67741859D01*
X74205000Y-67658141D01*
X74188667Y-67576032D01*
X74163650Y-67515636D01*
X74206630Y-67451313D01*
X74238667Y-67373968D01*
X74255000Y-67291859D01*
X74255000Y-67208141D01*
X74238667Y-67126032D01*
X74206630Y-67048687D01*
X74160119Y-66979079D01*
X74100921Y-66919881D01*
X74031313Y-66873370D01*
X73953968Y-66841333D01*
X73871859Y-66825000D01*
X73788141Y-66825000D01*
X73706032Y-66841333D01*
X73628687Y-66873370D01*
X73559079Y-66919881D01*
X73499881Y-66979079D01*
X73453370Y-67048687D01*
X73421333Y-67126032D01*
X73405000Y-67208141D01*
X73405000Y-67291859D01*
X73421333Y-67373968D01*
X73446350Y-67434364D01*
X73403370Y-67498687D01*
X73371333Y-67576032D01*
X73355000Y-67658141D01*
X61635258Y-67658141D01*
X61607362Y-67639502D01*
X61416274Y-67560350D01*
X61213416Y-67520000D01*
X61006584Y-67520000D01*
X60803726Y-67560350D01*
X60612638Y-67639502D01*
X60440664Y-67754411D01*
X60294411Y-67900664D01*
X60179502Y-68072638D01*
X60100350Y-68263726D01*
X60060000Y-68466584D01*
X59255000Y-68466584D01*
X59255000Y-65926584D01*
X60060000Y-65926584D01*
X60060000Y-66133416D01*
X60100350Y-66336274D01*
X60179502Y-66527362D01*
X60294411Y-66699336D01*
X60440664Y-66845589D01*
X60612638Y-66960498D01*
X60803726Y-67039650D01*
X61006584Y-67080000D01*
X61213416Y-67080000D01*
X61416274Y-67039650D01*
X61607362Y-66960498D01*
X61779336Y-66845589D01*
X61916784Y-66708141D01*
X64505000Y-66708141D01*
X64505000Y-66791859D01*
X64521333Y-66873968D01*
X64553370Y-66951313D01*
X64599881Y-67020921D01*
X64659079Y-67080119D01*
X64728687Y-67126630D01*
X64806032Y-67158667D01*
X64888141Y-67175000D01*
X64971859Y-67175000D01*
X65053968Y-67158667D01*
X65131313Y-67126630D01*
X65200921Y-67080119D01*
X65260119Y-67020921D01*
X65306630Y-66951313D01*
X65322904Y-66912023D01*
X65388141Y-66925000D01*
X65471859Y-66925000D01*
X65553968Y-66908667D01*
X65631313Y-66876630D01*
X65700921Y-66830119D01*
X65760119Y-66770921D01*
X65806630Y-66701313D01*
X65838667Y-66623968D01*
X65855000Y-66541859D01*
X65855000Y-66458141D01*
X65838667Y-66376032D01*
X65806630Y-66298687D01*
X65760119Y-66229079D01*
X65700921Y-66169881D01*
X65631313Y-66123370D01*
X65553968Y-66091333D01*
X65471859Y-66075000D01*
X65388141Y-66075000D01*
X65306032Y-66091333D01*
X65228687Y-66123370D01*
X65159079Y-66169881D01*
X65099881Y-66229079D01*
X65053370Y-66298687D01*
X65037096Y-66337977D01*
X64971859Y-66325000D01*
X64888141Y-66325000D01*
X64806032Y-66341333D01*
X64728687Y-66373370D01*
X64659079Y-66419881D01*
X64599881Y-66479079D01*
X64553370Y-66548687D01*
X64521333Y-66626032D01*
X64505000Y-66708141D01*
X61916784Y-66708141D01*
X61925589Y-66699336D01*
X62040498Y-66527362D01*
X62119650Y-66336274D01*
X62160000Y-66133416D01*
X62160000Y-65926584D01*
X75300000Y-65926584D01*
X75300000Y-66133416D01*
X75340350Y-66336274D01*
X75419502Y-66527362D01*
X75534411Y-66699336D01*
X75680664Y-66845589D01*
X75852638Y-66960498D01*
X76043726Y-67039650D01*
X76246584Y-67080000D01*
X76453416Y-67080000D01*
X76656274Y-67039650D01*
X76847362Y-66960498D01*
X77019336Y-66845589D01*
X77165589Y-66699336D01*
X77280498Y-66527362D01*
X77359650Y-66336274D01*
X77400000Y-66133416D01*
X77400000Y-65926584D01*
X77359650Y-65723726D01*
X77280498Y-65532638D01*
X77165589Y-65360664D01*
X77019336Y-65214411D01*
X76847362Y-65099502D01*
X76656274Y-65020350D01*
X76453416Y-64980000D01*
X76246584Y-64980000D01*
X76043726Y-65020350D01*
X75852638Y-65099502D01*
X75680664Y-65214411D01*
X75534411Y-65360664D01*
X75419502Y-65532638D01*
X75340350Y-65723726D01*
X75300000Y-65926584D01*
X62160000Y-65926584D01*
X62119650Y-65723726D01*
X62040498Y-65532638D01*
X61957313Y-65408141D01*
X69955000Y-65408141D01*
X69955000Y-65491859D01*
X69971333Y-65573968D01*
X70003370Y-65651313D01*
X70049881Y-65720921D01*
X70109079Y-65780119D01*
X70178687Y-65826630D01*
X70256032Y-65858667D01*
X70338141Y-65875000D01*
X70421859Y-65875000D01*
X70503968Y-65858667D01*
X70581313Y-65826630D01*
X70650921Y-65780119D01*
X70710119Y-65720921D01*
X70756630Y-65651313D01*
X70788667Y-65573968D01*
X70805000Y-65491859D01*
X70805000Y-65408141D01*
X70788667Y-65326032D01*
X70756630Y-65248687D01*
X70710119Y-65179079D01*
X70650921Y-65119881D01*
X70581313Y-65073370D01*
X70503968Y-65041333D01*
X70421859Y-65025000D01*
X70338141Y-65025000D01*
X70256032Y-65041333D01*
X70178687Y-65073370D01*
X70109079Y-65119881D01*
X70049881Y-65179079D01*
X70003370Y-65248687D01*
X69971333Y-65326032D01*
X69955000Y-65408141D01*
X61957313Y-65408141D01*
X61925589Y-65360664D01*
X61779336Y-65214411D01*
X61607362Y-65099502D01*
X61416274Y-65020350D01*
X61213416Y-64980000D01*
X61006584Y-64980000D01*
X60803726Y-65020350D01*
X60612638Y-65099502D01*
X60440664Y-65214411D01*
X60294411Y-65360664D01*
X60179502Y-65532638D01*
X60100350Y-65723726D01*
X60060000Y-65926584D01*
X59255000Y-65926584D01*
X59255000Y-63386584D01*
X60060000Y-63386584D01*
X60060000Y-63593416D01*
X60100350Y-63796274D01*
X60179502Y-63987362D01*
X60294411Y-64159336D01*
X60440664Y-64305589D01*
X60612638Y-64420498D01*
X60803726Y-64499650D01*
X61006584Y-64540000D01*
X61213416Y-64540000D01*
X61416274Y-64499650D01*
X61607362Y-64420498D01*
X61779336Y-64305589D01*
X61925589Y-64159336D01*
X62040498Y-63987362D01*
X62073312Y-63908141D01*
X73355000Y-63908141D01*
X73355000Y-63991859D01*
X73371333Y-64073968D01*
X73403370Y-64151313D01*
X73449881Y-64220921D01*
X73509079Y-64280119D01*
X73578687Y-64326630D01*
X73656032Y-64358667D01*
X73738141Y-64375000D01*
X73821859Y-64375000D01*
X73903968Y-64358667D01*
X73981313Y-64326630D01*
X74050921Y-64280119D01*
X74110119Y-64220921D01*
X74156630Y-64151313D01*
X74188667Y-64073968D01*
X74205000Y-63991859D01*
X74205000Y-63908141D01*
X74188667Y-63826032D01*
X74163650Y-63765636D01*
X74206630Y-63701313D01*
X74238667Y-63623968D01*
X74255000Y-63541859D01*
X74255000Y-63458141D01*
X74240766Y-63386584D01*
X75300000Y-63386584D01*
X75300000Y-63593416D01*
X75340350Y-63796274D01*
X75419502Y-63987362D01*
X75534411Y-64159336D01*
X75680664Y-64305589D01*
X75852638Y-64420498D01*
X76043726Y-64499650D01*
X76246584Y-64540000D01*
X76453416Y-64540000D01*
X76656274Y-64499650D01*
X76847362Y-64420498D01*
X77019336Y-64305589D01*
X77165589Y-64159336D01*
X77280498Y-63987362D01*
X77359650Y-63796274D01*
X77400000Y-63593416D01*
X77400000Y-63386584D01*
X77359650Y-63183726D01*
X77280498Y-62992638D01*
X77165589Y-62820664D01*
X77019336Y-62674411D01*
X76847362Y-62559502D01*
X76656274Y-62480350D01*
X76453416Y-62440000D01*
X76246584Y-62440000D01*
X76043726Y-62480350D01*
X75852638Y-62559502D01*
X75680664Y-62674411D01*
X75534411Y-62820664D01*
X75419502Y-62992638D01*
X75340350Y-63183726D01*
X75300000Y-63386584D01*
X74240766Y-63386584D01*
X74238667Y-63376032D01*
X74206630Y-63298687D01*
X74160119Y-63229079D01*
X74100921Y-63169881D01*
X74031313Y-63123370D01*
X73953968Y-63091333D01*
X73871859Y-63075000D01*
X73788141Y-63075000D01*
X73706032Y-63091333D01*
X73628687Y-63123370D01*
X73559079Y-63169881D01*
X73499881Y-63229079D01*
X73453370Y-63298687D01*
X73421333Y-63376032D01*
X73405000Y-63458141D01*
X73405000Y-63541859D01*
X73421333Y-63623968D01*
X73446350Y-63684364D01*
X73403370Y-63748687D01*
X73371333Y-63826032D01*
X73355000Y-63908141D01*
X62073312Y-63908141D01*
X62119650Y-63796274D01*
X62160000Y-63593416D01*
X62160000Y-63386584D01*
X62119650Y-63183726D01*
X62040498Y-62992638D01*
X61925589Y-62820664D01*
X61779336Y-62674411D01*
X61607362Y-62559502D01*
X61416274Y-62480350D01*
X61213416Y-62440000D01*
X61006584Y-62440000D01*
X60803726Y-62480350D01*
X60612638Y-62559502D01*
X60440664Y-62674411D01*
X60294411Y-62820664D01*
X60179502Y-62992638D01*
X60100350Y-63183726D01*
X60060000Y-63386584D01*
X59255000Y-63386584D01*
X59255000Y-60846584D01*
X60060000Y-60846584D01*
X60060000Y-61053416D01*
X60100350Y-61256274D01*
X60179502Y-61447362D01*
X60294411Y-61619336D01*
X60440664Y-61765589D01*
X60612638Y-61880498D01*
X60803726Y-61959650D01*
X61006584Y-62000000D01*
X61213416Y-62000000D01*
X61416274Y-61959650D01*
X61607362Y-61880498D01*
X61640821Y-61858141D01*
X64505000Y-61858141D01*
X64505000Y-61941859D01*
X64521333Y-62023968D01*
X64553370Y-62101313D01*
X64599881Y-62170921D01*
X64659079Y-62230119D01*
X64728687Y-62276630D01*
X64806032Y-62308667D01*
X64888141Y-62325000D01*
X64971859Y-62325000D01*
X65053968Y-62308667D01*
X65131313Y-62276630D01*
X65200921Y-62230119D01*
X65260119Y-62170921D01*
X65306630Y-62101313D01*
X65338667Y-62023968D01*
X65340353Y-62015494D01*
X65388141Y-62025000D01*
X65471859Y-62025000D01*
X65553968Y-62008667D01*
X65631313Y-61976630D01*
X65700921Y-61930119D01*
X65760119Y-61870921D01*
X65806630Y-61801313D01*
X65838667Y-61723968D01*
X65851761Y-61658141D01*
X69955000Y-61658141D01*
X69955000Y-61741859D01*
X69971333Y-61823968D01*
X70003370Y-61901313D01*
X70049881Y-61970921D01*
X70109079Y-62030119D01*
X70178687Y-62076630D01*
X70256032Y-62108667D01*
X70338141Y-62125000D01*
X70421859Y-62125000D01*
X70503968Y-62108667D01*
X70581313Y-62076630D01*
X70650921Y-62030119D01*
X70710119Y-61970921D01*
X70756630Y-61901313D01*
X70788667Y-61823968D01*
X70805000Y-61741859D01*
X70805000Y-61658141D01*
X70788667Y-61576032D01*
X70756630Y-61498687D01*
X70710119Y-61429079D01*
X70650921Y-61369881D01*
X70581313Y-61323370D01*
X70503968Y-61291333D01*
X70421859Y-61275000D01*
X70338141Y-61275000D01*
X70256032Y-61291333D01*
X70178687Y-61323370D01*
X70109079Y-61369881D01*
X70049881Y-61429079D01*
X70003370Y-61498687D01*
X69971333Y-61576032D01*
X69955000Y-61658141D01*
X65851761Y-61658141D01*
X65855000Y-61641859D01*
X65855000Y-61558141D01*
X65838667Y-61476032D01*
X65806630Y-61398687D01*
X65760119Y-61329079D01*
X65700921Y-61269881D01*
X65631313Y-61223370D01*
X65553968Y-61191333D01*
X65471859Y-61175000D01*
X65388141Y-61175000D01*
X65306032Y-61191333D01*
X65228687Y-61223370D01*
X65159079Y-61269881D01*
X65099881Y-61329079D01*
X65053370Y-61398687D01*
X65021333Y-61476032D01*
X65019647Y-61484506D01*
X64971859Y-61475000D01*
X64888141Y-61475000D01*
X64806032Y-61491333D01*
X64728687Y-61523370D01*
X64659079Y-61569881D01*
X64599881Y-61629079D01*
X64553370Y-61698687D01*
X64521333Y-61776032D01*
X64505000Y-61858141D01*
X61640821Y-61858141D01*
X61779336Y-61765589D01*
X61925589Y-61619336D01*
X62040498Y-61447362D01*
X62119650Y-61256274D01*
X62160000Y-61053416D01*
X62160000Y-60846584D01*
X75300000Y-60846584D01*
X75300000Y-61053416D01*
X75340350Y-61256274D01*
X75419502Y-61447362D01*
X75534411Y-61619336D01*
X75680664Y-61765589D01*
X75852638Y-61880498D01*
X76043726Y-61959650D01*
X76246584Y-62000000D01*
X76453416Y-62000000D01*
X76656274Y-61959650D01*
X76847362Y-61880498D01*
X77019336Y-61765589D01*
X77165589Y-61619336D01*
X77280498Y-61447362D01*
X77359650Y-61256274D01*
X77400000Y-61053416D01*
X77400000Y-60846584D01*
X77359650Y-60643726D01*
X77280498Y-60452638D01*
X77165589Y-60280664D01*
X77019336Y-60134411D01*
X76847362Y-60019502D01*
X76656274Y-59940350D01*
X76453416Y-59900000D01*
X76246584Y-59900000D01*
X76043726Y-59940350D01*
X75852638Y-60019502D01*
X75680664Y-60134411D01*
X75534411Y-60280664D01*
X75419502Y-60452638D01*
X75340350Y-60643726D01*
X75300000Y-60846584D01*
X62160000Y-60846584D01*
X62119650Y-60643726D01*
X62040498Y-60452638D01*
X61925589Y-60280664D01*
X61779336Y-60134411D01*
X61607362Y-60019502D01*
X61416274Y-59940350D01*
X61213416Y-59900000D01*
X61006584Y-59900000D01*
X60803726Y-59940350D01*
X60612638Y-60019502D01*
X60440664Y-60134411D01*
X60294411Y-60280664D01*
X60179502Y-60452638D01*
X60100350Y-60643726D01*
X60060000Y-60846584D01*
X59255000Y-60846584D01*
X59255000Y-58306584D01*
X60060000Y-58306584D01*
X60060000Y-58513416D01*
X60100350Y-58716274D01*
X60179502Y-58907362D01*
X60294411Y-59079336D01*
X60440664Y-59225589D01*
X60612638Y-59340498D01*
X60803726Y-59419650D01*
X61006584Y-59460000D01*
X61213416Y-59460000D01*
X61416274Y-59419650D01*
X61607362Y-59340498D01*
X61779336Y-59225589D01*
X61925589Y-59079336D01*
X62040498Y-58907362D01*
X62119650Y-58716274D01*
X62160000Y-58513416D01*
X62160000Y-58306584D01*
X75300000Y-58306584D01*
X75300000Y-58513416D01*
X75340350Y-58716274D01*
X75419502Y-58907362D01*
X75534411Y-59079336D01*
X75680664Y-59225589D01*
X75852638Y-59340498D01*
X76043726Y-59419650D01*
X76246584Y-59460000D01*
X76453416Y-59460000D01*
X76656274Y-59419650D01*
X76847362Y-59340498D01*
X77019336Y-59225589D01*
X77165589Y-59079336D01*
X77280498Y-58907362D01*
X77359650Y-58716274D01*
X77400000Y-58513416D01*
X77400000Y-58306584D01*
X77359650Y-58103726D01*
X77280498Y-57912638D01*
X77165589Y-57740664D01*
X77019336Y-57594411D01*
X76847362Y-57479502D01*
X76656274Y-57400350D01*
X76453416Y-57360000D01*
X76246584Y-57360000D01*
X76043726Y-57400350D01*
X75852638Y-57479502D01*
X75680664Y-57594411D01*
X75534411Y-57740664D01*
X75419502Y-57912638D01*
X75340350Y-58103726D01*
X75300000Y-58306584D01*
X62160000Y-58306584D01*
X62119650Y-58103726D01*
X62040498Y-57912638D01*
X61925589Y-57740664D01*
X61779336Y-57594411D01*
X61607362Y-57479502D01*
X61416274Y-57400350D01*
X61213416Y-57360000D01*
X61006584Y-57360000D01*
X60803726Y-57400350D01*
X60612638Y-57479502D01*
X60440664Y-57594411D01*
X60294411Y-57740664D01*
X60179502Y-57912638D01*
X60100350Y-58103726D01*
X60060000Y-58306584D01*
X59255000Y-58306584D01*
X59255000Y-56958141D01*
X66305000Y-56958141D01*
X66305000Y-57041859D01*
X66321333Y-57123968D01*
X66353370Y-57201313D01*
X66385902Y-57250000D01*
X66353370Y-57298687D01*
X66321333Y-57376032D01*
X66305000Y-57458141D01*
X66305000Y-57541859D01*
X66321333Y-57623968D01*
X66353370Y-57701313D01*
X66399881Y-57770921D01*
X66459079Y-57830119D01*
X66528687Y-57876630D01*
X66606032Y-57908667D01*
X66688141Y-57925000D01*
X66771859Y-57925000D01*
X66853968Y-57908667D01*
X66931313Y-57876630D01*
X67000921Y-57830119D01*
X67060119Y-57770921D01*
X67106630Y-57701313D01*
X67138667Y-57623968D01*
X67155000Y-57541859D01*
X67155000Y-57458141D01*
X67138667Y-57376032D01*
X67131257Y-57358141D01*
X73355000Y-57358141D01*
X73355000Y-57441859D01*
X73371333Y-57523968D01*
X73403370Y-57601313D01*
X73449881Y-57670921D01*
X73509079Y-57730119D01*
X73578687Y-57776630D01*
X73656032Y-57808667D01*
X73738141Y-57825000D01*
X73821859Y-57825000D01*
X73903968Y-57808667D01*
X73981313Y-57776630D01*
X74050921Y-57730119D01*
X74110119Y-57670921D01*
X74156630Y-57601313D01*
X74188667Y-57523968D01*
X74205000Y-57441859D01*
X74205000Y-57358141D01*
X74188667Y-57276032D01*
X74163650Y-57215636D01*
X74206630Y-57151313D01*
X74238667Y-57073968D01*
X74255000Y-56991859D01*
X74255000Y-56908141D01*
X74238667Y-56826032D01*
X74206630Y-56748687D01*
X74160119Y-56679079D01*
X74100921Y-56619881D01*
X74031313Y-56573370D01*
X73953968Y-56541333D01*
X73871859Y-56525000D01*
X73788141Y-56525000D01*
X73706032Y-56541333D01*
X73628687Y-56573370D01*
X73559079Y-56619881D01*
X73499881Y-56679079D01*
X73453370Y-56748687D01*
X73421333Y-56826032D01*
X73405000Y-56908141D01*
X73405000Y-56991859D01*
X73421333Y-57073968D01*
X73446350Y-57134364D01*
X73403370Y-57198687D01*
X73371333Y-57276032D01*
X73355000Y-57358141D01*
X67131257Y-57358141D01*
X67106630Y-57298687D01*
X67074098Y-57250000D01*
X67106630Y-57201313D01*
X67138667Y-57123968D01*
X67155000Y-57041859D01*
X67155000Y-56958141D01*
X67138667Y-56876032D01*
X67106630Y-56798687D01*
X67060119Y-56729079D01*
X67000921Y-56669881D01*
X66931313Y-56623370D01*
X66853968Y-56591333D01*
X66771859Y-56575000D01*
X66688141Y-56575000D01*
X66606032Y-56591333D01*
X66528687Y-56623370D01*
X66459079Y-56669881D01*
X66399881Y-56729079D01*
X66353370Y-56798687D01*
X66321333Y-56876032D01*
X66305000Y-56958141D01*
X59255000Y-56958141D01*
X59255000Y-55766584D01*
X60060000Y-55766584D01*
X60060000Y-55973416D01*
X60100350Y-56176274D01*
X60179502Y-56367362D01*
X60294411Y-56539336D01*
X60440664Y-56685589D01*
X60612638Y-56800498D01*
X60803726Y-56879650D01*
X61006584Y-56920000D01*
X61213416Y-56920000D01*
X61416274Y-56879650D01*
X61607362Y-56800498D01*
X61779336Y-56685589D01*
X61925589Y-56539336D01*
X62040498Y-56367362D01*
X62119650Y-56176274D01*
X62160000Y-55973416D01*
X62160000Y-55766584D01*
X75300000Y-55766584D01*
X75300000Y-55973416D01*
X75340350Y-56176274D01*
X75419502Y-56367362D01*
X75534411Y-56539336D01*
X75680664Y-56685589D01*
X75852638Y-56800498D01*
X76043726Y-56879650D01*
X76246584Y-56920000D01*
X76453416Y-56920000D01*
X76656274Y-56879650D01*
X76847362Y-56800498D01*
X77019336Y-56685589D01*
X77165589Y-56539336D01*
X77280498Y-56367362D01*
X77359650Y-56176274D01*
X77400000Y-55973416D01*
X77400000Y-55766584D01*
X77359650Y-55563726D01*
X77280498Y-55372638D01*
X77165589Y-55200664D01*
X77019336Y-55054411D01*
X76847362Y-54939502D01*
X76656274Y-54860350D01*
X76453416Y-54820000D01*
X76246584Y-54820000D01*
X76043726Y-54860350D01*
X75852638Y-54939502D01*
X75680664Y-55054411D01*
X75534411Y-55200664D01*
X75419502Y-55372638D01*
X75340350Y-55563726D01*
X75300000Y-55766584D01*
X62160000Y-55766584D01*
X62119650Y-55563726D01*
X62040498Y-55372638D01*
X61925589Y-55200664D01*
X61883066Y-55158141D01*
X71705000Y-55158141D01*
X71705000Y-55241859D01*
X71721333Y-55323968D01*
X71753370Y-55401313D01*
X71799881Y-55470921D01*
X71859079Y-55530119D01*
X71928687Y-55576630D01*
X72006032Y-55608667D01*
X72088141Y-55625000D01*
X72171859Y-55625000D01*
X72253968Y-55608667D01*
X72331313Y-55576630D01*
X72400921Y-55530119D01*
X72460119Y-55470921D01*
X72506630Y-55401313D01*
X72538667Y-55323968D01*
X72555000Y-55241859D01*
X72555000Y-55158141D01*
X72538667Y-55076032D01*
X72506630Y-54998687D01*
X72460119Y-54929079D01*
X72400921Y-54869881D01*
X72331313Y-54823370D01*
X72253968Y-54791333D01*
X72171859Y-54775000D01*
X72088141Y-54775000D01*
X72006032Y-54791333D01*
X71928687Y-54823370D01*
X71859079Y-54869881D01*
X71799881Y-54929079D01*
X71753370Y-54998687D01*
X71721333Y-55076032D01*
X71705000Y-55158141D01*
X61883066Y-55158141D01*
X61779336Y-55054411D01*
X61607362Y-54939502D01*
X61416274Y-54860350D01*
X61213416Y-54820000D01*
X61006584Y-54820000D01*
X60803726Y-54860350D01*
X60612638Y-54939502D01*
X60440664Y-55054411D01*
X60294411Y-55200664D01*
X60179502Y-55372638D01*
X60100350Y-55563726D01*
X60060000Y-55766584D01*
X59255000Y-55766584D01*
X59255000Y-53226584D01*
X60060000Y-53226584D01*
X60060000Y-53433416D01*
X60100350Y-53636274D01*
X60179502Y-53827362D01*
X60294411Y-53999336D01*
X60440664Y-54145589D01*
X60612638Y-54260498D01*
X60803726Y-54339650D01*
X61006584Y-54380000D01*
X61213416Y-54380000D01*
X61416274Y-54339650D01*
X61607362Y-54260498D01*
X61779336Y-54145589D01*
X61925589Y-53999336D01*
X62040498Y-53827362D01*
X62119650Y-53636274D01*
X62155082Y-53458141D01*
X64555000Y-53458141D01*
X64555000Y-53541859D01*
X64571333Y-53623968D01*
X64603370Y-53701313D01*
X64649881Y-53770921D01*
X64709079Y-53830119D01*
X64778687Y-53876630D01*
X64856032Y-53908667D01*
X64938141Y-53925000D01*
X65021859Y-53925000D01*
X65103968Y-53908667D01*
X65181313Y-53876630D01*
X65250921Y-53830119D01*
X65310119Y-53770921D01*
X65356630Y-53701313D01*
X65372904Y-53662023D01*
X65438141Y-53675000D01*
X65521859Y-53675000D01*
X65603968Y-53658667D01*
X65681313Y-53626630D01*
X65708983Y-53608141D01*
X73355000Y-53608141D01*
X73355000Y-53691859D01*
X73371333Y-53773968D01*
X73403370Y-53851313D01*
X73449881Y-53920921D01*
X73509079Y-53980119D01*
X73578687Y-54026630D01*
X73656032Y-54058667D01*
X73738141Y-54075000D01*
X73821859Y-54075000D01*
X73903968Y-54058667D01*
X73981313Y-54026630D01*
X74050921Y-53980119D01*
X74110119Y-53920921D01*
X74156630Y-53851313D01*
X74188667Y-53773968D01*
X74205000Y-53691859D01*
X74205000Y-53608141D01*
X74188667Y-53526032D01*
X74163650Y-53465636D01*
X74206630Y-53401313D01*
X74238667Y-53323968D01*
X74255000Y-53241859D01*
X74255000Y-53226584D01*
X75300000Y-53226584D01*
X75300000Y-53433416D01*
X75340350Y-53636274D01*
X75419502Y-53827362D01*
X75534411Y-53999336D01*
X75680664Y-54145589D01*
X75852638Y-54260498D01*
X76043726Y-54339650D01*
X76246584Y-54380000D01*
X76453416Y-54380000D01*
X76656274Y-54339650D01*
X76847362Y-54260498D01*
X77019336Y-54145589D01*
X77165589Y-53999336D01*
X77280498Y-53827362D01*
X77359650Y-53636274D01*
X77400000Y-53433416D01*
X77400000Y-53226584D01*
X77359650Y-53023726D01*
X77280498Y-52832638D01*
X77165589Y-52660664D01*
X77019336Y-52514411D01*
X76847362Y-52399502D01*
X76656274Y-52320350D01*
X76453416Y-52280000D01*
X76246584Y-52280000D01*
X76043726Y-52320350D01*
X75852638Y-52399502D01*
X75680664Y-52514411D01*
X75534411Y-52660664D01*
X75419502Y-52832638D01*
X75340350Y-53023726D01*
X75300000Y-53226584D01*
X74255000Y-53226584D01*
X74255000Y-53158141D01*
X74238667Y-53076032D01*
X74206630Y-52998687D01*
X74160119Y-52929079D01*
X74100921Y-52869881D01*
X74031313Y-52823370D01*
X73953968Y-52791333D01*
X73871859Y-52775000D01*
X73788141Y-52775000D01*
X73706032Y-52791333D01*
X73628687Y-52823370D01*
X73559079Y-52869881D01*
X73499881Y-52929079D01*
X73453370Y-52998687D01*
X73421333Y-53076032D01*
X73405000Y-53158141D01*
X73405000Y-53241859D01*
X73421333Y-53323968D01*
X73446350Y-53384364D01*
X73403370Y-53448687D01*
X73371333Y-53526032D01*
X73355000Y-53608141D01*
X65708983Y-53608141D01*
X65750921Y-53580119D01*
X65810119Y-53520921D01*
X65856630Y-53451313D01*
X65888667Y-53373968D01*
X65905000Y-53291859D01*
X65905000Y-53208141D01*
X65888667Y-53126032D01*
X65856630Y-53048687D01*
X65810119Y-52979079D01*
X65750921Y-52919881D01*
X65681313Y-52873370D01*
X65603968Y-52841333D01*
X65521859Y-52825000D01*
X65438141Y-52825000D01*
X65356032Y-52841333D01*
X65278687Y-52873370D01*
X65209079Y-52919881D01*
X65149881Y-52979079D01*
X65103370Y-53048687D01*
X65087096Y-53087977D01*
X65021859Y-53075000D01*
X64938141Y-53075000D01*
X64856032Y-53091333D01*
X64778687Y-53123370D01*
X64709079Y-53169881D01*
X64649881Y-53229079D01*
X64603370Y-53298687D01*
X64571333Y-53376032D01*
X64555000Y-53458141D01*
X62155082Y-53458141D01*
X62160000Y-53433416D01*
X62160000Y-53226584D01*
X62119650Y-53023726D01*
X62040498Y-52832638D01*
X61925589Y-52660664D01*
X61779336Y-52514411D01*
X61607362Y-52399502D01*
X61416274Y-52320350D01*
X61213416Y-52280000D01*
X61006584Y-52280000D01*
X60803726Y-52320350D01*
X60612638Y-52399502D01*
X60440664Y-52514411D01*
X60294411Y-52660664D01*
X60179502Y-52832638D01*
X60100350Y-53023726D01*
X60060000Y-53226584D01*
X59255000Y-53226584D01*
X59255000Y-52158141D01*
X64505000Y-52158141D01*
X64505000Y-52241859D01*
X64521333Y-52323968D01*
X64553370Y-52401313D01*
X64599881Y-52470921D01*
X64659079Y-52530119D01*
X64728687Y-52576630D01*
X64806032Y-52608667D01*
X64888141Y-52625000D01*
X64971859Y-52625000D01*
X65053968Y-52608667D01*
X65131313Y-52576630D01*
X65200921Y-52530119D01*
X65260119Y-52470921D01*
X65306630Y-52401313D01*
X65338667Y-52323968D01*
X65340353Y-52315494D01*
X65388141Y-52325000D01*
X65471859Y-52325000D01*
X65553968Y-52308667D01*
X65631313Y-52276630D01*
X65700921Y-52230119D01*
X65760119Y-52170921D01*
X65806630Y-52101313D01*
X65838667Y-52023968D01*
X65855000Y-51941859D01*
X65855000Y-51858141D01*
X65838667Y-51776032D01*
X65806630Y-51698687D01*
X65760119Y-51629079D01*
X65700921Y-51569881D01*
X65631313Y-51523370D01*
X65553968Y-51491333D01*
X65471859Y-51475000D01*
X65388141Y-51475000D01*
X65306032Y-51491333D01*
X65228687Y-51523370D01*
X65159079Y-51569881D01*
X65099881Y-51629079D01*
X65053370Y-51698687D01*
X65021333Y-51776032D01*
X65019647Y-51784506D01*
X64971859Y-51775000D01*
X64888141Y-51775000D01*
X64806032Y-51791333D01*
X64728687Y-51823370D01*
X64659079Y-51869881D01*
X64599881Y-51929079D01*
X64553370Y-51998687D01*
X64521333Y-52076032D01*
X64505000Y-52158141D01*
X59255000Y-52158141D01*
X59255000Y-50686584D01*
X60060000Y-50686584D01*
X60060000Y-50893416D01*
X60100350Y-51096274D01*
X60179502Y-51287362D01*
X60294411Y-51459336D01*
X60440664Y-51605589D01*
X60612638Y-51720498D01*
X60803726Y-51799650D01*
X61006584Y-51840000D01*
X61213416Y-51840000D01*
X61416274Y-51799650D01*
X61607362Y-51720498D01*
X61779336Y-51605589D01*
X61925589Y-51459336D01*
X61926387Y-51458141D01*
X71705000Y-51458141D01*
X71705000Y-51541859D01*
X71721333Y-51623968D01*
X71753370Y-51701313D01*
X71799881Y-51770921D01*
X71859079Y-51830119D01*
X71928687Y-51876630D01*
X72006032Y-51908667D01*
X72088141Y-51925000D01*
X72171859Y-51925000D01*
X72253968Y-51908667D01*
X72331313Y-51876630D01*
X72400921Y-51830119D01*
X72460119Y-51770921D01*
X72506630Y-51701313D01*
X72538667Y-51623968D01*
X72555000Y-51541859D01*
X72555000Y-51458141D01*
X72538667Y-51376032D01*
X72506630Y-51298687D01*
X72460119Y-51229079D01*
X72400921Y-51169881D01*
X72331313Y-51123370D01*
X72253968Y-51091333D01*
X72171859Y-51075000D01*
X72088141Y-51075000D01*
X72006032Y-51091333D01*
X71928687Y-51123370D01*
X71859079Y-51169881D01*
X71799881Y-51229079D01*
X71753370Y-51298687D01*
X71721333Y-51376032D01*
X71705000Y-51458141D01*
X61926387Y-51458141D01*
X62040498Y-51287362D01*
X62119650Y-51096274D01*
X62160000Y-50893416D01*
X62160000Y-50686584D01*
X75300000Y-50686584D01*
X75300000Y-50893416D01*
X75340350Y-51096274D01*
X75419502Y-51287362D01*
X75534411Y-51459336D01*
X75680664Y-51605589D01*
X75852638Y-51720498D01*
X76043726Y-51799650D01*
X76246584Y-51840000D01*
X76453416Y-51840000D01*
X76656274Y-51799650D01*
X76847362Y-51720498D01*
X77019336Y-51605589D01*
X77165589Y-51459336D01*
X77280498Y-51287362D01*
X77359650Y-51096274D01*
X77400000Y-50893416D01*
X77400000Y-50686584D01*
X77359650Y-50483726D01*
X77280498Y-50292638D01*
X77165589Y-50120664D01*
X77019336Y-49974411D01*
X76847362Y-49859502D01*
X76656274Y-49780350D01*
X76453416Y-49740000D01*
X76246584Y-49740000D01*
X76043726Y-49780350D01*
X75852638Y-49859502D01*
X75680664Y-49974411D01*
X75534411Y-50120664D01*
X75419502Y-50292638D01*
X75340350Y-50483726D01*
X75300000Y-50686584D01*
X62160000Y-50686584D01*
X62119650Y-50483726D01*
X62040498Y-50292638D01*
X61925589Y-50120664D01*
X61779336Y-49974411D01*
X61607362Y-49859502D01*
X61416274Y-49780350D01*
X61213416Y-49740000D01*
X61006584Y-49740000D01*
X60803726Y-49780350D01*
X60612638Y-49859502D01*
X60440664Y-49974411D01*
X60294411Y-50120664D01*
X60179502Y-50292638D01*
X60100350Y-50483726D01*
X60060000Y-50686584D01*
X59255000Y-50686584D01*
X59255000Y-48146584D01*
X60060000Y-48146584D01*
X60060000Y-48353416D01*
X60100350Y-48556274D01*
X60179502Y-48747362D01*
X60294411Y-48919336D01*
X60440664Y-49065589D01*
X60612638Y-49180498D01*
X60803726Y-49259650D01*
X61006584Y-49300000D01*
X61213416Y-49300000D01*
X61416274Y-49259650D01*
X61607362Y-49180498D01*
X61779336Y-49065589D01*
X61925589Y-48919336D01*
X62040498Y-48747362D01*
X62089454Y-48629171D01*
X75260071Y-48629171D01*
X75311181Y-48752588D01*
X75429192Y-48945594D01*
X75582589Y-49111869D01*
X75765477Y-49245023D01*
X75970828Y-49339939D01*
X76146000Y-49309836D01*
X76146000Y-48454000D01*
X76554000Y-48454000D01*
X76554000Y-49309836D01*
X76729172Y-49339939D01*
X76934523Y-49245023D01*
X77117411Y-49111869D01*
X77270808Y-48945594D01*
X77388819Y-48752588D01*
X77439929Y-48629171D01*
X77408522Y-48454000D01*
X76554000Y-48454000D01*
X76146000Y-48454000D01*
X75291478Y-48454000D01*
X75260071Y-48629171D01*
X62089454Y-48629171D01*
X62119650Y-48556274D01*
X62160000Y-48353416D01*
X62160000Y-48146584D01*
X62119650Y-47943726D01*
X62089455Y-47870829D01*
X75260071Y-47870829D01*
X75291478Y-48046000D01*
X76146000Y-48046000D01*
X76146000Y-47190164D01*
X76554000Y-47190164D01*
X76554000Y-48046000D01*
X77408522Y-48046000D01*
X77439929Y-47870829D01*
X77388819Y-47747412D01*
X77270808Y-47554406D01*
X77117411Y-47388131D01*
X76934523Y-47254977D01*
X76729172Y-47160061D01*
X76554000Y-47190164D01*
X76146000Y-47190164D01*
X75970828Y-47160061D01*
X75765477Y-47254977D01*
X75582589Y-47388131D01*
X75429192Y-47554406D01*
X75311181Y-47747412D01*
X75260071Y-47870829D01*
X62089455Y-47870829D01*
X62040498Y-47752638D01*
X61925589Y-47580664D01*
X61779336Y-47434411D01*
X61607362Y-47319502D01*
X61416274Y-47240350D01*
X61213416Y-47200000D01*
X61006584Y-47200000D01*
X60803726Y-47240350D01*
X60612638Y-47319502D01*
X60440664Y-47434411D01*
X60294411Y-47580664D01*
X60179502Y-47752638D01*
X60100350Y-47943726D01*
X60060000Y-48146584D01*
X59255000Y-48146584D01*
X59255000Y-44860000D01*
X60059033Y-44860000D01*
X60059033Y-46560000D01*
X60062895Y-46599207D01*
X60074331Y-46636907D01*
X60092902Y-46671651D01*
X60117895Y-46702105D01*
X60148349Y-46727098D01*
X60183093Y-46745669D01*
X60220793Y-46757105D01*
X60260000Y-46760967D01*
X61960000Y-46760967D01*
X61999207Y-46757105D01*
X62036907Y-46745669D01*
X62071651Y-46727098D01*
X62102105Y-46702105D01*
X62127098Y-46671651D01*
X62145669Y-46636907D01*
X62157105Y-46599207D01*
X62160967Y-46560000D01*
X62160967Y-44860000D01*
X75299033Y-44860000D01*
X75299033Y-46560000D01*
X75302895Y-46599207D01*
X75314331Y-46636907D01*
X75332902Y-46671651D01*
X75357895Y-46702105D01*
X75388349Y-46727098D01*
X75423093Y-46745669D01*
X75460793Y-46757105D01*
X75500000Y-46760967D01*
X77200000Y-46760967D01*
X77239207Y-46757105D01*
X77276907Y-46745669D01*
X77311651Y-46727098D01*
X77342105Y-46702105D01*
X77367098Y-46671651D01*
X77385669Y-46636907D01*
X77397105Y-46599207D01*
X77400967Y-46560000D01*
X77400967Y-44860000D01*
X77397105Y-44820793D01*
X77385669Y-44783093D01*
X77367098Y-44748349D01*
X77342105Y-44717895D01*
X77311651Y-44692902D01*
X77276907Y-44674331D01*
X77239207Y-44662895D01*
X77200000Y-44659033D01*
X75500000Y-44659033D01*
X75460793Y-44662895D01*
X75423093Y-44674331D01*
X75388349Y-44692902D01*
X75357895Y-44717895D01*
X75332902Y-44748349D01*
X75314331Y-44783093D01*
X75302895Y-44820793D01*
X75299033Y-44860000D01*
X62160967Y-44860000D01*
X62157105Y-44820793D01*
X62145669Y-44783093D01*
X62127098Y-44748349D01*
X62102105Y-44717895D01*
X62071651Y-44692902D01*
X62036907Y-44674331D01*
X61999207Y-44662895D01*
X61960000Y-44659033D01*
X60260000Y-44659033D01*
X60220793Y-44662895D01*
X60183093Y-44674331D01*
X60148349Y-44692902D01*
X60117895Y-44717895D01*
X60092902Y-44748349D01*
X60074331Y-44783093D01*
X60062895Y-44820793D01*
X60059033Y-44860000D01*
X59255000Y-44860000D01*
X59255000Y-43855000D01*
X78205000Y-43855000D01*
X78205000Y-111065000D01*
G37*
%TD.AperFunction*%
%TD*%
M02*
