G04 #@! TF.GenerationSoftware,KiCad,Pcbnew,5.1.10-88a1d61d58~88~ubuntu20.04.1*
G04 #@! TF.CreationDate,2021-07-02T13:15:56+02:00*
G04 #@! TF.ProjectId,carrier,63617272-6965-4722-9e6b-696361645f70,0.1*
G04 #@! TF.SameCoordinates,Original*
G04 #@! TF.FileFunction,Soldermask,Bot*
G04 #@! TF.FilePolarity,Negative*
%FSLAX46Y46*%
G04 Gerber Fmt 4.6, Leading zero omitted, Abs format (unit mm)*
G04 Created by KiCad (PCBNEW 5.1.10-88a1d61d58~88~ubuntu20.04.1) date 2021-07-02 13:15:56*
%MOMM*%
%LPD*%
G01*
G04 APERTURE LIST*
%ADD10O,1.800000X1.800000*%
G04 APERTURE END LIST*
D10*
G04 #@! TO.C,J3*
X76350000Y-109210000D03*
X76350000Y-106670000D03*
X76350000Y-104130000D03*
X76350000Y-101590000D03*
X76350000Y-99050000D03*
X76350000Y-96510000D03*
X76350000Y-93970000D03*
X76350000Y-91430000D03*
X76350000Y-88890000D03*
X76350000Y-86350000D03*
X76350000Y-83810000D03*
X76350000Y-81270000D03*
X76350000Y-78730000D03*
X76350000Y-76190000D03*
X76350000Y-73650000D03*
X76350000Y-71110000D03*
X76350000Y-68570000D03*
X76350000Y-66030000D03*
X76350000Y-63490000D03*
X76350000Y-60950000D03*
X76350000Y-58410000D03*
X76350000Y-55870000D03*
X76350000Y-53330000D03*
X76350000Y-50790000D03*
X76350000Y-48250000D03*
G36*
G01*
X75450000Y-46560000D02*
X75450000Y-44860000D01*
G75*
G02*
X75500000Y-44810000I50000J0D01*
G01*
X77200000Y-44810000D01*
G75*
G02*
X77250000Y-44860000I0J-50000D01*
G01*
X77250000Y-46560000D01*
G75*
G02*
X77200000Y-46610000I-50000J0D01*
G01*
X75500000Y-46610000D01*
G75*
G02*
X75450000Y-46560000I0J50000D01*
G01*
G37*
G04 #@! TD*
G04 #@! TO.C,J2*
X61110000Y-109210000D03*
X61110000Y-106670000D03*
X61110000Y-104130000D03*
X61110000Y-101590000D03*
X61110000Y-99050000D03*
X61110000Y-96510000D03*
X61110000Y-93970000D03*
X61110000Y-91430000D03*
X61110000Y-88890000D03*
X61110000Y-86350000D03*
X61110000Y-83810000D03*
X61110000Y-81270000D03*
X61110000Y-78730000D03*
X61110000Y-76190000D03*
X61110000Y-73650000D03*
X61110000Y-71110000D03*
X61110000Y-68570000D03*
X61110000Y-66030000D03*
X61110000Y-63490000D03*
X61110000Y-60950000D03*
X61110000Y-58410000D03*
X61110000Y-55870000D03*
X61110000Y-53330000D03*
X61110000Y-50790000D03*
X61110000Y-48250000D03*
G36*
G01*
X60210000Y-46560000D02*
X60210000Y-44860000D01*
G75*
G02*
X60260000Y-44810000I50000J0D01*
G01*
X61960000Y-44810000D01*
G75*
G02*
X62010000Y-44860000I0J-50000D01*
G01*
X62010000Y-46560000D01*
G75*
G02*
X61960000Y-46610000I-50000J0D01*
G01*
X60260000Y-46610000D01*
G75*
G02*
X60210000Y-46560000I0J50000D01*
G01*
G37*
G04 #@! TD*
M02*
