G04 #@! TF.GenerationSoftware,KiCad,Pcbnew,5.1.10-88a1d61d58~88~ubuntu20.04.1*
G04 #@! TF.CreationDate,2021-07-29T19:20:37+02:00*
G04 #@! TF.ProjectId,carrier,63617272-6965-4722-9e6b-696361645f70,0.1*
G04 #@! TF.SameCoordinates,Original*
G04 #@! TF.FileFunction,Legend,Bot*
G04 #@! TF.FilePolarity,Positive*
%FSLAX46Y46*%
G04 Gerber Fmt 4.6, Leading zero omitted, Abs format (unit mm)*
G04 Created by KiCad (PCBNEW 5.1.10-88a1d61d58~88~ubuntu20.04.1) date 2021-07-29 19:20:37*
%MOMM*%
%LPD*%
G01*
G04 APERTURE LIST*
%ADD10C,0.300000*%
%ADD11C,0.100000*%
%ADD12C,0.150000*%
%ADD13C,0.010000*%
G04 APERTURE END LIST*
D10*
X63360952Y-67683333D02*
X62408571Y-67683333D01*
X63551428Y-68254761D02*
X62884761Y-66254761D01*
X62218095Y-68254761D01*
X61646666Y-68159523D02*
X61360952Y-68254761D01*
X60884761Y-68254761D01*
X60694285Y-68159523D01*
X60599047Y-68064285D01*
X60503809Y-67873809D01*
X60503809Y-67683333D01*
X60599047Y-67492857D01*
X60694285Y-67397619D01*
X60884761Y-67302380D01*
X61265714Y-67207142D01*
X61456190Y-67111904D01*
X61551428Y-67016666D01*
X61646666Y-66826190D01*
X61646666Y-66635714D01*
X61551428Y-66445238D01*
X61456190Y-66350000D01*
X61265714Y-66254761D01*
X60789523Y-66254761D01*
X60503809Y-66350000D01*
X59646666Y-68254761D02*
X59646666Y-66254761D01*
X57551428Y-68064285D02*
X57646666Y-68159523D01*
X57932380Y-68254761D01*
X58122857Y-68254761D01*
X58408571Y-68159523D01*
X58599047Y-67969047D01*
X58694285Y-67778571D01*
X58789523Y-67397619D01*
X58789523Y-67111904D01*
X58694285Y-66730952D01*
X58599047Y-66540476D01*
X58408571Y-66350000D01*
X58122857Y-66254761D01*
X57932380Y-66254761D01*
X57646666Y-66350000D01*
X57551428Y-66445238D01*
X55456190Y-66254761D02*
X54789523Y-68254761D01*
X54122857Y-66254761D01*
X52408571Y-66350000D02*
X52599047Y-66254761D01*
X52884761Y-66254761D01*
X53170476Y-66350000D01*
X53360952Y-66540476D01*
X53456190Y-66730952D01*
X53551428Y-67111904D01*
X53551428Y-67397619D01*
X53456190Y-67778571D01*
X53360952Y-67969047D01*
X53170476Y-68159523D01*
X52884761Y-68254761D01*
X52694285Y-68254761D01*
X52408571Y-68159523D01*
X52313333Y-68064285D01*
X52313333Y-67397619D01*
X52694285Y-67397619D01*
X51551428Y-67683333D02*
X50599047Y-67683333D01*
X51741904Y-68254761D02*
X51075238Y-66254761D01*
X50408571Y-68254761D01*
X59456190Y-71364285D02*
X59551428Y-71459523D01*
X59837142Y-71554761D01*
X60027619Y-71554761D01*
X60313333Y-71459523D01*
X60503809Y-71269047D01*
X60599047Y-71078571D01*
X60694285Y-70697619D01*
X60694285Y-70411904D01*
X60599047Y-70030952D01*
X60503809Y-69840476D01*
X60313333Y-69650000D01*
X60027619Y-69554761D01*
X59837142Y-69554761D01*
X59551428Y-69650000D01*
X59456190Y-69745238D01*
X58313333Y-71554761D02*
X58503809Y-71459523D01*
X58599047Y-71269047D01*
X58599047Y-69554761D01*
X57265714Y-71554761D02*
X57456190Y-71459523D01*
X57551428Y-71364285D01*
X57646666Y-71173809D01*
X57646666Y-70602380D01*
X57551428Y-70411904D01*
X57456190Y-70316666D01*
X57265714Y-70221428D01*
X56980000Y-70221428D01*
X56789523Y-70316666D01*
X56694285Y-70411904D01*
X56599047Y-70602380D01*
X56599047Y-71173809D01*
X56694285Y-71364285D01*
X56789523Y-71459523D01*
X56980000Y-71554761D01*
X57265714Y-71554761D01*
X54884761Y-71459523D02*
X55075238Y-71554761D01*
X55456190Y-71554761D01*
X55646666Y-71459523D01*
X55741904Y-71364285D01*
X55837142Y-71173809D01*
X55837142Y-70602380D01*
X55741904Y-70411904D01*
X55646666Y-70316666D01*
X55456190Y-70221428D01*
X55075238Y-70221428D01*
X54884761Y-70316666D01*
X54027619Y-71554761D02*
X54027619Y-69554761D01*
X53837142Y-70792857D02*
X53265714Y-71554761D01*
X53265714Y-70221428D02*
X54027619Y-70983333D01*
D11*
G36*
X54730000Y-89750000D02*
G01*
X44730000Y-89750000D01*
X44730000Y-82750000D01*
X54730000Y-82750000D01*
X54730000Y-89750000D01*
G37*
X54730000Y-89750000D02*
X44730000Y-89750000D01*
X44730000Y-82750000D01*
X54730000Y-82750000D01*
X54730000Y-89750000D01*
D12*
X54599047Y-91654761D02*
X54456190Y-91702380D01*
X54218095Y-91702380D01*
X54122857Y-91654761D01*
X54075238Y-91607142D01*
X54027619Y-91511904D01*
X54027619Y-91416666D01*
X54075238Y-91321428D01*
X54122857Y-91273809D01*
X54218095Y-91226190D01*
X54408571Y-91178571D01*
X54503809Y-91130952D01*
X54551428Y-91083333D01*
X54599047Y-90988095D01*
X54599047Y-90892857D01*
X54551428Y-90797619D01*
X54503809Y-90750000D01*
X54408571Y-90702380D01*
X54170476Y-90702380D01*
X54027619Y-90750000D01*
X53218095Y-91654761D02*
X53313333Y-91702380D01*
X53503809Y-91702380D01*
X53599047Y-91654761D01*
X53646666Y-91559523D01*
X53646666Y-91178571D01*
X53599047Y-91083333D01*
X53503809Y-91035714D01*
X53313333Y-91035714D01*
X53218095Y-91083333D01*
X53170476Y-91178571D01*
X53170476Y-91273809D01*
X53646666Y-91369047D01*
X52741904Y-91702380D02*
X52741904Y-91035714D01*
X52741904Y-91226190D02*
X52694285Y-91130952D01*
X52646666Y-91083333D01*
X52551428Y-91035714D01*
X52456190Y-91035714D01*
X52122857Y-91702380D02*
X52122857Y-91035714D01*
X52122857Y-90702380D02*
X52170476Y-90750000D01*
X52122857Y-90797619D01*
X52075238Y-90750000D01*
X52122857Y-90702380D01*
X52122857Y-90797619D01*
X51218095Y-91702380D02*
X51218095Y-91178571D01*
X51265714Y-91083333D01*
X51360952Y-91035714D01*
X51551428Y-91035714D01*
X51646666Y-91083333D01*
X51218095Y-91654761D02*
X51313333Y-91702380D01*
X51551428Y-91702380D01*
X51646666Y-91654761D01*
X51694285Y-91559523D01*
X51694285Y-91464285D01*
X51646666Y-91369047D01*
X51551428Y-91321428D01*
X51313333Y-91321428D01*
X51218095Y-91273809D01*
X50599047Y-91702380D02*
X50694285Y-91654761D01*
X50741904Y-91559523D01*
X50741904Y-90702380D01*
X49456190Y-91035714D02*
X49456190Y-91702380D01*
X49456190Y-91130952D02*
X49408571Y-91083333D01*
X49313333Y-91035714D01*
X49170476Y-91035714D01*
X49075238Y-91083333D01*
X49027619Y-91178571D01*
X49027619Y-91702380D01*
X48122857Y-91035714D02*
X48122857Y-91702380D01*
X48551428Y-91035714D02*
X48551428Y-91559523D01*
X48503809Y-91654761D01*
X48408571Y-91702380D01*
X48265714Y-91702380D01*
X48170476Y-91654761D01*
X48122857Y-91607142D01*
X47646666Y-91702380D02*
X47646666Y-91035714D01*
X47646666Y-91130952D02*
X47599047Y-91083333D01*
X47503809Y-91035714D01*
X47360952Y-91035714D01*
X47265714Y-91083333D01*
X47218095Y-91178571D01*
X47218095Y-91702380D01*
X47218095Y-91178571D02*
X47170476Y-91083333D01*
X47075238Y-91035714D01*
X46932380Y-91035714D01*
X46837142Y-91083333D01*
X46789523Y-91178571D01*
X46789523Y-91702380D01*
X46313333Y-91702380D02*
X46313333Y-90702380D01*
X46313333Y-91083333D02*
X46218095Y-91035714D01*
X46027619Y-91035714D01*
X45932380Y-91083333D01*
X45884761Y-91130952D01*
X45837142Y-91226190D01*
X45837142Y-91511904D01*
X45884761Y-91607142D01*
X45932380Y-91654761D01*
X46027619Y-91702380D01*
X46218095Y-91702380D01*
X46313333Y-91654761D01*
X45027619Y-91654761D02*
X45122857Y-91702380D01*
X45313333Y-91702380D01*
X45408571Y-91654761D01*
X45456190Y-91559523D01*
X45456190Y-91178571D01*
X45408571Y-91083333D01*
X45313333Y-91035714D01*
X45122857Y-91035714D01*
X45027619Y-91083333D01*
X44980000Y-91178571D01*
X44980000Y-91273809D01*
X45456190Y-91369047D01*
X44551428Y-91702380D02*
X44551428Y-91035714D01*
X44551428Y-91226190D02*
X44503809Y-91130952D01*
X44456190Y-91083333D01*
X44360952Y-91035714D01*
X44265714Y-91035714D01*
X62872857Y-78452380D02*
X62968095Y-78404761D01*
X63015714Y-78357142D01*
X63063333Y-78261904D01*
X63063333Y-77976190D01*
X63015714Y-77880952D01*
X62968095Y-77833333D01*
X62872857Y-77785714D01*
X62730000Y-77785714D01*
X62634761Y-77833333D01*
X62587142Y-77880952D01*
X62539523Y-77976190D01*
X62539523Y-78261904D01*
X62587142Y-78357142D01*
X62634761Y-78404761D01*
X62730000Y-78452380D01*
X62872857Y-78452380D01*
X62110952Y-77785714D02*
X62110952Y-78785714D01*
X62110952Y-77833333D02*
X62015714Y-77785714D01*
X61825238Y-77785714D01*
X61730000Y-77833333D01*
X61682380Y-77880952D01*
X61634761Y-77976190D01*
X61634761Y-78261904D01*
X61682380Y-78357142D01*
X61730000Y-78404761D01*
X61825238Y-78452380D01*
X62015714Y-78452380D01*
X62110952Y-78404761D01*
X60825238Y-78404761D02*
X60920476Y-78452380D01*
X61110952Y-78452380D01*
X61206190Y-78404761D01*
X61253809Y-78309523D01*
X61253809Y-77928571D01*
X61206190Y-77833333D01*
X61110952Y-77785714D01*
X60920476Y-77785714D01*
X60825238Y-77833333D01*
X60777619Y-77928571D01*
X60777619Y-78023809D01*
X61253809Y-78119047D01*
X60349047Y-77785714D02*
X60349047Y-78452380D01*
X60349047Y-77880952D02*
X60301428Y-77833333D01*
X60206190Y-77785714D01*
X60063333Y-77785714D01*
X59968095Y-77833333D01*
X59920476Y-77928571D01*
X59920476Y-78452380D01*
X58730000Y-78404761D02*
X58634761Y-78452380D01*
X58444285Y-78452380D01*
X58349047Y-78404761D01*
X58301428Y-78309523D01*
X58301428Y-78261904D01*
X58349047Y-78166666D01*
X58444285Y-78119047D01*
X58587142Y-78119047D01*
X58682380Y-78071428D01*
X58730000Y-77976190D01*
X58730000Y-77928571D01*
X58682380Y-77833333D01*
X58587142Y-77785714D01*
X58444285Y-77785714D01*
X58349047Y-77833333D01*
X57730000Y-78452380D02*
X57825238Y-78404761D01*
X57872857Y-78357142D01*
X57920476Y-78261904D01*
X57920476Y-77976190D01*
X57872857Y-77880952D01*
X57825238Y-77833333D01*
X57730000Y-77785714D01*
X57587142Y-77785714D01*
X57491904Y-77833333D01*
X57444285Y-77880952D01*
X57396666Y-77976190D01*
X57396666Y-78261904D01*
X57444285Y-78357142D01*
X57491904Y-78404761D01*
X57587142Y-78452380D01*
X57730000Y-78452380D01*
X56539523Y-77785714D02*
X56539523Y-78452380D01*
X56968095Y-77785714D02*
X56968095Y-78309523D01*
X56920476Y-78404761D01*
X56825238Y-78452380D01*
X56682380Y-78452380D01*
X56587142Y-78404761D01*
X56539523Y-78357142D01*
X56063333Y-78452380D02*
X56063333Y-77785714D01*
X56063333Y-77976190D02*
X56015714Y-77880952D01*
X55968095Y-77833333D01*
X55872857Y-77785714D01*
X55777619Y-77785714D01*
X55015714Y-78404761D02*
X55110952Y-78452380D01*
X55301428Y-78452380D01*
X55396666Y-78404761D01*
X55444285Y-78357142D01*
X55491904Y-78261904D01*
X55491904Y-77976190D01*
X55444285Y-77880952D01*
X55396666Y-77833333D01*
X55301428Y-77785714D01*
X55110952Y-77785714D01*
X55015714Y-77833333D01*
X54206190Y-78404761D02*
X54301428Y-78452380D01*
X54491904Y-78452380D01*
X54587142Y-78404761D01*
X54634761Y-78309523D01*
X54634761Y-77928571D01*
X54587142Y-77833333D01*
X54491904Y-77785714D01*
X54301428Y-77785714D01*
X54206190Y-77833333D01*
X54158571Y-77928571D01*
X54158571Y-78023809D01*
X54634761Y-78119047D01*
X53015714Y-78166666D02*
X52539523Y-78166666D01*
X53110952Y-78452380D02*
X52777619Y-77452380D01*
X52444285Y-78452380D01*
X52158571Y-78404761D02*
X52015714Y-78452380D01*
X51777619Y-78452380D01*
X51682380Y-78404761D01*
X51634761Y-78357142D01*
X51587142Y-78261904D01*
X51587142Y-78166666D01*
X51634761Y-78071428D01*
X51682380Y-78023809D01*
X51777619Y-77976190D01*
X51968095Y-77928571D01*
X52063333Y-77880952D01*
X52110952Y-77833333D01*
X52158571Y-77738095D01*
X52158571Y-77642857D01*
X52110952Y-77547619D01*
X52063333Y-77500000D01*
X51968095Y-77452380D01*
X51730000Y-77452380D01*
X51587142Y-77500000D01*
X51158571Y-78452380D02*
X51158571Y-77452380D01*
X50110952Y-78357142D02*
X50158571Y-78404761D01*
X50301428Y-78452380D01*
X50396666Y-78452380D01*
X50539523Y-78404761D01*
X50634761Y-78309523D01*
X50682380Y-78214285D01*
X50730000Y-78023809D01*
X50730000Y-77880952D01*
X50682380Y-77690476D01*
X50634761Y-77595238D01*
X50539523Y-77500000D01*
X50396666Y-77452380D01*
X50301428Y-77452380D01*
X50158571Y-77500000D01*
X50110952Y-77547619D01*
X49634761Y-78404761D02*
X49634761Y-78452380D01*
X49682380Y-78547619D01*
X49730000Y-78595238D01*
X48444285Y-78452380D02*
X48444285Y-77452380D01*
X48063333Y-77452380D01*
X47968095Y-77500000D01*
X47920476Y-77547619D01*
X47872857Y-77642857D01*
X47872857Y-77785714D01*
X47920476Y-77880952D01*
X47968095Y-77928571D01*
X48063333Y-77976190D01*
X48444285Y-77976190D01*
X46872857Y-78357142D02*
X46920476Y-78404761D01*
X47063333Y-78452380D01*
X47158571Y-78452380D01*
X47301428Y-78404761D01*
X47396666Y-78309523D01*
X47444285Y-78214285D01*
X47491904Y-78023809D01*
X47491904Y-77880952D01*
X47444285Y-77690476D01*
X47396666Y-77595238D01*
X47301428Y-77500000D01*
X47158571Y-77452380D01*
X47063333Y-77452380D01*
X46920476Y-77500000D01*
X46872857Y-77547619D01*
X46110952Y-77928571D02*
X45968095Y-77976190D01*
X45920476Y-78023809D01*
X45872857Y-78119047D01*
X45872857Y-78261904D01*
X45920476Y-78357142D01*
X45968095Y-78404761D01*
X46063333Y-78452380D01*
X46444285Y-78452380D01*
X46444285Y-77452380D01*
X46110952Y-77452380D01*
X46015714Y-77500000D01*
X45968095Y-77547619D01*
X45920476Y-77642857D01*
X45920476Y-77738095D01*
X45968095Y-77833333D01*
X46015714Y-77880952D01*
X46110952Y-77928571D01*
X46444285Y-77928571D01*
X43872857Y-78452380D02*
X43920476Y-78452380D01*
X44015714Y-78404761D01*
X44158571Y-78261904D01*
X44396666Y-77976190D01*
X44491904Y-77833333D01*
X44539523Y-77690476D01*
X44539523Y-77595238D01*
X44491904Y-77500000D01*
X44396666Y-77452380D01*
X44349047Y-77452380D01*
X44253809Y-77500000D01*
X44206190Y-77595238D01*
X44206190Y-77642857D01*
X44253809Y-77738095D01*
X44301428Y-77785714D01*
X44587142Y-77976190D01*
X44634761Y-78023809D01*
X44682380Y-78119047D01*
X44682380Y-78261904D01*
X44634761Y-78357142D01*
X44587142Y-78404761D01*
X44491904Y-78452380D01*
X44349047Y-78452380D01*
X44253809Y-78404761D01*
X44206190Y-78357142D01*
X44063333Y-78166666D01*
X44015714Y-78023809D01*
X44015714Y-77928571D01*
X42349047Y-77928571D02*
X42682380Y-77928571D01*
X42682380Y-78452380D02*
X42682380Y-77452380D01*
X42206190Y-77452380D01*
X41825238Y-78452380D02*
X41825238Y-77785714D01*
X41825238Y-77452380D02*
X41872857Y-77500000D01*
X41825238Y-77547619D01*
X41777619Y-77500000D01*
X41825238Y-77452380D01*
X41825238Y-77547619D01*
X41349047Y-78452380D02*
X41349047Y-77785714D01*
X41349047Y-77976190D02*
X41301428Y-77880952D01*
X41253809Y-77833333D01*
X41158571Y-77785714D01*
X41063333Y-77785714D01*
X40730000Y-78452380D02*
X40730000Y-77785714D01*
X40730000Y-77880952D02*
X40682380Y-77833333D01*
X40587142Y-77785714D01*
X40444285Y-77785714D01*
X40349047Y-77833333D01*
X40301428Y-77928571D01*
X40301428Y-78452380D01*
X40301428Y-77928571D02*
X40253809Y-77833333D01*
X40158571Y-77785714D01*
X40015714Y-77785714D01*
X39920476Y-77833333D01*
X39872857Y-77928571D01*
X39872857Y-78452380D01*
X39491904Y-77785714D02*
X39301428Y-78452380D01*
X39110952Y-77976190D01*
X38920476Y-78452380D01*
X38730000Y-77785714D01*
X37920476Y-78452380D02*
X37920476Y-77928571D01*
X37968095Y-77833333D01*
X38063333Y-77785714D01*
X38253809Y-77785714D01*
X38349047Y-77833333D01*
X37920476Y-78404761D02*
X38015714Y-78452380D01*
X38253809Y-78452380D01*
X38349047Y-78404761D01*
X38396666Y-78309523D01*
X38396666Y-78214285D01*
X38349047Y-78119047D01*
X38253809Y-78071428D01*
X38015714Y-78071428D01*
X37920476Y-78023809D01*
X37444285Y-78452380D02*
X37444285Y-77785714D01*
X37444285Y-77976190D02*
X37396666Y-77880952D01*
X37349047Y-77833333D01*
X37253809Y-77785714D01*
X37158571Y-77785714D01*
X36444285Y-78404761D02*
X36539523Y-78452380D01*
X36730000Y-78452380D01*
X36825238Y-78404761D01*
X36872857Y-78309523D01*
X36872857Y-77928571D01*
X36825238Y-77833333D01*
X36730000Y-77785714D01*
X36539523Y-77785714D01*
X36444285Y-77833333D01*
X36396666Y-77928571D01*
X36396666Y-78023809D01*
X36872857Y-78119047D01*
X55515714Y-76452380D02*
X55515714Y-75452380D01*
X55182380Y-76166666D01*
X54849047Y-75452380D01*
X54849047Y-76452380D01*
X53944285Y-76452380D02*
X53944285Y-75928571D01*
X53991904Y-75833333D01*
X54087142Y-75785714D01*
X54277619Y-75785714D01*
X54372857Y-75833333D01*
X53944285Y-76404761D02*
X54039523Y-76452380D01*
X54277619Y-76452380D01*
X54372857Y-76404761D01*
X54420476Y-76309523D01*
X54420476Y-76214285D01*
X54372857Y-76119047D01*
X54277619Y-76071428D01*
X54039523Y-76071428D01*
X53944285Y-76023809D01*
X53610952Y-75785714D02*
X53230000Y-75785714D01*
X53468095Y-75452380D02*
X53468095Y-76309523D01*
X53420476Y-76404761D01*
X53325238Y-76452380D01*
X53230000Y-76452380D01*
X53039523Y-75785714D02*
X52658571Y-75785714D01*
X52896666Y-75452380D02*
X52896666Y-76309523D01*
X52849047Y-76404761D01*
X52753809Y-76452380D01*
X52658571Y-76452380D01*
X51706190Y-75452380D02*
X51372857Y-76452380D01*
X51039523Y-75452380D01*
X50325238Y-76404761D02*
X50420476Y-76452380D01*
X50610952Y-76452380D01*
X50706190Y-76404761D01*
X50753809Y-76309523D01*
X50753809Y-75928571D01*
X50706190Y-75833333D01*
X50610952Y-75785714D01*
X50420476Y-75785714D01*
X50325238Y-75833333D01*
X50277619Y-75928571D01*
X50277619Y-76023809D01*
X50753809Y-76119047D01*
X49849047Y-75785714D02*
X49849047Y-76452380D01*
X49849047Y-75880952D02*
X49801428Y-75833333D01*
X49706190Y-75785714D01*
X49563333Y-75785714D01*
X49468095Y-75833333D01*
X49420476Y-75928571D01*
X49420476Y-76452380D01*
X48944285Y-75785714D02*
X48944285Y-76452380D01*
X48944285Y-75880952D02*
X48896666Y-75833333D01*
X48801428Y-75785714D01*
X48658571Y-75785714D01*
X48563333Y-75833333D01*
X48515714Y-75928571D01*
X48515714Y-76452380D01*
X47325238Y-75547619D02*
X47277619Y-75500000D01*
X47182380Y-75452380D01*
X46944285Y-75452380D01*
X46849047Y-75500000D01*
X46801428Y-75547619D01*
X46753809Y-75642857D01*
X46753809Y-75738095D01*
X46801428Y-75880952D01*
X47372857Y-76452380D01*
X46753809Y-76452380D01*
X46134761Y-75452380D02*
X46039523Y-75452380D01*
X45944285Y-75500000D01*
X45896666Y-75547619D01*
X45849047Y-75642857D01*
X45801428Y-75833333D01*
X45801428Y-76071428D01*
X45849047Y-76261904D01*
X45896666Y-76357142D01*
X45944285Y-76404761D01*
X46039523Y-76452380D01*
X46134761Y-76452380D01*
X46230000Y-76404761D01*
X46277619Y-76357142D01*
X46325238Y-76261904D01*
X46372857Y-76071428D01*
X46372857Y-75833333D01*
X46325238Y-75642857D01*
X46277619Y-75547619D01*
X46230000Y-75500000D01*
X46134761Y-75452380D01*
X45420476Y-75547619D02*
X45372857Y-75500000D01*
X45277619Y-75452380D01*
X45039523Y-75452380D01*
X44944285Y-75500000D01*
X44896666Y-75547619D01*
X44849047Y-75642857D01*
X44849047Y-75738095D01*
X44896666Y-75880952D01*
X45468095Y-76452380D01*
X44849047Y-76452380D01*
X43896666Y-76452380D02*
X44468095Y-76452380D01*
X44182380Y-76452380D02*
X44182380Y-75452380D01*
X44277619Y-75595238D01*
X44372857Y-75690476D01*
X44468095Y-75738095D01*
X58287142Y-74452380D02*
X58287142Y-73452380D01*
X58287142Y-73833333D02*
X58191904Y-73785714D01*
X58001428Y-73785714D01*
X57906190Y-73833333D01*
X57858571Y-73880952D01*
X57810952Y-73976190D01*
X57810952Y-74261904D01*
X57858571Y-74357142D01*
X57906190Y-74404761D01*
X58001428Y-74452380D01*
X58191904Y-74452380D01*
X58287142Y-74404761D01*
X57239523Y-74452380D02*
X57334761Y-74404761D01*
X57382380Y-74357142D01*
X57430000Y-74261904D01*
X57430000Y-73976190D01*
X57382380Y-73880952D01*
X57334761Y-73833333D01*
X57239523Y-73785714D01*
X57096666Y-73785714D01*
X57001428Y-73833333D01*
X56953809Y-73880952D01*
X56906190Y-73976190D01*
X56906190Y-74261904D01*
X56953809Y-74357142D01*
X57001428Y-74404761D01*
X57096666Y-74452380D01*
X57239523Y-74452380D01*
X56049047Y-74452380D02*
X56049047Y-73928571D01*
X56096666Y-73833333D01*
X56191904Y-73785714D01*
X56382380Y-73785714D01*
X56477619Y-73833333D01*
X56049047Y-74404761D02*
X56144285Y-74452380D01*
X56382380Y-74452380D01*
X56477619Y-74404761D01*
X56525238Y-74309523D01*
X56525238Y-74214285D01*
X56477619Y-74119047D01*
X56382380Y-74071428D01*
X56144285Y-74071428D01*
X56049047Y-74023809D01*
X55572857Y-74452380D02*
X55572857Y-73785714D01*
X55572857Y-73976190D02*
X55525238Y-73880952D01*
X55477619Y-73833333D01*
X55382380Y-73785714D01*
X55287142Y-73785714D01*
X54525238Y-74452380D02*
X54525238Y-73452380D01*
X54525238Y-74404761D02*
X54620476Y-74452380D01*
X54810952Y-74452380D01*
X54906190Y-74404761D01*
X54953809Y-74357142D01*
X55001428Y-74261904D01*
X55001428Y-73976190D01*
X54953809Y-73880952D01*
X54906190Y-73833333D01*
X54810952Y-73785714D01*
X54620476Y-73785714D01*
X54525238Y-73833333D01*
X54096666Y-74404761D02*
X54001428Y-74452380D01*
X53810952Y-74452380D01*
X53715714Y-74404761D01*
X53668095Y-74309523D01*
X53668095Y-74261904D01*
X53715714Y-74166666D01*
X53810952Y-74119047D01*
X53953809Y-74119047D01*
X54049047Y-74071428D01*
X54096666Y-73976190D01*
X54096666Y-73928571D01*
X54049047Y-73833333D01*
X53953809Y-73785714D01*
X53810952Y-73785714D01*
X53715714Y-73833333D01*
X52477619Y-74452380D02*
X52477619Y-73452380D01*
X52477619Y-73833333D02*
X52382380Y-73785714D01*
X52191904Y-73785714D01*
X52096666Y-73833333D01*
X52049047Y-73880952D01*
X52001428Y-73976190D01*
X52001428Y-74261904D01*
X52049047Y-74357142D01*
X52096666Y-74404761D01*
X52191904Y-74452380D01*
X52382380Y-74452380D01*
X52477619Y-74404761D01*
X51668095Y-73785714D02*
X51430000Y-74452380D01*
X51191904Y-73785714D02*
X51430000Y-74452380D01*
X51525238Y-74690476D01*
X51572857Y-74738095D01*
X51668095Y-74785714D01*
X49858571Y-73452380D02*
X49668095Y-73452380D01*
X49572857Y-73500000D01*
X49477619Y-73595238D01*
X49430000Y-73785714D01*
X49430000Y-74119047D01*
X49477619Y-74309523D01*
X49572857Y-74404761D01*
X49668095Y-74452380D01*
X49858571Y-74452380D01*
X49953809Y-74404761D01*
X50049047Y-74309523D01*
X50096666Y-74119047D01*
X50096666Y-73785714D01*
X50049047Y-73595238D01*
X49953809Y-73500000D01*
X49858571Y-73452380D01*
X49049047Y-74404761D02*
X48906190Y-74452380D01*
X48668095Y-74452380D01*
X48572857Y-74404761D01*
X48525238Y-74357142D01*
X48477619Y-74261904D01*
X48477619Y-74166666D01*
X48525238Y-74071428D01*
X48572857Y-74023809D01*
X48668095Y-73976190D01*
X48858571Y-73928571D01*
X48953809Y-73880952D01*
X49001428Y-73833333D01*
X49049047Y-73738095D01*
X49049047Y-73642857D01*
X49001428Y-73547619D01*
X48953809Y-73500000D01*
X48858571Y-73452380D01*
X48620476Y-73452380D01*
X48477619Y-73500000D01*
X48049047Y-74452380D02*
X48049047Y-73452380D01*
X48049047Y-73928571D02*
X47477619Y-73928571D01*
X47477619Y-74452380D02*
X47477619Y-73452380D01*
X47001428Y-74452380D02*
X47001428Y-73452380D01*
X46620476Y-73452380D01*
X46525238Y-73500000D01*
X46477619Y-73547619D01*
X46430000Y-73642857D01*
X46430000Y-73785714D01*
X46477619Y-73880952D01*
X46525238Y-73928571D01*
X46620476Y-73976190D01*
X47001428Y-73976190D01*
X45572857Y-74452380D02*
X45572857Y-73928571D01*
X45620476Y-73833333D01*
X45715714Y-73785714D01*
X45906190Y-73785714D01*
X46001428Y-73833333D01*
X45572857Y-74404761D02*
X45668095Y-74452380D01*
X45906190Y-74452380D01*
X46001428Y-74404761D01*
X46049047Y-74309523D01*
X46049047Y-74214285D01*
X46001428Y-74119047D01*
X45906190Y-74071428D01*
X45668095Y-74071428D01*
X45572857Y-74023809D01*
X45096666Y-74452380D02*
X45096666Y-73785714D01*
X45096666Y-73976190D02*
X45049047Y-73880952D01*
X45001428Y-73833333D01*
X44906190Y-73785714D01*
X44810952Y-73785714D01*
X44477619Y-74452380D02*
X44477619Y-73452380D01*
X44382380Y-74071428D02*
X44096666Y-74452380D01*
X44096666Y-73785714D02*
X44477619Y-74166666D01*
X43668095Y-74357142D02*
X43620476Y-74404761D01*
X43668095Y-74452380D01*
X43715714Y-74404761D01*
X43668095Y-74357142D01*
X43668095Y-74452380D01*
X42763333Y-74404761D02*
X42858571Y-74452380D01*
X43049047Y-74452380D01*
X43144285Y-74404761D01*
X43191904Y-74357142D01*
X43239523Y-74261904D01*
X43239523Y-73976190D01*
X43191904Y-73880952D01*
X43144285Y-73833333D01*
X43049047Y-73785714D01*
X42858571Y-73785714D01*
X42763333Y-73833333D01*
X42191904Y-74452380D02*
X42287142Y-74404761D01*
X42334761Y-74357142D01*
X42382380Y-74261904D01*
X42382380Y-73976190D01*
X42334761Y-73880952D01*
X42287142Y-73833333D01*
X42191904Y-73785714D01*
X42049047Y-73785714D01*
X41953809Y-73833333D01*
X41906190Y-73880952D01*
X41858571Y-73976190D01*
X41858571Y-74261904D01*
X41906190Y-74357142D01*
X41953809Y-74404761D01*
X42049047Y-74452380D01*
X42191904Y-74452380D01*
X41430000Y-74452380D02*
X41430000Y-73785714D01*
X41430000Y-73880952D02*
X41382380Y-73833333D01*
X41287142Y-73785714D01*
X41144285Y-73785714D01*
X41049047Y-73833333D01*
X41001428Y-73928571D01*
X41001428Y-74452380D01*
X41001428Y-73928571D02*
X40953809Y-73833333D01*
X40858571Y-73785714D01*
X40715714Y-73785714D01*
X40620476Y-73833333D01*
X40572857Y-73928571D01*
X40572857Y-74452380D01*
D13*
G04 #@! TO.C,G\u002A\u002A\u002A*
G36*
X46864851Y-69451023D02*
G01*
X46841745Y-69454930D01*
X46701171Y-69482026D01*
X46607248Y-69507696D01*
X46550687Y-69538037D01*
X46522198Y-69579147D01*
X46512493Y-69637123D01*
X46511778Y-69671530D01*
X46513229Y-69745688D01*
X46516887Y-69789136D01*
X46518833Y-69793870D01*
X46546433Y-69783920D01*
X46611697Y-69758036D01*
X46695222Y-69723984D01*
X46868207Y-69671596D01*
X47031314Y-69656866D01*
X47177767Y-69676355D01*
X47300792Y-69726624D01*
X47393614Y-69804231D01*
X47449456Y-69905740D01*
X47461544Y-70027709D01*
X47446214Y-70105218D01*
X47419737Y-70170337D01*
X47378368Y-70222245D01*
X47313173Y-70266145D01*
X47215218Y-70307239D01*
X47075567Y-70350731D01*
X46979246Y-70377160D01*
X46773738Y-70442797D01*
X46619029Y-70519318D01*
X46509706Y-70612470D01*
X46440358Y-70728005D01*
X46405573Y-70871671D01*
X46398889Y-70993722D01*
X46418043Y-71184237D01*
X46476555Y-71336297D01*
X46575996Y-71451343D01*
X46717939Y-71530816D01*
X46903956Y-71576156D01*
X47047498Y-71587947D01*
X47167472Y-71590153D01*
X47273250Y-71588826D01*
X47346337Y-71584291D01*
X47358444Y-71582487D01*
X47427894Y-71565640D01*
X47521412Y-71538845D01*
X47563055Y-71525856D01*
X47697111Y-71482797D01*
X47697111Y-71343954D01*
X47694955Y-71264177D01*
X47689453Y-71213971D01*
X47685319Y-71205112D01*
X47655813Y-71216773D01*
X47591317Y-71247019D01*
X47523811Y-71280309D01*
X47394042Y-71329194D01*
X47243290Y-71361164D01*
X47090801Y-71374251D01*
X46955821Y-71366488D01*
X46878696Y-71346235D01*
X46758193Y-71268883D01*
X46681711Y-71157611D01*
X46653011Y-71018057D01*
X46652889Y-71007556D01*
X46672471Y-70874239D01*
X46733962Y-70772648D01*
X46841481Y-70698031D01*
X46957368Y-70656202D01*
X47135104Y-70606612D01*
X47267786Y-70567132D01*
X47365075Y-70533992D01*
X47436629Y-70503425D01*
X47492107Y-70471662D01*
X47541168Y-70434935D01*
X47555573Y-70422818D01*
X47658876Y-70299627D01*
X47712497Y-70150551D01*
X47715598Y-69977995D01*
X47714263Y-69967702D01*
X47664740Y-69791633D01*
X47571853Y-69647700D01*
X47440511Y-69538786D01*
X47275623Y-69467778D01*
X47082100Y-69437562D01*
X46864851Y-69451023D01*
G37*
X46864851Y-69451023D02*
X46841745Y-69454930D01*
X46701171Y-69482026D01*
X46607248Y-69507696D01*
X46550687Y-69538037D01*
X46522198Y-69579147D01*
X46512493Y-69637123D01*
X46511778Y-69671530D01*
X46513229Y-69745688D01*
X46516887Y-69789136D01*
X46518833Y-69793870D01*
X46546433Y-69783920D01*
X46611697Y-69758036D01*
X46695222Y-69723984D01*
X46868207Y-69671596D01*
X47031314Y-69656866D01*
X47177767Y-69676355D01*
X47300792Y-69726624D01*
X47393614Y-69804231D01*
X47449456Y-69905740D01*
X47461544Y-70027709D01*
X47446214Y-70105218D01*
X47419737Y-70170337D01*
X47378368Y-70222245D01*
X47313173Y-70266145D01*
X47215218Y-70307239D01*
X47075567Y-70350731D01*
X46979246Y-70377160D01*
X46773738Y-70442797D01*
X46619029Y-70519318D01*
X46509706Y-70612470D01*
X46440358Y-70728005D01*
X46405573Y-70871671D01*
X46398889Y-70993722D01*
X46418043Y-71184237D01*
X46476555Y-71336297D01*
X46575996Y-71451343D01*
X46717939Y-71530816D01*
X46903956Y-71576156D01*
X47047498Y-71587947D01*
X47167472Y-71590153D01*
X47273250Y-71588826D01*
X47346337Y-71584291D01*
X47358444Y-71582487D01*
X47427894Y-71565640D01*
X47521412Y-71538845D01*
X47563055Y-71525856D01*
X47697111Y-71482797D01*
X47697111Y-71343954D01*
X47694955Y-71264177D01*
X47689453Y-71213971D01*
X47685319Y-71205112D01*
X47655813Y-71216773D01*
X47591317Y-71247019D01*
X47523811Y-71280309D01*
X47394042Y-71329194D01*
X47243290Y-71361164D01*
X47090801Y-71374251D01*
X46955821Y-71366488D01*
X46878696Y-71346235D01*
X46758193Y-71268883D01*
X46681711Y-71157611D01*
X46653011Y-71018057D01*
X46652889Y-71007556D01*
X46672471Y-70874239D01*
X46733962Y-70772648D01*
X46841481Y-70698031D01*
X46957368Y-70656202D01*
X47135104Y-70606612D01*
X47267786Y-70567132D01*
X47365075Y-70533992D01*
X47436629Y-70503425D01*
X47492107Y-70471662D01*
X47541168Y-70434935D01*
X47555573Y-70422818D01*
X47658876Y-70299627D01*
X47712497Y-70150551D01*
X47715598Y-69977995D01*
X47714263Y-69967702D01*
X47664740Y-69791633D01*
X47571853Y-69647700D01*
X47440511Y-69538786D01*
X47275623Y-69467778D01*
X47082100Y-69437562D01*
X46864851Y-69451023D01*
G36*
X45148676Y-69456601D02*
G01*
X45007615Y-69528919D01*
X44883118Y-69643821D01*
X44782797Y-69801271D01*
X44734552Y-69925139D01*
X44685181Y-70140766D01*
X44659733Y-70379116D01*
X44657739Y-70624629D01*
X44678729Y-70861741D01*
X44722233Y-71074892D01*
X44773619Y-71219223D01*
X44876070Y-71385396D01*
X45008641Y-71506648D01*
X45165379Y-71580188D01*
X45340331Y-71603222D01*
X45527545Y-71572959D01*
X45527674Y-71572920D01*
X45665682Y-71502038D01*
X45784198Y-71380156D01*
X45862761Y-71248211D01*
X45934491Y-71050112D01*
X45979869Y-70816767D01*
X45988429Y-70698903D01*
X45714623Y-70698903D01*
X45690421Y-70938205D01*
X45641238Y-71126892D01*
X45567074Y-71264965D01*
X45467928Y-71352423D01*
X45456081Y-71358664D01*
X45340556Y-71386779D01*
X45217754Y-71368054D01*
X45153110Y-71337174D01*
X45072171Y-71254996D01*
X45009144Y-71123078D01*
X44964973Y-70945512D01*
X44940602Y-70726393D01*
X44936974Y-70469815D01*
X44939044Y-70408985D01*
X44950560Y-70211185D01*
X44968025Y-70059571D01*
X44994132Y-69943979D01*
X45031579Y-69854246D01*
X45083059Y-69780206D01*
X45114864Y-69745936D01*
X45188720Y-69683797D01*
X45261127Y-69657129D01*
X45326444Y-69652889D01*
X45414801Y-69662087D01*
X45484678Y-69697991D01*
X45538024Y-69745936D01*
X45597522Y-69815943D01*
X45641641Y-69896568D01*
X45673074Y-69997976D01*
X45694519Y-70130329D01*
X45708669Y-70303793D01*
X45713845Y-70408985D01*
X45714623Y-70698903D01*
X45988429Y-70698903D01*
X45998289Y-70563163D01*
X45989145Y-70304285D01*
X45951832Y-70055119D01*
X45916484Y-69919140D01*
X45835937Y-69735137D01*
X45726270Y-69593951D01*
X45595096Y-69495543D01*
X45450030Y-69439874D01*
X45298685Y-69426906D01*
X45148676Y-69456601D01*
G37*
X45148676Y-69456601D02*
X45007615Y-69528919D01*
X44883118Y-69643821D01*
X44782797Y-69801271D01*
X44734552Y-69925139D01*
X44685181Y-70140766D01*
X44659733Y-70379116D01*
X44657739Y-70624629D01*
X44678729Y-70861741D01*
X44722233Y-71074892D01*
X44773619Y-71219223D01*
X44876070Y-71385396D01*
X45008641Y-71506648D01*
X45165379Y-71580188D01*
X45340331Y-71603222D01*
X45527545Y-71572959D01*
X45527674Y-71572920D01*
X45665682Y-71502038D01*
X45784198Y-71380156D01*
X45862761Y-71248211D01*
X45934491Y-71050112D01*
X45979869Y-70816767D01*
X45988429Y-70698903D01*
X45714623Y-70698903D01*
X45690421Y-70938205D01*
X45641238Y-71126892D01*
X45567074Y-71264965D01*
X45467928Y-71352423D01*
X45456081Y-71358664D01*
X45340556Y-71386779D01*
X45217754Y-71368054D01*
X45153110Y-71337174D01*
X45072171Y-71254996D01*
X45009144Y-71123078D01*
X44964973Y-70945512D01*
X44940602Y-70726393D01*
X44936974Y-70469815D01*
X44939044Y-70408985D01*
X44950560Y-70211185D01*
X44968025Y-70059571D01*
X44994132Y-69943979D01*
X45031579Y-69854246D01*
X45083059Y-69780206D01*
X45114864Y-69745936D01*
X45188720Y-69683797D01*
X45261127Y-69657129D01*
X45326444Y-69652889D01*
X45414801Y-69662087D01*
X45484678Y-69697991D01*
X45538024Y-69745936D01*
X45597522Y-69815943D01*
X45641641Y-69896568D01*
X45673074Y-69997976D01*
X45694519Y-70130329D01*
X45708669Y-70303793D01*
X45713845Y-70408985D01*
X45714623Y-70698903D01*
X45988429Y-70698903D01*
X45998289Y-70563163D01*
X45989145Y-70304285D01*
X45951832Y-70055119D01*
X45916484Y-69919140D01*
X45835937Y-69735137D01*
X45726270Y-69593951D01*
X45595096Y-69495543D01*
X45450030Y-69439874D01*
X45298685Y-69426906D01*
X45148676Y-69456601D01*
G36*
X43423698Y-69460648D02*
G01*
X43284686Y-69518772D01*
X43168227Y-69620843D01*
X43068804Y-69771276D01*
X43005112Y-69910910D01*
X42981257Y-69977455D01*
X42964455Y-70045851D01*
X42953475Y-70127823D01*
X42947085Y-70235096D01*
X42944054Y-70379396D01*
X42943299Y-70499556D01*
X42946161Y-70726071D01*
X42957803Y-70907021D01*
X42980427Y-71052903D01*
X43016233Y-71174211D01*
X43067422Y-71281441D01*
X43126113Y-71371349D01*
X43243829Y-71488301D01*
X43391626Y-71565112D01*
X43557052Y-71598752D01*
X43727657Y-71586189D01*
X43846774Y-71546803D01*
X43982761Y-71455366D01*
X44096421Y-71318510D01*
X44180512Y-71145212D01*
X44187523Y-71124681D01*
X44208776Y-71048492D01*
X44223640Y-70963148D01*
X44233097Y-70857162D01*
X44238127Y-70719046D01*
X44239713Y-70537313D01*
X44239719Y-70513667D01*
X44239581Y-70499556D01*
X43982339Y-70499556D01*
X43979672Y-70699464D01*
X43971028Y-70864754D01*
X43956967Y-70987063D01*
X43946403Y-71035519D01*
X43881573Y-71192460D01*
X43794271Y-71305203D01*
X43689705Y-71370900D01*
X43573081Y-71386707D01*
X43449605Y-71349775D01*
X43411749Y-71327820D01*
X43341777Y-71252529D01*
X43285089Y-71132405D01*
X43242034Y-70977557D01*
X43212965Y-70798095D01*
X43198230Y-70604129D01*
X43198182Y-70405768D01*
X43213170Y-70213122D01*
X43243546Y-70036301D01*
X43289661Y-69885415D01*
X43351864Y-69770572D01*
X43357475Y-69763333D01*
X43447723Y-69691044D01*
X43561456Y-69656420D01*
X43679462Y-69661871D01*
X43782526Y-69709808D01*
X43782740Y-69709976D01*
X43832705Y-69767610D01*
X43885674Y-69856584D01*
X43918342Y-69928698D01*
X43944011Y-70001490D01*
X43961778Y-70073996D01*
X43973071Y-70158961D01*
X43979320Y-70269130D01*
X43981954Y-70417250D01*
X43982339Y-70499556D01*
X44239581Y-70499556D01*
X44237685Y-70306272D01*
X44230325Y-70144368D01*
X44215488Y-70017091D01*
X44191024Y-69913578D01*
X44154783Y-69822965D01*
X44104614Y-69734387D01*
X44077227Y-69692748D01*
X43963100Y-69562236D01*
X43827627Y-69480967D01*
X43662807Y-69444818D01*
X43590778Y-69442054D01*
X43423698Y-69460648D01*
G37*
X43423698Y-69460648D02*
X43284686Y-69518772D01*
X43168227Y-69620843D01*
X43068804Y-69771276D01*
X43005112Y-69910910D01*
X42981257Y-69977455D01*
X42964455Y-70045851D01*
X42953475Y-70127823D01*
X42947085Y-70235096D01*
X42944054Y-70379396D01*
X42943299Y-70499556D01*
X42946161Y-70726071D01*
X42957803Y-70907021D01*
X42980427Y-71052903D01*
X43016233Y-71174211D01*
X43067422Y-71281441D01*
X43126113Y-71371349D01*
X43243829Y-71488301D01*
X43391626Y-71565112D01*
X43557052Y-71598752D01*
X43727657Y-71586189D01*
X43846774Y-71546803D01*
X43982761Y-71455366D01*
X44096421Y-71318510D01*
X44180512Y-71145212D01*
X44187523Y-71124681D01*
X44208776Y-71048492D01*
X44223640Y-70963148D01*
X44233097Y-70857162D01*
X44238127Y-70719046D01*
X44239713Y-70537313D01*
X44239719Y-70513667D01*
X44239581Y-70499556D01*
X43982339Y-70499556D01*
X43979672Y-70699464D01*
X43971028Y-70864754D01*
X43956967Y-70987063D01*
X43946403Y-71035519D01*
X43881573Y-71192460D01*
X43794271Y-71305203D01*
X43689705Y-71370900D01*
X43573081Y-71386707D01*
X43449605Y-71349775D01*
X43411749Y-71327820D01*
X43341777Y-71252529D01*
X43285089Y-71132405D01*
X43242034Y-70977557D01*
X43212965Y-70798095D01*
X43198230Y-70604129D01*
X43198182Y-70405768D01*
X43213170Y-70213122D01*
X43243546Y-70036301D01*
X43289661Y-69885415D01*
X43351864Y-69770572D01*
X43357475Y-69763333D01*
X43447723Y-69691044D01*
X43561456Y-69656420D01*
X43679462Y-69661871D01*
X43782526Y-69709808D01*
X43782740Y-69709976D01*
X43832705Y-69767610D01*
X43885674Y-69856584D01*
X43918342Y-69928698D01*
X43944011Y-70001490D01*
X43961778Y-70073996D01*
X43973071Y-70158961D01*
X43979320Y-70269130D01*
X43981954Y-70417250D01*
X43982339Y-70499556D01*
X44239581Y-70499556D01*
X44237685Y-70306272D01*
X44230325Y-70144368D01*
X44215488Y-70017091D01*
X44191024Y-69913578D01*
X44154783Y-69822965D01*
X44104614Y-69734387D01*
X44077227Y-69692748D01*
X43963100Y-69562236D01*
X43827627Y-69480967D01*
X43662807Y-69444818D01*
X43590778Y-69442054D01*
X43423698Y-69460648D01*
G36*
X41662432Y-69469422D02*
G01*
X41514841Y-69553412D01*
X41389292Y-69683378D01*
X41292318Y-69856740D01*
X41287588Y-69868372D01*
X41262643Y-69935789D01*
X41244835Y-70000599D01*
X41232961Y-70074172D01*
X41225821Y-70167877D01*
X41222211Y-70293083D01*
X41220929Y-70461159D01*
X41220848Y-70499556D01*
X41223884Y-70731375D01*
X41235154Y-70916517D01*
X41256681Y-71064407D01*
X41290483Y-71184470D01*
X41338582Y-71286131D01*
X41402997Y-71378813D01*
X41411591Y-71389382D01*
X41539189Y-71502062D01*
X41694701Y-71572875D01*
X41865314Y-71599033D01*
X42038216Y-71577750D01*
X42128536Y-71545318D01*
X42251653Y-71460895D01*
X42359604Y-71330814D01*
X42444600Y-71165378D01*
X42469684Y-71094023D01*
X42495104Y-70973858D01*
X42512088Y-70814863D01*
X42520707Y-70632076D01*
X42520966Y-70478975D01*
X42263082Y-70478975D01*
X42257742Y-70694775D01*
X42235881Y-70895404D01*
X42198926Y-71066779D01*
X42157727Y-71176889D01*
X42075111Y-71296283D01*
X41973226Y-71367163D01*
X41859264Y-71387306D01*
X41740417Y-71354489D01*
X41687714Y-71322182D01*
X41604427Y-71229629D01*
X41539353Y-71089182D01*
X41493824Y-70906811D01*
X41469175Y-70688484D01*
X41466737Y-70440169D01*
X41471062Y-70352214D01*
X41498720Y-70111360D01*
X41547885Y-69920430D01*
X41618192Y-69780106D01*
X41709274Y-69691070D01*
X41820764Y-69654006D01*
X41846207Y-69652889D01*
X41969646Y-69671760D01*
X42068605Y-69730593D01*
X42145295Y-69832720D01*
X42201927Y-69981472D01*
X42240712Y-70180179D01*
X42250473Y-70262086D01*
X42263082Y-70478975D01*
X42520966Y-70478975D01*
X42521032Y-70440537D01*
X42513133Y-70255286D01*
X42497082Y-70091360D01*
X42472949Y-69963801D01*
X42464227Y-69935112D01*
X42382050Y-69745407D01*
X42283265Y-69606713D01*
X42172115Y-69519104D01*
X41997603Y-69449688D01*
X41825531Y-69433987D01*
X41662432Y-69469422D01*
G37*
X41662432Y-69469422D02*
X41514841Y-69553412D01*
X41389292Y-69683378D01*
X41292318Y-69856740D01*
X41287588Y-69868372D01*
X41262643Y-69935789D01*
X41244835Y-70000599D01*
X41232961Y-70074172D01*
X41225821Y-70167877D01*
X41222211Y-70293083D01*
X41220929Y-70461159D01*
X41220848Y-70499556D01*
X41223884Y-70731375D01*
X41235154Y-70916517D01*
X41256681Y-71064407D01*
X41290483Y-71184470D01*
X41338582Y-71286131D01*
X41402997Y-71378813D01*
X41411591Y-71389382D01*
X41539189Y-71502062D01*
X41694701Y-71572875D01*
X41865314Y-71599033D01*
X42038216Y-71577750D01*
X42128536Y-71545318D01*
X42251653Y-71460895D01*
X42359604Y-71330814D01*
X42444600Y-71165378D01*
X42469684Y-71094023D01*
X42495104Y-70973858D01*
X42512088Y-70814863D01*
X42520707Y-70632076D01*
X42520966Y-70478975D01*
X42263082Y-70478975D01*
X42257742Y-70694775D01*
X42235881Y-70895404D01*
X42198926Y-71066779D01*
X42157727Y-71176889D01*
X42075111Y-71296283D01*
X41973226Y-71367163D01*
X41859264Y-71387306D01*
X41740417Y-71354489D01*
X41687714Y-71322182D01*
X41604427Y-71229629D01*
X41539353Y-71089182D01*
X41493824Y-70906811D01*
X41469175Y-70688484D01*
X41466737Y-70440169D01*
X41471062Y-70352214D01*
X41498720Y-70111360D01*
X41547885Y-69920430D01*
X41618192Y-69780106D01*
X41709274Y-69691070D01*
X41820764Y-69654006D01*
X41846207Y-69652889D01*
X41969646Y-69671760D01*
X42068605Y-69730593D01*
X42145295Y-69832720D01*
X42201927Y-69981472D01*
X42240712Y-70180179D01*
X42250473Y-70262086D01*
X42263082Y-70478975D01*
X42520966Y-70478975D01*
X42521032Y-70440537D01*
X42513133Y-70255286D01*
X42497082Y-70091360D01*
X42472949Y-69963801D01*
X42464227Y-69935112D01*
X42382050Y-69745407D01*
X42283265Y-69606713D01*
X42172115Y-69519104D01*
X41997603Y-69449688D01*
X41825531Y-69433987D01*
X41662432Y-69469422D01*
G36*
X39955787Y-69456601D02*
G01*
X39814726Y-69528919D01*
X39690229Y-69643821D01*
X39589908Y-69801271D01*
X39541663Y-69925139D01*
X39492292Y-70140766D01*
X39466845Y-70379116D01*
X39464851Y-70624629D01*
X39485840Y-70861741D01*
X39529344Y-71074892D01*
X39580730Y-71219223D01*
X39683182Y-71385396D01*
X39815752Y-71506648D01*
X39972490Y-71580188D01*
X40147442Y-71603222D01*
X40334656Y-71572959D01*
X40334785Y-71572920D01*
X40472793Y-71502038D01*
X40591309Y-71380156D01*
X40669872Y-71248211D01*
X40741602Y-71050112D01*
X40786980Y-70816767D01*
X40795540Y-70698903D01*
X40521735Y-70698903D01*
X40497532Y-70938205D01*
X40448349Y-71126892D01*
X40374185Y-71264965D01*
X40275040Y-71352423D01*
X40263193Y-71358664D01*
X40147667Y-71386779D01*
X40024865Y-71368054D01*
X39960221Y-71337174D01*
X39879282Y-71254996D01*
X39816255Y-71123078D01*
X39772084Y-70945512D01*
X39747713Y-70726393D01*
X39744085Y-70469815D01*
X39746155Y-70408985D01*
X39757671Y-70211185D01*
X39775136Y-70059571D01*
X39801244Y-69943979D01*
X39838690Y-69854246D01*
X39890171Y-69780206D01*
X39921976Y-69745936D01*
X39995831Y-69683797D01*
X40068238Y-69657129D01*
X40133555Y-69652889D01*
X40221912Y-69662087D01*
X40291789Y-69697991D01*
X40345135Y-69745936D01*
X40404633Y-69815943D01*
X40448752Y-69896568D01*
X40480185Y-69997976D01*
X40501630Y-70130329D01*
X40515780Y-70303793D01*
X40520956Y-70408985D01*
X40521735Y-70698903D01*
X40795540Y-70698903D01*
X40805400Y-70563163D01*
X40796256Y-70304285D01*
X40758943Y-70055119D01*
X40723595Y-69919140D01*
X40643048Y-69735137D01*
X40533381Y-69593951D01*
X40402207Y-69495543D01*
X40257141Y-69439874D01*
X40105796Y-69426906D01*
X39955787Y-69456601D01*
G37*
X39955787Y-69456601D02*
X39814726Y-69528919D01*
X39690229Y-69643821D01*
X39589908Y-69801271D01*
X39541663Y-69925139D01*
X39492292Y-70140766D01*
X39466845Y-70379116D01*
X39464851Y-70624629D01*
X39485840Y-70861741D01*
X39529344Y-71074892D01*
X39580730Y-71219223D01*
X39683182Y-71385396D01*
X39815752Y-71506648D01*
X39972490Y-71580188D01*
X40147442Y-71603222D01*
X40334656Y-71572959D01*
X40334785Y-71572920D01*
X40472793Y-71502038D01*
X40591309Y-71380156D01*
X40669872Y-71248211D01*
X40741602Y-71050112D01*
X40786980Y-70816767D01*
X40795540Y-70698903D01*
X40521735Y-70698903D01*
X40497532Y-70938205D01*
X40448349Y-71126892D01*
X40374185Y-71264965D01*
X40275040Y-71352423D01*
X40263193Y-71358664D01*
X40147667Y-71386779D01*
X40024865Y-71368054D01*
X39960221Y-71337174D01*
X39879282Y-71254996D01*
X39816255Y-71123078D01*
X39772084Y-70945512D01*
X39747713Y-70726393D01*
X39744085Y-70469815D01*
X39746155Y-70408985D01*
X39757671Y-70211185D01*
X39775136Y-70059571D01*
X39801244Y-69943979D01*
X39838690Y-69854246D01*
X39890171Y-69780206D01*
X39921976Y-69745936D01*
X39995831Y-69683797D01*
X40068238Y-69657129D01*
X40133555Y-69652889D01*
X40221912Y-69662087D01*
X40291789Y-69697991D01*
X40345135Y-69745936D01*
X40404633Y-69815943D01*
X40448752Y-69896568D01*
X40480185Y-69997976D01*
X40501630Y-70130329D01*
X40515780Y-70303793D01*
X40520956Y-70408985D01*
X40521735Y-70698903D01*
X40795540Y-70698903D01*
X40805400Y-70563163D01*
X40796256Y-70304285D01*
X40758943Y-70055119D01*
X40723595Y-69919140D01*
X40643048Y-69735137D01*
X40533381Y-69593951D01*
X40402207Y-69495543D01*
X40257141Y-69439874D01*
X40105796Y-69426906D01*
X39955787Y-69456601D01*
G36*
X36450291Y-69483959D02*
G01*
X36291089Y-69572279D01*
X36235808Y-69621107D01*
X36142202Y-69747286D01*
X36091373Y-69887731D01*
X36082248Y-70031366D01*
X36113752Y-70167116D01*
X36184810Y-70283903D01*
X36294348Y-70370652D01*
X36309251Y-70378148D01*
X36382132Y-70418192D01*
X36402502Y-70448688D01*
X36371526Y-70477556D01*
X36326871Y-70498183D01*
X36219089Y-70566506D01*
X36124706Y-70667374D01*
X36071351Y-70762449D01*
X36053843Y-70837424D01*
X36043026Y-70938901D01*
X36041333Y-70993445D01*
X36053529Y-71148943D01*
X36094275Y-71270537D01*
X36169811Y-71376167D01*
X36177184Y-71384085D01*
X36290060Y-71481063D01*
X36419451Y-71544620D01*
X36578777Y-71579874D01*
X36718666Y-71590573D01*
X36831473Y-71593285D01*
X36923178Y-71593141D01*
X36978732Y-71590252D01*
X36986778Y-71588639D01*
X37028162Y-71577639D01*
X37105843Y-71559998D01*
X37177278Y-71544875D01*
X37339555Y-71511508D01*
X37339555Y-71243285D01*
X37134944Y-71312037D01*
X36968553Y-71353399D01*
X36800382Y-71369789D01*
X36645758Y-71361344D01*
X36520009Y-71328200D01*
X36478325Y-71306188D01*
X36377029Y-71209154D01*
X36315675Y-71085293D01*
X36297376Y-70949132D01*
X36325240Y-70815200D01*
X36359396Y-70750674D01*
X36456763Y-70646670D01*
X36585728Y-70582974D01*
X36752166Y-70556969D01*
X36796278Y-70556044D01*
X36972666Y-70556000D01*
X36972666Y-70330223D01*
X36818015Y-70330223D01*
X36665520Y-70315608D01*
X36532132Y-70275244D01*
X36431924Y-70214350D01*
X36395789Y-70173600D01*
X36359492Y-70074466D01*
X36356025Y-69954727D01*
X36385590Y-69839833D01*
X36393027Y-69824319D01*
X36456036Y-69754109D01*
X36556294Y-69696562D01*
X36674720Y-69660704D01*
X36754515Y-69653306D01*
X36834390Y-69660867D01*
X36946197Y-69679956D01*
X37067783Y-69705959D01*
X37176993Y-69734264D01*
X37235526Y-69753478D01*
X37266784Y-69759271D01*
X37279755Y-69736179D01*
X37279371Y-69672093D01*
X37277859Y-69649545D01*
X37270172Y-69576500D01*
X37250753Y-69535657D01*
X37204780Y-69511270D01*
X37127889Y-69490235D01*
X36868442Y-69442974D01*
X36642659Y-69440870D01*
X36450291Y-69483959D01*
G37*
X36450291Y-69483959D02*
X36291089Y-69572279D01*
X36235808Y-69621107D01*
X36142202Y-69747286D01*
X36091373Y-69887731D01*
X36082248Y-70031366D01*
X36113752Y-70167116D01*
X36184810Y-70283903D01*
X36294348Y-70370652D01*
X36309251Y-70378148D01*
X36382132Y-70418192D01*
X36402502Y-70448688D01*
X36371526Y-70477556D01*
X36326871Y-70498183D01*
X36219089Y-70566506D01*
X36124706Y-70667374D01*
X36071351Y-70762449D01*
X36053843Y-70837424D01*
X36043026Y-70938901D01*
X36041333Y-70993445D01*
X36053529Y-71148943D01*
X36094275Y-71270537D01*
X36169811Y-71376167D01*
X36177184Y-71384085D01*
X36290060Y-71481063D01*
X36419451Y-71544620D01*
X36578777Y-71579874D01*
X36718666Y-71590573D01*
X36831473Y-71593285D01*
X36923178Y-71593141D01*
X36978732Y-71590252D01*
X36986778Y-71588639D01*
X37028162Y-71577639D01*
X37105843Y-71559998D01*
X37177278Y-71544875D01*
X37339555Y-71511508D01*
X37339555Y-71243285D01*
X37134944Y-71312037D01*
X36968553Y-71353399D01*
X36800382Y-71369789D01*
X36645758Y-71361344D01*
X36520009Y-71328200D01*
X36478325Y-71306188D01*
X36377029Y-71209154D01*
X36315675Y-71085293D01*
X36297376Y-70949132D01*
X36325240Y-70815200D01*
X36359396Y-70750674D01*
X36456763Y-70646670D01*
X36585728Y-70582974D01*
X36752166Y-70556969D01*
X36796278Y-70556044D01*
X36972666Y-70556000D01*
X36972666Y-70330223D01*
X36818015Y-70330223D01*
X36665520Y-70315608D01*
X36532132Y-70275244D01*
X36431924Y-70214350D01*
X36395789Y-70173600D01*
X36359492Y-70074466D01*
X36356025Y-69954727D01*
X36385590Y-69839833D01*
X36393027Y-69824319D01*
X36456036Y-69754109D01*
X36556294Y-69696562D01*
X36674720Y-69660704D01*
X36754515Y-69653306D01*
X36834390Y-69660867D01*
X36946197Y-69679956D01*
X37067783Y-69705959D01*
X37176993Y-69734264D01*
X37235526Y-69753478D01*
X37266784Y-69759271D01*
X37279755Y-69736179D01*
X37279371Y-69672093D01*
X37277859Y-69649545D01*
X37270172Y-69576500D01*
X37250753Y-69535657D01*
X37204780Y-69511270D01*
X37127889Y-69490235D01*
X36868442Y-69442974D01*
X36642659Y-69440870D01*
X36450291Y-69483959D01*
G36*
X48148666Y-69709334D02*
G01*
X49108222Y-69709334D01*
X49108222Y-70330223D01*
X48176889Y-70330223D01*
X48176889Y-70554602D01*
X49094111Y-70570112D01*
X49094111Y-71332112D01*
X48607278Y-71339833D01*
X48120444Y-71347555D01*
X48120444Y-71572000D01*
X49362222Y-71572000D01*
X49362222Y-69483556D01*
X48148666Y-69483556D01*
X48148666Y-69709334D01*
G37*
X48148666Y-69709334D02*
X49108222Y-69709334D01*
X49108222Y-70330223D01*
X48176889Y-70330223D01*
X48176889Y-70554602D01*
X49094111Y-70570112D01*
X49094111Y-71332112D01*
X48607278Y-71339833D01*
X48120444Y-71347555D01*
X48120444Y-71572000D01*
X49362222Y-71572000D01*
X49362222Y-69483556D01*
X48148666Y-69483556D01*
X48148666Y-69709334D01*
G36*
X38325283Y-69447584D02*
G01*
X38156889Y-69498798D01*
X38015423Y-69584278D01*
X37906996Y-69701341D01*
X37837716Y-69847304D01*
X37813689Y-70017179D01*
X37817866Y-70108927D01*
X37833071Y-70194574D01*
X37863314Y-70280452D01*
X37912604Y-70372892D01*
X37984951Y-70478225D01*
X38084365Y-70602783D01*
X38214855Y-70752898D01*
X38380432Y-70934901D01*
X38426337Y-70984571D01*
X38528329Y-71095979D01*
X38615131Y-71193261D01*
X38680122Y-71268798D01*
X38716681Y-71314975D01*
X38722272Y-71325056D01*
X38695661Y-71332100D01*
X38621905Y-71338151D01*
X38510300Y-71342787D01*
X38370143Y-71345584D01*
X38256778Y-71346223D01*
X37791111Y-71346223D01*
X37791111Y-71572000D01*
X39061111Y-71572000D01*
X39061111Y-71458976D01*
X39058752Y-71415895D01*
X39048132Y-71375021D01*
X39023937Y-71328933D01*
X38980851Y-71270209D01*
X38913559Y-71191428D01*
X38816748Y-71085169D01*
X38715784Y-70976794D01*
X38530941Y-70776121D01*
X38383873Y-70609134D01*
X38270963Y-70471146D01*
X38188594Y-70357470D01*
X38133149Y-70263416D01*
X38101010Y-70184297D01*
X38099086Y-70177562D01*
X38082786Y-70034585D01*
X38106569Y-69893909D01*
X38147619Y-69806378D01*
X38210307Y-69748078D01*
X38306806Y-69696685D01*
X38414568Y-69662254D01*
X38490182Y-69653618D01*
X38554510Y-69663767D01*
X38654184Y-69689938D01*
X38772270Y-69726882D01*
X38891830Y-69769348D01*
X38983500Y-69806538D01*
X39013700Y-69812747D01*
X39028353Y-69788683D01*
X39032764Y-69722754D01*
X39032889Y-69698621D01*
X39029391Y-69617341D01*
X39010732Y-69571737D01*
X38964665Y-69541117D01*
X38930944Y-69526385D01*
X38718420Y-69458695D01*
X38514496Y-69433322D01*
X38325283Y-69447584D01*
G37*
X38325283Y-69447584D02*
X38156889Y-69498798D01*
X38015423Y-69584278D01*
X37906996Y-69701341D01*
X37837716Y-69847304D01*
X37813689Y-70017179D01*
X37817866Y-70108927D01*
X37833071Y-70194574D01*
X37863314Y-70280452D01*
X37912604Y-70372892D01*
X37984951Y-70478225D01*
X38084365Y-70602783D01*
X38214855Y-70752898D01*
X38380432Y-70934901D01*
X38426337Y-70984571D01*
X38528329Y-71095979D01*
X38615131Y-71193261D01*
X38680122Y-71268798D01*
X38716681Y-71314975D01*
X38722272Y-71325056D01*
X38695661Y-71332100D01*
X38621905Y-71338151D01*
X38510300Y-71342787D01*
X38370143Y-71345584D01*
X38256778Y-71346223D01*
X37791111Y-71346223D01*
X37791111Y-71572000D01*
X39061111Y-71572000D01*
X39061111Y-71458976D01*
X39058752Y-71415895D01*
X39048132Y-71375021D01*
X39023937Y-71328933D01*
X38980851Y-71270209D01*
X38913559Y-71191428D01*
X38816748Y-71085169D01*
X38715784Y-70976794D01*
X38530941Y-70776121D01*
X38383873Y-70609134D01*
X38270963Y-70471146D01*
X38188594Y-70357470D01*
X38133149Y-70263416D01*
X38101010Y-70184297D01*
X38099086Y-70177562D01*
X38082786Y-70034585D01*
X38106569Y-69893909D01*
X38147619Y-69806378D01*
X38210307Y-69748078D01*
X38306806Y-69696685D01*
X38414568Y-69662254D01*
X38490182Y-69653618D01*
X38554510Y-69663767D01*
X38654184Y-69689938D01*
X38772270Y-69726882D01*
X38891830Y-69769348D01*
X38983500Y-69806538D01*
X39013700Y-69812747D01*
X39028353Y-69788683D01*
X39032764Y-69722754D01*
X39032889Y-69698621D01*
X39029391Y-69617341D01*
X39010732Y-69571737D01*
X38964665Y-69541117D01*
X38930944Y-69526385D01*
X38718420Y-69458695D01*
X38514496Y-69433322D01*
X38325283Y-69447584D01*
G36*
X38355555Y-62936000D02*
G01*
X48938889Y-62936000D01*
X48938889Y-68100667D01*
X36492889Y-68100667D01*
X36492889Y-62399778D01*
X35956666Y-62399778D01*
X35956666Y-68636889D01*
X49503333Y-68636889D01*
X49503333Y-62399778D01*
X38355555Y-62399778D01*
X38355555Y-62936000D01*
G37*
X38355555Y-62936000D02*
X48938889Y-62936000D01*
X48938889Y-68100667D01*
X36492889Y-68100667D01*
X36492889Y-62399778D01*
X35956666Y-62399778D01*
X35956666Y-68636889D01*
X49503333Y-68636889D01*
X49503333Y-62399778D01*
X38355555Y-62399778D01*
X38355555Y-62936000D01*
G36*
X46694077Y-63947495D02*
G01*
X46483652Y-64018521D01*
X46303946Y-64136673D01*
X46155069Y-64301765D01*
X46037130Y-64513614D01*
X45950238Y-64772035D01*
X45894503Y-65076843D01*
X45870034Y-65427854D01*
X45872073Y-65715889D01*
X45880576Y-65884428D01*
X45893500Y-66051214D01*
X45909256Y-66199490D01*
X45926256Y-66312500D01*
X45930743Y-66334307D01*
X46011991Y-66602463D01*
X46125097Y-66826952D01*
X46268998Y-67006215D01*
X46442631Y-67138691D01*
X46498857Y-67168357D01*
X46645506Y-67217341D01*
X46823089Y-67244583D01*
X47010085Y-67249186D01*
X47184972Y-67230252D01*
X47291694Y-67201401D01*
X47475990Y-67111330D01*
X47630035Y-66987503D01*
X47755294Y-66826872D01*
X47853229Y-66626394D01*
X47925305Y-66383020D01*
X47972984Y-66093707D01*
X47997730Y-65755408D01*
X47998635Y-65730000D01*
X47997563Y-65476579D01*
X47551235Y-65476579D01*
X47550822Y-65721201D01*
X47536087Y-65962834D01*
X47505610Y-66226748D01*
X47461175Y-66439891D01*
X47400710Y-66606670D01*
X47322141Y-66731492D01*
X47223396Y-66818764D01*
X47109128Y-66870872D01*
X47015887Y-66898457D01*
X46951918Y-66909808D01*
X46892468Y-66905048D01*
X46812788Y-66884301D01*
X46773018Y-66872536D01*
X46651122Y-66819115D01*
X46552061Y-66735249D01*
X46473486Y-66616067D01*
X46413046Y-66456697D01*
X46368391Y-66252269D01*
X46337171Y-65997910D01*
X46334135Y-65962834D01*
X46320581Y-65709727D01*
X46320556Y-65454080D01*
X46333172Y-65207999D01*
X46357545Y-64983587D01*
X46392788Y-64792951D01*
X46428670Y-64671667D01*
X46516135Y-64500756D01*
X46630974Y-64376937D01*
X46769633Y-64302176D01*
X46928559Y-64278441D01*
X47092528Y-64304202D01*
X47213450Y-64355040D01*
X47311590Y-64433641D01*
X47389508Y-64545269D01*
X47449765Y-64695192D01*
X47494921Y-64888674D01*
X47527536Y-65130981D01*
X47535340Y-65214945D01*
X47551235Y-65476579D01*
X47997563Y-65476579D01*
X47996987Y-65340708D01*
X47964442Y-64998643D01*
X47900989Y-64703789D01*
X47806620Y-64456130D01*
X47681325Y-64255650D01*
X47525095Y-64102335D01*
X47337921Y-63996168D01*
X47119793Y-63937133D01*
X46935111Y-63923778D01*
X46694077Y-63947495D01*
G37*
X46694077Y-63947495D02*
X46483652Y-64018521D01*
X46303946Y-64136673D01*
X46155069Y-64301765D01*
X46037130Y-64513614D01*
X45950238Y-64772035D01*
X45894503Y-65076843D01*
X45870034Y-65427854D01*
X45872073Y-65715889D01*
X45880576Y-65884428D01*
X45893500Y-66051214D01*
X45909256Y-66199490D01*
X45926256Y-66312500D01*
X45930743Y-66334307D01*
X46011991Y-66602463D01*
X46125097Y-66826952D01*
X46268998Y-67006215D01*
X46442631Y-67138691D01*
X46498857Y-67168357D01*
X46645506Y-67217341D01*
X46823089Y-67244583D01*
X47010085Y-67249186D01*
X47184972Y-67230252D01*
X47291694Y-67201401D01*
X47475990Y-67111330D01*
X47630035Y-66987503D01*
X47755294Y-66826872D01*
X47853229Y-66626394D01*
X47925305Y-66383020D01*
X47972984Y-66093707D01*
X47997730Y-65755408D01*
X47998635Y-65730000D01*
X47997563Y-65476579D01*
X47551235Y-65476579D01*
X47550822Y-65721201D01*
X47536087Y-65962834D01*
X47505610Y-66226748D01*
X47461175Y-66439891D01*
X47400710Y-66606670D01*
X47322141Y-66731492D01*
X47223396Y-66818764D01*
X47109128Y-66870872D01*
X47015887Y-66898457D01*
X46951918Y-66909808D01*
X46892468Y-66905048D01*
X46812788Y-66884301D01*
X46773018Y-66872536D01*
X46651122Y-66819115D01*
X46552061Y-66735249D01*
X46473486Y-66616067D01*
X46413046Y-66456697D01*
X46368391Y-66252269D01*
X46337171Y-65997910D01*
X46334135Y-65962834D01*
X46320581Y-65709727D01*
X46320556Y-65454080D01*
X46333172Y-65207999D01*
X46357545Y-64983587D01*
X46392788Y-64792951D01*
X46428670Y-64671667D01*
X46516135Y-64500756D01*
X46630974Y-64376937D01*
X46769633Y-64302176D01*
X46928559Y-64278441D01*
X47092528Y-64304202D01*
X47213450Y-64355040D01*
X47311590Y-64433641D01*
X47389508Y-64545269D01*
X47449765Y-64695192D01*
X47494921Y-64888674D01*
X47527536Y-65130981D01*
X47535340Y-65214945D01*
X47551235Y-65476579D01*
X47997563Y-65476579D01*
X47996987Y-65340708D01*
X47964442Y-64998643D01*
X47900989Y-64703789D01*
X47806620Y-64456130D01*
X47681325Y-64255650D01*
X47525095Y-64102335D01*
X47337921Y-63996168D01*
X47119793Y-63937133D01*
X46935111Y-63923778D01*
X46694077Y-63947495D01*
G36*
X43929242Y-63956465D02*
G01*
X43693568Y-64007736D01*
X43675444Y-64012937D01*
X43449666Y-64079000D01*
X43441424Y-64297723D01*
X43438935Y-64400705D01*
X43439728Y-64477613D01*
X43443587Y-64514897D01*
X43444925Y-64516445D01*
X43474249Y-64503958D01*
X43536124Y-64472083D01*
X43580167Y-64448137D01*
X43767820Y-64364873D01*
X43971707Y-64309431D01*
X44177348Y-64283432D01*
X44370262Y-64288501D01*
X44535970Y-64326260D01*
X44564444Y-64337820D01*
X44714355Y-64430127D01*
X44821637Y-64551051D01*
X44882699Y-64692812D01*
X44893954Y-64847628D01*
X44861962Y-64982939D01*
X44819488Y-65070140D01*
X44760956Y-65138294D01*
X44676352Y-65194026D01*
X44555662Y-65243956D01*
X44391725Y-65293918D01*
X44185649Y-65351447D01*
X44025809Y-65397528D01*
X43903860Y-65435103D01*
X43811458Y-65467112D01*
X43740259Y-65496495D01*
X43681919Y-65526193D01*
X43628092Y-65559147D01*
X43615563Y-65567436D01*
X43465598Y-65699810D01*
X43353283Y-65865138D01*
X43279483Y-66053561D01*
X43245063Y-66255222D01*
X43250890Y-66460262D01*
X43297828Y-66658822D01*
X43386743Y-66841045D01*
X43492255Y-66972033D01*
X43649952Y-67091787D01*
X43847248Y-67179634D01*
X44076396Y-67234401D01*
X44329652Y-67254913D01*
X44599270Y-67239996D01*
X44877503Y-67188478D01*
X44893548Y-67184392D01*
X45043067Y-67145327D01*
X45146640Y-67113438D01*
X45212691Y-67080741D01*
X45249645Y-67039250D01*
X45265925Y-66980982D01*
X45269957Y-66897952D01*
X45270000Y-66827603D01*
X45270000Y-66600747D01*
X45121833Y-66685144D01*
X44901421Y-66790427D01*
X44677016Y-66860493D01*
X44456796Y-66895249D01*
X44248938Y-66894602D01*
X44061620Y-66858457D01*
X43903021Y-66786722D01*
X43799229Y-66700280D01*
X43713197Y-66568112D01*
X43669603Y-66417207D01*
X43668042Y-66261023D01*
X43708113Y-66113019D01*
X43789413Y-65986653D01*
X43821516Y-65955209D01*
X43868218Y-65919533D01*
X43927080Y-65886579D01*
X44005921Y-65853593D01*
X44112560Y-65817821D01*
X44254817Y-65776506D01*
X44440512Y-65726895D01*
X44549069Y-65698892D01*
X44796891Y-65616162D01*
X44994993Y-65507229D01*
X45143991Y-65371419D01*
X45244506Y-65208060D01*
X45297155Y-65016478D01*
X45305998Y-64875817D01*
X45279289Y-64637617D01*
X45204811Y-64428132D01*
X45085005Y-64250485D01*
X44922316Y-64107800D01*
X44719184Y-64003202D01*
X44592666Y-63963434D01*
X44396426Y-63933362D01*
X44169406Y-63931357D01*
X43929242Y-63956465D01*
G37*
X43929242Y-63956465D02*
X43693568Y-64007736D01*
X43675444Y-64012937D01*
X43449666Y-64079000D01*
X43441424Y-64297723D01*
X43438935Y-64400705D01*
X43439728Y-64477613D01*
X43443587Y-64514897D01*
X43444925Y-64516445D01*
X43474249Y-64503958D01*
X43536124Y-64472083D01*
X43580167Y-64448137D01*
X43767820Y-64364873D01*
X43971707Y-64309431D01*
X44177348Y-64283432D01*
X44370262Y-64288501D01*
X44535970Y-64326260D01*
X44564444Y-64337820D01*
X44714355Y-64430127D01*
X44821637Y-64551051D01*
X44882699Y-64692812D01*
X44893954Y-64847628D01*
X44861962Y-64982939D01*
X44819488Y-65070140D01*
X44760956Y-65138294D01*
X44676352Y-65194026D01*
X44555662Y-65243956D01*
X44391725Y-65293918D01*
X44185649Y-65351447D01*
X44025809Y-65397528D01*
X43903860Y-65435103D01*
X43811458Y-65467112D01*
X43740259Y-65496495D01*
X43681919Y-65526193D01*
X43628092Y-65559147D01*
X43615563Y-65567436D01*
X43465598Y-65699810D01*
X43353283Y-65865138D01*
X43279483Y-66053561D01*
X43245063Y-66255222D01*
X43250890Y-66460262D01*
X43297828Y-66658822D01*
X43386743Y-66841045D01*
X43492255Y-66972033D01*
X43649952Y-67091787D01*
X43847248Y-67179634D01*
X44076396Y-67234401D01*
X44329652Y-67254913D01*
X44599270Y-67239996D01*
X44877503Y-67188478D01*
X44893548Y-67184392D01*
X45043067Y-67145327D01*
X45146640Y-67113438D01*
X45212691Y-67080741D01*
X45249645Y-67039250D01*
X45265925Y-66980982D01*
X45269957Y-66897952D01*
X45270000Y-66827603D01*
X45270000Y-66600747D01*
X45121833Y-66685144D01*
X44901421Y-66790427D01*
X44677016Y-66860493D01*
X44456796Y-66895249D01*
X44248938Y-66894602D01*
X44061620Y-66858457D01*
X43903021Y-66786722D01*
X43799229Y-66700280D01*
X43713197Y-66568112D01*
X43669603Y-66417207D01*
X43668042Y-66261023D01*
X43708113Y-66113019D01*
X43789413Y-65986653D01*
X43821516Y-65955209D01*
X43868218Y-65919533D01*
X43927080Y-65886579D01*
X44005921Y-65853593D01*
X44112560Y-65817821D01*
X44254817Y-65776506D01*
X44440512Y-65726895D01*
X44549069Y-65698892D01*
X44796891Y-65616162D01*
X44994993Y-65507229D01*
X45143991Y-65371419D01*
X45244506Y-65208060D01*
X45297155Y-65016478D01*
X45305998Y-64875817D01*
X45279289Y-64637617D01*
X45204811Y-64428132D01*
X45085005Y-64250485D01*
X44922316Y-64107800D01*
X44719184Y-64003202D01*
X44592666Y-63963434D01*
X44396426Y-63933362D01*
X44169406Y-63931357D01*
X43929242Y-63956465D01*
G36*
X42222000Y-65307812D02*
G01*
X41050778Y-65292556D01*
X41043202Y-64636389D01*
X41035626Y-63980223D01*
X40613333Y-63980223D01*
X40613333Y-67197556D01*
X41036666Y-67197556D01*
X41036666Y-65673556D01*
X42222000Y-65673556D01*
X42222000Y-67197556D01*
X42673555Y-67197556D01*
X42673555Y-63980223D01*
X42222000Y-63980223D01*
X42222000Y-65307812D01*
G37*
X42222000Y-65307812D02*
X41050778Y-65292556D01*
X41043202Y-64636389D01*
X41035626Y-63980223D01*
X40613333Y-63980223D01*
X40613333Y-67197556D01*
X41036666Y-67197556D01*
X41036666Y-65673556D01*
X42222000Y-65673556D01*
X42222000Y-67197556D01*
X42673555Y-67197556D01*
X42673555Y-63980223D01*
X42222000Y-63980223D01*
X42222000Y-65307812D01*
G36*
X37023940Y-61584418D02*
G01*
X36954248Y-61592716D01*
X36928141Y-61604794D01*
X36928795Y-61607066D01*
X36941084Y-61644678D01*
X36962188Y-61727889D01*
X36989891Y-61846945D01*
X37021978Y-61992088D01*
X37056236Y-62153563D01*
X37086333Y-62301000D01*
X37102922Y-62380718D01*
X37127480Y-62495014D01*
X37155590Y-62623397D01*
X37165455Y-62667889D01*
X37191549Y-62786373D01*
X37225695Y-62943190D01*
X37264237Y-63121455D01*
X37303519Y-63304286D01*
X37321317Y-63387556D01*
X37360010Y-63568271D01*
X37400013Y-63753957D01*
X37437556Y-63927198D01*
X37468874Y-64070582D01*
X37480068Y-64121334D01*
X37509890Y-64256861D01*
X37546737Y-64425722D01*
X37585851Y-64606048D01*
X37621290Y-64770445D01*
X37658042Y-64941096D01*
X37697053Y-65121384D01*
X37733580Y-65289444D01*
X37762036Y-65419556D01*
X37794524Y-65568220D01*
X37828817Y-65726531D01*
X37858800Y-65866225D01*
X37865840Y-65899334D01*
X37894457Y-66033117D01*
X37924882Y-66173468D01*
X37948388Y-66280334D01*
X37968856Y-66374039D01*
X37997148Y-66505880D01*
X38029610Y-66658727D01*
X38062586Y-66815448D01*
X38064294Y-66823612D01*
X38142520Y-67197556D01*
X38347816Y-67197556D01*
X38453729Y-67196337D01*
X38515198Y-67190284D01*
X38544207Y-67175802D01*
X38552742Y-67149295D01*
X38553111Y-67135978D01*
X38559935Y-67079568D01*
X38577956Y-66987223D01*
X38603502Y-66877458D01*
X38607711Y-66860811D01*
X38634802Y-66750818D01*
X38669561Y-66603868D01*
X38707747Y-66438178D01*
X38745115Y-66271963D01*
X38749505Y-66252112D01*
X38786580Y-66086910D01*
X38825151Y-65919780D01*
X38860932Y-65769010D01*
X38889639Y-65652890D01*
X38892461Y-65641939D01*
X38919253Y-65531163D01*
X38939006Y-65435311D01*
X38948023Y-65372628D01*
X38948222Y-65366772D01*
X38959392Y-65318960D01*
X38976444Y-65306667D01*
X39003931Y-65316674D01*
X39004666Y-65319606D01*
X39010643Y-65350452D01*
X39027169Y-65426995D01*
X39052142Y-65539927D01*
X39083456Y-65679938D01*
X39119009Y-65837717D01*
X39156696Y-66003956D01*
X39194413Y-66169344D01*
X39230056Y-66324572D01*
X39261521Y-66460330D01*
X39285572Y-66562556D01*
X39319407Y-66705449D01*
X39355988Y-66861138D01*
X39386704Y-66992945D01*
X39434080Y-67197556D01*
X39819652Y-67197556D01*
X39836755Y-67063500D01*
X39847880Y-66982448D01*
X39865359Y-66862168D01*
X39886753Y-66719188D01*
X39908594Y-66576667D01*
X39938287Y-66383947D01*
X39967678Y-66190145D01*
X39998609Y-65982868D01*
X40032925Y-65749723D01*
X40072468Y-65478316D01*
X40091213Y-65349000D01*
X40115493Y-65184242D01*
X40144380Y-64992619D01*
X40173499Y-64802991D01*
X40189623Y-64699889D01*
X40212551Y-64552029D01*
X40233890Y-64409763D01*
X40251050Y-64290626D01*
X40260482Y-64220112D01*
X40273517Y-64127435D01*
X40286833Y-64052514D01*
X40292287Y-64029612D01*
X40293732Y-64003745D01*
X40271984Y-63988828D01*
X40216188Y-63981957D01*
X40115492Y-63980226D01*
X40107773Y-63980223D01*
X40003192Y-63981705D01*
X39941972Y-63988756D01*
X39911054Y-64005281D01*
X39897377Y-64035185D01*
X39895432Y-64043723D01*
X39887448Y-64089746D01*
X39876015Y-64169373D01*
X39860798Y-64285383D01*
X39841462Y-64440556D01*
X39817672Y-64637672D01*
X39789093Y-64879510D01*
X39755390Y-65168850D01*
X39716228Y-65508471D01*
X39671272Y-65901154D01*
X39666648Y-65941667D01*
X39644296Y-66135953D01*
X39626909Y-66281212D01*
X39613277Y-66384526D01*
X39602190Y-66452973D01*
X39592440Y-66493634D01*
X39582817Y-66513589D01*
X39572111Y-66519917D01*
X39567832Y-66520223D01*
X39541456Y-66501789D01*
X39540889Y-66497065D01*
X39535203Y-66461046D01*
X39519922Y-66383212D01*
X39497713Y-66276848D01*
X39482812Y-66207787D01*
X39454166Y-66074770D01*
X39427260Y-65946779D01*
X39406430Y-65844560D01*
X39400607Y-65814667D01*
X39385126Y-65736842D01*
X39361221Y-65620865D01*
X39331952Y-65481146D01*
X39300379Y-65332095D01*
X39269562Y-65188121D01*
X39242561Y-65063634D01*
X39222434Y-64973043D01*
X39216074Y-64945662D01*
X39204654Y-64913078D01*
X39181468Y-64894488D01*
X39133898Y-64886814D01*
X39049328Y-64886981D01*
X38984615Y-64889217D01*
X38905440Y-64891086D01*
X38846569Y-64894623D01*
X38803411Y-64907113D01*
X38771373Y-64935840D01*
X38745865Y-64988086D01*
X38722293Y-65071137D01*
X38696067Y-65192274D01*
X38662594Y-65358783D01*
X38650272Y-65419556D01*
X38618672Y-65572944D01*
X38587008Y-65724117D01*
X38559120Y-65854892D01*
X38540072Y-65941667D01*
X38514234Y-66057380D01*
X38483257Y-66197832D01*
X38453906Y-66332343D01*
X38427649Y-66437607D01*
X38403279Y-66506472D01*
X38384037Y-66530236D01*
X38380826Y-66528560D01*
X38367495Y-66493583D01*
X38344669Y-66408639D01*
X38313567Y-66279179D01*
X38275409Y-66110656D01*
X38231414Y-65908521D01*
X38182801Y-65678224D01*
X38130790Y-65425219D01*
X38101194Y-65278445D01*
X38087450Y-65211190D01*
X38064366Y-65099734D01*
X38034239Y-64955108D01*
X37999368Y-64788344D01*
X37962050Y-64610472D01*
X37960083Y-64601112D01*
X37922701Y-64422963D01*
X37887645Y-64255348D01*
X37857215Y-64109298D01*
X37833707Y-63995842D01*
X37819420Y-63926013D01*
X37818972Y-63923778D01*
X37804462Y-63852675D01*
X37780504Y-63736775D01*
X37749279Y-63586514D01*
X37712967Y-63412327D01*
X37673751Y-63224652D01*
X37633811Y-63033924D01*
X37595330Y-62850579D01*
X37560489Y-62685054D01*
X37531469Y-62547784D01*
X37524010Y-62512667D01*
X37485637Y-62330977D01*
X37448300Y-62151846D01*
X37413783Y-61984072D01*
X37383867Y-61836447D01*
X37360336Y-61717769D01*
X37344971Y-61636833D01*
X37339555Y-61602546D01*
X37313630Y-61592442D01*
X37245011Y-61584951D01*
X37147438Y-61581439D01*
X37126223Y-61581334D01*
X37023940Y-61584418D01*
G37*
X37023940Y-61584418D02*
X36954248Y-61592716D01*
X36928141Y-61604794D01*
X36928795Y-61607066D01*
X36941084Y-61644678D01*
X36962188Y-61727889D01*
X36989891Y-61846945D01*
X37021978Y-61992088D01*
X37056236Y-62153563D01*
X37086333Y-62301000D01*
X37102922Y-62380718D01*
X37127480Y-62495014D01*
X37155590Y-62623397D01*
X37165455Y-62667889D01*
X37191549Y-62786373D01*
X37225695Y-62943190D01*
X37264237Y-63121455D01*
X37303519Y-63304286D01*
X37321317Y-63387556D01*
X37360010Y-63568271D01*
X37400013Y-63753957D01*
X37437556Y-63927198D01*
X37468874Y-64070582D01*
X37480068Y-64121334D01*
X37509890Y-64256861D01*
X37546737Y-64425722D01*
X37585851Y-64606048D01*
X37621290Y-64770445D01*
X37658042Y-64941096D01*
X37697053Y-65121384D01*
X37733580Y-65289444D01*
X37762036Y-65419556D01*
X37794524Y-65568220D01*
X37828817Y-65726531D01*
X37858800Y-65866225D01*
X37865840Y-65899334D01*
X37894457Y-66033117D01*
X37924882Y-66173468D01*
X37948388Y-66280334D01*
X37968856Y-66374039D01*
X37997148Y-66505880D01*
X38029610Y-66658727D01*
X38062586Y-66815448D01*
X38064294Y-66823612D01*
X38142520Y-67197556D01*
X38347816Y-67197556D01*
X38453729Y-67196337D01*
X38515198Y-67190284D01*
X38544207Y-67175802D01*
X38552742Y-67149295D01*
X38553111Y-67135978D01*
X38559935Y-67079568D01*
X38577956Y-66987223D01*
X38603502Y-66877458D01*
X38607711Y-66860811D01*
X38634802Y-66750818D01*
X38669561Y-66603868D01*
X38707747Y-66438178D01*
X38745115Y-66271963D01*
X38749505Y-66252112D01*
X38786580Y-66086910D01*
X38825151Y-65919780D01*
X38860932Y-65769010D01*
X38889639Y-65652890D01*
X38892461Y-65641939D01*
X38919253Y-65531163D01*
X38939006Y-65435311D01*
X38948023Y-65372628D01*
X38948222Y-65366772D01*
X38959392Y-65318960D01*
X38976444Y-65306667D01*
X39003931Y-65316674D01*
X39004666Y-65319606D01*
X39010643Y-65350452D01*
X39027169Y-65426995D01*
X39052142Y-65539927D01*
X39083456Y-65679938D01*
X39119009Y-65837717D01*
X39156696Y-66003956D01*
X39194413Y-66169344D01*
X39230056Y-66324572D01*
X39261521Y-66460330D01*
X39285572Y-66562556D01*
X39319407Y-66705449D01*
X39355988Y-66861138D01*
X39386704Y-66992945D01*
X39434080Y-67197556D01*
X39819652Y-67197556D01*
X39836755Y-67063500D01*
X39847880Y-66982448D01*
X39865359Y-66862168D01*
X39886753Y-66719188D01*
X39908594Y-66576667D01*
X39938287Y-66383947D01*
X39967678Y-66190145D01*
X39998609Y-65982868D01*
X40032925Y-65749723D01*
X40072468Y-65478316D01*
X40091213Y-65349000D01*
X40115493Y-65184242D01*
X40144380Y-64992619D01*
X40173499Y-64802991D01*
X40189623Y-64699889D01*
X40212551Y-64552029D01*
X40233890Y-64409763D01*
X40251050Y-64290626D01*
X40260482Y-64220112D01*
X40273517Y-64127435D01*
X40286833Y-64052514D01*
X40292287Y-64029612D01*
X40293732Y-64003745D01*
X40271984Y-63988828D01*
X40216188Y-63981957D01*
X40115492Y-63980226D01*
X40107773Y-63980223D01*
X40003192Y-63981705D01*
X39941972Y-63988756D01*
X39911054Y-64005281D01*
X39897377Y-64035185D01*
X39895432Y-64043723D01*
X39887448Y-64089746D01*
X39876015Y-64169373D01*
X39860798Y-64285383D01*
X39841462Y-64440556D01*
X39817672Y-64637672D01*
X39789093Y-64879510D01*
X39755390Y-65168850D01*
X39716228Y-65508471D01*
X39671272Y-65901154D01*
X39666648Y-65941667D01*
X39644296Y-66135953D01*
X39626909Y-66281212D01*
X39613277Y-66384526D01*
X39602190Y-66452973D01*
X39592440Y-66493634D01*
X39582817Y-66513589D01*
X39572111Y-66519917D01*
X39567832Y-66520223D01*
X39541456Y-66501789D01*
X39540889Y-66497065D01*
X39535203Y-66461046D01*
X39519922Y-66383212D01*
X39497713Y-66276848D01*
X39482812Y-66207787D01*
X39454166Y-66074770D01*
X39427260Y-65946779D01*
X39406430Y-65844560D01*
X39400607Y-65814667D01*
X39385126Y-65736842D01*
X39361221Y-65620865D01*
X39331952Y-65481146D01*
X39300379Y-65332095D01*
X39269562Y-65188121D01*
X39242561Y-65063634D01*
X39222434Y-64973043D01*
X39216074Y-64945662D01*
X39204654Y-64913078D01*
X39181468Y-64894488D01*
X39133898Y-64886814D01*
X39049328Y-64886981D01*
X38984615Y-64889217D01*
X38905440Y-64891086D01*
X38846569Y-64894623D01*
X38803411Y-64907113D01*
X38771373Y-64935840D01*
X38745865Y-64988086D01*
X38722293Y-65071137D01*
X38696067Y-65192274D01*
X38662594Y-65358783D01*
X38650272Y-65419556D01*
X38618672Y-65572944D01*
X38587008Y-65724117D01*
X38559120Y-65854892D01*
X38540072Y-65941667D01*
X38514234Y-66057380D01*
X38483257Y-66197832D01*
X38453906Y-66332343D01*
X38427649Y-66437607D01*
X38403279Y-66506472D01*
X38384037Y-66530236D01*
X38380826Y-66528560D01*
X38367495Y-66493583D01*
X38344669Y-66408639D01*
X38313567Y-66279179D01*
X38275409Y-66110656D01*
X38231414Y-65908521D01*
X38182801Y-65678224D01*
X38130790Y-65425219D01*
X38101194Y-65278445D01*
X38087450Y-65211190D01*
X38064366Y-65099734D01*
X38034239Y-64955108D01*
X37999368Y-64788344D01*
X37962050Y-64610472D01*
X37960083Y-64601112D01*
X37922701Y-64422963D01*
X37887645Y-64255348D01*
X37857215Y-64109298D01*
X37833707Y-63995842D01*
X37819420Y-63926013D01*
X37818972Y-63923778D01*
X37804462Y-63852675D01*
X37780504Y-63736775D01*
X37749279Y-63586514D01*
X37712967Y-63412327D01*
X37673751Y-63224652D01*
X37633811Y-63033924D01*
X37595330Y-62850579D01*
X37560489Y-62685054D01*
X37531469Y-62547784D01*
X37524010Y-62512667D01*
X37485637Y-62330977D01*
X37448300Y-62151846D01*
X37413783Y-61984072D01*
X37383867Y-61836447D01*
X37360336Y-61717769D01*
X37344971Y-61636833D01*
X37339555Y-61602546D01*
X37313630Y-61592442D01*
X37245011Y-61584951D01*
X37147438Y-61581439D01*
X37126223Y-61581334D01*
X37023940Y-61584418D01*
G36*
X45292248Y-70337671D02*
G01*
X45248833Y-70359325D01*
X45184038Y-70421303D01*
X45159040Y-70501202D01*
X45170260Y-70583438D01*
X45214116Y-70652428D01*
X45287028Y-70692587D01*
X45326444Y-70697112D01*
X45402671Y-70677512D01*
X45451055Y-70643307D01*
X45490710Y-70562090D01*
X45487164Y-70470783D01*
X45443978Y-70390905D01*
X45404055Y-70359325D01*
X45342495Y-70331999D01*
X45292248Y-70337671D01*
G37*
X45292248Y-70337671D02*
X45248833Y-70359325D01*
X45184038Y-70421303D01*
X45159040Y-70501202D01*
X45170260Y-70583438D01*
X45214116Y-70652428D01*
X45287028Y-70692587D01*
X45326444Y-70697112D01*
X45402671Y-70677512D01*
X45451055Y-70643307D01*
X45490710Y-70562090D01*
X45487164Y-70470783D01*
X45443978Y-70390905D01*
X45404055Y-70359325D01*
X45342495Y-70331999D01*
X45292248Y-70337671D01*
G36*
X43546938Y-70349443D02*
G01*
X43482139Y-70395678D01*
X43429006Y-70451790D01*
X43407333Y-70500128D01*
X43423608Y-70558743D01*
X43460978Y-70627440D01*
X43502266Y-70674819D01*
X43503280Y-70675513D01*
X43579796Y-70696337D01*
X43665341Y-70676932D01*
X43717778Y-70640667D01*
X43760476Y-70573433D01*
X43774222Y-70513667D01*
X43751195Y-70434313D01*
X43694231Y-70367180D01*
X43621507Y-70331813D01*
X43603606Y-70330223D01*
X43546938Y-70349443D01*
G37*
X43546938Y-70349443D02*
X43482139Y-70395678D01*
X43429006Y-70451790D01*
X43407333Y-70500128D01*
X43423608Y-70558743D01*
X43460978Y-70627440D01*
X43502266Y-70674819D01*
X43503280Y-70675513D01*
X43579796Y-70696337D01*
X43665341Y-70676932D01*
X43717778Y-70640667D01*
X43760476Y-70573433D01*
X43774222Y-70513667D01*
X43751195Y-70434313D01*
X43694231Y-70367180D01*
X43621507Y-70331813D01*
X43603606Y-70330223D01*
X43546938Y-70349443D01*
G36*
X41749061Y-70386363D02*
G01*
X41747544Y-70387766D01*
X41698599Y-70465449D01*
X41694658Y-70550945D01*
X41729491Y-70628420D01*
X41796869Y-70682036D01*
X41869222Y-70697112D01*
X41942224Y-70677483D01*
X41996222Y-70640667D01*
X42045250Y-70564342D01*
X42040558Y-70482845D01*
X41994174Y-70404584D01*
X41918321Y-70343404D01*
X41834413Y-70337180D01*
X41749061Y-70386363D01*
G37*
X41749061Y-70386363D02*
X41747544Y-70387766D01*
X41698599Y-70465449D01*
X41694658Y-70550945D01*
X41729491Y-70628420D01*
X41796869Y-70682036D01*
X41869222Y-70697112D01*
X41942224Y-70677483D01*
X41996222Y-70640667D01*
X42045250Y-70564342D01*
X42040558Y-70482845D01*
X41994174Y-70404584D01*
X41918321Y-70343404D01*
X41834413Y-70337180D01*
X41749061Y-70386363D01*
G36*
X40099359Y-70337671D02*
G01*
X40055944Y-70359325D01*
X39991149Y-70421303D01*
X39966151Y-70501202D01*
X39977371Y-70583438D01*
X40021227Y-70652428D01*
X40094140Y-70692587D01*
X40133555Y-70697112D01*
X40209782Y-70677512D01*
X40258166Y-70643307D01*
X40297821Y-70562090D01*
X40294275Y-70470783D01*
X40251089Y-70390905D01*
X40211166Y-70359325D01*
X40149606Y-70331999D01*
X40099359Y-70337671D01*
G37*
X40099359Y-70337671D02*
X40055944Y-70359325D01*
X39991149Y-70421303D01*
X39966151Y-70501202D01*
X39977371Y-70583438D01*
X40021227Y-70652428D01*
X40094140Y-70692587D01*
X40133555Y-70697112D01*
X40209782Y-70677512D01*
X40258166Y-70643307D01*
X40297821Y-70562090D01*
X40294275Y-70470783D01*
X40251089Y-70390905D01*
X40211166Y-70359325D01*
X40149606Y-70331999D01*
X40099359Y-70337671D01*
G04 #@! TD*
M02*
