M48
; DRILL file {KiCad (5.1.8-0-10_14)} date Wednesday, December 23, 2020 at 01:09:33 PM
; FORMAT={-:-/ absolute / inch / decimal}
; #@! TF.CreationDate,2020-12-23T13:09:33+00:00
; #@! TF.GenerationSoftware,Kicad,Pcbnew,(5.1.8-0-10_14)
; #@! TF.FileFunction,Plated,1,4,PTH
FMAT,2
INCH
T1C0.0079
T2C0.0394
%
G90
G05
T1
X2.4969Y-3.4921
X2.4969Y-3.5177
X2.4969Y-3.5453
X2.5059Y-4.1496
X2.5059Y-4.2441
X2.5059Y-4.3496
X2.5169Y-3.4311
X2.5176Y-3.456
X2.5209Y-3.4823
X2.5309Y-3.8246
X2.5309Y-3.8996
X2.5313Y-3.9884
X2.5313Y-4.012
X2.5406Y-3.3701
X2.5407Y-3.3945
X2.5437Y-3.1694
X2.5437Y-3.2283
X2.5465Y-2.1654
X2.5484Y-2.626
X2.5484Y-3.0748
X2.5484Y-3.4232
X2.5549Y-3.9884
X2.5549Y-4.012
X2.5559Y-1.8425
X2.5559Y-2.8296
X2.5559Y-2.8796
X2.5563Y-2.0551
X2.5563Y-2.437
X2.5583Y-2.1063
X2.5642Y-3.2795
X2.5681Y-2.626
X2.5681Y-3.0295
X2.572Y-3.1693
X2.576Y-2.0433
X2.576Y-2.4252
X2.578Y-2.0965
X2.5839Y-2.9783
X2.5996Y-3.8268
X2.6073Y-3.7364
X2.61Y-3.6364
X2.6103Y-3.2264
X2.6134Y-3.2844
X2.6173Y-3.2028
X2.6193Y-2.815
X2.6193Y-2.8425
X2.6193Y-3.0669
X2.6193Y-3.6063
X2.6228Y-2.7469
X2.6252Y-2.0512
X2.6252Y-2.1988
X2.6252Y-2.4567
X2.6252Y-2.6043
X2.6272Y-2.0335
X2.6272Y-2.1811
X2.6272Y-2.2441
X2.6272Y-2.2638
X2.6272Y-2.439
X2.6272Y-2.5866
X2.6309Y-4.3496
X2.6459Y-2.3761
X2.6488Y-2.9862
X2.6508Y-1.8425
X2.6508Y-1.9685
X2.6774Y-2.9783
X2.6823Y-3.4331
X2.7059Y-3.1496
X2.7079Y-2.9685
X2.7138Y-2.3031
X2.7236Y-3.4862
X2.7295Y-1.8425
X2.7295Y-1.9685
X2.7453Y-3.7402
X2.7551Y-3.0226
X2.7559Y-2.7496
X2.7559Y-4.3496
X2.7659Y-2.3696
X2.7689Y-3.4055
X2.7709Y-2.4291
X2.7709Y-2.5768
X2.7738Y-3.2333
X2.7807Y-3.6201
X2.7856Y-2.9705
X2.7896Y-3.249
X2.7925Y-3.8031
X2.7925Y-3.874
X2.8004Y-2.8996
X2.8004Y-2.935
X2.8043Y-3.126
X2.8063Y-3.5864
X2.8083Y-1.8425
X2.8083Y-1.9685
X2.8102Y-3.2697
X2.8161Y-3.4646
X2.824Y-2.3386
X2.8259Y-3.9346
X2.826Y-2.9911
X2.828Y-3.5157
X2.8319Y-3.0994
X2.8398Y-2.0276
X2.8398Y-2.1732
X2.8555Y-3.2461
X2.8559Y-2.7746
X2.8565Y-4.1346
X2.8565Y-4.1546
X2.8713Y-3.937
X2.8713Y-4.0709
X2.8765Y-4.1346
X2.8765Y-4.1546
X2.8791Y-4.2441
X2.8809Y-4.3496
X2.8831Y-3.3858
X2.8833Y-3.4214
X2.887Y-3.0305
X2.8919Y-2.9911
X2.8929Y-3.1211
X2.8949Y-1.8425
X2.9028Y-3.2244
X2.9047Y-2.0512
X2.9047Y-2.1122
X2.9047Y-2.1988
X2.9047Y-2.2598
X2.9047Y-2.4567
X2.9047Y-2.5177
X2.9047Y-2.6043
X2.9047Y-2.6654
X2.9059Y-2.8496
X2.9059Y-2.9396
X2.9067Y-2.0335
X2.9067Y-2.0945
X2.9067Y-2.1811
X2.9067Y-2.2421
X2.9067Y-2.3346
X2.9067Y-2.439
X2.9067Y-2.5
X2.9067Y-2.5866
X2.9067Y-2.6476
X2.9106Y-1.9685
X2.9125Y-3.252
T2
X2.4059Y-1.7996
X2.4059Y-1.8996
X2.4059Y-1.9996
X2.4059Y-2.0996
X2.4059Y-2.1996
X2.4059Y-2.2996
X2.4059Y-2.3996
X2.4059Y-2.4996
X2.4059Y-2.5996
X2.4059Y-2.6996
X2.4059Y-2.7996
X2.4059Y-2.8996
X2.4059Y-2.9996
X2.4059Y-3.0996
X2.4059Y-3.1996
X2.4059Y-3.2996
X2.4059Y-3.3996
X2.4059Y-3.4996
X2.4059Y-3.5996
X2.4059Y-3.6996
X2.4059Y-3.7996
X2.4059Y-3.8996
X2.4059Y-3.9996
X2.4059Y-4.0996
X2.4059Y-4.1996
X2.4059Y-4.2996
X3.0059Y-1.7996
X3.0059Y-1.8996
X3.0059Y-1.9996
X3.0059Y-2.0996
X3.0059Y-2.1996
X3.0059Y-2.2996
X3.0059Y-2.3996
X3.0059Y-2.4996
X3.0059Y-2.5996
X3.0059Y-2.6996
X3.0059Y-2.7996
X3.0059Y-2.8996
X3.0059Y-2.9996
X3.0059Y-3.0996
X3.0059Y-3.1996
X3.0059Y-3.2996
X3.0059Y-3.3996
X3.0059Y-3.4996
X3.0059Y-3.5996
X3.0059Y-3.6996
X3.0059Y-3.7996
X3.0059Y-3.8996
X3.0059Y-3.9996
X3.0059Y-4.0996
X3.0059Y-4.1996
X3.0059Y-4.2996
T0
M30
