%TF.GenerationSoftware,KiCad,Pcbnew,(5.1.7-0-10_14)*%
%TF.CreationDate,2020-11-21T21:11:40+00:00*%
%TF.ProjectId,carrier,63617272-6965-4722-9e6b-696361645f70,0.1*%
%TF.SameCoordinates,Original*%
%TF.FileFunction,Copper,L3,Inr*%
%TF.FilePolarity,Positive*%
%FSLAX46Y46*%
G04 Gerber Fmt 4.6, Leading zero omitted, Abs format (unit mm)*
G04 Created by KiCad (PCBNEW (5.1.7-0-10_14)) date 2020-11-21 21:11:40*
%MOMM*%
%LPD*%
G01*
G04 APERTURE LIST*
%TA.AperFunction,ComponentPad*%
%ADD10O,1.700000X1.700000*%
%TD*%
%TA.AperFunction,ComponentPad*%
%ADD11R,1.700000X1.700000*%
%TD*%
%TA.AperFunction,ViaPad*%
%ADD12C,0.450000*%
%TD*%
%TA.AperFunction,Conductor*%
%ADD13C,0.450000*%
%TD*%
%TA.AperFunction,Conductor*%
%ADD14C,0.280000*%
%TD*%
%TA.AperFunction,Conductor*%
%ADD15C,1.000000*%
%TD*%
%TA.AperFunction,Conductor*%
%ADD16C,0.100000*%
%TD*%
G04 APERTURE END LIST*
D10*
%TO.N,ext_vddio*%
%TO.C,J2*%
X76350000Y-114290000D03*
%TO.N,ext_1v8*%
X76350000Y-111750000D03*
%TO.N,ext_3v3*%
X76350000Y-109210000D03*
%TO.N,gpio*%
X76350000Y-106670000D03*
%TO.N,resetb*%
X76350000Y-104130000D03*
%TO.N,clock*%
X76350000Y-101590000D03*
%TO.N,mprj_io[0]*%
X76350000Y-99050000D03*
%TO.N,mprj_io[1]*%
X76350000Y-96510000D03*
%TO.N,mprj_io[2]*%
X76350000Y-93970000D03*
%TO.N,mprj_io[3]*%
X76350000Y-91430000D03*
%TO.N,mprj_io[4]*%
X76350000Y-88890000D03*
%TO.N,mprj_io[5]*%
X76350000Y-86350000D03*
%TO.N,mprj_io[6]*%
X76350000Y-83810000D03*
%TO.N,mprj_io[7]*%
X76350000Y-81270000D03*
%TO.N,mprj_io[8]*%
X76350000Y-78730000D03*
%TO.N,mprj_io[9]*%
X76350000Y-76190000D03*
%TO.N,mprj_io[10]*%
X76350000Y-73650000D03*
%TO.N,mprj_io[11]*%
X76350000Y-71110000D03*
%TO.N,mprj_io[12]*%
X76350000Y-68570000D03*
%TO.N,mprj_io[13]*%
X76350000Y-66030000D03*
%TO.N,mprj_io[14]*%
X76350000Y-63490000D03*
%TO.N,mprj_io[15]*%
X76350000Y-60950000D03*
%TO.N,mprj_io[16]*%
X76350000Y-58410000D03*
%TO.N,mprj_io[17]*%
X76350000Y-55870000D03*
%TO.N,mprj_io[18]*%
X76350000Y-53330000D03*
D11*
%TO.N,+5V*%
X76350000Y-50790000D03*
%TD*%
D10*
%TO.N,GND*%
%TO.C,J1*%
X61110000Y-114290000D03*
%TO.N,Net-(J1-Pad25)*%
X61110000Y-111750000D03*
%TO.N,flash_clk*%
X61110000Y-109210000D03*
%TO.N,flash_io1*%
X61110000Y-106670000D03*
%TO.N,flash_io0*%
X61110000Y-104130000D03*
%TO.N,flash_csb*%
X61110000Y-101590000D03*
%TO.N,GND*%
X61110000Y-99050000D03*
%TO.N,mprj_io[37]*%
X61110000Y-96510000D03*
%TO.N,mprj_io[36]*%
X61110000Y-93970000D03*
%TO.N,mprj_io[35]*%
X61110000Y-91430000D03*
%TO.N,mprj_io[34]*%
X61110000Y-88890000D03*
%TO.N,mprj_io[33]*%
X61110000Y-86350000D03*
%TO.N,mprj_io[32]*%
X61110000Y-83810000D03*
%TO.N,mprj_io[31]*%
X61110000Y-81270000D03*
%TO.N,mprj_io[30]*%
X61110000Y-78730000D03*
%TO.N,mprj_io[29]*%
X61110000Y-76190000D03*
%TO.N,mprj_io[28]*%
X61110000Y-73650000D03*
%TO.N,mprj_io[27]*%
X61110000Y-71110000D03*
%TO.N,mprj_io[26]*%
X61110000Y-68570000D03*
%TO.N,mprj_io[25]*%
X61110000Y-66030000D03*
%TO.N,mprj_io[24]*%
X61110000Y-63490000D03*
%TO.N,mprj_io[23]*%
X61110000Y-60950000D03*
%TO.N,mprj_io[22]*%
X61110000Y-58410000D03*
%TO.N,mprj_io[21]*%
X61110000Y-55870000D03*
%TO.N,mprj_io[20]*%
X61110000Y-53330000D03*
D11*
%TO.N,mprj_io[19]*%
X61110000Y-50790000D03*
%TD*%
D12*
%TO.N,vdda*%
X72480000Y-112000000D03*
%TO.N,flash_csb*%
X68680000Y-84600000D03*
%TO.N,vdda*%
X71270000Y-65095000D03*
%TO.N,vddio*%
X72530000Y-113300000D03*
X72030000Y-113600000D03*
%TO.N,vccd1*%
X72530000Y-103600000D03*
X72030000Y-103900000D03*
%TO.N,vdda1*%
X72530000Y-98750000D03*
X72030000Y-99000000D03*
%TO.N,GND*%
X63630000Y-113850000D03*
X70780000Y-113400000D03*
X63680000Y-113400000D03*
X70730000Y-113850000D03*
%TO.N,+5V*%
X63630000Y-112300000D03*
X63680000Y-111850000D03*
%TO.N,GND*%
X63630000Y-110100000D03*
X70780000Y-109650000D03*
X63680000Y-109650000D03*
X70730000Y-110100000D03*
%TO.N,+5V*%
X63630000Y-108550000D03*
X63680000Y-108100000D03*
%TO.N,GND*%
X63630000Y-103550000D03*
X70780000Y-103100000D03*
X63680000Y-103100000D03*
X70730000Y-103550000D03*
%TO.N,+5V*%
X63630000Y-102000000D03*
X63680000Y-101550000D03*
X63630000Y-98250000D03*
X63680000Y-97800000D03*
%TO.N,vdda1*%
X72430000Y-78200000D03*
%TO.N,GND*%
X67005000Y-77875000D03*
X63730000Y-78100000D03*
%TO.N,vddio*%
X64930000Y-77550000D03*
%TO.N,vccd1*%
X64930000Y-76400000D03*
%TO.N,GND*%
X63980000Y-80725000D03*
%TO.N,vdda1*%
X64980000Y-81275000D03*
%TO.N,GND*%
X72730000Y-81900000D03*
%TO.N,vdda*%
X72230000Y-83050000D03*
%TO.N,GND*%
X68730000Y-80000000D03*
X70780000Y-99350000D03*
X70730000Y-99800000D03*
X63680000Y-99350000D03*
X63630000Y-99800000D03*
X70930000Y-88550000D03*
X70930000Y-87750000D03*
X65155000Y-84025000D03*
X66190000Y-68905000D03*
X66605000Y-77475000D03*
X63455010Y-77400000D03*
X71230000Y-61500000D03*
X73030000Y-78000000D03*
X72980010Y-79500000D03*
%TO.N,resetb*%
X74130000Y-69950000D03*
%TO.N,mprj_io[6]*%
X74130000Y-71300000D03*
%TO.N,mprj_io[5]*%
X73530000Y-71550000D03*
%TO.N,mprj_io[4]*%
X73530000Y-72200000D03*
%TO.N,mprj_io[3]*%
X73530000Y-72850000D03*
%TO.N,mprj_io[2]*%
X72930000Y-73100000D03*
%TO.N,mprj_io[1]*%
X72930000Y-73750000D03*
%TO.N,mprj_io[0]*%
X72930000Y-74400000D03*
%TO.N,mprj_io[7]*%
X74130000Y-70650000D03*
%TO.N,vddio*%
X65330000Y-73800000D03*
%TO.N,vccd*%
X70730000Y-108000000D03*
X70730000Y-108500000D03*
%TO.N,flash_io1*%
X70230000Y-84350000D03*
%TO.N,gpio*%
X71880000Y-84350000D03*
%TO.N,mprj_io[24]*%
X63855000Y-73850000D03*
%TO.N,mprj_io[19]*%
X63855000Y-73125000D03*
%TO.N,mprj_io[32]*%
X66205000Y-80625000D03*
%TO.N,vccd*%
X66155000Y-84575000D03*
%TO.N,vdda*%
X66330000Y-85450000D03*
X66330000Y-86350000D03*
%TO.N,+5V*%
X65330000Y-114000000D03*
X65330000Y-110300000D03*
X63730000Y-56500000D03*
%TO.N,mprj_io[11]*%
X71155000Y-78050000D03*
%TO.N,vdda*%
X71980000Y-112250000D03*
%TO.N,vccd1*%
X72330000Y-76700000D03*
%TO.N,vddio*%
X66230000Y-61500000D03*
%TO.N,gpio*%
X67080000Y-103800000D03*
X67080000Y-100050000D03*
%TO.N,flash_io0*%
X70655000Y-68900000D03*
X69454990Y-84350000D03*
%TO.N,flash_csb*%
X66680000Y-65100000D03*
%TO.N,flash_io1*%
X70280000Y-70100000D03*
%TO.N,resetb*%
X71280000Y-58300000D03*
%TO.N,mprj_io[2]*%
X68280000Y-61550000D03*
%TO.N,mprj_io[1]*%
X67280000Y-58300000D03*
%TO.N,mprj_io[36]*%
X64005000Y-84025000D03*
%TO.N,mprj_io[4]*%
X69230000Y-61550000D03*
%TO.N,mprj_io[3]*%
X68280000Y-58300000D03*
%TO.N,flash_clk*%
X70930000Y-82100000D03*
X71180000Y-67650000D03*
%TO.N,mprj_io[33]*%
X67430004Y-84050000D03*
%TO.N,mprj_io[34]*%
X63954998Y-83025000D03*
%TO.N,mprj_io[6]*%
X70280000Y-61550000D03*
%TO.N,mprj_io[5]*%
X69230000Y-58300000D03*
%TO.N,mprj_io[0]*%
X67230000Y-61550000D03*
%TO.N,mprj_io[7]*%
X70280000Y-58300000D03*
%TO.N,mprj_io[12]*%
X71180000Y-78624990D03*
%TO.N,mprj_io[15]*%
X71080000Y-76575010D03*
%TD*%
D13*
%TO.N,+5V*%
X63680000Y-97800000D02*
X64500002Y-97800000D01*
X63630000Y-97850000D02*
X63680000Y-97800000D01*
X63630000Y-98250000D02*
X63630000Y-97850000D01*
X63680000Y-101550000D02*
X64480002Y-101550000D01*
X63630000Y-101600000D02*
X63680000Y-101550000D01*
X63630000Y-102000000D02*
X63630000Y-101600000D01*
X63630000Y-108550000D02*
X64564000Y-108550000D01*
X63630000Y-108150000D02*
X63680000Y-108100000D01*
X63630000Y-108550000D02*
X63630000Y-108150000D01*
X63630000Y-111900000D02*
X63680000Y-111850000D01*
X63630000Y-112300000D02*
X63630000Y-111900000D01*
X63630000Y-112300000D02*
X64615200Y-112300000D01*
X63680000Y-108100000D02*
X64564400Y-108100000D01*
X63680000Y-111850000D02*
X64639000Y-111850000D01*
X63630000Y-102000000D02*
X64535400Y-102000000D01*
X63630000Y-98250000D02*
X64488200Y-98250000D01*
D14*
X64593001Y-113263001D02*
X65330000Y-114000000D01*
X64593001Y-112026199D02*
X64593001Y-113263001D01*
X65330000Y-110300000D02*
X64930000Y-110300000D01*
X64930000Y-110300000D02*
X64593001Y-110636999D01*
D15*
X64593001Y-112026199D02*
X64593001Y-110636999D01*
X66340000Y-50790000D02*
X76350000Y-50790000D01*
X65430000Y-51700000D02*
X66340000Y-50790000D01*
X62630000Y-54500000D02*
X65530000Y-51600000D01*
X64593001Y-96183001D02*
X62630000Y-94220000D01*
X64593001Y-110636999D02*
X64593001Y-96183001D01*
D13*
X63730000Y-56500000D02*
X63230000Y-56500000D01*
X63230000Y-56500000D02*
X62630000Y-55900000D01*
D15*
X62630000Y-55900000D02*
X62630000Y-54500000D01*
X62630000Y-94220000D02*
X62630000Y-55900000D01*
D13*
%TO.N,vccd*%
X65779999Y-105049999D02*
X65779999Y-84950001D01*
X70179999Y-107449999D02*
X68179999Y-107449999D01*
X65779999Y-84950001D02*
X66155000Y-84575000D01*
X68179999Y-107449999D02*
X65779999Y-105049999D01*
X70730000Y-108000000D02*
X70179999Y-107449999D01*
%TO.N,vdda*%
X66330000Y-85450000D02*
X66330000Y-86350000D01*
X66330000Y-86350000D02*
X68280000Y-88300000D01*
X71030000Y-84200000D02*
X72180000Y-83050000D01*
X71030000Y-86014002D02*
X71030000Y-84200000D01*
X70230000Y-106250000D02*
X68715998Y-106250000D01*
X66529999Y-104064001D02*
X66529999Y-90514003D01*
X71980000Y-108000000D02*
X70230000Y-106250000D01*
X68715998Y-106250000D02*
X66529999Y-104064001D01*
X71980000Y-112250000D02*
X71980000Y-108000000D01*
X68280000Y-88300000D02*
X68512001Y-88532001D01*
X68512001Y-88532001D02*
X71030000Y-86014002D01*
X66529999Y-90514003D02*
X68512001Y-88532001D01*
%TO.N,vccd1*%
X65304991Y-76025009D02*
X71655009Y-76025009D01*
X71655009Y-76025009D02*
X72330000Y-76700000D01*
X64930000Y-76400000D02*
X65304991Y-76025009D01*
X70179999Y-101685997D02*
X72030000Y-103535998D01*
X72830000Y-82782001D02*
X72830000Y-85035998D01*
X72330000Y-76700000D02*
X71879999Y-77150001D01*
X71879999Y-77150001D02*
X71879999Y-81832000D01*
X72830000Y-85035998D02*
X70179999Y-87685999D01*
X72030000Y-103535998D02*
X72030000Y-103900000D01*
X70179999Y-87685999D02*
X70179999Y-101685997D01*
X71879999Y-81832000D02*
X72830000Y-82782001D01*
%TO.N,vdda1*%
X65480001Y-80774999D02*
X64980000Y-81275000D01*
X65480001Y-77285999D02*
X65480001Y-80774999D01*
X65194001Y-76999999D02*
X65480001Y-77285999D01*
X64665999Y-76999999D02*
X65194001Y-76999999D01*
X64980002Y-75474999D02*
X64330000Y-76125001D01*
X64330000Y-76664000D02*
X64665999Y-76999999D01*
X72304999Y-75474999D02*
X64980002Y-75474999D01*
X73030000Y-76200000D02*
X72304999Y-75474999D01*
X64330000Y-76125001D02*
X64330000Y-76664000D01*
X72430000Y-77785998D02*
X72430000Y-78200000D01*
X73030000Y-77185998D02*
X72430000Y-77785998D01*
X73030000Y-76200000D02*
X73030000Y-77185998D01*
X73430000Y-97600000D02*
X72030000Y-99000000D01*
X73430000Y-81800000D02*
X73430000Y-97600000D01*
X72430000Y-80800000D02*
X73430000Y-81800000D01*
X72430000Y-78200000D02*
X72430000Y-80800000D01*
%TO.N,vddio*%
X64438170Y-77550000D02*
X64930000Y-77550000D01*
X63694001Y-76805831D02*
X64438170Y-77550000D01*
X63694001Y-75735999D02*
X63694001Y-76805831D01*
X65130000Y-74300000D02*
X63694001Y-75735999D01*
X65330000Y-74100000D02*
X65130000Y-74300000D01*
X65330000Y-73800000D02*
X65330000Y-74100000D01*
X65330000Y-62400000D02*
X66230000Y-61500000D01*
X65330000Y-73800000D02*
X65330000Y-62400000D01*
X74030000Y-111800000D02*
X74030000Y-81600000D01*
X74030000Y-81600000D02*
X73630000Y-81200000D01*
X73630000Y-76000000D02*
X71930000Y-74300000D01*
X71930000Y-74300000D02*
X65130000Y-74300000D01*
X73630000Y-81200000D02*
X73630000Y-76000000D01*
X72530000Y-113300000D02*
X74030000Y-111800000D01*
D16*
%TO.N,resetb*%
X74130000Y-61150000D02*
X71280000Y-58300000D01*
X74130000Y-69950000D02*
X74130000Y-61150000D01*
%TO.N,mprj_io[2]*%
X68280000Y-62384288D02*
X68280000Y-61550000D01*
X69412851Y-63517139D02*
X68280000Y-62384288D01*
X73030000Y-73200000D02*
X72680000Y-72850000D01*
X70897139Y-63517139D02*
X69412851Y-63517139D01*
X72680000Y-72850000D02*
X72680000Y-65300000D01*
X72680000Y-65300000D02*
X70897139Y-63517139D01*
%TO.N,mprj_io[1]*%
X67280000Y-61050000D02*
X67280000Y-58300000D01*
X69362856Y-63750000D02*
X67605001Y-61992145D01*
X70830000Y-63750000D02*
X69362856Y-63750000D01*
X72480000Y-65400000D02*
X70830000Y-63750000D01*
X67605001Y-61992145D02*
X67605001Y-61375001D01*
X72480000Y-73350000D02*
X72480000Y-65400000D01*
X67605001Y-61375001D02*
X67280000Y-61050000D01*
X72830000Y-73700000D02*
X72480000Y-73350000D01*
%TO.N,mprj_io[4]*%
X69230000Y-62650000D02*
X69230000Y-61550000D01*
X69680000Y-63100000D02*
X69230000Y-62650000D01*
X73129969Y-65149970D02*
X71080000Y-63100000D01*
X73129969Y-71799969D02*
X73129969Y-65149970D01*
X71080000Y-63100000D02*
X69680000Y-63100000D01*
X73530000Y-72200000D02*
X73129969Y-71799969D01*
%TO.N,mprj_io[3]*%
X68280000Y-61000000D02*
X68280000Y-58300000D01*
X68655001Y-61375001D02*
X68280000Y-61000000D01*
X70979985Y-63317129D02*
X69495697Y-63317129D01*
X72880000Y-65217144D02*
X70979985Y-63317129D01*
X72880000Y-72200000D02*
X72880000Y-65217144D01*
X69495697Y-63317129D02*
X68655001Y-62476433D01*
X68655001Y-62476433D02*
X68655001Y-61375001D01*
X73530000Y-72850000D02*
X72880000Y-72200000D01*
%TO.N,mprj_io[6]*%
X73529990Y-64917136D02*
X70280000Y-61667146D01*
X73529990Y-70699990D02*
X73529990Y-64917136D01*
X70280000Y-61667146D02*
X70280000Y-61550000D01*
X74130000Y-71300000D02*
X73529990Y-70699990D01*
%TO.N,mprj_io[5]*%
X69605001Y-62525001D02*
X69605001Y-58675001D01*
X71179996Y-62850000D02*
X69930000Y-62850000D01*
X73329980Y-64999984D02*
X71179996Y-62850000D01*
X69930000Y-62850000D02*
X69605001Y-62525001D01*
X69605001Y-58675001D02*
X69454999Y-58524999D01*
X73329980Y-71349980D02*
X73329980Y-64999984D01*
X69454999Y-58524999D02*
X69230000Y-58300000D01*
X73530000Y-71550000D02*
X73329980Y-71349980D01*
%TO.N,mprj_io[0]*%
X67230000Y-61900000D02*
X67230000Y-61550000D01*
X69304999Y-63974999D02*
X67230000Y-61900000D01*
X72930000Y-74400000D02*
X72280000Y-73750000D01*
X70704999Y-63974999D02*
X69304999Y-63974999D01*
X72280000Y-65550000D02*
X70704999Y-63974999D01*
X72280000Y-73750000D02*
X72280000Y-65550000D01*
%TO.N,mprj_io[7]*%
X70280000Y-61000000D02*
X70280000Y-58300000D01*
X70430000Y-61150000D02*
X70280000Y-61000000D01*
X70655001Y-61759289D02*
X70655001Y-61369999D01*
X70435002Y-61150000D02*
X70430000Y-61150000D01*
X73730000Y-70250000D02*
X73730000Y-64834288D01*
X70655001Y-61369999D02*
X70435002Y-61150000D01*
X73730000Y-64834288D02*
X70655001Y-61759289D01*
X74130000Y-70650000D02*
X73730000Y-70250000D01*
%TD*%
M02*
