G04 #@! TF.GenerationSoftware,KiCad,Pcbnew,5.1.10-88a1d61d58~88~ubuntu20.04.1*
G04 #@! TF.CreationDate,2021-08-11T17:00:08+02:00*
G04 #@! TF.ProjectId,carrier,63617272-6965-4722-9e6b-696361645f70,0.1*
G04 #@! TF.SameCoordinates,Original*
G04 #@! TF.FileFunction,Copper,L2,Bot*
G04 #@! TF.FilePolarity,Positive*
%FSLAX46Y46*%
G04 Gerber Fmt 4.6, Leading zero omitted, Abs format (unit mm)*
G04 Created by KiCad (PCBNEW 5.1.10-88a1d61d58~88~ubuntu20.04.1) date 2021-08-11 17:00:08*
%MOMM*%
%LPD*%
G01*
G04 APERTURE LIST*
G04 #@! TA.AperFunction,ComponentPad*
%ADD10R,1.700000X1.700000*%
G04 #@! TD*
G04 #@! TA.AperFunction,ComponentPad*
%ADD11O,1.700000X1.700000*%
G04 #@! TD*
G04 #@! TA.AperFunction,ComponentPad*
%ADD12C,2.000000*%
G04 #@! TD*
G04 #@! TA.AperFunction,ComponentPad*
%ADD13C,5.000000*%
G04 #@! TD*
G04 #@! TA.AperFunction,ComponentPad*
%ADD14C,1.450000*%
G04 #@! TD*
G04 #@! TA.AperFunction,ComponentPad*
%ADD15O,1.200000X1.900000*%
G04 #@! TD*
G04 #@! TA.AperFunction,SMDPad,CuDef*
%ADD16C,1.000000*%
G04 #@! TD*
G04 #@! TA.AperFunction,ViaPad*
%ADD17C,0.450000*%
G04 #@! TD*
G04 #@! TA.AperFunction,Conductor*
%ADD18C,0.127000*%
G04 #@! TD*
G04 #@! TA.AperFunction,Conductor*
%ADD19C,0.450000*%
G04 #@! TD*
G04 #@! TA.AperFunction,Conductor*
%ADD20C,0.101600*%
G04 #@! TD*
G04 #@! TA.AperFunction,Conductor*
%ADD21C,0.150000*%
G04 #@! TD*
G04 #@! TA.AperFunction,Conductor*
%ADD22C,0.100000*%
G04 #@! TD*
G04 APERTURE END LIST*
D10*
G04 #@! TO.P,J1,1*
G04 #@! TO.N,mprj_io[3]*
X42010000Y-85920000D03*
D11*
G04 #@! TO.P,J1,2*
G04 #@! TO.N,mprj_io[2]*
X39470000Y-85920000D03*
G04 #@! TO.P,J1,3*
G04 #@! TO.N,mprj_io[4]*
X42010000Y-83380000D03*
G04 #@! TO.P,J1,4*
G04 #@! TO.N,GND*
X39470000Y-83380000D03*
G04 #@! TO.P,J1,5*
G04 #@! TO.N,mprj_io[1]*
X42010000Y-80840000D03*
G04 #@! TO.P,J1,6*
G04 #@! TO.N,+5V*
X39470000Y-80840000D03*
G04 #@! TD*
D12*
G04 #@! TO.P,J2,7*
G04 #@! TO.N,GND*
X52911000Y-97000000D03*
G04 #@! TO.P,J2,8*
X50625000Y-97000000D03*
G04 #@! TO.P,J2,6*
X55197000Y-97000000D03*
G04 #@! TO.P,J2,9*
G04 #@! TO.N,Net-(J2-Pad9)*
X48339000Y-97000000D03*
G04 #@! TO.P,J2,10*
G04 #@! TO.N,GND*
X46053000Y-97000000D03*
G04 #@! TO.P,J2,3*
G04 #@! TO.N,/blue*
X49480000Y-94460000D03*
G04 #@! TO.P,J2,5*
G04 #@! TO.N,GND*
X44908000Y-94460000D03*
G04 #@! TO.P,J2,1*
G04 #@! TO.N,/red*
X54052000Y-94460000D03*
G04 #@! TO.P,J2,4*
G04 #@! TO.N,Net-(J2-Pad4)*
X47194000Y-94460000D03*
G04 #@! TO.P,J2,2*
G04 #@! TO.N,/green*
X51766000Y-94460000D03*
G04 #@! TO.P,J2,15*
G04 #@! TO.N,Net-(J2-Pad15)*
X44908000Y-99540000D03*
G04 #@! TO.P,J2,14*
G04 #@! TO.N,mprj_io[12]*
X47194000Y-99540000D03*
G04 #@! TO.P,J2,13*
G04 #@! TO.N,mprj_io[11]*
X49480000Y-99540000D03*
G04 #@! TO.P,J2,12*
G04 #@! TO.N,Net-(J2-Pad12)*
X51766000Y-99540000D03*
G04 #@! TO.P,J2,11*
G04 #@! TO.N,Net-(J2-Pad11)*
X54052000Y-99540000D03*
D13*
G04 #@! TO.P,J2,*
G04 #@! TO.N,*
X37235000Y-97000000D03*
X62225000Y-97000000D03*
G04 #@! TD*
D14*
G04 #@! TO.P,J3,6*
G04 #@! TO.N,Net-(J3-Pad6)*
X60230000Y-64700000D03*
X55230000Y-64700000D03*
D15*
X61230000Y-62000000D03*
X54230000Y-62000000D03*
G04 #@! TD*
D16*
G04 #@! TO.P,TP2,1*
G04 #@! TO.N,flash_clk*
X60480000Y-80500000D03*
G04 #@! TD*
G04 #@! TO.P,TP3,1*
G04 #@! TO.N,flash_csb*
X60480000Y-82500000D03*
G04 #@! TD*
G04 #@! TO.P,TP4,1*
G04 #@! TO.N,flash_io0*
X62480000Y-80500000D03*
G04 #@! TD*
G04 #@! TO.P,TP5,1*
G04 #@! TO.N,flash_io1*
X62480000Y-82500000D03*
G04 #@! TD*
G04 #@! TO.P,TP6,1*
G04 #@! TO.N,clock*
X42630000Y-76000000D03*
G04 #@! TD*
G04 #@! TO.P,TP7,1*
G04 #@! TO.N,mprj_io[11]*
X48830000Y-103250000D03*
G04 #@! TD*
G04 #@! TO.P,TP8,1*
G04 #@! TO.N,mprj_io[12]*
X46530000Y-103250000D03*
G04 #@! TD*
D17*
G04 #@! TO.N,GND*
X51730000Y-81000000D03*
X62980000Y-86250000D03*
X51230000Y-73500000D03*
X49230000Y-75000000D03*
X51480000Y-68000000D03*
X58230000Y-73500000D03*
X58230000Y-68000000D03*
X56230000Y-66250000D03*
X56330004Y-81600000D03*
X53872111Y-82657889D03*
X46730000Y-74000000D03*
X47730000Y-74500000D03*
X39510000Y-75600000D03*
G04 #@! TO.N,vccd*
X49930000Y-85200000D03*
X55730000Y-84800000D03*
X58229998Y-79800000D03*
X57297378Y-79604807D03*
G04 #@! TO.N,vdda*
X58930000Y-75800000D03*
X55530000Y-83000000D03*
G04 #@! TO.N,flash_io0*
X62130000Y-78600000D03*
G04 #@! TO.N,flash_csb*
X59230000Y-83300000D03*
G04 #@! TO.N,resetb*
X48930000Y-78600000D03*
X53030000Y-78100000D03*
G04 #@! TO.N,flash_io1*
X56930000Y-78600000D03*
X56529998Y-77200000D03*
X61530000Y-83300000D03*
G04 #@! TO.N,clock*
X54130000Y-79800000D03*
X44530000Y-76600000D03*
G04 #@! TO.N,flash_clk*
X60930000Y-79200000D03*
G04 #@! TO.N,gpio*
X51130000Y-75000000D03*
X52230000Y-76000000D03*
G04 #@! TD*
D18*
G04 #@! TO.N,vccd*
X49930000Y-85200000D02*
X55130000Y-85200000D01*
X55330000Y-85200000D02*
X55730000Y-84800000D01*
X55130000Y-85200000D02*
X55330000Y-85200000D01*
D19*
X58034805Y-79604807D02*
X58229998Y-79800000D01*
X57297378Y-79604807D02*
X58034805Y-79604807D01*
G04 #@! TO.N,vdda*
X57930000Y-83000000D02*
X55530000Y-83000000D01*
X59230000Y-81700000D02*
X57930000Y-83000000D01*
X59230000Y-76100000D02*
X59230000Y-81700000D01*
X58930000Y-75800000D02*
X59230000Y-76100000D01*
D20*
G04 #@! TO.N,flash_io0*
X62480000Y-78950000D02*
X62130000Y-78600000D01*
X62480000Y-80500000D02*
X62480000Y-78950000D01*
G04 #@! TO.N,flash_csb*
X59680000Y-83300000D02*
X59230000Y-83300000D01*
X60480000Y-82500000D02*
X59680000Y-83300000D01*
D18*
G04 #@! TO.N,resetb*
X48930000Y-78600000D02*
X52530000Y-78600000D01*
X52530000Y-78600000D02*
X53030000Y-78100000D01*
G04 #@! TO.N,flash_io1*
X56930000Y-77600002D02*
X56529998Y-77200000D01*
X56930000Y-78600000D02*
X56930000Y-77600002D01*
D20*
X61680000Y-83300000D02*
X61530000Y-83300000D01*
X62480000Y-82500000D02*
X61680000Y-83300000D01*
D18*
G04 #@! TO.N,clock*
X44754999Y-76824999D02*
X44530000Y-76600000D01*
X44779998Y-76800000D02*
X44754999Y-76824999D01*
X52930000Y-76800000D02*
X44779998Y-76800000D01*
X54130000Y-78000000D02*
X52930000Y-76800000D01*
X54130000Y-79800000D02*
X54130000Y-78000000D01*
D20*
X43930000Y-76000000D02*
X44530000Y-76600000D01*
X42630000Y-76000000D02*
X43930000Y-76000000D01*
G04 #@! TO.N,flash_clk*
X60480000Y-80500000D02*
X60480000Y-79650000D01*
X60480000Y-79650000D02*
X60930000Y-79200000D01*
G04 #@! TO.N,mprj_io[12]*
X46530000Y-100204000D02*
X47194000Y-99540000D01*
X46530000Y-103250000D02*
X46530000Y-100204000D01*
G04 #@! TO.N,mprj_io[11]*
X48830000Y-100190000D02*
X49480000Y-99540000D01*
X48830000Y-103250000D02*
X48830000Y-100190000D01*
D18*
G04 #@! TO.N,gpio*
X51130000Y-75000000D02*
X52130000Y-76000000D01*
X52130000Y-76000000D02*
X52230000Y-76000000D01*
G04 #@! TD*
D21*
G04 #@! TO.N,GND*
X63069678Y-60284505D02*
X63396416Y-60383153D01*
X63697775Y-60543389D01*
X63962267Y-60759104D01*
X64179822Y-61022082D01*
X64342154Y-61322310D01*
X64443083Y-61648359D01*
X64479997Y-61999576D01*
X64480001Y-62000592D01*
X64480000Y-95469976D01*
X64341646Y-95262914D01*
X63962086Y-94883354D01*
X63515771Y-94585136D01*
X63019853Y-94379720D01*
X62493389Y-94275000D01*
X61956611Y-94275000D01*
X61430147Y-94379720D01*
X60934229Y-94585136D01*
X60487914Y-94883354D01*
X60108354Y-95262914D01*
X59810136Y-95709229D01*
X59604720Y-96205147D01*
X59500000Y-96731611D01*
X59500000Y-97268389D01*
X59604720Y-97794853D01*
X59810136Y-98290771D01*
X60108354Y-98737086D01*
X60487914Y-99116646D01*
X60934229Y-99414864D01*
X61430147Y-99620280D01*
X61956611Y-99725000D01*
X62493389Y-99725000D01*
X63019853Y-99620280D01*
X63515771Y-99414864D01*
X63962086Y-99116646D01*
X64341646Y-98737086D01*
X64480000Y-98530024D01*
X64480000Y-105987771D01*
X64445495Y-106339679D01*
X64346847Y-106666416D01*
X64186612Y-106967773D01*
X63970900Y-107232262D01*
X63707918Y-107449822D01*
X63407690Y-107612154D01*
X63081642Y-107713083D01*
X62730424Y-107749997D01*
X62729693Y-107750000D01*
X36742229Y-107750000D01*
X36390321Y-107715495D01*
X36063584Y-107616847D01*
X35762227Y-107456612D01*
X35497738Y-107240900D01*
X35280178Y-106977918D01*
X35117846Y-106677690D01*
X35016917Y-106351642D01*
X34980003Y-106000424D01*
X34980000Y-105999693D01*
X34980000Y-98530025D01*
X35118354Y-98737086D01*
X35497914Y-99116646D01*
X35944229Y-99414864D01*
X36440147Y-99620280D01*
X36966611Y-99725000D01*
X37503389Y-99725000D01*
X38029853Y-99620280D01*
X38514945Y-99419348D01*
X43683000Y-99419348D01*
X43683000Y-99660652D01*
X43730076Y-99897319D01*
X43822419Y-100120255D01*
X43956481Y-100320892D01*
X44127108Y-100491519D01*
X44327745Y-100625581D01*
X44550681Y-100717924D01*
X44787348Y-100765000D01*
X45028652Y-100765000D01*
X45265319Y-100717924D01*
X45488255Y-100625581D01*
X45688892Y-100491519D01*
X45859519Y-100320892D01*
X45993581Y-100120255D01*
X46051000Y-99981633D01*
X46108419Y-100120255D01*
X46242481Y-100320892D01*
X46254201Y-100332612D01*
X46254200Y-102579505D01*
X46186584Y-102607513D01*
X46067839Y-102686856D01*
X45966856Y-102787839D01*
X45887513Y-102906584D01*
X45832861Y-103038525D01*
X45805000Y-103178594D01*
X45805000Y-103321406D01*
X45832861Y-103461475D01*
X45887513Y-103593416D01*
X45966856Y-103712161D01*
X46067839Y-103813144D01*
X46186584Y-103892487D01*
X46318525Y-103947139D01*
X46458594Y-103975000D01*
X46601406Y-103975000D01*
X46741475Y-103947139D01*
X46873416Y-103892487D01*
X46992161Y-103813144D01*
X47093144Y-103712161D01*
X47172487Y-103593416D01*
X47227139Y-103461475D01*
X47255000Y-103321406D01*
X47255000Y-103178594D01*
X47227139Y-103038525D01*
X47172487Y-102906584D01*
X47093144Y-102787839D01*
X46992161Y-102686856D01*
X46873416Y-102607513D01*
X46805800Y-102579505D01*
X46805800Y-100705133D01*
X46836681Y-100717924D01*
X47073348Y-100765000D01*
X47314652Y-100765000D01*
X47551319Y-100717924D01*
X47774255Y-100625581D01*
X47974892Y-100491519D01*
X48145519Y-100320892D01*
X48279581Y-100120255D01*
X48337000Y-99981633D01*
X48394419Y-100120255D01*
X48528481Y-100320892D01*
X48554201Y-100346612D01*
X48554200Y-102579505D01*
X48486584Y-102607513D01*
X48367839Y-102686856D01*
X48266856Y-102787839D01*
X48187513Y-102906584D01*
X48132861Y-103038525D01*
X48105000Y-103178594D01*
X48105000Y-103321406D01*
X48132861Y-103461475D01*
X48187513Y-103593416D01*
X48266856Y-103712161D01*
X48367839Y-103813144D01*
X48486584Y-103892487D01*
X48618525Y-103947139D01*
X48758594Y-103975000D01*
X48901406Y-103975000D01*
X49041475Y-103947139D01*
X49173416Y-103892487D01*
X49292161Y-103813144D01*
X49393144Y-103712161D01*
X49472487Y-103593416D01*
X49527139Y-103461475D01*
X49555000Y-103321406D01*
X49555000Y-103178594D01*
X49527139Y-103038525D01*
X49472487Y-102906584D01*
X49393144Y-102787839D01*
X49292161Y-102686856D01*
X49173416Y-102607513D01*
X49105800Y-102579505D01*
X49105800Y-100710932D01*
X49122681Y-100717924D01*
X49359348Y-100765000D01*
X49600652Y-100765000D01*
X49837319Y-100717924D01*
X50060255Y-100625581D01*
X50260892Y-100491519D01*
X50431519Y-100320892D01*
X50565581Y-100120255D01*
X50623000Y-99981633D01*
X50680419Y-100120255D01*
X50814481Y-100320892D01*
X50985108Y-100491519D01*
X51185745Y-100625581D01*
X51408681Y-100717924D01*
X51645348Y-100765000D01*
X51886652Y-100765000D01*
X52123319Y-100717924D01*
X52346255Y-100625581D01*
X52546892Y-100491519D01*
X52717519Y-100320892D01*
X52851581Y-100120255D01*
X52909000Y-99981633D01*
X52966419Y-100120255D01*
X53100481Y-100320892D01*
X53271108Y-100491519D01*
X53471745Y-100625581D01*
X53694681Y-100717924D01*
X53931348Y-100765000D01*
X54172652Y-100765000D01*
X54409319Y-100717924D01*
X54632255Y-100625581D01*
X54832892Y-100491519D01*
X55003519Y-100320892D01*
X55137581Y-100120255D01*
X55229924Y-99897319D01*
X55277000Y-99660652D01*
X55277000Y-99419348D01*
X55229924Y-99182681D01*
X55137581Y-98959745D01*
X55003519Y-98759108D01*
X54832892Y-98588481D01*
X54725051Y-98516423D01*
X55002081Y-98578670D01*
X55313810Y-98586363D01*
X55621050Y-98533093D01*
X55911994Y-98420907D01*
X55981213Y-98383909D01*
X56084263Y-98140407D01*
X55197000Y-97253144D01*
X54309737Y-98140407D01*
X54403017Y-98360822D01*
X54172652Y-98315000D01*
X53931348Y-98315000D01*
X53705351Y-98359954D01*
X53798263Y-98140407D01*
X52911000Y-97253144D01*
X52023737Y-98140407D01*
X52117017Y-98360822D01*
X51886652Y-98315000D01*
X51645348Y-98315000D01*
X51419351Y-98359954D01*
X51512263Y-98140407D01*
X50625000Y-97253144D01*
X49737737Y-98140407D01*
X49831017Y-98360822D01*
X49600652Y-98315000D01*
X49359348Y-98315000D01*
X49122681Y-98362076D01*
X48899745Y-98454419D01*
X48699108Y-98588481D01*
X48528481Y-98759108D01*
X48394419Y-98959745D01*
X48337000Y-99098367D01*
X48279581Y-98959745D01*
X48145519Y-98759108D01*
X47974892Y-98588481D01*
X47774255Y-98454419D01*
X47551319Y-98362076D01*
X47314652Y-98315000D01*
X47073348Y-98315000D01*
X46847351Y-98359954D01*
X46940263Y-98140407D01*
X46053000Y-97253144D01*
X45165737Y-98140407D01*
X45259017Y-98360822D01*
X45028652Y-98315000D01*
X44787348Y-98315000D01*
X44550681Y-98362076D01*
X44327745Y-98454419D01*
X44127108Y-98588481D01*
X43956481Y-98759108D01*
X43822419Y-98959745D01*
X43730076Y-99182681D01*
X43683000Y-99419348D01*
X38514945Y-99419348D01*
X38525771Y-99414864D01*
X38972086Y-99116646D01*
X39351646Y-98737086D01*
X39649864Y-98290771D01*
X39855280Y-97794853D01*
X39960000Y-97268389D01*
X39960000Y-96731611D01*
X39855280Y-96205147D01*
X39649864Y-95709229D01*
X39577152Y-95600407D01*
X44020737Y-95600407D01*
X44123787Y-95843909D01*
X44408843Y-95970310D01*
X44713081Y-96038670D01*
X44841697Y-96041844D01*
X44912591Y-96112738D01*
X44669091Y-96215787D01*
X44542690Y-96500843D01*
X44474330Y-96805081D01*
X44466637Y-97116810D01*
X44519907Y-97424050D01*
X44632093Y-97714994D01*
X44669091Y-97784213D01*
X44912593Y-97887263D01*
X45799856Y-97000000D01*
X46306144Y-97000000D01*
X47193407Y-97887263D01*
X47404512Y-97797923D01*
X47558108Y-97951519D01*
X47758745Y-98085581D01*
X47981681Y-98177924D01*
X48218348Y-98225000D01*
X48459652Y-98225000D01*
X48696319Y-98177924D01*
X48919255Y-98085581D01*
X49119892Y-97951519D01*
X49273488Y-97797923D01*
X49484593Y-97887263D01*
X50371856Y-97000000D01*
X50878144Y-97000000D01*
X51425423Y-97547279D01*
X51490093Y-97714994D01*
X51527091Y-97784213D01*
X51761602Y-97883458D01*
X51765407Y-97887263D01*
X51768000Y-97886166D01*
X51770593Y-97887263D01*
X51774398Y-97883458D01*
X52008909Y-97784213D01*
X52116676Y-97541180D01*
X52657856Y-97000000D01*
X53164144Y-97000000D01*
X53711423Y-97547279D01*
X53776093Y-97714994D01*
X53813091Y-97784213D01*
X54047602Y-97883458D01*
X54051407Y-97887263D01*
X54054000Y-97886166D01*
X54056593Y-97887263D01*
X54060398Y-97883458D01*
X54294909Y-97784213D01*
X54402676Y-97541180D01*
X54943856Y-97000000D01*
X55450144Y-97000000D01*
X56337407Y-97887263D01*
X56580909Y-97784213D01*
X56707310Y-97499157D01*
X56775670Y-97194919D01*
X56783363Y-96883190D01*
X56730093Y-96575950D01*
X56617907Y-96285006D01*
X56580909Y-96215787D01*
X56337407Y-96112737D01*
X55450144Y-97000000D01*
X54943856Y-97000000D01*
X54396577Y-96452721D01*
X54331907Y-96285006D01*
X54294909Y-96215787D01*
X54060398Y-96116542D01*
X54056593Y-96112737D01*
X54054000Y-96113834D01*
X54051407Y-96112737D01*
X54047602Y-96116542D01*
X53813091Y-96215787D01*
X53705324Y-96458820D01*
X53164144Y-97000000D01*
X52657856Y-97000000D01*
X52110577Y-96452721D01*
X52045907Y-96285006D01*
X52008909Y-96215787D01*
X51774398Y-96116542D01*
X51770593Y-96112737D01*
X51768000Y-96113834D01*
X51765407Y-96112737D01*
X51761602Y-96116542D01*
X51527091Y-96215787D01*
X51419324Y-96458820D01*
X50878144Y-97000000D01*
X50371856Y-97000000D01*
X49484593Y-96112737D01*
X49273488Y-96202077D01*
X49119892Y-96048481D01*
X48919255Y-95914419D01*
X48696319Y-95822076D01*
X48459652Y-95775000D01*
X48218348Y-95775000D01*
X47981681Y-95822076D01*
X47758745Y-95914419D01*
X47558108Y-96048481D01*
X47404512Y-96202077D01*
X47193407Y-96112737D01*
X46306144Y-97000000D01*
X45799856Y-97000000D01*
X45785714Y-96985858D01*
X46038858Y-96732714D01*
X46053000Y-96746856D01*
X46940263Y-95859593D01*
X46847351Y-95640046D01*
X47073348Y-95685000D01*
X47314652Y-95685000D01*
X47551319Y-95637924D01*
X47774255Y-95545581D01*
X47974892Y-95411519D01*
X48145519Y-95240892D01*
X48279581Y-95040255D01*
X48337000Y-94901633D01*
X48394419Y-95040255D01*
X48528481Y-95240892D01*
X48699108Y-95411519D01*
X48899745Y-95545581D01*
X49122681Y-95637924D01*
X49359348Y-95685000D01*
X49600652Y-95685000D01*
X49831017Y-95639178D01*
X49737737Y-95859593D01*
X50625000Y-96746856D01*
X51512263Y-95859593D01*
X51419351Y-95640046D01*
X51645348Y-95685000D01*
X51886652Y-95685000D01*
X52117017Y-95639178D01*
X52023737Y-95859593D01*
X52911000Y-96746856D01*
X53798263Y-95859593D01*
X53705351Y-95640046D01*
X53931348Y-95685000D01*
X54172652Y-95685000D01*
X54403017Y-95639178D01*
X54309737Y-95859593D01*
X55197000Y-96746856D01*
X56084263Y-95859593D01*
X55981213Y-95616091D01*
X55696157Y-95489690D01*
X55391919Y-95421330D01*
X55080190Y-95413637D01*
X54772950Y-95466907D01*
X54718681Y-95487833D01*
X54832892Y-95411519D01*
X55003519Y-95240892D01*
X55137581Y-95040255D01*
X55229924Y-94817319D01*
X55277000Y-94580652D01*
X55277000Y-94339348D01*
X55229924Y-94102681D01*
X55137581Y-93879745D01*
X55003519Y-93679108D01*
X54832892Y-93508481D01*
X54632255Y-93374419D01*
X54409319Y-93282076D01*
X54172652Y-93235000D01*
X53931348Y-93235000D01*
X53694681Y-93282076D01*
X53471745Y-93374419D01*
X53271108Y-93508481D01*
X53100481Y-93679108D01*
X52966419Y-93879745D01*
X52909000Y-94018367D01*
X52851581Y-93879745D01*
X52717519Y-93679108D01*
X52546892Y-93508481D01*
X52346255Y-93374419D01*
X52123319Y-93282076D01*
X51886652Y-93235000D01*
X51645348Y-93235000D01*
X51408681Y-93282076D01*
X51185745Y-93374419D01*
X50985108Y-93508481D01*
X50814481Y-93679108D01*
X50680419Y-93879745D01*
X50623000Y-94018367D01*
X50565581Y-93879745D01*
X50431519Y-93679108D01*
X50260892Y-93508481D01*
X50060255Y-93374419D01*
X49837319Y-93282076D01*
X49600652Y-93235000D01*
X49359348Y-93235000D01*
X49122681Y-93282076D01*
X48899745Y-93374419D01*
X48699108Y-93508481D01*
X48528481Y-93679108D01*
X48394419Y-93879745D01*
X48337000Y-94018367D01*
X48279581Y-93879745D01*
X48145519Y-93679108D01*
X47974892Y-93508481D01*
X47774255Y-93374419D01*
X47551319Y-93282076D01*
X47314652Y-93235000D01*
X47073348Y-93235000D01*
X46836681Y-93282076D01*
X46613745Y-93374419D01*
X46413108Y-93508481D01*
X46259512Y-93662077D01*
X46048407Y-93572737D01*
X45161144Y-94460000D01*
X45175287Y-94474143D01*
X44922143Y-94727287D01*
X44908000Y-94713144D01*
X44020737Y-95600407D01*
X39577152Y-95600407D01*
X39351646Y-95262914D01*
X38972086Y-94883354D01*
X38525771Y-94585136D01*
X38505671Y-94576810D01*
X43321637Y-94576810D01*
X43374907Y-94884050D01*
X43487093Y-95174994D01*
X43524091Y-95244213D01*
X43767593Y-95347263D01*
X44654856Y-94460000D01*
X43767593Y-93572737D01*
X43524091Y-93675787D01*
X43397690Y-93960843D01*
X43329330Y-94265081D01*
X43321637Y-94576810D01*
X38505671Y-94576810D01*
X38029853Y-94379720D01*
X37503389Y-94275000D01*
X36966611Y-94275000D01*
X36440147Y-94379720D01*
X35944229Y-94585136D01*
X35497914Y-94883354D01*
X35118354Y-95262914D01*
X34980000Y-95469975D01*
X34980000Y-93319593D01*
X44020737Y-93319593D01*
X44908000Y-94206856D01*
X45795263Y-93319593D01*
X45692213Y-93076091D01*
X45407157Y-92949690D01*
X45102919Y-92881330D01*
X44791190Y-92873637D01*
X44483950Y-92926907D01*
X44193006Y-93039093D01*
X44123787Y-93076091D01*
X44020737Y-93319593D01*
X34980000Y-93319593D01*
X34980000Y-85814122D01*
X38395000Y-85814122D01*
X38395000Y-86025878D01*
X38436312Y-86233566D01*
X38517348Y-86429203D01*
X38634993Y-86605272D01*
X38784728Y-86755007D01*
X38960797Y-86872652D01*
X39156434Y-86953688D01*
X39364122Y-86995000D01*
X39575878Y-86995000D01*
X39783566Y-86953688D01*
X39979203Y-86872652D01*
X40155272Y-86755007D01*
X40305007Y-86605272D01*
X40422652Y-86429203D01*
X40503688Y-86233566D01*
X40545000Y-86025878D01*
X40545000Y-85814122D01*
X40503688Y-85606434D01*
X40422652Y-85410797D01*
X40305007Y-85234728D01*
X40155272Y-85084993D01*
X40132834Y-85070000D01*
X40933912Y-85070000D01*
X40933912Y-86770000D01*
X40938256Y-86814108D01*
X40951122Y-86856520D01*
X40972015Y-86895608D01*
X41000132Y-86929868D01*
X41034392Y-86957985D01*
X41073480Y-86978878D01*
X41115892Y-86991744D01*
X41160000Y-86996088D01*
X42860000Y-86996088D01*
X42904108Y-86991744D01*
X42946520Y-86978878D01*
X42985608Y-86957985D01*
X43019868Y-86929868D01*
X43047985Y-86895608D01*
X43068878Y-86856520D01*
X43081744Y-86814108D01*
X43086088Y-86770000D01*
X43086088Y-85155679D01*
X49480000Y-85155679D01*
X49480000Y-85244321D01*
X49497294Y-85331260D01*
X49531215Y-85413155D01*
X49580462Y-85486858D01*
X49643142Y-85549538D01*
X49716845Y-85598785D01*
X49798740Y-85632706D01*
X49885679Y-85650000D01*
X49974321Y-85650000D01*
X50061260Y-85632706D01*
X50143155Y-85598785D01*
X50216858Y-85549538D01*
X50277896Y-85488500D01*
X55315838Y-85488500D01*
X55330000Y-85489895D01*
X55344162Y-85488500D01*
X55344164Y-85488500D01*
X55386556Y-85484325D01*
X55440938Y-85467828D01*
X55491057Y-85441039D01*
X55534987Y-85404987D01*
X55544025Y-85393974D01*
X55688000Y-85250000D01*
X55774321Y-85250000D01*
X55861260Y-85232706D01*
X55943155Y-85198785D01*
X56016858Y-85149538D01*
X56079538Y-85086858D01*
X56128785Y-85013155D01*
X56162706Y-84931260D01*
X56180000Y-84844321D01*
X56180000Y-84755679D01*
X56162706Y-84668740D01*
X56128785Y-84586845D01*
X56079538Y-84513142D01*
X56016858Y-84450462D01*
X55943155Y-84401215D01*
X55861260Y-84367294D01*
X55774321Y-84350000D01*
X55685679Y-84350000D01*
X55598740Y-84367294D01*
X55516845Y-84401215D01*
X55443142Y-84450462D01*
X55380462Y-84513142D01*
X55331215Y-84586845D01*
X55297294Y-84668740D01*
X55280000Y-84755679D01*
X55280000Y-84842000D01*
X55210501Y-84911500D01*
X50277896Y-84911500D01*
X50216858Y-84850462D01*
X50143155Y-84801215D01*
X50061260Y-84767294D01*
X49974321Y-84750000D01*
X49885679Y-84750000D01*
X49798740Y-84767294D01*
X49716845Y-84801215D01*
X49643142Y-84850462D01*
X49580462Y-84913142D01*
X49531215Y-84986845D01*
X49497294Y-85068740D01*
X49480000Y-85155679D01*
X43086088Y-85155679D01*
X43086088Y-85070000D01*
X43081744Y-85025892D01*
X43068878Y-84983480D01*
X43047985Y-84944392D01*
X43019868Y-84910132D01*
X42985608Y-84882015D01*
X42946520Y-84861122D01*
X42904108Y-84848256D01*
X42860000Y-84843912D01*
X41160000Y-84843912D01*
X41115892Y-84848256D01*
X41073480Y-84861122D01*
X41034392Y-84882015D01*
X41000132Y-84910132D01*
X40972015Y-84944392D01*
X40951122Y-84983480D01*
X40938256Y-85025892D01*
X40933912Y-85070000D01*
X40132834Y-85070000D01*
X39979203Y-84967348D01*
X39783566Y-84886312D01*
X39575878Y-84845000D01*
X39364122Y-84845000D01*
X39156434Y-84886312D01*
X38960797Y-84967348D01*
X38784728Y-85084993D01*
X38634993Y-85234728D01*
X38517348Y-85410797D01*
X38436312Y-85606434D01*
X38395000Y-85814122D01*
X34980000Y-85814122D01*
X34980000Y-83779211D01*
X38093730Y-83779211D01*
X38103877Y-83812685D01*
X38214539Y-84070889D01*
X38373448Y-84302542D01*
X38574497Y-84498742D01*
X38809960Y-84651950D01*
X39070788Y-84756277D01*
X39291000Y-84656033D01*
X39291000Y-83559000D01*
X39649000Y-83559000D01*
X39649000Y-84656033D01*
X39869212Y-84756277D01*
X40130040Y-84651950D01*
X40365503Y-84498742D01*
X40566552Y-84302542D01*
X40725461Y-84070889D01*
X40836123Y-83812685D01*
X40846270Y-83779211D01*
X40744744Y-83559000D01*
X39649000Y-83559000D01*
X39291000Y-83559000D01*
X38195256Y-83559000D01*
X38093730Y-83779211D01*
X34980000Y-83779211D01*
X34980000Y-83274122D01*
X40935000Y-83274122D01*
X40935000Y-83485878D01*
X40976312Y-83693566D01*
X41057348Y-83889203D01*
X41174993Y-84065272D01*
X41324728Y-84215007D01*
X41500797Y-84332652D01*
X41696434Y-84413688D01*
X41904122Y-84455000D01*
X42115878Y-84455000D01*
X42323566Y-84413688D01*
X42519203Y-84332652D01*
X42695272Y-84215007D01*
X42845007Y-84065272D01*
X42962652Y-83889203D01*
X43043688Y-83693566D01*
X43085000Y-83485878D01*
X43085000Y-83274122D01*
X43043688Y-83066434D01*
X43016170Y-83000000D01*
X55077823Y-83000000D01*
X55080000Y-83022105D01*
X55080000Y-83044321D01*
X55084334Y-83066107D01*
X55086511Y-83088215D01*
X55092961Y-83109478D01*
X55097294Y-83131260D01*
X55105794Y-83151781D01*
X55112243Y-83173041D01*
X55122713Y-83192629D01*
X55131215Y-83213155D01*
X55143561Y-83231632D01*
X55154029Y-83251216D01*
X55168116Y-83268381D01*
X55180462Y-83286858D01*
X55196176Y-83302572D01*
X55210263Y-83319737D01*
X55227428Y-83333824D01*
X55243142Y-83349538D01*
X55261619Y-83361884D01*
X55278784Y-83375971D01*
X55298368Y-83386439D01*
X55316845Y-83398785D01*
X55337371Y-83407287D01*
X55356959Y-83417757D01*
X55378219Y-83424206D01*
X55398740Y-83432706D01*
X55420522Y-83437039D01*
X55441785Y-83443489D01*
X55463894Y-83445666D01*
X55485679Y-83450000D01*
X57907906Y-83450000D01*
X57930000Y-83452176D01*
X57952094Y-83450000D01*
X57952105Y-83450000D01*
X58018215Y-83443489D01*
X58103041Y-83417757D01*
X58181216Y-83375971D01*
X58249737Y-83319737D01*
X58263829Y-83302566D01*
X58310716Y-83255679D01*
X58780000Y-83255679D01*
X58780000Y-83344321D01*
X58797294Y-83431260D01*
X58831215Y-83513155D01*
X58880462Y-83586858D01*
X58943142Y-83649538D01*
X59016845Y-83698785D01*
X59098740Y-83732706D01*
X59185679Y-83750000D01*
X59274321Y-83750000D01*
X59361260Y-83732706D01*
X59443155Y-83698785D01*
X59516858Y-83649538D01*
X59579538Y-83586858D01*
X59586927Y-83575800D01*
X59666466Y-83575800D01*
X59680000Y-83577133D01*
X59693534Y-83575800D01*
X59693544Y-83575800D01*
X59734066Y-83571809D01*
X59786055Y-83556038D01*
X59833967Y-83530428D01*
X59875963Y-83495963D01*
X59884599Y-83485440D01*
X60114360Y-83255679D01*
X61080000Y-83255679D01*
X61080000Y-83344321D01*
X61097294Y-83431260D01*
X61131215Y-83513155D01*
X61180462Y-83586858D01*
X61243142Y-83649538D01*
X61316845Y-83698785D01*
X61398740Y-83732706D01*
X61485679Y-83750000D01*
X61574321Y-83750000D01*
X61661260Y-83732706D01*
X61743155Y-83698785D01*
X61816858Y-83649538D01*
X61879538Y-83586858D01*
X61928785Y-83513155D01*
X61962706Y-83431260D01*
X61968647Y-83401392D01*
X62200908Y-83169131D01*
X62268525Y-83197139D01*
X62408594Y-83225000D01*
X62551406Y-83225000D01*
X62691475Y-83197139D01*
X62823416Y-83142487D01*
X62942161Y-83063144D01*
X63043144Y-82962161D01*
X63122487Y-82843416D01*
X63177139Y-82711475D01*
X63205000Y-82571406D01*
X63205000Y-82428594D01*
X63177139Y-82288525D01*
X63122487Y-82156584D01*
X63043144Y-82037839D01*
X62942161Y-81936856D01*
X62823416Y-81857513D01*
X62691475Y-81802861D01*
X62551406Y-81775000D01*
X62408594Y-81775000D01*
X62268525Y-81802861D01*
X62136584Y-81857513D01*
X62017839Y-81936856D01*
X61916856Y-82037839D01*
X61837513Y-82156584D01*
X61782861Y-82288525D01*
X61755000Y-82428594D01*
X61755000Y-82571406D01*
X61782861Y-82711475D01*
X61810869Y-82779092D01*
X61704681Y-82885279D01*
X61661260Y-82867294D01*
X61574321Y-82850000D01*
X61485679Y-82850000D01*
X61398740Y-82867294D01*
X61316845Y-82901215D01*
X61243142Y-82950462D01*
X61180462Y-83013142D01*
X61131215Y-83086845D01*
X61097294Y-83168740D01*
X61080000Y-83255679D01*
X60114360Y-83255679D01*
X60200908Y-83169131D01*
X60268525Y-83197139D01*
X60408594Y-83225000D01*
X60551406Y-83225000D01*
X60691475Y-83197139D01*
X60823416Y-83142487D01*
X60942161Y-83063144D01*
X61043144Y-82962161D01*
X61122487Y-82843416D01*
X61177139Y-82711475D01*
X61205000Y-82571406D01*
X61205000Y-82428594D01*
X61177139Y-82288525D01*
X61122487Y-82156584D01*
X61043144Y-82037839D01*
X60942161Y-81936856D01*
X60823416Y-81857513D01*
X60691475Y-81802861D01*
X60551406Y-81775000D01*
X60408594Y-81775000D01*
X60268525Y-81802861D01*
X60136584Y-81857513D01*
X60017839Y-81936856D01*
X59916856Y-82037839D01*
X59837513Y-82156584D01*
X59782861Y-82288525D01*
X59755000Y-82428594D01*
X59755000Y-82571406D01*
X59782861Y-82711475D01*
X59810869Y-82779092D01*
X59578178Y-83011782D01*
X59516858Y-82950462D01*
X59443155Y-82901215D01*
X59361260Y-82867294D01*
X59274321Y-82850000D01*
X59185679Y-82850000D01*
X59098740Y-82867294D01*
X59016845Y-82901215D01*
X58943142Y-82950462D01*
X58880462Y-83013142D01*
X58831215Y-83086845D01*
X58797294Y-83168740D01*
X58780000Y-83255679D01*
X58310716Y-83255679D01*
X59532572Y-82033824D01*
X59549737Y-82019737D01*
X59563824Y-82002572D01*
X59563828Y-82002568D01*
X59605971Y-81951217D01*
X59647757Y-81873041D01*
X59652467Y-81857513D01*
X59673489Y-81788215D01*
X59680000Y-81722105D01*
X59680000Y-81722094D01*
X59682176Y-81700000D01*
X59680000Y-81677906D01*
X59680000Y-80428594D01*
X59755000Y-80428594D01*
X59755000Y-80571406D01*
X59782861Y-80711475D01*
X59837513Y-80843416D01*
X59916856Y-80962161D01*
X60017839Y-81063144D01*
X60136584Y-81142487D01*
X60268525Y-81197139D01*
X60408594Y-81225000D01*
X60551406Y-81225000D01*
X60691475Y-81197139D01*
X60823416Y-81142487D01*
X60942161Y-81063144D01*
X61043144Y-80962161D01*
X61122487Y-80843416D01*
X61177139Y-80711475D01*
X61205000Y-80571406D01*
X61205000Y-80428594D01*
X61177139Y-80288525D01*
X61122487Y-80156584D01*
X61043144Y-80037839D01*
X60942161Y-79936856D01*
X60823416Y-79857513D01*
X60755800Y-79829505D01*
X60755800Y-79764239D01*
X60872635Y-79647405D01*
X60885679Y-79650000D01*
X60974321Y-79650000D01*
X61061260Y-79632706D01*
X61143155Y-79598785D01*
X61216858Y-79549538D01*
X61279538Y-79486858D01*
X61328785Y-79413155D01*
X61362706Y-79331260D01*
X61380000Y-79244321D01*
X61380000Y-79155679D01*
X61362706Y-79068740D01*
X61328785Y-78986845D01*
X61279538Y-78913142D01*
X61216858Y-78850462D01*
X61143155Y-78801215D01*
X61061260Y-78767294D01*
X60974321Y-78750000D01*
X60885679Y-78750000D01*
X60798740Y-78767294D01*
X60716845Y-78801215D01*
X60643142Y-78850462D01*
X60580462Y-78913142D01*
X60531215Y-78986845D01*
X60497294Y-79068740D01*
X60480000Y-79155679D01*
X60480000Y-79244321D01*
X60482595Y-79257365D01*
X60294555Y-79445406D01*
X60284038Y-79454037D01*
X60275407Y-79464554D01*
X60275403Y-79464558D01*
X60249572Y-79496033D01*
X60223962Y-79543947D01*
X60208192Y-79595934D01*
X60202867Y-79650000D01*
X60204201Y-79663544D01*
X60204201Y-79829505D01*
X60136584Y-79857513D01*
X60017839Y-79936856D01*
X59916856Y-80037839D01*
X59837513Y-80156584D01*
X59782861Y-80288525D01*
X59755000Y-80428594D01*
X59680000Y-80428594D01*
X59680000Y-78555679D01*
X61680000Y-78555679D01*
X61680000Y-78644321D01*
X61697294Y-78731260D01*
X61731215Y-78813155D01*
X61780462Y-78886858D01*
X61843142Y-78949538D01*
X61916845Y-78998785D01*
X61998740Y-79032706D01*
X62085679Y-79050000D01*
X62174321Y-79050000D01*
X62187365Y-79047405D01*
X62204201Y-79064241D01*
X62204200Y-79829505D01*
X62136584Y-79857513D01*
X62017839Y-79936856D01*
X61916856Y-80037839D01*
X61837513Y-80156584D01*
X61782861Y-80288525D01*
X61755000Y-80428594D01*
X61755000Y-80571406D01*
X61782861Y-80711475D01*
X61837513Y-80843416D01*
X61916856Y-80962161D01*
X62017839Y-81063144D01*
X62136584Y-81142487D01*
X62268525Y-81197139D01*
X62408594Y-81225000D01*
X62551406Y-81225000D01*
X62691475Y-81197139D01*
X62823416Y-81142487D01*
X62942161Y-81063144D01*
X63043144Y-80962161D01*
X63122487Y-80843416D01*
X63177139Y-80711475D01*
X63205000Y-80571406D01*
X63205000Y-80428594D01*
X63177139Y-80288525D01*
X63122487Y-80156584D01*
X63043144Y-80037839D01*
X62942161Y-79936856D01*
X62823416Y-79857513D01*
X62755800Y-79829505D01*
X62755800Y-78963534D01*
X62757133Y-78950000D01*
X62755800Y-78936466D01*
X62755800Y-78936456D01*
X62751809Y-78895934D01*
X62736038Y-78843945D01*
X62713198Y-78801215D01*
X62710428Y-78796032D01*
X62684597Y-78764557D01*
X62684594Y-78764554D01*
X62675963Y-78754037D01*
X62665446Y-78745406D01*
X62577405Y-78657365D01*
X62580000Y-78644321D01*
X62580000Y-78555679D01*
X62562706Y-78468740D01*
X62528785Y-78386845D01*
X62479538Y-78313142D01*
X62416858Y-78250462D01*
X62343155Y-78201215D01*
X62261260Y-78167294D01*
X62174321Y-78150000D01*
X62085679Y-78150000D01*
X61998740Y-78167294D01*
X61916845Y-78201215D01*
X61843142Y-78250462D01*
X61780462Y-78313142D01*
X61731215Y-78386845D01*
X61697294Y-78468740D01*
X61680000Y-78555679D01*
X59680000Y-78555679D01*
X59680000Y-76122094D01*
X59682176Y-76099999D01*
X59680000Y-76077905D01*
X59680000Y-76077895D01*
X59673489Y-76011785D01*
X59647757Y-75926959D01*
X59605971Y-75848783D01*
X59563828Y-75797433D01*
X59549737Y-75780263D01*
X59532567Y-75766172D01*
X59279540Y-75513145D01*
X59279538Y-75513142D01*
X59216858Y-75450462D01*
X59198381Y-75438116D01*
X59181216Y-75424029D01*
X59161633Y-75413562D01*
X59143155Y-75401215D01*
X59122625Y-75392712D01*
X59103040Y-75382243D01*
X59081785Y-75375795D01*
X59061260Y-75367294D01*
X59039470Y-75362959D01*
X59018215Y-75356512D01*
X58996117Y-75354336D01*
X58974321Y-75350000D01*
X58952094Y-75350000D01*
X58930000Y-75347824D01*
X58907906Y-75350000D01*
X58885679Y-75350000D01*
X58863883Y-75354336D01*
X58841785Y-75356512D01*
X58820530Y-75362959D01*
X58798740Y-75367294D01*
X58778215Y-75375795D01*
X58756960Y-75382243D01*
X58737375Y-75392712D01*
X58716845Y-75401215D01*
X58698367Y-75413562D01*
X58678784Y-75424029D01*
X58661619Y-75438116D01*
X58643142Y-75450462D01*
X58627428Y-75466176D01*
X58610263Y-75480263D01*
X58596176Y-75497428D01*
X58580462Y-75513142D01*
X58568116Y-75531619D01*
X58554029Y-75548784D01*
X58543562Y-75568367D01*
X58531215Y-75586845D01*
X58522712Y-75607375D01*
X58512243Y-75626960D01*
X58505795Y-75648215D01*
X58497294Y-75668740D01*
X58492959Y-75690530D01*
X58486512Y-75711785D01*
X58484336Y-75733883D01*
X58480000Y-75755679D01*
X58480000Y-75777906D01*
X58477824Y-75800000D01*
X58480000Y-75822094D01*
X58480000Y-75844321D01*
X58484336Y-75866117D01*
X58486512Y-75888215D01*
X58492959Y-75909470D01*
X58497294Y-75931260D01*
X58505795Y-75951785D01*
X58512243Y-75973040D01*
X58522712Y-75992625D01*
X58531215Y-76013155D01*
X58543562Y-76031633D01*
X58554029Y-76051216D01*
X58568116Y-76068381D01*
X58580462Y-76086858D01*
X58643142Y-76149538D01*
X58643145Y-76149540D01*
X58780000Y-76286395D01*
X58780001Y-81513603D01*
X57743605Y-82550000D01*
X55485679Y-82550000D01*
X55463894Y-82554334D01*
X55441785Y-82556511D01*
X55420522Y-82562961D01*
X55398740Y-82567294D01*
X55378219Y-82575794D01*
X55356959Y-82582243D01*
X55337371Y-82592713D01*
X55316845Y-82601215D01*
X55298368Y-82613561D01*
X55278784Y-82624029D01*
X55261619Y-82638116D01*
X55243142Y-82650462D01*
X55227428Y-82666176D01*
X55210263Y-82680263D01*
X55196176Y-82697428D01*
X55180462Y-82713142D01*
X55168116Y-82731619D01*
X55154029Y-82748784D01*
X55143561Y-82768368D01*
X55131215Y-82786845D01*
X55122713Y-82807371D01*
X55112243Y-82826959D01*
X55105794Y-82848219D01*
X55097294Y-82868740D01*
X55092961Y-82890522D01*
X55086511Y-82911785D01*
X55084334Y-82933893D01*
X55080000Y-82955679D01*
X55080000Y-82977895D01*
X55077823Y-83000000D01*
X43016170Y-83000000D01*
X42962652Y-82870797D01*
X42845007Y-82694728D01*
X42695272Y-82544993D01*
X42519203Y-82427348D01*
X42323566Y-82346312D01*
X42115878Y-82305000D01*
X41904122Y-82305000D01*
X41696434Y-82346312D01*
X41500797Y-82427348D01*
X41324728Y-82544993D01*
X41174993Y-82694728D01*
X41057348Y-82870797D01*
X40976312Y-83066434D01*
X40935000Y-83274122D01*
X34980000Y-83274122D01*
X34980000Y-82980789D01*
X38093730Y-82980789D01*
X38195256Y-83201000D01*
X39291000Y-83201000D01*
X39291000Y-82103967D01*
X39649000Y-82103967D01*
X39649000Y-83201000D01*
X40744744Y-83201000D01*
X40846270Y-82980789D01*
X40836123Y-82947315D01*
X40725461Y-82689111D01*
X40566552Y-82457458D01*
X40365503Y-82261258D01*
X40130040Y-82108050D01*
X39869212Y-82003723D01*
X39649000Y-82103967D01*
X39291000Y-82103967D01*
X39070788Y-82003723D01*
X38809960Y-82108050D01*
X38574497Y-82261258D01*
X38373448Y-82457458D01*
X38214539Y-82689111D01*
X38103877Y-82947315D01*
X38093730Y-82980789D01*
X34980000Y-82980789D01*
X34980000Y-80734122D01*
X38395000Y-80734122D01*
X38395000Y-80945878D01*
X38436312Y-81153566D01*
X38517348Y-81349203D01*
X38634993Y-81525272D01*
X38784728Y-81675007D01*
X38960797Y-81792652D01*
X39156434Y-81873688D01*
X39364122Y-81915000D01*
X39575878Y-81915000D01*
X39783566Y-81873688D01*
X39979203Y-81792652D01*
X40155272Y-81675007D01*
X40305007Y-81525272D01*
X40422652Y-81349203D01*
X40503688Y-81153566D01*
X40545000Y-80945878D01*
X40545000Y-80734122D01*
X40935000Y-80734122D01*
X40935000Y-80945878D01*
X40976312Y-81153566D01*
X41057348Y-81349203D01*
X41174993Y-81525272D01*
X41324728Y-81675007D01*
X41500797Y-81792652D01*
X41696434Y-81873688D01*
X41904122Y-81915000D01*
X42115878Y-81915000D01*
X42323566Y-81873688D01*
X42519203Y-81792652D01*
X42695272Y-81675007D01*
X42845007Y-81525272D01*
X42962652Y-81349203D01*
X43043688Y-81153566D01*
X43085000Y-80945878D01*
X43085000Y-80734122D01*
X43043688Y-80526434D01*
X42962652Y-80330797D01*
X42845007Y-80154728D01*
X42695272Y-80004993D01*
X42519203Y-79887348D01*
X42323566Y-79806312D01*
X42115878Y-79765000D01*
X41904122Y-79765000D01*
X41696434Y-79806312D01*
X41500797Y-79887348D01*
X41324728Y-80004993D01*
X41174993Y-80154728D01*
X41057348Y-80330797D01*
X40976312Y-80526434D01*
X40935000Y-80734122D01*
X40545000Y-80734122D01*
X40503688Y-80526434D01*
X40422652Y-80330797D01*
X40305007Y-80154728D01*
X40155272Y-80004993D01*
X39979203Y-79887348D01*
X39783566Y-79806312D01*
X39575878Y-79765000D01*
X39364122Y-79765000D01*
X39156434Y-79806312D01*
X38960797Y-79887348D01*
X38784728Y-80004993D01*
X38634993Y-80154728D01*
X38517348Y-80330797D01*
X38436312Y-80526434D01*
X38395000Y-80734122D01*
X34980000Y-80734122D01*
X34980000Y-78555679D01*
X48480000Y-78555679D01*
X48480000Y-78644321D01*
X48497294Y-78731260D01*
X48531215Y-78813155D01*
X48580462Y-78886858D01*
X48643142Y-78949538D01*
X48716845Y-78998785D01*
X48798740Y-79032706D01*
X48885679Y-79050000D01*
X48974321Y-79050000D01*
X49061260Y-79032706D01*
X49143155Y-78998785D01*
X49216858Y-78949538D01*
X49277896Y-78888500D01*
X52515838Y-78888500D01*
X52530000Y-78889895D01*
X52544162Y-78888500D01*
X52544164Y-78888500D01*
X52586556Y-78884325D01*
X52640938Y-78867828D01*
X52691057Y-78841039D01*
X52734987Y-78804987D01*
X52744025Y-78793974D01*
X52988000Y-78550000D01*
X53074321Y-78550000D01*
X53161260Y-78532706D01*
X53243155Y-78498785D01*
X53316858Y-78449538D01*
X53379538Y-78386858D01*
X53428785Y-78313155D01*
X53462706Y-78231260D01*
X53480000Y-78144321D01*
X53480000Y-78055679D01*
X53462706Y-77968740D01*
X53428785Y-77886845D01*
X53379538Y-77813142D01*
X53316858Y-77750462D01*
X53243155Y-77701215D01*
X53161260Y-77667294D01*
X53074321Y-77650000D01*
X52985679Y-77650000D01*
X52898740Y-77667294D01*
X52816845Y-77701215D01*
X52743142Y-77750462D01*
X52680462Y-77813142D01*
X52631215Y-77886845D01*
X52597294Y-77968740D01*
X52580000Y-78055679D01*
X52580000Y-78142000D01*
X52410501Y-78311500D01*
X49277896Y-78311500D01*
X49216858Y-78250462D01*
X49143155Y-78201215D01*
X49061260Y-78167294D01*
X48974321Y-78150000D01*
X48885679Y-78150000D01*
X48798740Y-78167294D01*
X48716845Y-78201215D01*
X48643142Y-78250462D01*
X48580462Y-78313142D01*
X48531215Y-78386845D01*
X48497294Y-78468740D01*
X48480000Y-78555679D01*
X34980000Y-78555679D01*
X34980000Y-75928594D01*
X41905000Y-75928594D01*
X41905000Y-76071406D01*
X41932861Y-76211475D01*
X41987513Y-76343416D01*
X42066856Y-76462161D01*
X42167839Y-76563144D01*
X42286584Y-76642487D01*
X42418525Y-76697139D01*
X42558594Y-76725000D01*
X42701406Y-76725000D01*
X42841475Y-76697139D01*
X42973416Y-76642487D01*
X43092161Y-76563144D01*
X43193144Y-76462161D01*
X43272487Y-76343416D01*
X43300495Y-76275800D01*
X43815761Y-76275800D01*
X44082595Y-76542635D01*
X44080000Y-76555679D01*
X44080000Y-76644321D01*
X44097294Y-76731260D01*
X44131215Y-76813155D01*
X44180462Y-76886858D01*
X44243142Y-76949538D01*
X44316845Y-76998785D01*
X44398740Y-77032706D01*
X44485679Y-77050000D01*
X44574321Y-77050000D01*
X44574384Y-77049987D01*
X44593942Y-77066038D01*
X44644061Y-77092827D01*
X44698443Y-77109324D01*
X44754999Y-77114894D01*
X44811555Y-77109324D01*
X44865937Y-77092827D01*
X44874032Y-77088500D01*
X52810501Y-77088500D01*
X53841501Y-78119502D01*
X53841500Y-79452104D01*
X53780462Y-79513142D01*
X53731215Y-79586845D01*
X53697294Y-79668740D01*
X53680000Y-79755679D01*
X53680000Y-79844321D01*
X53697294Y-79931260D01*
X53731215Y-80013155D01*
X53780462Y-80086858D01*
X53843142Y-80149538D01*
X53916845Y-80198785D01*
X53998740Y-80232706D01*
X54085679Y-80250000D01*
X54174321Y-80250000D01*
X54261260Y-80232706D01*
X54343155Y-80198785D01*
X54416858Y-80149538D01*
X54479538Y-80086858D01*
X54528785Y-80013155D01*
X54562706Y-79931260D01*
X54580000Y-79844321D01*
X54580000Y-79755679D01*
X54562706Y-79668740D01*
X54536225Y-79604807D01*
X56845201Y-79604807D01*
X56847378Y-79626912D01*
X56847378Y-79649128D01*
X56851712Y-79670914D01*
X56853889Y-79693022D01*
X56860339Y-79714285D01*
X56864672Y-79736067D01*
X56873172Y-79756588D01*
X56879621Y-79777848D01*
X56890091Y-79797436D01*
X56898593Y-79817962D01*
X56910939Y-79836439D01*
X56921407Y-79856023D01*
X56935494Y-79873188D01*
X56947840Y-79891665D01*
X56963554Y-79907379D01*
X56977641Y-79924544D01*
X56994806Y-79938631D01*
X57010520Y-79954345D01*
X57028997Y-79966691D01*
X57046162Y-79980778D01*
X57065746Y-79991246D01*
X57084223Y-80003592D01*
X57104749Y-80012094D01*
X57124337Y-80022564D01*
X57145597Y-80029013D01*
X57166118Y-80037513D01*
X57187900Y-80041846D01*
X57209163Y-80048296D01*
X57231272Y-80050473D01*
X57253057Y-80054807D01*
X57848410Y-80054807D01*
X57880458Y-80086855D01*
X57880460Y-80086858D01*
X57943140Y-80149538D01*
X57961617Y-80161884D01*
X57978782Y-80175971D01*
X57998366Y-80186439D01*
X58016843Y-80198785D01*
X58037369Y-80207287D01*
X58056957Y-80217757D01*
X58078215Y-80224205D01*
X58098738Y-80232706D01*
X58120528Y-80237040D01*
X58141783Y-80243488D01*
X58163881Y-80245664D01*
X58185677Y-80250000D01*
X58207904Y-80250000D01*
X58229998Y-80252176D01*
X58252092Y-80250000D01*
X58274319Y-80250000D01*
X58296115Y-80245664D01*
X58318213Y-80243488D01*
X58339468Y-80237041D01*
X58361258Y-80232706D01*
X58381783Y-80224205D01*
X58403038Y-80217757D01*
X58422623Y-80207288D01*
X58443153Y-80198785D01*
X58461631Y-80186438D01*
X58481214Y-80175971D01*
X58498379Y-80161884D01*
X58516856Y-80149538D01*
X58532570Y-80133824D01*
X58549735Y-80119737D01*
X58563822Y-80102572D01*
X58579536Y-80086858D01*
X58591882Y-80068381D01*
X58605969Y-80051216D01*
X58616436Y-80031633D01*
X58628783Y-80013155D01*
X58637286Y-79992625D01*
X58647755Y-79973040D01*
X58654203Y-79951785D01*
X58662704Y-79931260D01*
X58667039Y-79909470D01*
X58673486Y-79888215D01*
X58675662Y-79866117D01*
X58679998Y-79844321D01*
X58679998Y-79822094D01*
X58682174Y-79800000D01*
X58679998Y-79777906D01*
X58679998Y-79755679D01*
X58675662Y-79733883D01*
X58673486Y-79711785D01*
X58667038Y-79690530D01*
X58662704Y-79668740D01*
X58654203Y-79648217D01*
X58647755Y-79626959D01*
X58637285Y-79607371D01*
X58628783Y-79586845D01*
X58616437Y-79568368D01*
X58605969Y-79548784D01*
X58591882Y-79531619D01*
X58579536Y-79513142D01*
X58516856Y-79450462D01*
X58516853Y-79450460D01*
X58368634Y-79302241D01*
X58354542Y-79285070D01*
X58286021Y-79228836D01*
X58207846Y-79187050D01*
X58123020Y-79161318D01*
X58056910Y-79154807D01*
X58056899Y-79154807D01*
X58034805Y-79152631D01*
X58012711Y-79154807D01*
X57253057Y-79154807D01*
X57231272Y-79159141D01*
X57209163Y-79161318D01*
X57187900Y-79167768D01*
X57166118Y-79172101D01*
X57145597Y-79180601D01*
X57124337Y-79187050D01*
X57104749Y-79197520D01*
X57084223Y-79206022D01*
X57065746Y-79218368D01*
X57046162Y-79228836D01*
X57028997Y-79242923D01*
X57010520Y-79255269D01*
X56994806Y-79270983D01*
X56977641Y-79285070D01*
X56963554Y-79302235D01*
X56947840Y-79317949D01*
X56935494Y-79336426D01*
X56921407Y-79353591D01*
X56910939Y-79373175D01*
X56898593Y-79391652D01*
X56890091Y-79412178D01*
X56879621Y-79431766D01*
X56873172Y-79453026D01*
X56864672Y-79473547D01*
X56860339Y-79495329D01*
X56853889Y-79516592D01*
X56851712Y-79538700D01*
X56847378Y-79560486D01*
X56847378Y-79582702D01*
X56845201Y-79604807D01*
X54536225Y-79604807D01*
X54528785Y-79586845D01*
X54479538Y-79513142D01*
X54418500Y-79452104D01*
X54418500Y-78014161D01*
X54419895Y-77999999D01*
X54416816Y-77968740D01*
X54414325Y-77943444D01*
X54397828Y-77889062D01*
X54381739Y-77858961D01*
X54371039Y-77838942D01*
X54348929Y-77812001D01*
X54334987Y-77795013D01*
X54323985Y-77785984D01*
X53693679Y-77155679D01*
X56079998Y-77155679D01*
X56079998Y-77244321D01*
X56097292Y-77331260D01*
X56131213Y-77413155D01*
X56180460Y-77486858D01*
X56243140Y-77549538D01*
X56316843Y-77598785D01*
X56398738Y-77632706D01*
X56485677Y-77650000D01*
X56571998Y-77650000D01*
X56641501Y-77719503D01*
X56641500Y-78252104D01*
X56580462Y-78313142D01*
X56531215Y-78386845D01*
X56497294Y-78468740D01*
X56480000Y-78555679D01*
X56480000Y-78644321D01*
X56497294Y-78731260D01*
X56531215Y-78813155D01*
X56580462Y-78886858D01*
X56643142Y-78949538D01*
X56716845Y-78998785D01*
X56798740Y-79032706D01*
X56885679Y-79050000D01*
X56974321Y-79050000D01*
X57061260Y-79032706D01*
X57143155Y-78998785D01*
X57216858Y-78949538D01*
X57279538Y-78886858D01*
X57328785Y-78813155D01*
X57362706Y-78731260D01*
X57380000Y-78644321D01*
X57380000Y-78555679D01*
X57362706Y-78468740D01*
X57328785Y-78386845D01*
X57279538Y-78313142D01*
X57218500Y-78252104D01*
X57218500Y-77614163D01*
X57219895Y-77600001D01*
X57218500Y-77585838D01*
X57214325Y-77543446D01*
X57197828Y-77489064D01*
X57185357Y-77465733D01*
X57171039Y-77438944D01*
X57144015Y-77406016D01*
X57134987Y-77395015D01*
X57123984Y-77385986D01*
X56979998Y-77242000D01*
X56979998Y-77155679D01*
X56962704Y-77068740D01*
X56928783Y-76986845D01*
X56879536Y-76913142D01*
X56816856Y-76850462D01*
X56743153Y-76801215D01*
X56661258Y-76767294D01*
X56574319Y-76750000D01*
X56485677Y-76750000D01*
X56398738Y-76767294D01*
X56316843Y-76801215D01*
X56243140Y-76850462D01*
X56180460Y-76913142D01*
X56131213Y-76986845D01*
X56097292Y-77068740D01*
X56079998Y-77155679D01*
X53693679Y-77155679D01*
X53144025Y-76606026D01*
X53134987Y-76595013D01*
X53091057Y-76558961D01*
X53040938Y-76532172D01*
X52986556Y-76515675D01*
X52944164Y-76511500D01*
X52944162Y-76511500D01*
X52930000Y-76510105D01*
X52915838Y-76511500D01*
X44971212Y-76511500D01*
X44962706Y-76468740D01*
X44928785Y-76386845D01*
X44879538Y-76313142D01*
X44816858Y-76250462D01*
X44743155Y-76201215D01*
X44661260Y-76167294D01*
X44574321Y-76150000D01*
X44485679Y-76150000D01*
X44472635Y-76152595D01*
X44134598Y-75814559D01*
X44125963Y-75804037D01*
X44083967Y-75769572D01*
X44036055Y-75743962D01*
X43984066Y-75728191D01*
X43943544Y-75724200D01*
X43943534Y-75724200D01*
X43930000Y-75722867D01*
X43916466Y-75724200D01*
X43300495Y-75724200D01*
X43272487Y-75656584D01*
X43193144Y-75537839D01*
X43092161Y-75436856D01*
X42973416Y-75357513D01*
X42841475Y-75302861D01*
X42701406Y-75275000D01*
X42558594Y-75275000D01*
X42418525Y-75302861D01*
X42286584Y-75357513D01*
X42167839Y-75436856D01*
X42066856Y-75537839D01*
X41987513Y-75656584D01*
X41932861Y-75788525D01*
X41905000Y-75928594D01*
X34980000Y-75928594D01*
X34980000Y-74955679D01*
X50680000Y-74955679D01*
X50680000Y-75044321D01*
X50697294Y-75131260D01*
X50731215Y-75213155D01*
X50780462Y-75286858D01*
X50843142Y-75349538D01*
X50916845Y-75398785D01*
X50998740Y-75432706D01*
X51085679Y-75450000D01*
X51172000Y-75450000D01*
X51783397Y-76061398D01*
X51797294Y-76131260D01*
X51831215Y-76213155D01*
X51880462Y-76286858D01*
X51943142Y-76349538D01*
X52016845Y-76398785D01*
X52098740Y-76432706D01*
X52185679Y-76450000D01*
X52274321Y-76450000D01*
X52361260Y-76432706D01*
X52443155Y-76398785D01*
X52516858Y-76349538D01*
X52579538Y-76286858D01*
X52628785Y-76213155D01*
X52662706Y-76131260D01*
X52680000Y-76044321D01*
X52680000Y-75955679D01*
X52662706Y-75868740D01*
X52628785Y-75786845D01*
X52579538Y-75713142D01*
X52516858Y-75650462D01*
X52443155Y-75601215D01*
X52361260Y-75567294D01*
X52274321Y-75550000D01*
X52185679Y-75550000D01*
X52104207Y-75566206D01*
X51580000Y-75042000D01*
X51580000Y-74955679D01*
X51562706Y-74868740D01*
X51528785Y-74786845D01*
X51479538Y-74713142D01*
X51416858Y-74650462D01*
X51343155Y-74601215D01*
X51261260Y-74567294D01*
X51174321Y-74550000D01*
X51085679Y-74550000D01*
X50998740Y-74567294D01*
X50916845Y-74601215D01*
X50843142Y-74650462D01*
X50780462Y-74713142D01*
X50731215Y-74786845D01*
X50697294Y-74868740D01*
X50680000Y-74955679D01*
X34980000Y-74955679D01*
X34980000Y-64606433D01*
X54280000Y-64606433D01*
X54280000Y-64793567D01*
X54316508Y-64977105D01*
X54388121Y-65149994D01*
X54492087Y-65305590D01*
X54624410Y-65437913D01*
X54780006Y-65541879D01*
X54952895Y-65613492D01*
X55136433Y-65650000D01*
X55323567Y-65650000D01*
X55507105Y-65613492D01*
X55679994Y-65541879D01*
X55835590Y-65437913D01*
X55967913Y-65305590D01*
X56071879Y-65149994D01*
X56143492Y-64977105D01*
X56180000Y-64793567D01*
X56180000Y-64606433D01*
X59280000Y-64606433D01*
X59280000Y-64793567D01*
X59316508Y-64977105D01*
X59388121Y-65149994D01*
X59492087Y-65305590D01*
X59624410Y-65437913D01*
X59780006Y-65541879D01*
X59952895Y-65613492D01*
X60136433Y-65650000D01*
X60323567Y-65650000D01*
X60507105Y-65613492D01*
X60679994Y-65541879D01*
X60835590Y-65437913D01*
X60967913Y-65305590D01*
X61071879Y-65149994D01*
X61143492Y-64977105D01*
X61180000Y-64793567D01*
X61180000Y-64606433D01*
X61143492Y-64422895D01*
X61071879Y-64250006D01*
X60967913Y-64094410D01*
X60835590Y-63962087D01*
X60679994Y-63858121D01*
X60507105Y-63786508D01*
X60323567Y-63750000D01*
X60136433Y-63750000D01*
X59952895Y-63786508D01*
X59780006Y-63858121D01*
X59624410Y-63962087D01*
X59492087Y-64094410D01*
X59388121Y-64250006D01*
X59316508Y-64422895D01*
X59280000Y-64606433D01*
X56180000Y-64606433D01*
X56143492Y-64422895D01*
X56071879Y-64250006D01*
X55967913Y-64094410D01*
X55835590Y-63962087D01*
X55679994Y-63858121D01*
X55507105Y-63786508D01*
X55323567Y-63750000D01*
X55136433Y-63750000D01*
X54952895Y-63786508D01*
X54780006Y-63858121D01*
X54624410Y-63962087D01*
X54492087Y-64094410D01*
X54388121Y-64250006D01*
X54316508Y-64422895D01*
X54280000Y-64606433D01*
X34980000Y-64606433D01*
X34980000Y-62012229D01*
X35014505Y-61660322D01*
X35029855Y-61609479D01*
X53405000Y-61609479D01*
X53405000Y-62390520D01*
X53416938Y-62511727D01*
X53464112Y-62667240D01*
X53540719Y-62810562D01*
X53643815Y-62936185D01*
X53769437Y-63039281D01*
X53912759Y-63115888D01*
X54068272Y-63163062D01*
X54230000Y-63178991D01*
X54391727Y-63163062D01*
X54547240Y-63115888D01*
X54690562Y-63039281D01*
X54816185Y-62936185D01*
X54919281Y-62810563D01*
X54995888Y-62667241D01*
X55043062Y-62511728D01*
X55055000Y-62390521D01*
X55055000Y-61609480D01*
X60405000Y-61609480D01*
X60405000Y-62390521D01*
X60416938Y-62511728D01*
X60464113Y-62667241D01*
X60540720Y-62810563D01*
X60643816Y-62936185D01*
X60769438Y-63039281D01*
X60912760Y-63115888D01*
X61068273Y-63163062D01*
X61230000Y-63178991D01*
X61391728Y-63163062D01*
X61547241Y-63115888D01*
X61690563Y-63039281D01*
X61816185Y-62936185D01*
X61919281Y-62810563D01*
X61995888Y-62667241D01*
X62043062Y-62511728D01*
X62055000Y-62390521D01*
X62055000Y-61609479D01*
X62043062Y-61488272D01*
X61995888Y-61332759D01*
X61919281Y-61189437D01*
X61816185Y-61063815D01*
X61690562Y-60960719D01*
X61547240Y-60884112D01*
X61391727Y-60836938D01*
X61230000Y-60821009D01*
X61068272Y-60836938D01*
X60912759Y-60884112D01*
X60769437Y-60960719D01*
X60643815Y-61063815D01*
X60540719Y-61189438D01*
X60464112Y-61332760D01*
X60416938Y-61488273D01*
X60405000Y-61609480D01*
X55055000Y-61609480D01*
X55055000Y-61609479D01*
X55043062Y-61488272D01*
X54995888Y-61332759D01*
X54919281Y-61189437D01*
X54816185Y-61063815D01*
X54690563Y-60960719D01*
X54547241Y-60884112D01*
X54391728Y-60836938D01*
X54230000Y-60821009D01*
X54068273Y-60836938D01*
X53912760Y-60884112D01*
X53769438Y-60960719D01*
X53643816Y-61063815D01*
X53540720Y-61189437D01*
X53464113Y-61332759D01*
X53416938Y-61488272D01*
X53405000Y-61609479D01*
X35029855Y-61609479D01*
X35113153Y-61333584D01*
X35273389Y-61032225D01*
X35489104Y-60767733D01*
X35752082Y-60550178D01*
X36052310Y-60387846D01*
X36378359Y-60286917D01*
X36729576Y-60250003D01*
X36730307Y-60250000D01*
X62717771Y-60250000D01*
X63069678Y-60284505D01*
G04 #@! TA.AperFunction,Conductor*
D22*
G36*
X63069678Y-60284505D02*
G01*
X63396416Y-60383153D01*
X63697775Y-60543389D01*
X63962267Y-60759104D01*
X64179822Y-61022082D01*
X64342154Y-61322310D01*
X64443083Y-61648359D01*
X64479997Y-61999576D01*
X64480001Y-62000592D01*
X64480000Y-95469976D01*
X64341646Y-95262914D01*
X63962086Y-94883354D01*
X63515771Y-94585136D01*
X63019853Y-94379720D01*
X62493389Y-94275000D01*
X61956611Y-94275000D01*
X61430147Y-94379720D01*
X60934229Y-94585136D01*
X60487914Y-94883354D01*
X60108354Y-95262914D01*
X59810136Y-95709229D01*
X59604720Y-96205147D01*
X59500000Y-96731611D01*
X59500000Y-97268389D01*
X59604720Y-97794853D01*
X59810136Y-98290771D01*
X60108354Y-98737086D01*
X60487914Y-99116646D01*
X60934229Y-99414864D01*
X61430147Y-99620280D01*
X61956611Y-99725000D01*
X62493389Y-99725000D01*
X63019853Y-99620280D01*
X63515771Y-99414864D01*
X63962086Y-99116646D01*
X64341646Y-98737086D01*
X64480000Y-98530024D01*
X64480000Y-105987771D01*
X64445495Y-106339679D01*
X64346847Y-106666416D01*
X64186612Y-106967773D01*
X63970900Y-107232262D01*
X63707918Y-107449822D01*
X63407690Y-107612154D01*
X63081642Y-107713083D01*
X62730424Y-107749997D01*
X62729693Y-107750000D01*
X36742229Y-107750000D01*
X36390321Y-107715495D01*
X36063584Y-107616847D01*
X35762227Y-107456612D01*
X35497738Y-107240900D01*
X35280178Y-106977918D01*
X35117846Y-106677690D01*
X35016917Y-106351642D01*
X34980003Y-106000424D01*
X34980000Y-105999693D01*
X34980000Y-98530025D01*
X35118354Y-98737086D01*
X35497914Y-99116646D01*
X35944229Y-99414864D01*
X36440147Y-99620280D01*
X36966611Y-99725000D01*
X37503389Y-99725000D01*
X38029853Y-99620280D01*
X38514945Y-99419348D01*
X43683000Y-99419348D01*
X43683000Y-99660652D01*
X43730076Y-99897319D01*
X43822419Y-100120255D01*
X43956481Y-100320892D01*
X44127108Y-100491519D01*
X44327745Y-100625581D01*
X44550681Y-100717924D01*
X44787348Y-100765000D01*
X45028652Y-100765000D01*
X45265319Y-100717924D01*
X45488255Y-100625581D01*
X45688892Y-100491519D01*
X45859519Y-100320892D01*
X45993581Y-100120255D01*
X46051000Y-99981633D01*
X46108419Y-100120255D01*
X46242481Y-100320892D01*
X46254201Y-100332612D01*
X46254200Y-102579505D01*
X46186584Y-102607513D01*
X46067839Y-102686856D01*
X45966856Y-102787839D01*
X45887513Y-102906584D01*
X45832861Y-103038525D01*
X45805000Y-103178594D01*
X45805000Y-103321406D01*
X45832861Y-103461475D01*
X45887513Y-103593416D01*
X45966856Y-103712161D01*
X46067839Y-103813144D01*
X46186584Y-103892487D01*
X46318525Y-103947139D01*
X46458594Y-103975000D01*
X46601406Y-103975000D01*
X46741475Y-103947139D01*
X46873416Y-103892487D01*
X46992161Y-103813144D01*
X47093144Y-103712161D01*
X47172487Y-103593416D01*
X47227139Y-103461475D01*
X47255000Y-103321406D01*
X47255000Y-103178594D01*
X47227139Y-103038525D01*
X47172487Y-102906584D01*
X47093144Y-102787839D01*
X46992161Y-102686856D01*
X46873416Y-102607513D01*
X46805800Y-102579505D01*
X46805800Y-100705133D01*
X46836681Y-100717924D01*
X47073348Y-100765000D01*
X47314652Y-100765000D01*
X47551319Y-100717924D01*
X47774255Y-100625581D01*
X47974892Y-100491519D01*
X48145519Y-100320892D01*
X48279581Y-100120255D01*
X48337000Y-99981633D01*
X48394419Y-100120255D01*
X48528481Y-100320892D01*
X48554201Y-100346612D01*
X48554200Y-102579505D01*
X48486584Y-102607513D01*
X48367839Y-102686856D01*
X48266856Y-102787839D01*
X48187513Y-102906584D01*
X48132861Y-103038525D01*
X48105000Y-103178594D01*
X48105000Y-103321406D01*
X48132861Y-103461475D01*
X48187513Y-103593416D01*
X48266856Y-103712161D01*
X48367839Y-103813144D01*
X48486584Y-103892487D01*
X48618525Y-103947139D01*
X48758594Y-103975000D01*
X48901406Y-103975000D01*
X49041475Y-103947139D01*
X49173416Y-103892487D01*
X49292161Y-103813144D01*
X49393144Y-103712161D01*
X49472487Y-103593416D01*
X49527139Y-103461475D01*
X49555000Y-103321406D01*
X49555000Y-103178594D01*
X49527139Y-103038525D01*
X49472487Y-102906584D01*
X49393144Y-102787839D01*
X49292161Y-102686856D01*
X49173416Y-102607513D01*
X49105800Y-102579505D01*
X49105800Y-100710932D01*
X49122681Y-100717924D01*
X49359348Y-100765000D01*
X49600652Y-100765000D01*
X49837319Y-100717924D01*
X50060255Y-100625581D01*
X50260892Y-100491519D01*
X50431519Y-100320892D01*
X50565581Y-100120255D01*
X50623000Y-99981633D01*
X50680419Y-100120255D01*
X50814481Y-100320892D01*
X50985108Y-100491519D01*
X51185745Y-100625581D01*
X51408681Y-100717924D01*
X51645348Y-100765000D01*
X51886652Y-100765000D01*
X52123319Y-100717924D01*
X52346255Y-100625581D01*
X52546892Y-100491519D01*
X52717519Y-100320892D01*
X52851581Y-100120255D01*
X52909000Y-99981633D01*
X52966419Y-100120255D01*
X53100481Y-100320892D01*
X53271108Y-100491519D01*
X53471745Y-100625581D01*
X53694681Y-100717924D01*
X53931348Y-100765000D01*
X54172652Y-100765000D01*
X54409319Y-100717924D01*
X54632255Y-100625581D01*
X54832892Y-100491519D01*
X55003519Y-100320892D01*
X55137581Y-100120255D01*
X55229924Y-99897319D01*
X55277000Y-99660652D01*
X55277000Y-99419348D01*
X55229924Y-99182681D01*
X55137581Y-98959745D01*
X55003519Y-98759108D01*
X54832892Y-98588481D01*
X54725051Y-98516423D01*
X55002081Y-98578670D01*
X55313810Y-98586363D01*
X55621050Y-98533093D01*
X55911994Y-98420907D01*
X55981213Y-98383909D01*
X56084263Y-98140407D01*
X55197000Y-97253144D01*
X54309737Y-98140407D01*
X54403017Y-98360822D01*
X54172652Y-98315000D01*
X53931348Y-98315000D01*
X53705351Y-98359954D01*
X53798263Y-98140407D01*
X52911000Y-97253144D01*
X52023737Y-98140407D01*
X52117017Y-98360822D01*
X51886652Y-98315000D01*
X51645348Y-98315000D01*
X51419351Y-98359954D01*
X51512263Y-98140407D01*
X50625000Y-97253144D01*
X49737737Y-98140407D01*
X49831017Y-98360822D01*
X49600652Y-98315000D01*
X49359348Y-98315000D01*
X49122681Y-98362076D01*
X48899745Y-98454419D01*
X48699108Y-98588481D01*
X48528481Y-98759108D01*
X48394419Y-98959745D01*
X48337000Y-99098367D01*
X48279581Y-98959745D01*
X48145519Y-98759108D01*
X47974892Y-98588481D01*
X47774255Y-98454419D01*
X47551319Y-98362076D01*
X47314652Y-98315000D01*
X47073348Y-98315000D01*
X46847351Y-98359954D01*
X46940263Y-98140407D01*
X46053000Y-97253144D01*
X45165737Y-98140407D01*
X45259017Y-98360822D01*
X45028652Y-98315000D01*
X44787348Y-98315000D01*
X44550681Y-98362076D01*
X44327745Y-98454419D01*
X44127108Y-98588481D01*
X43956481Y-98759108D01*
X43822419Y-98959745D01*
X43730076Y-99182681D01*
X43683000Y-99419348D01*
X38514945Y-99419348D01*
X38525771Y-99414864D01*
X38972086Y-99116646D01*
X39351646Y-98737086D01*
X39649864Y-98290771D01*
X39855280Y-97794853D01*
X39960000Y-97268389D01*
X39960000Y-96731611D01*
X39855280Y-96205147D01*
X39649864Y-95709229D01*
X39577152Y-95600407D01*
X44020737Y-95600407D01*
X44123787Y-95843909D01*
X44408843Y-95970310D01*
X44713081Y-96038670D01*
X44841697Y-96041844D01*
X44912591Y-96112738D01*
X44669091Y-96215787D01*
X44542690Y-96500843D01*
X44474330Y-96805081D01*
X44466637Y-97116810D01*
X44519907Y-97424050D01*
X44632093Y-97714994D01*
X44669091Y-97784213D01*
X44912593Y-97887263D01*
X45799856Y-97000000D01*
X46306144Y-97000000D01*
X47193407Y-97887263D01*
X47404512Y-97797923D01*
X47558108Y-97951519D01*
X47758745Y-98085581D01*
X47981681Y-98177924D01*
X48218348Y-98225000D01*
X48459652Y-98225000D01*
X48696319Y-98177924D01*
X48919255Y-98085581D01*
X49119892Y-97951519D01*
X49273488Y-97797923D01*
X49484593Y-97887263D01*
X50371856Y-97000000D01*
X50878144Y-97000000D01*
X51425423Y-97547279D01*
X51490093Y-97714994D01*
X51527091Y-97784213D01*
X51761602Y-97883458D01*
X51765407Y-97887263D01*
X51768000Y-97886166D01*
X51770593Y-97887263D01*
X51774398Y-97883458D01*
X52008909Y-97784213D01*
X52116676Y-97541180D01*
X52657856Y-97000000D01*
X53164144Y-97000000D01*
X53711423Y-97547279D01*
X53776093Y-97714994D01*
X53813091Y-97784213D01*
X54047602Y-97883458D01*
X54051407Y-97887263D01*
X54054000Y-97886166D01*
X54056593Y-97887263D01*
X54060398Y-97883458D01*
X54294909Y-97784213D01*
X54402676Y-97541180D01*
X54943856Y-97000000D01*
X55450144Y-97000000D01*
X56337407Y-97887263D01*
X56580909Y-97784213D01*
X56707310Y-97499157D01*
X56775670Y-97194919D01*
X56783363Y-96883190D01*
X56730093Y-96575950D01*
X56617907Y-96285006D01*
X56580909Y-96215787D01*
X56337407Y-96112737D01*
X55450144Y-97000000D01*
X54943856Y-97000000D01*
X54396577Y-96452721D01*
X54331907Y-96285006D01*
X54294909Y-96215787D01*
X54060398Y-96116542D01*
X54056593Y-96112737D01*
X54054000Y-96113834D01*
X54051407Y-96112737D01*
X54047602Y-96116542D01*
X53813091Y-96215787D01*
X53705324Y-96458820D01*
X53164144Y-97000000D01*
X52657856Y-97000000D01*
X52110577Y-96452721D01*
X52045907Y-96285006D01*
X52008909Y-96215787D01*
X51774398Y-96116542D01*
X51770593Y-96112737D01*
X51768000Y-96113834D01*
X51765407Y-96112737D01*
X51761602Y-96116542D01*
X51527091Y-96215787D01*
X51419324Y-96458820D01*
X50878144Y-97000000D01*
X50371856Y-97000000D01*
X49484593Y-96112737D01*
X49273488Y-96202077D01*
X49119892Y-96048481D01*
X48919255Y-95914419D01*
X48696319Y-95822076D01*
X48459652Y-95775000D01*
X48218348Y-95775000D01*
X47981681Y-95822076D01*
X47758745Y-95914419D01*
X47558108Y-96048481D01*
X47404512Y-96202077D01*
X47193407Y-96112737D01*
X46306144Y-97000000D01*
X45799856Y-97000000D01*
X45785714Y-96985858D01*
X46038858Y-96732714D01*
X46053000Y-96746856D01*
X46940263Y-95859593D01*
X46847351Y-95640046D01*
X47073348Y-95685000D01*
X47314652Y-95685000D01*
X47551319Y-95637924D01*
X47774255Y-95545581D01*
X47974892Y-95411519D01*
X48145519Y-95240892D01*
X48279581Y-95040255D01*
X48337000Y-94901633D01*
X48394419Y-95040255D01*
X48528481Y-95240892D01*
X48699108Y-95411519D01*
X48899745Y-95545581D01*
X49122681Y-95637924D01*
X49359348Y-95685000D01*
X49600652Y-95685000D01*
X49831017Y-95639178D01*
X49737737Y-95859593D01*
X50625000Y-96746856D01*
X51512263Y-95859593D01*
X51419351Y-95640046D01*
X51645348Y-95685000D01*
X51886652Y-95685000D01*
X52117017Y-95639178D01*
X52023737Y-95859593D01*
X52911000Y-96746856D01*
X53798263Y-95859593D01*
X53705351Y-95640046D01*
X53931348Y-95685000D01*
X54172652Y-95685000D01*
X54403017Y-95639178D01*
X54309737Y-95859593D01*
X55197000Y-96746856D01*
X56084263Y-95859593D01*
X55981213Y-95616091D01*
X55696157Y-95489690D01*
X55391919Y-95421330D01*
X55080190Y-95413637D01*
X54772950Y-95466907D01*
X54718681Y-95487833D01*
X54832892Y-95411519D01*
X55003519Y-95240892D01*
X55137581Y-95040255D01*
X55229924Y-94817319D01*
X55277000Y-94580652D01*
X55277000Y-94339348D01*
X55229924Y-94102681D01*
X55137581Y-93879745D01*
X55003519Y-93679108D01*
X54832892Y-93508481D01*
X54632255Y-93374419D01*
X54409319Y-93282076D01*
X54172652Y-93235000D01*
X53931348Y-93235000D01*
X53694681Y-93282076D01*
X53471745Y-93374419D01*
X53271108Y-93508481D01*
X53100481Y-93679108D01*
X52966419Y-93879745D01*
X52909000Y-94018367D01*
X52851581Y-93879745D01*
X52717519Y-93679108D01*
X52546892Y-93508481D01*
X52346255Y-93374419D01*
X52123319Y-93282076D01*
X51886652Y-93235000D01*
X51645348Y-93235000D01*
X51408681Y-93282076D01*
X51185745Y-93374419D01*
X50985108Y-93508481D01*
X50814481Y-93679108D01*
X50680419Y-93879745D01*
X50623000Y-94018367D01*
X50565581Y-93879745D01*
X50431519Y-93679108D01*
X50260892Y-93508481D01*
X50060255Y-93374419D01*
X49837319Y-93282076D01*
X49600652Y-93235000D01*
X49359348Y-93235000D01*
X49122681Y-93282076D01*
X48899745Y-93374419D01*
X48699108Y-93508481D01*
X48528481Y-93679108D01*
X48394419Y-93879745D01*
X48337000Y-94018367D01*
X48279581Y-93879745D01*
X48145519Y-93679108D01*
X47974892Y-93508481D01*
X47774255Y-93374419D01*
X47551319Y-93282076D01*
X47314652Y-93235000D01*
X47073348Y-93235000D01*
X46836681Y-93282076D01*
X46613745Y-93374419D01*
X46413108Y-93508481D01*
X46259512Y-93662077D01*
X46048407Y-93572737D01*
X45161144Y-94460000D01*
X45175287Y-94474143D01*
X44922143Y-94727287D01*
X44908000Y-94713144D01*
X44020737Y-95600407D01*
X39577152Y-95600407D01*
X39351646Y-95262914D01*
X38972086Y-94883354D01*
X38525771Y-94585136D01*
X38505671Y-94576810D01*
X43321637Y-94576810D01*
X43374907Y-94884050D01*
X43487093Y-95174994D01*
X43524091Y-95244213D01*
X43767593Y-95347263D01*
X44654856Y-94460000D01*
X43767593Y-93572737D01*
X43524091Y-93675787D01*
X43397690Y-93960843D01*
X43329330Y-94265081D01*
X43321637Y-94576810D01*
X38505671Y-94576810D01*
X38029853Y-94379720D01*
X37503389Y-94275000D01*
X36966611Y-94275000D01*
X36440147Y-94379720D01*
X35944229Y-94585136D01*
X35497914Y-94883354D01*
X35118354Y-95262914D01*
X34980000Y-95469975D01*
X34980000Y-93319593D01*
X44020737Y-93319593D01*
X44908000Y-94206856D01*
X45795263Y-93319593D01*
X45692213Y-93076091D01*
X45407157Y-92949690D01*
X45102919Y-92881330D01*
X44791190Y-92873637D01*
X44483950Y-92926907D01*
X44193006Y-93039093D01*
X44123787Y-93076091D01*
X44020737Y-93319593D01*
X34980000Y-93319593D01*
X34980000Y-85814122D01*
X38395000Y-85814122D01*
X38395000Y-86025878D01*
X38436312Y-86233566D01*
X38517348Y-86429203D01*
X38634993Y-86605272D01*
X38784728Y-86755007D01*
X38960797Y-86872652D01*
X39156434Y-86953688D01*
X39364122Y-86995000D01*
X39575878Y-86995000D01*
X39783566Y-86953688D01*
X39979203Y-86872652D01*
X40155272Y-86755007D01*
X40305007Y-86605272D01*
X40422652Y-86429203D01*
X40503688Y-86233566D01*
X40545000Y-86025878D01*
X40545000Y-85814122D01*
X40503688Y-85606434D01*
X40422652Y-85410797D01*
X40305007Y-85234728D01*
X40155272Y-85084993D01*
X40132834Y-85070000D01*
X40933912Y-85070000D01*
X40933912Y-86770000D01*
X40938256Y-86814108D01*
X40951122Y-86856520D01*
X40972015Y-86895608D01*
X41000132Y-86929868D01*
X41034392Y-86957985D01*
X41073480Y-86978878D01*
X41115892Y-86991744D01*
X41160000Y-86996088D01*
X42860000Y-86996088D01*
X42904108Y-86991744D01*
X42946520Y-86978878D01*
X42985608Y-86957985D01*
X43019868Y-86929868D01*
X43047985Y-86895608D01*
X43068878Y-86856520D01*
X43081744Y-86814108D01*
X43086088Y-86770000D01*
X43086088Y-85155679D01*
X49480000Y-85155679D01*
X49480000Y-85244321D01*
X49497294Y-85331260D01*
X49531215Y-85413155D01*
X49580462Y-85486858D01*
X49643142Y-85549538D01*
X49716845Y-85598785D01*
X49798740Y-85632706D01*
X49885679Y-85650000D01*
X49974321Y-85650000D01*
X50061260Y-85632706D01*
X50143155Y-85598785D01*
X50216858Y-85549538D01*
X50277896Y-85488500D01*
X55315838Y-85488500D01*
X55330000Y-85489895D01*
X55344162Y-85488500D01*
X55344164Y-85488500D01*
X55386556Y-85484325D01*
X55440938Y-85467828D01*
X55491057Y-85441039D01*
X55534987Y-85404987D01*
X55544025Y-85393974D01*
X55688000Y-85250000D01*
X55774321Y-85250000D01*
X55861260Y-85232706D01*
X55943155Y-85198785D01*
X56016858Y-85149538D01*
X56079538Y-85086858D01*
X56128785Y-85013155D01*
X56162706Y-84931260D01*
X56180000Y-84844321D01*
X56180000Y-84755679D01*
X56162706Y-84668740D01*
X56128785Y-84586845D01*
X56079538Y-84513142D01*
X56016858Y-84450462D01*
X55943155Y-84401215D01*
X55861260Y-84367294D01*
X55774321Y-84350000D01*
X55685679Y-84350000D01*
X55598740Y-84367294D01*
X55516845Y-84401215D01*
X55443142Y-84450462D01*
X55380462Y-84513142D01*
X55331215Y-84586845D01*
X55297294Y-84668740D01*
X55280000Y-84755679D01*
X55280000Y-84842000D01*
X55210501Y-84911500D01*
X50277896Y-84911500D01*
X50216858Y-84850462D01*
X50143155Y-84801215D01*
X50061260Y-84767294D01*
X49974321Y-84750000D01*
X49885679Y-84750000D01*
X49798740Y-84767294D01*
X49716845Y-84801215D01*
X49643142Y-84850462D01*
X49580462Y-84913142D01*
X49531215Y-84986845D01*
X49497294Y-85068740D01*
X49480000Y-85155679D01*
X43086088Y-85155679D01*
X43086088Y-85070000D01*
X43081744Y-85025892D01*
X43068878Y-84983480D01*
X43047985Y-84944392D01*
X43019868Y-84910132D01*
X42985608Y-84882015D01*
X42946520Y-84861122D01*
X42904108Y-84848256D01*
X42860000Y-84843912D01*
X41160000Y-84843912D01*
X41115892Y-84848256D01*
X41073480Y-84861122D01*
X41034392Y-84882015D01*
X41000132Y-84910132D01*
X40972015Y-84944392D01*
X40951122Y-84983480D01*
X40938256Y-85025892D01*
X40933912Y-85070000D01*
X40132834Y-85070000D01*
X39979203Y-84967348D01*
X39783566Y-84886312D01*
X39575878Y-84845000D01*
X39364122Y-84845000D01*
X39156434Y-84886312D01*
X38960797Y-84967348D01*
X38784728Y-85084993D01*
X38634993Y-85234728D01*
X38517348Y-85410797D01*
X38436312Y-85606434D01*
X38395000Y-85814122D01*
X34980000Y-85814122D01*
X34980000Y-83779211D01*
X38093730Y-83779211D01*
X38103877Y-83812685D01*
X38214539Y-84070889D01*
X38373448Y-84302542D01*
X38574497Y-84498742D01*
X38809960Y-84651950D01*
X39070788Y-84756277D01*
X39291000Y-84656033D01*
X39291000Y-83559000D01*
X39649000Y-83559000D01*
X39649000Y-84656033D01*
X39869212Y-84756277D01*
X40130040Y-84651950D01*
X40365503Y-84498742D01*
X40566552Y-84302542D01*
X40725461Y-84070889D01*
X40836123Y-83812685D01*
X40846270Y-83779211D01*
X40744744Y-83559000D01*
X39649000Y-83559000D01*
X39291000Y-83559000D01*
X38195256Y-83559000D01*
X38093730Y-83779211D01*
X34980000Y-83779211D01*
X34980000Y-83274122D01*
X40935000Y-83274122D01*
X40935000Y-83485878D01*
X40976312Y-83693566D01*
X41057348Y-83889203D01*
X41174993Y-84065272D01*
X41324728Y-84215007D01*
X41500797Y-84332652D01*
X41696434Y-84413688D01*
X41904122Y-84455000D01*
X42115878Y-84455000D01*
X42323566Y-84413688D01*
X42519203Y-84332652D01*
X42695272Y-84215007D01*
X42845007Y-84065272D01*
X42962652Y-83889203D01*
X43043688Y-83693566D01*
X43085000Y-83485878D01*
X43085000Y-83274122D01*
X43043688Y-83066434D01*
X43016170Y-83000000D01*
X55077823Y-83000000D01*
X55080000Y-83022105D01*
X55080000Y-83044321D01*
X55084334Y-83066107D01*
X55086511Y-83088215D01*
X55092961Y-83109478D01*
X55097294Y-83131260D01*
X55105794Y-83151781D01*
X55112243Y-83173041D01*
X55122713Y-83192629D01*
X55131215Y-83213155D01*
X55143561Y-83231632D01*
X55154029Y-83251216D01*
X55168116Y-83268381D01*
X55180462Y-83286858D01*
X55196176Y-83302572D01*
X55210263Y-83319737D01*
X55227428Y-83333824D01*
X55243142Y-83349538D01*
X55261619Y-83361884D01*
X55278784Y-83375971D01*
X55298368Y-83386439D01*
X55316845Y-83398785D01*
X55337371Y-83407287D01*
X55356959Y-83417757D01*
X55378219Y-83424206D01*
X55398740Y-83432706D01*
X55420522Y-83437039D01*
X55441785Y-83443489D01*
X55463894Y-83445666D01*
X55485679Y-83450000D01*
X57907906Y-83450000D01*
X57930000Y-83452176D01*
X57952094Y-83450000D01*
X57952105Y-83450000D01*
X58018215Y-83443489D01*
X58103041Y-83417757D01*
X58181216Y-83375971D01*
X58249737Y-83319737D01*
X58263829Y-83302566D01*
X58310716Y-83255679D01*
X58780000Y-83255679D01*
X58780000Y-83344321D01*
X58797294Y-83431260D01*
X58831215Y-83513155D01*
X58880462Y-83586858D01*
X58943142Y-83649538D01*
X59016845Y-83698785D01*
X59098740Y-83732706D01*
X59185679Y-83750000D01*
X59274321Y-83750000D01*
X59361260Y-83732706D01*
X59443155Y-83698785D01*
X59516858Y-83649538D01*
X59579538Y-83586858D01*
X59586927Y-83575800D01*
X59666466Y-83575800D01*
X59680000Y-83577133D01*
X59693534Y-83575800D01*
X59693544Y-83575800D01*
X59734066Y-83571809D01*
X59786055Y-83556038D01*
X59833967Y-83530428D01*
X59875963Y-83495963D01*
X59884599Y-83485440D01*
X60114360Y-83255679D01*
X61080000Y-83255679D01*
X61080000Y-83344321D01*
X61097294Y-83431260D01*
X61131215Y-83513155D01*
X61180462Y-83586858D01*
X61243142Y-83649538D01*
X61316845Y-83698785D01*
X61398740Y-83732706D01*
X61485679Y-83750000D01*
X61574321Y-83750000D01*
X61661260Y-83732706D01*
X61743155Y-83698785D01*
X61816858Y-83649538D01*
X61879538Y-83586858D01*
X61928785Y-83513155D01*
X61962706Y-83431260D01*
X61968647Y-83401392D01*
X62200908Y-83169131D01*
X62268525Y-83197139D01*
X62408594Y-83225000D01*
X62551406Y-83225000D01*
X62691475Y-83197139D01*
X62823416Y-83142487D01*
X62942161Y-83063144D01*
X63043144Y-82962161D01*
X63122487Y-82843416D01*
X63177139Y-82711475D01*
X63205000Y-82571406D01*
X63205000Y-82428594D01*
X63177139Y-82288525D01*
X63122487Y-82156584D01*
X63043144Y-82037839D01*
X62942161Y-81936856D01*
X62823416Y-81857513D01*
X62691475Y-81802861D01*
X62551406Y-81775000D01*
X62408594Y-81775000D01*
X62268525Y-81802861D01*
X62136584Y-81857513D01*
X62017839Y-81936856D01*
X61916856Y-82037839D01*
X61837513Y-82156584D01*
X61782861Y-82288525D01*
X61755000Y-82428594D01*
X61755000Y-82571406D01*
X61782861Y-82711475D01*
X61810869Y-82779092D01*
X61704681Y-82885279D01*
X61661260Y-82867294D01*
X61574321Y-82850000D01*
X61485679Y-82850000D01*
X61398740Y-82867294D01*
X61316845Y-82901215D01*
X61243142Y-82950462D01*
X61180462Y-83013142D01*
X61131215Y-83086845D01*
X61097294Y-83168740D01*
X61080000Y-83255679D01*
X60114360Y-83255679D01*
X60200908Y-83169131D01*
X60268525Y-83197139D01*
X60408594Y-83225000D01*
X60551406Y-83225000D01*
X60691475Y-83197139D01*
X60823416Y-83142487D01*
X60942161Y-83063144D01*
X61043144Y-82962161D01*
X61122487Y-82843416D01*
X61177139Y-82711475D01*
X61205000Y-82571406D01*
X61205000Y-82428594D01*
X61177139Y-82288525D01*
X61122487Y-82156584D01*
X61043144Y-82037839D01*
X60942161Y-81936856D01*
X60823416Y-81857513D01*
X60691475Y-81802861D01*
X60551406Y-81775000D01*
X60408594Y-81775000D01*
X60268525Y-81802861D01*
X60136584Y-81857513D01*
X60017839Y-81936856D01*
X59916856Y-82037839D01*
X59837513Y-82156584D01*
X59782861Y-82288525D01*
X59755000Y-82428594D01*
X59755000Y-82571406D01*
X59782861Y-82711475D01*
X59810869Y-82779092D01*
X59578178Y-83011782D01*
X59516858Y-82950462D01*
X59443155Y-82901215D01*
X59361260Y-82867294D01*
X59274321Y-82850000D01*
X59185679Y-82850000D01*
X59098740Y-82867294D01*
X59016845Y-82901215D01*
X58943142Y-82950462D01*
X58880462Y-83013142D01*
X58831215Y-83086845D01*
X58797294Y-83168740D01*
X58780000Y-83255679D01*
X58310716Y-83255679D01*
X59532572Y-82033824D01*
X59549737Y-82019737D01*
X59563824Y-82002572D01*
X59563828Y-82002568D01*
X59605971Y-81951217D01*
X59647757Y-81873041D01*
X59652467Y-81857513D01*
X59673489Y-81788215D01*
X59680000Y-81722105D01*
X59680000Y-81722094D01*
X59682176Y-81700000D01*
X59680000Y-81677906D01*
X59680000Y-80428594D01*
X59755000Y-80428594D01*
X59755000Y-80571406D01*
X59782861Y-80711475D01*
X59837513Y-80843416D01*
X59916856Y-80962161D01*
X60017839Y-81063144D01*
X60136584Y-81142487D01*
X60268525Y-81197139D01*
X60408594Y-81225000D01*
X60551406Y-81225000D01*
X60691475Y-81197139D01*
X60823416Y-81142487D01*
X60942161Y-81063144D01*
X61043144Y-80962161D01*
X61122487Y-80843416D01*
X61177139Y-80711475D01*
X61205000Y-80571406D01*
X61205000Y-80428594D01*
X61177139Y-80288525D01*
X61122487Y-80156584D01*
X61043144Y-80037839D01*
X60942161Y-79936856D01*
X60823416Y-79857513D01*
X60755800Y-79829505D01*
X60755800Y-79764239D01*
X60872635Y-79647405D01*
X60885679Y-79650000D01*
X60974321Y-79650000D01*
X61061260Y-79632706D01*
X61143155Y-79598785D01*
X61216858Y-79549538D01*
X61279538Y-79486858D01*
X61328785Y-79413155D01*
X61362706Y-79331260D01*
X61380000Y-79244321D01*
X61380000Y-79155679D01*
X61362706Y-79068740D01*
X61328785Y-78986845D01*
X61279538Y-78913142D01*
X61216858Y-78850462D01*
X61143155Y-78801215D01*
X61061260Y-78767294D01*
X60974321Y-78750000D01*
X60885679Y-78750000D01*
X60798740Y-78767294D01*
X60716845Y-78801215D01*
X60643142Y-78850462D01*
X60580462Y-78913142D01*
X60531215Y-78986845D01*
X60497294Y-79068740D01*
X60480000Y-79155679D01*
X60480000Y-79244321D01*
X60482595Y-79257365D01*
X60294555Y-79445406D01*
X60284038Y-79454037D01*
X60275407Y-79464554D01*
X60275403Y-79464558D01*
X60249572Y-79496033D01*
X60223962Y-79543947D01*
X60208192Y-79595934D01*
X60202867Y-79650000D01*
X60204201Y-79663544D01*
X60204201Y-79829505D01*
X60136584Y-79857513D01*
X60017839Y-79936856D01*
X59916856Y-80037839D01*
X59837513Y-80156584D01*
X59782861Y-80288525D01*
X59755000Y-80428594D01*
X59680000Y-80428594D01*
X59680000Y-78555679D01*
X61680000Y-78555679D01*
X61680000Y-78644321D01*
X61697294Y-78731260D01*
X61731215Y-78813155D01*
X61780462Y-78886858D01*
X61843142Y-78949538D01*
X61916845Y-78998785D01*
X61998740Y-79032706D01*
X62085679Y-79050000D01*
X62174321Y-79050000D01*
X62187365Y-79047405D01*
X62204201Y-79064241D01*
X62204200Y-79829505D01*
X62136584Y-79857513D01*
X62017839Y-79936856D01*
X61916856Y-80037839D01*
X61837513Y-80156584D01*
X61782861Y-80288525D01*
X61755000Y-80428594D01*
X61755000Y-80571406D01*
X61782861Y-80711475D01*
X61837513Y-80843416D01*
X61916856Y-80962161D01*
X62017839Y-81063144D01*
X62136584Y-81142487D01*
X62268525Y-81197139D01*
X62408594Y-81225000D01*
X62551406Y-81225000D01*
X62691475Y-81197139D01*
X62823416Y-81142487D01*
X62942161Y-81063144D01*
X63043144Y-80962161D01*
X63122487Y-80843416D01*
X63177139Y-80711475D01*
X63205000Y-80571406D01*
X63205000Y-80428594D01*
X63177139Y-80288525D01*
X63122487Y-80156584D01*
X63043144Y-80037839D01*
X62942161Y-79936856D01*
X62823416Y-79857513D01*
X62755800Y-79829505D01*
X62755800Y-78963534D01*
X62757133Y-78950000D01*
X62755800Y-78936466D01*
X62755800Y-78936456D01*
X62751809Y-78895934D01*
X62736038Y-78843945D01*
X62713198Y-78801215D01*
X62710428Y-78796032D01*
X62684597Y-78764557D01*
X62684594Y-78764554D01*
X62675963Y-78754037D01*
X62665446Y-78745406D01*
X62577405Y-78657365D01*
X62580000Y-78644321D01*
X62580000Y-78555679D01*
X62562706Y-78468740D01*
X62528785Y-78386845D01*
X62479538Y-78313142D01*
X62416858Y-78250462D01*
X62343155Y-78201215D01*
X62261260Y-78167294D01*
X62174321Y-78150000D01*
X62085679Y-78150000D01*
X61998740Y-78167294D01*
X61916845Y-78201215D01*
X61843142Y-78250462D01*
X61780462Y-78313142D01*
X61731215Y-78386845D01*
X61697294Y-78468740D01*
X61680000Y-78555679D01*
X59680000Y-78555679D01*
X59680000Y-76122094D01*
X59682176Y-76099999D01*
X59680000Y-76077905D01*
X59680000Y-76077895D01*
X59673489Y-76011785D01*
X59647757Y-75926959D01*
X59605971Y-75848783D01*
X59563828Y-75797433D01*
X59549737Y-75780263D01*
X59532567Y-75766172D01*
X59279540Y-75513145D01*
X59279538Y-75513142D01*
X59216858Y-75450462D01*
X59198381Y-75438116D01*
X59181216Y-75424029D01*
X59161633Y-75413562D01*
X59143155Y-75401215D01*
X59122625Y-75392712D01*
X59103040Y-75382243D01*
X59081785Y-75375795D01*
X59061260Y-75367294D01*
X59039470Y-75362959D01*
X59018215Y-75356512D01*
X58996117Y-75354336D01*
X58974321Y-75350000D01*
X58952094Y-75350000D01*
X58930000Y-75347824D01*
X58907906Y-75350000D01*
X58885679Y-75350000D01*
X58863883Y-75354336D01*
X58841785Y-75356512D01*
X58820530Y-75362959D01*
X58798740Y-75367294D01*
X58778215Y-75375795D01*
X58756960Y-75382243D01*
X58737375Y-75392712D01*
X58716845Y-75401215D01*
X58698367Y-75413562D01*
X58678784Y-75424029D01*
X58661619Y-75438116D01*
X58643142Y-75450462D01*
X58627428Y-75466176D01*
X58610263Y-75480263D01*
X58596176Y-75497428D01*
X58580462Y-75513142D01*
X58568116Y-75531619D01*
X58554029Y-75548784D01*
X58543562Y-75568367D01*
X58531215Y-75586845D01*
X58522712Y-75607375D01*
X58512243Y-75626960D01*
X58505795Y-75648215D01*
X58497294Y-75668740D01*
X58492959Y-75690530D01*
X58486512Y-75711785D01*
X58484336Y-75733883D01*
X58480000Y-75755679D01*
X58480000Y-75777906D01*
X58477824Y-75800000D01*
X58480000Y-75822094D01*
X58480000Y-75844321D01*
X58484336Y-75866117D01*
X58486512Y-75888215D01*
X58492959Y-75909470D01*
X58497294Y-75931260D01*
X58505795Y-75951785D01*
X58512243Y-75973040D01*
X58522712Y-75992625D01*
X58531215Y-76013155D01*
X58543562Y-76031633D01*
X58554029Y-76051216D01*
X58568116Y-76068381D01*
X58580462Y-76086858D01*
X58643142Y-76149538D01*
X58643145Y-76149540D01*
X58780000Y-76286395D01*
X58780001Y-81513603D01*
X57743605Y-82550000D01*
X55485679Y-82550000D01*
X55463894Y-82554334D01*
X55441785Y-82556511D01*
X55420522Y-82562961D01*
X55398740Y-82567294D01*
X55378219Y-82575794D01*
X55356959Y-82582243D01*
X55337371Y-82592713D01*
X55316845Y-82601215D01*
X55298368Y-82613561D01*
X55278784Y-82624029D01*
X55261619Y-82638116D01*
X55243142Y-82650462D01*
X55227428Y-82666176D01*
X55210263Y-82680263D01*
X55196176Y-82697428D01*
X55180462Y-82713142D01*
X55168116Y-82731619D01*
X55154029Y-82748784D01*
X55143561Y-82768368D01*
X55131215Y-82786845D01*
X55122713Y-82807371D01*
X55112243Y-82826959D01*
X55105794Y-82848219D01*
X55097294Y-82868740D01*
X55092961Y-82890522D01*
X55086511Y-82911785D01*
X55084334Y-82933893D01*
X55080000Y-82955679D01*
X55080000Y-82977895D01*
X55077823Y-83000000D01*
X43016170Y-83000000D01*
X42962652Y-82870797D01*
X42845007Y-82694728D01*
X42695272Y-82544993D01*
X42519203Y-82427348D01*
X42323566Y-82346312D01*
X42115878Y-82305000D01*
X41904122Y-82305000D01*
X41696434Y-82346312D01*
X41500797Y-82427348D01*
X41324728Y-82544993D01*
X41174993Y-82694728D01*
X41057348Y-82870797D01*
X40976312Y-83066434D01*
X40935000Y-83274122D01*
X34980000Y-83274122D01*
X34980000Y-82980789D01*
X38093730Y-82980789D01*
X38195256Y-83201000D01*
X39291000Y-83201000D01*
X39291000Y-82103967D01*
X39649000Y-82103967D01*
X39649000Y-83201000D01*
X40744744Y-83201000D01*
X40846270Y-82980789D01*
X40836123Y-82947315D01*
X40725461Y-82689111D01*
X40566552Y-82457458D01*
X40365503Y-82261258D01*
X40130040Y-82108050D01*
X39869212Y-82003723D01*
X39649000Y-82103967D01*
X39291000Y-82103967D01*
X39070788Y-82003723D01*
X38809960Y-82108050D01*
X38574497Y-82261258D01*
X38373448Y-82457458D01*
X38214539Y-82689111D01*
X38103877Y-82947315D01*
X38093730Y-82980789D01*
X34980000Y-82980789D01*
X34980000Y-80734122D01*
X38395000Y-80734122D01*
X38395000Y-80945878D01*
X38436312Y-81153566D01*
X38517348Y-81349203D01*
X38634993Y-81525272D01*
X38784728Y-81675007D01*
X38960797Y-81792652D01*
X39156434Y-81873688D01*
X39364122Y-81915000D01*
X39575878Y-81915000D01*
X39783566Y-81873688D01*
X39979203Y-81792652D01*
X40155272Y-81675007D01*
X40305007Y-81525272D01*
X40422652Y-81349203D01*
X40503688Y-81153566D01*
X40545000Y-80945878D01*
X40545000Y-80734122D01*
X40935000Y-80734122D01*
X40935000Y-80945878D01*
X40976312Y-81153566D01*
X41057348Y-81349203D01*
X41174993Y-81525272D01*
X41324728Y-81675007D01*
X41500797Y-81792652D01*
X41696434Y-81873688D01*
X41904122Y-81915000D01*
X42115878Y-81915000D01*
X42323566Y-81873688D01*
X42519203Y-81792652D01*
X42695272Y-81675007D01*
X42845007Y-81525272D01*
X42962652Y-81349203D01*
X43043688Y-81153566D01*
X43085000Y-80945878D01*
X43085000Y-80734122D01*
X43043688Y-80526434D01*
X42962652Y-80330797D01*
X42845007Y-80154728D01*
X42695272Y-80004993D01*
X42519203Y-79887348D01*
X42323566Y-79806312D01*
X42115878Y-79765000D01*
X41904122Y-79765000D01*
X41696434Y-79806312D01*
X41500797Y-79887348D01*
X41324728Y-80004993D01*
X41174993Y-80154728D01*
X41057348Y-80330797D01*
X40976312Y-80526434D01*
X40935000Y-80734122D01*
X40545000Y-80734122D01*
X40503688Y-80526434D01*
X40422652Y-80330797D01*
X40305007Y-80154728D01*
X40155272Y-80004993D01*
X39979203Y-79887348D01*
X39783566Y-79806312D01*
X39575878Y-79765000D01*
X39364122Y-79765000D01*
X39156434Y-79806312D01*
X38960797Y-79887348D01*
X38784728Y-80004993D01*
X38634993Y-80154728D01*
X38517348Y-80330797D01*
X38436312Y-80526434D01*
X38395000Y-80734122D01*
X34980000Y-80734122D01*
X34980000Y-78555679D01*
X48480000Y-78555679D01*
X48480000Y-78644321D01*
X48497294Y-78731260D01*
X48531215Y-78813155D01*
X48580462Y-78886858D01*
X48643142Y-78949538D01*
X48716845Y-78998785D01*
X48798740Y-79032706D01*
X48885679Y-79050000D01*
X48974321Y-79050000D01*
X49061260Y-79032706D01*
X49143155Y-78998785D01*
X49216858Y-78949538D01*
X49277896Y-78888500D01*
X52515838Y-78888500D01*
X52530000Y-78889895D01*
X52544162Y-78888500D01*
X52544164Y-78888500D01*
X52586556Y-78884325D01*
X52640938Y-78867828D01*
X52691057Y-78841039D01*
X52734987Y-78804987D01*
X52744025Y-78793974D01*
X52988000Y-78550000D01*
X53074321Y-78550000D01*
X53161260Y-78532706D01*
X53243155Y-78498785D01*
X53316858Y-78449538D01*
X53379538Y-78386858D01*
X53428785Y-78313155D01*
X53462706Y-78231260D01*
X53480000Y-78144321D01*
X53480000Y-78055679D01*
X53462706Y-77968740D01*
X53428785Y-77886845D01*
X53379538Y-77813142D01*
X53316858Y-77750462D01*
X53243155Y-77701215D01*
X53161260Y-77667294D01*
X53074321Y-77650000D01*
X52985679Y-77650000D01*
X52898740Y-77667294D01*
X52816845Y-77701215D01*
X52743142Y-77750462D01*
X52680462Y-77813142D01*
X52631215Y-77886845D01*
X52597294Y-77968740D01*
X52580000Y-78055679D01*
X52580000Y-78142000D01*
X52410501Y-78311500D01*
X49277896Y-78311500D01*
X49216858Y-78250462D01*
X49143155Y-78201215D01*
X49061260Y-78167294D01*
X48974321Y-78150000D01*
X48885679Y-78150000D01*
X48798740Y-78167294D01*
X48716845Y-78201215D01*
X48643142Y-78250462D01*
X48580462Y-78313142D01*
X48531215Y-78386845D01*
X48497294Y-78468740D01*
X48480000Y-78555679D01*
X34980000Y-78555679D01*
X34980000Y-75928594D01*
X41905000Y-75928594D01*
X41905000Y-76071406D01*
X41932861Y-76211475D01*
X41987513Y-76343416D01*
X42066856Y-76462161D01*
X42167839Y-76563144D01*
X42286584Y-76642487D01*
X42418525Y-76697139D01*
X42558594Y-76725000D01*
X42701406Y-76725000D01*
X42841475Y-76697139D01*
X42973416Y-76642487D01*
X43092161Y-76563144D01*
X43193144Y-76462161D01*
X43272487Y-76343416D01*
X43300495Y-76275800D01*
X43815761Y-76275800D01*
X44082595Y-76542635D01*
X44080000Y-76555679D01*
X44080000Y-76644321D01*
X44097294Y-76731260D01*
X44131215Y-76813155D01*
X44180462Y-76886858D01*
X44243142Y-76949538D01*
X44316845Y-76998785D01*
X44398740Y-77032706D01*
X44485679Y-77050000D01*
X44574321Y-77050000D01*
X44574384Y-77049987D01*
X44593942Y-77066038D01*
X44644061Y-77092827D01*
X44698443Y-77109324D01*
X44754999Y-77114894D01*
X44811555Y-77109324D01*
X44865937Y-77092827D01*
X44874032Y-77088500D01*
X52810501Y-77088500D01*
X53841501Y-78119502D01*
X53841500Y-79452104D01*
X53780462Y-79513142D01*
X53731215Y-79586845D01*
X53697294Y-79668740D01*
X53680000Y-79755679D01*
X53680000Y-79844321D01*
X53697294Y-79931260D01*
X53731215Y-80013155D01*
X53780462Y-80086858D01*
X53843142Y-80149538D01*
X53916845Y-80198785D01*
X53998740Y-80232706D01*
X54085679Y-80250000D01*
X54174321Y-80250000D01*
X54261260Y-80232706D01*
X54343155Y-80198785D01*
X54416858Y-80149538D01*
X54479538Y-80086858D01*
X54528785Y-80013155D01*
X54562706Y-79931260D01*
X54580000Y-79844321D01*
X54580000Y-79755679D01*
X54562706Y-79668740D01*
X54536225Y-79604807D01*
X56845201Y-79604807D01*
X56847378Y-79626912D01*
X56847378Y-79649128D01*
X56851712Y-79670914D01*
X56853889Y-79693022D01*
X56860339Y-79714285D01*
X56864672Y-79736067D01*
X56873172Y-79756588D01*
X56879621Y-79777848D01*
X56890091Y-79797436D01*
X56898593Y-79817962D01*
X56910939Y-79836439D01*
X56921407Y-79856023D01*
X56935494Y-79873188D01*
X56947840Y-79891665D01*
X56963554Y-79907379D01*
X56977641Y-79924544D01*
X56994806Y-79938631D01*
X57010520Y-79954345D01*
X57028997Y-79966691D01*
X57046162Y-79980778D01*
X57065746Y-79991246D01*
X57084223Y-80003592D01*
X57104749Y-80012094D01*
X57124337Y-80022564D01*
X57145597Y-80029013D01*
X57166118Y-80037513D01*
X57187900Y-80041846D01*
X57209163Y-80048296D01*
X57231272Y-80050473D01*
X57253057Y-80054807D01*
X57848410Y-80054807D01*
X57880458Y-80086855D01*
X57880460Y-80086858D01*
X57943140Y-80149538D01*
X57961617Y-80161884D01*
X57978782Y-80175971D01*
X57998366Y-80186439D01*
X58016843Y-80198785D01*
X58037369Y-80207287D01*
X58056957Y-80217757D01*
X58078215Y-80224205D01*
X58098738Y-80232706D01*
X58120528Y-80237040D01*
X58141783Y-80243488D01*
X58163881Y-80245664D01*
X58185677Y-80250000D01*
X58207904Y-80250000D01*
X58229998Y-80252176D01*
X58252092Y-80250000D01*
X58274319Y-80250000D01*
X58296115Y-80245664D01*
X58318213Y-80243488D01*
X58339468Y-80237041D01*
X58361258Y-80232706D01*
X58381783Y-80224205D01*
X58403038Y-80217757D01*
X58422623Y-80207288D01*
X58443153Y-80198785D01*
X58461631Y-80186438D01*
X58481214Y-80175971D01*
X58498379Y-80161884D01*
X58516856Y-80149538D01*
X58532570Y-80133824D01*
X58549735Y-80119737D01*
X58563822Y-80102572D01*
X58579536Y-80086858D01*
X58591882Y-80068381D01*
X58605969Y-80051216D01*
X58616436Y-80031633D01*
X58628783Y-80013155D01*
X58637286Y-79992625D01*
X58647755Y-79973040D01*
X58654203Y-79951785D01*
X58662704Y-79931260D01*
X58667039Y-79909470D01*
X58673486Y-79888215D01*
X58675662Y-79866117D01*
X58679998Y-79844321D01*
X58679998Y-79822094D01*
X58682174Y-79800000D01*
X58679998Y-79777906D01*
X58679998Y-79755679D01*
X58675662Y-79733883D01*
X58673486Y-79711785D01*
X58667038Y-79690530D01*
X58662704Y-79668740D01*
X58654203Y-79648217D01*
X58647755Y-79626959D01*
X58637285Y-79607371D01*
X58628783Y-79586845D01*
X58616437Y-79568368D01*
X58605969Y-79548784D01*
X58591882Y-79531619D01*
X58579536Y-79513142D01*
X58516856Y-79450462D01*
X58516853Y-79450460D01*
X58368634Y-79302241D01*
X58354542Y-79285070D01*
X58286021Y-79228836D01*
X58207846Y-79187050D01*
X58123020Y-79161318D01*
X58056910Y-79154807D01*
X58056899Y-79154807D01*
X58034805Y-79152631D01*
X58012711Y-79154807D01*
X57253057Y-79154807D01*
X57231272Y-79159141D01*
X57209163Y-79161318D01*
X57187900Y-79167768D01*
X57166118Y-79172101D01*
X57145597Y-79180601D01*
X57124337Y-79187050D01*
X57104749Y-79197520D01*
X57084223Y-79206022D01*
X57065746Y-79218368D01*
X57046162Y-79228836D01*
X57028997Y-79242923D01*
X57010520Y-79255269D01*
X56994806Y-79270983D01*
X56977641Y-79285070D01*
X56963554Y-79302235D01*
X56947840Y-79317949D01*
X56935494Y-79336426D01*
X56921407Y-79353591D01*
X56910939Y-79373175D01*
X56898593Y-79391652D01*
X56890091Y-79412178D01*
X56879621Y-79431766D01*
X56873172Y-79453026D01*
X56864672Y-79473547D01*
X56860339Y-79495329D01*
X56853889Y-79516592D01*
X56851712Y-79538700D01*
X56847378Y-79560486D01*
X56847378Y-79582702D01*
X56845201Y-79604807D01*
X54536225Y-79604807D01*
X54528785Y-79586845D01*
X54479538Y-79513142D01*
X54418500Y-79452104D01*
X54418500Y-78014161D01*
X54419895Y-77999999D01*
X54416816Y-77968740D01*
X54414325Y-77943444D01*
X54397828Y-77889062D01*
X54381739Y-77858961D01*
X54371039Y-77838942D01*
X54348929Y-77812001D01*
X54334987Y-77795013D01*
X54323985Y-77785984D01*
X53693679Y-77155679D01*
X56079998Y-77155679D01*
X56079998Y-77244321D01*
X56097292Y-77331260D01*
X56131213Y-77413155D01*
X56180460Y-77486858D01*
X56243140Y-77549538D01*
X56316843Y-77598785D01*
X56398738Y-77632706D01*
X56485677Y-77650000D01*
X56571998Y-77650000D01*
X56641501Y-77719503D01*
X56641500Y-78252104D01*
X56580462Y-78313142D01*
X56531215Y-78386845D01*
X56497294Y-78468740D01*
X56480000Y-78555679D01*
X56480000Y-78644321D01*
X56497294Y-78731260D01*
X56531215Y-78813155D01*
X56580462Y-78886858D01*
X56643142Y-78949538D01*
X56716845Y-78998785D01*
X56798740Y-79032706D01*
X56885679Y-79050000D01*
X56974321Y-79050000D01*
X57061260Y-79032706D01*
X57143155Y-78998785D01*
X57216858Y-78949538D01*
X57279538Y-78886858D01*
X57328785Y-78813155D01*
X57362706Y-78731260D01*
X57380000Y-78644321D01*
X57380000Y-78555679D01*
X57362706Y-78468740D01*
X57328785Y-78386845D01*
X57279538Y-78313142D01*
X57218500Y-78252104D01*
X57218500Y-77614163D01*
X57219895Y-77600001D01*
X57218500Y-77585838D01*
X57214325Y-77543446D01*
X57197828Y-77489064D01*
X57185357Y-77465733D01*
X57171039Y-77438944D01*
X57144015Y-77406016D01*
X57134987Y-77395015D01*
X57123984Y-77385986D01*
X56979998Y-77242000D01*
X56979998Y-77155679D01*
X56962704Y-77068740D01*
X56928783Y-76986845D01*
X56879536Y-76913142D01*
X56816856Y-76850462D01*
X56743153Y-76801215D01*
X56661258Y-76767294D01*
X56574319Y-76750000D01*
X56485677Y-76750000D01*
X56398738Y-76767294D01*
X56316843Y-76801215D01*
X56243140Y-76850462D01*
X56180460Y-76913142D01*
X56131213Y-76986845D01*
X56097292Y-77068740D01*
X56079998Y-77155679D01*
X53693679Y-77155679D01*
X53144025Y-76606026D01*
X53134987Y-76595013D01*
X53091057Y-76558961D01*
X53040938Y-76532172D01*
X52986556Y-76515675D01*
X52944164Y-76511500D01*
X52944162Y-76511500D01*
X52930000Y-76510105D01*
X52915838Y-76511500D01*
X44971212Y-76511500D01*
X44962706Y-76468740D01*
X44928785Y-76386845D01*
X44879538Y-76313142D01*
X44816858Y-76250462D01*
X44743155Y-76201215D01*
X44661260Y-76167294D01*
X44574321Y-76150000D01*
X44485679Y-76150000D01*
X44472635Y-76152595D01*
X44134598Y-75814559D01*
X44125963Y-75804037D01*
X44083967Y-75769572D01*
X44036055Y-75743962D01*
X43984066Y-75728191D01*
X43943544Y-75724200D01*
X43943534Y-75724200D01*
X43930000Y-75722867D01*
X43916466Y-75724200D01*
X43300495Y-75724200D01*
X43272487Y-75656584D01*
X43193144Y-75537839D01*
X43092161Y-75436856D01*
X42973416Y-75357513D01*
X42841475Y-75302861D01*
X42701406Y-75275000D01*
X42558594Y-75275000D01*
X42418525Y-75302861D01*
X42286584Y-75357513D01*
X42167839Y-75436856D01*
X42066856Y-75537839D01*
X41987513Y-75656584D01*
X41932861Y-75788525D01*
X41905000Y-75928594D01*
X34980000Y-75928594D01*
X34980000Y-74955679D01*
X50680000Y-74955679D01*
X50680000Y-75044321D01*
X50697294Y-75131260D01*
X50731215Y-75213155D01*
X50780462Y-75286858D01*
X50843142Y-75349538D01*
X50916845Y-75398785D01*
X50998740Y-75432706D01*
X51085679Y-75450000D01*
X51172000Y-75450000D01*
X51783397Y-76061398D01*
X51797294Y-76131260D01*
X51831215Y-76213155D01*
X51880462Y-76286858D01*
X51943142Y-76349538D01*
X52016845Y-76398785D01*
X52098740Y-76432706D01*
X52185679Y-76450000D01*
X52274321Y-76450000D01*
X52361260Y-76432706D01*
X52443155Y-76398785D01*
X52516858Y-76349538D01*
X52579538Y-76286858D01*
X52628785Y-76213155D01*
X52662706Y-76131260D01*
X52680000Y-76044321D01*
X52680000Y-75955679D01*
X52662706Y-75868740D01*
X52628785Y-75786845D01*
X52579538Y-75713142D01*
X52516858Y-75650462D01*
X52443155Y-75601215D01*
X52361260Y-75567294D01*
X52274321Y-75550000D01*
X52185679Y-75550000D01*
X52104207Y-75566206D01*
X51580000Y-75042000D01*
X51580000Y-74955679D01*
X51562706Y-74868740D01*
X51528785Y-74786845D01*
X51479538Y-74713142D01*
X51416858Y-74650462D01*
X51343155Y-74601215D01*
X51261260Y-74567294D01*
X51174321Y-74550000D01*
X51085679Y-74550000D01*
X50998740Y-74567294D01*
X50916845Y-74601215D01*
X50843142Y-74650462D01*
X50780462Y-74713142D01*
X50731215Y-74786845D01*
X50697294Y-74868740D01*
X50680000Y-74955679D01*
X34980000Y-74955679D01*
X34980000Y-64606433D01*
X54280000Y-64606433D01*
X54280000Y-64793567D01*
X54316508Y-64977105D01*
X54388121Y-65149994D01*
X54492087Y-65305590D01*
X54624410Y-65437913D01*
X54780006Y-65541879D01*
X54952895Y-65613492D01*
X55136433Y-65650000D01*
X55323567Y-65650000D01*
X55507105Y-65613492D01*
X55679994Y-65541879D01*
X55835590Y-65437913D01*
X55967913Y-65305590D01*
X56071879Y-65149994D01*
X56143492Y-64977105D01*
X56180000Y-64793567D01*
X56180000Y-64606433D01*
X59280000Y-64606433D01*
X59280000Y-64793567D01*
X59316508Y-64977105D01*
X59388121Y-65149994D01*
X59492087Y-65305590D01*
X59624410Y-65437913D01*
X59780006Y-65541879D01*
X59952895Y-65613492D01*
X60136433Y-65650000D01*
X60323567Y-65650000D01*
X60507105Y-65613492D01*
X60679994Y-65541879D01*
X60835590Y-65437913D01*
X60967913Y-65305590D01*
X61071879Y-65149994D01*
X61143492Y-64977105D01*
X61180000Y-64793567D01*
X61180000Y-64606433D01*
X61143492Y-64422895D01*
X61071879Y-64250006D01*
X60967913Y-64094410D01*
X60835590Y-63962087D01*
X60679994Y-63858121D01*
X60507105Y-63786508D01*
X60323567Y-63750000D01*
X60136433Y-63750000D01*
X59952895Y-63786508D01*
X59780006Y-63858121D01*
X59624410Y-63962087D01*
X59492087Y-64094410D01*
X59388121Y-64250006D01*
X59316508Y-64422895D01*
X59280000Y-64606433D01*
X56180000Y-64606433D01*
X56143492Y-64422895D01*
X56071879Y-64250006D01*
X55967913Y-64094410D01*
X55835590Y-63962087D01*
X55679994Y-63858121D01*
X55507105Y-63786508D01*
X55323567Y-63750000D01*
X55136433Y-63750000D01*
X54952895Y-63786508D01*
X54780006Y-63858121D01*
X54624410Y-63962087D01*
X54492087Y-64094410D01*
X54388121Y-64250006D01*
X54316508Y-64422895D01*
X54280000Y-64606433D01*
X34980000Y-64606433D01*
X34980000Y-62012229D01*
X35014505Y-61660322D01*
X35029855Y-61609479D01*
X53405000Y-61609479D01*
X53405000Y-62390520D01*
X53416938Y-62511727D01*
X53464112Y-62667240D01*
X53540719Y-62810562D01*
X53643815Y-62936185D01*
X53769437Y-63039281D01*
X53912759Y-63115888D01*
X54068272Y-63163062D01*
X54230000Y-63178991D01*
X54391727Y-63163062D01*
X54547240Y-63115888D01*
X54690562Y-63039281D01*
X54816185Y-62936185D01*
X54919281Y-62810563D01*
X54995888Y-62667241D01*
X55043062Y-62511728D01*
X55055000Y-62390521D01*
X55055000Y-61609480D01*
X60405000Y-61609480D01*
X60405000Y-62390521D01*
X60416938Y-62511728D01*
X60464113Y-62667241D01*
X60540720Y-62810563D01*
X60643816Y-62936185D01*
X60769438Y-63039281D01*
X60912760Y-63115888D01*
X61068273Y-63163062D01*
X61230000Y-63178991D01*
X61391728Y-63163062D01*
X61547241Y-63115888D01*
X61690563Y-63039281D01*
X61816185Y-62936185D01*
X61919281Y-62810563D01*
X61995888Y-62667241D01*
X62043062Y-62511728D01*
X62055000Y-62390521D01*
X62055000Y-61609479D01*
X62043062Y-61488272D01*
X61995888Y-61332759D01*
X61919281Y-61189437D01*
X61816185Y-61063815D01*
X61690562Y-60960719D01*
X61547240Y-60884112D01*
X61391727Y-60836938D01*
X61230000Y-60821009D01*
X61068272Y-60836938D01*
X60912759Y-60884112D01*
X60769437Y-60960719D01*
X60643815Y-61063815D01*
X60540719Y-61189438D01*
X60464112Y-61332760D01*
X60416938Y-61488273D01*
X60405000Y-61609480D01*
X55055000Y-61609480D01*
X55055000Y-61609479D01*
X55043062Y-61488272D01*
X54995888Y-61332759D01*
X54919281Y-61189437D01*
X54816185Y-61063815D01*
X54690563Y-60960719D01*
X54547241Y-60884112D01*
X54391728Y-60836938D01*
X54230000Y-60821009D01*
X54068273Y-60836938D01*
X53912760Y-60884112D01*
X53769438Y-60960719D01*
X53643816Y-61063815D01*
X53540720Y-61189437D01*
X53464113Y-61332759D01*
X53416938Y-61488272D01*
X53405000Y-61609479D01*
X35029855Y-61609479D01*
X35113153Y-61333584D01*
X35273389Y-61032225D01*
X35489104Y-60767733D01*
X35752082Y-60550178D01*
X36052310Y-60387846D01*
X36378359Y-60286917D01*
X36729576Y-60250003D01*
X36730307Y-60250000D01*
X62717771Y-60250000D01*
X63069678Y-60284505D01*
G37*
G04 #@! TD.AperFunction*
G04 #@! TD*
M02*
