%TF.GenerationSoftware,KiCad,Pcbnew,(5.1.8-0-10_14)*%
%TF.CreationDate,2020-12-20T01:13:58+00:00*%
%TF.ProjectId,carrier,63617272-6965-4722-9e6b-696361645f70,0.1*%
%TF.SameCoordinates,Original*%
%TF.FileFunction,Copper,L2,Inr*%
%TF.FilePolarity,Positive*%
%FSLAX46Y46*%
G04 Gerber Fmt 4.6, Leading zero omitted, Abs format (unit mm)*
G04 Created by KiCad (PCBNEW (5.1.8-0-10_14)) date 2020-12-20 01:13:58*
%MOMM*%
%LPD*%
G01*
G04 APERTURE LIST*
%TA.AperFunction,ComponentPad*%
%ADD10O,1.700000X1.700000*%
%TD*%
%TA.AperFunction,ComponentPad*%
%ADD11R,1.700000X1.700000*%
%TD*%
%TA.AperFunction,ViaPad*%
%ADD12C,0.450000*%
%TD*%
%TA.AperFunction,Conductor*%
%ADD13C,0.127000*%
%TD*%
%TA.AperFunction,Conductor*%
%ADD14C,0.100000*%
%TD*%
G04 APERTURE END LIST*
D10*
%TO.N,mprj_io[19]*%
%TO.C,J3*%
X76350000Y-109210000D03*
%TO.N,mprj_io[20]*%
X76350000Y-106670000D03*
%TO.N,mprj_io[21]*%
X76350000Y-104130000D03*
%TO.N,mprj_io[22]*%
X76350000Y-101590000D03*
%TO.N,mprj_io[23]*%
X76350000Y-99050000D03*
%TO.N,mprj_io[24]*%
X76350000Y-96510000D03*
%TO.N,mprj_io[25]*%
X76350000Y-93970000D03*
%TO.N,mprj_io[26]*%
X76350000Y-91430000D03*
%TO.N,mprj_io[27]*%
X76350000Y-88890000D03*
%TO.N,mprj_io[28]*%
X76350000Y-86350000D03*
%TO.N,mprj_io[29]*%
X76350000Y-83810000D03*
%TO.N,mprj_io[30]*%
X76350000Y-81270000D03*
%TO.N,mprj_io[31]*%
X76350000Y-78730000D03*
%TO.N,mprj_io[32]*%
X76350000Y-76190000D03*
%TO.N,mprj_io[33]*%
X76350000Y-73650000D03*
%TO.N,mprj_io[34]*%
X76350000Y-71110000D03*
%TO.N,mprj_io[35]*%
X76350000Y-68570000D03*
%TO.N,mprj_io[36]*%
X76350000Y-66030000D03*
%TO.N,mprj_io[37]*%
X76350000Y-63490000D03*
%TO.N,+5V*%
X76350000Y-60950000D03*
%TO.N,flash_csb*%
X76350000Y-58410000D03*
%TO.N,flash_io0*%
X76350000Y-55870000D03*
%TO.N,flash_io1*%
X76350000Y-53330000D03*
%TO.N,flash_clk*%
X76350000Y-50790000D03*
%TO.N,GND*%
X76350000Y-48250000D03*
D11*
%TO.N,+5V*%
X76350000Y-45710000D03*
%TD*%
D10*
%TO.N,GND*%
%TO.C,J2*%
X61110000Y-109210000D03*
%TO.N,mprj_io[18]*%
X61110000Y-106670000D03*
%TO.N,mprj_io[17]*%
X61110000Y-104130000D03*
%TO.N,mprj_io[16]*%
X61110000Y-101590000D03*
%TO.N,mprj_io[15]*%
X61110000Y-99050000D03*
%TO.N,mprj_io[14]*%
X61110000Y-96510000D03*
%TO.N,mprj_io[13]*%
X61110000Y-93970000D03*
%TO.N,mprj_io[12]*%
X61110000Y-91430000D03*
%TO.N,mprj_io[11]*%
X61110000Y-88890000D03*
%TO.N,mprj_io[10]*%
X61110000Y-86350000D03*
%TO.N,mprj_io[9]*%
X61110000Y-83810000D03*
%TO.N,mprj_io[8]*%
X61110000Y-81270000D03*
%TO.N,mprj_io[7]*%
X61110000Y-78730000D03*
%TO.N,mprj_io[6]*%
X61110000Y-76190000D03*
%TO.N,mprj_io[5]*%
X61110000Y-73650000D03*
%TO.N,mprj_io[4]*%
X61110000Y-71110000D03*
%TO.N,mprj_io[3]*%
X61110000Y-68570000D03*
%TO.N,mprj_io[2]*%
X61110000Y-66030000D03*
%TO.N,mprj_io[1]*%
X61110000Y-63490000D03*
%TO.N,mprj_io[0]*%
X61110000Y-60950000D03*
%TO.N,clock*%
X61110000Y-58410000D03*
%TO.N,resetb*%
X61110000Y-55870000D03*
%TO.N,gpio*%
X61110000Y-53330000D03*
%TO.N,ext_3v3*%
X61110000Y-50790000D03*
%TO.N,ext_1v8*%
X61110000Y-48250000D03*
D11*
%TO.N,ext_vddio*%
X61110000Y-45710000D03*
%TD*%
D12*
%TO.N,GND*%
X73830000Y-51650000D03*
X66680000Y-52100000D03*
X73780000Y-52100000D03*
X66730000Y-51650000D03*
X73830000Y-55400000D03*
X66680000Y-55850000D03*
X73780000Y-55850000D03*
X66730000Y-55400000D03*
X73830000Y-61950000D03*
X66680000Y-62400000D03*
X73780000Y-62400000D03*
X66730000Y-61950000D03*
X70455000Y-82125000D03*
X73730000Y-81900000D03*
X73480000Y-79275000D03*
X64730000Y-78100000D03*
X68730000Y-80000000D03*
X66680000Y-66150000D03*
X66730000Y-65700000D03*
X73780000Y-66150000D03*
X73830000Y-65700000D03*
X66530000Y-71450000D03*
X66530000Y-72250000D03*
X71780000Y-75975000D03*
X71270000Y-91095000D03*
X70855000Y-82525000D03*
X64895000Y-101305000D03*
X64430000Y-82000000D03*
X64479990Y-80500000D03*
X63650000Y-105400000D03*
X64920000Y-73142000D03*
X64920000Y-71872000D03*
X63650000Y-107432000D03*
X71270000Y-89144000D03*
X70000000Y-87874000D03*
X73240000Y-89000000D03*
X73810000Y-74666000D03*
X67206000Y-60354000D03*
X74064000Y-59500000D03*
X64680000Y-55000000D03*
X67206000Y-93716000D03*
X70000000Y-92446000D03*
X64895000Y-101905000D03*
X64295000Y-101305000D03*
X64295000Y-101905000D03*
X64130000Y-57550000D03*
X70000000Y-69840000D03*
X73810000Y-72380000D03*
X72540000Y-70475000D03*
X66620000Y-69770000D03*
X69492000Y-85080000D03*
X70254000Y-60188000D03*
X73175000Y-97780000D03*
X70635000Y-96510000D03*
X68095000Y-96510000D03*
X64285000Y-97145000D03*
X64285000Y-99050000D03*
X63650000Y-110480000D03*
X66825000Y-110480000D03*
X70000000Y-110480000D03*
X73175000Y-110480000D03*
X73175000Y-102860000D03*
X72540000Y-46980000D03*
X70000000Y-46980000D03*
X67460000Y-46980000D03*
X64920000Y-46980000D03*
X73977990Y-82600000D03*
%TO.N,+5V*%
X74064000Y-105527000D03*
X73556000Y-105527000D03*
X73556000Y-105019000D03*
X74064000Y-105019000D03*
X73830000Y-53200000D03*
X73780000Y-53650000D03*
X73830000Y-56950000D03*
X73780000Y-57400000D03*
X73830000Y-63500000D03*
X73780000Y-63950000D03*
X73830000Y-67250000D03*
X73780000Y-67700000D03*
X72130000Y-51500000D03*
X72130000Y-55200000D03*
%TO.N,vccd*%
X66730000Y-57500000D03*
X66730000Y-57000000D03*
X70755000Y-75450000D03*
%TO.N,vdda*%
X64980000Y-53500000D03*
X66444000Y-94905000D03*
X65230000Y-76950000D03*
X71130000Y-74550000D03*
X71130000Y-73650000D03*
X65480000Y-53250000D03*
%TO.N,vccd1*%
X64930000Y-61900000D03*
X65430000Y-61600000D03*
X65130000Y-83300000D03*
X71380000Y-83050000D03*
%TO.N,vdda1*%
X65230000Y-66700000D03*
X65030000Y-81800000D03*
X71930000Y-78725000D03*
X64730000Y-66700000D03*
%TO.N,vddio*%
X64930000Y-52200000D03*
X65430000Y-51900000D03*
X72530000Y-82450000D03*
X71778000Y-99939000D03*
%TO.N,gpio*%
X70380000Y-61700000D03*
X70380000Y-65450000D03*
X65630000Y-75650000D03*
%TO.N,flash_io0*%
X66805000Y-91100000D03*
X68005010Y-75650000D03*
%TO.N,flash_csb*%
X68780000Y-75400000D03*
X70780000Y-94900000D03*
%TO.N,resetb*%
X63330000Y-90050000D03*
X65428000Y-103749000D03*
%TO.N,mprj_io[2]*%
X64530000Y-86900000D03*
X69111000Y-102987000D03*
%TO.N,mprj_io[1]*%
X64530000Y-86250000D03*
X70381000Y-103749000D03*
%TO.N,flash_io1*%
X67280000Y-75850000D03*
X67180000Y-89900000D03*
%TO.N,mprj_io[36]*%
X73455000Y-75975000D03*
%TO.N,mprj_io[4]*%
X63930000Y-87800000D03*
X67841000Y-102987000D03*
%TO.N,mprj_io[3]*%
X63930000Y-87150000D03*
X69111000Y-103749000D03*
%TO.N,flash_clk*%
X66530000Y-77900000D03*
X66280000Y-92350000D03*
%TO.N,mprj_io[33]*%
X69980000Y-76775000D03*
%TO.N,mprj_io[34]*%
X73329998Y-76975000D03*
%TO.N,mprj_io[6]*%
X63330000Y-88700000D03*
X66698000Y-102987000D03*
%TO.N,mprj_io[5]*%
X63930000Y-88450000D03*
X67841000Y-103749000D03*
%TO.N,mprj_io[0]*%
X64530000Y-85600000D03*
X70381000Y-102987000D03*
%TO.N,mprj_io[32]*%
X71255000Y-79375000D03*
%TO.N,mprj_io[7]*%
X63330000Y-89350000D03*
X66698000Y-103749000D03*
%TO.N,mprj_io[12]*%
X66280000Y-81375010D03*
%TO.N,mprj_io[11]*%
X66305000Y-81950000D03*
%TO.N,mprj_io[24]*%
X73605000Y-86150000D03*
%TO.N,mprj_io[15]*%
X66380000Y-83424990D03*
%TO.N,mprj_io[19]*%
X73605000Y-86875000D03*
%TD*%
D13*
%TO.N,GND*%
X78191500Y-111051500D02*
X59268500Y-111051500D01*
X59268500Y-109578344D01*
X60002129Y-109578344D01*
X60066150Y-109732931D01*
X60188226Y-109926528D01*
X60345725Y-110092589D01*
X60532595Y-110224733D01*
X60741654Y-110317881D01*
X60919500Y-110282488D01*
X60919500Y-109400500D01*
X61300500Y-109400500D01*
X61300500Y-110282488D01*
X61478346Y-110317881D01*
X61687405Y-110224733D01*
X61874275Y-110092589D01*
X62031774Y-109926528D01*
X62153850Y-109732931D01*
X62217871Y-109578344D01*
X62181320Y-109400500D01*
X61300500Y-109400500D01*
X60919500Y-109400500D01*
X60038680Y-109400500D01*
X60002129Y-109578344D01*
X59268500Y-109578344D01*
X59268500Y-109105254D01*
X75286500Y-109105254D01*
X75286500Y-109314746D01*
X75327370Y-109520212D01*
X75407538Y-109713756D01*
X75523925Y-109887942D01*
X75672058Y-110036075D01*
X75846244Y-110152462D01*
X76039788Y-110232630D01*
X76245254Y-110273500D01*
X76454746Y-110273500D01*
X76660212Y-110232630D01*
X76853756Y-110152462D01*
X77027942Y-110036075D01*
X77176075Y-109887942D01*
X77292462Y-109713756D01*
X77372630Y-109520212D01*
X77413500Y-109314746D01*
X77413500Y-109105254D01*
X77372630Y-108899788D01*
X77292462Y-108706244D01*
X77176075Y-108532058D01*
X77027942Y-108383925D01*
X76853756Y-108267538D01*
X76660212Y-108187370D01*
X76454746Y-108146500D01*
X76245254Y-108146500D01*
X76039788Y-108187370D01*
X75846244Y-108267538D01*
X75672058Y-108383925D01*
X75523925Y-108532058D01*
X75407538Y-108706244D01*
X75327370Y-108899788D01*
X75286500Y-109105254D01*
X59268500Y-109105254D01*
X59268500Y-108841656D01*
X60002129Y-108841656D01*
X60038680Y-109019500D01*
X60919500Y-109019500D01*
X60919500Y-108137512D01*
X61300500Y-108137512D01*
X61300500Y-109019500D01*
X62181320Y-109019500D01*
X62217871Y-108841656D01*
X62153850Y-108687069D01*
X62031774Y-108493472D01*
X61874275Y-108327411D01*
X61687405Y-108195267D01*
X61478346Y-108102119D01*
X61300500Y-108137512D01*
X60919500Y-108137512D01*
X60741654Y-108102119D01*
X60532595Y-108195267D01*
X60345725Y-108327411D01*
X60188226Y-108493472D01*
X60066150Y-108687069D01*
X60002129Y-108841656D01*
X59268500Y-108841656D01*
X59268500Y-106565254D01*
X60046500Y-106565254D01*
X60046500Y-106774746D01*
X60087370Y-106980212D01*
X60167538Y-107173756D01*
X60283925Y-107347942D01*
X60432058Y-107496075D01*
X60606244Y-107612462D01*
X60799788Y-107692630D01*
X61005254Y-107733500D01*
X61214746Y-107733500D01*
X61420212Y-107692630D01*
X61613756Y-107612462D01*
X61787942Y-107496075D01*
X61936075Y-107347942D01*
X62052462Y-107173756D01*
X62132630Y-106980212D01*
X62173500Y-106774746D01*
X62173500Y-106565254D01*
X75286500Y-106565254D01*
X75286500Y-106774746D01*
X75327370Y-106980212D01*
X75407538Y-107173756D01*
X75523925Y-107347942D01*
X75672058Y-107496075D01*
X75846244Y-107612462D01*
X76039788Y-107692630D01*
X76245254Y-107733500D01*
X76454746Y-107733500D01*
X76660212Y-107692630D01*
X76853756Y-107612462D01*
X77027942Y-107496075D01*
X77176075Y-107347942D01*
X77292462Y-107173756D01*
X77372630Y-106980212D01*
X77413500Y-106774746D01*
X77413500Y-106565254D01*
X77372630Y-106359788D01*
X77292462Y-106166244D01*
X77176075Y-105992058D01*
X77027942Y-105843925D01*
X76853756Y-105727538D01*
X76660212Y-105647370D01*
X76454746Y-105606500D01*
X76245254Y-105606500D01*
X76039788Y-105647370D01*
X75846244Y-105727538D01*
X75672058Y-105843925D01*
X75523925Y-105992058D01*
X75407538Y-106166244D01*
X75327370Y-106359788D01*
X75286500Y-106565254D01*
X62173500Y-106565254D01*
X62132630Y-106359788D01*
X62052462Y-106166244D01*
X61936075Y-105992058D01*
X61787942Y-105843925D01*
X61613756Y-105727538D01*
X61420212Y-105647370D01*
X61214746Y-105606500D01*
X61005254Y-105606500D01*
X60799788Y-105647370D01*
X60606244Y-105727538D01*
X60432058Y-105843925D01*
X60283925Y-105992058D01*
X60167538Y-106166244D01*
X60087370Y-106359788D01*
X60046500Y-106565254D01*
X59268500Y-106565254D01*
X59268500Y-104025254D01*
X60046500Y-104025254D01*
X60046500Y-104234746D01*
X60087370Y-104440212D01*
X60167538Y-104633756D01*
X60283925Y-104807942D01*
X60432058Y-104956075D01*
X60606244Y-105072462D01*
X60799788Y-105152630D01*
X61005254Y-105193500D01*
X61214746Y-105193500D01*
X61420212Y-105152630D01*
X61613756Y-105072462D01*
X61758404Y-104975811D01*
X73117500Y-104975811D01*
X73117500Y-105062189D01*
X73134351Y-105146906D01*
X73167406Y-105226708D01*
X73198338Y-105273000D01*
X73167406Y-105319292D01*
X73134351Y-105399094D01*
X73117500Y-105483811D01*
X73117500Y-105570189D01*
X73134351Y-105654906D01*
X73167406Y-105734708D01*
X73215395Y-105806528D01*
X73276472Y-105867605D01*
X73348292Y-105915594D01*
X73428094Y-105948649D01*
X73512811Y-105965500D01*
X73599189Y-105965500D01*
X73683906Y-105948649D01*
X73763708Y-105915594D01*
X73810000Y-105884662D01*
X73856292Y-105915594D01*
X73936094Y-105948649D01*
X74020811Y-105965500D01*
X74107189Y-105965500D01*
X74191906Y-105948649D01*
X74271708Y-105915594D01*
X74343528Y-105867605D01*
X74404605Y-105806528D01*
X74452594Y-105734708D01*
X74485649Y-105654906D01*
X74502500Y-105570189D01*
X74502500Y-105483811D01*
X74485649Y-105399094D01*
X74452594Y-105319292D01*
X74421662Y-105273000D01*
X74452594Y-105226708D01*
X74485649Y-105146906D01*
X74502500Y-105062189D01*
X74502500Y-104975811D01*
X74485649Y-104891094D01*
X74452594Y-104811292D01*
X74404605Y-104739472D01*
X74343528Y-104678395D01*
X74271708Y-104630406D01*
X74191906Y-104597351D01*
X74107189Y-104580500D01*
X74020811Y-104580500D01*
X73936094Y-104597351D01*
X73856292Y-104630406D01*
X73810000Y-104661338D01*
X73763708Y-104630406D01*
X73683906Y-104597351D01*
X73599189Y-104580500D01*
X73512811Y-104580500D01*
X73428094Y-104597351D01*
X73348292Y-104630406D01*
X73276472Y-104678395D01*
X73215395Y-104739472D01*
X73167406Y-104811292D01*
X73134351Y-104891094D01*
X73117500Y-104975811D01*
X61758404Y-104975811D01*
X61787942Y-104956075D01*
X61936075Y-104807942D01*
X62052462Y-104633756D01*
X62132630Y-104440212D01*
X62173500Y-104234746D01*
X62173500Y-104025254D01*
X62132630Y-103819788D01*
X62085420Y-103705811D01*
X64989500Y-103705811D01*
X64989500Y-103792189D01*
X65006351Y-103876906D01*
X65039406Y-103956708D01*
X65087395Y-104028528D01*
X65148472Y-104089605D01*
X65220292Y-104137594D01*
X65300094Y-104170649D01*
X65384811Y-104187500D01*
X65471189Y-104187500D01*
X65555906Y-104170649D01*
X65635708Y-104137594D01*
X65707528Y-104089605D01*
X65768605Y-104028528D01*
X65816594Y-103956708D01*
X65849649Y-103876906D01*
X65866500Y-103792189D01*
X65866500Y-103705811D01*
X65849649Y-103621094D01*
X65816594Y-103541292D01*
X65768605Y-103469472D01*
X65707528Y-103408395D01*
X65635708Y-103360406D01*
X65555906Y-103327351D01*
X65471189Y-103310500D01*
X65384811Y-103310500D01*
X65300094Y-103327351D01*
X65220292Y-103360406D01*
X65148472Y-103408395D01*
X65087395Y-103469472D01*
X65039406Y-103541292D01*
X65006351Y-103621094D01*
X64989500Y-103705811D01*
X62085420Y-103705811D01*
X62052462Y-103626244D01*
X61936075Y-103452058D01*
X61787942Y-103303925D01*
X61613756Y-103187538D01*
X61420212Y-103107370D01*
X61214746Y-103066500D01*
X61005254Y-103066500D01*
X60799788Y-103107370D01*
X60606244Y-103187538D01*
X60432058Y-103303925D01*
X60283925Y-103452058D01*
X60167538Y-103626244D01*
X60087370Y-103819788D01*
X60046500Y-104025254D01*
X59268500Y-104025254D01*
X59268500Y-102943811D01*
X66259500Y-102943811D01*
X66259500Y-103030189D01*
X66276351Y-103114906D01*
X66309406Y-103194708D01*
X66357395Y-103266528D01*
X66418472Y-103327605D01*
X66478927Y-103368000D01*
X66418472Y-103408395D01*
X66357395Y-103469472D01*
X66309406Y-103541292D01*
X66276351Y-103621094D01*
X66259500Y-103705811D01*
X66259500Y-103792189D01*
X66276351Y-103876906D01*
X66309406Y-103956708D01*
X66357395Y-104028528D01*
X66418472Y-104089605D01*
X66490292Y-104137594D01*
X66570094Y-104170649D01*
X66654811Y-104187500D01*
X66741189Y-104187500D01*
X66825906Y-104170649D01*
X66905708Y-104137594D01*
X66977528Y-104089605D01*
X67038605Y-104028528D01*
X67086594Y-103956708D01*
X67119649Y-103876906D01*
X67136500Y-103792189D01*
X67136500Y-103705811D01*
X67119649Y-103621094D01*
X67086594Y-103541292D01*
X67038605Y-103469472D01*
X66977528Y-103408395D01*
X66917073Y-103368000D01*
X66977528Y-103327605D01*
X67038605Y-103266528D01*
X67086594Y-103194708D01*
X67119649Y-103114906D01*
X67136500Y-103030189D01*
X67136500Y-102943811D01*
X67402500Y-102943811D01*
X67402500Y-103030189D01*
X67419351Y-103114906D01*
X67452406Y-103194708D01*
X67500395Y-103266528D01*
X67561472Y-103327605D01*
X67621927Y-103368000D01*
X67561472Y-103408395D01*
X67500395Y-103469472D01*
X67452406Y-103541292D01*
X67419351Y-103621094D01*
X67402500Y-103705811D01*
X67402500Y-103792189D01*
X67419351Y-103876906D01*
X67452406Y-103956708D01*
X67500395Y-104028528D01*
X67561472Y-104089605D01*
X67633292Y-104137594D01*
X67713094Y-104170649D01*
X67797811Y-104187500D01*
X67884189Y-104187500D01*
X67968906Y-104170649D01*
X68048708Y-104137594D01*
X68120528Y-104089605D01*
X68181605Y-104028528D01*
X68229594Y-103956708D01*
X68262649Y-103876906D01*
X68279500Y-103792189D01*
X68279500Y-103705811D01*
X68262649Y-103621094D01*
X68229594Y-103541292D01*
X68181605Y-103469472D01*
X68120528Y-103408395D01*
X68060073Y-103368000D01*
X68120528Y-103327605D01*
X68181605Y-103266528D01*
X68229594Y-103194708D01*
X68262649Y-103114906D01*
X68279500Y-103030189D01*
X68279500Y-102943811D01*
X68672500Y-102943811D01*
X68672500Y-103030189D01*
X68689351Y-103114906D01*
X68722406Y-103194708D01*
X68770395Y-103266528D01*
X68831472Y-103327605D01*
X68891927Y-103368000D01*
X68831472Y-103408395D01*
X68770395Y-103469472D01*
X68722406Y-103541292D01*
X68689351Y-103621094D01*
X68672500Y-103705811D01*
X68672500Y-103792189D01*
X68689351Y-103876906D01*
X68722406Y-103956708D01*
X68770395Y-104028528D01*
X68831472Y-104089605D01*
X68903292Y-104137594D01*
X68983094Y-104170649D01*
X69067811Y-104187500D01*
X69154189Y-104187500D01*
X69238906Y-104170649D01*
X69318708Y-104137594D01*
X69390528Y-104089605D01*
X69451605Y-104028528D01*
X69499594Y-103956708D01*
X69532649Y-103876906D01*
X69549500Y-103792189D01*
X69549500Y-103705811D01*
X69532649Y-103621094D01*
X69499594Y-103541292D01*
X69451605Y-103469472D01*
X69390528Y-103408395D01*
X69330073Y-103368000D01*
X69390528Y-103327605D01*
X69451605Y-103266528D01*
X69499594Y-103194708D01*
X69532649Y-103114906D01*
X69549500Y-103030189D01*
X69549500Y-102943811D01*
X69942500Y-102943811D01*
X69942500Y-103030189D01*
X69959351Y-103114906D01*
X69992406Y-103194708D01*
X70040395Y-103266528D01*
X70101472Y-103327605D01*
X70161927Y-103368000D01*
X70101472Y-103408395D01*
X70040395Y-103469472D01*
X69992406Y-103541292D01*
X69959351Y-103621094D01*
X69942500Y-103705811D01*
X69942500Y-103792189D01*
X69959351Y-103876906D01*
X69992406Y-103956708D01*
X70040395Y-104028528D01*
X70101472Y-104089605D01*
X70173292Y-104137594D01*
X70253094Y-104170649D01*
X70337811Y-104187500D01*
X70424189Y-104187500D01*
X70508906Y-104170649D01*
X70588708Y-104137594D01*
X70660528Y-104089605D01*
X70721605Y-104028528D01*
X70723792Y-104025254D01*
X75286500Y-104025254D01*
X75286500Y-104234746D01*
X75327370Y-104440212D01*
X75407538Y-104633756D01*
X75523925Y-104807942D01*
X75672058Y-104956075D01*
X75846244Y-105072462D01*
X76039788Y-105152630D01*
X76245254Y-105193500D01*
X76454746Y-105193500D01*
X76660212Y-105152630D01*
X76853756Y-105072462D01*
X77027942Y-104956075D01*
X77176075Y-104807942D01*
X77292462Y-104633756D01*
X77372630Y-104440212D01*
X77413500Y-104234746D01*
X77413500Y-104025254D01*
X77372630Y-103819788D01*
X77292462Y-103626244D01*
X77176075Y-103452058D01*
X77027942Y-103303925D01*
X76853756Y-103187538D01*
X76660212Y-103107370D01*
X76454746Y-103066500D01*
X76245254Y-103066500D01*
X76039788Y-103107370D01*
X75846244Y-103187538D01*
X75672058Y-103303925D01*
X75523925Y-103452058D01*
X75407538Y-103626244D01*
X75327370Y-103819788D01*
X75286500Y-104025254D01*
X70723792Y-104025254D01*
X70769594Y-103956708D01*
X70802649Y-103876906D01*
X70819500Y-103792189D01*
X70819500Y-103705811D01*
X70802649Y-103621094D01*
X70769594Y-103541292D01*
X70721605Y-103469472D01*
X70660528Y-103408395D01*
X70600073Y-103368000D01*
X70660528Y-103327605D01*
X70721605Y-103266528D01*
X70769594Y-103194708D01*
X70802649Y-103114906D01*
X70819500Y-103030189D01*
X70819500Y-102943811D01*
X70802649Y-102859094D01*
X70769594Y-102779292D01*
X70721605Y-102707472D01*
X70660528Y-102646395D01*
X70588708Y-102598406D01*
X70508906Y-102565351D01*
X70424189Y-102548500D01*
X70337811Y-102548500D01*
X70253094Y-102565351D01*
X70173292Y-102598406D01*
X70101472Y-102646395D01*
X70040395Y-102707472D01*
X69992406Y-102779292D01*
X69959351Y-102859094D01*
X69942500Y-102943811D01*
X69549500Y-102943811D01*
X69532649Y-102859094D01*
X69499594Y-102779292D01*
X69451605Y-102707472D01*
X69390528Y-102646395D01*
X69318708Y-102598406D01*
X69238906Y-102565351D01*
X69154189Y-102548500D01*
X69067811Y-102548500D01*
X68983094Y-102565351D01*
X68903292Y-102598406D01*
X68831472Y-102646395D01*
X68770395Y-102707472D01*
X68722406Y-102779292D01*
X68689351Y-102859094D01*
X68672500Y-102943811D01*
X68279500Y-102943811D01*
X68262649Y-102859094D01*
X68229594Y-102779292D01*
X68181605Y-102707472D01*
X68120528Y-102646395D01*
X68048708Y-102598406D01*
X67968906Y-102565351D01*
X67884189Y-102548500D01*
X67797811Y-102548500D01*
X67713094Y-102565351D01*
X67633292Y-102598406D01*
X67561472Y-102646395D01*
X67500395Y-102707472D01*
X67452406Y-102779292D01*
X67419351Y-102859094D01*
X67402500Y-102943811D01*
X67136500Y-102943811D01*
X67119649Y-102859094D01*
X67086594Y-102779292D01*
X67038605Y-102707472D01*
X66977528Y-102646395D01*
X66905708Y-102598406D01*
X66825906Y-102565351D01*
X66741189Y-102548500D01*
X66654811Y-102548500D01*
X66570094Y-102565351D01*
X66490292Y-102598406D01*
X66418472Y-102646395D01*
X66357395Y-102707472D01*
X66309406Y-102779292D01*
X66276351Y-102859094D01*
X66259500Y-102943811D01*
X59268500Y-102943811D01*
X59268500Y-101485254D01*
X60046500Y-101485254D01*
X60046500Y-101694746D01*
X60087370Y-101900212D01*
X60167538Y-102093756D01*
X60283925Y-102267942D01*
X60432058Y-102416075D01*
X60606244Y-102532462D01*
X60799788Y-102612630D01*
X61005254Y-102653500D01*
X61214746Y-102653500D01*
X61420212Y-102612630D01*
X61613756Y-102532462D01*
X61787942Y-102416075D01*
X61936075Y-102267942D01*
X62052462Y-102093756D01*
X62132630Y-101900212D01*
X62173500Y-101694746D01*
X62173500Y-101485254D01*
X75286500Y-101485254D01*
X75286500Y-101694746D01*
X75327370Y-101900212D01*
X75407538Y-102093756D01*
X75523925Y-102267942D01*
X75672058Y-102416075D01*
X75846244Y-102532462D01*
X76039788Y-102612630D01*
X76245254Y-102653500D01*
X76454746Y-102653500D01*
X76660212Y-102612630D01*
X76853756Y-102532462D01*
X77027942Y-102416075D01*
X77176075Y-102267942D01*
X77292462Y-102093756D01*
X77372630Y-101900212D01*
X77413500Y-101694746D01*
X77413500Y-101485254D01*
X77372630Y-101279788D01*
X77292462Y-101086244D01*
X77176075Y-100912058D01*
X77027942Y-100763925D01*
X76853756Y-100647538D01*
X76660212Y-100567370D01*
X76454746Y-100526500D01*
X76245254Y-100526500D01*
X76039788Y-100567370D01*
X75846244Y-100647538D01*
X75672058Y-100763925D01*
X75523925Y-100912058D01*
X75407538Y-101086244D01*
X75327370Y-101279788D01*
X75286500Y-101485254D01*
X62173500Y-101485254D01*
X62132630Y-101279788D01*
X62052462Y-101086244D01*
X61936075Y-100912058D01*
X61787942Y-100763925D01*
X61613756Y-100647538D01*
X61420212Y-100567370D01*
X61214746Y-100526500D01*
X61005254Y-100526500D01*
X60799788Y-100567370D01*
X60606244Y-100647538D01*
X60432058Y-100763925D01*
X60283925Y-100912058D01*
X60167538Y-101086244D01*
X60087370Y-101279788D01*
X60046500Y-101485254D01*
X59268500Y-101485254D01*
X59268500Y-98945254D01*
X60046500Y-98945254D01*
X60046500Y-99154746D01*
X60087370Y-99360212D01*
X60167538Y-99553756D01*
X60283925Y-99727942D01*
X60432058Y-99876075D01*
X60606244Y-99992462D01*
X60799788Y-100072630D01*
X61005254Y-100113500D01*
X61214746Y-100113500D01*
X61420212Y-100072630D01*
X61613756Y-99992462D01*
X61758404Y-99895811D01*
X71339500Y-99895811D01*
X71339500Y-99982189D01*
X71356351Y-100066906D01*
X71389406Y-100146708D01*
X71437395Y-100218528D01*
X71498472Y-100279605D01*
X71570292Y-100327594D01*
X71650094Y-100360649D01*
X71734811Y-100377500D01*
X71821189Y-100377500D01*
X71905906Y-100360649D01*
X71985708Y-100327594D01*
X72057528Y-100279605D01*
X72118605Y-100218528D01*
X72166594Y-100146708D01*
X72199649Y-100066906D01*
X72216500Y-99982189D01*
X72216500Y-99895811D01*
X72199649Y-99811094D01*
X72166594Y-99731292D01*
X72118605Y-99659472D01*
X72057528Y-99598395D01*
X71985708Y-99550406D01*
X71905906Y-99517351D01*
X71821189Y-99500500D01*
X71734811Y-99500500D01*
X71650094Y-99517351D01*
X71570292Y-99550406D01*
X71498472Y-99598395D01*
X71437395Y-99659472D01*
X71389406Y-99731292D01*
X71356351Y-99811094D01*
X71339500Y-99895811D01*
X61758404Y-99895811D01*
X61787942Y-99876075D01*
X61936075Y-99727942D01*
X62052462Y-99553756D01*
X62132630Y-99360212D01*
X62173500Y-99154746D01*
X62173500Y-98945254D01*
X75286500Y-98945254D01*
X75286500Y-99154746D01*
X75327370Y-99360212D01*
X75407538Y-99553756D01*
X75523925Y-99727942D01*
X75672058Y-99876075D01*
X75846244Y-99992462D01*
X76039788Y-100072630D01*
X76245254Y-100113500D01*
X76454746Y-100113500D01*
X76660212Y-100072630D01*
X76853756Y-99992462D01*
X77027942Y-99876075D01*
X77176075Y-99727942D01*
X77292462Y-99553756D01*
X77372630Y-99360212D01*
X77413500Y-99154746D01*
X77413500Y-98945254D01*
X77372630Y-98739788D01*
X77292462Y-98546244D01*
X77176075Y-98372058D01*
X77027942Y-98223925D01*
X76853756Y-98107538D01*
X76660212Y-98027370D01*
X76454746Y-97986500D01*
X76245254Y-97986500D01*
X76039788Y-98027370D01*
X75846244Y-98107538D01*
X75672058Y-98223925D01*
X75523925Y-98372058D01*
X75407538Y-98546244D01*
X75327370Y-98739788D01*
X75286500Y-98945254D01*
X62173500Y-98945254D01*
X62132630Y-98739788D01*
X62052462Y-98546244D01*
X61936075Y-98372058D01*
X61787942Y-98223925D01*
X61613756Y-98107538D01*
X61420212Y-98027370D01*
X61214746Y-97986500D01*
X61005254Y-97986500D01*
X60799788Y-98027370D01*
X60606244Y-98107538D01*
X60432058Y-98223925D01*
X60283925Y-98372058D01*
X60167538Y-98546244D01*
X60087370Y-98739788D01*
X60046500Y-98945254D01*
X59268500Y-98945254D01*
X59268500Y-96405254D01*
X60046500Y-96405254D01*
X60046500Y-96614746D01*
X60087370Y-96820212D01*
X60167538Y-97013756D01*
X60283925Y-97187942D01*
X60432058Y-97336075D01*
X60606244Y-97452462D01*
X60799788Y-97532630D01*
X61005254Y-97573500D01*
X61214746Y-97573500D01*
X61420212Y-97532630D01*
X61613756Y-97452462D01*
X61787942Y-97336075D01*
X61936075Y-97187942D01*
X62052462Y-97013756D01*
X62132630Y-96820212D01*
X62173500Y-96614746D01*
X62173500Y-96405254D01*
X75286500Y-96405254D01*
X75286500Y-96614746D01*
X75327370Y-96820212D01*
X75407538Y-97013756D01*
X75523925Y-97187942D01*
X75672058Y-97336075D01*
X75846244Y-97452462D01*
X76039788Y-97532630D01*
X76245254Y-97573500D01*
X76454746Y-97573500D01*
X76660212Y-97532630D01*
X76853756Y-97452462D01*
X77027942Y-97336075D01*
X77176075Y-97187942D01*
X77292462Y-97013756D01*
X77372630Y-96820212D01*
X77413500Y-96614746D01*
X77413500Y-96405254D01*
X77372630Y-96199788D01*
X77292462Y-96006244D01*
X77176075Y-95832058D01*
X77027942Y-95683925D01*
X76853756Y-95567538D01*
X76660212Y-95487370D01*
X76454746Y-95446500D01*
X76245254Y-95446500D01*
X76039788Y-95487370D01*
X75846244Y-95567538D01*
X75672058Y-95683925D01*
X75523925Y-95832058D01*
X75407538Y-96006244D01*
X75327370Y-96199788D01*
X75286500Y-96405254D01*
X62173500Y-96405254D01*
X62132630Y-96199788D01*
X62052462Y-96006244D01*
X61936075Y-95832058D01*
X61787942Y-95683925D01*
X61613756Y-95567538D01*
X61420212Y-95487370D01*
X61214746Y-95446500D01*
X61005254Y-95446500D01*
X60799788Y-95487370D01*
X60606244Y-95567538D01*
X60432058Y-95683925D01*
X60283925Y-95832058D01*
X60167538Y-96006244D01*
X60087370Y-96199788D01*
X60046500Y-96405254D01*
X59268500Y-96405254D01*
X59268500Y-93865254D01*
X60046500Y-93865254D01*
X60046500Y-94074746D01*
X60087370Y-94280212D01*
X60167538Y-94473756D01*
X60283925Y-94647942D01*
X60432058Y-94796075D01*
X60606244Y-94912462D01*
X60799788Y-94992630D01*
X61005254Y-95033500D01*
X61214746Y-95033500D01*
X61420212Y-94992630D01*
X61613756Y-94912462D01*
X61689560Y-94861811D01*
X66005500Y-94861811D01*
X66005500Y-94948189D01*
X66022351Y-95032906D01*
X66055406Y-95112708D01*
X66103395Y-95184528D01*
X66164472Y-95245605D01*
X66236292Y-95293594D01*
X66316094Y-95326649D01*
X66400811Y-95343500D01*
X66487189Y-95343500D01*
X66571906Y-95326649D01*
X66651708Y-95293594D01*
X66723528Y-95245605D01*
X66784605Y-95184528D01*
X66832594Y-95112708D01*
X66865649Y-95032906D01*
X66882500Y-94948189D01*
X66882500Y-94861811D01*
X66881506Y-94856811D01*
X70341500Y-94856811D01*
X70341500Y-94943189D01*
X70358351Y-95027906D01*
X70391406Y-95107708D01*
X70439395Y-95179528D01*
X70500472Y-95240605D01*
X70572292Y-95288594D01*
X70652094Y-95321649D01*
X70736811Y-95338500D01*
X70823189Y-95338500D01*
X70907906Y-95321649D01*
X70987708Y-95288594D01*
X71059528Y-95240605D01*
X71120605Y-95179528D01*
X71168594Y-95107708D01*
X71201649Y-95027906D01*
X71218500Y-94943189D01*
X71218500Y-94856811D01*
X71201649Y-94772094D01*
X71168594Y-94692292D01*
X71120605Y-94620472D01*
X71059528Y-94559395D01*
X70987708Y-94511406D01*
X70907906Y-94478351D01*
X70823189Y-94461500D01*
X70736811Y-94461500D01*
X70652094Y-94478351D01*
X70572292Y-94511406D01*
X70500472Y-94559395D01*
X70439395Y-94620472D01*
X70391406Y-94692292D01*
X70358351Y-94772094D01*
X70341500Y-94856811D01*
X66881506Y-94856811D01*
X66865649Y-94777094D01*
X66832594Y-94697292D01*
X66784605Y-94625472D01*
X66723528Y-94564395D01*
X66651708Y-94516406D01*
X66571906Y-94483351D01*
X66487189Y-94466500D01*
X66400811Y-94466500D01*
X66316094Y-94483351D01*
X66236292Y-94516406D01*
X66164472Y-94564395D01*
X66103395Y-94625472D01*
X66055406Y-94697292D01*
X66022351Y-94777094D01*
X66005500Y-94861811D01*
X61689560Y-94861811D01*
X61787942Y-94796075D01*
X61936075Y-94647942D01*
X62052462Y-94473756D01*
X62132630Y-94280212D01*
X62173500Y-94074746D01*
X62173500Y-93865254D01*
X75286500Y-93865254D01*
X75286500Y-94074746D01*
X75327370Y-94280212D01*
X75407538Y-94473756D01*
X75523925Y-94647942D01*
X75672058Y-94796075D01*
X75846244Y-94912462D01*
X76039788Y-94992630D01*
X76245254Y-95033500D01*
X76454746Y-95033500D01*
X76660212Y-94992630D01*
X76853756Y-94912462D01*
X77027942Y-94796075D01*
X77176075Y-94647942D01*
X77292462Y-94473756D01*
X77372630Y-94280212D01*
X77413500Y-94074746D01*
X77413500Y-93865254D01*
X77372630Y-93659788D01*
X77292462Y-93466244D01*
X77176075Y-93292058D01*
X77027942Y-93143925D01*
X76853756Y-93027538D01*
X76660212Y-92947370D01*
X76454746Y-92906500D01*
X76245254Y-92906500D01*
X76039788Y-92947370D01*
X75846244Y-93027538D01*
X75672058Y-93143925D01*
X75523925Y-93292058D01*
X75407538Y-93466244D01*
X75327370Y-93659788D01*
X75286500Y-93865254D01*
X62173500Y-93865254D01*
X62132630Y-93659788D01*
X62052462Y-93466244D01*
X61936075Y-93292058D01*
X61787942Y-93143925D01*
X61613756Y-93027538D01*
X61420212Y-92947370D01*
X61214746Y-92906500D01*
X61005254Y-92906500D01*
X60799788Y-92947370D01*
X60606244Y-93027538D01*
X60432058Y-93143925D01*
X60283925Y-93292058D01*
X60167538Y-93466244D01*
X60087370Y-93659788D01*
X60046500Y-93865254D01*
X59268500Y-93865254D01*
X59268500Y-91325254D01*
X60046500Y-91325254D01*
X60046500Y-91534746D01*
X60087370Y-91740212D01*
X60167538Y-91933756D01*
X60283925Y-92107942D01*
X60432058Y-92256075D01*
X60606244Y-92372462D01*
X60799788Y-92452630D01*
X61005254Y-92493500D01*
X61214746Y-92493500D01*
X61420212Y-92452630D01*
X61613756Y-92372462D01*
X61712009Y-92306811D01*
X65841500Y-92306811D01*
X65841500Y-92393189D01*
X65858351Y-92477906D01*
X65891406Y-92557708D01*
X65939395Y-92629528D01*
X66000472Y-92690605D01*
X66072292Y-92738594D01*
X66152094Y-92771649D01*
X66236811Y-92788500D01*
X66323189Y-92788500D01*
X66407906Y-92771649D01*
X66487708Y-92738594D01*
X66559528Y-92690605D01*
X66620605Y-92629528D01*
X66668594Y-92557708D01*
X66701649Y-92477906D01*
X66718500Y-92393189D01*
X66718500Y-92306811D01*
X66701649Y-92222094D01*
X66668594Y-92142292D01*
X66620605Y-92070472D01*
X66559528Y-92009395D01*
X66487708Y-91961406D01*
X66407906Y-91928351D01*
X66323189Y-91911500D01*
X66236811Y-91911500D01*
X66152094Y-91928351D01*
X66072292Y-91961406D01*
X66000472Y-92009395D01*
X65939395Y-92070472D01*
X65891406Y-92142292D01*
X65858351Y-92222094D01*
X65841500Y-92306811D01*
X61712009Y-92306811D01*
X61787942Y-92256075D01*
X61936075Y-92107942D01*
X62052462Y-91933756D01*
X62132630Y-91740212D01*
X62173500Y-91534746D01*
X62173500Y-91325254D01*
X62132630Y-91119788D01*
X62106545Y-91056811D01*
X66366500Y-91056811D01*
X66366500Y-91143189D01*
X66383351Y-91227906D01*
X66416406Y-91307708D01*
X66464395Y-91379528D01*
X66525472Y-91440605D01*
X66597292Y-91488594D01*
X66677094Y-91521649D01*
X66761811Y-91538500D01*
X66848189Y-91538500D01*
X66932906Y-91521649D01*
X67012708Y-91488594D01*
X67084528Y-91440605D01*
X67145605Y-91379528D01*
X67181870Y-91325254D01*
X75286500Y-91325254D01*
X75286500Y-91534746D01*
X75327370Y-91740212D01*
X75407538Y-91933756D01*
X75523925Y-92107942D01*
X75672058Y-92256075D01*
X75846244Y-92372462D01*
X76039788Y-92452630D01*
X76245254Y-92493500D01*
X76454746Y-92493500D01*
X76660212Y-92452630D01*
X76853756Y-92372462D01*
X77027942Y-92256075D01*
X77176075Y-92107942D01*
X77292462Y-91933756D01*
X77372630Y-91740212D01*
X77413500Y-91534746D01*
X77413500Y-91325254D01*
X77372630Y-91119788D01*
X77292462Y-90926244D01*
X77176075Y-90752058D01*
X77027942Y-90603925D01*
X76853756Y-90487538D01*
X76660212Y-90407370D01*
X76454746Y-90366500D01*
X76245254Y-90366500D01*
X76039788Y-90407370D01*
X75846244Y-90487538D01*
X75672058Y-90603925D01*
X75523925Y-90752058D01*
X75407538Y-90926244D01*
X75327370Y-91119788D01*
X75286500Y-91325254D01*
X67181870Y-91325254D01*
X67193594Y-91307708D01*
X67226649Y-91227906D01*
X67243500Y-91143189D01*
X67243500Y-91056811D01*
X67226649Y-90972094D01*
X67193594Y-90892292D01*
X67145605Y-90820472D01*
X67084528Y-90759395D01*
X67012708Y-90711406D01*
X66932906Y-90678351D01*
X66848189Y-90661500D01*
X66761811Y-90661500D01*
X66677094Y-90678351D01*
X66597292Y-90711406D01*
X66525472Y-90759395D01*
X66464395Y-90820472D01*
X66416406Y-90892292D01*
X66383351Y-90972094D01*
X66366500Y-91056811D01*
X62106545Y-91056811D01*
X62052462Y-90926244D01*
X61936075Y-90752058D01*
X61787942Y-90603925D01*
X61613756Y-90487538D01*
X61420212Y-90407370D01*
X61214746Y-90366500D01*
X61005254Y-90366500D01*
X60799788Y-90407370D01*
X60606244Y-90487538D01*
X60432058Y-90603925D01*
X60283925Y-90752058D01*
X60167538Y-90926244D01*
X60087370Y-91119788D01*
X60046500Y-91325254D01*
X59268500Y-91325254D01*
X59268500Y-88785254D01*
X60046500Y-88785254D01*
X60046500Y-88994746D01*
X60087370Y-89200212D01*
X60167538Y-89393756D01*
X60283925Y-89567942D01*
X60432058Y-89716075D01*
X60606244Y-89832462D01*
X60799788Y-89912630D01*
X61005254Y-89953500D01*
X61214746Y-89953500D01*
X61420212Y-89912630D01*
X61613756Y-89832462D01*
X61787942Y-89716075D01*
X61936075Y-89567942D01*
X62052462Y-89393756D01*
X62132630Y-89200212D01*
X62173500Y-88994746D01*
X62173500Y-88785254D01*
X62147951Y-88656811D01*
X62891500Y-88656811D01*
X62891500Y-88743189D01*
X62908351Y-88827906D01*
X62941406Y-88907708D01*
X62989395Y-88979528D01*
X63034867Y-89025000D01*
X62989395Y-89070472D01*
X62941406Y-89142292D01*
X62908351Y-89222094D01*
X62891500Y-89306811D01*
X62891500Y-89393189D01*
X62908351Y-89477906D01*
X62941406Y-89557708D01*
X62989395Y-89629528D01*
X63050472Y-89690605D01*
X63064532Y-89700000D01*
X63050472Y-89709395D01*
X62989395Y-89770472D01*
X62941406Y-89842292D01*
X62908351Y-89922094D01*
X62891500Y-90006811D01*
X62891500Y-90093189D01*
X62908351Y-90177906D01*
X62941406Y-90257708D01*
X62989395Y-90329528D01*
X63050472Y-90390605D01*
X63122292Y-90438594D01*
X63202094Y-90471649D01*
X63286811Y-90488500D01*
X63373189Y-90488500D01*
X63457906Y-90471649D01*
X63537708Y-90438594D01*
X63609528Y-90390605D01*
X63670605Y-90329528D01*
X63718594Y-90257708D01*
X63751649Y-90177906D01*
X63768500Y-90093189D01*
X63768500Y-90006811D01*
X63751649Y-89922094D01*
X63724608Y-89856811D01*
X66741500Y-89856811D01*
X66741500Y-89943189D01*
X66758351Y-90027906D01*
X66791406Y-90107708D01*
X66839395Y-90179528D01*
X66900472Y-90240605D01*
X66972292Y-90288594D01*
X67052094Y-90321649D01*
X67136811Y-90338500D01*
X67223189Y-90338500D01*
X67307906Y-90321649D01*
X67387708Y-90288594D01*
X67459528Y-90240605D01*
X67520605Y-90179528D01*
X67568594Y-90107708D01*
X67601649Y-90027906D01*
X67618500Y-89943189D01*
X67618500Y-89856811D01*
X67601649Y-89772094D01*
X67568594Y-89692292D01*
X67520605Y-89620472D01*
X67459528Y-89559395D01*
X67387708Y-89511406D01*
X67307906Y-89478351D01*
X67223189Y-89461500D01*
X67136811Y-89461500D01*
X67052094Y-89478351D01*
X66972292Y-89511406D01*
X66900472Y-89559395D01*
X66839395Y-89620472D01*
X66791406Y-89692292D01*
X66758351Y-89772094D01*
X66741500Y-89856811D01*
X63724608Y-89856811D01*
X63718594Y-89842292D01*
X63670605Y-89770472D01*
X63609528Y-89709395D01*
X63595468Y-89700000D01*
X63609528Y-89690605D01*
X63670605Y-89629528D01*
X63718594Y-89557708D01*
X63751649Y-89477906D01*
X63768500Y-89393189D01*
X63768500Y-89306811D01*
X63751649Y-89222094D01*
X63718594Y-89142292D01*
X63670605Y-89070472D01*
X63625133Y-89025000D01*
X63670605Y-88979528D01*
X63718594Y-88907708D01*
X63743571Y-88847408D01*
X63802094Y-88871649D01*
X63886811Y-88888500D01*
X63973189Y-88888500D01*
X64057906Y-88871649D01*
X64137708Y-88838594D01*
X64209528Y-88790605D01*
X64214879Y-88785254D01*
X75286500Y-88785254D01*
X75286500Y-88994746D01*
X75327370Y-89200212D01*
X75407538Y-89393756D01*
X75523925Y-89567942D01*
X75672058Y-89716075D01*
X75846244Y-89832462D01*
X76039788Y-89912630D01*
X76245254Y-89953500D01*
X76454746Y-89953500D01*
X76660212Y-89912630D01*
X76853756Y-89832462D01*
X77027942Y-89716075D01*
X77176075Y-89567942D01*
X77292462Y-89393756D01*
X77372630Y-89200212D01*
X77413500Y-88994746D01*
X77413500Y-88785254D01*
X77372630Y-88579788D01*
X77292462Y-88386244D01*
X77176075Y-88212058D01*
X77027942Y-88063925D01*
X76853756Y-87947538D01*
X76660212Y-87867370D01*
X76454746Y-87826500D01*
X76245254Y-87826500D01*
X76039788Y-87867370D01*
X75846244Y-87947538D01*
X75672058Y-88063925D01*
X75523925Y-88212058D01*
X75407538Y-88386244D01*
X75327370Y-88579788D01*
X75286500Y-88785254D01*
X64214879Y-88785254D01*
X64270605Y-88729528D01*
X64318594Y-88657708D01*
X64351649Y-88577906D01*
X64368500Y-88493189D01*
X64368500Y-88406811D01*
X64351649Y-88322094D01*
X64318594Y-88242292D01*
X64270605Y-88170472D01*
X64225133Y-88125000D01*
X64270605Y-88079528D01*
X64318594Y-88007708D01*
X64351649Y-87927906D01*
X64368500Y-87843189D01*
X64368500Y-87756811D01*
X64351649Y-87672094D01*
X64318594Y-87592292D01*
X64270605Y-87520472D01*
X64225133Y-87475000D01*
X64270605Y-87429528D01*
X64318594Y-87357708D01*
X64343571Y-87297408D01*
X64402094Y-87321649D01*
X64486811Y-87338500D01*
X64573189Y-87338500D01*
X64657906Y-87321649D01*
X64737708Y-87288594D01*
X64809528Y-87240605D01*
X64870605Y-87179528D01*
X64918594Y-87107708D01*
X64951649Y-87027906D01*
X64968500Y-86943189D01*
X64968500Y-86856811D01*
X64951649Y-86772094D01*
X64918594Y-86692292D01*
X64870605Y-86620472D01*
X64825133Y-86575000D01*
X64870605Y-86529528D01*
X64918594Y-86457708D01*
X64951649Y-86377906D01*
X64968500Y-86293189D01*
X64968500Y-86206811D01*
X64951649Y-86122094D01*
X64945319Y-86106811D01*
X73166500Y-86106811D01*
X73166500Y-86193189D01*
X73183351Y-86277906D01*
X73216406Y-86357708D01*
X73264395Y-86429528D01*
X73325472Y-86490605D01*
X73358240Y-86512500D01*
X73325472Y-86534395D01*
X73264395Y-86595472D01*
X73216406Y-86667292D01*
X73183351Y-86747094D01*
X73166500Y-86831811D01*
X73166500Y-86918189D01*
X73183351Y-87002906D01*
X73216406Y-87082708D01*
X73264395Y-87154528D01*
X73325472Y-87215605D01*
X73397292Y-87263594D01*
X73477094Y-87296649D01*
X73561811Y-87313500D01*
X73648189Y-87313500D01*
X73732906Y-87296649D01*
X73812708Y-87263594D01*
X73884528Y-87215605D01*
X73945605Y-87154528D01*
X73993594Y-87082708D01*
X74026649Y-87002906D01*
X74043500Y-86918189D01*
X74043500Y-86831811D01*
X74026649Y-86747094D01*
X73993594Y-86667292D01*
X73945605Y-86595472D01*
X73884528Y-86534395D01*
X73851760Y-86512500D01*
X73884528Y-86490605D01*
X73945605Y-86429528D01*
X73993594Y-86357708D01*
X74026649Y-86277906D01*
X74033143Y-86245254D01*
X75286500Y-86245254D01*
X75286500Y-86454746D01*
X75327370Y-86660212D01*
X75407538Y-86853756D01*
X75523925Y-87027942D01*
X75672058Y-87176075D01*
X75846244Y-87292462D01*
X76039788Y-87372630D01*
X76245254Y-87413500D01*
X76454746Y-87413500D01*
X76660212Y-87372630D01*
X76853756Y-87292462D01*
X77027942Y-87176075D01*
X77176075Y-87027942D01*
X77292462Y-86853756D01*
X77372630Y-86660212D01*
X77413500Y-86454746D01*
X77413500Y-86245254D01*
X77372630Y-86039788D01*
X77292462Y-85846244D01*
X77176075Y-85672058D01*
X77027942Y-85523925D01*
X76853756Y-85407538D01*
X76660212Y-85327370D01*
X76454746Y-85286500D01*
X76245254Y-85286500D01*
X76039788Y-85327370D01*
X75846244Y-85407538D01*
X75672058Y-85523925D01*
X75523925Y-85672058D01*
X75407538Y-85846244D01*
X75327370Y-86039788D01*
X75286500Y-86245254D01*
X74033143Y-86245254D01*
X74043500Y-86193189D01*
X74043500Y-86106811D01*
X74026649Y-86022094D01*
X73993594Y-85942292D01*
X73945605Y-85870472D01*
X73884528Y-85809395D01*
X73812708Y-85761406D01*
X73732906Y-85728351D01*
X73648189Y-85711500D01*
X73561811Y-85711500D01*
X73477094Y-85728351D01*
X73397292Y-85761406D01*
X73325472Y-85809395D01*
X73264395Y-85870472D01*
X73216406Y-85942292D01*
X73183351Y-86022094D01*
X73166500Y-86106811D01*
X64945319Y-86106811D01*
X64918594Y-86042292D01*
X64870605Y-85970472D01*
X64825133Y-85925000D01*
X64870605Y-85879528D01*
X64918594Y-85807708D01*
X64951649Y-85727906D01*
X64968500Y-85643189D01*
X64968500Y-85556811D01*
X64951649Y-85472094D01*
X64918594Y-85392292D01*
X64870605Y-85320472D01*
X64809528Y-85259395D01*
X64737708Y-85211406D01*
X64657906Y-85178351D01*
X64573189Y-85161500D01*
X64486811Y-85161500D01*
X64402094Y-85178351D01*
X64322292Y-85211406D01*
X64250472Y-85259395D01*
X64189395Y-85320472D01*
X64141406Y-85392292D01*
X64108351Y-85472094D01*
X64091500Y-85556811D01*
X64091500Y-85643189D01*
X64108351Y-85727906D01*
X64141406Y-85807708D01*
X64189395Y-85879528D01*
X64234867Y-85925000D01*
X64189395Y-85970472D01*
X64141406Y-86042292D01*
X64108351Y-86122094D01*
X64091500Y-86206811D01*
X64091500Y-86293189D01*
X64108351Y-86377906D01*
X64141406Y-86457708D01*
X64189395Y-86529528D01*
X64234867Y-86575000D01*
X64189395Y-86620472D01*
X64141406Y-86692292D01*
X64116429Y-86752592D01*
X64057906Y-86728351D01*
X63973189Y-86711500D01*
X63886811Y-86711500D01*
X63802094Y-86728351D01*
X63722292Y-86761406D01*
X63650472Y-86809395D01*
X63589395Y-86870472D01*
X63541406Y-86942292D01*
X63508351Y-87022094D01*
X63491500Y-87106811D01*
X63491500Y-87193189D01*
X63508351Y-87277906D01*
X63541406Y-87357708D01*
X63589395Y-87429528D01*
X63634867Y-87475000D01*
X63589395Y-87520472D01*
X63541406Y-87592292D01*
X63508351Y-87672094D01*
X63491500Y-87756811D01*
X63491500Y-87843189D01*
X63508351Y-87927906D01*
X63541406Y-88007708D01*
X63589395Y-88079528D01*
X63634867Y-88125000D01*
X63589395Y-88170472D01*
X63541406Y-88242292D01*
X63516429Y-88302592D01*
X63457906Y-88278351D01*
X63373189Y-88261500D01*
X63286811Y-88261500D01*
X63202094Y-88278351D01*
X63122292Y-88311406D01*
X63050472Y-88359395D01*
X62989395Y-88420472D01*
X62941406Y-88492292D01*
X62908351Y-88572094D01*
X62891500Y-88656811D01*
X62147951Y-88656811D01*
X62132630Y-88579788D01*
X62052462Y-88386244D01*
X61936075Y-88212058D01*
X61787942Y-88063925D01*
X61613756Y-87947538D01*
X61420212Y-87867370D01*
X61214746Y-87826500D01*
X61005254Y-87826500D01*
X60799788Y-87867370D01*
X60606244Y-87947538D01*
X60432058Y-88063925D01*
X60283925Y-88212058D01*
X60167538Y-88386244D01*
X60087370Y-88579788D01*
X60046500Y-88785254D01*
X59268500Y-88785254D01*
X59268500Y-86245254D01*
X60046500Y-86245254D01*
X60046500Y-86454746D01*
X60087370Y-86660212D01*
X60167538Y-86853756D01*
X60283925Y-87027942D01*
X60432058Y-87176075D01*
X60606244Y-87292462D01*
X60799788Y-87372630D01*
X61005254Y-87413500D01*
X61214746Y-87413500D01*
X61420212Y-87372630D01*
X61613756Y-87292462D01*
X61787942Y-87176075D01*
X61936075Y-87027942D01*
X62052462Y-86853756D01*
X62132630Y-86660212D01*
X62173500Y-86454746D01*
X62173500Y-86245254D01*
X62132630Y-86039788D01*
X62052462Y-85846244D01*
X61936075Y-85672058D01*
X61787942Y-85523925D01*
X61613756Y-85407538D01*
X61420212Y-85327370D01*
X61214746Y-85286500D01*
X61005254Y-85286500D01*
X60799788Y-85327370D01*
X60606244Y-85407538D01*
X60432058Y-85523925D01*
X60283925Y-85672058D01*
X60167538Y-85846244D01*
X60087370Y-86039788D01*
X60046500Y-86245254D01*
X59268500Y-86245254D01*
X59268500Y-83705254D01*
X60046500Y-83705254D01*
X60046500Y-83914746D01*
X60087370Y-84120212D01*
X60167538Y-84313756D01*
X60283925Y-84487942D01*
X60432058Y-84636075D01*
X60606244Y-84752462D01*
X60799788Y-84832630D01*
X61005254Y-84873500D01*
X61214746Y-84873500D01*
X61420212Y-84832630D01*
X61613756Y-84752462D01*
X61787942Y-84636075D01*
X61936075Y-84487942D01*
X62052462Y-84313756D01*
X62132630Y-84120212D01*
X62173500Y-83914746D01*
X62173500Y-83705254D01*
X62132630Y-83499788D01*
X62052462Y-83306244D01*
X62019433Y-83256811D01*
X64691500Y-83256811D01*
X64691500Y-83343189D01*
X64708351Y-83427906D01*
X64741406Y-83507708D01*
X64789395Y-83579528D01*
X64850472Y-83640605D01*
X64922292Y-83688594D01*
X65002094Y-83721649D01*
X65086811Y-83738500D01*
X65173189Y-83738500D01*
X65257906Y-83721649D01*
X65337708Y-83688594D01*
X65409528Y-83640605D01*
X65470605Y-83579528D01*
X65518594Y-83507708D01*
X65551649Y-83427906D01*
X65560819Y-83381801D01*
X65941500Y-83381801D01*
X65941500Y-83468179D01*
X65958351Y-83552896D01*
X65991406Y-83632698D01*
X66039395Y-83704518D01*
X66100472Y-83765595D01*
X66172292Y-83813584D01*
X66252094Y-83846639D01*
X66336811Y-83863490D01*
X66423189Y-83863490D01*
X66507906Y-83846639D01*
X66587708Y-83813584D01*
X66659528Y-83765595D01*
X66719869Y-83705254D01*
X75286500Y-83705254D01*
X75286500Y-83914746D01*
X75327370Y-84120212D01*
X75407538Y-84313756D01*
X75523925Y-84487942D01*
X75672058Y-84636075D01*
X75846244Y-84752462D01*
X76039788Y-84832630D01*
X76245254Y-84873500D01*
X76454746Y-84873500D01*
X76660212Y-84832630D01*
X76853756Y-84752462D01*
X77027942Y-84636075D01*
X77176075Y-84487942D01*
X77292462Y-84313756D01*
X77372630Y-84120212D01*
X77413500Y-83914746D01*
X77413500Y-83705254D01*
X77372630Y-83499788D01*
X77292462Y-83306244D01*
X77176075Y-83132058D01*
X77027942Y-82983925D01*
X76853756Y-82867538D01*
X76660212Y-82787370D01*
X76454746Y-82746500D01*
X76245254Y-82746500D01*
X76039788Y-82787370D01*
X75846244Y-82867538D01*
X75672058Y-82983925D01*
X75523925Y-83132058D01*
X75407538Y-83306244D01*
X75327370Y-83499788D01*
X75286500Y-83705254D01*
X66719869Y-83705254D01*
X66720605Y-83704518D01*
X66768594Y-83632698D01*
X66801649Y-83552896D01*
X66818500Y-83468179D01*
X66818500Y-83381801D01*
X66801649Y-83297084D01*
X66768594Y-83217282D01*
X66720605Y-83145462D01*
X66659528Y-83084385D01*
X66587708Y-83036396D01*
X66516284Y-83006811D01*
X70941500Y-83006811D01*
X70941500Y-83093189D01*
X70958351Y-83177906D01*
X70991406Y-83257708D01*
X71039395Y-83329528D01*
X71100472Y-83390605D01*
X71172292Y-83438594D01*
X71252094Y-83471649D01*
X71336811Y-83488500D01*
X71423189Y-83488500D01*
X71507906Y-83471649D01*
X71587708Y-83438594D01*
X71659528Y-83390605D01*
X71720605Y-83329528D01*
X71768594Y-83257708D01*
X71801649Y-83177906D01*
X71818500Y-83093189D01*
X71818500Y-83006811D01*
X71801649Y-82922094D01*
X71768594Y-82842292D01*
X71720605Y-82770472D01*
X71659528Y-82709395D01*
X71587708Y-82661406D01*
X71507906Y-82628351D01*
X71423189Y-82611500D01*
X71336811Y-82611500D01*
X71252094Y-82628351D01*
X71172292Y-82661406D01*
X71100472Y-82709395D01*
X71039395Y-82770472D01*
X70991406Y-82842292D01*
X70958351Y-82922094D01*
X70941500Y-83006811D01*
X66516284Y-83006811D01*
X66507906Y-83003341D01*
X66423189Y-82986490D01*
X66336811Y-82986490D01*
X66252094Y-83003341D01*
X66172292Y-83036396D01*
X66100472Y-83084385D01*
X66039395Y-83145462D01*
X65991406Y-83217282D01*
X65958351Y-83297084D01*
X65941500Y-83381801D01*
X65560819Y-83381801D01*
X65568500Y-83343189D01*
X65568500Y-83256811D01*
X65551649Y-83172094D01*
X65518594Y-83092292D01*
X65470605Y-83020472D01*
X65409528Y-82959395D01*
X65337708Y-82911406D01*
X65257906Y-82878351D01*
X65173189Y-82861500D01*
X65086811Y-82861500D01*
X65002094Y-82878351D01*
X64922292Y-82911406D01*
X64850472Y-82959395D01*
X64789395Y-83020472D01*
X64741406Y-83092292D01*
X64708351Y-83172094D01*
X64691500Y-83256811D01*
X62019433Y-83256811D01*
X61936075Y-83132058D01*
X61787942Y-82983925D01*
X61613756Y-82867538D01*
X61420212Y-82787370D01*
X61214746Y-82746500D01*
X61005254Y-82746500D01*
X60799788Y-82787370D01*
X60606244Y-82867538D01*
X60432058Y-82983925D01*
X60283925Y-83132058D01*
X60167538Y-83306244D01*
X60087370Y-83499788D01*
X60046500Y-83705254D01*
X59268500Y-83705254D01*
X59268500Y-82406811D01*
X72091500Y-82406811D01*
X72091500Y-82493189D01*
X72108351Y-82577906D01*
X72141406Y-82657708D01*
X72189395Y-82729528D01*
X72250472Y-82790605D01*
X72322292Y-82838594D01*
X72402094Y-82871649D01*
X72486811Y-82888500D01*
X72573189Y-82888500D01*
X72657906Y-82871649D01*
X72737708Y-82838594D01*
X72809528Y-82790605D01*
X72870605Y-82729528D01*
X72918594Y-82657708D01*
X72951649Y-82577906D01*
X72968500Y-82493189D01*
X72968500Y-82406811D01*
X72951649Y-82322094D01*
X72918594Y-82242292D01*
X72870605Y-82170472D01*
X72809528Y-82109395D01*
X72737708Y-82061406D01*
X72657906Y-82028351D01*
X72573189Y-82011500D01*
X72486811Y-82011500D01*
X72402094Y-82028351D01*
X72322292Y-82061406D01*
X72250472Y-82109395D01*
X72189395Y-82170472D01*
X72141406Y-82242292D01*
X72108351Y-82322094D01*
X72091500Y-82406811D01*
X59268500Y-82406811D01*
X59268500Y-81165254D01*
X60046500Y-81165254D01*
X60046500Y-81374746D01*
X60087370Y-81580212D01*
X60167538Y-81773756D01*
X60283925Y-81947942D01*
X60432058Y-82096075D01*
X60606244Y-82212462D01*
X60799788Y-82292630D01*
X61005254Y-82333500D01*
X61214746Y-82333500D01*
X61420212Y-82292630D01*
X61613756Y-82212462D01*
X61787942Y-82096075D01*
X61936075Y-81947942D01*
X62052462Y-81773756D01*
X62059480Y-81756811D01*
X64591500Y-81756811D01*
X64591500Y-81843189D01*
X64608351Y-81927906D01*
X64641406Y-82007708D01*
X64689395Y-82079528D01*
X64750472Y-82140605D01*
X64822292Y-82188594D01*
X64902094Y-82221649D01*
X64986811Y-82238500D01*
X65073189Y-82238500D01*
X65157906Y-82221649D01*
X65237708Y-82188594D01*
X65309528Y-82140605D01*
X65370605Y-82079528D01*
X65418594Y-82007708D01*
X65451649Y-81927906D01*
X65468500Y-81843189D01*
X65468500Y-81756811D01*
X65451649Y-81672094D01*
X65418594Y-81592292D01*
X65370605Y-81520472D01*
X65309528Y-81459395D01*
X65237708Y-81411406D01*
X65157906Y-81378351D01*
X65073189Y-81361500D01*
X64986811Y-81361500D01*
X64902094Y-81378351D01*
X64822292Y-81411406D01*
X64750472Y-81459395D01*
X64689395Y-81520472D01*
X64641406Y-81592292D01*
X64608351Y-81672094D01*
X64591500Y-81756811D01*
X62059480Y-81756811D01*
X62132630Y-81580212D01*
X62173500Y-81374746D01*
X62173500Y-81331821D01*
X65841500Y-81331821D01*
X65841500Y-81418199D01*
X65858351Y-81502916D01*
X65891406Y-81582718D01*
X65939395Y-81654538D01*
X65960764Y-81675907D01*
X65916406Y-81742292D01*
X65883351Y-81822094D01*
X65866500Y-81906811D01*
X65866500Y-81993189D01*
X65883351Y-82077906D01*
X65916406Y-82157708D01*
X65964395Y-82229528D01*
X66025472Y-82290605D01*
X66097292Y-82338594D01*
X66177094Y-82371649D01*
X66261811Y-82388500D01*
X66348189Y-82388500D01*
X66432906Y-82371649D01*
X66512708Y-82338594D01*
X66584528Y-82290605D01*
X66645605Y-82229528D01*
X66693594Y-82157708D01*
X66726649Y-82077906D01*
X66743500Y-81993189D01*
X66743500Y-81906811D01*
X66726649Y-81822094D01*
X66693594Y-81742292D01*
X66645605Y-81670472D01*
X66624236Y-81649103D01*
X66668594Y-81582718D01*
X66701649Y-81502916D01*
X66718500Y-81418199D01*
X66718500Y-81331821D01*
X66701649Y-81247104D01*
X66668594Y-81167302D01*
X66667226Y-81165254D01*
X75286500Y-81165254D01*
X75286500Y-81374746D01*
X75327370Y-81580212D01*
X75407538Y-81773756D01*
X75523925Y-81947942D01*
X75672058Y-82096075D01*
X75846244Y-82212462D01*
X76039788Y-82292630D01*
X76245254Y-82333500D01*
X76454746Y-82333500D01*
X76660212Y-82292630D01*
X76853756Y-82212462D01*
X77027942Y-82096075D01*
X77176075Y-81947942D01*
X77292462Y-81773756D01*
X77372630Y-81580212D01*
X77413500Y-81374746D01*
X77413500Y-81165254D01*
X77372630Y-80959788D01*
X77292462Y-80766244D01*
X77176075Y-80592058D01*
X77027942Y-80443925D01*
X76853756Y-80327538D01*
X76660212Y-80247370D01*
X76454746Y-80206500D01*
X76245254Y-80206500D01*
X76039788Y-80247370D01*
X75846244Y-80327538D01*
X75672058Y-80443925D01*
X75523925Y-80592058D01*
X75407538Y-80766244D01*
X75327370Y-80959788D01*
X75286500Y-81165254D01*
X66667226Y-81165254D01*
X66620605Y-81095482D01*
X66559528Y-81034405D01*
X66487708Y-80986416D01*
X66407906Y-80953361D01*
X66323189Y-80936510D01*
X66236811Y-80936510D01*
X66152094Y-80953361D01*
X66072292Y-80986416D01*
X66000472Y-81034405D01*
X65939395Y-81095482D01*
X65891406Y-81167302D01*
X65858351Y-81247104D01*
X65841500Y-81331821D01*
X62173500Y-81331821D01*
X62173500Y-81165254D01*
X62132630Y-80959788D01*
X62052462Y-80766244D01*
X61936075Y-80592058D01*
X61787942Y-80443925D01*
X61613756Y-80327538D01*
X61420212Y-80247370D01*
X61214746Y-80206500D01*
X61005254Y-80206500D01*
X60799788Y-80247370D01*
X60606244Y-80327538D01*
X60432058Y-80443925D01*
X60283925Y-80592058D01*
X60167538Y-80766244D01*
X60087370Y-80959788D01*
X60046500Y-81165254D01*
X59268500Y-81165254D01*
X59268500Y-78625254D01*
X60046500Y-78625254D01*
X60046500Y-78834746D01*
X60087370Y-79040212D01*
X60167538Y-79233756D01*
X60283925Y-79407942D01*
X60432058Y-79556075D01*
X60606244Y-79672462D01*
X60799788Y-79752630D01*
X61005254Y-79793500D01*
X61214746Y-79793500D01*
X61420212Y-79752630D01*
X61613756Y-79672462D01*
X61787942Y-79556075D01*
X61936075Y-79407942D01*
X61986943Y-79331811D01*
X70816500Y-79331811D01*
X70816500Y-79418189D01*
X70833351Y-79502906D01*
X70866406Y-79582708D01*
X70914395Y-79654528D01*
X70975472Y-79715605D01*
X71047292Y-79763594D01*
X71127094Y-79796649D01*
X71211811Y-79813500D01*
X71298189Y-79813500D01*
X71382906Y-79796649D01*
X71462708Y-79763594D01*
X71534528Y-79715605D01*
X71595605Y-79654528D01*
X71643594Y-79582708D01*
X71676649Y-79502906D01*
X71693500Y-79418189D01*
X71693500Y-79331811D01*
X71676649Y-79247094D01*
X71643594Y-79167292D01*
X71595605Y-79095472D01*
X71534528Y-79034395D01*
X71462708Y-78986406D01*
X71382906Y-78953351D01*
X71298189Y-78936500D01*
X71211811Y-78936500D01*
X71127094Y-78953351D01*
X71047292Y-78986406D01*
X70975472Y-79034395D01*
X70914395Y-79095472D01*
X70866406Y-79167292D01*
X70833351Y-79247094D01*
X70816500Y-79331811D01*
X61986943Y-79331811D01*
X62052462Y-79233756D01*
X62132630Y-79040212D01*
X62173500Y-78834746D01*
X62173500Y-78681811D01*
X71491500Y-78681811D01*
X71491500Y-78768189D01*
X71508351Y-78852906D01*
X71541406Y-78932708D01*
X71589395Y-79004528D01*
X71650472Y-79065605D01*
X71722292Y-79113594D01*
X71802094Y-79146649D01*
X71886811Y-79163500D01*
X71973189Y-79163500D01*
X72057906Y-79146649D01*
X72137708Y-79113594D01*
X72209528Y-79065605D01*
X72270605Y-79004528D01*
X72318594Y-78932708D01*
X72351649Y-78852906D01*
X72368500Y-78768189D01*
X72368500Y-78681811D01*
X72357251Y-78625254D01*
X75286500Y-78625254D01*
X75286500Y-78834746D01*
X75327370Y-79040212D01*
X75407538Y-79233756D01*
X75523925Y-79407942D01*
X75672058Y-79556075D01*
X75846244Y-79672462D01*
X76039788Y-79752630D01*
X76245254Y-79793500D01*
X76454746Y-79793500D01*
X76660212Y-79752630D01*
X76853756Y-79672462D01*
X77027942Y-79556075D01*
X77176075Y-79407942D01*
X77292462Y-79233756D01*
X77372630Y-79040212D01*
X77413500Y-78834746D01*
X77413500Y-78625254D01*
X77372630Y-78419788D01*
X77292462Y-78226244D01*
X77176075Y-78052058D01*
X77027942Y-77903925D01*
X76853756Y-77787538D01*
X76660212Y-77707370D01*
X76454746Y-77666500D01*
X76245254Y-77666500D01*
X76039788Y-77707370D01*
X75846244Y-77787538D01*
X75672058Y-77903925D01*
X75523925Y-78052058D01*
X75407538Y-78226244D01*
X75327370Y-78419788D01*
X75286500Y-78625254D01*
X72357251Y-78625254D01*
X72351649Y-78597094D01*
X72318594Y-78517292D01*
X72270605Y-78445472D01*
X72209528Y-78384395D01*
X72137708Y-78336406D01*
X72057906Y-78303351D01*
X71973189Y-78286500D01*
X71886811Y-78286500D01*
X71802094Y-78303351D01*
X71722292Y-78336406D01*
X71650472Y-78384395D01*
X71589395Y-78445472D01*
X71541406Y-78517292D01*
X71508351Y-78597094D01*
X71491500Y-78681811D01*
X62173500Y-78681811D01*
X62173500Y-78625254D01*
X62132630Y-78419788D01*
X62052462Y-78226244D01*
X61936075Y-78052058D01*
X61787942Y-77903925D01*
X61717431Y-77856811D01*
X66091500Y-77856811D01*
X66091500Y-77943189D01*
X66108351Y-78027906D01*
X66141406Y-78107708D01*
X66189395Y-78179528D01*
X66250472Y-78240605D01*
X66322292Y-78288594D01*
X66402094Y-78321649D01*
X66486811Y-78338500D01*
X66573189Y-78338500D01*
X66657906Y-78321649D01*
X66737708Y-78288594D01*
X66809528Y-78240605D01*
X66870605Y-78179528D01*
X66918594Y-78107708D01*
X66951649Y-78027906D01*
X66968500Y-77943189D01*
X66968500Y-77856811D01*
X66951649Y-77772094D01*
X66918594Y-77692292D01*
X66870605Y-77620472D01*
X66809528Y-77559395D01*
X66737708Y-77511406D01*
X66657906Y-77478351D01*
X66573189Y-77461500D01*
X66486811Y-77461500D01*
X66402094Y-77478351D01*
X66322292Y-77511406D01*
X66250472Y-77559395D01*
X66189395Y-77620472D01*
X66141406Y-77692292D01*
X66108351Y-77772094D01*
X66091500Y-77856811D01*
X61717431Y-77856811D01*
X61613756Y-77787538D01*
X61420212Y-77707370D01*
X61214746Y-77666500D01*
X61005254Y-77666500D01*
X60799788Y-77707370D01*
X60606244Y-77787538D01*
X60432058Y-77903925D01*
X60283925Y-78052058D01*
X60167538Y-78226244D01*
X60087370Y-78419788D01*
X60046500Y-78625254D01*
X59268500Y-78625254D01*
X59268500Y-76085254D01*
X60046500Y-76085254D01*
X60046500Y-76294746D01*
X60087370Y-76500212D01*
X60167538Y-76693756D01*
X60283925Y-76867942D01*
X60432058Y-77016075D01*
X60606244Y-77132462D01*
X60799788Y-77212630D01*
X61005254Y-77253500D01*
X61214746Y-77253500D01*
X61420212Y-77212630D01*
X61613756Y-77132462D01*
X61787942Y-77016075D01*
X61897206Y-76906811D01*
X64791500Y-76906811D01*
X64791500Y-76993189D01*
X64808351Y-77077906D01*
X64841406Y-77157708D01*
X64889395Y-77229528D01*
X64950472Y-77290605D01*
X65022292Y-77338594D01*
X65102094Y-77371649D01*
X65186811Y-77388500D01*
X65273189Y-77388500D01*
X65357906Y-77371649D01*
X65437708Y-77338594D01*
X65509528Y-77290605D01*
X65570605Y-77229528D01*
X65618594Y-77157708D01*
X65651649Y-77077906D01*
X65668500Y-76993189D01*
X65668500Y-76906811D01*
X65651649Y-76822094D01*
X65618594Y-76742292D01*
X65611591Y-76731811D01*
X69541500Y-76731811D01*
X69541500Y-76818189D01*
X69558351Y-76902906D01*
X69591406Y-76982708D01*
X69639395Y-77054528D01*
X69700472Y-77115605D01*
X69772292Y-77163594D01*
X69852094Y-77196649D01*
X69936811Y-77213500D01*
X70023189Y-77213500D01*
X70107906Y-77196649D01*
X70187708Y-77163594D01*
X70259528Y-77115605D01*
X70320605Y-77054528D01*
X70368594Y-76982708D01*
X70389676Y-76931811D01*
X72891498Y-76931811D01*
X72891498Y-77018189D01*
X72908349Y-77102906D01*
X72941404Y-77182708D01*
X72989393Y-77254528D01*
X73050470Y-77315605D01*
X73122290Y-77363594D01*
X73202092Y-77396649D01*
X73286809Y-77413500D01*
X73373187Y-77413500D01*
X73457904Y-77396649D01*
X73537706Y-77363594D01*
X73609526Y-77315605D01*
X73670603Y-77254528D01*
X73718592Y-77182708D01*
X73751647Y-77102906D01*
X73768498Y-77018189D01*
X73768498Y-76931811D01*
X73751647Y-76847094D01*
X73718592Y-76767292D01*
X73670603Y-76695472D01*
X73609526Y-76634395D01*
X73537706Y-76586406D01*
X73457904Y-76553351D01*
X73373187Y-76536500D01*
X73286809Y-76536500D01*
X73202092Y-76553351D01*
X73122290Y-76586406D01*
X73050470Y-76634395D01*
X72989393Y-76695472D01*
X72941404Y-76767292D01*
X72908349Y-76847094D01*
X72891498Y-76931811D01*
X70389676Y-76931811D01*
X70401649Y-76902906D01*
X70418500Y-76818189D01*
X70418500Y-76731811D01*
X70401649Y-76647094D01*
X70368594Y-76567292D01*
X70320605Y-76495472D01*
X70259528Y-76434395D01*
X70187708Y-76386406D01*
X70107906Y-76353351D01*
X70023189Y-76336500D01*
X69936811Y-76336500D01*
X69852094Y-76353351D01*
X69772292Y-76386406D01*
X69700472Y-76434395D01*
X69639395Y-76495472D01*
X69591406Y-76567292D01*
X69558351Y-76647094D01*
X69541500Y-76731811D01*
X65611591Y-76731811D01*
X65570605Y-76670472D01*
X65509528Y-76609395D01*
X65437708Y-76561406D01*
X65357906Y-76528351D01*
X65273189Y-76511500D01*
X65186811Y-76511500D01*
X65102094Y-76528351D01*
X65022292Y-76561406D01*
X64950472Y-76609395D01*
X64889395Y-76670472D01*
X64841406Y-76742292D01*
X64808351Y-76822094D01*
X64791500Y-76906811D01*
X61897206Y-76906811D01*
X61936075Y-76867942D01*
X62052462Y-76693756D01*
X62132630Y-76500212D01*
X62173500Y-76294746D01*
X62173500Y-76085254D01*
X62132630Y-75879788D01*
X62052462Y-75686244D01*
X61999387Y-75606811D01*
X65191500Y-75606811D01*
X65191500Y-75693189D01*
X65208351Y-75777906D01*
X65241406Y-75857708D01*
X65289395Y-75929528D01*
X65350472Y-75990605D01*
X65422292Y-76038594D01*
X65502094Y-76071649D01*
X65586811Y-76088500D01*
X65673189Y-76088500D01*
X65757906Y-76071649D01*
X65837708Y-76038594D01*
X65909528Y-75990605D01*
X65970605Y-75929528D01*
X66018594Y-75857708D01*
X66039676Y-75806811D01*
X66841500Y-75806811D01*
X66841500Y-75893189D01*
X66858351Y-75977906D01*
X66891406Y-76057708D01*
X66939395Y-76129528D01*
X67000472Y-76190605D01*
X67072292Y-76238594D01*
X67152094Y-76271649D01*
X67236811Y-76288500D01*
X67323189Y-76288500D01*
X67407906Y-76271649D01*
X67487708Y-76238594D01*
X67559528Y-76190605D01*
X67620605Y-76129528D01*
X67668594Y-76057708D01*
X67701649Y-75977906D01*
X67703496Y-75968619D01*
X67725482Y-75990605D01*
X67797302Y-76038594D01*
X67877104Y-76071649D01*
X67961821Y-76088500D01*
X68048199Y-76088500D01*
X68132916Y-76071649D01*
X68212718Y-76038594D01*
X68284538Y-75990605D01*
X68343332Y-75931811D01*
X73016500Y-75931811D01*
X73016500Y-76018189D01*
X73033351Y-76102906D01*
X73066406Y-76182708D01*
X73114395Y-76254528D01*
X73175472Y-76315605D01*
X73247292Y-76363594D01*
X73327094Y-76396649D01*
X73411811Y-76413500D01*
X73498189Y-76413500D01*
X73582906Y-76396649D01*
X73662708Y-76363594D01*
X73734528Y-76315605D01*
X73795605Y-76254528D01*
X73843594Y-76182708D01*
X73876649Y-76102906D01*
X73880160Y-76085254D01*
X75286500Y-76085254D01*
X75286500Y-76294746D01*
X75327370Y-76500212D01*
X75407538Y-76693756D01*
X75523925Y-76867942D01*
X75672058Y-77016075D01*
X75846244Y-77132462D01*
X76039788Y-77212630D01*
X76245254Y-77253500D01*
X76454746Y-77253500D01*
X76660212Y-77212630D01*
X76853756Y-77132462D01*
X77027942Y-77016075D01*
X77176075Y-76867942D01*
X77292462Y-76693756D01*
X77372630Y-76500212D01*
X77413500Y-76294746D01*
X77413500Y-76085254D01*
X77372630Y-75879788D01*
X77292462Y-75686244D01*
X77176075Y-75512058D01*
X77027942Y-75363925D01*
X76853756Y-75247538D01*
X76660212Y-75167370D01*
X76454746Y-75126500D01*
X76245254Y-75126500D01*
X76039788Y-75167370D01*
X75846244Y-75247538D01*
X75672058Y-75363925D01*
X75523925Y-75512058D01*
X75407538Y-75686244D01*
X75327370Y-75879788D01*
X75286500Y-76085254D01*
X73880160Y-76085254D01*
X73893500Y-76018189D01*
X73893500Y-75931811D01*
X73876649Y-75847094D01*
X73843594Y-75767292D01*
X73795605Y-75695472D01*
X73734528Y-75634395D01*
X73662708Y-75586406D01*
X73582906Y-75553351D01*
X73498189Y-75536500D01*
X73411811Y-75536500D01*
X73327094Y-75553351D01*
X73247292Y-75586406D01*
X73175472Y-75634395D01*
X73114395Y-75695472D01*
X73066406Y-75767292D01*
X73033351Y-75847094D01*
X73016500Y-75931811D01*
X68343332Y-75931811D01*
X68345615Y-75929528D01*
X68393604Y-75857708D01*
X68426659Y-75777906D01*
X68443510Y-75693189D01*
X68443510Y-75683643D01*
X68500472Y-75740605D01*
X68572292Y-75788594D01*
X68652094Y-75821649D01*
X68736811Y-75838500D01*
X68823189Y-75838500D01*
X68907906Y-75821649D01*
X68987708Y-75788594D01*
X69059528Y-75740605D01*
X69120605Y-75679528D01*
X69168594Y-75607708D01*
X69201649Y-75527906D01*
X69218500Y-75443189D01*
X69218500Y-75406811D01*
X70316500Y-75406811D01*
X70316500Y-75493189D01*
X70333351Y-75577906D01*
X70366406Y-75657708D01*
X70414395Y-75729528D01*
X70475472Y-75790605D01*
X70547292Y-75838594D01*
X70627094Y-75871649D01*
X70711811Y-75888500D01*
X70798189Y-75888500D01*
X70882906Y-75871649D01*
X70962708Y-75838594D01*
X71034528Y-75790605D01*
X71095605Y-75729528D01*
X71143594Y-75657708D01*
X71176649Y-75577906D01*
X71193500Y-75493189D01*
X71193500Y-75406811D01*
X71176649Y-75322094D01*
X71143594Y-75242292D01*
X71095605Y-75170472D01*
X71034528Y-75109395D01*
X70962708Y-75061406D01*
X70882906Y-75028351D01*
X70798189Y-75011500D01*
X70711811Y-75011500D01*
X70627094Y-75028351D01*
X70547292Y-75061406D01*
X70475472Y-75109395D01*
X70414395Y-75170472D01*
X70366406Y-75242292D01*
X70333351Y-75322094D01*
X70316500Y-75406811D01*
X69218500Y-75406811D01*
X69218500Y-75356811D01*
X69201649Y-75272094D01*
X69168594Y-75192292D01*
X69120605Y-75120472D01*
X69059528Y-75059395D01*
X68987708Y-75011406D01*
X68907906Y-74978351D01*
X68823189Y-74961500D01*
X68736811Y-74961500D01*
X68652094Y-74978351D01*
X68572292Y-75011406D01*
X68500472Y-75059395D01*
X68439395Y-75120472D01*
X68391406Y-75192292D01*
X68358351Y-75272094D01*
X68341500Y-75356811D01*
X68341500Y-75366357D01*
X68284538Y-75309395D01*
X68212718Y-75261406D01*
X68132916Y-75228351D01*
X68048199Y-75211500D01*
X67961821Y-75211500D01*
X67877104Y-75228351D01*
X67797302Y-75261406D01*
X67725482Y-75309395D01*
X67664405Y-75370472D01*
X67616416Y-75442292D01*
X67583361Y-75522094D01*
X67581514Y-75531381D01*
X67559528Y-75509395D01*
X67487708Y-75461406D01*
X67407906Y-75428351D01*
X67323189Y-75411500D01*
X67236811Y-75411500D01*
X67152094Y-75428351D01*
X67072292Y-75461406D01*
X67000472Y-75509395D01*
X66939395Y-75570472D01*
X66891406Y-75642292D01*
X66858351Y-75722094D01*
X66841500Y-75806811D01*
X66039676Y-75806811D01*
X66051649Y-75777906D01*
X66068500Y-75693189D01*
X66068500Y-75606811D01*
X66051649Y-75522094D01*
X66018594Y-75442292D01*
X65970605Y-75370472D01*
X65909528Y-75309395D01*
X65837708Y-75261406D01*
X65757906Y-75228351D01*
X65673189Y-75211500D01*
X65586811Y-75211500D01*
X65502094Y-75228351D01*
X65422292Y-75261406D01*
X65350472Y-75309395D01*
X65289395Y-75370472D01*
X65241406Y-75442292D01*
X65208351Y-75522094D01*
X65191500Y-75606811D01*
X61999387Y-75606811D01*
X61936075Y-75512058D01*
X61787942Y-75363925D01*
X61613756Y-75247538D01*
X61420212Y-75167370D01*
X61214746Y-75126500D01*
X61005254Y-75126500D01*
X60799788Y-75167370D01*
X60606244Y-75247538D01*
X60432058Y-75363925D01*
X60283925Y-75512058D01*
X60167538Y-75686244D01*
X60087370Y-75879788D01*
X60046500Y-76085254D01*
X59268500Y-76085254D01*
X59268500Y-73545254D01*
X60046500Y-73545254D01*
X60046500Y-73754746D01*
X60087370Y-73960212D01*
X60167538Y-74153756D01*
X60283925Y-74327942D01*
X60432058Y-74476075D01*
X60606244Y-74592462D01*
X60799788Y-74672630D01*
X61005254Y-74713500D01*
X61214746Y-74713500D01*
X61420212Y-74672630D01*
X61613756Y-74592462D01*
X61741942Y-74506811D01*
X70691500Y-74506811D01*
X70691500Y-74593189D01*
X70708351Y-74677906D01*
X70741406Y-74757708D01*
X70789395Y-74829528D01*
X70850472Y-74890605D01*
X70922292Y-74938594D01*
X71002094Y-74971649D01*
X71086811Y-74988500D01*
X71173189Y-74988500D01*
X71257906Y-74971649D01*
X71337708Y-74938594D01*
X71409528Y-74890605D01*
X71470605Y-74829528D01*
X71518594Y-74757708D01*
X71551649Y-74677906D01*
X71568500Y-74593189D01*
X71568500Y-74506811D01*
X71551649Y-74422094D01*
X71518594Y-74342292D01*
X71470605Y-74270472D01*
X71409528Y-74209395D01*
X71337708Y-74161406D01*
X71257906Y-74128351D01*
X71173189Y-74111500D01*
X71086811Y-74111500D01*
X71002094Y-74128351D01*
X70922292Y-74161406D01*
X70850472Y-74209395D01*
X70789395Y-74270472D01*
X70741406Y-74342292D01*
X70708351Y-74422094D01*
X70691500Y-74506811D01*
X61741942Y-74506811D01*
X61787942Y-74476075D01*
X61936075Y-74327942D01*
X62052462Y-74153756D01*
X62132630Y-73960212D01*
X62173500Y-73754746D01*
X62173500Y-73606811D01*
X70691500Y-73606811D01*
X70691500Y-73693189D01*
X70708351Y-73777906D01*
X70741406Y-73857708D01*
X70789395Y-73929528D01*
X70850472Y-73990605D01*
X70922292Y-74038594D01*
X71002094Y-74071649D01*
X71086811Y-74088500D01*
X71173189Y-74088500D01*
X71257906Y-74071649D01*
X71337708Y-74038594D01*
X71409528Y-73990605D01*
X71470605Y-73929528D01*
X71518594Y-73857708D01*
X71551649Y-73777906D01*
X71568500Y-73693189D01*
X71568500Y-73606811D01*
X71556256Y-73545254D01*
X75286500Y-73545254D01*
X75286500Y-73754746D01*
X75327370Y-73960212D01*
X75407538Y-74153756D01*
X75523925Y-74327942D01*
X75672058Y-74476075D01*
X75846244Y-74592462D01*
X76039788Y-74672630D01*
X76245254Y-74713500D01*
X76454746Y-74713500D01*
X76660212Y-74672630D01*
X76853756Y-74592462D01*
X77027942Y-74476075D01*
X77176075Y-74327942D01*
X77292462Y-74153756D01*
X77372630Y-73960212D01*
X77413500Y-73754746D01*
X77413500Y-73545254D01*
X77372630Y-73339788D01*
X77292462Y-73146244D01*
X77176075Y-72972058D01*
X77027942Y-72823925D01*
X76853756Y-72707538D01*
X76660212Y-72627370D01*
X76454746Y-72586500D01*
X76245254Y-72586500D01*
X76039788Y-72627370D01*
X75846244Y-72707538D01*
X75672058Y-72823925D01*
X75523925Y-72972058D01*
X75407538Y-73146244D01*
X75327370Y-73339788D01*
X75286500Y-73545254D01*
X71556256Y-73545254D01*
X71551649Y-73522094D01*
X71518594Y-73442292D01*
X71470605Y-73370472D01*
X71409528Y-73309395D01*
X71337708Y-73261406D01*
X71257906Y-73228351D01*
X71173189Y-73211500D01*
X71086811Y-73211500D01*
X71002094Y-73228351D01*
X70922292Y-73261406D01*
X70850472Y-73309395D01*
X70789395Y-73370472D01*
X70741406Y-73442292D01*
X70708351Y-73522094D01*
X70691500Y-73606811D01*
X62173500Y-73606811D01*
X62173500Y-73545254D01*
X62132630Y-73339788D01*
X62052462Y-73146244D01*
X61936075Y-72972058D01*
X61787942Y-72823925D01*
X61613756Y-72707538D01*
X61420212Y-72627370D01*
X61214746Y-72586500D01*
X61005254Y-72586500D01*
X60799788Y-72627370D01*
X60606244Y-72707538D01*
X60432058Y-72823925D01*
X60283925Y-72972058D01*
X60167538Y-73146244D01*
X60087370Y-73339788D01*
X60046500Y-73545254D01*
X59268500Y-73545254D01*
X59268500Y-71005254D01*
X60046500Y-71005254D01*
X60046500Y-71214746D01*
X60087370Y-71420212D01*
X60167538Y-71613756D01*
X60283925Y-71787942D01*
X60432058Y-71936075D01*
X60606244Y-72052462D01*
X60799788Y-72132630D01*
X61005254Y-72173500D01*
X61214746Y-72173500D01*
X61420212Y-72132630D01*
X61613756Y-72052462D01*
X61787942Y-71936075D01*
X61936075Y-71787942D01*
X62052462Y-71613756D01*
X62132630Y-71420212D01*
X62173500Y-71214746D01*
X62173500Y-71005254D01*
X75286500Y-71005254D01*
X75286500Y-71214746D01*
X75327370Y-71420212D01*
X75407538Y-71613756D01*
X75523925Y-71787942D01*
X75672058Y-71936075D01*
X75846244Y-72052462D01*
X76039788Y-72132630D01*
X76245254Y-72173500D01*
X76454746Y-72173500D01*
X76660212Y-72132630D01*
X76853756Y-72052462D01*
X77027942Y-71936075D01*
X77176075Y-71787942D01*
X77292462Y-71613756D01*
X77372630Y-71420212D01*
X77413500Y-71214746D01*
X77413500Y-71005254D01*
X77372630Y-70799788D01*
X77292462Y-70606244D01*
X77176075Y-70432058D01*
X77027942Y-70283925D01*
X76853756Y-70167538D01*
X76660212Y-70087370D01*
X76454746Y-70046500D01*
X76245254Y-70046500D01*
X76039788Y-70087370D01*
X75846244Y-70167538D01*
X75672058Y-70283925D01*
X75523925Y-70432058D01*
X75407538Y-70606244D01*
X75327370Y-70799788D01*
X75286500Y-71005254D01*
X62173500Y-71005254D01*
X62132630Y-70799788D01*
X62052462Y-70606244D01*
X61936075Y-70432058D01*
X61787942Y-70283925D01*
X61613756Y-70167538D01*
X61420212Y-70087370D01*
X61214746Y-70046500D01*
X61005254Y-70046500D01*
X60799788Y-70087370D01*
X60606244Y-70167538D01*
X60432058Y-70283925D01*
X60283925Y-70432058D01*
X60167538Y-70606244D01*
X60087370Y-70799788D01*
X60046500Y-71005254D01*
X59268500Y-71005254D01*
X59268500Y-68465254D01*
X60046500Y-68465254D01*
X60046500Y-68674746D01*
X60087370Y-68880212D01*
X60167538Y-69073756D01*
X60283925Y-69247942D01*
X60432058Y-69396075D01*
X60606244Y-69512462D01*
X60799788Y-69592630D01*
X61005254Y-69633500D01*
X61214746Y-69633500D01*
X61420212Y-69592630D01*
X61613756Y-69512462D01*
X61787942Y-69396075D01*
X61936075Y-69247942D01*
X62052462Y-69073756D01*
X62132630Y-68880212D01*
X62173500Y-68674746D01*
X62173500Y-68465254D01*
X75286500Y-68465254D01*
X75286500Y-68674746D01*
X75327370Y-68880212D01*
X75407538Y-69073756D01*
X75523925Y-69247942D01*
X75672058Y-69396075D01*
X75846244Y-69512462D01*
X76039788Y-69592630D01*
X76245254Y-69633500D01*
X76454746Y-69633500D01*
X76660212Y-69592630D01*
X76853756Y-69512462D01*
X77027942Y-69396075D01*
X77176075Y-69247942D01*
X77292462Y-69073756D01*
X77372630Y-68880212D01*
X77413500Y-68674746D01*
X77413500Y-68465254D01*
X77372630Y-68259788D01*
X77292462Y-68066244D01*
X77176075Y-67892058D01*
X77027942Y-67743925D01*
X76853756Y-67627538D01*
X76660212Y-67547370D01*
X76454746Y-67506500D01*
X76245254Y-67506500D01*
X76039788Y-67547370D01*
X75846244Y-67627538D01*
X75672058Y-67743925D01*
X75523925Y-67892058D01*
X75407538Y-68066244D01*
X75327370Y-68259788D01*
X75286500Y-68465254D01*
X62173500Y-68465254D01*
X62132630Y-68259788D01*
X62052462Y-68066244D01*
X61936075Y-67892058D01*
X61787942Y-67743925D01*
X61657567Y-67656811D01*
X73341500Y-67656811D01*
X73341500Y-67743189D01*
X73358351Y-67827906D01*
X73391406Y-67907708D01*
X73439395Y-67979528D01*
X73500472Y-68040605D01*
X73572292Y-68088594D01*
X73652094Y-68121649D01*
X73736811Y-68138500D01*
X73823189Y-68138500D01*
X73907906Y-68121649D01*
X73987708Y-68088594D01*
X74059528Y-68040605D01*
X74120605Y-67979528D01*
X74168594Y-67907708D01*
X74201649Y-67827906D01*
X74218500Y-67743189D01*
X74218500Y-67656811D01*
X74201649Y-67572094D01*
X74178885Y-67517136D01*
X74218594Y-67457708D01*
X74251649Y-67377906D01*
X74268500Y-67293189D01*
X74268500Y-67206811D01*
X74251649Y-67122094D01*
X74218594Y-67042292D01*
X74170605Y-66970472D01*
X74109528Y-66909395D01*
X74037708Y-66861406D01*
X73957906Y-66828351D01*
X73873189Y-66811500D01*
X73786811Y-66811500D01*
X73702094Y-66828351D01*
X73622292Y-66861406D01*
X73550472Y-66909395D01*
X73489395Y-66970472D01*
X73441406Y-67042292D01*
X73408351Y-67122094D01*
X73391500Y-67206811D01*
X73391500Y-67293189D01*
X73408351Y-67377906D01*
X73431115Y-67432864D01*
X73391406Y-67492292D01*
X73358351Y-67572094D01*
X73341500Y-67656811D01*
X61657567Y-67656811D01*
X61613756Y-67627538D01*
X61420212Y-67547370D01*
X61214746Y-67506500D01*
X61005254Y-67506500D01*
X60799788Y-67547370D01*
X60606244Y-67627538D01*
X60432058Y-67743925D01*
X60283925Y-67892058D01*
X60167538Y-68066244D01*
X60087370Y-68259788D01*
X60046500Y-68465254D01*
X59268500Y-68465254D01*
X59268500Y-65925254D01*
X60046500Y-65925254D01*
X60046500Y-66134746D01*
X60087370Y-66340212D01*
X60167538Y-66533756D01*
X60283925Y-66707942D01*
X60432058Y-66856075D01*
X60606244Y-66972462D01*
X60799788Y-67052630D01*
X61005254Y-67093500D01*
X61214746Y-67093500D01*
X61420212Y-67052630D01*
X61613756Y-66972462D01*
X61787942Y-66856075D01*
X61936075Y-66707942D01*
X61970239Y-66656811D01*
X64291500Y-66656811D01*
X64291500Y-66743189D01*
X64308351Y-66827906D01*
X64341406Y-66907708D01*
X64389395Y-66979528D01*
X64450472Y-67040605D01*
X64522292Y-67088594D01*
X64602094Y-67121649D01*
X64686811Y-67138500D01*
X64773189Y-67138500D01*
X64857906Y-67121649D01*
X64937708Y-67088594D01*
X64980000Y-67060335D01*
X65022292Y-67088594D01*
X65102094Y-67121649D01*
X65186811Y-67138500D01*
X65273189Y-67138500D01*
X65357906Y-67121649D01*
X65437708Y-67088594D01*
X65509528Y-67040605D01*
X65570605Y-66979528D01*
X65618594Y-66907708D01*
X65651649Y-66827906D01*
X65668500Y-66743189D01*
X65668500Y-66656811D01*
X65651649Y-66572094D01*
X65618594Y-66492292D01*
X65570605Y-66420472D01*
X65509528Y-66359395D01*
X65437708Y-66311406D01*
X65357906Y-66278351D01*
X65273189Y-66261500D01*
X65186811Y-66261500D01*
X65102094Y-66278351D01*
X65022292Y-66311406D01*
X64980000Y-66339665D01*
X64937708Y-66311406D01*
X64857906Y-66278351D01*
X64773189Y-66261500D01*
X64686811Y-66261500D01*
X64602094Y-66278351D01*
X64522292Y-66311406D01*
X64450472Y-66359395D01*
X64389395Y-66420472D01*
X64341406Y-66492292D01*
X64308351Y-66572094D01*
X64291500Y-66656811D01*
X61970239Y-66656811D01*
X62052462Y-66533756D01*
X62132630Y-66340212D01*
X62173500Y-66134746D01*
X62173500Y-65925254D01*
X75286500Y-65925254D01*
X75286500Y-66134746D01*
X75327370Y-66340212D01*
X75407538Y-66533756D01*
X75523925Y-66707942D01*
X75672058Y-66856075D01*
X75846244Y-66972462D01*
X76039788Y-67052630D01*
X76245254Y-67093500D01*
X76454746Y-67093500D01*
X76660212Y-67052630D01*
X76853756Y-66972462D01*
X77027942Y-66856075D01*
X77176075Y-66707942D01*
X77292462Y-66533756D01*
X77372630Y-66340212D01*
X77413500Y-66134746D01*
X77413500Y-65925254D01*
X77372630Y-65719788D01*
X77292462Y-65526244D01*
X77176075Y-65352058D01*
X77027942Y-65203925D01*
X76853756Y-65087538D01*
X76660212Y-65007370D01*
X76454746Y-64966500D01*
X76245254Y-64966500D01*
X76039788Y-65007370D01*
X75846244Y-65087538D01*
X75672058Y-65203925D01*
X75523925Y-65352058D01*
X75407538Y-65526244D01*
X75327370Y-65719788D01*
X75286500Y-65925254D01*
X62173500Y-65925254D01*
X62132630Y-65719788D01*
X62052462Y-65526244D01*
X61972660Y-65406811D01*
X69941500Y-65406811D01*
X69941500Y-65493189D01*
X69958351Y-65577906D01*
X69991406Y-65657708D01*
X70039395Y-65729528D01*
X70100472Y-65790605D01*
X70172292Y-65838594D01*
X70252094Y-65871649D01*
X70336811Y-65888500D01*
X70423189Y-65888500D01*
X70507906Y-65871649D01*
X70587708Y-65838594D01*
X70659528Y-65790605D01*
X70720605Y-65729528D01*
X70768594Y-65657708D01*
X70801649Y-65577906D01*
X70818500Y-65493189D01*
X70818500Y-65406811D01*
X70801649Y-65322094D01*
X70768594Y-65242292D01*
X70720605Y-65170472D01*
X70659528Y-65109395D01*
X70587708Y-65061406D01*
X70507906Y-65028351D01*
X70423189Y-65011500D01*
X70336811Y-65011500D01*
X70252094Y-65028351D01*
X70172292Y-65061406D01*
X70100472Y-65109395D01*
X70039395Y-65170472D01*
X69991406Y-65242292D01*
X69958351Y-65322094D01*
X69941500Y-65406811D01*
X61972660Y-65406811D01*
X61936075Y-65352058D01*
X61787942Y-65203925D01*
X61613756Y-65087538D01*
X61420212Y-65007370D01*
X61214746Y-64966500D01*
X61005254Y-64966500D01*
X60799788Y-65007370D01*
X60606244Y-65087538D01*
X60432058Y-65203925D01*
X60283925Y-65352058D01*
X60167538Y-65526244D01*
X60087370Y-65719788D01*
X60046500Y-65925254D01*
X59268500Y-65925254D01*
X59268500Y-63385254D01*
X60046500Y-63385254D01*
X60046500Y-63594746D01*
X60087370Y-63800212D01*
X60167538Y-63993756D01*
X60283925Y-64167942D01*
X60432058Y-64316075D01*
X60606244Y-64432462D01*
X60799788Y-64512630D01*
X61005254Y-64553500D01*
X61214746Y-64553500D01*
X61420212Y-64512630D01*
X61613756Y-64432462D01*
X61787942Y-64316075D01*
X61936075Y-64167942D01*
X62052462Y-63993756D01*
X62088475Y-63906811D01*
X73341500Y-63906811D01*
X73341500Y-63993189D01*
X73358351Y-64077906D01*
X73391406Y-64157708D01*
X73439395Y-64229528D01*
X73500472Y-64290605D01*
X73572292Y-64338594D01*
X73652094Y-64371649D01*
X73736811Y-64388500D01*
X73823189Y-64388500D01*
X73907906Y-64371649D01*
X73987708Y-64338594D01*
X74059528Y-64290605D01*
X74120605Y-64229528D01*
X74168594Y-64157708D01*
X74201649Y-64077906D01*
X74218500Y-63993189D01*
X74218500Y-63906811D01*
X74201649Y-63822094D01*
X74178885Y-63767136D01*
X74218594Y-63707708D01*
X74251649Y-63627906D01*
X74268500Y-63543189D01*
X74268500Y-63456811D01*
X74254267Y-63385254D01*
X75286500Y-63385254D01*
X75286500Y-63594746D01*
X75327370Y-63800212D01*
X75407538Y-63993756D01*
X75523925Y-64167942D01*
X75672058Y-64316075D01*
X75846244Y-64432462D01*
X76039788Y-64512630D01*
X76245254Y-64553500D01*
X76454746Y-64553500D01*
X76660212Y-64512630D01*
X76853756Y-64432462D01*
X77027942Y-64316075D01*
X77176075Y-64167942D01*
X77292462Y-63993756D01*
X77372630Y-63800212D01*
X77413500Y-63594746D01*
X77413500Y-63385254D01*
X77372630Y-63179788D01*
X77292462Y-62986244D01*
X77176075Y-62812058D01*
X77027942Y-62663925D01*
X76853756Y-62547538D01*
X76660212Y-62467370D01*
X76454746Y-62426500D01*
X76245254Y-62426500D01*
X76039788Y-62467370D01*
X75846244Y-62547538D01*
X75672058Y-62663925D01*
X75523925Y-62812058D01*
X75407538Y-62986244D01*
X75327370Y-63179788D01*
X75286500Y-63385254D01*
X74254267Y-63385254D01*
X74251649Y-63372094D01*
X74218594Y-63292292D01*
X74170605Y-63220472D01*
X74109528Y-63159395D01*
X74037708Y-63111406D01*
X73957906Y-63078351D01*
X73873189Y-63061500D01*
X73786811Y-63061500D01*
X73702094Y-63078351D01*
X73622292Y-63111406D01*
X73550472Y-63159395D01*
X73489395Y-63220472D01*
X73441406Y-63292292D01*
X73408351Y-63372094D01*
X73391500Y-63456811D01*
X73391500Y-63543189D01*
X73408351Y-63627906D01*
X73431115Y-63682864D01*
X73391406Y-63742292D01*
X73358351Y-63822094D01*
X73341500Y-63906811D01*
X62088475Y-63906811D01*
X62132630Y-63800212D01*
X62173500Y-63594746D01*
X62173500Y-63385254D01*
X62132630Y-63179788D01*
X62052462Y-62986244D01*
X61936075Y-62812058D01*
X61787942Y-62663925D01*
X61613756Y-62547538D01*
X61420212Y-62467370D01*
X61214746Y-62426500D01*
X61005254Y-62426500D01*
X60799788Y-62467370D01*
X60606244Y-62547538D01*
X60432058Y-62663925D01*
X60283925Y-62812058D01*
X60167538Y-62986244D01*
X60087370Y-63179788D01*
X60046500Y-63385254D01*
X59268500Y-63385254D01*
X59268500Y-60845254D01*
X60046500Y-60845254D01*
X60046500Y-61054746D01*
X60087370Y-61260212D01*
X60167538Y-61453756D01*
X60283925Y-61627942D01*
X60432058Y-61776075D01*
X60606244Y-61892462D01*
X60799788Y-61972630D01*
X61005254Y-62013500D01*
X61214746Y-62013500D01*
X61420212Y-61972630D01*
X61613756Y-61892462D01*
X61667111Y-61856811D01*
X64491500Y-61856811D01*
X64491500Y-61943189D01*
X64508351Y-62027906D01*
X64541406Y-62107708D01*
X64589395Y-62179528D01*
X64650472Y-62240605D01*
X64722292Y-62288594D01*
X64802094Y-62321649D01*
X64886811Y-62338500D01*
X64973189Y-62338500D01*
X65057906Y-62321649D01*
X65137708Y-62288594D01*
X65209528Y-62240605D01*
X65270605Y-62179528D01*
X65318594Y-62107708D01*
X65350271Y-62031232D01*
X65386811Y-62038500D01*
X65473189Y-62038500D01*
X65557906Y-62021649D01*
X65637708Y-61988594D01*
X65709528Y-61940605D01*
X65770605Y-61879528D01*
X65818594Y-61807708D01*
X65851649Y-61727906D01*
X65865790Y-61656811D01*
X69941500Y-61656811D01*
X69941500Y-61743189D01*
X69958351Y-61827906D01*
X69991406Y-61907708D01*
X70039395Y-61979528D01*
X70100472Y-62040605D01*
X70172292Y-62088594D01*
X70252094Y-62121649D01*
X70336811Y-62138500D01*
X70423189Y-62138500D01*
X70507906Y-62121649D01*
X70587708Y-62088594D01*
X70659528Y-62040605D01*
X70720605Y-61979528D01*
X70768594Y-61907708D01*
X70801649Y-61827906D01*
X70818500Y-61743189D01*
X70818500Y-61656811D01*
X70801649Y-61572094D01*
X70768594Y-61492292D01*
X70720605Y-61420472D01*
X70659528Y-61359395D01*
X70587708Y-61311406D01*
X70507906Y-61278351D01*
X70423189Y-61261500D01*
X70336811Y-61261500D01*
X70252094Y-61278351D01*
X70172292Y-61311406D01*
X70100472Y-61359395D01*
X70039395Y-61420472D01*
X69991406Y-61492292D01*
X69958351Y-61572094D01*
X69941500Y-61656811D01*
X65865790Y-61656811D01*
X65868500Y-61643189D01*
X65868500Y-61556811D01*
X65851649Y-61472094D01*
X65818594Y-61392292D01*
X65770605Y-61320472D01*
X65709528Y-61259395D01*
X65637708Y-61211406D01*
X65557906Y-61178351D01*
X65473189Y-61161500D01*
X65386811Y-61161500D01*
X65302094Y-61178351D01*
X65222292Y-61211406D01*
X65150472Y-61259395D01*
X65089395Y-61320472D01*
X65041406Y-61392292D01*
X65009729Y-61468768D01*
X64973189Y-61461500D01*
X64886811Y-61461500D01*
X64802094Y-61478351D01*
X64722292Y-61511406D01*
X64650472Y-61559395D01*
X64589395Y-61620472D01*
X64541406Y-61692292D01*
X64508351Y-61772094D01*
X64491500Y-61856811D01*
X61667111Y-61856811D01*
X61787942Y-61776075D01*
X61936075Y-61627942D01*
X62052462Y-61453756D01*
X62132630Y-61260212D01*
X62173500Y-61054746D01*
X62173500Y-60845254D01*
X75286500Y-60845254D01*
X75286500Y-61054746D01*
X75327370Y-61260212D01*
X75407538Y-61453756D01*
X75523925Y-61627942D01*
X75672058Y-61776075D01*
X75846244Y-61892462D01*
X76039788Y-61972630D01*
X76245254Y-62013500D01*
X76454746Y-62013500D01*
X76660212Y-61972630D01*
X76853756Y-61892462D01*
X77027942Y-61776075D01*
X77176075Y-61627942D01*
X77292462Y-61453756D01*
X77372630Y-61260212D01*
X77413500Y-61054746D01*
X77413500Y-60845254D01*
X77372630Y-60639788D01*
X77292462Y-60446244D01*
X77176075Y-60272058D01*
X77027942Y-60123925D01*
X76853756Y-60007538D01*
X76660212Y-59927370D01*
X76454746Y-59886500D01*
X76245254Y-59886500D01*
X76039788Y-59927370D01*
X75846244Y-60007538D01*
X75672058Y-60123925D01*
X75523925Y-60272058D01*
X75407538Y-60446244D01*
X75327370Y-60639788D01*
X75286500Y-60845254D01*
X62173500Y-60845254D01*
X62132630Y-60639788D01*
X62052462Y-60446244D01*
X61936075Y-60272058D01*
X61787942Y-60123925D01*
X61613756Y-60007538D01*
X61420212Y-59927370D01*
X61214746Y-59886500D01*
X61005254Y-59886500D01*
X60799788Y-59927370D01*
X60606244Y-60007538D01*
X60432058Y-60123925D01*
X60283925Y-60272058D01*
X60167538Y-60446244D01*
X60087370Y-60639788D01*
X60046500Y-60845254D01*
X59268500Y-60845254D01*
X59268500Y-58305254D01*
X60046500Y-58305254D01*
X60046500Y-58514746D01*
X60087370Y-58720212D01*
X60167538Y-58913756D01*
X60283925Y-59087942D01*
X60432058Y-59236075D01*
X60606244Y-59352462D01*
X60799788Y-59432630D01*
X61005254Y-59473500D01*
X61214746Y-59473500D01*
X61420212Y-59432630D01*
X61613756Y-59352462D01*
X61787942Y-59236075D01*
X61936075Y-59087942D01*
X62052462Y-58913756D01*
X62132630Y-58720212D01*
X62173500Y-58514746D01*
X62173500Y-58305254D01*
X75286500Y-58305254D01*
X75286500Y-58514746D01*
X75327370Y-58720212D01*
X75407538Y-58913756D01*
X75523925Y-59087942D01*
X75672058Y-59236075D01*
X75846244Y-59352462D01*
X76039788Y-59432630D01*
X76245254Y-59473500D01*
X76454746Y-59473500D01*
X76660212Y-59432630D01*
X76853756Y-59352462D01*
X77027942Y-59236075D01*
X77176075Y-59087942D01*
X77292462Y-58913756D01*
X77372630Y-58720212D01*
X77413500Y-58514746D01*
X77413500Y-58305254D01*
X77372630Y-58099788D01*
X77292462Y-57906244D01*
X77176075Y-57732058D01*
X77027942Y-57583925D01*
X76853756Y-57467538D01*
X76660212Y-57387370D01*
X76454746Y-57346500D01*
X76245254Y-57346500D01*
X76039788Y-57387370D01*
X75846244Y-57467538D01*
X75672058Y-57583925D01*
X75523925Y-57732058D01*
X75407538Y-57906244D01*
X75327370Y-58099788D01*
X75286500Y-58305254D01*
X62173500Y-58305254D01*
X62132630Y-58099788D01*
X62052462Y-57906244D01*
X61936075Y-57732058D01*
X61787942Y-57583925D01*
X61613756Y-57467538D01*
X61420212Y-57387370D01*
X61214746Y-57346500D01*
X61005254Y-57346500D01*
X60799788Y-57387370D01*
X60606244Y-57467538D01*
X60432058Y-57583925D01*
X60283925Y-57732058D01*
X60167538Y-57906244D01*
X60087370Y-58099788D01*
X60046500Y-58305254D01*
X59268500Y-58305254D01*
X59268500Y-56956811D01*
X66291500Y-56956811D01*
X66291500Y-57043189D01*
X66308351Y-57127906D01*
X66341406Y-57207708D01*
X66369665Y-57250000D01*
X66341406Y-57292292D01*
X66308351Y-57372094D01*
X66291500Y-57456811D01*
X66291500Y-57543189D01*
X66308351Y-57627906D01*
X66341406Y-57707708D01*
X66389395Y-57779528D01*
X66450472Y-57840605D01*
X66522292Y-57888594D01*
X66602094Y-57921649D01*
X66686811Y-57938500D01*
X66773189Y-57938500D01*
X66857906Y-57921649D01*
X66937708Y-57888594D01*
X67009528Y-57840605D01*
X67070605Y-57779528D01*
X67118594Y-57707708D01*
X67151649Y-57627906D01*
X67168500Y-57543189D01*
X67168500Y-57456811D01*
X67151649Y-57372094D01*
X67145319Y-57356811D01*
X73341500Y-57356811D01*
X73341500Y-57443189D01*
X73358351Y-57527906D01*
X73391406Y-57607708D01*
X73439395Y-57679528D01*
X73500472Y-57740605D01*
X73572292Y-57788594D01*
X73652094Y-57821649D01*
X73736811Y-57838500D01*
X73823189Y-57838500D01*
X73907906Y-57821649D01*
X73987708Y-57788594D01*
X74059528Y-57740605D01*
X74120605Y-57679528D01*
X74168594Y-57607708D01*
X74201649Y-57527906D01*
X74218500Y-57443189D01*
X74218500Y-57356811D01*
X74201649Y-57272094D01*
X74178885Y-57217136D01*
X74218594Y-57157708D01*
X74251649Y-57077906D01*
X74268500Y-56993189D01*
X74268500Y-56906811D01*
X74251649Y-56822094D01*
X74218594Y-56742292D01*
X74170605Y-56670472D01*
X74109528Y-56609395D01*
X74037708Y-56561406D01*
X73957906Y-56528351D01*
X73873189Y-56511500D01*
X73786811Y-56511500D01*
X73702094Y-56528351D01*
X73622292Y-56561406D01*
X73550472Y-56609395D01*
X73489395Y-56670472D01*
X73441406Y-56742292D01*
X73408351Y-56822094D01*
X73391500Y-56906811D01*
X73391500Y-56993189D01*
X73408351Y-57077906D01*
X73431115Y-57132864D01*
X73391406Y-57192292D01*
X73358351Y-57272094D01*
X73341500Y-57356811D01*
X67145319Y-57356811D01*
X67118594Y-57292292D01*
X67090335Y-57250000D01*
X67118594Y-57207708D01*
X67151649Y-57127906D01*
X67168500Y-57043189D01*
X67168500Y-56956811D01*
X67151649Y-56872094D01*
X67118594Y-56792292D01*
X67070605Y-56720472D01*
X67009528Y-56659395D01*
X66937708Y-56611406D01*
X66857906Y-56578351D01*
X66773189Y-56561500D01*
X66686811Y-56561500D01*
X66602094Y-56578351D01*
X66522292Y-56611406D01*
X66450472Y-56659395D01*
X66389395Y-56720472D01*
X66341406Y-56792292D01*
X66308351Y-56872094D01*
X66291500Y-56956811D01*
X59268500Y-56956811D01*
X59268500Y-55765254D01*
X60046500Y-55765254D01*
X60046500Y-55974746D01*
X60087370Y-56180212D01*
X60167538Y-56373756D01*
X60283925Y-56547942D01*
X60432058Y-56696075D01*
X60606244Y-56812462D01*
X60799788Y-56892630D01*
X61005254Y-56933500D01*
X61214746Y-56933500D01*
X61420212Y-56892630D01*
X61613756Y-56812462D01*
X61787942Y-56696075D01*
X61936075Y-56547942D01*
X62052462Y-56373756D01*
X62132630Y-56180212D01*
X62173500Y-55974746D01*
X62173500Y-55765254D01*
X75286500Y-55765254D01*
X75286500Y-55974746D01*
X75327370Y-56180212D01*
X75407538Y-56373756D01*
X75523925Y-56547942D01*
X75672058Y-56696075D01*
X75846244Y-56812462D01*
X76039788Y-56892630D01*
X76245254Y-56933500D01*
X76454746Y-56933500D01*
X76660212Y-56892630D01*
X76853756Y-56812462D01*
X77027942Y-56696075D01*
X77176075Y-56547942D01*
X77292462Y-56373756D01*
X77372630Y-56180212D01*
X77413500Y-55974746D01*
X77413500Y-55765254D01*
X77372630Y-55559788D01*
X77292462Y-55366244D01*
X77176075Y-55192058D01*
X77027942Y-55043925D01*
X76853756Y-54927538D01*
X76660212Y-54847370D01*
X76454746Y-54806500D01*
X76245254Y-54806500D01*
X76039788Y-54847370D01*
X75846244Y-54927538D01*
X75672058Y-55043925D01*
X75523925Y-55192058D01*
X75407538Y-55366244D01*
X75327370Y-55559788D01*
X75286500Y-55765254D01*
X62173500Y-55765254D01*
X62132630Y-55559788D01*
X62052462Y-55366244D01*
X61936075Y-55192058D01*
X61900828Y-55156811D01*
X71691500Y-55156811D01*
X71691500Y-55243189D01*
X71708351Y-55327906D01*
X71741406Y-55407708D01*
X71789395Y-55479528D01*
X71850472Y-55540605D01*
X71922292Y-55588594D01*
X72002094Y-55621649D01*
X72086811Y-55638500D01*
X72173189Y-55638500D01*
X72257906Y-55621649D01*
X72337708Y-55588594D01*
X72409528Y-55540605D01*
X72470605Y-55479528D01*
X72518594Y-55407708D01*
X72551649Y-55327906D01*
X72568500Y-55243189D01*
X72568500Y-55156811D01*
X72551649Y-55072094D01*
X72518594Y-54992292D01*
X72470605Y-54920472D01*
X72409528Y-54859395D01*
X72337708Y-54811406D01*
X72257906Y-54778351D01*
X72173189Y-54761500D01*
X72086811Y-54761500D01*
X72002094Y-54778351D01*
X71922292Y-54811406D01*
X71850472Y-54859395D01*
X71789395Y-54920472D01*
X71741406Y-54992292D01*
X71708351Y-55072094D01*
X71691500Y-55156811D01*
X61900828Y-55156811D01*
X61787942Y-55043925D01*
X61613756Y-54927538D01*
X61420212Y-54847370D01*
X61214746Y-54806500D01*
X61005254Y-54806500D01*
X60799788Y-54847370D01*
X60606244Y-54927538D01*
X60432058Y-55043925D01*
X60283925Y-55192058D01*
X60167538Y-55366244D01*
X60087370Y-55559788D01*
X60046500Y-55765254D01*
X59268500Y-55765254D01*
X59268500Y-53225254D01*
X60046500Y-53225254D01*
X60046500Y-53434746D01*
X60087370Y-53640212D01*
X60167538Y-53833756D01*
X60283925Y-54007942D01*
X60432058Y-54156075D01*
X60606244Y-54272462D01*
X60799788Y-54352630D01*
X61005254Y-54393500D01*
X61214746Y-54393500D01*
X61420212Y-54352630D01*
X61613756Y-54272462D01*
X61787942Y-54156075D01*
X61936075Y-54007942D01*
X62052462Y-53833756D01*
X62132630Y-53640212D01*
X62169110Y-53456811D01*
X64541500Y-53456811D01*
X64541500Y-53543189D01*
X64558351Y-53627906D01*
X64591406Y-53707708D01*
X64639395Y-53779528D01*
X64700472Y-53840605D01*
X64772292Y-53888594D01*
X64852094Y-53921649D01*
X64936811Y-53938500D01*
X65023189Y-53938500D01*
X65107906Y-53921649D01*
X65187708Y-53888594D01*
X65259528Y-53840605D01*
X65320605Y-53779528D01*
X65368594Y-53707708D01*
X65381137Y-53677426D01*
X65436811Y-53688500D01*
X65523189Y-53688500D01*
X65607906Y-53671649D01*
X65687708Y-53638594D01*
X65735274Y-53606811D01*
X73341500Y-53606811D01*
X73341500Y-53693189D01*
X73358351Y-53777906D01*
X73391406Y-53857708D01*
X73439395Y-53929528D01*
X73500472Y-53990605D01*
X73572292Y-54038594D01*
X73652094Y-54071649D01*
X73736811Y-54088500D01*
X73823189Y-54088500D01*
X73907906Y-54071649D01*
X73987708Y-54038594D01*
X74059528Y-53990605D01*
X74120605Y-53929528D01*
X74168594Y-53857708D01*
X74201649Y-53777906D01*
X74218500Y-53693189D01*
X74218500Y-53606811D01*
X74201649Y-53522094D01*
X74178885Y-53467136D01*
X74218594Y-53407708D01*
X74251649Y-53327906D01*
X74268500Y-53243189D01*
X74268500Y-53225254D01*
X75286500Y-53225254D01*
X75286500Y-53434746D01*
X75327370Y-53640212D01*
X75407538Y-53833756D01*
X75523925Y-54007942D01*
X75672058Y-54156075D01*
X75846244Y-54272462D01*
X76039788Y-54352630D01*
X76245254Y-54393500D01*
X76454746Y-54393500D01*
X76660212Y-54352630D01*
X76853756Y-54272462D01*
X77027942Y-54156075D01*
X77176075Y-54007942D01*
X77292462Y-53833756D01*
X77372630Y-53640212D01*
X77413500Y-53434746D01*
X77413500Y-53225254D01*
X77372630Y-53019788D01*
X77292462Y-52826244D01*
X77176075Y-52652058D01*
X77027942Y-52503925D01*
X76853756Y-52387538D01*
X76660212Y-52307370D01*
X76454746Y-52266500D01*
X76245254Y-52266500D01*
X76039788Y-52307370D01*
X75846244Y-52387538D01*
X75672058Y-52503925D01*
X75523925Y-52652058D01*
X75407538Y-52826244D01*
X75327370Y-53019788D01*
X75286500Y-53225254D01*
X74268500Y-53225254D01*
X74268500Y-53156811D01*
X74251649Y-53072094D01*
X74218594Y-52992292D01*
X74170605Y-52920472D01*
X74109528Y-52859395D01*
X74037708Y-52811406D01*
X73957906Y-52778351D01*
X73873189Y-52761500D01*
X73786811Y-52761500D01*
X73702094Y-52778351D01*
X73622292Y-52811406D01*
X73550472Y-52859395D01*
X73489395Y-52920472D01*
X73441406Y-52992292D01*
X73408351Y-53072094D01*
X73391500Y-53156811D01*
X73391500Y-53243189D01*
X73408351Y-53327906D01*
X73431115Y-53382864D01*
X73391406Y-53442292D01*
X73358351Y-53522094D01*
X73341500Y-53606811D01*
X65735274Y-53606811D01*
X65759528Y-53590605D01*
X65820605Y-53529528D01*
X65868594Y-53457708D01*
X65901649Y-53377906D01*
X65918500Y-53293189D01*
X65918500Y-53206811D01*
X65901649Y-53122094D01*
X65868594Y-53042292D01*
X65820605Y-52970472D01*
X65759528Y-52909395D01*
X65687708Y-52861406D01*
X65607906Y-52828351D01*
X65523189Y-52811500D01*
X65436811Y-52811500D01*
X65352094Y-52828351D01*
X65272292Y-52861406D01*
X65200472Y-52909395D01*
X65139395Y-52970472D01*
X65091406Y-53042292D01*
X65078863Y-53072574D01*
X65023189Y-53061500D01*
X64936811Y-53061500D01*
X64852094Y-53078351D01*
X64772292Y-53111406D01*
X64700472Y-53159395D01*
X64639395Y-53220472D01*
X64591406Y-53292292D01*
X64558351Y-53372094D01*
X64541500Y-53456811D01*
X62169110Y-53456811D01*
X62173500Y-53434746D01*
X62173500Y-53225254D01*
X62132630Y-53019788D01*
X62052462Y-52826244D01*
X61936075Y-52652058D01*
X61787942Y-52503925D01*
X61613756Y-52387538D01*
X61420212Y-52307370D01*
X61214746Y-52266500D01*
X61005254Y-52266500D01*
X60799788Y-52307370D01*
X60606244Y-52387538D01*
X60432058Y-52503925D01*
X60283925Y-52652058D01*
X60167538Y-52826244D01*
X60087370Y-53019788D01*
X60046500Y-53225254D01*
X59268500Y-53225254D01*
X59268500Y-52156811D01*
X64491500Y-52156811D01*
X64491500Y-52243189D01*
X64508351Y-52327906D01*
X64541406Y-52407708D01*
X64589395Y-52479528D01*
X64650472Y-52540605D01*
X64722292Y-52588594D01*
X64802094Y-52621649D01*
X64886811Y-52638500D01*
X64973189Y-52638500D01*
X65057906Y-52621649D01*
X65137708Y-52588594D01*
X65209528Y-52540605D01*
X65270605Y-52479528D01*
X65318594Y-52407708D01*
X65350271Y-52331232D01*
X65386811Y-52338500D01*
X65473189Y-52338500D01*
X65557906Y-52321649D01*
X65637708Y-52288594D01*
X65709528Y-52240605D01*
X65770605Y-52179528D01*
X65818594Y-52107708D01*
X65851649Y-52027906D01*
X65868500Y-51943189D01*
X65868500Y-51856811D01*
X65851649Y-51772094D01*
X65818594Y-51692292D01*
X65770605Y-51620472D01*
X65709528Y-51559395D01*
X65637708Y-51511406D01*
X65557906Y-51478351D01*
X65473189Y-51461500D01*
X65386811Y-51461500D01*
X65302094Y-51478351D01*
X65222292Y-51511406D01*
X65150472Y-51559395D01*
X65089395Y-51620472D01*
X65041406Y-51692292D01*
X65009729Y-51768768D01*
X64973189Y-51761500D01*
X64886811Y-51761500D01*
X64802094Y-51778351D01*
X64722292Y-51811406D01*
X64650472Y-51859395D01*
X64589395Y-51920472D01*
X64541406Y-51992292D01*
X64508351Y-52072094D01*
X64491500Y-52156811D01*
X59268500Y-52156811D01*
X59268500Y-50685254D01*
X60046500Y-50685254D01*
X60046500Y-50894746D01*
X60087370Y-51100212D01*
X60167538Y-51293756D01*
X60283925Y-51467942D01*
X60432058Y-51616075D01*
X60606244Y-51732462D01*
X60799788Y-51812630D01*
X61005254Y-51853500D01*
X61214746Y-51853500D01*
X61420212Y-51812630D01*
X61613756Y-51732462D01*
X61787942Y-51616075D01*
X61936075Y-51467942D01*
X61943512Y-51456811D01*
X71691500Y-51456811D01*
X71691500Y-51543189D01*
X71708351Y-51627906D01*
X71741406Y-51707708D01*
X71789395Y-51779528D01*
X71850472Y-51840605D01*
X71922292Y-51888594D01*
X72002094Y-51921649D01*
X72086811Y-51938500D01*
X72173189Y-51938500D01*
X72257906Y-51921649D01*
X72337708Y-51888594D01*
X72409528Y-51840605D01*
X72470605Y-51779528D01*
X72518594Y-51707708D01*
X72551649Y-51627906D01*
X72568500Y-51543189D01*
X72568500Y-51456811D01*
X72551649Y-51372094D01*
X72518594Y-51292292D01*
X72470605Y-51220472D01*
X72409528Y-51159395D01*
X72337708Y-51111406D01*
X72257906Y-51078351D01*
X72173189Y-51061500D01*
X72086811Y-51061500D01*
X72002094Y-51078351D01*
X71922292Y-51111406D01*
X71850472Y-51159395D01*
X71789395Y-51220472D01*
X71741406Y-51292292D01*
X71708351Y-51372094D01*
X71691500Y-51456811D01*
X61943512Y-51456811D01*
X62052462Y-51293756D01*
X62132630Y-51100212D01*
X62173500Y-50894746D01*
X62173500Y-50685254D01*
X75286500Y-50685254D01*
X75286500Y-50894746D01*
X75327370Y-51100212D01*
X75407538Y-51293756D01*
X75523925Y-51467942D01*
X75672058Y-51616075D01*
X75846244Y-51732462D01*
X76039788Y-51812630D01*
X76245254Y-51853500D01*
X76454746Y-51853500D01*
X76660212Y-51812630D01*
X76853756Y-51732462D01*
X77027942Y-51616075D01*
X77176075Y-51467942D01*
X77292462Y-51293756D01*
X77372630Y-51100212D01*
X77413500Y-50894746D01*
X77413500Y-50685254D01*
X77372630Y-50479788D01*
X77292462Y-50286244D01*
X77176075Y-50112058D01*
X77027942Y-49963925D01*
X76853756Y-49847538D01*
X76660212Y-49767370D01*
X76454746Y-49726500D01*
X76245254Y-49726500D01*
X76039788Y-49767370D01*
X75846244Y-49847538D01*
X75672058Y-49963925D01*
X75523925Y-50112058D01*
X75407538Y-50286244D01*
X75327370Y-50479788D01*
X75286500Y-50685254D01*
X62173500Y-50685254D01*
X62132630Y-50479788D01*
X62052462Y-50286244D01*
X61936075Y-50112058D01*
X61787942Y-49963925D01*
X61613756Y-49847538D01*
X61420212Y-49767370D01*
X61214746Y-49726500D01*
X61005254Y-49726500D01*
X60799788Y-49767370D01*
X60606244Y-49847538D01*
X60432058Y-49963925D01*
X60283925Y-50112058D01*
X60167538Y-50286244D01*
X60087370Y-50479788D01*
X60046500Y-50685254D01*
X59268500Y-50685254D01*
X59268500Y-48145254D01*
X60046500Y-48145254D01*
X60046500Y-48354746D01*
X60087370Y-48560212D01*
X60167538Y-48753756D01*
X60283925Y-48927942D01*
X60432058Y-49076075D01*
X60606244Y-49192462D01*
X60799788Y-49272630D01*
X61005254Y-49313500D01*
X61214746Y-49313500D01*
X61420212Y-49272630D01*
X61613756Y-49192462D01*
X61787942Y-49076075D01*
X61936075Y-48927942D01*
X62052462Y-48753756D01*
X62108551Y-48618344D01*
X75242129Y-48618344D01*
X75306150Y-48772931D01*
X75428226Y-48966528D01*
X75585725Y-49132589D01*
X75772595Y-49264733D01*
X75981654Y-49357881D01*
X76159500Y-49322488D01*
X76159500Y-48440500D01*
X76540500Y-48440500D01*
X76540500Y-49322488D01*
X76718346Y-49357881D01*
X76927405Y-49264733D01*
X77114275Y-49132589D01*
X77271774Y-48966528D01*
X77393850Y-48772931D01*
X77457871Y-48618344D01*
X77421320Y-48440500D01*
X76540500Y-48440500D01*
X76159500Y-48440500D01*
X75278680Y-48440500D01*
X75242129Y-48618344D01*
X62108551Y-48618344D01*
X62132630Y-48560212D01*
X62173500Y-48354746D01*
X62173500Y-48145254D01*
X62132630Y-47939788D01*
X62108552Y-47881656D01*
X75242129Y-47881656D01*
X75278680Y-48059500D01*
X76159500Y-48059500D01*
X76159500Y-47177512D01*
X76540500Y-47177512D01*
X76540500Y-48059500D01*
X77421320Y-48059500D01*
X77457871Y-47881656D01*
X77393850Y-47727069D01*
X77271774Y-47533472D01*
X77114275Y-47367411D01*
X76927405Y-47235267D01*
X76718346Y-47142119D01*
X76540500Y-47177512D01*
X76159500Y-47177512D01*
X75981654Y-47142119D01*
X75772595Y-47235267D01*
X75585725Y-47367411D01*
X75428226Y-47533472D01*
X75306150Y-47727069D01*
X75242129Y-47881656D01*
X62108552Y-47881656D01*
X62052462Y-47746244D01*
X61936075Y-47572058D01*
X61787942Y-47423925D01*
X61613756Y-47307538D01*
X61420212Y-47227370D01*
X61214746Y-47186500D01*
X61005254Y-47186500D01*
X60799788Y-47227370D01*
X60606244Y-47307538D01*
X60432058Y-47423925D01*
X60283925Y-47572058D01*
X60167538Y-47746244D01*
X60087370Y-47939788D01*
X60046500Y-48145254D01*
X59268500Y-48145254D01*
X59268500Y-44860000D01*
X60045467Y-44860000D01*
X60045467Y-46560000D01*
X60049589Y-46601853D01*
X60061797Y-46642098D01*
X60081622Y-46679188D01*
X60108302Y-46711698D01*
X60140812Y-46738378D01*
X60177902Y-46758203D01*
X60218147Y-46770411D01*
X60260000Y-46774533D01*
X61960000Y-46774533D01*
X62001853Y-46770411D01*
X62042098Y-46758203D01*
X62079188Y-46738378D01*
X62111698Y-46711698D01*
X62138378Y-46679188D01*
X62158203Y-46642098D01*
X62170411Y-46601853D01*
X62174533Y-46560000D01*
X62174533Y-44860000D01*
X75285467Y-44860000D01*
X75285467Y-46560000D01*
X75289589Y-46601853D01*
X75301797Y-46642098D01*
X75321622Y-46679188D01*
X75348302Y-46711698D01*
X75380812Y-46738378D01*
X75417902Y-46758203D01*
X75458147Y-46770411D01*
X75500000Y-46774533D01*
X77200000Y-46774533D01*
X77241853Y-46770411D01*
X77282098Y-46758203D01*
X77319188Y-46738378D01*
X77351698Y-46711698D01*
X77378378Y-46679188D01*
X77398203Y-46642098D01*
X77410411Y-46601853D01*
X77414533Y-46560000D01*
X77414533Y-44860000D01*
X77410411Y-44818147D01*
X77398203Y-44777902D01*
X77378378Y-44740812D01*
X77351698Y-44708302D01*
X77319188Y-44681622D01*
X77282098Y-44661797D01*
X77241853Y-44649589D01*
X77200000Y-44645467D01*
X75500000Y-44645467D01*
X75458147Y-44649589D01*
X75417902Y-44661797D01*
X75380812Y-44681622D01*
X75348302Y-44708302D01*
X75321622Y-44740812D01*
X75301797Y-44777902D01*
X75289589Y-44818147D01*
X75285467Y-44860000D01*
X62174533Y-44860000D01*
X62170411Y-44818147D01*
X62158203Y-44777902D01*
X62138378Y-44740812D01*
X62111698Y-44708302D01*
X62079188Y-44681622D01*
X62042098Y-44661797D01*
X62001853Y-44649589D01*
X61960000Y-44645467D01*
X60260000Y-44645467D01*
X60218147Y-44649589D01*
X60177902Y-44661797D01*
X60140812Y-44681622D01*
X60108302Y-44708302D01*
X60081622Y-44740812D01*
X60061797Y-44777902D01*
X60049589Y-44818147D01*
X60045467Y-44860000D01*
X59268500Y-44860000D01*
X59268500Y-43868500D01*
X78191500Y-43868500D01*
X78191500Y-111051500D01*
%TA.AperFunction,Conductor*%
D14*
G36*
X78191500Y-111051500D02*
G01*
X59268500Y-111051500D01*
X59268500Y-109578344D01*
X60002129Y-109578344D01*
X60066150Y-109732931D01*
X60188226Y-109926528D01*
X60345725Y-110092589D01*
X60532595Y-110224733D01*
X60741654Y-110317881D01*
X60919500Y-110282488D01*
X60919500Y-109400500D01*
X61300500Y-109400500D01*
X61300500Y-110282488D01*
X61478346Y-110317881D01*
X61687405Y-110224733D01*
X61874275Y-110092589D01*
X62031774Y-109926528D01*
X62153850Y-109732931D01*
X62217871Y-109578344D01*
X62181320Y-109400500D01*
X61300500Y-109400500D01*
X60919500Y-109400500D01*
X60038680Y-109400500D01*
X60002129Y-109578344D01*
X59268500Y-109578344D01*
X59268500Y-109105254D01*
X75286500Y-109105254D01*
X75286500Y-109314746D01*
X75327370Y-109520212D01*
X75407538Y-109713756D01*
X75523925Y-109887942D01*
X75672058Y-110036075D01*
X75846244Y-110152462D01*
X76039788Y-110232630D01*
X76245254Y-110273500D01*
X76454746Y-110273500D01*
X76660212Y-110232630D01*
X76853756Y-110152462D01*
X77027942Y-110036075D01*
X77176075Y-109887942D01*
X77292462Y-109713756D01*
X77372630Y-109520212D01*
X77413500Y-109314746D01*
X77413500Y-109105254D01*
X77372630Y-108899788D01*
X77292462Y-108706244D01*
X77176075Y-108532058D01*
X77027942Y-108383925D01*
X76853756Y-108267538D01*
X76660212Y-108187370D01*
X76454746Y-108146500D01*
X76245254Y-108146500D01*
X76039788Y-108187370D01*
X75846244Y-108267538D01*
X75672058Y-108383925D01*
X75523925Y-108532058D01*
X75407538Y-108706244D01*
X75327370Y-108899788D01*
X75286500Y-109105254D01*
X59268500Y-109105254D01*
X59268500Y-108841656D01*
X60002129Y-108841656D01*
X60038680Y-109019500D01*
X60919500Y-109019500D01*
X60919500Y-108137512D01*
X61300500Y-108137512D01*
X61300500Y-109019500D01*
X62181320Y-109019500D01*
X62217871Y-108841656D01*
X62153850Y-108687069D01*
X62031774Y-108493472D01*
X61874275Y-108327411D01*
X61687405Y-108195267D01*
X61478346Y-108102119D01*
X61300500Y-108137512D01*
X60919500Y-108137512D01*
X60741654Y-108102119D01*
X60532595Y-108195267D01*
X60345725Y-108327411D01*
X60188226Y-108493472D01*
X60066150Y-108687069D01*
X60002129Y-108841656D01*
X59268500Y-108841656D01*
X59268500Y-106565254D01*
X60046500Y-106565254D01*
X60046500Y-106774746D01*
X60087370Y-106980212D01*
X60167538Y-107173756D01*
X60283925Y-107347942D01*
X60432058Y-107496075D01*
X60606244Y-107612462D01*
X60799788Y-107692630D01*
X61005254Y-107733500D01*
X61214746Y-107733500D01*
X61420212Y-107692630D01*
X61613756Y-107612462D01*
X61787942Y-107496075D01*
X61936075Y-107347942D01*
X62052462Y-107173756D01*
X62132630Y-106980212D01*
X62173500Y-106774746D01*
X62173500Y-106565254D01*
X75286500Y-106565254D01*
X75286500Y-106774746D01*
X75327370Y-106980212D01*
X75407538Y-107173756D01*
X75523925Y-107347942D01*
X75672058Y-107496075D01*
X75846244Y-107612462D01*
X76039788Y-107692630D01*
X76245254Y-107733500D01*
X76454746Y-107733500D01*
X76660212Y-107692630D01*
X76853756Y-107612462D01*
X77027942Y-107496075D01*
X77176075Y-107347942D01*
X77292462Y-107173756D01*
X77372630Y-106980212D01*
X77413500Y-106774746D01*
X77413500Y-106565254D01*
X77372630Y-106359788D01*
X77292462Y-106166244D01*
X77176075Y-105992058D01*
X77027942Y-105843925D01*
X76853756Y-105727538D01*
X76660212Y-105647370D01*
X76454746Y-105606500D01*
X76245254Y-105606500D01*
X76039788Y-105647370D01*
X75846244Y-105727538D01*
X75672058Y-105843925D01*
X75523925Y-105992058D01*
X75407538Y-106166244D01*
X75327370Y-106359788D01*
X75286500Y-106565254D01*
X62173500Y-106565254D01*
X62132630Y-106359788D01*
X62052462Y-106166244D01*
X61936075Y-105992058D01*
X61787942Y-105843925D01*
X61613756Y-105727538D01*
X61420212Y-105647370D01*
X61214746Y-105606500D01*
X61005254Y-105606500D01*
X60799788Y-105647370D01*
X60606244Y-105727538D01*
X60432058Y-105843925D01*
X60283925Y-105992058D01*
X60167538Y-106166244D01*
X60087370Y-106359788D01*
X60046500Y-106565254D01*
X59268500Y-106565254D01*
X59268500Y-104025254D01*
X60046500Y-104025254D01*
X60046500Y-104234746D01*
X60087370Y-104440212D01*
X60167538Y-104633756D01*
X60283925Y-104807942D01*
X60432058Y-104956075D01*
X60606244Y-105072462D01*
X60799788Y-105152630D01*
X61005254Y-105193500D01*
X61214746Y-105193500D01*
X61420212Y-105152630D01*
X61613756Y-105072462D01*
X61758404Y-104975811D01*
X73117500Y-104975811D01*
X73117500Y-105062189D01*
X73134351Y-105146906D01*
X73167406Y-105226708D01*
X73198338Y-105273000D01*
X73167406Y-105319292D01*
X73134351Y-105399094D01*
X73117500Y-105483811D01*
X73117500Y-105570189D01*
X73134351Y-105654906D01*
X73167406Y-105734708D01*
X73215395Y-105806528D01*
X73276472Y-105867605D01*
X73348292Y-105915594D01*
X73428094Y-105948649D01*
X73512811Y-105965500D01*
X73599189Y-105965500D01*
X73683906Y-105948649D01*
X73763708Y-105915594D01*
X73810000Y-105884662D01*
X73856292Y-105915594D01*
X73936094Y-105948649D01*
X74020811Y-105965500D01*
X74107189Y-105965500D01*
X74191906Y-105948649D01*
X74271708Y-105915594D01*
X74343528Y-105867605D01*
X74404605Y-105806528D01*
X74452594Y-105734708D01*
X74485649Y-105654906D01*
X74502500Y-105570189D01*
X74502500Y-105483811D01*
X74485649Y-105399094D01*
X74452594Y-105319292D01*
X74421662Y-105273000D01*
X74452594Y-105226708D01*
X74485649Y-105146906D01*
X74502500Y-105062189D01*
X74502500Y-104975811D01*
X74485649Y-104891094D01*
X74452594Y-104811292D01*
X74404605Y-104739472D01*
X74343528Y-104678395D01*
X74271708Y-104630406D01*
X74191906Y-104597351D01*
X74107189Y-104580500D01*
X74020811Y-104580500D01*
X73936094Y-104597351D01*
X73856292Y-104630406D01*
X73810000Y-104661338D01*
X73763708Y-104630406D01*
X73683906Y-104597351D01*
X73599189Y-104580500D01*
X73512811Y-104580500D01*
X73428094Y-104597351D01*
X73348292Y-104630406D01*
X73276472Y-104678395D01*
X73215395Y-104739472D01*
X73167406Y-104811292D01*
X73134351Y-104891094D01*
X73117500Y-104975811D01*
X61758404Y-104975811D01*
X61787942Y-104956075D01*
X61936075Y-104807942D01*
X62052462Y-104633756D01*
X62132630Y-104440212D01*
X62173500Y-104234746D01*
X62173500Y-104025254D01*
X62132630Y-103819788D01*
X62085420Y-103705811D01*
X64989500Y-103705811D01*
X64989500Y-103792189D01*
X65006351Y-103876906D01*
X65039406Y-103956708D01*
X65087395Y-104028528D01*
X65148472Y-104089605D01*
X65220292Y-104137594D01*
X65300094Y-104170649D01*
X65384811Y-104187500D01*
X65471189Y-104187500D01*
X65555906Y-104170649D01*
X65635708Y-104137594D01*
X65707528Y-104089605D01*
X65768605Y-104028528D01*
X65816594Y-103956708D01*
X65849649Y-103876906D01*
X65866500Y-103792189D01*
X65866500Y-103705811D01*
X65849649Y-103621094D01*
X65816594Y-103541292D01*
X65768605Y-103469472D01*
X65707528Y-103408395D01*
X65635708Y-103360406D01*
X65555906Y-103327351D01*
X65471189Y-103310500D01*
X65384811Y-103310500D01*
X65300094Y-103327351D01*
X65220292Y-103360406D01*
X65148472Y-103408395D01*
X65087395Y-103469472D01*
X65039406Y-103541292D01*
X65006351Y-103621094D01*
X64989500Y-103705811D01*
X62085420Y-103705811D01*
X62052462Y-103626244D01*
X61936075Y-103452058D01*
X61787942Y-103303925D01*
X61613756Y-103187538D01*
X61420212Y-103107370D01*
X61214746Y-103066500D01*
X61005254Y-103066500D01*
X60799788Y-103107370D01*
X60606244Y-103187538D01*
X60432058Y-103303925D01*
X60283925Y-103452058D01*
X60167538Y-103626244D01*
X60087370Y-103819788D01*
X60046500Y-104025254D01*
X59268500Y-104025254D01*
X59268500Y-102943811D01*
X66259500Y-102943811D01*
X66259500Y-103030189D01*
X66276351Y-103114906D01*
X66309406Y-103194708D01*
X66357395Y-103266528D01*
X66418472Y-103327605D01*
X66478927Y-103368000D01*
X66418472Y-103408395D01*
X66357395Y-103469472D01*
X66309406Y-103541292D01*
X66276351Y-103621094D01*
X66259500Y-103705811D01*
X66259500Y-103792189D01*
X66276351Y-103876906D01*
X66309406Y-103956708D01*
X66357395Y-104028528D01*
X66418472Y-104089605D01*
X66490292Y-104137594D01*
X66570094Y-104170649D01*
X66654811Y-104187500D01*
X66741189Y-104187500D01*
X66825906Y-104170649D01*
X66905708Y-104137594D01*
X66977528Y-104089605D01*
X67038605Y-104028528D01*
X67086594Y-103956708D01*
X67119649Y-103876906D01*
X67136500Y-103792189D01*
X67136500Y-103705811D01*
X67119649Y-103621094D01*
X67086594Y-103541292D01*
X67038605Y-103469472D01*
X66977528Y-103408395D01*
X66917073Y-103368000D01*
X66977528Y-103327605D01*
X67038605Y-103266528D01*
X67086594Y-103194708D01*
X67119649Y-103114906D01*
X67136500Y-103030189D01*
X67136500Y-102943811D01*
X67402500Y-102943811D01*
X67402500Y-103030189D01*
X67419351Y-103114906D01*
X67452406Y-103194708D01*
X67500395Y-103266528D01*
X67561472Y-103327605D01*
X67621927Y-103368000D01*
X67561472Y-103408395D01*
X67500395Y-103469472D01*
X67452406Y-103541292D01*
X67419351Y-103621094D01*
X67402500Y-103705811D01*
X67402500Y-103792189D01*
X67419351Y-103876906D01*
X67452406Y-103956708D01*
X67500395Y-104028528D01*
X67561472Y-104089605D01*
X67633292Y-104137594D01*
X67713094Y-104170649D01*
X67797811Y-104187500D01*
X67884189Y-104187500D01*
X67968906Y-104170649D01*
X68048708Y-104137594D01*
X68120528Y-104089605D01*
X68181605Y-104028528D01*
X68229594Y-103956708D01*
X68262649Y-103876906D01*
X68279500Y-103792189D01*
X68279500Y-103705811D01*
X68262649Y-103621094D01*
X68229594Y-103541292D01*
X68181605Y-103469472D01*
X68120528Y-103408395D01*
X68060073Y-103368000D01*
X68120528Y-103327605D01*
X68181605Y-103266528D01*
X68229594Y-103194708D01*
X68262649Y-103114906D01*
X68279500Y-103030189D01*
X68279500Y-102943811D01*
X68672500Y-102943811D01*
X68672500Y-103030189D01*
X68689351Y-103114906D01*
X68722406Y-103194708D01*
X68770395Y-103266528D01*
X68831472Y-103327605D01*
X68891927Y-103368000D01*
X68831472Y-103408395D01*
X68770395Y-103469472D01*
X68722406Y-103541292D01*
X68689351Y-103621094D01*
X68672500Y-103705811D01*
X68672500Y-103792189D01*
X68689351Y-103876906D01*
X68722406Y-103956708D01*
X68770395Y-104028528D01*
X68831472Y-104089605D01*
X68903292Y-104137594D01*
X68983094Y-104170649D01*
X69067811Y-104187500D01*
X69154189Y-104187500D01*
X69238906Y-104170649D01*
X69318708Y-104137594D01*
X69390528Y-104089605D01*
X69451605Y-104028528D01*
X69499594Y-103956708D01*
X69532649Y-103876906D01*
X69549500Y-103792189D01*
X69549500Y-103705811D01*
X69532649Y-103621094D01*
X69499594Y-103541292D01*
X69451605Y-103469472D01*
X69390528Y-103408395D01*
X69330073Y-103368000D01*
X69390528Y-103327605D01*
X69451605Y-103266528D01*
X69499594Y-103194708D01*
X69532649Y-103114906D01*
X69549500Y-103030189D01*
X69549500Y-102943811D01*
X69942500Y-102943811D01*
X69942500Y-103030189D01*
X69959351Y-103114906D01*
X69992406Y-103194708D01*
X70040395Y-103266528D01*
X70101472Y-103327605D01*
X70161927Y-103368000D01*
X70101472Y-103408395D01*
X70040395Y-103469472D01*
X69992406Y-103541292D01*
X69959351Y-103621094D01*
X69942500Y-103705811D01*
X69942500Y-103792189D01*
X69959351Y-103876906D01*
X69992406Y-103956708D01*
X70040395Y-104028528D01*
X70101472Y-104089605D01*
X70173292Y-104137594D01*
X70253094Y-104170649D01*
X70337811Y-104187500D01*
X70424189Y-104187500D01*
X70508906Y-104170649D01*
X70588708Y-104137594D01*
X70660528Y-104089605D01*
X70721605Y-104028528D01*
X70723792Y-104025254D01*
X75286500Y-104025254D01*
X75286500Y-104234746D01*
X75327370Y-104440212D01*
X75407538Y-104633756D01*
X75523925Y-104807942D01*
X75672058Y-104956075D01*
X75846244Y-105072462D01*
X76039788Y-105152630D01*
X76245254Y-105193500D01*
X76454746Y-105193500D01*
X76660212Y-105152630D01*
X76853756Y-105072462D01*
X77027942Y-104956075D01*
X77176075Y-104807942D01*
X77292462Y-104633756D01*
X77372630Y-104440212D01*
X77413500Y-104234746D01*
X77413500Y-104025254D01*
X77372630Y-103819788D01*
X77292462Y-103626244D01*
X77176075Y-103452058D01*
X77027942Y-103303925D01*
X76853756Y-103187538D01*
X76660212Y-103107370D01*
X76454746Y-103066500D01*
X76245254Y-103066500D01*
X76039788Y-103107370D01*
X75846244Y-103187538D01*
X75672058Y-103303925D01*
X75523925Y-103452058D01*
X75407538Y-103626244D01*
X75327370Y-103819788D01*
X75286500Y-104025254D01*
X70723792Y-104025254D01*
X70769594Y-103956708D01*
X70802649Y-103876906D01*
X70819500Y-103792189D01*
X70819500Y-103705811D01*
X70802649Y-103621094D01*
X70769594Y-103541292D01*
X70721605Y-103469472D01*
X70660528Y-103408395D01*
X70600073Y-103368000D01*
X70660528Y-103327605D01*
X70721605Y-103266528D01*
X70769594Y-103194708D01*
X70802649Y-103114906D01*
X70819500Y-103030189D01*
X70819500Y-102943811D01*
X70802649Y-102859094D01*
X70769594Y-102779292D01*
X70721605Y-102707472D01*
X70660528Y-102646395D01*
X70588708Y-102598406D01*
X70508906Y-102565351D01*
X70424189Y-102548500D01*
X70337811Y-102548500D01*
X70253094Y-102565351D01*
X70173292Y-102598406D01*
X70101472Y-102646395D01*
X70040395Y-102707472D01*
X69992406Y-102779292D01*
X69959351Y-102859094D01*
X69942500Y-102943811D01*
X69549500Y-102943811D01*
X69532649Y-102859094D01*
X69499594Y-102779292D01*
X69451605Y-102707472D01*
X69390528Y-102646395D01*
X69318708Y-102598406D01*
X69238906Y-102565351D01*
X69154189Y-102548500D01*
X69067811Y-102548500D01*
X68983094Y-102565351D01*
X68903292Y-102598406D01*
X68831472Y-102646395D01*
X68770395Y-102707472D01*
X68722406Y-102779292D01*
X68689351Y-102859094D01*
X68672500Y-102943811D01*
X68279500Y-102943811D01*
X68262649Y-102859094D01*
X68229594Y-102779292D01*
X68181605Y-102707472D01*
X68120528Y-102646395D01*
X68048708Y-102598406D01*
X67968906Y-102565351D01*
X67884189Y-102548500D01*
X67797811Y-102548500D01*
X67713094Y-102565351D01*
X67633292Y-102598406D01*
X67561472Y-102646395D01*
X67500395Y-102707472D01*
X67452406Y-102779292D01*
X67419351Y-102859094D01*
X67402500Y-102943811D01*
X67136500Y-102943811D01*
X67119649Y-102859094D01*
X67086594Y-102779292D01*
X67038605Y-102707472D01*
X66977528Y-102646395D01*
X66905708Y-102598406D01*
X66825906Y-102565351D01*
X66741189Y-102548500D01*
X66654811Y-102548500D01*
X66570094Y-102565351D01*
X66490292Y-102598406D01*
X66418472Y-102646395D01*
X66357395Y-102707472D01*
X66309406Y-102779292D01*
X66276351Y-102859094D01*
X66259500Y-102943811D01*
X59268500Y-102943811D01*
X59268500Y-101485254D01*
X60046500Y-101485254D01*
X60046500Y-101694746D01*
X60087370Y-101900212D01*
X60167538Y-102093756D01*
X60283925Y-102267942D01*
X60432058Y-102416075D01*
X60606244Y-102532462D01*
X60799788Y-102612630D01*
X61005254Y-102653500D01*
X61214746Y-102653500D01*
X61420212Y-102612630D01*
X61613756Y-102532462D01*
X61787942Y-102416075D01*
X61936075Y-102267942D01*
X62052462Y-102093756D01*
X62132630Y-101900212D01*
X62173500Y-101694746D01*
X62173500Y-101485254D01*
X75286500Y-101485254D01*
X75286500Y-101694746D01*
X75327370Y-101900212D01*
X75407538Y-102093756D01*
X75523925Y-102267942D01*
X75672058Y-102416075D01*
X75846244Y-102532462D01*
X76039788Y-102612630D01*
X76245254Y-102653500D01*
X76454746Y-102653500D01*
X76660212Y-102612630D01*
X76853756Y-102532462D01*
X77027942Y-102416075D01*
X77176075Y-102267942D01*
X77292462Y-102093756D01*
X77372630Y-101900212D01*
X77413500Y-101694746D01*
X77413500Y-101485254D01*
X77372630Y-101279788D01*
X77292462Y-101086244D01*
X77176075Y-100912058D01*
X77027942Y-100763925D01*
X76853756Y-100647538D01*
X76660212Y-100567370D01*
X76454746Y-100526500D01*
X76245254Y-100526500D01*
X76039788Y-100567370D01*
X75846244Y-100647538D01*
X75672058Y-100763925D01*
X75523925Y-100912058D01*
X75407538Y-101086244D01*
X75327370Y-101279788D01*
X75286500Y-101485254D01*
X62173500Y-101485254D01*
X62132630Y-101279788D01*
X62052462Y-101086244D01*
X61936075Y-100912058D01*
X61787942Y-100763925D01*
X61613756Y-100647538D01*
X61420212Y-100567370D01*
X61214746Y-100526500D01*
X61005254Y-100526500D01*
X60799788Y-100567370D01*
X60606244Y-100647538D01*
X60432058Y-100763925D01*
X60283925Y-100912058D01*
X60167538Y-101086244D01*
X60087370Y-101279788D01*
X60046500Y-101485254D01*
X59268500Y-101485254D01*
X59268500Y-98945254D01*
X60046500Y-98945254D01*
X60046500Y-99154746D01*
X60087370Y-99360212D01*
X60167538Y-99553756D01*
X60283925Y-99727942D01*
X60432058Y-99876075D01*
X60606244Y-99992462D01*
X60799788Y-100072630D01*
X61005254Y-100113500D01*
X61214746Y-100113500D01*
X61420212Y-100072630D01*
X61613756Y-99992462D01*
X61758404Y-99895811D01*
X71339500Y-99895811D01*
X71339500Y-99982189D01*
X71356351Y-100066906D01*
X71389406Y-100146708D01*
X71437395Y-100218528D01*
X71498472Y-100279605D01*
X71570292Y-100327594D01*
X71650094Y-100360649D01*
X71734811Y-100377500D01*
X71821189Y-100377500D01*
X71905906Y-100360649D01*
X71985708Y-100327594D01*
X72057528Y-100279605D01*
X72118605Y-100218528D01*
X72166594Y-100146708D01*
X72199649Y-100066906D01*
X72216500Y-99982189D01*
X72216500Y-99895811D01*
X72199649Y-99811094D01*
X72166594Y-99731292D01*
X72118605Y-99659472D01*
X72057528Y-99598395D01*
X71985708Y-99550406D01*
X71905906Y-99517351D01*
X71821189Y-99500500D01*
X71734811Y-99500500D01*
X71650094Y-99517351D01*
X71570292Y-99550406D01*
X71498472Y-99598395D01*
X71437395Y-99659472D01*
X71389406Y-99731292D01*
X71356351Y-99811094D01*
X71339500Y-99895811D01*
X61758404Y-99895811D01*
X61787942Y-99876075D01*
X61936075Y-99727942D01*
X62052462Y-99553756D01*
X62132630Y-99360212D01*
X62173500Y-99154746D01*
X62173500Y-98945254D01*
X75286500Y-98945254D01*
X75286500Y-99154746D01*
X75327370Y-99360212D01*
X75407538Y-99553756D01*
X75523925Y-99727942D01*
X75672058Y-99876075D01*
X75846244Y-99992462D01*
X76039788Y-100072630D01*
X76245254Y-100113500D01*
X76454746Y-100113500D01*
X76660212Y-100072630D01*
X76853756Y-99992462D01*
X77027942Y-99876075D01*
X77176075Y-99727942D01*
X77292462Y-99553756D01*
X77372630Y-99360212D01*
X77413500Y-99154746D01*
X77413500Y-98945254D01*
X77372630Y-98739788D01*
X77292462Y-98546244D01*
X77176075Y-98372058D01*
X77027942Y-98223925D01*
X76853756Y-98107538D01*
X76660212Y-98027370D01*
X76454746Y-97986500D01*
X76245254Y-97986500D01*
X76039788Y-98027370D01*
X75846244Y-98107538D01*
X75672058Y-98223925D01*
X75523925Y-98372058D01*
X75407538Y-98546244D01*
X75327370Y-98739788D01*
X75286500Y-98945254D01*
X62173500Y-98945254D01*
X62132630Y-98739788D01*
X62052462Y-98546244D01*
X61936075Y-98372058D01*
X61787942Y-98223925D01*
X61613756Y-98107538D01*
X61420212Y-98027370D01*
X61214746Y-97986500D01*
X61005254Y-97986500D01*
X60799788Y-98027370D01*
X60606244Y-98107538D01*
X60432058Y-98223925D01*
X60283925Y-98372058D01*
X60167538Y-98546244D01*
X60087370Y-98739788D01*
X60046500Y-98945254D01*
X59268500Y-98945254D01*
X59268500Y-96405254D01*
X60046500Y-96405254D01*
X60046500Y-96614746D01*
X60087370Y-96820212D01*
X60167538Y-97013756D01*
X60283925Y-97187942D01*
X60432058Y-97336075D01*
X60606244Y-97452462D01*
X60799788Y-97532630D01*
X61005254Y-97573500D01*
X61214746Y-97573500D01*
X61420212Y-97532630D01*
X61613756Y-97452462D01*
X61787942Y-97336075D01*
X61936075Y-97187942D01*
X62052462Y-97013756D01*
X62132630Y-96820212D01*
X62173500Y-96614746D01*
X62173500Y-96405254D01*
X75286500Y-96405254D01*
X75286500Y-96614746D01*
X75327370Y-96820212D01*
X75407538Y-97013756D01*
X75523925Y-97187942D01*
X75672058Y-97336075D01*
X75846244Y-97452462D01*
X76039788Y-97532630D01*
X76245254Y-97573500D01*
X76454746Y-97573500D01*
X76660212Y-97532630D01*
X76853756Y-97452462D01*
X77027942Y-97336075D01*
X77176075Y-97187942D01*
X77292462Y-97013756D01*
X77372630Y-96820212D01*
X77413500Y-96614746D01*
X77413500Y-96405254D01*
X77372630Y-96199788D01*
X77292462Y-96006244D01*
X77176075Y-95832058D01*
X77027942Y-95683925D01*
X76853756Y-95567538D01*
X76660212Y-95487370D01*
X76454746Y-95446500D01*
X76245254Y-95446500D01*
X76039788Y-95487370D01*
X75846244Y-95567538D01*
X75672058Y-95683925D01*
X75523925Y-95832058D01*
X75407538Y-96006244D01*
X75327370Y-96199788D01*
X75286500Y-96405254D01*
X62173500Y-96405254D01*
X62132630Y-96199788D01*
X62052462Y-96006244D01*
X61936075Y-95832058D01*
X61787942Y-95683925D01*
X61613756Y-95567538D01*
X61420212Y-95487370D01*
X61214746Y-95446500D01*
X61005254Y-95446500D01*
X60799788Y-95487370D01*
X60606244Y-95567538D01*
X60432058Y-95683925D01*
X60283925Y-95832058D01*
X60167538Y-96006244D01*
X60087370Y-96199788D01*
X60046500Y-96405254D01*
X59268500Y-96405254D01*
X59268500Y-93865254D01*
X60046500Y-93865254D01*
X60046500Y-94074746D01*
X60087370Y-94280212D01*
X60167538Y-94473756D01*
X60283925Y-94647942D01*
X60432058Y-94796075D01*
X60606244Y-94912462D01*
X60799788Y-94992630D01*
X61005254Y-95033500D01*
X61214746Y-95033500D01*
X61420212Y-94992630D01*
X61613756Y-94912462D01*
X61689560Y-94861811D01*
X66005500Y-94861811D01*
X66005500Y-94948189D01*
X66022351Y-95032906D01*
X66055406Y-95112708D01*
X66103395Y-95184528D01*
X66164472Y-95245605D01*
X66236292Y-95293594D01*
X66316094Y-95326649D01*
X66400811Y-95343500D01*
X66487189Y-95343500D01*
X66571906Y-95326649D01*
X66651708Y-95293594D01*
X66723528Y-95245605D01*
X66784605Y-95184528D01*
X66832594Y-95112708D01*
X66865649Y-95032906D01*
X66882500Y-94948189D01*
X66882500Y-94861811D01*
X66881506Y-94856811D01*
X70341500Y-94856811D01*
X70341500Y-94943189D01*
X70358351Y-95027906D01*
X70391406Y-95107708D01*
X70439395Y-95179528D01*
X70500472Y-95240605D01*
X70572292Y-95288594D01*
X70652094Y-95321649D01*
X70736811Y-95338500D01*
X70823189Y-95338500D01*
X70907906Y-95321649D01*
X70987708Y-95288594D01*
X71059528Y-95240605D01*
X71120605Y-95179528D01*
X71168594Y-95107708D01*
X71201649Y-95027906D01*
X71218500Y-94943189D01*
X71218500Y-94856811D01*
X71201649Y-94772094D01*
X71168594Y-94692292D01*
X71120605Y-94620472D01*
X71059528Y-94559395D01*
X70987708Y-94511406D01*
X70907906Y-94478351D01*
X70823189Y-94461500D01*
X70736811Y-94461500D01*
X70652094Y-94478351D01*
X70572292Y-94511406D01*
X70500472Y-94559395D01*
X70439395Y-94620472D01*
X70391406Y-94692292D01*
X70358351Y-94772094D01*
X70341500Y-94856811D01*
X66881506Y-94856811D01*
X66865649Y-94777094D01*
X66832594Y-94697292D01*
X66784605Y-94625472D01*
X66723528Y-94564395D01*
X66651708Y-94516406D01*
X66571906Y-94483351D01*
X66487189Y-94466500D01*
X66400811Y-94466500D01*
X66316094Y-94483351D01*
X66236292Y-94516406D01*
X66164472Y-94564395D01*
X66103395Y-94625472D01*
X66055406Y-94697292D01*
X66022351Y-94777094D01*
X66005500Y-94861811D01*
X61689560Y-94861811D01*
X61787942Y-94796075D01*
X61936075Y-94647942D01*
X62052462Y-94473756D01*
X62132630Y-94280212D01*
X62173500Y-94074746D01*
X62173500Y-93865254D01*
X75286500Y-93865254D01*
X75286500Y-94074746D01*
X75327370Y-94280212D01*
X75407538Y-94473756D01*
X75523925Y-94647942D01*
X75672058Y-94796075D01*
X75846244Y-94912462D01*
X76039788Y-94992630D01*
X76245254Y-95033500D01*
X76454746Y-95033500D01*
X76660212Y-94992630D01*
X76853756Y-94912462D01*
X77027942Y-94796075D01*
X77176075Y-94647942D01*
X77292462Y-94473756D01*
X77372630Y-94280212D01*
X77413500Y-94074746D01*
X77413500Y-93865254D01*
X77372630Y-93659788D01*
X77292462Y-93466244D01*
X77176075Y-93292058D01*
X77027942Y-93143925D01*
X76853756Y-93027538D01*
X76660212Y-92947370D01*
X76454746Y-92906500D01*
X76245254Y-92906500D01*
X76039788Y-92947370D01*
X75846244Y-93027538D01*
X75672058Y-93143925D01*
X75523925Y-93292058D01*
X75407538Y-93466244D01*
X75327370Y-93659788D01*
X75286500Y-93865254D01*
X62173500Y-93865254D01*
X62132630Y-93659788D01*
X62052462Y-93466244D01*
X61936075Y-93292058D01*
X61787942Y-93143925D01*
X61613756Y-93027538D01*
X61420212Y-92947370D01*
X61214746Y-92906500D01*
X61005254Y-92906500D01*
X60799788Y-92947370D01*
X60606244Y-93027538D01*
X60432058Y-93143925D01*
X60283925Y-93292058D01*
X60167538Y-93466244D01*
X60087370Y-93659788D01*
X60046500Y-93865254D01*
X59268500Y-93865254D01*
X59268500Y-91325254D01*
X60046500Y-91325254D01*
X60046500Y-91534746D01*
X60087370Y-91740212D01*
X60167538Y-91933756D01*
X60283925Y-92107942D01*
X60432058Y-92256075D01*
X60606244Y-92372462D01*
X60799788Y-92452630D01*
X61005254Y-92493500D01*
X61214746Y-92493500D01*
X61420212Y-92452630D01*
X61613756Y-92372462D01*
X61712009Y-92306811D01*
X65841500Y-92306811D01*
X65841500Y-92393189D01*
X65858351Y-92477906D01*
X65891406Y-92557708D01*
X65939395Y-92629528D01*
X66000472Y-92690605D01*
X66072292Y-92738594D01*
X66152094Y-92771649D01*
X66236811Y-92788500D01*
X66323189Y-92788500D01*
X66407906Y-92771649D01*
X66487708Y-92738594D01*
X66559528Y-92690605D01*
X66620605Y-92629528D01*
X66668594Y-92557708D01*
X66701649Y-92477906D01*
X66718500Y-92393189D01*
X66718500Y-92306811D01*
X66701649Y-92222094D01*
X66668594Y-92142292D01*
X66620605Y-92070472D01*
X66559528Y-92009395D01*
X66487708Y-91961406D01*
X66407906Y-91928351D01*
X66323189Y-91911500D01*
X66236811Y-91911500D01*
X66152094Y-91928351D01*
X66072292Y-91961406D01*
X66000472Y-92009395D01*
X65939395Y-92070472D01*
X65891406Y-92142292D01*
X65858351Y-92222094D01*
X65841500Y-92306811D01*
X61712009Y-92306811D01*
X61787942Y-92256075D01*
X61936075Y-92107942D01*
X62052462Y-91933756D01*
X62132630Y-91740212D01*
X62173500Y-91534746D01*
X62173500Y-91325254D01*
X62132630Y-91119788D01*
X62106545Y-91056811D01*
X66366500Y-91056811D01*
X66366500Y-91143189D01*
X66383351Y-91227906D01*
X66416406Y-91307708D01*
X66464395Y-91379528D01*
X66525472Y-91440605D01*
X66597292Y-91488594D01*
X66677094Y-91521649D01*
X66761811Y-91538500D01*
X66848189Y-91538500D01*
X66932906Y-91521649D01*
X67012708Y-91488594D01*
X67084528Y-91440605D01*
X67145605Y-91379528D01*
X67181870Y-91325254D01*
X75286500Y-91325254D01*
X75286500Y-91534746D01*
X75327370Y-91740212D01*
X75407538Y-91933756D01*
X75523925Y-92107942D01*
X75672058Y-92256075D01*
X75846244Y-92372462D01*
X76039788Y-92452630D01*
X76245254Y-92493500D01*
X76454746Y-92493500D01*
X76660212Y-92452630D01*
X76853756Y-92372462D01*
X77027942Y-92256075D01*
X77176075Y-92107942D01*
X77292462Y-91933756D01*
X77372630Y-91740212D01*
X77413500Y-91534746D01*
X77413500Y-91325254D01*
X77372630Y-91119788D01*
X77292462Y-90926244D01*
X77176075Y-90752058D01*
X77027942Y-90603925D01*
X76853756Y-90487538D01*
X76660212Y-90407370D01*
X76454746Y-90366500D01*
X76245254Y-90366500D01*
X76039788Y-90407370D01*
X75846244Y-90487538D01*
X75672058Y-90603925D01*
X75523925Y-90752058D01*
X75407538Y-90926244D01*
X75327370Y-91119788D01*
X75286500Y-91325254D01*
X67181870Y-91325254D01*
X67193594Y-91307708D01*
X67226649Y-91227906D01*
X67243500Y-91143189D01*
X67243500Y-91056811D01*
X67226649Y-90972094D01*
X67193594Y-90892292D01*
X67145605Y-90820472D01*
X67084528Y-90759395D01*
X67012708Y-90711406D01*
X66932906Y-90678351D01*
X66848189Y-90661500D01*
X66761811Y-90661500D01*
X66677094Y-90678351D01*
X66597292Y-90711406D01*
X66525472Y-90759395D01*
X66464395Y-90820472D01*
X66416406Y-90892292D01*
X66383351Y-90972094D01*
X66366500Y-91056811D01*
X62106545Y-91056811D01*
X62052462Y-90926244D01*
X61936075Y-90752058D01*
X61787942Y-90603925D01*
X61613756Y-90487538D01*
X61420212Y-90407370D01*
X61214746Y-90366500D01*
X61005254Y-90366500D01*
X60799788Y-90407370D01*
X60606244Y-90487538D01*
X60432058Y-90603925D01*
X60283925Y-90752058D01*
X60167538Y-90926244D01*
X60087370Y-91119788D01*
X60046500Y-91325254D01*
X59268500Y-91325254D01*
X59268500Y-88785254D01*
X60046500Y-88785254D01*
X60046500Y-88994746D01*
X60087370Y-89200212D01*
X60167538Y-89393756D01*
X60283925Y-89567942D01*
X60432058Y-89716075D01*
X60606244Y-89832462D01*
X60799788Y-89912630D01*
X61005254Y-89953500D01*
X61214746Y-89953500D01*
X61420212Y-89912630D01*
X61613756Y-89832462D01*
X61787942Y-89716075D01*
X61936075Y-89567942D01*
X62052462Y-89393756D01*
X62132630Y-89200212D01*
X62173500Y-88994746D01*
X62173500Y-88785254D01*
X62147951Y-88656811D01*
X62891500Y-88656811D01*
X62891500Y-88743189D01*
X62908351Y-88827906D01*
X62941406Y-88907708D01*
X62989395Y-88979528D01*
X63034867Y-89025000D01*
X62989395Y-89070472D01*
X62941406Y-89142292D01*
X62908351Y-89222094D01*
X62891500Y-89306811D01*
X62891500Y-89393189D01*
X62908351Y-89477906D01*
X62941406Y-89557708D01*
X62989395Y-89629528D01*
X63050472Y-89690605D01*
X63064532Y-89700000D01*
X63050472Y-89709395D01*
X62989395Y-89770472D01*
X62941406Y-89842292D01*
X62908351Y-89922094D01*
X62891500Y-90006811D01*
X62891500Y-90093189D01*
X62908351Y-90177906D01*
X62941406Y-90257708D01*
X62989395Y-90329528D01*
X63050472Y-90390605D01*
X63122292Y-90438594D01*
X63202094Y-90471649D01*
X63286811Y-90488500D01*
X63373189Y-90488500D01*
X63457906Y-90471649D01*
X63537708Y-90438594D01*
X63609528Y-90390605D01*
X63670605Y-90329528D01*
X63718594Y-90257708D01*
X63751649Y-90177906D01*
X63768500Y-90093189D01*
X63768500Y-90006811D01*
X63751649Y-89922094D01*
X63724608Y-89856811D01*
X66741500Y-89856811D01*
X66741500Y-89943189D01*
X66758351Y-90027906D01*
X66791406Y-90107708D01*
X66839395Y-90179528D01*
X66900472Y-90240605D01*
X66972292Y-90288594D01*
X67052094Y-90321649D01*
X67136811Y-90338500D01*
X67223189Y-90338500D01*
X67307906Y-90321649D01*
X67387708Y-90288594D01*
X67459528Y-90240605D01*
X67520605Y-90179528D01*
X67568594Y-90107708D01*
X67601649Y-90027906D01*
X67618500Y-89943189D01*
X67618500Y-89856811D01*
X67601649Y-89772094D01*
X67568594Y-89692292D01*
X67520605Y-89620472D01*
X67459528Y-89559395D01*
X67387708Y-89511406D01*
X67307906Y-89478351D01*
X67223189Y-89461500D01*
X67136811Y-89461500D01*
X67052094Y-89478351D01*
X66972292Y-89511406D01*
X66900472Y-89559395D01*
X66839395Y-89620472D01*
X66791406Y-89692292D01*
X66758351Y-89772094D01*
X66741500Y-89856811D01*
X63724608Y-89856811D01*
X63718594Y-89842292D01*
X63670605Y-89770472D01*
X63609528Y-89709395D01*
X63595468Y-89700000D01*
X63609528Y-89690605D01*
X63670605Y-89629528D01*
X63718594Y-89557708D01*
X63751649Y-89477906D01*
X63768500Y-89393189D01*
X63768500Y-89306811D01*
X63751649Y-89222094D01*
X63718594Y-89142292D01*
X63670605Y-89070472D01*
X63625133Y-89025000D01*
X63670605Y-88979528D01*
X63718594Y-88907708D01*
X63743571Y-88847408D01*
X63802094Y-88871649D01*
X63886811Y-88888500D01*
X63973189Y-88888500D01*
X64057906Y-88871649D01*
X64137708Y-88838594D01*
X64209528Y-88790605D01*
X64214879Y-88785254D01*
X75286500Y-88785254D01*
X75286500Y-88994746D01*
X75327370Y-89200212D01*
X75407538Y-89393756D01*
X75523925Y-89567942D01*
X75672058Y-89716075D01*
X75846244Y-89832462D01*
X76039788Y-89912630D01*
X76245254Y-89953500D01*
X76454746Y-89953500D01*
X76660212Y-89912630D01*
X76853756Y-89832462D01*
X77027942Y-89716075D01*
X77176075Y-89567942D01*
X77292462Y-89393756D01*
X77372630Y-89200212D01*
X77413500Y-88994746D01*
X77413500Y-88785254D01*
X77372630Y-88579788D01*
X77292462Y-88386244D01*
X77176075Y-88212058D01*
X77027942Y-88063925D01*
X76853756Y-87947538D01*
X76660212Y-87867370D01*
X76454746Y-87826500D01*
X76245254Y-87826500D01*
X76039788Y-87867370D01*
X75846244Y-87947538D01*
X75672058Y-88063925D01*
X75523925Y-88212058D01*
X75407538Y-88386244D01*
X75327370Y-88579788D01*
X75286500Y-88785254D01*
X64214879Y-88785254D01*
X64270605Y-88729528D01*
X64318594Y-88657708D01*
X64351649Y-88577906D01*
X64368500Y-88493189D01*
X64368500Y-88406811D01*
X64351649Y-88322094D01*
X64318594Y-88242292D01*
X64270605Y-88170472D01*
X64225133Y-88125000D01*
X64270605Y-88079528D01*
X64318594Y-88007708D01*
X64351649Y-87927906D01*
X64368500Y-87843189D01*
X64368500Y-87756811D01*
X64351649Y-87672094D01*
X64318594Y-87592292D01*
X64270605Y-87520472D01*
X64225133Y-87475000D01*
X64270605Y-87429528D01*
X64318594Y-87357708D01*
X64343571Y-87297408D01*
X64402094Y-87321649D01*
X64486811Y-87338500D01*
X64573189Y-87338500D01*
X64657906Y-87321649D01*
X64737708Y-87288594D01*
X64809528Y-87240605D01*
X64870605Y-87179528D01*
X64918594Y-87107708D01*
X64951649Y-87027906D01*
X64968500Y-86943189D01*
X64968500Y-86856811D01*
X64951649Y-86772094D01*
X64918594Y-86692292D01*
X64870605Y-86620472D01*
X64825133Y-86575000D01*
X64870605Y-86529528D01*
X64918594Y-86457708D01*
X64951649Y-86377906D01*
X64968500Y-86293189D01*
X64968500Y-86206811D01*
X64951649Y-86122094D01*
X64945319Y-86106811D01*
X73166500Y-86106811D01*
X73166500Y-86193189D01*
X73183351Y-86277906D01*
X73216406Y-86357708D01*
X73264395Y-86429528D01*
X73325472Y-86490605D01*
X73358240Y-86512500D01*
X73325472Y-86534395D01*
X73264395Y-86595472D01*
X73216406Y-86667292D01*
X73183351Y-86747094D01*
X73166500Y-86831811D01*
X73166500Y-86918189D01*
X73183351Y-87002906D01*
X73216406Y-87082708D01*
X73264395Y-87154528D01*
X73325472Y-87215605D01*
X73397292Y-87263594D01*
X73477094Y-87296649D01*
X73561811Y-87313500D01*
X73648189Y-87313500D01*
X73732906Y-87296649D01*
X73812708Y-87263594D01*
X73884528Y-87215605D01*
X73945605Y-87154528D01*
X73993594Y-87082708D01*
X74026649Y-87002906D01*
X74043500Y-86918189D01*
X74043500Y-86831811D01*
X74026649Y-86747094D01*
X73993594Y-86667292D01*
X73945605Y-86595472D01*
X73884528Y-86534395D01*
X73851760Y-86512500D01*
X73884528Y-86490605D01*
X73945605Y-86429528D01*
X73993594Y-86357708D01*
X74026649Y-86277906D01*
X74033143Y-86245254D01*
X75286500Y-86245254D01*
X75286500Y-86454746D01*
X75327370Y-86660212D01*
X75407538Y-86853756D01*
X75523925Y-87027942D01*
X75672058Y-87176075D01*
X75846244Y-87292462D01*
X76039788Y-87372630D01*
X76245254Y-87413500D01*
X76454746Y-87413500D01*
X76660212Y-87372630D01*
X76853756Y-87292462D01*
X77027942Y-87176075D01*
X77176075Y-87027942D01*
X77292462Y-86853756D01*
X77372630Y-86660212D01*
X77413500Y-86454746D01*
X77413500Y-86245254D01*
X77372630Y-86039788D01*
X77292462Y-85846244D01*
X77176075Y-85672058D01*
X77027942Y-85523925D01*
X76853756Y-85407538D01*
X76660212Y-85327370D01*
X76454746Y-85286500D01*
X76245254Y-85286500D01*
X76039788Y-85327370D01*
X75846244Y-85407538D01*
X75672058Y-85523925D01*
X75523925Y-85672058D01*
X75407538Y-85846244D01*
X75327370Y-86039788D01*
X75286500Y-86245254D01*
X74033143Y-86245254D01*
X74043500Y-86193189D01*
X74043500Y-86106811D01*
X74026649Y-86022094D01*
X73993594Y-85942292D01*
X73945605Y-85870472D01*
X73884528Y-85809395D01*
X73812708Y-85761406D01*
X73732906Y-85728351D01*
X73648189Y-85711500D01*
X73561811Y-85711500D01*
X73477094Y-85728351D01*
X73397292Y-85761406D01*
X73325472Y-85809395D01*
X73264395Y-85870472D01*
X73216406Y-85942292D01*
X73183351Y-86022094D01*
X73166500Y-86106811D01*
X64945319Y-86106811D01*
X64918594Y-86042292D01*
X64870605Y-85970472D01*
X64825133Y-85925000D01*
X64870605Y-85879528D01*
X64918594Y-85807708D01*
X64951649Y-85727906D01*
X64968500Y-85643189D01*
X64968500Y-85556811D01*
X64951649Y-85472094D01*
X64918594Y-85392292D01*
X64870605Y-85320472D01*
X64809528Y-85259395D01*
X64737708Y-85211406D01*
X64657906Y-85178351D01*
X64573189Y-85161500D01*
X64486811Y-85161500D01*
X64402094Y-85178351D01*
X64322292Y-85211406D01*
X64250472Y-85259395D01*
X64189395Y-85320472D01*
X64141406Y-85392292D01*
X64108351Y-85472094D01*
X64091500Y-85556811D01*
X64091500Y-85643189D01*
X64108351Y-85727906D01*
X64141406Y-85807708D01*
X64189395Y-85879528D01*
X64234867Y-85925000D01*
X64189395Y-85970472D01*
X64141406Y-86042292D01*
X64108351Y-86122094D01*
X64091500Y-86206811D01*
X64091500Y-86293189D01*
X64108351Y-86377906D01*
X64141406Y-86457708D01*
X64189395Y-86529528D01*
X64234867Y-86575000D01*
X64189395Y-86620472D01*
X64141406Y-86692292D01*
X64116429Y-86752592D01*
X64057906Y-86728351D01*
X63973189Y-86711500D01*
X63886811Y-86711500D01*
X63802094Y-86728351D01*
X63722292Y-86761406D01*
X63650472Y-86809395D01*
X63589395Y-86870472D01*
X63541406Y-86942292D01*
X63508351Y-87022094D01*
X63491500Y-87106811D01*
X63491500Y-87193189D01*
X63508351Y-87277906D01*
X63541406Y-87357708D01*
X63589395Y-87429528D01*
X63634867Y-87475000D01*
X63589395Y-87520472D01*
X63541406Y-87592292D01*
X63508351Y-87672094D01*
X63491500Y-87756811D01*
X63491500Y-87843189D01*
X63508351Y-87927906D01*
X63541406Y-88007708D01*
X63589395Y-88079528D01*
X63634867Y-88125000D01*
X63589395Y-88170472D01*
X63541406Y-88242292D01*
X63516429Y-88302592D01*
X63457906Y-88278351D01*
X63373189Y-88261500D01*
X63286811Y-88261500D01*
X63202094Y-88278351D01*
X63122292Y-88311406D01*
X63050472Y-88359395D01*
X62989395Y-88420472D01*
X62941406Y-88492292D01*
X62908351Y-88572094D01*
X62891500Y-88656811D01*
X62147951Y-88656811D01*
X62132630Y-88579788D01*
X62052462Y-88386244D01*
X61936075Y-88212058D01*
X61787942Y-88063925D01*
X61613756Y-87947538D01*
X61420212Y-87867370D01*
X61214746Y-87826500D01*
X61005254Y-87826500D01*
X60799788Y-87867370D01*
X60606244Y-87947538D01*
X60432058Y-88063925D01*
X60283925Y-88212058D01*
X60167538Y-88386244D01*
X60087370Y-88579788D01*
X60046500Y-88785254D01*
X59268500Y-88785254D01*
X59268500Y-86245254D01*
X60046500Y-86245254D01*
X60046500Y-86454746D01*
X60087370Y-86660212D01*
X60167538Y-86853756D01*
X60283925Y-87027942D01*
X60432058Y-87176075D01*
X60606244Y-87292462D01*
X60799788Y-87372630D01*
X61005254Y-87413500D01*
X61214746Y-87413500D01*
X61420212Y-87372630D01*
X61613756Y-87292462D01*
X61787942Y-87176075D01*
X61936075Y-87027942D01*
X62052462Y-86853756D01*
X62132630Y-86660212D01*
X62173500Y-86454746D01*
X62173500Y-86245254D01*
X62132630Y-86039788D01*
X62052462Y-85846244D01*
X61936075Y-85672058D01*
X61787942Y-85523925D01*
X61613756Y-85407538D01*
X61420212Y-85327370D01*
X61214746Y-85286500D01*
X61005254Y-85286500D01*
X60799788Y-85327370D01*
X60606244Y-85407538D01*
X60432058Y-85523925D01*
X60283925Y-85672058D01*
X60167538Y-85846244D01*
X60087370Y-86039788D01*
X60046500Y-86245254D01*
X59268500Y-86245254D01*
X59268500Y-83705254D01*
X60046500Y-83705254D01*
X60046500Y-83914746D01*
X60087370Y-84120212D01*
X60167538Y-84313756D01*
X60283925Y-84487942D01*
X60432058Y-84636075D01*
X60606244Y-84752462D01*
X60799788Y-84832630D01*
X61005254Y-84873500D01*
X61214746Y-84873500D01*
X61420212Y-84832630D01*
X61613756Y-84752462D01*
X61787942Y-84636075D01*
X61936075Y-84487942D01*
X62052462Y-84313756D01*
X62132630Y-84120212D01*
X62173500Y-83914746D01*
X62173500Y-83705254D01*
X62132630Y-83499788D01*
X62052462Y-83306244D01*
X62019433Y-83256811D01*
X64691500Y-83256811D01*
X64691500Y-83343189D01*
X64708351Y-83427906D01*
X64741406Y-83507708D01*
X64789395Y-83579528D01*
X64850472Y-83640605D01*
X64922292Y-83688594D01*
X65002094Y-83721649D01*
X65086811Y-83738500D01*
X65173189Y-83738500D01*
X65257906Y-83721649D01*
X65337708Y-83688594D01*
X65409528Y-83640605D01*
X65470605Y-83579528D01*
X65518594Y-83507708D01*
X65551649Y-83427906D01*
X65560819Y-83381801D01*
X65941500Y-83381801D01*
X65941500Y-83468179D01*
X65958351Y-83552896D01*
X65991406Y-83632698D01*
X66039395Y-83704518D01*
X66100472Y-83765595D01*
X66172292Y-83813584D01*
X66252094Y-83846639D01*
X66336811Y-83863490D01*
X66423189Y-83863490D01*
X66507906Y-83846639D01*
X66587708Y-83813584D01*
X66659528Y-83765595D01*
X66719869Y-83705254D01*
X75286500Y-83705254D01*
X75286500Y-83914746D01*
X75327370Y-84120212D01*
X75407538Y-84313756D01*
X75523925Y-84487942D01*
X75672058Y-84636075D01*
X75846244Y-84752462D01*
X76039788Y-84832630D01*
X76245254Y-84873500D01*
X76454746Y-84873500D01*
X76660212Y-84832630D01*
X76853756Y-84752462D01*
X77027942Y-84636075D01*
X77176075Y-84487942D01*
X77292462Y-84313756D01*
X77372630Y-84120212D01*
X77413500Y-83914746D01*
X77413500Y-83705254D01*
X77372630Y-83499788D01*
X77292462Y-83306244D01*
X77176075Y-83132058D01*
X77027942Y-82983925D01*
X76853756Y-82867538D01*
X76660212Y-82787370D01*
X76454746Y-82746500D01*
X76245254Y-82746500D01*
X76039788Y-82787370D01*
X75846244Y-82867538D01*
X75672058Y-82983925D01*
X75523925Y-83132058D01*
X75407538Y-83306244D01*
X75327370Y-83499788D01*
X75286500Y-83705254D01*
X66719869Y-83705254D01*
X66720605Y-83704518D01*
X66768594Y-83632698D01*
X66801649Y-83552896D01*
X66818500Y-83468179D01*
X66818500Y-83381801D01*
X66801649Y-83297084D01*
X66768594Y-83217282D01*
X66720605Y-83145462D01*
X66659528Y-83084385D01*
X66587708Y-83036396D01*
X66516284Y-83006811D01*
X70941500Y-83006811D01*
X70941500Y-83093189D01*
X70958351Y-83177906D01*
X70991406Y-83257708D01*
X71039395Y-83329528D01*
X71100472Y-83390605D01*
X71172292Y-83438594D01*
X71252094Y-83471649D01*
X71336811Y-83488500D01*
X71423189Y-83488500D01*
X71507906Y-83471649D01*
X71587708Y-83438594D01*
X71659528Y-83390605D01*
X71720605Y-83329528D01*
X71768594Y-83257708D01*
X71801649Y-83177906D01*
X71818500Y-83093189D01*
X71818500Y-83006811D01*
X71801649Y-82922094D01*
X71768594Y-82842292D01*
X71720605Y-82770472D01*
X71659528Y-82709395D01*
X71587708Y-82661406D01*
X71507906Y-82628351D01*
X71423189Y-82611500D01*
X71336811Y-82611500D01*
X71252094Y-82628351D01*
X71172292Y-82661406D01*
X71100472Y-82709395D01*
X71039395Y-82770472D01*
X70991406Y-82842292D01*
X70958351Y-82922094D01*
X70941500Y-83006811D01*
X66516284Y-83006811D01*
X66507906Y-83003341D01*
X66423189Y-82986490D01*
X66336811Y-82986490D01*
X66252094Y-83003341D01*
X66172292Y-83036396D01*
X66100472Y-83084385D01*
X66039395Y-83145462D01*
X65991406Y-83217282D01*
X65958351Y-83297084D01*
X65941500Y-83381801D01*
X65560819Y-83381801D01*
X65568500Y-83343189D01*
X65568500Y-83256811D01*
X65551649Y-83172094D01*
X65518594Y-83092292D01*
X65470605Y-83020472D01*
X65409528Y-82959395D01*
X65337708Y-82911406D01*
X65257906Y-82878351D01*
X65173189Y-82861500D01*
X65086811Y-82861500D01*
X65002094Y-82878351D01*
X64922292Y-82911406D01*
X64850472Y-82959395D01*
X64789395Y-83020472D01*
X64741406Y-83092292D01*
X64708351Y-83172094D01*
X64691500Y-83256811D01*
X62019433Y-83256811D01*
X61936075Y-83132058D01*
X61787942Y-82983925D01*
X61613756Y-82867538D01*
X61420212Y-82787370D01*
X61214746Y-82746500D01*
X61005254Y-82746500D01*
X60799788Y-82787370D01*
X60606244Y-82867538D01*
X60432058Y-82983925D01*
X60283925Y-83132058D01*
X60167538Y-83306244D01*
X60087370Y-83499788D01*
X60046500Y-83705254D01*
X59268500Y-83705254D01*
X59268500Y-82406811D01*
X72091500Y-82406811D01*
X72091500Y-82493189D01*
X72108351Y-82577906D01*
X72141406Y-82657708D01*
X72189395Y-82729528D01*
X72250472Y-82790605D01*
X72322292Y-82838594D01*
X72402094Y-82871649D01*
X72486811Y-82888500D01*
X72573189Y-82888500D01*
X72657906Y-82871649D01*
X72737708Y-82838594D01*
X72809528Y-82790605D01*
X72870605Y-82729528D01*
X72918594Y-82657708D01*
X72951649Y-82577906D01*
X72968500Y-82493189D01*
X72968500Y-82406811D01*
X72951649Y-82322094D01*
X72918594Y-82242292D01*
X72870605Y-82170472D01*
X72809528Y-82109395D01*
X72737708Y-82061406D01*
X72657906Y-82028351D01*
X72573189Y-82011500D01*
X72486811Y-82011500D01*
X72402094Y-82028351D01*
X72322292Y-82061406D01*
X72250472Y-82109395D01*
X72189395Y-82170472D01*
X72141406Y-82242292D01*
X72108351Y-82322094D01*
X72091500Y-82406811D01*
X59268500Y-82406811D01*
X59268500Y-81165254D01*
X60046500Y-81165254D01*
X60046500Y-81374746D01*
X60087370Y-81580212D01*
X60167538Y-81773756D01*
X60283925Y-81947942D01*
X60432058Y-82096075D01*
X60606244Y-82212462D01*
X60799788Y-82292630D01*
X61005254Y-82333500D01*
X61214746Y-82333500D01*
X61420212Y-82292630D01*
X61613756Y-82212462D01*
X61787942Y-82096075D01*
X61936075Y-81947942D01*
X62052462Y-81773756D01*
X62059480Y-81756811D01*
X64591500Y-81756811D01*
X64591500Y-81843189D01*
X64608351Y-81927906D01*
X64641406Y-82007708D01*
X64689395Y-82079528D01*
X64750472Y-82140605D01*
X64822292Y-82188594D01*
X64902094Y-82221649D01*
X64986811Y-82238500D01*
X65073189Y-82238500D01*
X65157906Y-82221649D01*
X65237708Y-82188594D01*
X65309528Y-82140605D01*
X65370605Y-82079528D01*
X65418594Y-82007708D01*
X65451649Y-81927906D01*
X65468500Y-81843189D01*
X65468500Y-81756811D01*
X65451649Y-81672094D01*
X65418594Y-81592292D01*
X65370605Y-81520472D01*
X65309528Y-81459395D01*
X65237708Y-81411406D01*
X65157906Y-81378351D01*
X65073189Y-81361500D01*
X64986811Y-81361500D01*
X64902094Y-81378351D01*
X64822292Y-81411406D01*
X64750472Y-81459395D01*
X64689395Y-81520472D01*
X64641406Y-81592292D01*
X64608351Y-81672094D01*
X64591500Y-81756811D01*
X62059480Y-81756811D01*
X62132630Y-81580212D01*
X62173500Y-81374746D01*
X62173500Y-81331821D01*
X65841500Y-81331821D01*
X65841500Y-81418199D01*
X65858351Y-81502916D01*
X65891406Y-81582718D01*
X65939395Y-81654538D01*
X65960764Y-81675907D01*
X65916406Y-81742292D01*
X65883351Y-81822094D01*
X65866500Y-81906811D01*
X65866500Y-81993189D01*
X65883351Y-82077906D01*
X65916406Y-82157708D01*
X65964395Y-82229528D01*
X66025472Y-82290605D01*
X66097292Y-82338594D01*
X66177094Y-82371649D01*
X66261811Y-82388500D01*
X66348189Y-82388500D01*
X66432906Y-82371649D01*
X66512708Y-82338594D01*
X66584528Y-82290605D01*
X66645605Y-82229528D01*
X66693594Y-82157708D01*
X66726649Y-82077906D01*
X66743500Y-81993189D01*
X66743500Y-81906811D01*
X66726649Y-81822094D01*
X66693594Y-81742292D01*
X66645605Y-81670472D01*
X66624236Y-81649103D01*
X66668594Y-81582718D01*
X66701649Y-81502916D01*
X66718500Y-81418199D01*
X66718500Y-81331821D01*
X66701649Y-81247104D01*
X66668594Y-81167302D01*
X66667226Y-81165254D01*
X75286500Y-81165254D01*
X75286500Y-81374746D01*
X75327370Y-81580212D01*
X75407538Y-81773756D01*
X75523925Y-81947942D01*
X75672058Y-82096075D01*
X75846244Y-82212462D01*
X76039788Y-82292630D01*
X76245254Y-82333500D01*
X76454746Y-82333500D01*
X76660212Y-82292630D01*
X76853756Y-82212462D01*
X77027942Y-82096075D01*
X77176075Y-81947942D01*
X77292462Y-81773756D01*
X77372630Y-81580212D01*
X77413500Y-81374746D01*
X77413500Y-81165254D01*
X77372630Y-80959788D01*
X77292462Y-80766244D01*
X77176075Y-80592058D01*
X77027942Y-80443925D01*
X76853756Y-80327538D01*
X76660212Y-80247370D01*
X76454746Y-80206500D01*
X76245254Y-80206500D01*
X76039788Y-80247370D01*
X75846244Y-80327538D01*
X75672058Y-80443925D01*
X75523925Y-80592058D01*
X75407538Y-80766244D01*
X75327370Y-80959788D01*
X75286500Y-81165254D01*
X66667226Y-81165254D01*
X66620605Y-81095482D01*
X66559528Y-81034405D01*
X66487708Y-80986416D01*
X66407906Y-80953361D01*
X66323189Y-80936510D01*
X66236811Y-80936510D01*
X66152094Y-80953361D01*
X66072292Y-80986416D01*
X66000472Y-81034405D01*
X65939395Y-81095482D01*
X65891406Y-81167302D01*
X65858351Y-81247104D01*
X65841500Y-81331821D01*
X62173500Y-81331821D01*
X62173500Y-81165254D01*
X62132630Y-80959788D01*
X62052462Y-80766244D01*
X61936075Y-80592058D01*
X61787942Y-80443925D01*
X61613756Y-80327538D01*
X61420212Y-80247370D01*
X61214746Y-80206500D01*
X61005254Y-80206500D01*
X60799788Y-80247370D01*
X60606244Y-80327538D01*
X60432058Y-80443925D01*
X60283925Y-80592058D01*
X60167538Y-80766244D01*
X60087370Y-80959788D01*
X60046500Y-81165254D01*
X59268500Y-81165254D01*
X59268500Y-78625254D01*
X60046500Y-78625254D01*
X60046500Y-78834746D01*
X60087370Y-79040212D01*
X60167538Y-79233756D01*
X60283925Y-79407942D01*
X60432058Y-79556075D01*
X60606244Y-79672462D01*
X60799788Y-79752630D01*
X61005254Y-79793500D01*
X61214746Y-79793500D01*
X61420212Y-79752630D01*
X61613756Y-79672462D01*
X61787942Y-79556075D01*
X61936075Y-79407942D01*
X61986943Y-79331811D01*
X70816500Y-79331811D01*
X70816500Y-79418189D01*
X70833351Y-79502906D01*
X70866406Y-79582708D01*
X70914395Y-79654528D01*
X70975472Y-79715605D01*
X71047292Y-79763594D01*
X71127094Y-79796649D01*
X71211811Y-79813500D01*
X71298189Y-79813500D01*
X71382906Y-79796649D01*
X71462708Y-79763594D01*
X71534528Y-79715605D01*
X71595605Y-79654528D01*
X71643594Y-79582708D01*
X71676649Y-79502906D01*
X71693500Y-79418189D01*
X71693500Y-79331811D01*
X71676649Y-79247094D01*
X71643594Y-79167292D01*
X71595605Y-79095472D01*
X71534528Y-79034395D01*
X71462708Y-78986406D01*
X71382906Y-78953351D01*
X71298189Y-78936500D01*
X71211811Y-78936500D01*
X71127094Y-78953351D01*
X71047292Y-78986406D01*
X70975472Y-79034395D01*
X70914395Y-79095472D01*
X70866406Y-79167292D01*
X70833351Y-79247094D01*
X70816500Y-79331811D01*
X61986943Y-79331811D01*
X62052462Y-79233756D01*
X62132630Y-79040212D01*
X62173500Y-78834746D01*
X62173500Y-78681811D01*
X71491500Y-78681811D01*
X71491500Y-78768189D01*
X71508351Y-78852906D01*
X71541406Y-78932708D01*
X71589395Y-79004528D01*
X71650472Y-79065605D01*
X71722292Y-79113594D01*
X71802094Y-79146649D01*
X71886811Y-79163500D01*
X71973189Y-79163500D01*
X72057906Y-79146649D01*
X72137708Y-79113594D01*
X72209528Y-79065605D01*
X72270605Y-79004528D01*
X72318594Y-78932708D01*
X72351649Y-78852906D01*
X72368500Y-78768189D01*
X72368500Y-78681811D01*
X72357251Y-78625254D01*
X75286500Y-78625254D01*
X75286500Y-78834746D01*
X75327370Y-79040212D01*
X75407538Y-79233756D01*
X75523925Y-79407942D01*
X75672058Y-79556075D01*
X75846244Y-79672462D01*
X76039788Y-79752630D01*
X76245254Y-79793500D01*
X76454746Y-79793500D01*
X76660212Y-79752630D01*
X76853756Y-79672462D01*
X77027942Y-79556075D01*
X77176075Y-79407942D01*
X77292462Y-79233756D01*
X77372630Y-79040212D01*
X77413500Y-78834746D01*
X77413500Y-78625254D01*
X77372630Y-78419788D01*
X77292462Y-78226244D01*
X77176075Y-78052058D01*
X77027942Y-77903925D01*
X76853756Y-77787538D01*
X76660212Y-77707370D01*
X76454746Y-77666500D01*
X76245254Y-77666500D01*
X76039788Y-77707370D01*
X75846244Y-77787538D01*
X75672058Y-77903925D01*
X75523925Y-78052058D01*
X75407538Y-78226244D01*
X75327370Y-78419788D01*
X75286500Y-78625254D01*
X72357251Y-78625254D01*
X72351649Y-78597094D01*
X72318594Y-78517292D01*
X72270605Y-78445472D01*
X72209528Y-78384395D01*
X72137708Y-78336406D01*
X72057906Y-78303351D01*
X71973189Y-78286500D01*
X71886811Y-78286500D01*
X71802094Y-78303351D01*
X71722292Y-78336406D01*
X71650472Y-78384395D01*
X71589395Y-78445472D01*
X71541406Y-78517292D01*
X71508351Y-78597094D01*
X71491500Y-78681811D01*
X62173500Y-78681811D01*
X62173500Y-78625254D01*
X62132630Y-78419788D01*
X62052462Y-78226244D01*
X61936075Y-78052058D01*
X61787942Y-77903925D01*
X61717431Y-77856811D01*
X66091500Y-77856811D01*
X66091500Y-77943189D01*
X66108351Y-78027906D01*
X66141406Y-78107708D01*
X66189395Y-78179528D01*
X66250472Y-78240605D01*
X66322292Y-78288594D01*
X66402094Y-78321649D01*
X66486811Y-78338500D01*
X66573189Y-78338500D01*
X66657906Y-78321649D01*
X66737708Y-78288594D01*
X66809528Y-78240605D01*
X66870605Y-78179528D01*
X66918594Y-78107708D01*
X66951649Y-78027906D01*
X66968500Y-77943189D01*
X66968500Y-77856811D01*
X66951649Y-77772094D01*
X66918594Y-77692292D01*
X66870605Y-77620472D01*
X66809528Y-77559395D01*
X66737708Y-77511406D01*
X66657906Y-77478351D01*
X66573189Y-77461500D01*
X66486811Y-77461500D01*
X66402094Y-77478351D01*
X66322292Y-77511406D01*
X66250472Y-77559395D01*
X66189395Y-77620472D01*
X66141406Y-77692292D01*
X66108351Y-77772094D01*
X66091500Y-77856811D01*
X61717431Y-77856811D01*
X61613756Y-77787538D01*
X61420212Y-77707370D01*
X61214746Y-77666500D01*
X61005254Y-77666500D01*
X60799788Y-77707370D01*
X60606244Y-77787538D01*
X60432058Y-77903925D01*
X60283925Y-78052058D01*
X60167538Y-78226244D01*
X60087370Y-78419788D01*
X60046500Y-78625254D01*
X59268500Y-78625254D01*
X59268500Y-76085254D01*
X60046500Y-76085254D01*
X60046500Y-76294746D01*
X60087370Y-76500212D01*
X60167538Y-76693756D01*
X60283925Y-76867942D01*
X60432058Y-77016075D01*
X60606244Y-77132462D01*
X60799788Y-77212630D01*
X61005254Y-77253500D01*
X61214746Y-77253500D01*
X61420212Y-77212630D01*
X61613756Y-77132462D01*
X61787942Y-77016075D01*
X61897206Y-76906811D01*
X64791500Y-76906811D01*
X64791500Y-76993189D01*
X64808351Y-77077906D01*
X64841406Y-77157708D01*
X64889395Y-77229528D01*
X64950472Y-77290605D01*
X65022292Y-77338594D01*
X65102094Y-77371649D01*
X65186811Y-77388500D01*
X65273189Y-77388500D01*
X65357906Y-77371649D01*
X65437708Y-77338594D01*
X65509528Y-77290605D01*
X65570605Y-77229528D01*
X65618594Y-77157708D01*
X65651649Y-77077906D01*
X65668500Y-76993189D01*
X65668500Y-76906811D01*
X65651649Y-76822094D01*
X65618594Y-76742292D01*
X65611591Y-76731811D01*
X69541500Y-76731811D01*
X69541500Y-76818189D01*
X69558351Y-76902906D01*
X69591406Y-76982708D01*
X69639395Y-77054528D01*
X69700472Y-77115605D01*
X69772292Y-77163594D01*
X69852094Y-77196649D01*
X69936811Y-77213500D01*
X70023189Y-77213500D01*
X70107906Y-77196649D01*
X70187708Y-77163594D01*
X70259528Y-77115605D01*
X70320605Y-77054528D01*
X70368594Y-76982708D01*
X70389676Y-76931811D01*
X72891498Y-76931811D01*
X72891498Y-77018189D01*
X72908349Y-77102906D01*
X72941404Y-77182708D01*
X72989393Y-77254528D01*
X73050470Y-77315605D01*
X73122290Y-77363594D01*
X73202092Y-77396649D01*
X73286809Y-77413500D01*
X73373187Y-77413500D01*
X73457904Y-77396649D01*
X73537706Y-77363594D01*
X73609526Y-77315605D01*
X73670603Y-77254528D01*
X73718592Y-77182708D01*
X73751647Y-77102906D01*
X73768498Y-77018189D01*
X73768498Y-76931811D01*
X73751647Y-76847094D01*
X73718592Y-76767292D01*
X73670603Y-76695472D01*
X73609526Y-76634395D01*
X73537706Y-76586406D01*
X73457904Y-76553351D01*
X73373187Y-76536500D01*
X73286809Y-76536500D01*
X73202092Y-76553351D01*
X73122290Y-76586406D01*
X73050470Y-76634395D01*
X72989393Y-76695472D01*
X72941404Y-76767292D01*
X72908349Y-76847094D01*
X72891498Y-76931811D01*
X70389676Y-76931811D01*
X70401649Y-76902906D01*
X70418500Y-76818189D01*
X70418500Y-76731811D01*
X70401649Y-76647094D01*
X70368594Y-76567292D01*
X70320605Y-76495472D01*
X70259528Y-76434395D01*
X70187708Y-76386406D01*
X70107906Y-76353351D01*
X70023189Y-76336500D01*
X69936811Y-76336500D01*
X69852094Y-76353351D01*
X69772292Y-76386406D01*
X69700472Y-76434395D01*
X69639395Y-76495472D01*
X69591406Y-76567292D01*
X69558351Y-76647094D01*
X69541500Y-76731811D01*
X65611591Y-76731811D01*
X65570605Y-76670472D01*
X65509528Y-76609395D01*
X65437708Y-76561406D01*
X65357906Y-76528351D01*
X65273189Y-76511500D01*
X65186811Y-76511500D01*
X65102094Y-76528351D01*
X65022292Y-76561406D01*
X64950472Y-76609395D01*
X64889395Y-76670472D01*
X64841406Y-76742292D01*
X64808351Y-76822094D01*
X64791500Y-76906811D01*
X61897206Y-76906811D01*
X61936075Y-76867942D01*
X62052462Y-76693756D01*
X62132630Y-76500212D01*
X62173500Y-76294746D01*
X62173500Y-76085254D01*
X62132630Y-75879788D01*
X62052462Y-75686244D01*
X61999387Y-75606811D01*
X65191500Y-75606811D01*
X65191500Y-75693189D01*
X65208351Y-75777906D01*
X65241406Y-75857708D01*
X65289395Y-75929528D01*
X65350472Y-75990605D01*
X65422292Y-76038594D01*
X65502094Y-76071649D01*
X65586811Y-76088500D01*
X65673189Y-76088500D01*
X65757906Y-76071649D01*
X65837708Y-76038594D01*
X65909528Y-75990605D01*
X65970605Y-75929528D01*
X66018594Y-75857708D01*
X66039676Y-75806811D01*
X66841500Y-75806811D01*
X66841500Y-75893189D01*
X66858351Y-75977906D01*
X66891406Y-76057708D01*
X66939395Y-76129528D01*
X67000472Y-76190605D01*
X67072292Y-76238594D01*
X67152094Y-76271649D01*
X67236811Y-76288500D01*
X67323189Y-76288500D01*
X67407906Y-76271649D01*
X67487708Y-76238594D01*
X67559528Y-76190605D01*
X67620605Y-76129528D01*
X67668594Y-76057708D01*
X67701649Y-75977906D01*
X67703496Y-75968619D01*
X67725482Y-75990605D01*
X67797302Y-76038594D01*
X67877104Y-76071649D01*
X67961821Y-76088500D01*
X68048199Y-76088500D01*
X68132916Y-76071649D01*
X68212718Y-76038594D01*
X68284538Y-75990605D01*
X68343332Y-75931811D01*
X73016500Y-75931811D01*
X73016500Y-76018189D01*
X73033351Y-76102906D01*
X73066406Y-76182708D01*
X73114395Y-76254528D01*
X73175472Y-76315605D01*
X73247292Y-76363594D01*
X73327094Y-76396649D01*
X73411811Y-76413500D01*
X73498189Y-76413500D01*
X73582906Y-76396649D01*
X73662708Y-76363594D01*
X73734528Y-76315605D01*
X73795605Y-76254528D01*
X73843594Y-76182708D01*
X73876649Y-76102906D01*
X73880160Y-76085254D01*
X75286500Y-76085254D01*
X75286500Y-76294746D01*
X75327370Y-76500212D01*
X75407538Y-76693756D01*
X75523925Y-76867942D01*
X75672058Y-77016075D01*
X75846244Y-77132462D01*
X76039788Y-77212630D01*
X76245254Y-77253500D01*
X76454746Y-77253500D01*
X76660212Y-77212630D01*
X76853756Y-77132462D01*
X77027942Y-77016075D01*
X77176075Y-76867942D01*
X77292462Y-76693756D01*
X77372630Y-76500212D01*
X77413500Y-76294746D01*
X77413500Y-76085254D01*
X77372630Y-75879788D01*
X77292462Y-75686244D01*
X77176075Y-75512058D01*
X77027942Y-75363925D01*
X76853756Y-75247538D01*
X76660212Y-75167370D01*
X76454746Y-75126500D01*
X76245254Y-75126500D01*
X76039788Y-75167370D01*
X75846244Y-75247538D01*
X75672058Y-75363925D01*
X75523925Y-75512058D01*
X75407538Y-75686244D01*
X75327370Y-75879788D01*
X75286500Y-76085254D01*
X73880160Y-76085254D01*
X73893500Y-76018189D01*
X73893500Y-75931811D01*
X73876649Y-75847094D01*
X73843594Y-75767292D01*
X73795605Y-75695472D01*
X73734528Y-75634395D01*
X73662708Y-75586406D01*
X73582906Y-75553351D01*
X73498189Y-75536500D01*
X73411811Y-75536500D01*
X73327094Y-75553351D01*
X73247292Y-75586406D01*
X73175472Y-75634395D01*
X73114395Y-75695472D01*
X73066406Y-75767292D01*
X73033351Y-75847094D01*
X73016500Y-75931811D01*
X68343332Y-75931811D01*
X68345615Y-75929528D01*
X68393604Y-75857708D01*
X68426659Y-75777906D01*
X68443510Y-75693189D01*
X68443510Y-75683643D01*
X68500472Y-75740605D01*
X68572292Y-75788594D01*
X68652094Y-75821649D01*
X68736811Y-75838500D01*
X68823189Y-75838500D01*
X68907906Y-75821649D01*
X68987708Y-75788594D01*
X69059528Y-75740605D01*
X69120605Y-75679528D01*
X69168594Y-75607708D01*
X69201649Y-75527906D01*
X69218500Y-75443189D01*
X69218500Y-75406811D01*
X70316500Y-75406811D01*
X70316500Y-75493189D01*
X70333351Y-75577906D01*
X70366406Y-75657708D01*
X70414395Y-75729528D01*
X70475472Y-75790605D01*
X70547292Y-75838594D01*
X70627094Y-75871649D01*
X70711811Y-75888500D01*
X70798189Y-75888500D01*
X70882906Y-75871649D01*
X70962708Y-75838594D01*
X71034528Y-75790605D01*
X71095605Y-75729528D01*
X71143594Y-75657708D01*
X71176649Y-75577906D01*
X71193500Y-75493189D01*
X71193500Y-75406811D01*
X71176649Y-75322094D01*
X71143594Y-75242292D01*
X71095605Y-75170472D01*
X71034528Y-75109395D01*
X70962708Y-75061406D01*
X70882906Y-75028351D01*
X70798189Y-75011500D01*
X70711811Y-75011500D01*
X70627094Y-75028351D01*
X70547292Y-75061406D01*
X70475472Y-75109395D01*
X70414395Y-75170472D01*
X70366406Y-75242292D01*
X70333351Y-75322094D01*
X70316500Y-75406811D01*
X69218500Y-75406811D01*
X69218500Y-75356811D01*
X69201649Y-75272094D01*
X69168594Y-75192292D01*
X69120605Y-75120472D01*
X69059528Y-75059395D01*
X68987708Y-75011406D01*
X68907906Y-74978351D01*
X68823189Y-74961500D01*
X68736811Y-74961500D01*
X68652094Y-74978351D01*
X68572292Y-75011406D01*
X68500472Y-75059395D01*
X68439395Y-75120472D01*
X68391406Y-75192292D01*
X68358351Y-75272094D01*
X68341500Y-75356811D01*
X68341500Y-75366357D01*
X68284538Y-75309395D01*
X68212718Y-75261406D01*
X68132916Y-75228351D01*
X68048199Y-75211500D01*
X67961821Y-75211500D01*
X67877104Y-75228351D01*
X67797302Y-75261406D01*
X67725482Y-75309395D01*
X67664405Y-75370472D01*
X67616416Y-75442292D01*
X67583361Y-75522094D01*
X67581514Y-75531381D01*
X67559528Y-75509395D01*
X67487708Y-75461406D01*
X67407906Y-75428351D01*
X67323189Y-75411500D01*
X67236811Y-75411500D01*
X67152094Y-75428351D01*
X67072292Y-75461406D01*
X67000472Y-75509395D01*
X66939395Y-75570472D01*
X66891406Y-75642292D01*
X66858351Y-75722094D01*
X66841500Y-75806811D01*
X66039676Y-75806811D01*
X66051649Y-75777906D01*
X66068500Y-75693189D01*
X66068500Y-75606811D01*
X66051649Y-75522094D01*
X66018594Y-75442292D01*
X65970605Y-75370472D01*
X65909528Y-75309395D01*
X65837708Y-75261406D01*
X65757906Y-75228351D01*
X65673189Y-75211500D01*
X65586811Y-75211500D01*
X65502094Y-75228351D01*
X65422292Y-75261406D01*
X65350472Y-75309395D01*
X65289395Y-75370472D01*
X65241406Y-75442292D01*
X65208351Y-75522094D01*
X65191500Y-75606811D01*
X61999387Y-75606811D01*
X61936075Y-75512058D01*
X61787942Y-75363925D01*
X61613756Y-75247538D01*
X61420212Y-75167370D01*
X61214746Y-75126500D01*
X61005254Y-75126500D01*
X60799788Y-75167370D01*
X60606244Y-75247538D01*
X60432058Y-75363925D01*
X60283925Y-75512058D01*
X60167538Y-75686244D01*
X60087370Y-75879788D01*
X60046500Y-76085254D01*
X59268500Y-76085254D01*
X59268500Y-73545254D01*
X60046500Y-73545254D01*
X60046500Y-73754746D01*
X60087370Y-73960212D01*
X60167538Y-74153756D01*
X60283925Y-74327942D01*
X60432058Y-74476075D01*
X60606244Y-74592462D01*
X60799788Y-74672630D01*
X61005254Y-74713500D01*
X61214746Y-74713500D01*
X61420212Y-74672630D01*
X61613756Y-74592462D01*
X61741942Y-74506811D01*
X70691500Y-74506811D01*
X70691500Y-74593189D01*
X70708351Y-74677906D01*
X70741406Y-74757708D01*
X70789395Y-74829528D01*
X70850472Y-74890605D01*
X70922292Y-74938594D01*
X71002094Y-74971649D01*
X71086811Y-74988500D01*
X71173189Y-74988500D01*
X71257906Y-74971649D01*
X71337708Y-74938594D01*
X71409528Y-74890605D01*
X71470605Y-74829528D01*
X71518594Y-74757708D01*
X71551649Y-74677906D01*
X71568500Y-74593189D01*
X71568500Y-74506811D01*
X71551649Y-74422094D01*
X71518594Y-74342292D01*
X71470605Y-74270472D01*
X71409528Y-74209395D01*
X71337708Y-74161406D01*
X71257906Y-74128351D01*
X71173189Y-74111500D01*
X71086811Y-74111500D01*
X71002094Y-74128351D01*
X70922292Y-74161406D01*
X70850472Y-74209395D01*
X70789395Y-74270472D01*
X70741406Y-74342292D01*
X70708351Y-74422094D01*
X70691500Y-74506811D01*
X61741942Y-74506811D01*
X61787942Y-74476075D01*
X61936075Y-74327942D01*
X62052462Y-74153756D01*
X62132630Y-73960212D01*
X62173500Y-73754746D01*
X62173500Y-73606811D01*
X70691500Y-73606811D01*
X70691500Y-73693189D01*
X70708351Y-73777906D01*
X70741406Y-73857708D01*
X70789395Y-73929528D01*
X70850472Y-73990605D01*
X70922292Y-74038594D01*
X71002094Y-74071649D01*
X71086811Y-74088500D01*
X71173189Y-74088500D01*
X71257906Y-74071649D01*
X71337708Y-74038594D01*
X71409528Y-73990605D01*
X71470605Y-73929528D01*
X71518594Y-73857708D01*
X71551649Y-73777906D01*
X71568500Y-73693189D01*
X71568500Y-73606811D01*
X71556256Y-73545254D01*
X75286500Y-73545254D01*
X75286500Y-73754746D01*
X75327370Y-73960212D01*
X75407538Y-74153756D01*
X75523925Y-74327942D01*
X75672058Y-74476075D01*
X75846244Y-74592462D01*
X76039788Y-74672630D01*
X76245254Y-74713500D01*
X76454746Y-74713500D01*
X76660212Y-74672630D01*
X76853756Y-74592462D01*
X77027942Y-74476075D01*
X77176075Y-74327942D01*
X77292462Y-74153756D01*
X77372630Y-73960212D01*
X77413500Y-73754746D01*
X77413500Y-73545254D01*
X77372630Y-73339788D01*
X77292462Y-73146244D01*
X77176075Y-72972058D01*
X77027942Y-72823925D01*
X76853756Y-72707538D01*
X76660212Y-72627370D01*
X76454746Y-72586500D01*
X76245254Y-72586500D01*
X76039788Y-72627370D01*
X75846244Y-72707538D01*
X75672058Y-72823925D01*
X75523925Y-72972058D01*
X75407538Y-73146244D01*
X75327370Y-73339788D01*
X75286500Y-73545254D01*
X71556256Y-73545254D01*
X71551649Y-73522094D01*
X71518594Y-73442292D01*
X71470605Y-73370472D01*
X71409528Y-73309395D01*
X71337708Y-73261406D01*
X71257906Y-73228351D01*
X71173189Y-73211500D01*
X71086811Y-73211500D01*
X71002094Y-73228351D01*
X70922292Y-73261406D01*
X70850472Y-73309395D01*
X70789395Y-73370472D01*
X70741406Y-73442292D01*
X70708351Y-73522094D01*
X70691500Y-73606811D01*
X62173500Y-73606811D01*
X62173500Y-73545254D01*
X62132630Y-73339788D01*
X62052462Y-73146244D01*
X61936075Y-72972058D01*
X61787942Y-72823925D01*
X61613756Y-72707538D01*
X61420212Y-72627370D01*
X61214746Y-72586500D01*
X61005254Y-72586500D01*
X60799788Y-72627370D01*
X60606244Y-72707538D01*
X60432058Y-72823925D01*
X60283925Y-72972058D01*
X60167538Y-73146244D01*
X60087370Y-73339788D01*
X60046500Y-73545254D01*
X59268500Y-73545254D01*
X59268500Y-71005254D01*
X60046500Y-71005254D01*
X60046500Y-71214746D01*
X60087370Y-71420212D01*
X60167538Y-71613756D01*
X60283925Y-71787942D01*
X60432058Y-71936075D01*
X60606244Y-72052462D01*
X60799788Y-72132630D01*
X61005254Y-72173500D01*
X61214746Y-72173500D01*
X61420212Y-72132630D01*
X61613756Y-72052462D01*
X61787942Y-71936075D01*
X61936075Y-71787942D01*
X62052462Y-71613756D01*
X62132630Y-71420212D01*
X62173500Y-71214746D01*
X62173500Y-71005254D01*
X75286500Y-71005254D01*
X75286500Y-71214746D01*
X75327370Y-71420212D01*
X75407538Y-71613756D01*
X75523925Y-71787942D01*
X75672058Y-71936075D01*
X75846244Y-72052462D01*
X76039788Y-72132630D01*
X76245254Y-72173500D01*
X76454746Y-72173500D01*
X76660212Y-72132630D01*
X76853756Y-72052462D01*
X77027942Y-71936075D01*
X77176075Y-71787942D01*
X77292462Y-71613756D01*
X77372630Y-71420212D01*
X77413500Y-71214746D01*
X77413500Y-71005254D01*
X77372630Y-70799788D01*
X77292462Y-70606244D01*
X77176075Y-70432058D01*
X77027942Y-70283925D01*
X76853756Y-70167538D01*
X76660212Y-70087370D01*
X76454746Y-70046500D01*
X76245254Y-70046500D01*
X76039788Y-70087370D01*
X75846244Y-70167538D01*
X75672058Y-70283925D01*
X75523925Y-70432058D01*
X75407538Y-70606244D01*
X75327370Y-70799788D01*
X75286500Y-71005254D01*
X62173500Y-71005254D01*
X62132630Y-70799788D01*
X62052462Y-70606244D01*
X61936075Y-70432058D01*
X61787942Y-70283925D01*
X61613756Y-70167538D01*
X61420212Y-70087370D01*
X61214746Y-70046500D01*
X61005254Y-70046500D01*
X60799788Y-70087370D01*
X60606244Y-70167538D01*
X60432058Y-70283925D01*
X60283925Y-70432058D01*
X60167538Y-70606244D01*
X60087370Y-70799788D01*
X60046500Y-71005254D01*
X59268500Y-71005254D01*
X59268500Y-68465254D01*
X60046500Y-68465254D01*
X60046500Y-68674746D01*
X60087370Y-68880212D01*
X60167538Y-69073756D01*
X60283925Y-69247942D01*
X60432058Y-69396075D01*
X60606244Y-69512462D01*
X60799788Y-69592630D01*
X61005254Y-69633500D01*
X61214746Y-69633500D01*
X61420212Y-69592630D01*
X61613756Y-69512462D01*
X61787942Y-69396075D01*
X61936075Y-69247942D01*
X62052462Y-69073756D01*
X62132630Y-68880212D01*
X62173500Y-68674746D01*
X62173500Y-68465254D01*
X75286500Y-68465254D01*
X75286500Y-68674746D01*
X75327370Y-68880212D01*
X75407538Y-69073756D01*
X75523925Y-69247942D01*
X75672058Y-69396075D01*
X75846244Y-69512462D01*
X76039788Y-69592630D01*
X76245254Y-69633500D01*
X76454746Y-69633500D01*
X76660212Y-69592630D01*
X76853756Y-69512462D01*
X77027942Y-69396075D01*
X77176075Y-69247942D01*
X77292462Y-69073756D01*
X77372630Y-68880212D01*
X77413500Y-68674746D01*
X77413500Y-68465254D01*
X77372630Y-68259788D01*
X77292462Y-68066244D01*
X77176075Y-67892058D01*
X77027942Y-67743925D01*
X76853756Y-67627538D01*
X76660212Y-67547370D01*
X76454746Y-67506500D01*
X76245254Y-67506500D01*
X76039788Y-67547370D01*
X75846244Y-67627538D01*
X75672058Y-67743925D01*
X75523925Y-67892058D01*
X75407538Y-68066244D01*
X75327370Y-68259788D01*
X75286500Y-68465254D01*
X62173500Y-68465254D01*
X62132630Y-68259788D01*
X62052462Y-68066244D01*
X61936075Y-67892058D01*
X61787942Y-67743925D01*
X61657567Y-67656811D01*
X73341500Y-67656811D01*
X73341500Y-67743189D01*
X73358351Y-67827906D01*
X73391406Y-67907708D01*
X73439395Y-67979528D01*
X73500472Y-68040605D01*
X73572292Y-68088594D01*
X73652094Y-68121649D01*
X73736811Y-68138500D01*
X73823189Y-68138500D01*
X73907906Y-68121649D01*
X73987708Y-68088594D01*
X74059528Y-68040605D01*
X74120605Y-67979528D01*
X74168594Y-67907708D01*
X74201649Y-67827906D01*
X74218500Y-67743189D01*
X74218500Y-67656811D01*
X74201649Y-67572094D01*
X74178885Y-67517136D01*
X74218594Y-67457708D01*
X74251649Y-67377906D01*
X74268500Y-67293189D01*
X74268500Y-67206811D01*
X74251649Y-67122094D01*
X74218594Y-67042292D01*
X74170605Y-66970472D01*
X74109528Y-66909395D01*
X74037708Y-66861406D01*
X73957906Y-66828351D01*
X73873189Y-66811500D01*
X73786811Y-66811500D01*
X73702094Y-66828351D01*
X73622292Y-66861406D01*
X73550472Y-66909395D01*
X73489395Y-66970472D01*
X73441406Y-67042292D01*
X73408351Y-67122094D01*
X73391500Y-67206811D01*
X73391500Y-67293189D01*
X73408351Y-67377906D01*
X73431115Y-67432864D01*
X73391406Y-67492292D01*
X73358351Y-67572094D01*
X73341500Y-67656811D01*
X61657567Y-67656811D01*
X61613756Y-67627538D01*
X61420212Y-67547370D01*
X61214746Y-67506500D01*
X61005254Y-67506500D01*
X60799788Y-67547370D01*
X60606244Y-67627538D01*
X60432058Y-67743925D01*
X60283925Y-67892058D01*
X60167538Y-68066244D01*
X60087370Y-68259788D01*
X60046500Y-68465254D01*
X59268500Y-68465254D01*
X59268500Y-65925254D01*
X60046500Y-65925254D01*
X60046500Y-66134746D01*
X60087370Y-66340212D01*
X60167538Y-66533756D01*
X60283925Y-66707942D01*
X60432058Y-66856075D01*
X60606244Y-66972462D01*
X60799788Y-67052630D01*
X61005254Y-67093500D01*
X61214746Y-67093500D01*
X61420212Y-67052630D01*
X61613756Y-66972462D01*
X61787942Y-66856075D01*
X61936075Y-66707942D01*
X61970239Y-66656811D01*
X64291500Y-66656811D01*
X64291500Y-66743189D01*
X64308351Y-66827906D01*
X64341406Y-66907708D01*
X64389395Y-66979528D01*
X64450472Y-67040605D01*
X64522292Y-67088594D01*
X64602094Y-67121649D01*
X64686811Y-67138500D01*
X64773189Y-67138500D01*
X64857906Y-67121649D01*
X64937708Y-67088594D01*
X64980000Y-67060335D01*
X65022292Y-67088594D01*
X65102094Y-67121649D01*
X65186811Y-67138500D01*
X65273189Y-67138500D01*
X65357906Y-67121649D01*
X65437708Y-67088594D01*
X65509528Y-67040605D01*
X65570605Y-66979528D01*
X65618594Y-66907708D01*
X65651649Y-66827906D01*
X65668500Y-66743189D01*
X65668500Y-66656811D01*
X65651649Y-66572094D01*
X65618594Y-66492292D01*
X65570605Y-66420472D01*
X65509528Y-66359395D01*
X65437708Y-66311406D01*
X65357906Y-66278351D01*
X65273189Y-66261500D01*
X65186811Y-66261500D01*
X65102094Y-66278351D01*
X65022292Y-66311406D01*
X64980000Y-66339665D01*
X64937708Y-66311406D01*
X64857906Y-66278351D01*
X64773189Y-66261500D01*
X64686811Y-66261500D01*
X64602094Y-66278351D01*
X64522292Y-66311406D01*
X64450472Y-66359395D01*
X64389395Y-66420472D01*
X64341406Y-66492292D01*
X64308351Y-66572094D01*
X64291500Y-66656811D01*
X61970239Y-66656811D01*
X62052462Y-66533756D01*
X62132630Y-66340212D01*
X62173500Y-66134746D01*
X62173500Y-65925254D01*
X75286500Y-65925254D01*
X75286500Y-66134746D01*
X75327370Y-66340212D01*
X75407538Y-66533756D01*
X75523925Y-66707942D01*
X75672058Y-66856075D01*
X75846244Y-66972462D01*
X76039788Y-67052630D01*
X76245254Y-67093500D01*
X76454746Y-67093500D01*
X76660212Y-67052630D01*
X76853756Y-66972462D01*
X77027942Y-66856075D01*
X77176075Y-66707942D01*
X77292462Y-66533756D01*
X77372630Y-66340212D01*
X77413500Y-66134746D01*
X77413500Y-65925254D01*
X77372630Y-65719788D01*
X77292462Y-65526244D01*
X77176075Y-65352058D01*
X77027942Y-65203925D01*
X76853756Y-65087538D01*
X76660212Y-65007370D01*
X76454746Y-64966500D01*
X76245254Y-64966500D01*
X76039788Y-65007370D01*
X75846244Y-65087538D01*
X75672058Y-65203925D01*
X75523925Y-65352058D01*
X75407538Y-65526244D01*
X75327370Y-65719788D01*
X75286500Y-65925254D01*
X62173500Y-65925254D01*
X62132630Y-65719788D01*
X62052462Y-65526244D01*
X61972660Y-65406811D01*
X69941500Y-65406811D01*
X69941500Y-65493189D01*
X69958351Y-65577906D01*
X69991406Y-65657708D01*
X70039395Y-65729528D01*
X70100472Y-65790605D01*
X70172292Y-65838594D01*
X70252094Y-65871649D01*
X70336811Y-65888500D01*
X70423189Y-65888500D01*
X70507906Y-65871649D01*
X70587708Y-65838594D01*
X70659528Y-65790605D01*
X70720605Y-65729528D01*
X70768594Y-65657708D01*
X70801649Y-65577906D01*
X70818500Y-65493189D01*
X70818500Y-65406811D01*
X70801649Y-65322094D01*
X70768594Y-65242292D01*
X70720605Y-65170472D01*
X70659528Y-65109395D01*
X70587708Y-65061406D01*
X70507906Y-65028351D01*
X70423189Y-65011500D01*
X70336811Y-65011500D01*
X70252094Y-65028351D01*
X70172292Y-65061406D01*
X70100472Y-65109395D01*
X70039395Y-65170472D01*
X69991406Y-65242292D01*
X69958351Y-65322094D01*
X69941500Y-65406811D01*
X61972660Y-65406811D01*
X61936075Y-65352058D01*
X61787942Y-65203925D01*
X61613756Y-65087538D01*
X61420212Y-65007370D01*
X61214746Y-64966500D01*
X61005254Y-64966500D01*
X60799788Y-65007370D01*
X60606244Y-65087538D01*
X60432058Y-65203925D01*
X60283925Y-65352058D01*
X60167538Y-65526244D01*
X60087370Y-65719788D01*
X60046500Y-65925254D01*
X59268500Y-65925254D01*
X59268500Y-63385254D01*
X60046500Y-63385254D01*
X60046500Y-63594746D01*
X60087370Y-63800212D01*
X60167538Y-63993756D01*
X60283925Y-64167942D01*
X60432058Y-64316075D01*
X60606244Y-64432462D01*
X60799788Y-64512630D01*
X61005254Y-64553500D01*
X61214746Y-64553500D01*
X61420212Y-64512630D01*
X61613756Y-64432462D01*
X61787942Y-64316075D01*
X61936075Y-64167942D01*
X62052462Y-63993756D01*
X62088475Y-63906811D01*
X73341500Y-63906811D01*
X73341500Y-63993189D01*
X73358351Y-64077906D01*
X73391406Y-64157708D01*
X73439395Y-64229528D01*
X73500472Y-64290605D01*
X73572292Y-64338594D01*
X73652094Y-64371649D01*
X73736811Y-64388500D01*
X73823189Y-64388500D01*
X73907906Y-64371649D01*
X73987708Y-64338594D01*
X74059528Y-64290605D01*
X74120605Y-64229528D01*
X74168594Y-64157708D01*
X74201649Y-64077906D01*
X74218500Y-63993189D01*
X74218500Y-63906811D01*
X74201649Y-63822094D01*
X74178885Y-63767136D01*
X74218594Y-63707708D01*
X74251649Y-63627906D01*
X74268500Y-63543189D01*
X74268500Y-63456811D01*
X74254267Y-63385254D01*
X75286500Y-63385254D01*
X75286500Y-63594746D01*
X75327370Y-63800212D01*
X75407538Y-63993756D01*
X75523925Y-64167942D01*
X75672058Y-64316075D01*
X75846244Y-64432462D01*
X76039788Y-64512630D01*
X76245254Y-64553500D01*
X76454746Y-64553500D01*
X76660212Y-64512630D01*
X76853756Y-64432462D01*
X77027942Y-64316075D01*
X77176075Y-64167942D01*
X77292462Y-63993756D01*
X77372630Y-63800212D01*
X77413500Y-63594746D01*
X77413500Y-63385254D01*
X77372630Y-63179788D01*
X77292462Y-62986244D01*
X77176075Y-62812058D01*
X77027942Y-62663925D01*
X76853756Y-62547538D01*
X76660212Y-62467370D01*
X76454746Y-62426500D01*
X76245254Y-62426500D01*
X76039788Y-62467370D01*
X75846244Y-62547538D01*
X75672058Y-62663925D01*
X75523925Y-62812058D01*
X75407538Y-62986244D01*
X75327370Y-63179788D01*
X75286500Y-63385254D01*
X74254267Y-63385254D01*
X74251649Y-63372094D01*
X74218594Y-63292292D01*
X74170605Y-63220472D01*
X74109528Y-63159395D01*
X74037708Y-63111406D01*
X73957906Y-63078351D01*
X73873189Y-63061500D01*
X73786811Y-63061500D01*
X73702094Y-63078351D01*
X73622292Y-63111406D01*
X73550472Y-63159395D01*
X73489395Y-63220472D01*
X73441406Y-63292292D01*
X73408351Y-63372094D01*
X73391500Y-63456811D01*
X73391500Y-63543189D01*
X73408351Y-63627906D01*
X73431115Y-63682864D01*
X73391406Y-63742292D01*
X73358351Y-63822094D01*
X73341500Y-63906811D01*
X62088475Y-63906811D01*
X62132630Y-63800212D01*
X62173500Y-63594746D01*
X62173500Y-63385254D01*
X62132630Y-63179788D01*
X62052462Y-62986244D01*
X61936075Y-62812058D01*
X61787942Y-62663925D01*
X61613756Y-62547538D01*
X61420212Y-62467370D01*
X61214746Y-62426500D01*
X61005254Y-62426500D01*
X60799788Y-62467370D01*
X60606244Y-62547538D01*
X60432058Y-62663925D01*
X60283925Y-62812058D01*
X60167538Y-62986244D01*
X60087370Y-63179788D01*
X60046500Y-63385254D01*
X59268500Y-63385254D01*
X59268500Y-60845254D01*
X60046500Y-60845254D01*
X60046500Y-61054746D01*
X60087370Y-61260212D01*
X60167538Y-61453756D01*
X60283925Y-61627942D01*
X60432058Y-61776075D01*
X60606244Y-61892462D01*
X60799788Y-61972630D01*
X61005254Y-62013500D01*
X61214746Y-62013500D01*
X61420212Y-61972630D01*
X61613756Y-61892462D01*
X61667111Y-61856811D01*
X64491500Y-61856811D01*
X64491500Y-61943189D01*
X64508351Y-62027906D01*
X64541406Y-62107708D01*
X64589395Y-62179528D01*
X64650472Y-62240605D01*
X64722292Y-62288594D01*
X64802094Y-62321649D01*
X64886811Y-62338500D01*
X64973189Y-62338500D01*
X65057906Y-62321649D01*
X65137708Y-62288594D01*
X65209528Y-62240605D01*
X65270605Y-62179528D01*
X65318594Y-62107708D01*
X65350271Y-62031232D01*
X65386811Y-62038500D01*
X65473189Y-62038500D01*
X65557906Y-62021649D01*
X65637708Y-61988594D01*
X65709528Y-61940605D01*
X65770605Y-61879528D01*
X65818594Y-61807708D01*
X65851649Y-61727906D01*
X65865790Y-61656811D01*
X69941500Y-61656811D01*
X69941500Y-61743189D01*
X69958351Y-61827906D01*
X69991406Y-61907708D01*
X70039395Y-61979528D01*
X70100472Y-62040605D01*
X70172292Y-62088594D01*
X70252094Y-62121649D01*
X70336811Y-62138500D01*
X70423189Y-62138500D01*
X70507906Y-62121649D01*
X70587708Y-62088594D01*
X70659528Y-62040605D01*
X70720605Y-61979528D01*
X70768594Y-61907708D01*
X70801649Y-61827906D01*
X70818500Y-61743189D01*
X70818500Y-61656811D01*
X70801649Y-61572094D01*
X70768594Y-61492292D01*
X70720605Y-61420472D01*
X70659528Y-61359395D01*
X70587708Y-61311406D01*
X70507906Y-61278351D01*
X70423189Y-61261500D01*
X70336811Y-61261500D01*
X70252094Y-61278351D01*
X70172292Y-61311406D01*
X70100472Y-61359395D01*
X70039395Y-61420472D01*
X69991406Y-61492292D01*
X69958351Y-61572094D01*
X69941500Y-61656811D01*
X65865790Y-61656811D01*
X65868500Y-61643189D01*
X65868500Y-61556811D01*
X65851649Y-61472094D01*
X65818594Y-61392292D01*
X65770605Y-61320472D01*
X65709528Y-61259395D01*
X65637708Y-61211406D01*
X65557906Y-61178351D01*
X65473189Y-61161500D01*
X65386811Y-61161500D01*
X65302094Y-61178351D01*
X65222292Y-61211406D01*
X65150472Y-61259395D01*
X65089395Y-61320472D01*
X65041406Y-61392292D01*
X65009729Y-61468768D01*
X64973189Y-61461500D01*
X64886811Y-61461500D01*
X64802094Y-61478351D01*
X64722292Y-61511406D01*
X64650472Y-61559395D01*
X64589395Y-61620472D01*
X64541406Y-61692292D01*
X64508351Y-61772094D01*
X64491500Y-61856811D01*
X61667111Y-61856811D01*
X61787942Y-61776075D01*
X61936075Y-61627942D01*
X62052462Y-61453756D01*
X62132630Y-61260212D01*
X62173500Y-61054746D01*
X62173500Y-60845254D01*
X75286500Y-60845254D01*
X75286500Y-61054746D01*
X75327370Y-61260212D01*
X75407538Y-61453756D01*
X75523925Y-61627942D01*
X75672058Y-61776075D01*
X75846244Y-61892462D01*
X76039788Y-61972630D01*
X76245254Y-62013500D01*
X76454746Y-62013500D01*
X76660212Y-61972630D01*
X76853756Y-61892462D01*
X77027942Y-61776075D01*
X77176075Y-61627942D01*
X77292462Y-61453756D01*
X77372630Y-61260212D01*
X77413500Y-61054746D01*
X77413500Y-60845254D01*
X77372630Y-60639788D01*
X77292462Y-60446244D01*
X77176075Y-60272058D01*
X77027942Y-60123925D01*
X76853756Y-60007538D01*
X76660212Y-59927370D01*
X76454746Y-59886500D01*
X76245254Y-59886500D01*
X76039788Y-59927370D01*
X75846244Y-60007538D01*
X75672058Y-60123925D01*
X75523925Y-60272058D01*
X75407538Y-60446244D01*
X75327370Y-60639788D01*
X75286500Y-60845254D01*
X62173500Y-60845254D01*
X62132630Y-60639788D01*
X62052462Y-60446244D01*
X61936075Y-60272058D01*
X61787942Y-60123925D01*
X61613756Y-60007538D01*
X61420212Y-59927370D01*
X61214746Y-59886500D01*
X61005254Y-59886500D01*
X60799788Y-59927370D01*
X60606244Y-60007538D01*
X60432058Y-60123925D01*
X60283925Y-60272058D01*
X60167538Y-60446244D01*
X60087370Y-60639788D01*
X60046500Y-60845254D01*
X59268500Y-60845254D01*
X59268500Y-58305254D01*
X60046500Y-58305254D01*
X60046500Y-58514746D01*
X60087370Y-58720212D01*
X60167538Y-58913756D01*
X60283925Y-59087942D01*
X60432058Y-59236075D01*
X60606244Y-59352462D01*
X60799788Y-59432630D01*
X61005254Y-59473500D01*
X61214746Y-59473500D01*
X61420212Y-59432630D01*
X61613756Y-59352462D01*
X61787942Y-59236075D01*
X61936075Y-59087942D01*
X62052462Y-58913756D01*
X62132630Y-58720212D01*
X62173500Y-58514746D01*
X62173500Y-58305254D01*
X75286500Y-58305254D01*
X75286500Y-58514746D01*
X75327370Y-58720212D01*
X75407538Y-58913756D01*
X75523925Y-59087942D01*
X75672058Y-59236075D01*
X75846244Y-59352462D01*
X76039788Y-59432630D01*
X76245254Y-59473500D01*
X76454746Y-59473500D01*
X76660212Y-59432630D01*
X76853756Y-59352462D01*
X77027942Y-59236075D01*
X77176075Y-59087942D01*
X77292462Y-58913756D01*
X77372630Y-58720212D01*
X77413500Y-58514746D01*
X77413500Y-58305254D01*
X77372630Y-58099788D01*
X77292462Y-57906244D01*
X77176075Y-57732058D01*
X77027942Y-57583925D01*
X76853756Y-57467538D01*
X76660212Y-57387370D01*
X76454746Y-57346500D01*
X76245254Y-57346500D01*
X76039788Y-57387370D01*
X75846244Y-57467538D01*
X75672058Y-57583925D01*
X75523925Y-57732058D01*
X75407538Y-57906244D01*
X75327370Y-58099788D01*
X75286500Y-58305254D01*
X62173500Y-58305254D01*
X62132630Y-58099788D01*
X62052462Y-57906244D01*
X61936075Y-57732058D01*
X61787942Y-57583925D01*
X61613756Y-57467538D01*
X61420212Y-57387370D01*
X61214746Y-57346500D01*
X61005254Y-57346500D01*
X60799788Y-57387370D01*
X60606244Y-57467538D01*
X60432058Y-57583925D01*
X60283925Y-57732058D01*
X60167538Y-57906244D01*
X60087370Y-58099788D01*
X60046500Y-58305254D01*
X59268500Y-58305254D01*
X59268500Y-56956811D01*
X66291500Y-56956811D01*
X66291500Y-57043189D01*
X66308351Y-57127906D01*
X66341406Y-57207708D01*
X66369665Y-57250000D01*
X66341406Y-57292292D01*
X66308351Y-57372094D01*
X66291500Y-57456811D01*
X66291500Y-57543189D01*
X66308351Y-57627906D01*
X66341406Y-57707708D01*
X66389395Y-57779528D01*
X66450472Y-57840605D01*
X66522292Y-57888594D01*
X66602094Y-57921649D01*
X66686811Y-57938500D01*
X66773189Y-57938500D01*
X66857906Y-57921649D01*
X66937708Y-57888594D01*
X67009528Y-57840605D01*
X67070605Y-57779528D01*
X67118594Y-57707708D01*
X67151649Y-57627906D01*
X67168500Y-57543189D01*
X67168500Y-57456811D01*
X67151649Y-57372094D01*
X67145319Y-57356811D01*
X73341500Y-57356811D01*
X73341500Y-57443189D01*
X73358351Y-57527906D01*
X73391406Y-57607708D01*
X73439395Y-57679528D01*
X73500472Y-57740605D01*
X73572292Y-57788594D01*
X73652094Y-57821649D01*
X73736811Y-57838500D01*
X73823189Y-57838500D01*
X73907906Y-57821649D01*
X73987708Y-57788594D01*
X74059528Y-57740605D01*
X74120605Y-57679528D01*
X74168594Y-57607708D01*
X74201649Y-57527906D01*
X74218500Y-57443189D01*
X74218500Y-57356811D01*
X74201649Y-57272094D01*
X74178885Y-57217136D01*
X74218594Y-57157708D01*
X74251649Y-57077906D01*
X74268500Y-56993189D01*
X74268500Y-56906811D01*
X74251649Y-56822094D01*
X74218594Y-56742292D01*
X74170605Y-56670472D01*
X74109528Y-56609395D01*
X74037708Y-56561406D01*
X73957906Y-56528351D01*
X73873189Y-56511500D01*
X73786811Y-56511500D01*
X73702094Y-56528351D01*
X73622292Y-56561406D01*
X73550472Y-56609395D01*
X73489395Y-56670472D01*
X73441406Y-56742292D01*
X73408351Y-56822094D01*
X73391500Y-56906811D01*
X73391500Y-56993189D01*
X73408351Y-57077906D01*
X73431115Y-57132864D01*
X73391406Y-57192292D01*
X73358351Y-57272094D01*
X73341500Y-57356811D01*
X67145319Y-57356811D01*
X67118594Y-57292292D01*
X67090335Y-57250000D01*
X67118594Y-57207708D01*
X67151649Y-57127906D01*
X67168500Y-57043189D01*
X67168500Y-56956811D01*
X67151649Y-56872094D01*
X67118594Y-56792292D01*
X67070605Y-56720472D01*
X67009528Y-56659395D01*
X66937708Y-56611406D01*
X66857906Y-56578351D01*
X66773189Y-56561500D01*
X66686811Y-56561500D01*
X66602094Y-56578351D01*
X66522292Y-56611406D01*
X66450472Y-56659395D01*
X66389395Y-56720472D01*
X66341406Y-56792292D01*
X66308351Y-56872094D01*
X66291500Y-56956811D01*
X59268500Y-56956811D01*
X59268500Y-55765254D01*
X60046500Y-55765254D01*
X60046500Y-55974746D01*
X60087370Y-56180212D01*
X60167538Y-56373756D01*
X60283925Y-56547942D01*
X60432058Y-56696075D01*
X60606244Y-56812462D01*
X60799788Y-56892630D01*
X61005254Y-56933500D01*
X61214746Y-56933500D01*
X61420212Y-56892630D01*
X61613756Y-56812462D01*
X61787942Y-56696075D01*
X61936075Y-56547942D01*
X62052462Y-56373756D01*
X62132630Y-56180212D01*
X62173500Y-55974746D01*
X62173500Y-55765254D01*
X75286500Y-55765254D01*
X75286500Y-55974746D01*
X75327370Y-56180212D01*
X75407538Y-56373756D01*
X75523925Y-56547942D01*
X75672058Y-56696075D01*
X75846244Y-56812462D01*
X76039788Y-56892630D01*
X76245254Y-56933500D01*
X76454746Y-56933500D01*
X76660212Y-56892630D01*
X76853756Y-56812462D01*
X77027942Y-56696075D01*
X77176075Y-56547942D01*
X77292462Y-56373756D01*
X77372630Y-56180212D01*
X77413500Y-55974746D01*
X77413500Y-55765254D01*
X77372630Y-55559788D01*
X77292462Y-55366244D01*
X77176075Y-55192058D01*
X77027942Y-55043925D01*
X76853756Y-54927538D01*
X76660212Y-54847370D01*
X76454746Y-54806500D01*
X76245254Y-54806500D01*
X76039788Y-54847370D01*
X75846244Y-54927538D01*
X75672058Y-55043925D01*
X75523925Y-55192058D01*
X75407538Y-55366244D01*
X75327370Y-55559788D01*
X75286500Y-55765254D01*
X62173500Y-55765254D01*
X62132630Y-55559788D01*
X62052462Y-55366244D01*
X61936075Y-55192058D01*
X61900828Y-55156811D01*
X71691500Y-55156811D01*
X71691500Y-55243189D01*
X71708351Y-55327906D01*
X71741406Y-55407708D01*
X71789395Y-55479528D01*
X71850472Y-55540605D01*
X71922292Y-55588594D01*
X72002094Y-55621649D01*
X72086811Y-55638500D01*
X72173189Y-55638500D01*
X72257906Y-55621649D01*
X72337708Y-55588594D01*
X72409528Y-55540605D01*
X72470605Y-55479528D01*
X72518594Y-55407708D01*
X72551649Y-55327906D01*
X72568500Y-55243189D01*
X72568500Y-55156811D01*
X72551649Y-55072094D01*
X72518594Y-54992292D01*
X72470605Y-54920472D01*
X72409528Y-54859395D01*
X72337708Y-54811406D01*
X72257906Y-54778351D01*
X72173189Y-54761500D01*
X72086811Y-54761500D01*
X72002094Y-54778351D01*
X71922292Y-54811406D01*
X71850472Y-54859395D01*
X71789395Y-54920472D01*
X71741406Y-54992292D01*
X71708351Y-55072094D01*
X71691500Y-55156811D01*
X61900828Y-55156811D01*
X61787942Y-55043925D01*
X61613756Y-54927538D01*
X61420212Y-54847370D01*
X61214746Y-54806500D01*
X61005254Y-54806500D01*
X60799788Y-54847370D01*
X60606244Y-54927538D01*
X60432058Y-55043925D01*
X60283925Y-55192058D01*
X60167538Y-55366244D01*
X60087370Y-55559788D01*
X60046500Y-55765254D01*
X59268500Y-55765254D01*
X59268500Y-53225254D01*
X60046500Y-53225254D01*
X60046500Y-53434746D01*
X60087370Y-53640212D01*
X60167538Y-53833756D01*
X60283925Y-54007942D01*
X60432058Y-54156075D01*
X60606244Y-54272462D01*
X60799788Y-54352630D01*
X61005254Y-54393500D01*
X61214746Y-54393500D01*
X61420212Y-54352630D01*
X61613756Y-54272462D01*
X61787942Y-54156075D01*
X61936075Y-54007942D01*
X62052462Y-53833756D01*
X62132630Y-53640212D01*
X62169110Y-53456811D01*
X64541500Y-53456811D01*
X64541500Y-53543189D01*
X64558351Y-53627906D01*
X64591406Y-53707708D01*
X64639395Y-53779528D01*
X64700472Y-53840605D01*
X64772292Y-53888594D01*
X64852094Y-53921649D01*
X64936811Y-53938500D01*
X65023189Y-53938500D01*
X65107906Y-53921649D01*
X65187708Y-53888594D01*
X65259528Y-53840605D01*
X65320605Y-53779528D01*
X65368594Y-53707708D01*
X65381137Y-53677426D01*
X65436811Y-53688500D01*
X65523189Y-53688500D01*
X65607906Y-53671649D01*
X65687708Y-53638594D01*
X65735274Y-53606811D01*
X73341500Y-53606811D01*
X73341500Y-53693189D01*
X73358351Y-53777906D01*
X73391406Y-53857708D01*
X73439395Y-53929528D01*
X73500472Y-53990605D01*
X73572292Y-54038594D01*
X73652094Y-54071649D01*
X73736811Y-54088500D01*
X73823189Y-54088500D01*
X73907906Y-54071649D01*
X73987708Y-54038594D01*
X74059528Y-53990605D01*
X74120605Y-53929528D01*
X74168594Y-53857708D01*
X74201649Y-53777906D01*
X74218500Y-53693189D01*
X74218500Y-53606811D01*
X74201649Y-53522094D01*
X74178885Y-53467136D01*
X74218594Y-53407708D01*
X74251649Y-53327906D01*
X74268500Y-53243189D01*
X74268500Y-53225254D01*
X75286500Y-53225254D01*
X75286500Y-53434746D01*
X75327370Y-53640212D01*
X75407538Y-53833756D01*
X75523925Y-54007942D01*
X75672058Y-54156075D01*
X75846244Y-54272462D01*
X76039788Y-54352630D01*
X76245254Y-54393500D01*
X76454746Y-54393500D01*
X76660212Y-54352630D01*
X76853756Y-54272462D01*
X77027942Y-54156075D01*
X77176075Y-54007942D01*
X77292462Y-53833756D01*
X77372630Y-53640212D01*
X77413500Y-53434746D01*
X77413500Y-53225254D01*
X77372630Y-53019788D01*
X77292462Y-52826244D01*
X77176075Y-52652058D01*
X77027942Y-52503925D01*
X76853756Y-52387538D01*
X76660212Y-52307370D01*
X76454746Y-52266500D01*
X76245254Y-52266500D01*
X76039788Y-52307370D01*
X75846244Y-52387538D01*
X75672058Y-52503925D01*
X75523925Y-52652058D01*
X75407538Y-52826244D01*
X75327370Y-53019788D01*
X75286500Y-53225254D01*
X74268500Y-53225254D01*
X74268500Y-53156811D01*
X74251649Y-53072094D01*
X74218594Y-52992292D01*
X74170605Y-52920472D01*
X74109528Y-52859395D01*
X74037708Y-52811406D01*
X73957906Y-52778351D01*
X73873189Y-52761500D01*
X73786811Y-52761500D01*
X73702094Y-52778351D01*
X73622292Y-52811406D01*
X73550472Y-52859395D01*
X73489395Y-52920472D01*
X73441406Y-52992292D01*
X73408351Y-53072094D01*
X73391500Y-53156811D01*
X73391500Y-53243189D01*
X73408351Y-53327906D01*
X73431115Y-53382864D01*
X73391406Y-53442292D01*
X73358351Y-53522094D01*
X73341500Y-53606811D01*
X65735274Y-53606811D01*
X65759528Y-53590605D01*
X65820605Y-53529528D01*
X65868594Y-53457708D01*
X65901649Y-53377906D01*
X65918500Y-53293189D01*
X65918500Y-53206811D01*
X65901649Y-53122094D01*
X65868594Y-53042292D01*
X65820605Y-52970472D01*
X65759528Y-52909395D01*
X65687708Y-52861406D01*
X65607906Y-52828351D01*
X65523189Y-52811500D01*
X65436811Y-52811500D01*
X65352094Y-52828351D01*
X65272292Y-52861406D01*
X65200472Y-52909395D01*
X65139395Y-52970472D01*
X65091406Y-53042292D01*
X65078863Y-53072574D01*
X65023189Y-53061500D01*
X64936811Y-53061500D01*
X64852094Y-53078351D01*
X64772292Y-53111406D01*
X64700472Y-53159395D01*
X64639395Y-53220472D01*
X64591406Y-53292292D01*
X64558351Y-53372094D01*
X64541500Y-53456811D01*
X62169110Y-53456811D01*
X62173500Y-53434746D01*
X62173500Y-53225254D01*
X62132630Y-53019788D01*
X62052462Y-52826244D01*
X61936075Y-52652058D01*
X61787942Y-52503925D01*
X61613756Y-52387538D01*
X61420212Y-52307370D01*
X61214746Y-52266500D01*
X61005254Y-52266500D01*
X60799788Y-52307370D01*
X60606244Y-52387538D01*
X60432058Y-52503925D01*
X60283925Y-52652058D01*
X60167538Y-52826244D01*
X60087370Y-53019788D01*
X60046500Y-53225254D01*
X59268500Y-53225254D01*
X59268500Y-52156811D01*
X64491500Y-52156811D01*
X64491500Y-52243189D01*
X64508351Y-52327906D01*
X64541406Y-52407708D01*
X64589395Y-52479528D01*
X64650472Y-52540605D01*
X64722292Y-52588594D01*
X64802094Y-52621649D01*
X64886811Y-52638500D01*
X64973189Y-52638500D01*
X65057906Y-52621649D01*
X65137708Y-52588594D01*
X65209528Y-52540605D01*
X65270605Y-52479528D01*
X65318594Y-52407708D01*
X65350271Y-52331232D01*
X65386811Y-52338500D01*
X65473189Y-52338500D01*
X65557906Y-52321649D01*
X65637708Y-52288594D01*
X65709528Y-52240605D01*
X65770605Y-52179528D01*
X65818594Y-52107708D01*
X65851649Y-52027906D01*
X65868500Y-51943189D01*
X65868500Y-51856811D01*
X65851649Y-51772094D01*
X65818594Y-51692292D01*
X65770605Y-51620472D01*
X65709528Y-51559395D01*
X65637708Y-51511406D01*
X65557906Y-51478351D01*
X65473189Y-51461500D01*
X65386811Y-51461500D01*
X65302094Y-51478351D01*
X65222292Y-51511406D01*
X65150472Y-51559395D01*
X65089395Y-51620472D01*
X65041406Y-51692292D01*
X65009729Y-51768768D01*
X64973189Y-51761500D01*
X64886811Y-51761500D01*
X64802094Y-51778351D01*
X64722292Y-51811406D01*
X64650472Y-51859395D01*
X64589395Y-51920472D01*
X64541406Y-51992292D01*
X64508351Y-52072094D01*
X64491500Y-52156811D01*
X59268500Y-52156811D01*
X59268500Y-50685254D01*
X60046500Y-50685254D01*
X60046500Y-50894746D01*
X60087370Y-51100212D01*
X60167538Y-51293756D01*
X60283925Y-51467942D01*
X60432058Y-51616075D01*
X60606244Y-51732462D01*
X60799788Y-51812630D01*
X61005254Y-51853500D01*
X61214746Y-51853500D01*
X61420212Y-51812630D01*
X61613756Y-51732462D01*
X61787942Y-51616075D01*
X61936075Y-51467942D01*
X61943512Y-51456811D01*
X71691500Y-51456811D01*
X71691500Y-51543189D01*
X71708351Y-51627906D01*
X71741406Y-51707708D01*
X71789395Y-51779528D01*
X71850472Y-51840605D01*
X71922292Y-51888594D01*
X72002094Y-51921649D01*
X72086811Y-51938500D01*
X72173189Y-51938500D01*
X72257906Y-51921649D01*
X72337708Y-51888594D01*
X72409528Y-51840605D01*
X72470605Y-51779528D01*
X72518594Y-51707708D01*
X72551649Y-51627906D01*
X72568500Y-51543189D01*
X72568500Y-51456811D01*
X72551649Y-51372094D01*
X72518594Y-51292292D01*
X72470605Y-51220472D01*
X72409528Y-51159395D01*
X72337708Y-51111406D01*
X72257906Y-51078351D01*
X72173189Y-51061500D01*
X72086811Y-51061500D01*
X72002094Y-51078351D01*
X71922292Y-51111406D01*
X71850472Y-51159395D01*
X71789395Y-51220472D01*
X71741406Y-51292292D01*
X71708351Y-51372094D01*
X71691500Y-51456811D01*
X61943512Y-51456811D01*
X62052462Y-51293756D01*
X62132630Y-51100212D01*
X62173500Y-50894746D01*
X62173500Y-50685254D01*
X75286500Y-50685254D01*
X75286500Y-50894746D01*
X75327370Y-51100212D01*
X75407538Y-51293756D01*
X75523925Y-51467942D01*
X75672058Y-51616075D01*
X75846244Y-51732462D01*
X76039788Y-51812630D01*
X76245254Y-51853500D01*
X76454746Y-51853500D01*
X76660212Y-51812630D01*
X76853756Y-51732462D01*
X77027942Y-51616075D01*
X77176075Y-51467942D01*
X77292462Y-51293756D01*
X77372630Y-51100212D01*
X77413500Y-50894746D01*
X77413500Y-50685254D01*
X77372630Y-50479788D01*
X77292462Y-50286244D01*
X77176075Y-50112058D01*
X77027942Y-49963925D01*
X76853756Y-49847538D01*
X76660212Y-49767370D01*
X76454746Y-49726500D01*
X76245254Y-49726500D01*
X76039788Y-49767370D01*
X75846244Y-49847538D01*
X75672058Y-49963925D01*
X75523925Y-50112058D01*
X75407538Y-50286244D01*
X75327370Y-50479788D01*
X75286500Y-50685254D01*
X62173500Y-50685254D01*
X62132630Y-50479788D01*
X62052462Y-50286244D01*
X61936075Y-50112058D01*
X61787942Y-49963925D01*
X61613756Y-49847538D01*
X61420212Y-49767370D01*
X61214746Y-49726500D01*
X61005254Y-49726500D01*
X60799788Y-49767370D01*
X60606244Y-49847538D01*
X60432058Y-49963925D01*
X60283925Y-50112058D01*
X60167538Y-50286244D01*
X60087370Y-50479788D01*
X60046500Y-50685254D01*
X59268500Y-50685254D01*
X59268500Y-48145254D01*
X60046500Y-48145254D01*
X60046500Y-48354746D01*
X60087370Y-48560212D01*
X60167538Y-48753756D01*
X60283925Y-48927942D01*
X60432058Y-49076075D01*
X60606244Y-49192462D01*
X60799788Y-49272630D01*
X61005254Y-49313500D01*
X61214746Y-49313500D01*
X61420212Y-49272630D01*
X61613756Y-49192462D01*
X61787942Y-49076075D01*
X61936075Y-48927942D01*
X62052462Y-48753756D01*
X62108551Y-48618344D01*
X75242129Y-48618344D01*
X75306150Y-48772931D01*
X75428226Y-48966528D01*
X75585725Y-49132589D01*
X75772595Y-49264733D01*
X75981654Y-49357881D01*
X76159500Y-49322488D01*
X76159500Y-48440500D01*
X76540500Y-48440500D01*
X76540500Y-49322488D01*
X76718346Y-49357881D01*
X76927405Y-49264733D01*
X77114275Y-49132589D01*
X77271774Y-48966528D01*
X77393850Y-48772931D01*
X77457871Y-48618344D01*
X77421320Y-48440500D01*
X76540500Y-48440500D01*
X76159500Y-48440500D01*
X75278680Y-48440500D01*
X75242129Y-48618344D01*
X62108551Y-48618344D01*
X62132630Y-48560212D01*
X62173500Y-48354746D01*
X62173500Y-48145254D01*
X62132630Y-47939788D01*
X62108552Y-47881656D01*
X75242129Y-47881656D01*
X75278680Y-48059500D01*
X76159500Y-48059500D01*
X76159500Y-47177512D01*
X76540500Y-47177512D01*
X76540500Y-48059500D01*
X77421320Y-48059500D01*
X77457871Y-47881656D01*
X77393850Y-47727069D01*
X77271774Y-47533472D01*
X77114275Y-47367411D01*
X76927405Y-47235267D01*
X76718346Y-47142119D01*
X76540500Y-47177512D01*
X76159500Y-47177512D01*
X75981654Y-47142119D01*
X75772595Y-47235267D01*
X75585725Y-47367411D01*
X75428226Y-47533472D01*
X75306150Y-47727069D01*
X75242129Y-47881656D01*
X62108552Y-47881656D01*
X62052462Y-47746244D01*
X61936075Y-47572058D01*
X61787942Y-47423925D01*
X61613756Y-47307538D01*
X61420212Y-47227370D01*
X61214746Y-47186500D01*
X61005254Y-47186500D01*
X60799788Y-47227370D01*
X60606244Y-47307538D01*
X60432058Y-47423925D01*
X60283925Y-47572058D01*
X60167538Y-47746244D01*
X60087370Y-47939788D01*
X60046500Y-48145254D01*
X59268500Y-48145254D01*
X59268500Y-44860000D01*
X60045467Y-44860000D01*
X60045467Y-46560000D01*
X60049589Y-46601853D01*
X60061797Y-46642098D01*
X60081622Y-46679188D01*
X60108302Y-46711698D01*
X60140812Y-46738378D01*
X60177902Y-46758203D01*
X60218147Y-46770411D01*
X60260000Y-46774533D01*
X61960000Y-46774533D01*
X62001853Y-46770411D01*
X62042098Y-46758203D01*
X62079188Y-46738378D01*
X62111698Y-46711698D01*
X62138378Y-46679188D01*
X62158203Y-46642098D01*
X62170411Y-46601853D01*
X62174533Y-46560000D01*
X62174533Y-44860000D01*
X75285467Y-44860000D01*
X75285467Y-46560000D01*
X75289589Y-46601853D01*
X75301797Y-46642098D01*
X75321622Y-46679188D01*
X75348302Y-46711698D01*
X75380812Y-46738378D01*
X75417902Y-46758203D01*
X75458147Y-46770411D01*
X75500000Y-46774533D01*
X77200000Y-46774533D01*
X77241853Y-46770411D01*
X77282098Y-46758203D01*
X77319188Y-46738378D01*
X77351698Y-46711698D01*
X77378378Y-46679188D01*
X77398203Y-46642098D01*
X77410411Y-46601853D01*
X77414533Y-46560000D01*
X77414533Y-44860000D01*
X77410411Y-44818147D01*
X77398203Y-44777902D01*
X77378378Y-44740812D01*
X77351698Y-44708302D01*
X77319188Y-44681622D01*
X77282098Y-44661797D01*
X77241853Y-44649589D01*
X77200000Y-44645467D01*
X75500000Y-44645467D01*
X75458147Y-44649589D01*
X75417902Y-44661797D01*
X75380812Y-44681622D01*
X75348302Y-44708302D01*
X75321622Y-44740812D01*
X75301797Y-44777902D01*
X75289589Y-44818147D01*
X75285467Y-44860000D01*
X62174533Y-44860000D01*
X62170411Y-44818147D01*
X62158203Y-44777902D01*
X62138378Y-44740812D01*
X62111698Y-44708302D01*
X62079188Y-44681622D01*
X62042098Y-44661797D01*
X62001853Y-44649589D01*
X61960000Y-44645467D01*
X60260000Y-44645467D01*
X60218147Y-44649589D01*
X60177902Y-44661797D01*
X60140812Y-44681622D01*
X60108302Y-44708302D01*
X60081622Y-44740812D01*
X60061797Y-44777902D01*
X60049589Y-44818147D01*
X60045467Y-44860000D01*
X59268500Y-44860000D01*
X59268500Y-43868500D01*
X78191500Y-43868500D01*
X78191500Y-111051500D01*
G37*
%TD.AperFunction*%
%TD*%
M02*
