M48
; DRILL file {KiCad (5.1.7-0-10_14)} date Monday, November 23, 2020 at 07:13:43 PM
; FORMAT={-:-/ absolute / inch / decimal}
; #@! TF.CreationDate,2020-11-23T19:13:43+00:00
; #@! TF.GenerationSoftware,Kicad,Pcbnew,(5.1.7-0-10_14)
; #@! TF.FileFunction,Plated,1,4,PTH
FMAT,2
INCH
T1C0.0079
T2C0.0394
%
G90
G05
T1
X2.4933Y-3.4921
X2.4933Y-3.5177
X2.4933Y-3.5453
X2.5059Y-3.9496
X2.5059Y-4.0496
X2.5059Y-4.1496
X2.5059Y-4.2296
X2.5169Y-3.4311
X2.5169Y-3.4567
X2.5169Y-3.4823
X2.5259Y-3.8496
X2.5346Y-2.2618
X2.5359Y-2.1761
X2.5366Y-3.2283
X2.5386Y-3.1693
X2.5406Y-3.3701
X2.5406Y-3.3957
X2.5406Y-3.4213
X2.5484Y-3.0748
X2.5559Y-2.8296
X2.5559Y-2.8796
X2.5563Y-2.0551
X2.5563Y-2.437
X2.5563Y-2.628
X2.5563Y-3.9134
X2.5563Y-3.937
X2.5583Y-2.1063
X2.5602Y-3.2205
X2.5642Y-3.2795
X2.5681Y-3.0295
X2.5759Y-4.1696
X2.576Y-2.0433
X2.576Y-2.4252
X2.576Y-2.6181
X2.578Y-2.0965
X2.5799Y-3.9134
X2.5799Y-3.937
X2.5839Y-2.9783
X2.5859Y-4.2296
X2.6055Y-4.0039
X2.6059Y-3.7364
X2.6094Y-3.2037
X2.6094Y-3.6358
X2.6104Y-3.2264
X2.6134Y-3.2844
X2.6193Y-2.813
X2.6193Y-2.8445
X2.6193Y-3.0669
X2.6228Y-2.7469
X2.6252Y-2.0512
X2.6252Y-2.1988
X2.6252Y-2.4567
X2.6252Y-2.6043
X2.6272Y-2.0335
X2.6272Y-2.1811
X2.6272Y-2.2441
X2.6272Y-2.2638
X2.6272Y-2.439
X2.6272Y-2.5866
X2.6301Y-3.5866
X2.6449Y-3.5394
X2.6449Y-3.876
X2.6449Y-4.0039
X2.6459Y-1.9661
X2.6459Y-2.3761
X2.6459Y-3.6896
X2.6488Y-2.9862
X2.6774Y-2.9783
X2.6862Y-3.876
X2.6862Y-4.0039
X2.7059Y-3.1496
X2.7079Y-2.9685
X2.7159Y-1.9661
X2.7236Y-3.876
X2.7236Y-4.0039
X2.7359Y-3.3496
X2.7551Y-3.0226
X2.7559Y-2.7496
X2.7559Y-3.4596
X2.7559Y-3.6396
X2.763Y-4.0039
X2.765Y-3.876
X2.7659Y-2.3696
X2.7659Y-3.7896
X2.7709Y-2.4291
X2.7709Y-2.5768
X2.7738Y-3.2333
X2.7856Y-2.9705
X2.7866Y-3.7362
X2.7896Y-3.249
X2.8004Y-2.8996
X2.8004Y-2.935
X2.8043Y-3.878
X2.8053Y-3.125
X2.8059Y-3.5096
X2.8059Y-3.5864
X2.8102Y-3.2697
X2.8259Y-1.9661
X2.826Y-2.9911
X2.8319Y-3.0994
X2.8398Y-2.0276
X2.8398Y-2.1732
X2.8555Y-3.2461
X2.8559Y-2.7746
X2.8759Y-3.8496
X2.8759Y-3.9496
X2.8759Y-4.1496
X2.8759Y-4.2996
X2.8835Y-3.5039
X2.887Y-3.0305
X2.8919Y-2.9911
X2.8929Y-3.1211
X2.8959Y-4.0596
X2.8959Y-4.0796
X2.8978Y-3.3917
X2.8978Y-3.4203
X2.9028Y-3.2244
X2.9047Y-2.0512
X2.9047Y-2.1122
X2.9047Y-2.1988
X2.9047Y-2.2598
X2.9047Y-2.4567
X2.9047Y-2.5177
X2.9047Y-2.6043
X2.9047Y-2.6654
X2.9059Y-1.9661
X2.9059Y-2.8496
X2.9059Y-2.9396
X2.9067Y-2.0335
X2.9067Y-2.0945
X2.9067Y-2.1811
X2.9067Y-2.2421
X2.9067Y-2.439
X2.9067Y-2.5
X2.9067Y-2.5866
X2.9067Y-2.6476
X2.9136Y-3.252
X2.9159Y-2.3425
X2.9159Y-4.0596
X2.9159Y-4.0796
T2
X3.0059Y-1.7996
X3.0059Y-1.8996
X3.0059Y-1.9996
X3.0059Y-2.0996
X3.0059Y-2.1996
X3.0059Y-2.2996
X3.0059Y-2.3996
X3.0059Y-2.4996
X3.0059Y-2.5996
X3.0059Y-2.6996
X3.0059Y-2.7996
X3.0059Y-2.8996
X3.0059Y-2.9996
X3.0059Y-3.0996
X3.0059Y-3.1996
X3.0059Y-3.2996
X3.0059Y-3.3996
X3.0059Y-3.4996
X3.0059Y-3.5996
X3.0059Y-3.6996
X3.0059Y-3.7996
X3.0059Y-3.8996
X3.0059Y-3.9996
X3.0059Y-4.0996
X3.0059Y-4.1996
X3.0059Y-4.2996
X2.4059Y-1.7996
X2.4059Y-1.8996
X2.4059Y-1.9996
X2.4059Y-2.0996
X2.4059Y-2.1996
X2.4059Y-2.2996
X2.4059Y-2.3996
X2.4059Y-2.4996
X2.4059Y-2.5996
X2.4059Y-2.6996
X2.4059Y-2.7996
X2.4059Y-2.8996
X2.4059Y-2.9996
X2.4059Y-3.0996
X2.4059Y-3.1996
X2.4059Y-3.2996
X2.4059Y-3.3996
X2.4059Y-3.4996
X2.4059Y-3.5996
X2.4059Y-3.6996
X2.4059Y-3.7996
X2.4059Y-3.8996
X2.4059Y-3.9996
X2.4059Y-4.0996
X2.4059Y-4.1996
X2.4059Y-4.2996
T0
M30
