%TF.GenerationSoftware,KiCad,Pcbnew,(5.1.7-0-10_14)*%
%TF.CreationDate,2020-11-27T18:15:49+00:00*%
%TF.ProjectId,carrier,63617272-6965-4722-9e6b-696361645f70,0.1*%
%TF.SameCoordinates,Original*%
%TF.FileFunction,Copper,L3,Inr*%
%TF.FilePolarity,Positive*%
%FSLAX46Y46*%
G04 Gerber Fmt 4.6, Leading zero omitted, Abs format (unit mm)*
G04 Created by KiCad (PCBNEW (5.1.7-0-10_14)) date 2020-11-27 18:15:49*
%MOMM*%
%LPD*%
G01*
G04 APERTURE LIST*
%TA.AperFunction,ComponentPad*%
%ADD10O,1.700000X1.700000*%
%TD*%
%TA.AperFunction,ComponentPad*%
%ADD11R,1.700000X1.700000*%
%TD*%
%TA.AperFunction,ViaPad*%
%ADD12C,0.450000*%
%TD*%
%TA.AperFunction,Conductor*%
%ADD13C,0.450000*%
%TD*%
%TA.AperFunction,Conductor*%
%ADD14C,0.280000*%
%TD*%
%TA.AperFunction,Conductor*%
%ADD15C,1.000000*%
%TD*%
%TA.AperFunction,Conductor*%
%ADD16C,0.500000*%
%TD*%
%TA.AperFunction,Conductor*%
%ADD17C,0.100000*%
%TD*%
G04 APERTURE END LIST*
D10*
%TO.N,mprj_io[19]*%
%TO.C,J3*%
X76350000Y-109210000D03*
%TO.N,mprj_io[20]*%
X76350000Y-106670000D03*
%TO.N,mprj_io[21]*%
X76350000Y-104130000D03*
%TO.N,mprj_io[22]*%
X76350000Y-101590000D03*
%TO.N,mprj_io[23]*%
X76350000Y-99050000D03*
%TO.N,mprj_io[24]*%
X76350000Y-96510000D03*
%TO.N,mprj_io[25]*%
X76350000Y-93970000D03*
%TO.N,mprj_io[26]*%
X76350000Y-91430000D03*
%TO.N,mprj_io[27]*%
X76350000Y-88890000D03*
%TO.N,mprj_io[28]*%
X76350000Y-86350000D03*
%TO.N,mprj_io[29]*%
X76350000Y-83810000D03*
%TO.N,mprj_io[30]*%
X76350000Y-81270000D03*
%TO.N,mprj_io[31]*%
X76350000Y-78730000D03*
%TO.N,mprj_io[32]*%
X76350000Y-76190000D03*
%TO.N,mprj_io[33]*%
X76350000Y-73650000D03*
%TO.N,mprj_io[34]*%
X76350000Y-71110000D03*
%TO.N,mprj_io[35]*%
X76350000Y-68570000D03*
%TO.N,mprj_io[36]*%
X76350000Y-66030000D03*
%TO.N,mprj_io[37]*%
X76350000Y-63490000D03*
%TO.N,+5V*%
X76350000Y-60950000D03*
%TO.N,flash_csb*%
X76350000Y-58410000D03*
%TO.N,flash_io0*%
X76350000Y-55870000D03*
%TO.N,flash_io1*%
X76350000Y-53330000D03*
%TO.N,flash_clk*%
X76350000Y-50790000D03*
%TO.N,GND*%
X76350000Y-48250000D03*
D11*
%TO.N,+5V*%
X76350000Y-45710000D03*
%TD*%
D10*
%TO.N,GND*%
%TO.C,J2*%
X61110000Y-109210000D03*
%TO.N,mprj_io[18]*%
X61110000Y-106670000D03*
%TO.N,mprj_io[17]*%
X61110000Y-104130000D03*
%TO.N,mprj_io[16]*%
X61110000Y-101590000D03*
%TO.N,mprj_io[15]*%
X61110000Y-99050000D03*
%TO.N,mprj_io[14]*%
X61110000Y-96510000D03*
%TO.N,mprj_io[13]*%
X61110000Y-93970000D03*
%TO.N,mprj_io[12]*%
X61110000Y-91430000D03*
%TO.N,mprj_io[11]*%
X61110000Y-88890000D03*
%TO.N,mprj_io[10]*%
X61110000Y-86350000D03*
%TO.N,mprj_io[9]*%
X61110000Y-83810000D03*
%TO.N,mprj_io[8]*%
X61110000Y-81270000D03*
%TO.N,mprj_io[7]*%
X61110000Y-78730000D03*
%TO.N,mprj_io[6]*%
X61110000Y-76190000D03*
%TO.N,mprj_io[5]*%
X61110000Y-73650000D03*
%TO.N,mprj_io[4]*%
X61110000Y-71110000D03*
%TO.N,mprj_io[3]*%
X61110000Y-68570000D03*
%TO.N,mprj_io[2]*%
X61110000Y-66030000D03*
%TO.N,mprj_io[1]*%
X61110000Y-63490000D03*
%TO.N,mprj_io[0]*%
X61110000Y-60950000D03*
%TO.N,clock*%
X61110000Y-58410000D03*
%TO.N,resetb*%
X61110000Y-55870000D03*
%TO.N,gpio*%
X61110000Y-53330000D03*
%TO.N,ext_3v3*%
X61110000Y-50790000D03*
%TO.N,ext_1v8*%
X61110000Y-48250000D03*
D11*
%TO.N,ext_vddio*%
X61110000Y-45710000D03*
%TD*%
D12*
%TO.N,GND*%
X73830000Y-51650000D03*
X66680000Y-52100000D03*
X73780000Y-52100000D03*
X66730000Y-51650000D03*
X73830000Y-55400000D03*
X66680000Y-55850000D03*
X73780000Y-55850000D03*
X66730000Y-55400000D03*
X73830000Y-61950000D03*
X66680000Y-62400000D03*
X73780000Y-62400000D03*
X66730000Y-61950000D03*
X70455000Y-82125000D03*
X73730000Y-81900000D03*
X73480000Y-79275000D03*
X64730000Y-78100000D03*
X68730000Y-80000000D03*
X66680000Y-66150000D03*
X66730000Y-65700000D03*
X73780000Y-66150000D03*
X73830000Y-65700000D03*
X66530000Y-71450000D03*
X66530000Y-72250000D03*
X71780000Y-75975000D03*
X71270000Y-91095000D03*
X70855000Y-82525000D03*
X74004990Y-82600000D03*
X64895000Y-101305000D03*
X64430000Y-82000000D03*
X64479990Y-80500000D03*
X63650000Y-105400000D03*
X64920000Y-73142000D03*
X64920000Y-71872000D03*
X63650000Y-107432000D03*
X71270000Y-89144000D03*
X70000000Y-87874000D03*
X73240000Y-89000000D03*
X73810000Y-74666000D03*
X67206000Y-60354000D03*
X74064000Y-59500000D03*
X64680000Y-55000000D03*
X67206000Y-93716000D03*
X70000000Y-92446000D03*
X64895000Y-101905000D03*
X64295000Y-101305000D03*
X64295000Y-101905000D03*
X64130000Y-57550000D03*
X70000000Y-69840000D03*
X73810000Y-72380000D03*
X72540000Y-70475000D03*
X66620000Y-69770000D03*
X69492000Y-85080000D03*
X70254000Y-60188000D03*
X73175000Y-97780000D03*
X70635000Y-96510000D03*
X68095000Y-96510000D03*
X64285000Y-97145000D03*
X64285000Y-99050000D03*
X63650000Y-110480000D03*
X66825000Y-110480000D03*
X70000000Y-110480000D03*
X73175000Y-110480000D03*
X73175000Y-102860000D03*
X72540000Y-46980000D03*
X70000000Y-46980000D03*
X67460000Y-46980000D03*
X64920000Y-46980000D03*
%TO.N,+5V*%
X74064000Y-105527000D03*
X73556000Y-105527000D03*
X73556000Y-105019000D03*
X74064000Y-105019000D03*
X73830000Y-53200000D03*
X73780000Y-53650000D03*
X73830000Y-56950000D03*
X73780000Y-57400000D03*
X73830000Y-63500000D03*
X73780000Y-63950000D03*
X73830000Y-67250000D03*
X73780000Y-67700000D03*
X72130000Y-51500000D03*
X72130000Y-55200000D03*
%TO.N,vccd*%
X66730000Y-57500000D03*
X66730000Y-57000000D03*
X70755000Y-75450000D03*
%TO.N,vdda*%
X64980000Y-53500000D03*
X66444000Y-94905000D03*
X65230000Y-76950000D03*
X71130000Y-74550000D03*
X71130000Y-73650000D03*
X65480000Y-53250000D03*
%TO.N,vccd1*%
X64930000Y-61900000D03*
X65430000Y-61600000D03*
X65130000Y-83300000D03*
X71380000Y-83050000D03*
%TO.N,vdda1*%
X64930000Y-66750000D03*
X65430000Y-66500000D03*
X65030000Y-81800000D03*
X71930000Y-78725000D03*
%TO.N,vddio*%
X64930000Y-52200000D03*
X65430000Y-51900000D03*
X72530000Y-82450000D03*
X71778000Y-99939000D03*
%TO.N,gpio*%
X70380000Y-61700000D03*
X70380000Y-65450000D03*
X65630000Y-75650000D03*
%TO.N,flash_io0*%
X66805000Y-91100000D03*
X68005010Y-75650000D03*
%TO.N,flash_csb*%
X68780000Y-75400000D03*
X70780000Y-94900000D03*
%TO.N,resetb*%
X63330000Y-90050000D03*
X65428000Y-103749000D03*
%TO.N,mprj_io[2]*%
X64530000Y-86900000D03*
X69111000Y-102987000D03*
%TO.N,mprj_io[1]*%
X64530000Y-86250000D03*
X70381000Y-103749000D03*
%TO.N,flash_io1*%
X67280000Y-75850000D03*
X67180000Y-89900000D03*
%TO.N,mprj_io[36]*%
X73455000Y-75975000D03*
%TO.N,mprj_io[4]*%
X63930000Y-87800000D03*
X67841000Y-102987000D03*
%TO.N,mprj_io[3]*%
X63930000Y-87150000D03*
X69111000Y-103749000D03*
%TO.N,flash_clk*%
X66530000Y-77900000D03*
X66280000Y-92350000D03*
%TO.N,mprj_io[33]*%
X69980000Y-76775000D03*
%TO.N,mprj_io[34]*%
X73329998Y-76975000D03*
%TO.N,mprj_io[6]*%
X63330000Y-88700000D03*
X66698000Y-102987000D03*
%TO.N,mprj_io[5]*%
X63930000Y-88450000D03*
X67841000Y-103749000D03*
%TO.N,mprj_io[0]*%
X64530000Y-85600000D03*
X70381000Y-102987000D03*
%TO.N,mprj_io[32]*%
X71255000Y-79375000D03*
%TO.N,mprj_io[7]*%
X63330000Y-89350000D03*
X66698000Y-103749000D03*
%TO.N,mprj_io[12]*%
X66280000Y-81375010D03*
%TO.N,mprj_io[11]*%
X66305000Y-81950000D03*
%TO.N,mprj_io[24]*%
X73605000Y-86150000D03*
%TO.N,mprj_io[15]*%
X66380000Y-83424990D03*
%TO.N,mprj_io[19]*%
X73605000Y-86875000D03*
%TD*%
D13*
%TO.N,+5V*%
X73780000Y-67700000D02*
X72959998Y-67700000D01*
X73830000Y-67650000D02*
X73780000Y-67700000D01*
X73830000Y-67250000D02*
X73830000Y-67650000D01*
X73780000Y-63950000D02*
X72979998Y-63950000D01*
X73830000Y-63900000D02*
X73780000Y-63950000D01*
X73830000Y-63500000D02*
X73830000Y-63900000D01*
X73830000Y-56950000D02*
X72896000Y-56950000D01*
X73830000Y-57350000D02*
X73780000Y-57400000D01*
X73830000Y-56950000D02*
X73830000Y-57350000D01*
X73830000Y-53600000D02*
X73780000Y-53650000D01*
X73830000Y-53200000D02*
X73830000Y-53600000D01*
X73830000Y-53200000D02*
X72844800Y-53200000D01*
X73780000Y-57400000D02*
X72895600Y-57400000D01*
X73780000Y-53650000D02*
X72821000Y-53650000D01*
X73830000Y-63500000D02*
X72924600Y-63500000D01*
X73830000Y-67250000D02*
X72971800Y-67250000D01*
D14*
X72130000Y-55200000D02*
X72530000Y-55200000D01*
X72530000Y-55200000D02*
X72866999Y-54863001D01*
D15*
X72866999Y-69316999D02*
X74830000Y-71280000D01*
X74830000Y-71280000D02*
X74830000Y-103110000D01*
X74830000Y-103110000D02*
X74830000Y-103400000D01*
X73053998Y-60950000D02*
X72866999Y-60763001D01*
X76350000Y-60950000D02*
X73053998Y-60950000D01*
X72866999Y-60763001D02*
X72866999Y-69316999D01*
X72866999Y-54863001D02*
X72866999Y-60763001D01*
X72866999Y-51836999D02*
X72866999Y-54863001D01*
X76350000Y-45710000D02*
X72866999Y-49193001D01*
D14*
X72530000Y-51500000D02*
X72866999Y-51836999D01*
X72130000Y-51500000D02*
X72530000Y-51500000D01*
D15*
X72866999Y-49193001D02*
X72866999Y-51836999D01*
X74830000Y-103110000D02*
X74830000Y-104700000D01*
D16*
X73556000Y-105527000D02*
X73556000Y-105019000D01*
X73556000Y-105019000D02*
X74064000Y-105019000D01*
D15*
X74261367Y-105268633D02*
X73830000Y-105268633D01*
X74730000Y-104800000D02*
X74261367Y-105268633D01*
D13*
%TO.N,vccd*%
X71830000Y-74940000D02*
X71300000Y-75470000D01*
X69230000Y-70600000D02*
X71830000Y-73200000D01*
X69230000Y-60000000D02*
X69230000Y-70600000D01*
X71830000Y-73200000D02*
X71830000Y-74940000D01*
X66730000Y-57500000D02*
X69230000Y-60000000D01*
X71300000Y-75470000D02*
X70790000Y-75470000D01*
X66730000Y-57500000D02*
X66730000Y-57000000D01*
%TO.N,vdda*%
X71130000Y-74550000D02*
X71130000Y-73650000D01*
D16*
X65230000Y-53500000D02*
X65480000Y-53250000D01*
X64980000Y-53500000D02*
X65230000Y-53500000D01*
D13*
X68330000Y-70850000D02*
X71130000Y-73650000D01*
X68330000Y-60350000D02*
X68330000Y-70850000D01*
X65480000Y-57500000D02*
X68330000Y-60350000D01*
X65480000Y-53250000D02*
X65480000Y-57500000D01*
X64080000Y-58900000D02*
X65480000Y-57500000D01*
X66080000Y-64500000D02*
X64080000Y-62500000D01*
X66080000Y-69463998D02*
X66080000Y-64500000D01*
X64080000Y-62500000D02*
X64080000Y-58900000D01*
X65630000Y-69913998D02*
X66080000Y-69463998D01*
X64980000Y-74610000D02*
X65630000Y-73960000D01*
X64980000Y-76700000D02*
X64980000Y-74610000D01*
X65630000Y-73960000D02*
X65630000Y-69913998D01*
X65230000Y-76950000D02*
X64980000Y-76700000D01*
D16*
%TO.N,vccd1*%
X65130000Y-61900000D02*
X65430000Y-61600000D01*
X64930000Y-61900000D02*
X65130000Y-61900000D01*
D13*
X65580001Y-82849999D02*
X65130000Y-83300000D01*
X65580001Y-82849999D02*
X67159999Y-82849999D01*
X67170000Y-82839998D02*
X67159999Y-82849999D01*
X67170000Y-77240000D02*
X67170000Y-82839998D01*
X66600000Y-76670000D02*
X67170000Y-77240000D01*
X65430000Y-61600000D02*
X65430000Y-61964002D01*
X65430000Y-61964002D02*
X67480000Y-64014002D01*
X66600000Y-72994002D02*
X66600000Y-76670000D01*
X67480000Y-64014002D02*
X67480000Y-72114002D01*
X67480000Y-72114002D02*
X66600000Y-72994002D01*
X71055000Y-83050000D02*
X71380000Y-83050000D01*
X70805000Y-83300000D02*
X71055000Y-83050000D01*
X67610000Y-83300000D02*
X70805000Y-83300000D01*
X67159999Y-82849999D02*
X67610000Y-83300000D01*
D16*
%TO.N,vdda1*%
X65180000Y-66750000D02*
X65430000Y-66500000D01*
X64930000Y-66750000D02*
X65180000Y-66750000D01*
D13*
X71930000Y-83340046D02*
X71930000Y-78725000D01*
X65430000Y-66500000D02*
X64030000Y-67900000D01*
X64430000Y-83550000D02*
X64980000Y-84100000D01*
X64430000Y-82814002D02*
X64430000Y-83550000D01*
X64030000Y-67900000D02*
X64030000Y-78200000D01*
X65030000Y-82214002D02*
X64430000Y-82814002D01*
X64030000Y-78200000D02*
X65030000Y-79200000D01*
X64980000Y-84100000D02*
X71170046Y-84100000D01*
X65030000Y-79200000D02*
X65030000Y-82214002D01*
X71170046Y-84100000D02*
X71930000Y-83340046D01*
D16*
%TO.N,vddio*%
X65130000Y-52200000D02*
X65430000Y-51900000D01*
X64930000Y-52200000D02*
X65130000Y-52200000D01*
D13*
X72530000Y-72000000D02*
X72530000Y-82450000D01*
X71008001Y-70478001D02*
X72530000Y-72000000D01*
X71008001Y-57478001D02*
X71008001Y-70478001D01*
X65430000Y-51900000D02*
X71008001Y-57478001D01*
X72530000Y-99187000D02*
X71778000Y-99939000D01*
X72530000Y-82450000D02*
X72530000Y-99187000D01*
D17*
%TO.N,resetb*%
X64539000Y-103749000D02*
X65428000Y-103749000D01*
X63330000Y-90050000D02*
X63330000Y-100635000D01*
X63330000Y-102540000D02*
X63330000Y-100635000D01*
X64539000Y-103749000D02*
X63330000Y-102540000D01*
%TO.N,mprj_io[2]*%
X64780044Y-87150044D02*
X64430000Y-86800000D01*
X69111000Y-98738284D02*
X64780044Y-94407328D01*
X64780044Y-94407328D02*
X64780044Y-87150044D01*
X69111000Y-102987000D02*
X69111000Y-98738284D01*
%TO.N,mprj_io[1]*%
X64980055Y-86650055D02*
X64630000Y-86300000D01*
X70005999Y-99350425D02*
X64980055Y-94324481D01*
X70005999Y-103373999D02*
X70005999Y-99350425D01*
X64980055Y-94324481D02*
X64980055Y-86650055D01*
X70381000Y-103749000D02*
X70005999Y-103373999D01*
%TO.N,mprj_io[4]*%
X64380022Y-94573022D02*
X64380022Y-88250022D01*
X64380022Y-88250022D02*
X63930000Y-87800000D01*
X67841000Y-98034000D02*
X64380022Y-94573022D01*
X67841000Y-102987000D02*
X67841000Y-98034000D01*
%TO.N,mprj_io[3]*%
X64580033Y-94490175D02*
X64580033Y-87800033D01*
X64580033Y-87800033D02*
X63930000Y-87150000D01*
X68735999Y-98646141D02*
X64580033Y-94490175D01*
X68735999Y-103373999D02*
X68735999Y-98646141D01*
X69111000Y-103749000D02*
X68735999Y-103373999D01*
%TO.N,mprj_io[6]*%
X63980000Y-89350000D02*
X63330000Y-88700000D01*
X63980000Y-94808000D02*
X63980000Y-89350000D01*
X66698000Y-97526000D02*
X63980000Y-94808000D01*
X66698000Y-102987000D02*
X66698000Y-97526000D01*
%TO.N,mprj_io[5]*%
X64180011Y-88700011D02*
X63930000Y-88450000D01*
X67465999Y-103373999D02*
X67465999Y-98011141D01*
X64180011Y-94725153D02*
X64180011Y-88700011D01*
X67465999Y-98011141D02*
X64180011Y-94725153D01*
X67841000Y-103749000D02*
X67465999Y-103373999D01*
%TO.N,mprj_io[0]*%
X65180066Y-86250066D02*
X64530000Y-85600000D01*
X65180066Y-94230066D02*
X65180066Y-86250066D01*
X70381000Y-99431000D02*
X65180066Y-94230066D01*
X70381000Y-102987000D02*
X70381000Y-99431000D01*
%TO.N,mprj_io[7]*%
X63780000Y-89800000D02*
X63330000Y-89350000D01*
X63780000Y-94925500D02*
X63780000Y-89800000D01*
X66311001Y-97456501D02*
X63780000Y-94925500D01*
X66311001Y-103362001D02*
X66311001Y-97456501D01*
X66698000Y-103749000D02*
X66311001Y-103362001D01*
%TD*%
%TO.N,GND*%
X78205000Y-111065000D02*
X59255000Y-111065000D01*
X59255000Y-109589171D01*
X60020071Y-109589171D01*
X60071181Y-109712588D01*
X60189192Y-109905594D01*
X60342589Y-110071869D01*
X60525477Y-110205023D01*
X60730828Y-110299939D01*
X60906000Y-110269836D01*
X60906000Y-109414000D01*
X61314000Y-109414000D01*
X61314000Y-110269836D01*
X61489172Y-110299939D01*
X61694523Y-110205023D01*
X61877411Y-110071869D01*
X62030808Y-109905594D01*
X62148819Y-109712588D01*
X62199929Y-109589171D01*
X62168522Y-109414000D01*
X61314000Y-109414000D01*
X60906000Y-109414000D01*
X60051478Y-109414000D01*
X60020071Y-109589171D01*
X59255000Y-109589171D01*
X59255000Y-109106584D01*
X75300000Y-109106584D01*
X75300000Y-109313416D01*
X75340350Y-109516274D01*
X75419502Y-109707362D01*
X75534411Y-109879336D01*
X75680664Y-110025589D01*
X75852638Y-110140498D01*
X76043726Y-110219650D01*
X76246584Y-110260000D01*
X76453416Y-110260000D01*
X76656274Y-110219650D01*
X76847362Y-110140498D01*
X77019336Y-110025589D01*
X77165589Y-109879336D01*
X77280498Y-109707362D01*
X77359650Y-109516274D01*
X77400000Y-109313416D01*
X77400000Y-109106584D01*
X77359650Y-108903726D01*
X77280498Y-108712638D01*
X77165589Y-108540664D01*
X77019336Y-108394411D01*
X76847362Y-108279502D01*
X76656274Y-108200350D01*
X76453416Y-108160000D01*
X76246584Y-108160000D01*
X76043726Y-108200350D01*
X75852638Y-108279502D01*
X75680664Y-108394411D01*
X75534411Y-108540664D01*
X75419502Y-108712638D01*
X75340350Y-108903726D01*
X75300000Y-109106584D01*
X59255000Y-109106584D01*
X59255000Y-108830829D01*
X60020071Y-108830829D01*
X60051478Y-109006000D01*
X60906000Y-109006000D01*
X60906000Y-108150164D01*
X61314000Y-108150164D01*
X61314000Y-109006000D01*
X62168522Y-109006000D01*
X62199929Y-108830829D01*
X62148819Y-108707412D01*
X62030808Y-108514406D01*
X61877411Y-108348131D01*
X61694523Y-108214977D01*
X61489172Y-108120061D01*
X61314000Y-108150164D01*
X60906000Y-108150164D01*
X60730828Y-108120061D01*
X60525477Y-108214977D01*
X60342589Y-108348131D01*
X60189192Y-108514406D01*
X60071181Y-108707412D01*
X60020071Y-108830829D01*
X59255000Y-108830829D01*
X59255000Y-106566584D01*
X60060000Y-106566584D01*
X60060000Y-106773416D01*
X60100350Y-106976274D01*
X60179502Y-107167362D01*
X60294411Y-107339336D01*
X60440664Y-107485589D01*
X60612638Y-107600498D01*
X60803726Y-107679650D01*
X61006584Y-107720000D01*
X61213416Y-107720000D01*
X61416274Y-107679650D01*
X61607362Y-107600498D01*
X61779336Y-107485589D01*
X61925589Y-107339336D01*
X62040498Y-107167362D01*
X62119650Y-106976274D01*
X62160000Y-106773416D01*
X62160000Y-106566584D01*
X75300000Y-106566584D01*
X75300000Y-106773416D01*
X75340350Y-106976274D01*
X75419502Y-107167362D01*
X75534411Y-107339336D01*
X75680664Y-107485589D01*
X75852638Y-107600498D01*
X76043726Y-107679650D01*
X76246584Y-107720000D01*
X76453416Y-107720000D01*
X76656274Y-107679650D01*
X76847362Y-107600498D01*
X77019336Y-107485589D01*
X77165589Y-107339336D01*
X77280498Y-107167362D01*
X77359650Y-106976274D01*
X77400000Y-106773416D01*
X77400000Y-106566584D01*
X77359650Y-106363726D01*
X77280498Y-106172638D01*
X77165589Y-106000664D01*
X77019336Y-105854411D01*
X76847362Y-105739502D01*
X76656274Y-105660350D01*
X76453416Y-105620000D01*
X76246584Y-105620000D01*
X76043726Y-105660350D01*
X75852638Y-105739502D01*
X75680664Y-105854411D01*
X75534411Y-106000664D01*
X75419502Y-106172638D01*
X75340350Y-106363726D01*
X75300000Y-106566584D01*
X62160000Y-106566584D01*
X62119650Y-106363726D01*
X62040498Y-106172638D01*
X61925589Y-106000664D01*
X61779336Y-105854411D01*
X61607362Y-105739502D01*
X61416274Y-105660350D01*
X61213416Y-105620000D01*
X61006584Y-105620000D01*
X60803726Y-105660350D01*
X60612638Y-105739502D01*
X60440664Y-105854411D01*
X60294411Y-106000664D01*
X60179502Y-106172638D01*
X60100350Y-106363726D01*
X60060000Y-106566584D01*
X59255000Y-106566584D01*
X59255000Y-104026584D01*
X60060000Y-104026584D01*
X60060000Y-104233416D01*
X60100350Y-104436274D01*
X60179502Y-104627362D01*
X60294411Y-104799336D01*
X60440664Y-104945589D01*
X60612638Y-105060498D01*
X60803726Y-105139650D01*
X61006584Y-105180000D01*
X61213416Y-105180000D01*
X61416274Y-105139650D01*
X61607362Y-105060498D01*
X61779336Y-104945589D01*
X61925589Y-104799336D01*
X62040498Y-104627362D01*
X62119650Y-104436274D01*
X62160000Y-104233416D01*
X62160000Y-104026584D01*
X62119650Y-103823726D01*
X62040498Y-103632638D01*
X61925589Y-103460664D01*
X61779336Y-103314411D01*
X61607362Y-103199502D01*
X61416274Y-103120350D01*
X61213416Y-103080000D01*
X61006584Y-103080000D01*
X60803726Y-103120350D01*
X60612638Y-103199502D01*
X60440664Y-103314411D01*
X60294411Y-103460664D01*
X60179502Y-103632638D01*
X60100350Y-103823726D01*
X60060000Y-104026584D01*
X59255000Y-104026584D01*
X59255000Y-101486584D01*
X60060000Y-101486584D01*
X60060000Y-101693416D01*
X60100350Y-101896274D01*
X60179502Y-102087362D01*
X60294411Y-102259336D01*
X60440664Y-102405589D01*
X60612638Y-102520498D01*
X60803726Y-102599650D01*
X61006584Y-102640000D01*
X61213416Y-102640000D01*
X61416274Y-102599650D01*
X61607362Y-102520498D01*
X61779336Y-102405589D01*
X61925589Y-102259336D01*
X62040498Y-102087362D01*
X62119650Y-101896274D01*
X62160000Y-101693416D01*
X62160000Y-101486584D01*
X62119650Y-101283726D01*
X62040498Y-101092638D01*
X61925589Y-100920664D01*
X61779336Y-100774411D01*
X61607362Y-100659502D01*
X61416274Y-100580350D01*
X61213416Y-100540000D01*
X61006584Y-100540000D01*
X60803726Y-100580350D01*
X60612638Y-100659502D01*
X60440664Y-100774411D01*
X60294411Y-100920664D01*
X60179502Y-101092638D01*
X60100350Y-101283726D01*
X60060000Y-101486584D01*
X59255000Y-101486584D01*
X59255000Y-98946584D01*
X60060000Y-98946584D01*
X60060000Y-99153416D01*
X60100350Y-99356274D01*
X60179502Y-99547362D01*
X60294411Y-99719336D01*
X60440664Y-99865589D01*
X60612638Y-99980498D01*
X60803726Y-100059650D01*
X61006584Y-100100000D01*
X61213416Y-100100000D01*
X61416274Y-100059650D01*
X61607362Y-99980498D01*
X61779336Y-99865589D01*
X61925589Y-99719336D01*
X62040498Y-99547362D01*
X62119650Y-99356274D01*
X62160000Y-99153416D01*
X62160000Y-98946584D01*
X62119650Y-98743726D01*
X62040498Y-98552638D01*
X61925589Y-98380664D01*
X61779336Y-98234411D01*
X61607362Y-98119502D01*
X61416274Y-98040350D01*
X61213416Y-98000000D01*
X61006584Y-98000000D01*
X60803726Y-98040350D01*
X60612638Y-98119502D01*
X60440664Y-98234411D01*
X60294411Y-98380664D01*
X60179502Y-98552638D01*
X60100350Y-98743726D01*
X60060000Y-98946584D01*
X59255000Y-98946584D01*
X59255000Y-96406584D01*
X60060000Y-96406584D01*
X60060000Y-96613416D01*
X60100350Y-96816274D01*
X60179502Y-97007362D01*
X60294411Y-97179336D01*
X60440664Y-97325589D01*
X60612638Y-97440498D01*
X60803726Y-97519650D01*
X61006584Y-97560000D01*
X61213416Y-97560000D01*
X61416274Y-97519650D01*
X61607362Y-97440498D01*
X61779336Y-97325589D01*
X61925589Y-97179336D01*
X62040498Y-97007362D01*
X62119650Y-96816274D01*
X62160000Y-96613416D01*
X62160000Y-96406584D01*
X62119650Y-96203726D01*
X62040498Y-96012638D01*
X61925589Y-95840664D01*
X61779336Y-95694411D01*
X61607362Y-95579502D01*
X61416274Y-95500350D01*
X61213416Y-95460000D01*
X61006584Y-95460000D01*
X60803726Y-95500350D01*
X60612638Y-95579502D01*
X60440664Y-95694411D01*
X60294411Y-95840664D01*
X60179502Y-96012638D01*
X60100350Y-96203726D01*
X60060000Y-96406584D01*
X59255000Y-96406584D01*
X59255000Y-93866584D01*
X60060000Y-93866584D01*
X60060000Y-94073416D01*
X60100350Y-94276274D01*
X60179502Y-94467362D01*
X60294411Y-94639336D01*
X60440664Y-94785589D01*
X60612638Y-94900498D01*
X60803726Y-94979650D01*
X61006584Y-95020000D01*
X61213416Y-95020000D01*
X61416274Y-94979650D01*
X61607362Y-94900498D01*
X61779336Y-94785589D01*
X61925589Y-94639336D01*
X62040498Y-94467362D01*
X62119650Y-94276274D01*
X62160000Y-94073416D01*
X62160000Y-93866584D01*
X62119650Y-93663726D01*
X62040498Y-93472638D01*
X61925589Y-93300664D01*
X61779336Y-93154411D01*
X61607362Y-93039502D01*
X61416274Y-92960350D01*
X61213416Y-92920000D01*
X61006584Y-92920000D01*
X60803726Y-92960350D01*
X60612638Y-93039502D01*
X60440664Y-93154411D01*
X60294411Y-93300664D01*
X60179502Y-93472638D01*
X60100350Y-93663726D01*
X60060000Y-93866584D01*
X59255000Y-93866584D01*
X59255000Y-91326584D01*
X60060000Y-91326584D01*
X60060000Y-91533416D01*
X60100350Y-91736274D01*
X60179502Y-91927362D01*
X60294411Y-92099336D01*
X60440664Y-92245589D01*
X60612638Y-92360498D01*
X60803726Y-92439650D01*
X61006584Y-92480000D01*
X61213416Y-92480000D01*
X61416274Y-92439650D01*
X61607362Y-92360498D01*
X61779336Y-92245589D01*
X61925589Y-92099336D01*
X62040498Y-91927362D01*
X62119650Y-91736274D01*
X62160000Y-91533416D01*
X62160000Y-91326584D01*
X62119650Y-91123726D01*
X62040498Y-90932638D01*
X61925589Y-90760664D01*
X61779336Y-90614411D01*
X61607362Y-90499502D01*
X61416274Y-90420350D01*
X61213416Y-90380000D01*
X61006584Y-90380000D01*
X60803726Y-90420350D01*
X60612638Y-90499502D01*
X60440664Y-90614411D01*
X60294411Y-90760664D01*
X60179502Y-90932638D01*
X60100350Y-91123726D01*
X60060000Y-91326584D01*
X59255000Y-91326584D01*
X59255000Y-88786584D01*
X60060000Y-88786584D01*
X60060000Y-88993416D01*
X60100350Y-89196274D01*
X60179502Y-89387362D01*
X60294411Y-89559336D01*
X60440664Y-89705589D01*
X60612638Y-89820498D01*
X60803726Y-89899650D01*
X61006584Y-89940000D01*
X61213416Y-89940000D01*
X61416274Y-89899650D01*
X61607362Y-89820498D01*
X61779336Y-89705589D01*
X61925589Y-89559336D01*
X62040498Y-89387362D01*
X62119650Y-89196274D01*
X62160000Y-88993416D01*
X62160000Y-88786584D01*
X62134452Y-88658141D01*
X62905000Y-88658141D01*
X62905000Y-88741859D01*
X62921333Y-88823968D01*
X62953370Y-88901313D01*
X62999881Y-88970921D01*
X63053960Y-89025000D01*
X62999881Y-89079079D01*
X62953370Y-89148687D01*
X62921333Y-89226032D01*
X62905000Y-89308141D01*
X62905000Y-89391859D01*
X62921333Y-89473968D01*
X62953370Y-89551313D01*
X62999881Y-89620921D01*
X63059079Y-89680119D01*
X63088833Y-89700000D01*
X63059079Y-89719881D01*
X62999881Y-89779079D01*
X62953370Y-89848687D01*
X62921333Y-89926032D01*
X62905000Y-90008141D01*
X62905000Y-90091859D01*
X62921333Y-90173968D01*
X62953370Y-90251313D01*
X62999881Y-90320921D01*
X63059079Y-90380119D01*
X63080000Y-90394098D01*
X63080001Y-100622725D01*
X63080000Y-102527725D01*
X63078791Y-102540000D01*
X63080000Y-102552274D01*
X63083618Y-102589007D01*
X63097913Y-102636133D01*
X63121127Y-102679564D01*
X63152368Y-102717632D01*
X63161914Y-102725466D01*
X64353543Y-103917097D01*
X64361368Y-103926632D01*
X64399436Y-103957873D01*
X64442866Y-103981087D01*
X64489990Y-103995382D01*
X64538999Y-104000209D01*
X64551274Y-103999000D01*
X65083902Y-103999000D01*
X65097881Y-104019921D01*
X65157079Y-104079119D01*
X65226687Y-104125630D01*
X65304032Y-104157667D01*
X65386141Y-104174000D01*
X65469859Y-104174000D01*
X65551968Y-104157667D01*
X65629313Y-104125630D01*
X65698921Y-104079119D01*
X65758119Y-104019921D01*
X65804630Y-103950313D01*
X65836667Y-103872968D01*
X65853000Y-103790859D01*
X65853000Y-103707141D01*
X65836667Y-103625032D01*
X65804630Y-103547687D01*
X65758119Y-103478079D01*
X65698921Y-103418881D01*
X65629313Y-103372370D01*
X65551968Y-103340333D01*
X65469859Y-103324000D01*
X65386141Y-103324000D01*
X65304032Y-103340333D01*
X65226687Y-103372370D01*
X65157079Y-103418881D01*
X65097881Y-103478079D01*
X65083902Y-103499000D01*
X64642554Y-103499000D01*
X63580000Y-102436448D01*
X63580000Y-95075876D01*
X63602368Y-95103132D01*
X63611914Y-95110966D01*
X66061002Y-97560055D01*
X66061001Y-103349726D01*
X66059792Y-103362001D01*
X66064619Y-103411009D01*
X66078914Y-103458134D01*
X66102128Y-103501565D01*
X66133369Y-103539633D01*
X66142915Y-103547467D01*
X66277909Y-103682462D01*
X66273000Y-103707141D01*
X66273000Y-103790859D01*
X66289333Y-103872968D01*
X66321370Y-103950313D01*
X66367881Y-104019921D01*
X66427079Y-104079119D01*
X66496687Y-104125630D01*
X66574032Y-104157667D01*
X66656141Y-104174000D01*
X66739859Y-104174000D01*
X66821968Y-104157667D01*
X66899313Y-104125630D01*
X66968921Y-104079119D01*
X67028119Y-104019921D01*
X67074630Y-103950313D01*
X67106667Y-103872968D01*
X67123000Y-103790859D01*
X67123000Y-103707141D01*
X67106667Y-103625032D01*
X67074630Y-103547687D01*
X67028119Y-103478079D01*
X66968921Y-103418881D01*
X66899313Y-103372370D01*
X66888763Y-103368000D01*
X66899313Y-103363630D01*
X66968921Y-103317119D01*
X67028119Y-103257921D01*
X67074630Y-103188313D01*
X67106667Y-103110968D01*
X67123000Y-103028859D01*
X67123000Y-102945141D01*
X67106667Y-102863032D01*
X67074630Y-102785687D01*
X67028119Y-102716079D01*
X66968921Y-102656881D01*
X66948000Y-102642902D01*
X66948000Y-97846695D01*
X67216000Y-98114695D01*
X67215999Y-103361724D01*
X67214790Y-103373999D01*
X67215999Y-103386273D01*
X67219617Y-103423006D01*
X67233912Y-103470132D01*
X67257126Y-103513563D01*
X67288367Y-103551631D01*
X67297913Y-103559465D01*
X67420909Y-103682462D01*
X67416000Y-103707141D01*
X67416000Y-103790859D01*
X67432333Y-103872968D01*
X67464370Y-103950313D01*
X67510881Y-104019921D01*
X67570079Y-104079119D01*
X67639687Y-104125630D01*
X67717032Y-104157667D01*
X67799141Y-104174000D01*
X67882859Y-104174000D01*
X67964968Y-104157667D01*
X68042313Y-104125630D01*
X68111921Y-104079119D01*
X68171119Y-104019921D01*
X68217630Y-103950313D01*
X68249667Y-103872968D01*
X68266000Y-103790859D01*
X68266000Y-103707141D01*
X68249667Y-103625032D01*
X68217630Y-103547687D01*
X68171119Y-103478079D01*
X68111921Y-103418881D01*
X68042313Y-103372370D01*
X68031763Y-103368000D01*
X68042313Y-103363630D01*
X68111921Y-103317119D01*
X68171119Y-103257921D01*
X68217630Y-103188313D01*
X68249667Y-103110968D01*
X68266000Y-103028859D01*
X68266000Y-102945141D01*
X68249667Y-102863032D01*
X68217630Y-102785687D01*
X68171119Y-102716079D01*
X68111921Y-102656881D01*
X68091000Y-102642902D01*
X68091000Y-98354696D01*
X68486000Y-98749696D01*
X68485999Y-103361724D01*
X68484790Y-103373999D01*
X68485999Y-103386273D01*
X68489617Y-103423006D01*
X68503912Y-103470132D01*
X68527126Y-103513563D01*
X68558367Y-103551631D01*
X68567913Y-103559465D01*
X68690909Y-103682462D01*
X68686000Y-103707141D01*
X68686000Y-103790859D01*
X68702333Y-103872968D01*
X68734370Y-103950313D01*
X68780881Y-104019921D01*
X68840079Y-104079119D01*
X68909687Y-104125630D01*
X68987032Y-104157667D01*
X69069141Y-104174000D01*
X69152859Y-104174000D01*
X69234968Y-104157667D01*
X69312313Y-104125630D01*
X69381921Y-104079119D01*
X69441119Y-104019921D01*
X69487630Y-103950313D01*
X69519667Y-103872968D01*
X69536000Y-103790859D01*
X69536000Y-103707141D01*
X69519667Y-103625032D01*
X69487630Y-103547687D01*
X69441119Y-103478079D01*
X69381921Y-103418881D01*
X69312313Y-103372370D01*
X69301763Y-103368000D01*
X69312313Y-103363630D01*
X69381921Y-103317119D01*
X69441119Y-103257921D01*
X69487630Y-103188313D01*
X69519667Y-103110968D01*
X69536000Y-103028859D01*
X69536000Y-102945141D01*
X69519667Y-102863032D01*
X69487630Y-102785687D01*
X69441119Y-102716079D01*
X69381921Y-102656881D01*
X69361000Y-102642902D01*
X69361000Y-99058980D01*
X69756000Y-99453980D01*
X69755999Y-103361724D01*
X69754790Y-103373999D01*
X69755999Y-103386273D01*
X69759617Y-103423006D01*
X69773912Y-103470132D01*
X69797126Y-103513563D01*
X69828367Y-103551631D01*
X69837913Y-103559465D01*
X69960909Y-103682462D01*
X69956000Y-103707141D01*
X69956000Y-103790859D01*
X69972333Y-103872968D01*
X70004370Y-103950313D01*
X70050881Y-104019921D01*
X70110079Y-104079119D01*
X70179687Y-104125630D01*
X70257032Y-104157667D01*
X70339141Y-104174000D01*
X70422859Y-104174000D01*
X70504968Y-104157667D01*
X70582313Y-104125630D01*
X70651921Y-104079119D01*
X70711119Y-104019921D01*
X70757630Y-103950313D01*
X70789667Y-103872968D01*
X70806000Y-103790859D01*
X70806000Y-103707141D01*
X70789667Y-103625032D01*
X70757630Y-103547687D01*
X70711119Y-103478079D01*
X70651921Y-103418881D01*
X70582313Y-103372370D01*
X70571763Y-103368000D01*
X70582313Y-103363630D01*
X70651921Y-103317119D01*
X70711119Y-103257921D01*
X70757630Y-103188313D01*
X70789667Y-103110968D01*
X70806000Y-103028859D01*
X70806000Y-102945141D01*
X70789667Y-102863032D01*
X70757630Y-102785687D01*
X70711119Y-102716079D01*
X70651921Y-102656881D01*
X70631000Y-102642902D01*
X70631000Y-99443272D01*
X70632209Y-99430999D01*
X70631000Y-99418725D01*
X70627382Y-99381992D01*
X70613087Y-99334866D01*
X70589873Y-99291436D01*
X70558632Y-99253368D01*
X70549097Y-99245543D01*
X66602794Y-95299242D01*
X66645313Y-95281630D01*
X66714921Y-95235119D01*
X66774119Y-95175921D01*
X66820630Y-95106313D01*
X66852667Y-95028968D01*
X66869000Y-94946859D01*
X66869000Y-94863141D01*
X66868006Y-94858141D01*
X70355000Y-94858141D01*
X70355000Y-94941859D01*
X70371333Y-95023968D01*
X70403370Y-95101313D01*
X70449881Y-95170921D01*
X70509079Y-95230119D01*
X70578687Y-95276630D01*
X70656032Y-95308667D01*
X70738141Y-95325000D01*
X70821859Y-95325000D01*
X70903968Y-95308667D01*
X70981313Y-95276630D01*
X71050921Y-95230119D01*
X71110119Y-95170921D01*
X71156630Y-95101313D01*
X71188667Y-95023968D01*
X71205000Y-94941859D01*
X71205000Y-94858141D01*
X71188667Y-94776032D01*
X71156630Y-94698687D01*
X71110119Y-94629079D01*
X71050921Y-94569881D01*
X70981313Y-94523370D01*
X70903968Y-94491333D01*
X70821859Y-94475000D01*
X70738141Y-94475000D01*
X70656032Y-94491333D01*
X70578687Y-94523370D01*
X70509079Y-94569881D01*
X70449881Y-94629079D01*
X70403370Y-94698687D01*
X70371333Y-94776032D01*
X70355000Y-94858141D01*
X66868006Y-94858141D01*
X66852667Y-94781032D01*
X66820630Y-94703687D01*
X66774119Y-94634079D01*
X66714921Y-94574881D01*
X66645313Y-94528370D01*
X66567968Y-94496333D01*
X66485859Y-94480000D01*
X66402141Y-94480000D01*
X66320032Y-94496333D01*
X66242687Y-94528370D01*
X66173079Y-94574881D01*
X66113881Y-94634079D01*
X66067370Y-94703687D01*
X66049758Y-94746206D01*
X65430066Y-94126514D01*
X65430066Y-92308141D01*
X65855000Y-92308141D01*
X65855000Y-92391859D01*
X65871333Y-92473968D01*
X65903370Y-92551313D01*
X65949881Y-92620921D01*
X66009079Y-92680119D01*
X66078687Y-92726630D01*
X66156032Y-92758667D01*
X66238141Y-92775000D01*
X66321859Y-92775000D01*
X66403968Y-92758667D01*
X66481313Y-92726630D01*
X66550921Y-92680119D01*
X66610119Y-92620921D01*
X66656630Y-92551313D01*
X66688667Y-92473968D01*
X66705000Y-92391859D01*
X66705000Y-92308141D01*
X66688667Y-92226032D01*
X66656630Y-92148687D01*
X66610119Y-92079079D01*
X66550921Y-92019881D01*
X66481313Y-91973370D01*
X66403968Y-91941333D01*
X66321859Y-91925000D01*
X66238141Y-91925000D01*
X66156032Y-91941333D01*
X66078687Y-91973370D01*
X66009079Y-92019881D01*
X65949881Y-92079079D01*
X65903370Y-92148687D01*
X65871333Y-92226032D01*
X65855000Y-92308141D01*
X65430066Y-92308141D01*
X65430066Y-91058141D01*
X66380000Y-91058141D01*
X66380000Y-91141859D01*
X66396333Y-91223968D01*
X66428370Y-91301313D01*
X66474881Y-91370921D01*
X66534079Y-91430119D01*
X66603687Y-91476630D01*
X66681032Y-91508667D01*
X66763141Y-91525000D01*
X66846859Y-91525000D01*
X66928968Y-91508667D01*
X67006313Y-91476630D01*
X67075921Y-91430119D01*
X67135119Y-91370921D01*
X67181630Y-91301313D01*
X67213667Y-91223968D01*
X67230000Y-91141859D01*
X67230000Y-91058141D01*
X67213667Y-90976032D01*
X67181630Y-90898687D01*
X67135119Y-90829079D01*
X67075921Y-90769881D01*
X67006313Y-90723370D01*
X66928968Y-90691333D01*
X66846859Y-90675000D01*
X66763141Y-90675000D01*
X66681032Y-90691333D01*
X66603687Y-90723370D01*
X66534079Y-90769881D01*
X66474881Y-90829079D01*
X66428370Y-90898687D01*
X66396333Y-90976032D01*
X66380000Y-91058141D01*
X65430066Y-91058141D01*
X65430066Y-89858141D01*
X66755000Y-89858141D01*
X66755000Y-89941859D01*
X66771333Y-90023968D01*
X66803370Y-90101313D01*
X66849881Y-90170921D01*
X66909079Y-90230119D01*
X66978687Y-90276630D01*
X67056032Y-90308667D01*
X67138141Y-90325000D01*
X67221859Y-90325000D01*
X67303968Y-90308667D01*
X67381313Y-90276630D01*
X67450921Y-90230119D01*
X67510119Y-90170921D01*
X67556630Y-90101313D01*
X67588667Y-90023968D01*
X67605000Y-89941859D01*
X67605000Y-89858141D01*
X67588667Y-89776032D01*
X67556630Y-89698687D01*
X67510119Y-89629079D01*
X67450921Y-89569881D01*
X67381313Y-89523370D01*
X67303968Y-89491333D01*
X67221859Y-89475000D01*
X67138141Y-89475000D01*
X67056032Y-89491333D01*
X66978687Y-89523370D01*
X66909079Y-89569881D01*
X66849881Y-89629079D01*
X66803370Y-89698687D01*
X66771333Y-89776032D01*
X66755000Y-89858141D01*
X65430066Y-89858141D01*
X65430066Y-86262340D01*
X65431275Y-86250065D01*
X65426448Y-86201057D01*
X65412153Y-86153932D01*
X65395282Y-86122369D01*
X65388939Y-86110502D01*
X65357698Y-86072434D01*
X65348163Y-86064609D01*
X64950091Y-85666538D01*
X64955000Y-85641859D01*
X64955000Y-85558141D01*
X64938667Y-85476032D01*
X64906630Y-85398687D01*
X64860119Y-85329079D01*
X64800921Y-85269881D01*
X64731313Y-85223370D01*
X64653968Y-85191333D01*
X64571859Y-85175000D01*
X64488141Y-85175000D01*
X64406032Y-85191333D01*
X64328687Y-85223370D01*
X64259079Y-85269881D01*
X64199881Y-85329079D01*
X64153370Y-85398687D01*
X64121333Y-85476032D01*
X64105000Y-85558141D01*
X64105000Y-85641859D01*
X64121333Y-85723968D01*
X64153370Y-85801313D01*
X64199881Y-85870921D01*
X64253960Y-85925000D01*
X64199881Y-85979079D01*
X64153370Y-86048687D01*
X64121333Y-86126032D01*
X64105000Y-86208141D01*
X64105000Y-86291859D01*
X64121333Y-86373968D01*
X64153370Y-86451313D01*
X64199881Y-86520921D01*
X64253960Y-86575000D01*
X64199881Y-86629079D01*
X64153370Y-86698687D01*
X64123736Y-86770231D01*
X64053968Y-86741333D01*
X63971859Y-86725000D01*
X63888141Y-86725000D01*
X63806032Y-86741333D01*
X63728687Y-86773370D01*
X63659079Y-86819881D01*
X63599881Y-86879079D01*
X63553370Y-86948687D01*
X63521333Y-87026032D01*
X63505000Y-87108141D01*
X63505000Y-87191859D01*
X63521333Y-87273968D01*
X63553370Y-87351313D01*
X63599881Y-87420921D01*
X63653960Y-87475000D01*
X63599881Y-87529079D01*
X63553370Y-87598687D01*
X63521333Y-87676032D01*
X63505000Y-87758141D01*
X63505000Y-87841859D01*
X63521333Y-87923968D01*
X63553370Y-88001313D01*
X63599881Y-88070921D01*
X63653960Y-88125000D01*
X63599881Y-88179079D01*
X63553370Y-88248687D01*
X63523736Y-88320231D01*
X63453968Y-88291333D01*
X63371859Y-88275000D01*
X63288141Y-88275000D01*
X63206032Y-88291333D01*
X63128687Y-88323370D01*
X63059079Y-88369881D01*
X62999881Y-88429079D01*
X62953370Y-88498687D01*
X62921333Y-88576032D01*
X62905000Y-88658141D01*
X62134452Y-88658141D01*
X62119650Y-88583726D01*
X62040498Y-88392638D01*
X61925589Y-88220664D01*
X61779336Y-88074411D01*
X61607362Y-87959502D01*
X61416274Y-87880350D01*
X61213416Y-87840000D01*
X61006584Y-87840000D01*
X60803726Y-87880350D01*
X60612638Y-87959502D01*
X60440664Y-88074411D01*
X60294411Y-88220664D01*
X60179502Y-88392638D01*
X60100350Y-88583726D01*
X60060000Y-88786584D01*
X59255000Y-88786584D01*
X59255000Y-86246584D01*
X60060000Y-86246584D01*
X60060000Y-86453416D01*
X60100350Y-86656274D01*
X60179502Y-86847362D01*
X60294411Y-87019336D01*
X60440664Y-87165589D01*
X60612638Y-87280498D01*
X60803726Y-87359650D01*
X61006584Y-87400000D01*
X61213416Y-87400000D01*
X61416274Y-87359650D01*
X61607362Y-87280498D01*
X61779336Y-87165589D01*
X61925589Y-87019336D01*
X62040498Y-86847362D01*
X62119650Y-86656274D01*
X62160000Y-86453416D01*
X62160000Y-86246584D01*
X62119650Y-86043726D01*
X62040498Y-85852638D01*
X61925589Y-85680664D01*
X61779336Y-85534411D01*
X61607362Y-85419502D01*
X61416274Y-85340350D01*
X61213416Y-85300000D01*
X61006584Y-85300000D01*
X60803726Y-85340350D01*
X60612638Y-85419502D01*
X60440664Y-85534411D01*
X60294411Y-85680664D01*
X60179502Y-85852638D01*
X60100350Y-86043726D01*
X60060000Y-86246584D01*
X59255000Y-86246584D01*
X59255000Y-83706584D01*
X60060000Y-83706584D01*
X60060000Y-83913416D01*
X60100350Y-84116274D01*
X60179502Y-84307362D01*
X60294411Y-84479336D01*
X60440664Y-84625589D01*
X60612638Y-84740498D01*
X60803726Y-84819650D01*
X61006584Y-84860000D01*
X61213416Y-84860000D01*
X61416274Y-84819650D01*
X61607362Y-84740498D01*
X61779336Y-84625589D01*
X61925589Y-84479336D01*
X62040498Y-84307362D01*
X62119650Y-84116274D01*
X62160000Y-83913416D01*
X62160000Y-83706584D01*
X62119650Y-83503726D01*
X62040498Y-83312638D01*
X61925589Y-83140664D01*
X61779336Y-82994411D01*
X61607362Y-82879502D01*
X61416274Y-82800350D01*
X61213416Y-82760000D01*
X61006584Y-82760000D01*
X60803726Y-82800350D01*
X60612638Y-82879502D01*
X60440664Y-82994411D01*
X60294411Y-83140664D01*
X60179502Y-83312638D01*
X60100350Y-83503726D01*
X60060000Y-83706584D01*
X59255000Y-83706584D01*
X59255000Y-81166584D01*
X60060000Y-81166584D01*
X60060000Y-81373416D01*
X60100350Y-81576274D01*
X60179502Y-81767362D01*
X60294411Y-81939336D01*
X60440664Y-82085589D01*
X60612638Y-82200498D01*
X60803726Y-82279650D01*
X61006584Y-82320000D01*
X61213416Y-82320000D01*
X61416274Y-82279650D01*
X61607362Y-82200498D01*
X61779336Y-82085589D01*
X61925589Y-81939336D01*
X62040498Y-81767362D01*
X62119650Y-81576274D01*
X62160000Y-81373416D01*
X62160000Y-81166584D01*
X62119650Y-80963726D01*
X62040498Y-80772638D01*
X61925589Y-80600664D01*
X61779336Y-80454411D01*
X61607362Y-80339502D01*
X61416274Y-80260350D01*
X61213416Y-80220000D01*
X61006584Y-80220000D01*
X60803726Y-80260350D01*
X60612638Y-80339502D01*
X60440664Y-80454411D01*
X60294411Y-80600664D01*
X60179502Y-80772638D01*
X60100350Y-80963726D01*
X60060000Y-81166584D01*
X59255000Y-81166584D01*
X59255000Y-78626584D01*
X60060000Y-78626584D01*
X60060000Y-78833416D01*
X60100350Y-79036274D01*
X60179502Y-79227362D01*
X60294411Y-79399336D01*
X60440664Y-79545589D01*
X60612638Y-79660498D01*
X60803726Y-79739650D01*
X61006584Y-79780000D01*
X61213416Y-79780000D01*
X61416274Y-79739650D01*
X61607362Y-79660498D01*
X61779336Y-79545589D01*
X61925589Y-79399336D01*
X62040498Y-79227362D01*
X62119650Y-79036274D01*
X62160000Y-78833416D01*
X62160000Y-78626584D01*
X62119650Y-78423726D01*
X62040498Y-78232638D01*
X61925589Y-78060664D01*
X61779336Y-77914411D01*
X61607362Y-77799502D01*
X61416274Y-77720350D01*
X61213416Y-77680000D01*
X61006584Y-77680000D01*
X60803726Y-77720350D01*
X60612638Y-77799502D01*
X60440664Y-77914411D01*
X60294411Y-78060664D01*
X60179502Y-78232638D01*
X60100350Y-78423726D01*
X60060000Y-78626584D01*
X59255000Y-78626584D01*
X59255000Y-76086584D01*
X60060000Y-76086584D01*
X60060000Y-76293416D01*
X60100350Y-76496274D01*
X60179502Y-76687362D01*
X60294411Y-76859336D01*
X60440664Y-77005589D01*
X60612638Y-77120498D01*
X60803726Y-77199650D01*
X61006584Y-77240000D01*
X61213416Y-77240000D01*
X61416274Y-77199650D01*
X61607362Y-77120498D01*
X61779336Y-77005589D01*
X61925589Y-76859336D01*
X62040498Y-76687362D01*
X62119650Y-76496274D01*
X62160000Y-76293416D01*
X62160000Y-76086584D01*
X62119650Y-75883726D01*
X62040498Y-75692638D01*
X61925589Y-75520664D01*
X61779336Y-75374411D01*
X61607362Y-75259502D01*
X61416274Y-75180350D01*
X61213416Y-75140000D01*
X61006584Y-75140000D01*
X60803726Y-75180350D01*
X60612638Y-75259502D01*
X60440664Y-75374411D01*
X60294411Y-75520664D01*
X60179502Y-75692638D01*
X60100350Y-75883726D01*
X60060000Y-76086584D01*
X59255000Y-76086584D01*
X59255000Y-73546584D01*
X60060000Y-73546584D01*
X60060000Y-73753416D01*
X60100350Y-73956274D01*
X60179502Y-74147362D01*
X60294411Y-74319336D01*
X60440664Y-74465589D01*
X60612638Y-74580498D01*
X60803726Y-74659650D01*
X61006584Y-74700000D01*
X61213416Y-74700000D01*
X61416274Y-74659650D01*
X61607362Y-74580498D01*
X61779336Y-74465589D01*
X61925589Y-74319336D01*
X62040498Y-74147362D01*
X62119650Y-73956274D01*
X62160000Y-73753416D01*
X62160000Y-73546584D01*
X62119650Y-73343726D01*
X62040498Y-73152638D01*
X61925589Y-72980664D01*
X61779336Y-72834411D01*
X61607362Y-72719502D01*
X61416274Y-72640350D01*
X61213416Y-72600000D01*
X61006584Y-72600000D01*
X60803726Y-72640350D01*
X60612638Y-72719502D01*
X60440664Y-72834411D01*
X60294411Y-72980664D01*
X60179502Y-73152638D01*
X60100350Y-73343726D01*
X60060000Y-73546584D01*
X59255000Y-73546584D01*
X59255000Y-71006584D01*
X60060000Y-71006584D01*
X60060000Y-71213416D01*
X60100350Y-71416274D01*
X60179502Y-71607362D01*
X60294411Y-71779336D01*
X60440664Y-71925589D01*
X60612638Y-72040498D01*
X60803726Y-72119650D01*
X61006584Y-72160000D01*
X61213416Y-72160000D01*
X61416274Y-72119650D01*
X61607362Y-72040498D01*
X61779336Y-71925589D01*
X61925589Y-71779336D01*
X62040498Y-71607362D01*
X62119650Y-71416274D01*
X62160000Y-71213416D01*
X62160000Y-71006584D01*
X62119650Y-70803726D01*
X62040498Y-70612638D01*
X61925589Y-70440664D01*
X61779336Y-70294411D01*
X61607362Y-70179502D01*
X61416274Y-70100350D01*
X61213416Y-70060000D01*
X61006584Y-70060000D01*
X60803726Y-70100350D01*
X60612638Y-70179502D01*
X60440664Y-70294411D01*
X60294411Y-70440664D01*
X60179502Y-70612638D01*
X60100350Y-70803726D01*
X60060000Y-71006584D01*
X59255000Y-71006584D01*
X59255000Y-68466584D01*
X60060000Y-68466584D01*
X60060000Y-68673416D01*
X60100350Y-68876274D01*
X60179502Y-69067362D01*
X60294411Y-69239336D01*
X60440664Y-69385589D01*
X60612638Y-69500498D01*
X60803726Y-69579650D01*
X61006584Y-69620000D01*
X61213416Y-69620000D01*
X61416274Y-69579650D01*
X61607362Y-69500498D01*
X61779336Y-69385589D01*
X61925589Y-69239336D01*
X62040498Y-69067362D01*
X62119650Y-68876274D01*
X62160000Y-68673416D01*
X62160000Y-68466584D01*
X62119650Y-68263726D01*
X62040498Y-68072638D01*
X61925589Y-67900664D01*
X61924925Y-67900000D01*
X63602945Y-67900000D01*
X63605000Y-67920867D01*
X63605001Y-78179123D01*
X63602945Y-78200000D01*
X63611150Y-78283314D01*
X63635453Y-78363427D01*
X63674917Y-78437260D01*
X63728027Y-78501974D01*
X63744239Y-78515279D01*
X64605000Y-79376040D01*
X64605001Y-81758137D01*
X64605000Y-81758141D01*
X64605000Y-81841859D01*
X64605001Y-81841863D01*
X64605001Y-82037960D01*
X64144243Y-82498719D01*
X64128026Y-82512028D01*
X64074916Y-82576743D01*
X64035452Y-82650576D01*
X64033973Y-82655453D01*
X64014429Y-82719881D01*
X64011150Y-82730689D01*
X64005000Y-82793129D01*
X64005000Y-82793135D01*
X64002945Y-82814002D01*
X64005000Y-82834869D01*
X64005001Y-83529124D01*
X64002945Y-83550000D01*
X64011150Y-83633314D01*
X64033034Y-83705452D01*
X64035453Y-83713427D01*
X64074917Y-83787260D01*
X64128027Y-83851974D01*
X64144239Y-83865279D01*
X64664721Y-84385762D01*
X64678026Y-84401974D01*
X64742740Y-84455084D01*
X64816573Y-84494548D01*
X64872383Y-84511478D01*
X64896685Y-84518850D01*
X64905098Y-84519679D01*
X64959126Y-84525000D01*
X64959132Y-84525000D01*
X64979999Y-84527055D01*
X65000866Y-84525000D01*
X71149179Y-84525000D01*
X71170046Y-84527055D01*
X71190913Y-84525000D01*
X71190920Y-84525000D01*
X71253360Y-84518850D01*
X71333473Y-84494548D01*
X71407306Y-84455084D01*
X71472020Y-84401974D01*
X71485329Y-84385757D01*
X72105000Y-83766087D01*
X72105001Y-99010959D01*
X71447881Y-99668079D01*
X71436219Y-99685532D01*
X71422917Y-99701741D01*
X71413034Y-99720231D01*
X71401370Y-99737687D01*
X71393336Y-99757084D01*
X71383453Y-99775573D01*
X71377366Y-99795639D01*
X71369333Y-99815032D01*
X71365239Y-99835616D01*
X71359150Y-99855686D01*
X71357095Y-99876557D01*
X71353000Y-99897141D01*
X71353000Y-99918133D01*
X71350945Y-99939000D01*
X71353000Y-99959867D01*
X71353000Y-99980859D01*
X71357095Y-100001443D01*
X71359150Y-100022314D01*
X71365239Y-100042384D01*
X71369333Y-100062968D01*
X71377366Y-100082361D01*
X71383453Y-100102427D01*
X71393336Y-100120916D01*
X71401370Y-100140313D01*
X71413034Y-100157769D01*
X71422917Y-100176259D01*
X71436220Y-100192469D01*
X71447881Y-100209921D01*
X71462719Y-100224759D01*
X71476026Y-100240974D01*
X71492240Y-100254280D01*
X71507079Y-100269119D01*
X71524531Y-100280780D01*
X71540741Y-100294083D01*
X71559231Y-100303966D01*
X71576687Y-100315630D01*
X71596084Y-100323664D01*
X71614573Y-100333547D01*
X71634639Y-100339634D01*
X71654032Y-100347667D01*
X71674616Y-100351761D01*
X71694686Y-100357850D01*
X71715557Y-100359905D01*
X71736141Y-100364000D01*
X71757133Y-100364000D01*
X71778000Y-100366055D01*
X71798867Y-100364000D01*
X71819859Y-100364000D01*
X71840443Y-100359905D01*
X71861314Y-100357850D01*
X71881384Y-100351761D01*
X71901968Y-100347667D01*
X71921361Y-100339634D01*
X71941427Y-100333547D01*
X71959916Y-100323664D01*
X71979313Y-100315630D01*
X71996769Y-100303966D01*
X72015259Y-100294083D01*
X72031468Y-100280781D01*
X72048921Y-100269119D01*
X72815756Y-99502284D01*
X72831974Y-99488974D01*
X72885084Y-99424260D01*
X72924548Y-99350427D01*
X72948850Y-99270314D01*
X72955000Y-99207874D01*
X72957056Y-99187000D01*
X72955000Y-99166126D01*
X72955000Y-86108141D01*
X73180000Y-86108141D01*
X73180000Y-86191859D01*
X73196333Y-86273968D01*
X73228370Y-86351313D01*
X73274881Y-86420921D01*
X73334079Y-86480119D01*
X73382540Y-86512500D01*
X73334079Y-86544881D01*
X73274881Y-86604079D01*
X73228370Y-86673687D01*
X73196333Y-86751032D01*
X73180000Y-86833141D01*
X73180000Y-86916859D01*
X73196333Y-86998968D01*
X73228370Y-87076313D01*
X73274881Y-87145921D01*
X73334079Y-87205119D01*
X73403687Y-87251630D01*
X73481032Y-87283667D01*
X73563141Y-87300000D01*
X73646859Y-87300000D01*
X73728968Y-87283667D01*
X73806313Y-87251630D01*
X73875921Y-87205119D01*
X73935119Y-87145921D01*
X73981630Y-87076313D01*
X74013667Y-86998968D01*
X74030000Y-86916859D01*
X74030000Y-86833141D01*
X74013667Y-86751032D01*
X73981630Y-86673687D01*
X73935119Y-86604079D01*
X73875921Y-86544881D01*
X73827460Y-86512500D01*
X73875921Y-86480119D01*
X73935119Y-86420921D01*
X73981630Y-86351313D01*
X74013667Y-86273968D01*
X74030000Y-86191859D01*
X74030000Y-86108141D01*
X74013667Y-86026032D01*
X73981630Y-85948687D01*
X73935119Y-85879079D01*
X73875921Y-85819881D01*
X73806313Y-85773370D01*
X73728968Y-85741333D01*
X73646859Y-85725000D01*
X73563141Y-85725000D01*
X73481032Y-85741333D01*
X73403687Y-85773370D01*
X73334079Y-85819881D01*
X73274881Y-85879079D01*
X73228370Y-85948687D01*
X73196333Y-86026032D01*
X73180000Y-86108141D01*
X72955000Y-86108141D01*
X72955000Y-77178755D01*
X72999879Y-77245921D01*
X73059077Y-77305119D01*
X73128685Y-77351630D01*
X73206030Y-77383667D01*
X73288139Y-77400000D01*
X73371857Y-77400000D01*
X73453966Y-77383667D01*
X73531311Y-77351630D01*
X73600919Y-77305119D01*
X73660117Y-77245921D01*
X73706628Y-77176313D01*
X73738665Y-77098968D01*
X73754998Y-77016859D01*
X73754998Y-76933141D01*
X73738665Y-76851032D01*
X73706628Y-76773687D01*
X73660117Y-76704079D01*
X73600919Y-76644881D01*
X73531311Y-76598370D01*
X73453966Y-76566333D01*
X73371857Y-76550000D01*
X73288139Y-76550000D01*
X73206030Y-76566333D01*
X73128685Y-76598370D01*
X73059077Y-76644881D01*
X72999879Y-76704079D01*
X72955000Y-76771245D01*
X72955000Y-75933141D01*
X73030000Y-75933141D01*
X73030000Y-76016859D01*
X73046333Y-76098968D01*
X73078370Y-76176313D01*
X73124881Y-76245921D01*
X73184079Y-76305119D01*
X73253687Y-76351630D01*
X73331032Y-76383667D01*
X73413141Y-76400000D01*
X73496859Y-76400000D01*
X73578968Y-76383667D01*
X73656313Y-76351630D01*
X73725921Y-76305119D01*
X73785119Y-76245921D01*
X73831630Y-76176313D01*
X73863667Y-76098968D01*
X73880000Y-76016859D01*
X73880000Y-75933141D01*
X73863667Y-75851032D01*
X73831630Y-75773687D01*
X73785119Y-75704079D01*
X73725921Y-75644881D01*
X73656313Y-75598370D01*
X73578968Y-75566333D01*
X73496859Y-75550000D01*
X73413141Y-75550000D01*
X73331032Y-75566333D01*
X73253687Y-75598370D01*
X73184079Y-75644881D01*
X73124881Y-75704079D01*
X73078370Y-75773687D01*
X73046333Y-75851032D01*
X73030000Y-75933141D01*
X72955000Y-75933141D01*
X72955000Y-72020867D01*
X72957055Y-72000000D01*
X72955000Y-71979133D01*
X72955000Y-71979126D01*
X72948850Y-71916686D01*
X72924548Y-71836573D01*
X72885084Y-71762740D01*
X72831974Y-71698026D01*
X72815758Y-71684718D01*
X71433001Y-70301961D01*
X71433001Y-57498868D01*
X71435056Y-57478001D01*
X71433001Y-57457134D01*
X71433001Y-57457127D01*
X71426851Y-57394687D01*
X71402549Y-57314574D01*
X71363085Y-57240741D01*
X71309975Y-57176027D01*
X71293759Y-57162719D01*
X65835995Y-51704955D01*
X65805971Y-51648784D01*
X65749737Y-51580263D01*
X65681216Y-51524029D01*
X65603040Y-51482243D01*
X65523586Y-51458141D01*
X71705000Y-51458141D01*
X71705000Y-51541859D01*
X71721333Y-51623968D01*
X71753370Y-51701313D01*
X71799881Y-51770921D01*
X71859079Y-51830119D01*
X71928687Y-51876630D01*
X72006032Y-51908667D01*
X72088141Y-51925000D01*
X72166999Y-51925000D01*
X72167000Y-54775000D01*
X72088141Y-54775000D01*
X72006032Y-54791333D01*
X71928687Y-54823370D01*
X71859079Y-54869881D01*
X71799881Y-54929079D01*
X71753370Y-54998687D01*
X71721333Y-55076032D01*
X71705000Y-55158141D01*
X71705000Y-55241859D01*
X71721333Y-55323968D01*
X71753370Y-55401313D01*
X71799881Y-55470921D01*
X71859079Y-55530119D01*
X71928687Y-55576630D01*
X72006032Y-55608667D01*
X72088141Y-55625000D01*
X72166999Y-55625000D01*
X72167000Y-60728602D01*
X72166999Y-60728611D01*
X72163612Y-60763001D01*
X72166999Y-60797388D01*
X72167000Y-69282602D01*
X72163612Y-69316999D01*
X72177128Y-69454222D01*
X72217154Y-69586173D01*
X72282154Y-69707780D01*
X72347707Y-69787656D01*
X72369630Y-69814369D01*
X72396341Y-69836290D01*
X74130000Y-71569950D01*
X74130001Y-103075601D01*
X74130000Y-103075611D01*
X74130001Y-104410050D01*
X73971418Y-104568633D01*
X73795610Y-104568633D01*
X73791884Y-104569000D01*
X73578105Y-104569000D01*
X73556000Y-104566823D01*
X73533896Y-104569000D01*
X73533895Y-104569000D01*
X73467785Y-104575511D01*
X73382959Y-104601243D01*
X73304784Y-104643029D01*
X73236263Y-104699263D01*
X73180029Y-104767784D01*
X73138243Y-104845959D01*
X73112511Y-104930785D01*
X73103823Y-105019000D01*
X73106001Y-105041114D01*
X73106000Y-105549104D01*
X73112511Y-105615214D01*
X73138243Y-105700040D01*
X73180029Y-105778215D01*
X73236263Y-105846737D01*
X73304784Y-105902971D01*
X73382959Y-105944757D01*
X73467785Y-105970489D01*
X73556000Y-105979177D01*
X73644214Y-105970489D01*
X73688248Y-105957131D01*
X73692776Y-105958505D01*
X73795610Y-105968633D01*
X74226980Y-105968633D01*
X74261367Y-105972020D01*
X74295754Y-105968633D01*
X74295757Y-105968633D01*
X74398591Y-105958505D01*
X74530542Y-105918478D01*
X74652148Y-105853478D01*
X74758737Y-105766003D01*
X74780663Y-105739286D01*
X75249292Y-105270657D01*
X75272445Y-105242446D01*
X75327370Y-105197370D01*
X75414845Y-105090781D01*
X75479845Y-104969175D01*
X75519872Y-104837224D01*
X75524992Y-104785239D01*
X75534411Y-104799336D01*
X75680664Y-104945589D01*
X75852638Y-105060498D01*
X76043726Y-105139650D01*
X76246584Y-105180000D01*
X76453416Y-105180000D01*
X76656274Y-105139650D01*
X76847362Y-105060498D01*
X77019336Y-104945589D01*
X77165589Y-104799336D01*
X77280498Y-104627362D01*
X77359650Y-104436274D01*
X77400000Y-104233416D01*
X77400000Y-104026584D01*
X77359650Y-103823726D01*
X77280498Y-103632638D01*
X77165589Y-103460664D01*
X77019336Y-103314411D01*
X76847362Y-103199502D01*
X76656274Y-103120350D01*
X76453416Y-103080000D01*
X76246584Y-103080000D01*
X76043726Y-103120350D01*
X75852638Y-103199502D01*
X75680664Y-103314411D01*
X75534411Y-103460664D01*
X75530000Y-103467266D01*
X75530000Y-102252734D01*
X75534411Y-102259336D01*
X75680664Y-102405589D01*
X75852638Y-102520498D01*
X76043726Y-102599650D01*
X76246584Y-102640000D01*
X76453416Y-102640000D01*
X76656274Y-102599650D01*
X76847362Y-102520498D01*
X77019336Y-102405589D01*
X77165589Y-102259336D01*
X77280498Y-102087362D01*
X77359650Y-101896274D01*
X77400000Y-101693416D01*
X77400000Y-101486584D01*
X77359650Y-101283726D01*
X77280498Y-101092638D01*
X77165589Y-100920664D01*
X77019336Y-100774411D01*
X76847362Y-100659502D01*
X76656274Y-100580350D01*
X76453416Y-100540000D01*
X76246584Y-100540000D01*
X76043726Y-100580350D01*
X75852638Y-100659502D01*
X75680664Y-100774411D01*
X75534411Y-100920664D01*
X75530000Y-100927266D01*
X75530000Y-99712734D01*
X75534411Y-99719336D01*
X75680664Y-99865589D01*
X75852638Y-99980498D01*
X76043726Y-100059650D01*
X76246584Y-100100000D01*
X76453416Y-100100000D01*
X76656274Y-100059650D01*
X76847362Y-99980498D01*
X77019336Y-99865589D01*
X77165589Y-99719336D01*
X77280498Y-99547362D01*
X77359650Y-99356274D01*
X77400000Y-99153416D01*
X77400000Y-98946584D01*
X77359650Y-98743726D01*
X77280498Y-98552638D01*
X77165589Y-98380664D01*
X77019336Y-98234411D01*
X76847362Y-98119502D01*
X76656274Y-98040350D01*
X76453416Y-98000000D01*
X76246584Y-98000000D01*
X76043726Y-98040350D01*
X75852638Y-98119502D01*
X75680664Y-98234411D01*
X75534411Y-98380664D01*
X75530000Y-98387266D01*
X75530000Y-97172734D01*
X75534411Y-97179336D01*
X75680664Y-97325589D01*
X75852638Y-97440498D01*
X76043726Y-97519650D01*
X76246584Y-97560000D01*
X76453416Y-97560000D01*
X76656274Y-97519650D01*
X76847362Y-97440498D01*
X77019336Y-97325589D01*
X77165589Y-97179336D01*
X77280498Y-97007362D01*
X77359650Y-96816274D01*
X77400000Y-96613416D01*
X77400000Y-96406584D01*
X77359650Y-96203726D01*
X77280498Y-96012638D01*
X77165589Y-95840664D01*
X77019336Y-95694411D01*
X76847362Y-95579502D01*
X76656274Y-95500350D01*
X76453416Y-95460000D01*
X76246584Y-95460000D01*
X76043726Y-95500350D01*
X75852638Y-95579502D01*
X75680664Y-95694411D01*
X75534411Y-95840664D01*
X75530000Y-95847266D01*
X75530000Y-94632734D01*
X75534411Y-94639336D01*
X75680664Y-94785589D01*
X75852638Y-94900498D01*
X76043726Y-94979650D01*
X76246584Y-95020000D01*
X76453416Y-95020000D01*
X76656274Y-94979650D01*
X76847362Y-94900498D01*
X77019336Y-94785589D01*
X77165589Y-94639336D01*
X77280498Y-94467362D01*
X77359650Y-94276274D01*
X77400000Y-94073416D01*
X77400000Y-93866584D01*
X77359650Y-93663726D01*
X77280498Y-93472638D01*
X77165589Y-93300664D01*
X77019336Y-93154411D01*
X76847362Y-93039502D01*
X76656274Y-92960350D01*
X76453416Y-92920000D01*
X76246584Y-92920000D01*
X76043726Y-92960350D01*
X75852638Y-93039502D01*
X75680664Y-93154411D01*
X75534411Y-93300664D01*
X75530000Y-93307266D01*
X75530000Y-92092734D01*
X75534411Y-92099336D01*
X75680664Y-92245589D01*
X75852638Y-92360498D01*
X76043726Y-92439650D01*
X76246584Y-92480000D01*
X76453416Y-92480000D01*
X76656274Y-92439650D01*
X76847362Y-92360498D01*
X77019336Y-92245589D01*
X77165589Y-92099336D01*
X77280498Y-91927362D01*
X77359650Y-91736274D01*
X77400000Y-91533416D01*
X77400000Y-91326584D01*
X77359650Y-91123726D01*
X77280498Y-90932638D01*
X77165589Y-90760664D01*
X77019336Y-90614411D01*
X76847362Y-90499502D01*
X76656274Y-90420350D01*
X76453416Y-90380000D01*
X76246584Y-90380000D01*
X76043726Y-90420350D01*
X75852638Y-90499502D01*
X75680664Y-90614411D01*
X75534411Y-90760664D01*
X75530000Y-90767266D01*
X75530000Y-89552734D01*
X75534411Y-89559336D01*
X75680664Y-89705589D01*
X75852638Y-89820498D01*
X76043726Y-89899650D01*
X76246584Y-89940000D01*
X76453416Y-89940000D01*
X76656274Y-89899650D01*
X76847362Y-89820498D01*
X77019336Y-89705589D01*
X77165589Y-89559336D01*
X77280498Y-89387362D01*
X77359650Y-89196274D01*
X77400000Y-88993416D01*
X77400000Y-88786584D01*
X77359650Y-88583726D01*
X77280498Y-88392638D01*
X77165589Y-88220664D01*
X77019336Y-88074411D01*
X76847362Y-87959502D01*
X76656274Y-87880350D01*
X76453416Y-87840000D01*
X76246584Y-87840000D01*
X76043726Y-87880350D01*
X75852638Y-87959502D01*
X75680664Y-88074411D01*
X75534411Y-88220664D01*
X75530000Y-88227266D01*
X75530000Y-87012734D01*
X75534411Y-87019336D01*
X75680664Y-87165589D01*
X75852638Y-87280498D01*
X76043726Y-87359650D01*
X76246584Y-87400000D01*
X76453416Y-87400000D01*
X76656274Y-87359650D01*
X76847362Y-87280498D01*
X77019336Y-87165589D01*
X77165589Y-87019336D01*
X77280498Y-86847362D01*
X77359650Y-86656274D01*
X77400000Y-86453416D01*
X77400000Y-86246584D01*
X77359650Y-86043726D01*
X77280498Y-85852638D01*
X77165589Y-85680664D01*
X77019336Y-85534411D01*
X76847362Y-85419502D01*
X76656274Y-85340350D01*
X76453416Y-85300000D01*
X76246584Y-85300000D01*
X76043726Y-85340350D01*
X75852638Y-85419502D01*
X75680664Y-85534411D01*
X75534411Y-85680664D01*
X75530000Y-85687266D01*
X75530000Y-84472734D01*
X75534411Y-84479336D01*
X75680664Y-84625589D01*
X75852638Y-84740498D01*
X76043726Y-84819650D01*
X76246584Y-84860000D01*
X76453416Y-84860000D01*
X76656274Y-84819650D01*
X76847362Y-84740498D01*
X77019336Y-84625589D01*
X77165589Y-84479336D01*
X77280498Y-84307362D01*
X77359650Y-84116274D01*
X77400000Y-83913416D01*
X77400000Y-83706584D01*
X77359650Y-83503726D01*
X77280498Y-83312638D01*
X77165589Y-83140664D01*
X77019336Y-82994411D01*
X76847362Y-82879502D01*
X76656274Y-82800350D01*
X76453416Y-82760000D01*
X76246584Y-82760000D01*
X76043726Y-82800350D01*
X75852638Y-82879502D01*
X75680664Y-82994411D01*
X75534411Y-83140664D01*
X75530000Y-83147266D01*
X75530000Y-81932734D01*
X75534411Y-81939336D01*
X75680664Y-82085589D01*
X75852638Y-82200498D01*
X76043726Y-82279650D01*
X76246584Y-82320000D01*
X76453416Y-82320000D01*
X76656274Y-82279650D01*
X76847362Y-82200498D01*
X77019336Y-82085589D01*
X77165589Y-81939336D01*
X77280498Y-81767362D01*
X77359650Y-81576274D01*
X77400000Y-81373416D01*
X77400000Y-81166584D01*
X77359650Y-80963726D01*
X77280498Y-80772638D01*
X77165589Y-80600664D01*
X77019336Y-80454411D01*
X76847362Y-80339502D01*
X76656274Y-80260350D01*
X76453416Y-80220000D01*
X76246584Y-80220000D01*
X76043726Y-80260350D01*
X75852638Y-80339502D01*
X75680664Y-80454411D01*
X75534411Y-80600664D01*
X75530000Y-80607266D01*
X75530000Y-79392734D01*
X75534411Y-79399336D01*
X75680664Y-79545589D01*
X75852638Y-79660498D01*
X76043726Y-79739650D01*
X76246584Y-79780000D01*
X76453416Y-79780000D01*
X76656274Y-79739650D01*
X76847362Y-79660498D01*
X77019336Y-79545589D01*
X77165589Y-79399336D01*
X77280498Y-79227362D01*
X77359650Y-79036274D01*
X77400000Y-78833416D01*
X77400000Y-78626584D01*
X77359650Y-78423726D01*
X77280498Y-78232638D01*
X77165589Y-78060664D01*
X77019336Y-77914411D01*
X76847362Y-77799502D01*
X76656274Y-77720350D01*
X76453416Y-77680000D01*
X76246584Y-77680000D01*
X76043726Y-77720350D01*
X75852638Y-77799502D01*
X75680664Y-77914411D01*
X75534411Y-78060664D01*
X75530000Y-78067266D01*
X75530000Y-76852734D01*
X75534411Y-76859336D01*
X75680664Y-77005589D01*
X75852638Y-77120498D01*
X76043726Y-77199650D01*
X76246584Y-77240000D01*
X76453416Y-77240000D01*
X76656274Y-77199650D01*
X76847362Y-77120498D01*
X77019336Y-77005589D01*
X77165589Y-76859336D01*
X77280498Y-76687362D01*
X77359650Y-76496274D01*
X77400000Y-76293416D01*
X77400000Y-76086584D01*
X77359650Y-75883726D01*
X77280498Y-75692638D01*
X77165589Y-75520664D01*
X77019336Y-75374411D01*
X76847362Y-75259502D01*
X76656274Y-75180350D01*
X76453416Y-75140000D01*
X76246584Y-75140000D01*
X76043726Y-75180350D01*
X75852638Y-75259502D01*
X75680664Y-75374411D01*
X75534411Y-75520664D01*
X75530000Y-75527266D01*
X75530000Y-74312734D01*
X75534411Y-74319336D01*
X75680664Y-74465589D01*
X75852638Y-74580498D01*
X76043726Y-74659650D01*
X76246584Y-74700000D01*
X76453416Y-74700000D01*
X76656274Y-74659650D01*
X76847362Y-74580498D01*
X77019336Y-74465589D01*
X77165589Y-74319336D01*
X77280498Y-74147362D01*
X77359650Y-73956274D01*
X77400000Y-73753416D01*
X77400000Y-73546584D01*
X77359650Y-73343726D01*
X77280498Y-73152638D01*
X77165589Y-72980664D01*
X77019336Y-72834411D01*
X76847362Y-72719502D01*
X76656274Y-72640350D01*
X76453416Y-72600000D01*
X76246584Y-72600000D01*
X76043726Y-72640350D01*
X75852638Y-72719502D01*
X75680664Y-72834411D01*
X75534411Y-72980664D01*
X75530000Y-72987266D01*
X75530000Y-71772734D01*
X75534411Y-71779336D01*
X75680664Y-71925589D01*
X75852638Y-72040498D01*
X76043726Y-72119650D01*
X76246584Y-72160000D01*
X76453416Y-72160000D01*
X76656274Y-72119650D01*
X76847362Y-72040498D01*
X77019336Y-71925589D01*
X77165589Y-71779336D01*
X77280498Y-71607362D01*
X77359650Y-71416274D01*
X77400000Y-71213416D01*
X77400000Y-71006584D01*
X77359650Y-70803726D01*
X77280498Y-70612638D01*
X77165589Y-70440664D01*
X77019336Y-70294411D01*
X76847362Y-70179502D01*
X76656274Y-70100350D01*
X76453416Y-70060000D01*
X76246584Y-70060000D01*
X76043726Y-70100350D01*
X75852638Y-70179502D01*
X75680664Y-70294411D01*
X75534411Y-70440664D01*
X75419502Y-70612638D01*
X75341803Y-70800218D01*
X75327369Y-70782630D01*
X75300663Y-70760713D01*
X73566999Y-69027050D01*
X73566999Y-68466584D01*
X75300000Y-68466584D01*
X75300000Y-68673416D01*
X75340350Y-68876274D01*
X75419502Y-69067362D01*
X75534411Y-69239336D01*
X75680664Y-69385589D01*
X75852638Y-69500498D01*
X76043726Y-69579650D01*
X76246584Y-69620000D01*
X76453416Y-69620000D01*
X76656274Y-69579650D01*
X76847362Y-69500498D01*
X77019336Y-69385589D01*
X77165589Y-69239336D01*
X77280498Y-69067362D01*
X77359650Y-68876274D01*
X77400000Y-68673416D01*
X77400000Y-68466584D01*
X77359650Y-68263726D01*
X77280498Y-68072638D01*
X77165589Y-67900664D01*
X77019336Y-67754411D01*
X76847362Y-67639502D01*
X76656274Y-67560350D01*
X76453416Y-67520000D01*
X76246584Y-67520000D01*
X76043726Y-67560350D01*
X75852638Y-67639502D01*
X75680664Y-67754411D01*
X75534411Y-67900664D01*
X75419502Y-68072638D01*
X75340350Y-68263726D01*
X75300000Y-68466584D01*
X73566999Y-68466584D01*
X73566999Y-68125000D01*
X73759133Y-68125000D01*
X73780000Y-68127055D01*
X73800867Y-68125000D01*
X73821859Y-68125000D01*
X73842441Y-68120906D01*
X73863314Y-68118850D01*
X73883387Y-68112761D01*
X73903968Y-68108667D01*
X73923355Y-68100637D01*
X73943427Y-68094548D01*
X73961926Y-68084660D01*
X73981313Y-68076630D01*
X73998759Y-68064973D01*
X74017260Y-68055084D01*
X74033478Y-68041774D01*
X74050921Y-68030119D01*
X74065756Y-68015284D01*
X74081974Y-68001974D01*
X74095284Y-67985756D01*
X74115756Y-67965284D01*
X74131974Y-67951974D01*
X74185084Y-67887260D01*
X74224548Y-67813427D01*
X74248850Y-67733314D01*
X74255000Y-67670874D01*
X74255000Y-67670866D01*
X74257055Y-67650000D01*
X74255000Y-67629133D01*
X74255000Y-67270874D01*
X74257056Y-67250000D01*
X74255000Y-67229126D01*
X74255000Y-67208141D01*
X74250906Y-67187559D01*
X74248850Y-67166686D01*
X74242761Y-67146613D01*
X74238667Y-67126032D01*
X74230637Y-67106645D01*
X74224548Y-67086573D01*
X74214660Y-67068074D01*
X74206630Y-67048687D01*
X74194973Y-67031241D01*
X74185084Y-67012740D01*
X74171774Y-66996522D01*
X74160119Y-66979079D01*
X74145284Y-66964244D01*
X74131974Y-66948026D01*
X74115756Y-66934716D01*
X74100921Y-66919881D01*
X74083478Y-66908226D01*
X74067260Y-66894916D01*
X74048759Y-66885027D01*
X74031313Y-66873370D01*
X74011926Y-66865340D01*
X73993427Y-66855452D01*
X73973355Y-66849363D01*
X73953968Y-66841333D01*
X73933387Y-66837239D01*
X73913314Y-66831150D01*
X73892441Y-66829094D01*
X73871859Y-66825000D01*
X73850874Y-66825000D01*
X73830000Y-66822944D01*
X73809126Y-66825000D01*
X73566999Y-66825000D01*
X73566999Y-65926584D01*
X75300000Y-65926584D01*
X75300000Y-66133416D01*
X75340350Y-66336274D01*
X75419502Y-66527362D01*
X75534411Y-66699336D01*
X75680664Y-66845589D01*
X75852638Y-66960498D01*
X76043726Y-67039650D01*
X76246584Y-67080000D01*
X76453416Y-67080000D01*
X76656274Y-67039650D01*
X76847362Y-66960498D01*
X77019336Y-66845589D01*
X77165589Y-66699336D01*
X77280498Y-66527362D01*
X77359650Y-66336274D01*
X77400000Y-66133416D01*
X77400000Y-65926584D01*
X77359650Y-65723726D01*
X77280498Y-65532638D01*
X77165589Y-65360664D01*
X77019336Y-65214411D01*
X76847362Y-65099502D01*
X76656274Y-65020350D01*
X76453416Y-64980000D01*
X76246584Y-64980000D01*
X76043726Y-65020350D01*
X75852638Y-65099502D01*
X75680664Y-65214411D01*
X75534411Y-65360664D01*
X75419502Y-65532638D01*
X75340350Y-65723726D01*
X75300000Y-65926584D01*
X73566999Y-65926584D01*
X73566999Y-64375000D01*
X73759133Y-64375000D01*
X73780000Y-64377055D01*
X73800867Y-64375000D01*
X73821859Y-64375000D01*
X73842441Y-64370906D01*
X73863314Y-64368850D01*
X73883387Y-64362761D01*
X73903968Y-64358667D01*
X73923355Y-64350637D01*
X73943427Y-64344548D01*
X73961926Y-64334660D01*
X73981313Y-64326630D01*
X73998759Y-64314973D01*
X74017260Y-64305084D01*
X74033478Y-64291774D01*
X74050921Y-64280119D01*
X74065756Y-64265284D01*
X74081974Y-64251974D01*
X74095284Y-64235756D01*
X74115756Y-64215284D01*
X74131974Y-64201974D01*
X74185084Y-64137260D01*
X74224548Y-64063427D01*
X74248850Y-63983314D01*
X74255000Y-63920874D01*
X74255000Y-63920866D01*
X74257055Y-63900000D01*
X74255000Y-63879133D01*
X74255000Y-63520874D01*
X74257056Y-63500000D01*
X74255000Y-63479126D01*
X74255000Y-63458141D01*
X74250906Y-63437559D01*
X74248850Y-63416686D01*
X74242761Y-63396613D01*
X74240767Y-63386584D01*
X75300000Y-63386584D01*
X75300000Y-63593416D01*
X75340350Y-63796274D01*
X75419502Y-63987362D01*
X75534411Y-64159336D01*
X75680664Y-64305589D01*
X75852638Y-64420498D01*
X76043726Y-64499650D01*
X76246584Y-64540000D01*
X76453416Y-64540000D01*
X76656274Y-64499650D01*
X76847362Y-64420498D01*
X77019336Y-64305589D01*
X77165589Y-64159336D01*
X77280498Y-63987362D01*
X77359650Y-63796274D01*
X77400000Y-63593416D01*
X77400000Y-63386584D01*
X77359650Y-63183726D01*
X77280498Y-62992638D01*
X77165589Y-62820664D01*
X77019336Y-62674411D01*
X76847362Y-62559502D01*
X76656274Y-62480350D01*
X76453416Y-62440000D01*
X76246584Y-62440000D01*
X76043726Y-62480350D01*
X75852638Y-62559502D01*
X75680664Y-62674411D01*
X75534411Y-62820664D01*
X75419502Y-62992638D01*
X75340350Y-63183726D01*
X75300000Y-63386584D01*
X74240767Y-63386584D01*
X74238667Y-63376032D01*
X74230637Y-63356645D01*
X74224548Y-63336573D01*
X74214660Y-63318074D01*
X74206630Y-63298687D01*
X74194973Y-63281241D01*
X74185084Y-63262740D01*
X74171774Y-63246522D01*
X74160119Y-63229079D01*
X74145284Y-63214244D01*
X74131974Y-63198026D01*
X74115756Y-63184716D01*
X74100921Y-63169881D01*
X74083478Y-63158226D01*
X74067260Y-63144916D01*
X74048759Y-63135027D01*
X74031313Y-63123370D01*
X74011926Y-63115340D01*
X73993427Y-63105452D01*
X73973355Y-63099363D01*
X73953968Y-63091333D01*
X73933387Y-63087239D01*
X73913314Y-63081150D01*
X73892441Y-63079094D01*
X73871859Y-63075000D01*
X73850874Y-63075000D01*
X73830000Y-63072944D01*
X73809126Y-63075000D01*
X73566999Y-63075000D01*
X73566999Y-61650000D01*
X75565075Y-61650000D01*
X75680664Y-61765589D01*
X75852638Y-61880498D01*
X76043726Y-61959650D01*
X76246584Y-62000000D01*
X76453416Y-62000000D01*
X76656274Y-61959650D01*
X76847362Y-61880498D01*
X77019336Y-61765589D01*
X77165589Y-61619336D01*
X77280498Y-61447362D01*
X77359650Y-61256274D01*
X77400000Y-61053416D01*
X77400000Y-60846584D01*
X77359650Y-60643726D01*
X77280498Y-60452638D01*
X77165589Y-60280664D01*
X77019336Y-60134411D01*
X76847362Y-60019502D01*
X76656274Y-59940350D01*
X76453416Y-59900000D01*
X76246584Y-59900000D01*
X76043726Y-59940350D01*
X75852638Y-60019502D01*
X75680664Y-60134411D01*
X75565075Y-60250000D01*
X73566999Y-60250000D01*
X73566999Y-58306584D01*
X75300000Y-58306584D01*
X75300000Y-58513416D01*
X75340350Y-58716274D01*
X75419502Y-58907362D01*
X75534411Y-59079336D01*
X75680664Y-59225589D01*
X75852638Y-59340498D01*
X76043726Y-59419650D01*
X76246584Y-59460000D01*
X76453416Y-59460000D01*
X76656274Y-59419650D01*
X76847362Y-59340498D01*
X77019336Y-59225589D01*
X77165589Y-59079336D01*
X77280498Y-58907362D01*
X77359650Y-58716274D01*
X77400000Y-58513416D01*
X77400000Y-58306584D01*
X77359650Y-58103726D01*
X77280498Y-57912638D01*
X77165589Y-57740664D01*
X77019336Y-57594411D01*
X76847362Y-57479502D01*
X76656274Y-57400350D01*
X76453416Y-57360000D01*
X76246584Y-57360000D01*
X76043726Y-57400350D01*
X75852638Y-57479502D01*
X75680664Y-57594411D01*
X75534411Y-57740664D01*
X75419502Y-57912638D01*
X75340350Y-58103726D01*
X75300000Y-58306584D01*
X73566999Y-58306584D01*
X73566999Y-57825000D01*
X73759133Y-57825000D01*
X73780000Y-57827055D01*
X73800867Y-57825000D01*
X73821859Y-57825000D01*
X73842441Y-57820906D01*
X73863314Y-57818850D01*
X73883387Y-57812761D01*
X73903968Y-57808667D01*
X73923355Y-57800637D01*
X73943427Y-57794548D01*
X73961926Y-57784660D01*
X73981313Y-57776630D01*
X73998759Y-57764973D01*
X74017260Y-57755084D01*
X74033478Y-57741774D01*
X74050921Y-57730119D01*
X74065756Y-57715284D01*
X74081974Y-57701974D01*
X74095284Y-57685756D01*
X74115756Y-57665284D01*
X74131974Y-57651974D01*
X74185084Y-57587260D01*
X74224548Y-57513427D01*
X74248850Y-57433314D01*
X74255000Y-57370874D01*
X74255000Y-57370866D01*
X74257055Y-57350000D01*
X74255000Y-57329133D01*
X74255000Y-56970874D01*
X74257056Y-56950000D01*
X74255000Y-56929126D01*
X74255000Y-56908141D01*
X74250906Y-56887559D01*
X74248850Y-56866686D01*
X74242761Y-56846613D01*
X74238667Y-56826032D01*
X74230637Y-56806645D01*
X74224548Y-56786573D01*
X74214660Y-56768074D01*
X74206630Y-56748687D01*
X74194973Y-56731241D01*
X74185084Y-56712740D01*
X74171774Y-56696522D01*
X74160119Y-56679079D01*
X74145284Y-56664244D01*
X74131974Y-56648026D01*
X74115756Y-56634716D01*
X74100921Y-56619881D01*
X74083478Y-56608226D01*
X74067260Y-56594916D01*
X74048759Y-56585027D01*
X74031313Y-56573370D01*
X74011926Y-56565340D01*
X73993427Y-56555452D01*
X73973355Y-56549363D01*
X73953968Y-56541333D01*
X73933387Y-56537239D01*
X73913314Y-56531150D01*
X73892441Y-56529094D01*
X73871859Y-56525000D01*
X73850874Y-56525000D01*
X73830000Y-56522944D01*
X73809126Y-56525000D01*
X73566999Y-56525000D01*
X73566999Y-55766584D01*
X75300000Y-55766584D01*
X75300000Y-55973416D01*
X75340350Y-56176274D01*
X75419502Y-56367362D01*
X75534411Y-56539336D01*
X75680664Y-56685589D01*
X75852638Y-56800498D01*
X76043726Y-56879650D01*
X76246584Y-56920000D01*
X76453416Y-56920000D01*
X76656274Y-56879650D01*
X76847362Y-56800498D01*
X77019336Y-56685589D01*
X77165589Y-56539336D01*
X77280498Y-56367362D01*
X77359650Y-56176274D01*
X77400000Y-55973416D01*
X77400000Y-55766584D01*
X77359650Y-55563726D01*
X77280498Y-55372638D01*
X77165589Y-55200664D01*
X77019336Y-55054411D01*
X76847362Y-54939502D01*
X76656274Y-54860350D01*
X76453416Y-54820000D01*
X76246584Y-54820000D01*
X76043726Y-54860350D01*
X75852638Y-54939502D01*
X75680664Y-55054411D01*
X75534411Y-55200664D01*
X75419502Y-55372638D01*
X75340350Y-55563726D01*
X75300000Y-55766584D01*
X73566999Y-55766584D01*
X73566999Y-54075000D01*
X73759133Y-54075000D01*
X73780000Y-54077055D01*
X73800867Y-54075000D01*
X73821859Y-54075000D01*
X73842441Y-54070906D01*
X73863314Y-54068850D01*
X73883387Y-54062761D01*
X73903968Y-54058667D01*
X73923355Y-54050637D01*
X73943427Y-54044548D01*
X73961926Y-54034660D01*
X73981313Y-54026630D01*
X73998759Y-54014973D01*
X74017260Y-54005084D01*
X74033478Y-53991774D01*
X74050921Y-53980119D01*
X74065756Y-53965284D01*
X74081974Y-53951974D01*
X74095284Y-53935756D01*
X74115756Y-53915284D01*
X74131974Y-53901974D01*
X74185084Y-53837260D01*
X74224548Y-53763427D01*
X74248850Y-53683314D01*
X74255000Y-53620874D01*
X74255000Y-53620866D01*
X74257055Y-53600000D01*
X74255000Y-53579133D01*
X74255000Y-53226584D01*
X75300000Y-53226584D01*
X75300000Y-53433416D01*
X75340350Y-53636274D01*
X75419502Y-53827362D01*
X75534411Y-53999336D01*
X75680664Y-54145589D01*
X75852638Y-54260498D01*
X76043726Y-54339650D01*
X76246584Y-54380000D01*
X76453416Y-54380000D01*
X76656274Y-54339650D01*
X76847362Y-54260498D01*
X77019336Y-54145589D01*
X77165589Y-53999336D01*
X77280498Y-53827362D01*
X77359650Y-53636274D01*
X77400000Y-53433416D01*
X77400000Y-53226584D01*
X77359650Y-53023726D01*
X77280498Y-52832638D01*
X77165589Y-52660664D01*
X77019336Y-52514411D01*
X76847362Y-52399502D01*
X76656274Y-52320350D01*
X76453416Y-52280000D01*
X76246584Y-52280000D01*
X76043726Y-52320350D01*
X75852638Y-52399502D01*
X75680664Y-52514411D01*
X75534411Y-52660664D01*
X75419502Y-52832638D01*
X75340350Y-53023726D01*
X75300000Y-53226584D01*
X74255000Y-53226584D01*
X74255000Y-53220874D01*
X74257056Y-53200000D01*
X74255000Y-53179126D01*
X74255000Y-53158141D01*
X74250906Y-53137559D01*
X74248850Y-53116686D01*
X74242761Y-53096613D01*
X74238667Y-53076032D01*
X74230637Y-53056645D01*
X74224548Y-53036573D01*
X74214660Y-53018074D01*
X74206630Y-52998687D01*
X74194973Y-52981241D01*
X74185084Y-52962740D01*
X74171774Y-52946522D01*
X74160119Y-52929079D01*
X74145284Y-52914244D01*
X74131974Y-52898026D01*
X74115756Y-52884716D01*
X74100921Y-52869881D01*
X74083478Y-52858226D01*
X74067260Y-52844916D01*
X74048759Y-52835027D01*
X74031313Y-52823370D01*
X74011926Y-52815340D01*
X73993427Y-52805452D01*
X73973355Y-52799363D01*
X73953968Y-52791333D01*
X73933387Y-52787239D01*
X73913314Y-52781150D01*
X73892441Y-52779094D01*
X73871859Y-52775000D01*
X73850874Y-52775000D01*
X73830000Y-52772944D01*
X73809126Y-52775000D01*
X73566999Y-52775000D01*
X73566999Y-50686584D01*
X75300000Y-50686584D01*
X75300000Y-50893416D01*
X75340350Y-51096274D01*
X75419502Y-51287362D01*
X75534411Y-51459336D01*
X75680664Y-51605589D01*
X75852638Y-51720498D01*
X76043726Y-51799650D01*
X76246584Y-51840000D01*
X76453416Y-51840000D01*
X76656274Y-51799650D01*
X76847362Y-51720498D01*
X77019336Y-51605589D01*
X77165589Y-51459336D01*
X77280498Y-51287362D01*
X77359650Y-51096274D01*
X77400000Y-50893416D01*
X77400000Y-50686584D01*
X77359650Y-50483726D01*
X77280498Y-50292638D01*
X77165589Y-50120664D01*
X77019336Y-49974411D01*
X76847362Y-49859502D01*
X76656274Y-49780350D01*
X76453416Y-49740000D01*
X76246584Y-49740000D01*
X76043726Y-49780350D01*
X75852638Y-49859502D01*
X75680664Y-49974411D01*
X75534411Y-50120664D01*
X75419502Y-50292638D01*
X75340350Y-50483726D01*
X75300000Y-50686584D01*
X73566999Y-50686584D01*
X73566999Y-49482950D01*
X74420778Y-48629171D01*
X75260071Y-48629171D01*
X75311181Y-48752588D01*
X75429192Y-48945594D01*
X75582589Y-49111869D01*
X75765477Y-49245023D01*
X75970828Y-49339939D01*
X76146000Y-49309836D01*
X76146000Y-48454000D01*
X76554000Y-48454000D01*
X76554000Y-49309836D01*
X76729172Y-49339939D01*
X76934523Y-49245023D01*
X77117411Y-49111869D01*
X77270808Y-48945594D01*
X77388819Y-48752588D01*
X77439929Y-48629171D01*
X77408522Y-48454000D01*
X76554000Y-48454000D01*
X76146000Y-48454000D01*
X75291478Y-48454000D01*
X75260071Y-48629171D01*
X74420778Y-48629171D01*
X75324783Y-47725166D01*
X75311181Y-47747412D01*
X75260071Y-47870829D01*
X75291478Y-48046000D01*
X76146000Y-48046000D01*
X76146000Y-47190164D01*
X76554000Y-47190164D01*
X76554000Y-48046000D01*
X77408522Y-48046000D01*
X77439929Y-47870829D01*
X77388819Y-47747412D01*
X77270808Y-47554406D01*
X77117411Y-47388131D01*
X76934523Y-47254977D01*
X76729172Y-47160061D01*
X76554000Y-47190164D01*
X76146000Y-47190164D01*
X75970828Y-47160061D01*
X75820322Y-47229627D01*
X76288982Y-46760967D01*
X77200000Y-46760967D01*
X77239207Y-46757105D01*
X77276907Y-46745669D01*
X77311651Y-46727098D01*
X77342105Y-46702105D01*
X77367098Y-46671651D01*
X77385669Y-46636907D01*
X77397105Y-46599207D01*
X77400967Y-46560000D01*
X77400967Y-44860000D01*
X77397105Y-44820793D01*
X77385669Y-44783093D01*
X77367098Y-44748349D01*
X77342105Y-44717895D01*
X77311651Y-44692902D01*
X77276907Y-44674331D01*
X77239207Y-44662895D01*
X77200000Y-44659033D01*
X75500000Y-44659033D01*
X75460793Y-44662895D01*
X75423093Y-44674331D01*
X75388349Y-44692902D01*
X75357895Y-44717895D01*
X75332902Y-44748349D01*
X75314331Y-44783093D01*
X75302895Y-44820793D01*
X75299033Y-44860000D01*
X75299033Y-45771018D01*
X72396342Y-48673709D01*
X72369629Y-48695632D01*
X72347708Y-48722343D01*
X72347707Y-48722344D01*
X72282154Y-48802220D01*
X72219554Y-48919336D01*
X72217154Y-48923827D01*
X72177127Y-49055778D01*
X72171603Y-49111869D01*
X72163612Y-49193001D01*
X72166999Y-49227388D01*
X72167000Y-51075000D01*
X72088141Y-51075000D01*
X72006032Y-51091333D01*
X71928687Y-51123370D01*
X71859079Y-51169881D01*
X71799881Y-51229079D01*
X71753370Y-51298687D01*
X71721333Y-51376032D01*
X71705000Y-51458141D01*
X65523586Y-51458141D01*
X65518215Y-51456512D01*
X65429999Y-51447824D01*
X65341784Y-51456512D01*
X65256959Y-51482243D01*
X65178783Y-51524029D01*
X65127433Y-51566172D01*
X64943605Y-51750000D01*
X64907895Y-51750000D01*
X64841785Y-51756511D01*
X64756959Y-51782243D01*
X64678784Y-51824029D01*
X64610263Y-51880263D01*
X64554029Y-51948784D01*
X64512243Y-52026959D01*
X64486511Y-52111785D01*
X64477823Y-52200000D01*
X64486511Y-52288215D01*
X64512243Y-52373041D01*
X64554029Y-52451216D01*
X64610263Y-52519737D01*
X64678784Y-52575971D01*
X64756959Y-52617757D01*
X64841785Y-52643489D01*
X64907895Y-52650000D01*
X65107906Y-52650000D01*
X65130000Y-52652176D01*
X65152094Y-52650000D01*
X65152105Y-52650000D01*
X65218215Y-52643489D01*
X65303041Y-52617757D01*
X65381216Y-52575971D01*
X65449166Y-52520206D01*
X70583001Y-57654041D01*
X70583001Y-61324498D01*
X70581313Y-61323370D01*
X70503968Y-61291333D01*
X70421859Y-61275000D01*
X70338141Y-61275000D01*
X70256032Y-61291333D01*
X70178687Y-61323370D01*
X70109079Y-61369881D01*
X70049881Y-61429079D01*
X70003370Y-61498687D01*
X69971333Y-61576032D01*
X69955000Y-61658141D01*
X69955000Y-61741859D01*
X69971333Y-61823968D01*
X70003370Y-61901313D01*
X70049881Y-61970921D01*
X70109079Y-62030119D01*
X70178687Y-62076630D01*
X70256032Y-62108667D01*
X70338141Y-62125000D01*
X70421859Y-62125000D01*
X70503968Y-62108667D01*
X70581313Y-62076630D01*
X70583001Y-62075502D01*
X70583002Y-65074498D01*
X70581313Y-65073370D01*
X70503968Y-65041333D01*
X70421859Y-65025000D01*
X70338141Y-65025000D01*
X70256032Y-65041333D01*
X70178687Y-65073370D01*
X70109079Y-65119881D01*
X70049881Y-65179079D01*
X70003370Y-65248687D01*
X69971333Y-65326032D01*
X69955000Y-65408141D01*
X69955000Y-65491859D01*
X69971333Y-65573968D01*
X70003370Y-65651313D01*
X70049881Y-65720921D01*
X70109079Y-65780119D01*
X70178687Y-65826630D01*
X70256032Y-65858667D01*
X70338141Y-65875000D01*
X70421859Y-65875000D01*
X70503968Y-65858667D01*
X70581313Y-65826630D01*
X70583002Y-65825502D01*
X70583002Y-70457124D01*
X70580946Y-70478001D01*
X70589151Y-70561315D01*
X70604752Y-70612741D01*
X70613454Y-70641428D01*
X70652918Y-70715261D01*
X70706028Y-70779975D01*
X70722240Y-70793280D01*
X72105000Y-72176040D01*
X72105000Y-72873959D01*
X69655000Y-70423960D01*
X69655000Y-60020867D01*
X69657055Y-60000000D01*
X69655000Y-59979133D01*
X69655000Y-59979126D01*
X69648850Y-59916686D01*
X69624548Y-59836573D01*
X69585084Y-59762740D01*
X69531974Y-59698026D01*
X69515763Y-59684722D01*
X67155000Y-57323960D01*
X67155000Y-56958141D01*
X67150906Y-56937559D01*
X67148850Y-56916686D01*
X67142761Y-56896613D01*
X67138667Y-56876032D01*
X67130637Y-56856645D01*
X67124548Y-56836573D01*
X67114660Y-56818074D01*
X67106630Y-56798687D01*
X67094973Y-56781241D01*
X67085084Y-56762740D01*
X67071774Y-56746522D01*
X67060119Y-56729079D01*
X67045284Y-56714244D01*
X67031974Y-56698026D01*
X67015756Y-56684716D01*
X67000921Y-56669881D01*
X66983478Y-56658226D01*
X66967260Y-56644916D01*
X66948759Y-56635027D01*
X66931313Y-56623370D01*
X66911926Y-56615340D01*
X66893427Y-56605452D01*
X66873355Y-56599363D01*
X66853968Y-56591333D01*
X66833387Y-56587239D01*
X66813314Y-56581150D01*
X66792441Y-56579094D01*
X66771859Y-56575000D01*
X66750874Y-56575000D01*
X66730000Y-56572944D01*
X66709126Y-56575000D01*
X66688141Y-56575000D01*
X66667559Y-56579094D01*
X66646687Y-56581150D01*
X66626616Y-56587238D01*
X66606032Y-56591333D01*
X66586643Y-56599364D01*
X66566574Y-56605452D01*
X66548079Y-56615338D01*
X66528687Y-56623370D01*
X66511237Y-56635030D01*
X66492741Y-56644916D01*
X66476528Y-56658222D01*
X66459079Y-56669881D01*
X66444239Y-56684721D01*
X66428027Y-56698026D01*
X66414722Y-56714238D01*
X66399881Y-56729079D01*
X66388221Y-56746529D01*
X66374917Y-56762740D01*
X66365032Y-56781234D01*
X66353370Y-56798687D01*
X66345336Y-56818083D01*
X66335453Y-56836573D01*
X66329367Y-56856636D01*
X66321333Y-56876032D01*
X66317237Y-56896623D01*
X66311151Y-56916686D01*
X66309096Y-56937549D01*
X66305000Y-56958141D01*
X66305000Y-57041859D01*
X66305001Y-57041863D01*
X66305000Y-57458140D01*
X66305000Y-57479133D01*
X66302945Y-57500000D01*
X66305000Y-57520867D01*
X66305000Y-57541859D01*
X66309095Y-57562443D01*
X66311150Y-57583314D01*
X66316610Y-57601313D01*
X66317238Y-57603384D01*
X66321333Y-57623968D01*
X66329364Y-57643357D01*
X66335452Y-57663426D01*
X66345338Y-57681921D01*
X66353370Y-57701313D01*
X66365030Y-57718763D01*
X66374916Y-57737259D01*
X66388223Y-57753474D01*
X66399881Y-57770921D01*
X66414718Y-57785758D01*
X66428026Y-57801974D01*
X66444243Y-57815283D01*
X68805000Y-60176041D01*
X68805001Y-70579123D01*
X68802945Y-70600000D01*
X68811150Y-70683314D01*
X68831528Y-70750488D01*
X68755000Y-70673960D01*
X68755000Y-60370867D01*
X68757055Y-60350000D01*
X68755000Y-60329133D01*
X68755000Y-60329126D01*
X68748850Y-60266686D01*
X68724548Y-60186573D01*
X68685084Y-60112740D01*
X68631974Y-60048026D01*
X68615758Y-60034718D01*
X65905000Y-57323960D01*
X65905000Y-53399160D01*
X65923487Y-53338216D01*
X65932176Y-53250001D01*
X65923487Y-53161786D01*
X65897756Y-53076960D01*
X65855971Y-52998784D01*
X65799737Y-52930263D01*
X65731216Y-52874029D01*
X65653040Y-52832244D01*
X65568214Y-52806513D01*
X65479999Y-52797824D01*
X65391784Y-52806513D01*
X65306959Y-52832244D01*
X65228784Y-52874029D01*
X65177433Y-52916172D01*
X65043605Y-53050000D01*
X64957895Y-53050000D01*
X64891785Y-53056511D01*
X64806959Y-53082243D01*
X64728784Y-53124029D01*
X64660263Y-53180263D01*
X64604029Y-53248784D01*
X64562243Y-53326959D01*
X64536511Y-53411785D01*
X64527823Y-53500000D01*
X64536511Y-53588215D01*
X64562243Y-53673041D01*
X64604029Y-53751216D01*
X64660263Y-53819737D01*
X64728784Y-53875971D01*
X64806959Y-53917757D01*
X64891785Y-53943489D01*
X64957895Y-53950000D01*
X65055000Y-53950000D01*
X65055001Y-57323958D01*
X63794239Y-58584721D01*
X63778027Y-58598026D01*
X63724917Y-58662740D01*
X63696303Y-58716274D01*
X63685453Y-58736573D01*
X63661150Y-58816686D01*
X63652945Y-58900000D01*
X63655001Y-58920877D01*
X63655000Y-62479133D01*
X63652945Y-62500000D01*
X63655000Y-62520867D01*
X63655000Y-62520873D01*
X63661150Y-62583313D01*
X63685452Y-62663426D01*
X63724916Y-62737259D01*
X63778026Y-62801974D01*
X63794243Y-62815283D01*
X65655001Y-64676042D01*
X65655001Y-66110017D01*
X65603040Y-66082244D01*
X65518214Y-66056513D01*
X65429999Y-66047824D01*
X65341784Y-66056513D01*
X65256959Y-66082244D01*
X65178784Y-66124029D01*
X65127433Y-66166172D01*
X64993605Y-66300000D01*
X64907895Y-66300000D01*
X64841785Y-66306511D01*
X64756959Y-66332243D01*
X64678784Y-66374029D01*
X64610263Y-66430263D01*
X64554029Y-66498784D01*
X64512243Y-66576959D01*
X64486511Y-66661785D01*
X64477823Y-66750000D01*
X64486511Y-66838215D01*
X64487496Y-66841463D01*
X63744243Y-67584717D01*
X63728026Y-67598026D01*
X63674916Y-67662741D01*
X63635452Y-67736574D01*
X63611150Y-67816687D01*
X63605000Y-67879127D01*
X63605000Y-67879133D01*
X63602945Y-67900000D01*
X61924925Y-67900000D01*
X61779336Y-67754411D01*
X61607362Y-67639502D01*
X61416274Y-67560350D01*
X61213416Y-67520000D01*
X61006584Y-67520000D01*
X60803726Y-67560350D01*
X60612638Y-67639502D01*
X60440664Y-67754411D01*
X60294411Y-67900664D01*
X60179502Y-68072638D01*
X60100350Y-68263726D01*
X60060000Y-68466584D01*
X59255000Y-68466584D01*
X59255000Y-65926584D01*
X60060000Y-65926584D01*
X60060000Y-66133416D01*
X60100350Y-66336274D01*
X60179502Y-66527362D01*
X60294411Y-66699336D01*
X60440664Y-66845589D01*
X60612638Y-66960498D01*
X60803726Y-67039650D01*
X61006584Y-67080000D01*
X61213416Y-67080000D01*
X61416274Y-67039650D01*
X61607362Y-66960498D01*
X61779336Y-66845589D01*
X61925589Y-66699336D01*
X62040498Y-66527362D01*
X62119650Y-66336274D01*
X62160000Y-66133416D01*
X62160000Y-65926584D01*
X62119650Y-65723726D01*
X62040498Y-65532638D01*
X61925589Y-65360664D01*
X61779336Y-65214411D01*
X61607362Y-65099502D01*
X61416274Y-65020350D01*
X61213416Y-64980000D01*
X61006584Y-64980000D01*
X60803726Y-65020350D01*
X60612638Y-65099502D01*
X60440664Y-65214411D01*
X60294411Y-65360664D01*
X60179502Y-65532638D01*
X60100350Y-65723726D01*
X60060000Y-65926584D01*
X59255000Y-65926584D01*
X59255000Y-63386584D01*
X60060000Y-63386584D01*
X60060000Y-63593416D01*
X60100350Y-63796274D01*
X60179502Y-63987362D01*
X60294411Y-64159336D01*
X60440664Y-64305589D01*
X60612638Y-64420498D01*
X60803726Y-64499650D01*
X61006584Y-64540000D01*
X61213416Y-64540000D01*
X61416274Y-64499650D01*
X61607362Y-64420498D01*
X61779336Y-64305589D01*
X61925589Y-64159336D01*
X62040498Y-63987362D01*
X62119650Y-63796274D01*
X62160000Y-63593416D01*
X62160000Y-63386584D01*
X62119650Y-63183726D01*
X62040498Y-62992638D01*
X61925589Y-62820664D01*
X61779336Y-62674411D01*
X61607362Y-62559502D01*
X61416274Y-62480350D01*
X61213416Y-62440000D01*
X61006584Y-62440000D01*
X60803726Y-62480350D01*
X60612638Y-62559502D01*
X60440664Y-62674411D01*
X60294411Y-62820664D01*
X60179502Y-62992638D01*
X60100350Y-63183726D01*
X60060000Y-63386584D01*
X59255000Y-63386584D01*
X59255000Y-60846584D01*
X60060000Y-60846584D01*
X60060000Y-61053416D01*
X60100350Y-61256274D01*
X60179502Y-61447362D01*
X60294411Y-61619336D01*
X60440664Y-61765589D01*
X60612638Y-61880498D01*
X60803726Y-61959650D01*
X61006584Y-62000000D01*
X61213416Y-62000000D01*
X61416274Y-61959650D01*
X61607362Y-61880498D01*
X61779336Y-61765589D01*
X61925589Y-61619336D01*
X62040498Y-61447362D01*
X62119650Y-61256274D01*
X62160000Y-61053416D01*
X62160000Y-60846584D01*
X62119650Y-60643726D01*
X62040498Y-60452638D01*
X61925589Y-60280664D01*
X61779336Y-60134411D01*
X61607362Y-60019502D01*
X61416274Y-59940350D01*
X61213416Y-59900000D01*
X61006584Y-59900000D01*
X60803726Y-59940350D01*
X60612638Y-60019502D01*
X60440664Y-60134411D01*
X60294411Y-60280664D01*
X60179502Y-60452638D01*
X60100350Y-60643726D01*
X60060000Y-60846584D01*
X59255000Y-60846584D01*
X59255000Y-58306584D01*
X60060000Y-58306584D01*
X60060000Y-58513416D01*
X60100350Y-58716274D01*
X60179502Y-58907362D01*
X60294411Y-59079336D01*
X60440664Y-59225589D01*
X60612638Y-59340498D01*
X60803726Y-59419650D01*
X61006584Y-59460000D01*
X61213416Y-59460000D01*
X61416274Y-59419650D01*
X61607362Y-59340498D01*
X61779336Y-59225589D01*
X61925589Y-59079336D01*
X62040498Y-58907362D01*
X62119650Y-58716274D01*
X62160000Y-58513416D01*
X62160000Y-58306584D01*
X62119650Y-58103726D01*
X62040498Y-57912638D01*
X61925589Y-57740664D01*
X61779336Y-57594411D01*
X61607362Y-57479502D01*
X61416274Y-57400350D01*
X61213416Y-57360000D01*
X61006584Y-57360000D01*
X60803726Y-57400350D01*
X60612638Y-57479502D01*
X60440664Y-57594411D01*
X60294411Y-57740664D01*
X60179502Y-57912638D01*
X60100350Y-58103726D01*
X60060000Y-58306584D01*
X59255000Y-58306584D01*
X59255000Y-55766584D01*
X60060000Y-55766584D01*
X60060000Y-55973416D01*
X60100350Y-56176274D01*
X60179502Y-56367362D01*
X60294411Y-56539336D01*
X60440664Y-56685589D01*
X60612638Y-56800498D01*
X60803726Y-56879650D01*
X61006584Y-56920000D01*
X61213416Y-56920000D01*
X61416274Y-56879650D01*
X61607362Y-56800498D01*
X61779336Y-56685589D01*
X61925589Y-56539336D01*
X62040498Y-56367362D01*
X62119650Y-56176274D01*
X62160000Y-55973416D01*
X62160000Y-55766584D01*
X62119650Y-55563726D01*
X62040498Y-55372638D01*
X61925589Y-55200664D01*
X61779336Y-55054411D01*
X61607362Y-54939502D01*
X61416274Y-54860350D01*
X61213416Y-54820000D01*
X61006584Y-54820000D01*
X60803726Y-54860350D01*
X60612638Y-54939502D01*
X60440664Y-55054411D01*
X60294411Y-55200664D01*
X60179502Y-55372638D01*
X60100350Y-55563726D01*
X60060000Y-55766584D01*
X59255000Y-55766584D01*
X59255000Y-53226584D01*
X60060000Y-53226584D01*
X60060000Y-53433416D01*
X60100350Y-53636274D01*
X60179502Y-53827362D01*
X60294411Y-53999336D01*
X60440664Y-54145589D01*
X60612638Y-54260498D01*
X60803726Y-54339650D01*
X61006584Y-54380000D01*
X61213416Y-54380000D01*
X61416274Y-54339650D01*
X61607362Y-54260498D01*
X61779336Y-54145589D01*
X61925589Y-53999336D01*
X62040498Y-53827362D01*
X62119650Y-53636274D01*
X62160000Y-53433416D01*
X62160000Y-53226584D01*
X62119650Y-53023726D01*
X62040498Y-52832638D01*
X61925589Y-52660664D01*
X61779336Y-52514411D01*
X61607362Y-52399502D01*
X61416274Y-52320350D01*
X61213416Y-52280000D01*
X61006584Y-52280000D01*
X60803726Y-52320350D01*
X60612638Y-52399502D01*
X60440664Y-52514411D01*
X60294411Y-52660664D01*
X60179502Y-52832638D01*
X60100350Y-53023726D01*
X60060000Y-53226584D01*
X59255000Y-53226584D01*
X59255000Y-50686584D01*
X60060000Y-50686584D01*
X60060000Y-50893416D01*
X60100350Y-51096274D01*
X60179502Y-51287362D01*
X60294411Y-51459336D01*
X60440664Y-51605589D01*
X60612638Y-51720498D01*
X60803726Y-51799650D01*
X61006584Y-51840000D01*
X61213416Y-51840000D01*
X61416274Y-51799650D01*
X61607362Y-51720498D01*
X61779336Y-51605589D01*
X61925589Y-51459336D01*
X62040498Y-51287362D01*
X62119650Y-51096274D01*
X62160000Y-50893416D01*
X62160000Y-50686584D01*
X62119650Y-50483726D01*
X62040498Y-50292638D01*
X61925589Y-50120664D01*
X61779336Y-49974411D01*
X61607362Y-49859502D01*
X61416274Y-49780350D01*
X61213416Y-49740000D01*
X61006584Y-49740000D01*
X60803726Y-49780350D01*
X60612638Y-49859502D01*
X60440664Y-49974411D01*
X60294411Y-50120664D01*
X60179502Y-50292638D01*
X60100350Y-50483726D01*
X60060000Y-50686584D01*
X59255000Y-50686584D01*
X59255000Y-48146584D01*
X60060000Y-48146584D01*
X60060000Y-48353416D01*
X60100350Y-48556274D01*
X60179502Y-48747362D01*
X60294411Y-48919336D01*
X60440664Y-49065589D01*
X60612638Y-49180498D01*
X60803726Y-49259650D01*
X61006584Y-49300000D01*
X61213416Y-49300000D01*
X61416274Y-49259650D01*
X61607362Y-49180498D01*
X61779336Y-49065589D01*
X61925589Y-48919336D01*
X62040498Y-48747362D01*
X62119650Y-48556274D01*
X62160000Y-48353416D01*
X62160000Y-48146584D01*
X62119650Y-47943726D01*
X62040498Y-47752638D01*
X61925589Y-47580664D01*
X61779336Y-47434411D01*
X61607362Y-47319502D01*
X61416274Y-47240350D01*
X61213416Y-47200000D01*
X61006584Y-47200000D01*
X60803726Y-47240350D01*
X60612638Y-47319502D01*
X60440664Y-47434411D01*
X60294411Y-47580664D01*
X60179502Y-47752638D01*
X60100350Y-47943726D01*
X60060000Y-48146584D01*
X59255000Y-48146584D01*
X59255000Y-44860000D01*
X60059033Y-44860000D01*
X60059033Y-46560000D01*
X60062895Y-46599207D01*
X60074331Y-46636907D01*
X60092902Y-46671651D01*
X60117895Y-46702105D01*
X60148349Y-46727098D01*
X60183093Y-46745669D01*
X60220793Y-46757105D01*
X60260000Y-46760967D01*
X61960000Y-46760967D01*
X61999207Y-46757105D01*
X62036907Y-46745669D01*
X62071651Y-46727098D01*
X62102105Y-46702105D01*
X62127098Y-46671651D01*
X62145669Y-46636907D01*
X62157105Y-46599207D01*
X62160967Y-46560000D01*
X62160967Y-44860000D01*
X62157105Y-44820793D01*
X62145669Y-44783093D01*
X62127098Y-44748349D01*
X62102105Y-44717895D01*
X62071651Y-44692902D01*
X62036907Y-44674331D01*
X61999207Y-44662895D01*
X61960000Y-44659033D01*
X60260000Y-44659033D01*
X60220793Y-44662895D01*
X60183093Y-44674331D01*
X60148349Y-44692902D01*
X60117895Y-44717895D01*
X60092902Y-44748349D01*
X60074331Y-44783093D01*
X60062895Y-44820793D01*
X60059033Y-44860000D01*
X59255000Y-44860000D01*
X59255000Y-43855000D01*
X78205000Y-43855000D01*
X78205000Y-111065000D01*
%TA.AperFunction,Conductor*%
G36*
X78205000Y-111065000D02*
G01*
X59255000Y-111065000D01*
X59255000Y-109589171D01*
X60020071Y-109589171D01*
X60071181Y-109712588D01*
X60189192Y-109905594D01*
X60342589Y-110071869D01*
X60525477Y-110205023D01*
X60730828Y-110299939D01*
X60906000Y-110269836D01*
X60906000Y-109414000D01*
X61314000Y-109414000D01*
X61314000Y-110269836D01*
X61489172Y-110299939D01*
X61694523Y-110205023D01*
X61877411Y-110071869D01*
X62030808Y-109905594D01*
X62148819Y-109712588D01*
X62199929Y-109589171D01*
X62168522Y-109414000D01*
X61314000Y-109414000D01*
X60906000Y-109414000D01*
X60051478Y-109414000D01*
X60020071Y-109589171D01*
X59255000Y-109589171D01*
X59255000Y-109106584D01*
X75300000Y-109106584D01*
X75300000Y-109313416D01*
X75340350Y-109516274D01*
X75419502Y-109707362D01*
X75534411Y-109879336D01*
X75680664Y-110025589D01*
X75852638Y-110140498D01*
X76043726Y-110219650D01*
X76246584Y-110260000D01*
X76453416Y-110260000D01*
X76656274Y-110219650D01*
X76847362Y-110140498D01*
X77019336Y-110025589D01*
X77165589Y-109879336D01*
X77280498Y-109707362D01*
X77359650Y-109516274D01*
X77400000Y-109313416D01*
X77400000Y-109106584D01*
X77359650Y-108903726D01*
X77280498Y-108712638D01*
X77165589Y-108540664D01*
X77019336Y-108394411D01*
X76847362Y-108279502D01*
X76656274Y-108200350D01*
X76453416Y-108160000D01*
X76246584Y-108160000D01*
X76043726Y-108200350D01*
X75852638Y-108279502D01*
X75680664Y-108394411D01*
X75534411Y-108540664D01*
X75419502Y-108712638D01*
X75340350Y-108903726D01*
X75300000Y-109106584D01*
X59255000Y-109106584D01*
X59255000Y-108830829D01*
X60020071Y-108830829D01*
X60051478Y-109006000D01*
X60906000Y-109006000D01*
X60906000Y-108150164D01*
X61314000Y-108150164D01*
X61314000Y-109006000D01*
X62168522Y-109006000D01*
X62199929Y-108830829D01*
X62148819Y-108707412D01*
X62030808Y-108514406D01*
X61877411Y-108348131D01*
X61694523Y-108214977D01*
X61489172Y-108120061D01*
X61314000Y-108150164D01*
X60906000Y-108150164D01*
X60730828Y-108120061D01*
X60525477Y-108214977D01*
X60342589Y-108348131D01*
X60189192Y-108514406D01*
X60071181Y-108707412D01*
X60020071Y-108830829D01*
X59255000Y-108830829D01*
X59255000Y-106566584D01*
X60060000Y-106566584D01*
X60060000Y-106773416D01*
X60100350Y-106976274D01*
X60179502Y-107167362D01*
X60294411Y-107339336D01*
X60440664Y-107485589D01*
X60612638Y-107600498D01*
X60803726Y-107679650D01*
X61006584Y-107720000D01*
X61213416Y-107720000D01*
X61416274Y-107679650D01*
X61607362Y-107600498D01*
X61779336Y-107485589D01*
X61925589Y-107339336D01*
X62040498Y-107167362D01*
X62119650Y-106976274D01*
X62160000Y-106773416D01*
X62160000Y-106566584D01*
X75300000Y-106566584D01*
X75300000Y-106773416D01*
X75340350Y-106976274D01*
X75419502Y-107167362D01*
X75534411Y-107339336D01*
X75680664Y-107485589D01*
X75852638Y-107600498D01*
X76043726Y-107679650D01*
X76246584Y-107720000D01*
X76453416Y-107720000D01*
X76656274Y-107679650D01*
X76847362Y-107600498D01*
X77019336Y-107485589D01*
X77165589Y-107339336D01*
X77280498Y-107167362D01*
X77359650Y-106976274D01*
X77400000Y-106773416D01*
X77400000Y-106566584D01*
X77359650Y-106363726D01*
X77280498Y-106172638D01*
X77165589Y-106000664D01*
X77019336Y-105854411D01*
X76847362Y-105739502D01*
X76656274Y-105660350D01*
X76453416Y-105620000D01*
X76246584Y-105620000D01*
X76043726Y-105660350D01*
X75852638Y-105739502D01*
X75680664Y-105854411D01*
X75534411Y-106000664D01*
X75419502Y-106172638D01*
X75340350Y-106363726D01*
X75300000Y-106566584D01*
X62160000Y-106566584D01*
X62119650Y-106363726D01*
X62040498Y-106172638D01*
X61925589Y-106000664D01*
X61779336Y-105854411D01*
X61607362Y-105739502D01*
X61416274Y-105660350D01*
X61213416Y-105620000D01*
X61006584Y-105620000D01*
X60803726Y-105660350D01*
X60612638Y-105739502D01*
X60440664Y-105854411D01*
X60294411Y-106000664D01*
X60179502Y-106172638D01*
X60100350Y-106363726D01*
X60060000Y-106566584D01*
X59255000Y-106566584D01*
X59255000Y-104026584D01*
X60060000Y-104026584D01*
X60060000Y-104233416D01*
X60100350Y-104436274D01*
X60179502Y-104627362D01*
X60294411Y-104799336D01*
X60440664Y-104945589D01*
X60612638Y-105060498D01*
X60803726Y-105139650D01*
X61006584Y-105180000D01*
X61213416Y-105180000D01*
X61416274Y-105139650D01*
X61607362Y-105060498D01*
X61779336Y-104945589D01*
X61925589Y-104799336D01*
X62040498Y-104627362D01*
X62119650Y-104436274D01*
X62160000Y-104233416D01*
X62160000Y-104026584D01*
X62119650Y-103823726D01*
X62040498Y-103632638D01*
X61925589Y-103460664D01*
X61779336Y-103314411D01*
X61607362Y-103199502D01*
X61416274Y-103120350D01*
X61213416Y-103080000D01*
X61006584Y-103080000D01*
X60803726Y-103120350D01*
X60612638Y-103199502D01*
X60440664Y-103314411D01*
X60294411Y-103460664D01*
X60179502Y-103632638D01*
X60100350Y-103823726D01*
X60060000Y-104026584D01*
X59255000Y-104026584D01*
X59255000Y-101486584D01*
X60060000Y-101486584D01*
X60060000Y-101693416D01*
X60100350Y-101896274D01*
X60179502Y-102087362D01*
X60294411Y-102259336D01*
X60440664Y-102405589D01*
X60612638Y-102520498D01*
X60803726Y-102599650D01*
X61006584Y-102640000D01*
X61213416Y-102640000D01*
X61416274Y-102599650D01*
X61607362Y-102520498D01*
X61779336Y-102405589D01*
X61925589Y-102259336D01*
X62040498Y-102087362D01*
X62119650Y-101896274D01*
X62160000Y-101693416D01*
X62160000Y-101486584D01*
X62119650Y-101283726D01*
X62040498Y-101092638D01*
X61925589Y-100920664D01*
X61779336Y-100774411D01*
X61607362Y-100659502D01*
X61416274Y-100580350D01*
X61213416Y-100540000D01*
X61006584Y-100540000D01*
X60803726Y-100580350D01*
X60612638Y-100659502D01*
X60440664Y-100774411D01*
X60294411Y-100920664D01*
X60179502Y-101092638D01*
X60100350Y-101283726D01*
X60060000Y-101486584D01*
X59255000Y-101486584D01*
X59255000Y-98946584D01*
X60060000Y-98946584D01*
X60060000Y-99153416D01*
X60100350Y-99356274D01*
X60179502Y-99547362D01*
X60294411Y-99719336D01*
X60440664Y-99865589D01*
X60612638Y-99980498D01*
X60803726Y-100059650D01*
X61006584Y-100100000D01*
X61213416Y-100100000D01*
X61416274Y-100059650D01*
X61607362Y-99980498D01*
X61779336Y-99865589D01*
X61925589Y-99719336D01*
X62040498Y-99547362D01*
X62119650Y-99356274D01*
X62160000Y-99153416D01*
X62160000Y-98946584D01*
X62119650Y-98743726D01*
X62040498Y-98552638D01*
X61925589Y-98380664D01*
X61779336Y-98234411D01*
X61607362Y-98119502D01*
X61416274Y-98040350D01*
X61213416Y-98000000D01*
X61006584Y-98000000D01*
X60803726Y-98040350D01*
X60612638Y-98119502D01*
X60440664Y-98234411D01*
X60294411Y-98380664D01*
X60179502Y-98552638D01*
X60100350Y-98743726D01*
X60060000Y-98946584D01*
X59255000Y-98946584D01*
X59255000Y-96406584D01*
X60060000Y-96406584D01*
X60060000Y-96613416D01*
X60100350Y-96816274D01*
X60179502Y-97007362D01*
X60294411Y-97179336D01*
X60440664Y-97325589D01*
X60612638Y-97440498D01*
X60803726Y-97519650D01*
X61006584Y-97560000D01*
X61213416Y-97560000D01*
X61416274Y-97519650D01*
X61607362Y-97440498D01*
X61779336Y-97325589D01*
X61925589Y-97179336D01*
X62040498Y-97007362D01*
X62119650Y-96816274D01*
X62160000Y-96613416D01*
X62160000Y-96406584D01*
X62119650Y-96203726D01*
X62040498Y-96012638D01*
X61925589Y-95840664D01*
X61779336Y-95694411D01*
X61607362Y-95579502D01*
X61416274Y-95500350D01*
X61213416Y-95460000D01*
X61006584Y-95460000D01*
X60803726Y-95500350D01*
X60612638Y-95579502D01*
X60440664Y-95694411D01*
X60294411Y-95840664D01*
X60179502Y-96012638D01*
X60100350Y-96203726D01*
X60060000Y-96406584D01*
X59255000Y-96406584D01*
X59255000Y-93866584D01*
X60060000Y-93866584D01*
X60060000Y-94073416D01*
X60100350Y-94276274D01*
X60179502Y-94467362D01*
X60294411Y-94639336D01*
X60440664Y-94785589D01*
X60612638Y-94900498D01*
X60803726Y-94979650D01*
X61006584Y-95020000D01*
X61213416Y-95020000D01*
X61416274Y-94979650D01*
X61607362Y-94900498D01*
X61779336Y-94785589D01*
X61925589Y-94639336D01*
X62040498Y-94467362D01*
X62119650Y-94276274D01*
X62160000Y-94073416D01*
X62160000Y-93866584D01*
X62119650Y-93663726D01*
X62040498Y-93472638D01*
X61925589Y-93300664D01*
X61779336Y-93154411D01*
X61607362Y-93039502D01*
X61416274Y-92960350D01*
X61213416Y-92920000D01*
X61006584Y-92920000D01*
X60803726Y-92960350D01*
X60612638Y-93039502D01*
X60440664Y-93154411D01*
X60294411Y-93300664D01*
X60179502Y-93472638D01*
X60100350Y-93663726D01*
X60060000Y-93866584D01*
X59255000Y-93866584D01*
X59255000Y-91326584D01*
X60060000Y-91326584D01*
X60060000Y-91533416D01*
X60100350Y-91736274D01*
X60179502Y-91927362D01*
X60294411Y-92099336D01*
X60440664Y-92245589D01*
X60612638Y-92360498D01*
X60803726Y-92439650D01*
X61006584Y-92480000D01*
X61213416Y-92480000D01*
X61416274Y-92439650D01*
X61607362Y-92360498D01*
X61779336Y-92245589D01*
X61925589Y-92099336D01*
X62040498Y-91927362D01*
X62119650Y-91736274D01*
X62160000Y-91533416D01*
X62160000Y-91326584D01*
X62119650Y-91123726D01*
X62040498Y-90932638D01*
X61925589Y-90760664D01*
X61779336Y-90614411D01*
X61607362Y-90499502D01*
X61416274Y-90420350D01*
X61213416Y-90380000D01*
X61006584Y-90380000D01*
X60803726Y-90420350D01*
X60612638Y-90499502D01*
X60440664Y-90614411D01*
X60294411Y-90760664D01*
X60179502Y-90932638D01*
X60100350Y-91123726D01*
X60060000Y-91326584D01*
X59255000Y-91326584D01*
X59255000Y-88786584D01*
X60060000Y-88786584D01*
X60060000Y-88993416D01*
X60100350Y-89196274D01*
X60179502Y-89387362D01*
X60294411Y-89559336D01*
X60440664Y-89705589D01*
X60612638Y-89820498D01*
X60803726Y-89899650D01*
X61006584Y-89940000D01*
X61213416Y-89940000D01*
X61416274Y-89899650D01*
X61607362Y-89820498D01*
X61779336Y-89705589D01*
X61925589Y-89559336D01*
X62040498Y-89387362D01*
X62119650Y-89196274D01*
X62160000Y-88993416D01*
X62160000Y-88786584D01*
X62134452Y-88658141D01*
X62905000Y-88658141D01*
X62905000Y-88741859D01*
X62921333Y-88823968D01*
X62953370Y-88901313D01*
X62999881Y-88970921D01*
X63053960Y-89025000D01*
X62999881Y-89079079D01*
X62953370Y-89148687D01*
X62921333Y-89226032D01*
X62905000Y-89308141D01*
X62905000Y-89391859D01*
X62921333Y-89473968D01*
X62953370Y-89551313D01*
X62999881Y-89620921D01*
X63059079Y-89680119D01*
X63088833Y-89700000D01*
X63059079Y-89719881D01*
X62999881Y-89779079D01*
X62953370Y-89848687D01*
X62921333Y-89926032D01*
X62905000Y-90008141D01*
X62905000Y-90091859D01*
X62921333Y-90173968D01*
X62953370Y-90251313D01*
X62999881Y-90320921D01*
X63059079Y-90380119D01*
X63080000Y-90394098D01*
X63080001Y-100622725D01*
X63080000Y-102527725D01*
X63078791Y-102540000D01*
X63080000Y-102552274D01*
X63083618Y-102589007D01*
X63097913Y-102636133D01*
X63121127Y-102679564D01*
X63152368Y-102717632D01*
X63161914Y-102725466D01*
X64353543Y-103917097D01*
X64361368Y-103926632D01*
X64399436Y-103957873D01*
X64442866Y-103981087D01*
X64489990Y-103995382D01*
X64538999Y-104000209D01*
X64551274Y-103999000D01*
X65083902Y-103999000D01*
X65097881Y-104019921D01*
X65157079Y-104079119D01*
X65226687Y-104125630D01*
X65304032Y-104157667D01*
X65386141Y-104174000D01*
X65469859Y-104174000D01*
X65551968Y-104157667D01*
X65629313Y-104125630D01*
X65698921Y-104079119D01*
X65758119Y-104019921D01*
X65804630Y-103950313D01*
X65836667Y-103872968D01*
X65853000Y-103790859D01*
X65853000Y-103707141D01*
X65836667Y-103625032D01*
X65804630Y-103547687D01*
X65758119Y-103478079D01*
X65698921Y-103418881D01*
X65629313Y-103372370D01*
X65551968Y-103340333D01*
X65469859Y-103324000D01*
X65386141Y-103324000D01*
X65304032Y-103340333D01*
X65226687Y-103372370D01*
X65157079Y-103418881D01*
X65097881Y-103478079D01*
X65083902Y-103499000D01*
X64642554Y-103499000D01*
X63580000Y-102436448D01*
X63580000Y-95075876D01*
X63602368Y-95103132D01*
X63611914Y-95110966D01*
X66061002Y-97560055D01*
X66061001Y-103349726D01*
X66059792Y-103362001D01*
X66064619Y-103411009D01*
X66078914Y-103458134D01*
X66102128Y-103501565D01*
X66133369Y-103539633D01*
X66142915Y-103547467D01*
X66277909Y-103682462D01*
X66273000Y-103707141D01*
X66273000Y-103790859D01*
X66289333Y-103872968D01*
X66321370Y-103950313D01*
X66367881Y-104019921D01*
X66427079Y-104079119D01*
X66496687Y-104125630D01*
X66574032Y-104157667D01*
X66656141Y-104174000D01*
X66739859Y-104174000D01*
X66821968Y-104157667D01*
X66899313Y-104125630D01*
X66968921Y-104079119D01*
X67028119Y-104019921D01*
X67074630Y-103950313D01*
X67106667Y-103872968D01*
X67123000Y-103790859D01*
X67123000Y-103707141D01*
X67106667Y-103625032D01*
X67074630Y-103547687D01*
X67028119Y-103478079D01*
X66968921Y-103418881D01*
X66899313Y-103372370D01*
X66888763Y-103368000D01*
X66899313Y-103363630D01*
X66968921Y-103317119D01*
X67028119Y-103257921D01*
X67074630Y-103188313D01*
X67106667Y-103110968D01*
X67123000Y-103028859D01*
X67123000Y-102945141D01*
X67106667Y-102863032D01*
X67074630Y-102785687D01*
X67028119Y-102716079D01*
X66968921Y-102656881D01*
X66948000Y-102642902D01*
X66948000Y-97846695D01*
X67216000Y-98114695D01*
X67215999Y-103361724D01*
X67214790Y-103373999D01*
X67215999Y-103386273D01*
X67219617Y-103423006D01*
X67233912Y-103470132D01*
X67257126Y-103513563D01*
X67288367Y-103551631D01*
X67297913Y-103559465D01*
X67420909Y-103682462D01*
X67416000Y-103707141D01*
X67416000Y-103790859D01*
X67432333Y-103872968D01*
X67464370Y-103950313D01*
X67510881Y-104019921D01*
X67570079Y-104079119D01*
X67639687Y-104125630D01*
X67717032Y-104157667D01*
X67799141Y-104174000D01*
X67882859Y-104174000D01*
X67964968Y-104157667D01*
X68042313Y-104125630D01*
X68111921Y-104079119D01*
X68171119Y-104019921D01*
X68217630Y-103950313D01*
X68249667Y-103872968D01*
X68266000Y-103790859D01*
X68266000Y-103707141D01*
X68249667Y-103625032D01*
X68217630Y-103547687D01*
X68171119Y-103478079D01*
X68111921Y-103418881D01*
X68042313Y-103372370D01*
X68031763Y-103368000D01*
X68042313Y-103363630D01*
X68111921Y-103317119D01*
X68171119Y-103257921D01*
X68217630Y-103188313D01*
X68249667Y-103110968D01*
X68266000Y-103028859D01*
X68266000Y-102945141D01*
X68249667Y-102863032D01*
X68217630Y-102785687D01*
X68171119Y-102716079D01*
X68111921Y-102656881D01*
X68091000Y-102642902D01*
X68091000Y-98354696D01*
X68486000Y-98749696D01*
X68485999Y-103361724D01*
X68484790Y-103373999D01*
X68485999Y-103386273D01*
X68489617Y-103423006D01*
X68503912Y-103470132D01*
X68527126Y-103513563D01*
X68558367Y-103551631D01*
X68567913Y-103559465D01*
X68690909Y-103682462D01*
X68686000Y-103707141D01*
X68686000Y-103790859D01*
X68702333Y-103872968D01*
X68734370Y-103950313D01*
X68780881Y-104019921D01*
X68840079Y-104079119D01*
X68909687Y-104125630D01*
X68987032Y-104157667D01*
X69069141Y-104174000D01*
X69152859Y-104174000D01*
X69234968Y-104157667D01*
X69312313Y-104125630D01*
X69381921Y-104079119D01*
X69441119Y-104019921D01*
X69487630Y-103950313D01*
X69519667Y-103872968D01*
X69536000Y-103790859D01*
X69536000Y-103707141D01*
X69519667Y-103625032D01*
X69487630Y-103547687D01*
X69441119Y-103478079D01*
X69381921Y-103418881D01*
X69312313Y-103372370D01*
X69301763Y-103368000D01*
X69312313Y-103363630D01*
X69381921Y-103317119D01*
X69441119Y-103257921D01*
X69487630Y-103188313D01*
X69519667Y-103110968D01*
X69536000Y-103028859D01*
X69536000Y-102945141D01*
X69519667Y-102863032D01*
X69487630Y-102785687D01*
X69441119Y-102716079D01*
X69381921Y-102656881D01*
X69361000Y-102642902D01*
X69361000Y-99058980D01*
X69756000Y-99453980D01*
X69755999Y-103361724D01*
X69754790Y-103373999D01*
X69755999Y-103386273D01*
X69759617Y-103423006D01*
X69773912Y-103470132D01*
X69797126Y-103513563D01*
X69828367Y-103551631D01*
X69837913Y-103559465D01*
X69960909Y-103682462D01*
X69956000Y-103707141D01*
X69956000Y-103790859D01*
X69972333Y-103872968D01*
X70004370Y-103950313D01*
X70050881Y-104019921D01*
X70110079Y-104079119D01*
X70179687Y-104125630D01*
X70257032Y-104157667D01*
X70339141Y-104174000D01*
X70422859Y-104174000D01*
X70504968Y-104157667D01*
X70582313Y-104125630D01*
X70651921Y-104079119D01*
X70711119Y-104019921D01*
X70757630Y-103950313D01*
X70789667Y-103872968D01*
X70806000Y-103790859D01*
X70806000Y-103707141D01*
X70789667Y-103625032D01*
X70757630Y-103547687D01*
X70711119Y-103478079D01*
X70651921Y-103418881D01*
X70582313Y-103372370D01*
X70571763Y-103368000D01*
X70582313Y-103363630D01*
X70651921Y-103317119D01*
X70711119Y-103257921D01*
X70757630Y-103188313D01*
X70789667Y-103110968D01*
X70806000Y-103028859D01*
X70806000Y-102945141D01*
X70789667Y-102863032D01*
X70757630Y-102785687D01*
X70711119Y-102716079D01*
X70651921Y-102656881D01*
X70631000Y-102642902D01*
X70631000Y-99443272D01*
X70632209Y-99430999D01*
X70631000Y-99418725D01*
X70627382Y-99381992D01*
X70613087Y-99334866D01*
X70589873Y-99291436D01*
X70558632Y-99253368D01*
X70549097Y-99245543D01*
X66602794Y-95299242D01*
X66645313Y-95281630D01*
X66714921Y-95235119D01*
X66774119Y-95175921D01*
X66820630Y-95106313D01*
X66852667Y-95028968D01*
X66869000Y-94946859D01*
X66869000Y-94863141D01*
X66868006Y-94858141D01*
X70355000Y-94858141D01*
X70355000Y-94941859D01*
X70371333Y-95023968D01*
X70403370Y-95101313D01*
X70449881Y-95170921D01*
X70509079Y-95230119D01*
X70578687Y-95276630D01*
X70656032Y-95308667D01*
X70738141Y-95325000D01*
X70821859Y-95325000D01*
X70903968Y-95308667D01*
X70981313Y-95276630D01*
X71050921Y-95230119D01*
X71110119Y-95170921D01*
X71156630Y-95101313D01*
X71188667Y-95023968D01*
X71205000Y-94941859D01*
X71205000Y-94858141D01*
X71188667Y-94776032D01*
X71156630Y-94698687D01*
X71110119Y-94629079D01*
X71050921Y-94569881D01*
X70981313Y-94523370D01*
X70903968Y-94491333D01*
X70821859Y-94475000D01*
X70738141Y-94475000D01*
X70656032Y-94491333D01*
X70578687Y-94523370D01*
X70509079Y-94569881D01*
X70449881Y-94629079D01*
X70403370Y-94698687D01*
X70371333Y-94776032D01*
X70355000Y-94858141D01*
X66868006Y-94858141D01*
X66852667Y-94781032D01*
X66820630Y-94703687D01*
X66774119Y-94634079D01*
X66714921Y-94574881D01*
X66645313Y-94528370D01*
X66567968Y-94496333D01*
X66485859Y-94480000D01*
X66402141Y-94480000D01*
X66320032Y-94496333D01*
X66242687Y-94528370D01*
X66173079Y-94574881D01*
X66113881Y-94634079D01*
X66067370Y-94703687D01*
X66049758Y-94746206D01*
X65430066Y-94126514D01*
X65430066Y-92308141D01*
X65855000Y-92308141D01*
X65855000Y-92391859D01*
X65871333Y-92473968D01*
X65903370Y-92551313D01*
X65949881Y-92620921D01*
X66009079Y-92680119D01*
X66078687Y-92726630D01*
X66156032Y-92758667D01*
X66238141Y-92775000D01*
X66321859Y-92775000D01*
X66403968Y-92758667D01*
X66481313Y-92726630D01*
X66550921Y-92680119D01*
X66610119Y-92620921D01*
X66656630Y-92551313D01*
X66688667Y-92473968D01*
X66705000Y-92391859D01*
X66705000Y-92308141D01*
X66688667Y-92226032D01*
X66656630Y-92148687D01*
X66610119Y-92079079D01*
X66550921Y-92019881D01*
X66481313Y-91973370D01*
X66403968Y-91941333D01*
X66321859Y-91925000D01*
X66238141Y-91925000D01*
X66156032Y-91941333D01*
X66078687Y-91973370D01*
X66009079Y-92019881D01*
X65949881Y-92079079D01*
X65903370Y-92148687D01*
X65871333Y-92226032D01*
X65855000Y-92308141D01*
X65430066Y-92308141D01*
X65430066Y-91058141D01*
X66380000Y-91058141D01*
X66380000Y-91141859D01*
X66396333Y-91223968D01*
X66428370Y-91301313D01*
X66474881Y-91370921D01*
X66534079Y-91430119D01*
X66603687Y-91476630D01*
X66681032Y-91508667D01*
X66763141Y-91525000D01*
X66846859Y-91525000D01*
X66928968Y-91508667D01*
X67006313Y-91476630D01*
X67075921Y-91430119D01*
X67135119Y-91370921D01*
X67181630Y-91301313D01*
X67213667Y-91223968D01*
X67230000Y-91141859D01*
X67230000Y-91058141D01*
X67213667Y-90976032D01*
X67181630Y-90898687D01*
X67135119Y-90829079D01*
X67075921Y-90769881D01*
X67006313Y-90723370D01*
X66928968Y-90691333D01*
X66846859Y-90675000D01*
X66763141Y-90675000D01*
X66681032Y-90691333D01*
X66603687Y-90723370D01*
X66534079Y-90769881D01*
X66474881Y-90829079D01*
X66428370Y-90898687D01*
X66396333Y-90976032D01*
X66380000Y-91058141D01*
X65430066Y-91058141D01*
X65430066Y-89858141D01*
X66755000Y-89858141D01*
X66755000Y-89941859D01*
X66771333Y-90023968D01*
X66803370Y-90101313D01*
X66849881Y-90170921D01*
X66909079Y-90230119D01*
X66978687Y-90276630D01*
X67056032Y-90308667D01*
X67138141Y-90325000D01*
X67221859Y-90325000D01*
X67303968Y-90308667D01*
X67381313Y-90276630D01*
X67450921Y-90230119D01*
X67510119Y-90170921D01*
X67556630Y-90101313D01*
X67588667Y-90023968D01*
X67605000Y-89941859D01*
X67605000Y-89858141D01*
X67588667Y-89776032D01*
X67556630Y-89698687D01*
X67510119Y-89629079D01*
X67450921Y-89569881D01*
X67381313Y-89523370D01*
X67303968Y-89491333D01*
X67221859Y-89475000D01*
X67138141Y-89475000D01*
X67056032Y-89491333D01*
X66978687Y-89523370D01*
X66909079Y-89569881D01*
X66849881Y-89629079D01*
X66803370Y-89698687D01*
X66771333Y-89776032D01*
X66755000Y-89858141D01*
X65430066Y-89858141D01*
X65430066Y-86262340D01*
X65431275Y-86250065D01*
X65426448Y-86201057D01*
X65412153Y-86153932D01*
X65395282Y-86122369D01*
X65388939Y-86110502D01*
X65357698Y-86072434D01*
X65348163Y-86064609D01*
X64950091Y-85666538D01*
X64955000Y-85641859D01*
X64955000Y-85558141D01*
X64938667Y-85476032D01*
X64906630Y-85398687D01*
X64860119Y-85329079D01*
X64800921Y-85269881D01*
X64731313Y-85223370D01*
X64653968Y-85191333D01*
X64571859Y-85175000D01*
X64488141Y-85175000D01*
X64406032Y-85191333D01*
X64328687Y-85223370D01*
X64259079Y-85269881D01*
X64199881Y-85329079D01*
X64153370Y-85398687D01*
X64121333Y-85476032D01*
X64105000Y-85558141D01*
X64105000Y-85641859D01*
X64121333Y-85723968D01*
X64153370Y-85801313D01*
X64199881Y-85870921D01*
X64253960Y-85925000D01*
X64199881Y-85979079D01*
X64153370Y-86048687D01*
X64121333Y-86126032D01*
X64105000Y-86208141D01*
X64105000Y-86291859D01*
X64121333Y-86373968D01*
X64153370Y-86451313D01*
X64199881Y-86520921D01*
X64253960Y-86575000D01*
X64199881Y-86629079D01*
X64153370Y-86698687D01*
X64123736Y-86770231D01*
X64053968Y-86741333D01*
X63971859Y-86725000D01*
X63888141Y-86725000D01*
X63806032Y-86741333D01*
X63728687Y-86773370D01*
X63659079Y-86819881D01*
X63599881Y-86879079D01*
X63553370Y-86948687D01*
X63521333Y-87026032D01*
X63505000Y-87108141D01*
X63505000Y-87191859D01*
X63521333Y-87273968D01*
X63553370Y-87351313D01*
X63599881Y-87420921D01*
X63653960Y-87475000D01*
X63599881Y-87529079D01*
X63553370Y-87598687D01*
X63521333Y-87676032D01*
X63505000Y-87758141D01*
X63505000Y-87841859D01*
X63521333Y-87923968D01*
X63553370Y-88001313D01*
X63599881Y-88070921D01*
X63653960Y-88125000D01*
X63599881Y-88179079D01*
X63553370Y-88248687D01*
X63523736Y-88320231D01*
X63453968Y-88291333D01*
X63371859Y-88275000D01*
X63288141Y-88275000D01*
X63206032Y-88291333D01*
X63128687Y-88323370D01*
X63059079Y-88369881D01*
X62999881Y-88429079D01*
X62953370Y-88498687D01*
X62921333Y-88576032D01*
X62905000Y-88658141D01*
X62134452Y-88658141D01*
X62119650Y-88583726D01*
X62040498Y-88392638D01*
X61925589Y-88220664D01*
X61779336Y-88074411D01*
X61607362Y-87959502D01*
X61416274Y-87880350D01*
X61213416Y-87840000D01*
X61006584Y-87840000D01*
X60803726Y-87880350D01*
X60612638Y-87959502D01*
X60440664Y-88074411D01*
X60294411Y-88220664D01*
X60179502Y-88392638D01*
X60100350Y-88583726D01*
X60060000Y-88786584D01*
X59255000Y-88786584D01*
X59255000Y-86246584D01*
X60060000Y-86246584D01*
X60060000Y-86453416D01*
X60100350Y-86656274D01*
X60179502Y-86847362D01*
X60294411Y-87019336D01*
X60440664Y-87165589D01*
X60612638Y-87280498D01*
X60803726Y-87359650D01*
X61006584Y-87400000D01*
X61213416Y-87400000D01*
X61416274Y-87359650D01*
X61607362Y-87280498D01*
X61779336Y-87165589D01*
X61925589Y-87019336D01*
X62040498Y-86847362D01*
X62119650Y-86656274D01*
X62160000Y-86453416D01*
X62160000Y-86246584D01*
X62119650Y-86043726D01*
X62040498Y-85852638D01*
X61925589Y-85680664D01*
X61779336Y-85534411D01*
X61607362Y-85419502D01*
X61416274Y-85340350D01*
X61213416Y-85300000D01*
X61006584Y-85300000D01*
X60803726Y-85340350D01*
X60612638Y-85419502D01*
X60440664Y-85534411D01*
X60294411Y-85680664D01*
X60179502Y-85852638D01*
X60100350Y-86043726D01*
X60060000Y-86246584D01*
X59255000Y-86246584D01*
X59255000Y-83706584D01*
X60060000Y-83706584D01*
X60060000Y-83913416D01*
X60100350Y-84116274D01*
X60179502Y-84307362D01*
X60294411Y-84479336D01*
X60440664Y-84625589D01*
X60612638Y-84740498D01*
X60803726Y-84819650D01*
X61006584Y-84860000D01*
X61213416Y-84860000D01*
X61416274Y-84819650D01*
X61607362Y-84740498D01*
X61779336Y-84625589D01*
X61925589Y-84479336D01*
X62040498Y-84307362D01*
X62119650Y-84116274D01*
X62160000Y-83913416D01*
X62160000Y-83706584D01*
X62119650Y-83503726D01*
X62040498Y-83312638D01*
X61925589Y-83140664D01*
X61779336Y-82994411D01*
X61607362Y-82879502D01*
X61416274Y-82800350D01*
X61213416Y-82760000D01*
X61006584Y-82760000D01*
X60803726Y-82800350D01*
X60612638Y-82879502D01*
X60440664Y-82994411D01*
X60294411Y-83140664D01*
X60179502Y-83312638D01*
X60100350Y-83503726D01*
X60060000Y-83706584D01*
X59255000Y-83706584D01*
X59255000Y-81166584D01*
X60060000Y-81166584D01*
X60060000Y-81373416D01*
X60100350Y-81576274D01*
X60179502Y-81767362D01*
X60294411Y-81939336D01*
X60440664Y-82085589D01*
X60612638Y-82200498D01*
X60803726Y-82279650D01*
X61006584Y-82320000D01*
X61213416Y-82320000D01*
X61416274Y-82279650D01*
X61607362Y-82200498D01*
X61779336Y-82085589D01*
X61925589Y-81939336D01*
X62040498Y-81767362D01*
X62119650Y-81576274D01*
X62160000Y-81373416D01*
X62160000Y-81166584D01*
X62119650Y-80963726D01*
X62040498Y-80772638D01*
X61925589Y-80600664D01*
X61779336Y-80454411D01*
X61607362Y-80339502D01*
X61416274Y-80260350D01*
X61213416Y-80220000D01*
X61006584Y-80220000D01*
X60803726Y-80260350D01*
X60612638Y-80339502D01*
X60440664Y-80454411D01*
X60294411Y-80600664D01*
X60179502Y-80772638D01*
X60100350Y-80963726D01*
X60060000Y-81166584D01*
X59255000Y-81166584D01*
X59255000Y-78626584D01*
X60060000Y-78626584D01*
X60060000Y-78833416D01*
X60100350Y-79036274D01*
X60179502Y-79227362D01*
X60294411Y-79399336D01*
X60440664Y-79545589D01*
X60612638Y-79660498D01*
X60803726Y-79739650D01*
X61006584Y-79780000D01*
X61213416Y-79780000D01*
X61416274Y-79739650D01*
X61607362Y-79660498D01*
X61779336Y-79545589D01*
X61925589Y-79399336D01*
X62040498Y-79227362D01*
X62119650Y-79036274D01*
X62160000Y-78833416D01*
X62160000Y-78626584D01*
X62119650Y-78423726D01*
X62040498Y-78232638D01*
X61925589Y-78060664D01*
X61779336Y-77914411D01*
X61607362Y-77799502D01*
X61416274Y-77720350D01*
X61213416Y-77680000D01*
X61006584Y-77680000D01*
X60803726Y-77720350D01*
X60612638Y-77799502D01*
X60440664Y-77914411D01*
X60294411Y-78060664D01*
X60179502Y-78232638D01*
X60100350Y-78423726D01*
X60060000Y-78626584D01*
X59255000Y-78626584D01*
X59255000Y-76086584D01*
X60060000Y-76086584D01*
X60060000Y-76293416D01*
X60100350Y-76496274D01*
X60179502Y-76687362D01*
X60294411Y-76859336D01*
X60440664Y-77005589D01*
X60612638Y-77120498D01*
X60803726Y-77199650D01*
X61006584Y-77240000D01*
X61213416Y-77240000D01*
X61416274Y-77199650D01*
X61607362Y-77120498D01*
X61779336Y-77005589D01*
X61925589Y-76859336D01*
X62040498Y-76687362D01*
X62119650Y-76496274D01*
X62160000Y-76293416D01*
X62160000Y-76086584D01*
X62119650Y-75883726D01*
X62040498Y-75692638D01*
X61925589Y-75520664D01*
X61779336Y-75374411D01*
X61607362Y-75259502D01*
X61416274Y-75180350D01*
X61213416Y-75140000D01*
X61006584Y-75140000D01*
X60803726Y-75180350D01*
X60612638Y-75259502D01*
X60440664Y-75374411D01*
X60294411Y-75520664D01*
X60179502Y-75692638D01*
X60100350Y-75883726D01*
X60060000Y-76086584D01*
X59255000Y-76086584D01*
X59255000Y-73546584D01*
X60060000Y-73546584D01*
X60060000Y-73753416D01*
X60100350Y-73956274D01*
X60179502Y-74147362D01*
X60294411Y-74319336D01*
X60440664Y-74465589D01*
X60612638Y-74580498D01*
X60803726Y-74659650D01*
X61006584Y-74700000D01*
X61213416Y-74700000D01*
X61416274Y-74659650D01*
X61607362Y-74580498D01*
X61779336Y-74465589D01*
X61925589Y-74319336D01*
X62040498Y-74147362D01*
X62119650Y-73956274D01*
X62160000Y-73753416D01*
X62160000Y-73546584D01*
X62119650Y-73343726D01*
X62040498Y-73152638D01*
X61925589Y-72980664D01*
X61779336Y-72834411D01*
X61607362Y-72719502D01*
X61416274Y-72640350D01*
X61213416Y-72600000D01*
X61006584Y-72600000D01*
X60803726Y-72640350D01*
X60612638Y-72719502D01*
X60440664Y-72834411D01*
X60294411Y-72980664D01*
X60179502Y-73152638D01*
X60100350Y-73343726D01*
X60060000Y-73546584D01*
X59255000Y-73546584D01*
X59255000Y-71006584D01*
X60060000Y-71006584D01*
X60060000Y-71213416D01*
X60100350Y-71416274D01*
X60179502Y-71607362D01*
X60294411Y-71779336D01*
X60440664Y-71925589D01*
X60612638Y-72040498D01*
X60803726Y-72119650D01*
X61006584Y-72160000D01*
X61213416Y-72160000D01*
X61416274Y-72119650D01*
X61607362Y-72040498D01*
X61779336Y-71925589D01*
X61925589Y-71779336D01*
X62040498Y-71607362D01*
X62119650Y-71416274D01*
X62160000Y-71213416D01*
X62160000Y-71006584D01*
X62119650Y-70803726D01*
X62040498Y-70612638D01*
X61925589Y-70440664D01*
X61779336Y-70294411D01*
X61607362Y-70179502D01*
X61416274Y-70100350D01*
X61213416Y-70060000D01*
X61006584Y-70060000D01*
X60803726Y-70100350D01*
X60612638Y-70179502D01*
X60440664Y-70294411D01*
X60294411Y-70440664D01*
X60179502Y-70612638D01*
X60100350Y-70803726D01*
X60060000Y-71006584D01*
X59255000Y-71006584D01*
X59255000Y-68466584D01*
X60060000Y-68466584D01*
X60060000Y-68673416D01*
X60100350Y-68876274D01*
X60179502Y-69067362D01*
X60294411Y-69239336D01*
X60440664Y-69385589D01*
X60612638Y-69500498D01*
X60803726Y-69579650D01*
X61006584Y-69620000D01*
X61213416Y-69620000D01*
X61416274Y-69579650D01*
X61607362Y-69500498D01*
X61779336Y-69385589D01*
X61925589Y-69239336D01*
X62040498Y-69067362D01*
X62119650Y-68876274D01*
X62160000Y-68673416D01*
X62160000Y-68466584D01*
X62119650Y-68263726D01*
X62040498Y-68072638D01*
X61925589Y-67900664D01*
X61924925Y-67900000D01*
X63602945Y-67900000D01*
X63605000Y-67920867D01*
X63605001Y-78179123D01*
X63602945Y-78200000D01*
X63611150Y-78283314D01*
X63635453Y-78363427D01*
X63674917Y-78437260D01*
X63728027Y-78501974D01*
X63744239Y-78515279D01*
X64605000Y-79376040D01*
X64605001Y-81758137D01*
X64605000Y-81758141D01*
X64605000Y-81841859D01*
X64605001Y-81841863D01*
X64605001Y-82037960D01*
X64144243Y-82498719D01*
X64128026Y-82512028D01*
X64074916Y-82576743D01*
X64035452Y-82650576D01*
X64033973Y-82655453D01*
X64014429Y-82719881D01*
X64011150Y-82730689D01*
X64005000Y-82793129D01*
X64005000Y-82793135D01*
X64002945Y-82814002D01*
X64005000Y-82834869D01*
X64005001Y-83529124D01*
X64002945Y-83550000D01*
X64011150Y-83633314D01*
X64033034Y-83705452D01*
X64035453Y-83713427D01*
X64074917Y-83787260D01*
X64128027Y-83851974D01*
X64144239Y-83865279D01*
X64664721Y-84385762D01*
X64678026Y-84401974D01*
X64742740Y-84455084D01*
X64816573Y-84494548D01*
X64872383Y-84511478D01*
X64896685Y-84518850D01*
X64905098Y-84519679D01*
X64959126Y-84525000D01*
X64959132Y-84525000D01*
X64979999Y-84527055D01*
X65000866Y-84525000D01*
X71149179Y-84525000D01*
X71170046Y-84527055D01*
X71190913Y-84525000D01*
X71190920Y-84525000D01*
X71253360Y-84518850D01*
X71333473Y-84494548D01*
X71407306Y-84455084D01*
X71472020Y-84401974D01*
X71485329Y-84385757D01*
X72105000Y-83766087D01*
X72105001Y-99010959D01*
X71447881Y-99668079D01*
X71436219Y-99685532D01*
X71422917Y-99701741D01*
X71413034Y-99720231D01*
X71401370Y-99737687D01*
X71393336Y-99757084D01*
X71383453Y-99775573D01*
X71377366Y-99795639D01*
X71369333Y-99815032D01*
X71365239Y-99835616D01*
X71359150Y-99855686D01*
X71357095Y-99876557D01*
X71353000Y-99897141D01*
X71353000Y-99918133D01*
X71350945Y-99939000D01*
X71353000Y-99959867D01*
X71353000Y-99980859D01*
X71357095Y-100001443D01*
X71359150Y-100022314D01*
X71365239Y-100042384D01*
X71369333Y-100062968D01*
X71377366Y-100082361D01*
X71383453Y-100102427D01*
X71393336Y-100120916D01*
X71401370Y-100140313D01*
X71413034Y-100157769D01*
X71422917Y-100176259D01*
X71436220Y-100192469D01*
X71447881Y-100209921D01*
X71462719Y-100224759D01*
X71476026Y-100240974D01*
X71492240Y-100254280D01*
X71507079Y-100269119D01*
X71524531Y-100280780D01*
X71540741Y-100294083D01*
X71559231Y-100303966D01*
X71576687Y-100315630D01*
X71596084Y-100323664D01*
X71614573Y-100333547D01*
X71634639Y-100339634D01*
X71654032Y-100347667D01*
X71674616Y-100351761D01*
X71694686Y-100357850D01*
X71715557Y-100359905D01*
X71736141Y-100364000D01*
X71757133Y-100364000D01*
X71778000Y-100366055D01*
X71798867Y-100364000D01*
X71819859Y-100364000D01*
X71840443Y-100359905D01*
X71861314Y-100357850D01*
X71881384Y-100351761D01*
X71901968Y-100347667D01*
X71921361Y-100339634D01*
X71941427Y-100333547D01*
X71959916Y-100323664D01*
X71979313Y-100315630D01*
X71996769Y-100303966D01*
X72015259Y-100294083D01*
X72031468Y-100280781D01*
X72048921Y-100269119D01*
X72815756Y-99502284D01*
X72831974Y-99488974D01*
X72885084Y-99424260D01*
X72924548Y-99350427D01*
X72948850Y-99270314D01*
X72955000Y-99207874D01*
X72957056Y-99187000D01*
X72955000Y-99166126D01*
X72955000Y-86108141D01*
X73180000Y-86108141D01*
X73180000Y-86191859D01*
X73196333Y-86273968D01*
X73228370Y-86351313D01*
X73274881Y-86420921D01*
X73334079Y-86480119D01*
X73382540Y-86512500D01*
X73334079Y-86544881D01*
X73274881Y-86604079D01*
X73228370Y-86673687D01*
X73196333Y-86751032D01*
X73180000Y-86833141D01*
X73180000Y-86916859D01*
X73196333Y-86998968D01*
X73228370Y-87076313D01*
X73274881Y-87145921D01*
X73334079Y-87205119D01*
X73403687Y-87251630D01*
X73481032Y-87283667D01*
X73563141Y-87300000D01*
X73646859Y-87300000D01*
X73728968Y-87283667D01*
X73806313Y-87251630D01*
X73875921Y-87205119D01*
X73935119Y-87145921D01*
X73981630Y-87076313D01*
X74013667Y-86998968D01*
X74030000Y-86916859D01*
X74030000Y-86833141D01*
X74013667Y-86751032D01*
X73981630Y-86673687D01*
X73935119Y-86604079D01*
X73875921Y-86544881D01*
X73827460Y-86512500D01*
X73875921Y-86480119D01*
X73935119Y-86420921D01*
X73981630Y-86351313D01*
X74013667Y-86273968D01*
X74030000Y-86191859D01*
X74030000Y-86108141D01*
X74013667Y-86026032D01*
X73981630Y-85948687D01*
X73935119Y-85879079D01*
X73875921Y-85819881D01*
X73806313Y-85773370D01*
X73728968Y-85741333D01*
X73646859Y-85725000D01*
X73563141Y-85725000D01*
X73481032Y-85741333D01*
X73403687Y-85773370D01*
X73334079Y-85819881D01*
X73274881Y-85879079D01*
X73228370Y-85948687D01*
X73196333Y-86026032D01*
X73180000Y-86108141D01*
X72955000Y-86108141D01*
X72955000Y-77178755D01*
X72999879Y-77245921D01*
X73059077Y-77305119D01*
X73128685Y-77351630D01*
X73206030Y-77383667D01*
X73288139Y-77400000D01*
X73371857Y-77400000D01*
X73453966Y-77383667D01*
X73531311Y-77351630D01*
X73600919Y-77305119D01*
X73660117Y-77245921D01*
X73706628Y-77176313D01*
X73738665Y-77098968D01*
X73754998Y-77016859D01*
X73754998Y-76933141D01*
X73738665Y-76851032D01*
X73706628Y-76773687D01*
X73660117Y-76704079D01*
X73600919Y-76644881D01*
X73531311Y-76598370D01*
X73453966Y-76566333D01*
X73371857Y-76550000D01*
X73288139Y-76550000D01*
X73206030Y-76566333D01*
X73128685Y-76598370D01*
X73059077Y-76644881D01*
X72999879Y-76704079D01*
X72955000Y-76771245D01*
X72955000Y-75933141D01*
X73030000Y-75933141D01*
X73030000Y-76016859D01*
X73046333Y-76098968D01*
X73078370Y-76176313D01*
X73124881Y-76245921D01*
X73184079Y-76305119D01*
X73253687Y-76351630D01*
X73331032Y-76383667D01*
X73413141Y-76400000D01*
X73496859Y-76400000D01*
X73578968Y-76383667D01*
X73656313Y-76351630D01*
X73725921Y-76305119D01*
X73785119Y-76245921D01*
X73831630Y-76176313D01*
X73863667Y-76098968D01*
X73880000Y-76016859D01*
X73880000Y-75933141D01*
X73863667Y-75851032D01*
X73831630Y-75773687D01*
X73785119Y-75704079D01*
X73725921Y-75644881D01*
X73656313Y-75598370D01*
X73578968Y-75566333D01*
X73496859Y-75550000D01*
X73413141Y-75550000D01*
X73331032Y-75566333D01*
X73253687Y-75598370D01*
X73184079Y-75644881D01*
X73124881Y-75704079D01*
X73078370Y-75773687D01*
X73046333Y-75851032D01*
X73030000Y-75933141D01*
X72955000Y-75933141D01*
X72955000Y-72020867D01*
X72957055Y-72000000D01*
X72955000Y-71979133D01*
X72955000Y-71979126D01*
X72948850Y-71916686D01*
X72924548Y-71836573D01*
X72885084Y-71762740D01*
X72831974Y-71698026D01*
X72815758Y-71684718D01*
X71433001Y-70301961D01*
X71433001Y-57498868D01*
X71435056Y-57478001D01*
X71433001Y-57457134D01*
X71433001Y-57457127D01*
X71426851Y-57394687D01*
X71402549Y-57314574D01*
X71363085Y-57240741D01*
X71309975Y-57176027D01*
X71293759Y-57162719D01*
X65835995Y-51704955D01*
X65805971Y-51648784D01*
X65749737Y-51580263D01*
X65681216Y-51524029D01*
X65603040Y-51482243D01*
X65523586Y-51458141D01*
X71705000Y-51458141D01*
X71705000Y-51541859D01*
X71721333Y-51623968D01*
X71753370Y-51701313D01*
X71799881Y-51770921D01*
X71859079Y-51830119D01*
X71928687Y-51876630D01*
X72006032Y-51908667D01*
X72088141Y-51925000D01*
X72166999Y-51925000D01*
X72167000Y-54775000D01*
X72088141Y-54775000D01*
X72006032Y-54791333D01*
X71928687Y-54823370D01*
X71859079Y-54869881D01*
X71799881Y-54929079D01*
X71753370Y-54998687D01*
X71721333Y-55076032D01*
X71705000Y-55158141D01*
X71705000Y-55241859D01*
X71721333Y-55323968D01*
X71753370Y-55401313D01*
X71799881Y-55470921D01*
X71859079Y-55530119D01*
X71928687Y-55576630D01*
X72006032Y-55608667D01*
X72088141Y-55625000D01*
X72166999Y-55625000D01*
X72167000Y-60728602D01*
X72166999Y-60728611D01*
X72163612Y-60763001D01*
X72166999Y-60797388D01*
X72167000Y-69282602D01*
X72163612Y-69316999D01*
X72177128Y-69454222D01*
X72217154Y-69586173D01*
X72282154Y-69707780D01*
X72347707Y-69787656D01*
X72369630Y-69814369D01*
X72396341Y-69836290D01*
X74130000Y-71569950D01*
X74130001Y-103075601D01*
X74130000Y-103075611D01*
X74130001Y-104410050D01*
X73971418Y-104568633D01*
X73795610Y-104568633D01*
X73791884Y-104569000D01*
X73578105Y-104569000D01*
X73556000Y-104566823D01*
X73533896Y-104569000D01*
X73533895Y-104569000D01*
X73467785Y-104575511D01*
X73382959Y-104601243D01*
X73304784Y-104643029D01*
X73236263Y-104699263D01*
X73180029Y-104767784D01*
X73138243Y-104845959D01*
X73112511Y-104930785D01*
X73103823Y-105019000D01*
X73106001Y-105041114D01*
X73106000Y-105549104D01*
X73112511Y-105615214D01*
X73138243Y-105700040D01*
X73180029Y-105778215D01*
X73236263Y-105846737D01*
X73304784Y-105902971D01*
X73382959Y-105944757D01*
X73467785Y-105970489D01*
X73556000Y-105979177D01*
X73644214Y-105970489D01*
X73688248Y-105957131D01*
X73692776Y-105958505D01*
X73795610Y-105968633D01*
X74226980Y-105968633D01*
X74261367Y-105972020D01*
X74295754Y-105968633D01*
X74295757Y-105968633D01*
X74398591Y-105958505D01*
X74530542Y-105918478D01*
X74652148Y-105853478D01*
X74758737Y-105766003D01*
X74780663Y-105739286D01*
X75249292Y-105270657D01*
X75272445Y-105242446D01*
X75327370Y-105197370D01*
X75414845Y-105090781D01*
X75479845Y-104969175D01*
X75519872Y-104837224D01*
X75524992Y-104785239D01*
X75534411Y-104799336D01*
X75680664Y-104945589D01*
X75852638Y-105060498D01*
X76043726Y-105139650D01*
X76246584Y-105180000D01*
X76453416Y-105180000D01*
X76656274Y-105139650D01*
X76847362Y-105060498D01*
X77019336Y-104945589D01*
X77165589Y-104799336D01*
X77280498Y-104627362D01*
X77359650Y-104436274D01*
X77400000Y-104233416D01*
X77400000Y-104026584D01*
X77359650Y-103823726D01*
X77280498Y-103632638D01*
X77165589Y-103460664D01*
X77019336Y-103314411D01*
X76847362Y-103199502D01*
X76656274Y-103120350D01*
X76453416Y-103080000D01*
X76246584Y-103080000D01*
X76043726Y-103120350D01*
X75852638Y-103199502D01*
X75680664Y-103314411D01*
X75534411Y-103460664D01*
X75530000Y-103467266D01*
X75530000Y-102252734D01*
X75534411Y-102259336D01*
X75680664Y-102405589D01*
X75852638Y-102520498D01*
X76043726Y-102599650D01*
X76246584Y-102640000D01*
X76453416Y-102640000D01*
X76656274Y-102599650D01*
X76847362Y-102520498D01*
X77019336Y-102405589D01*
X77165589Y-102259336D01*
X77280498Y-102087362D01*
X77359650Y-101896274D01*
X77400000Y-101693416D01*
X77400000Y-101486584D01*
X77359650Y-101283726D01*
X77280498Y-101092638D01*
X77165589Y-100920664D01*
X77019336Y-100774411D01*
X76847362Y-100659502D01*
X76656274Y-100580350D01*
X76453416Y-100540000D01*
X76246584Y-100540000D01*
X76043726Y-100580350D01*
X75852638Y-100659502D01*
X75680664Y-100774411D01*
X75534411Y-100920664D01*
X75530000Y-100927266D01*
X75530000Y-99712734D01*
X75534411Y-99719336D01*
X75680664Y-99865589D01*
X75852638Y-99980498D01*
X76043726Y-100059650D01*
X76246584Y-100100000D01*
X76453416Y-100100000D01*
X76656274Y-100059650D01*
X76847362Y-99980498D01*
X77019336Y-99865589D01*
X77165589Y-99719336D01*
X77280498Y-99547362D01*
X77359650Y-99356274D01*
X77400000Y-99153416D01*
X77400000Y-98946584D01*
X77359650Y-98743726D01*
X77280498Y-98552638D01*
X77165589Y-98380664D01*
X77019336Y-98234411D01*
X76847362Y-98119502D01*
X76656274Y-98040350D01*
X76453416Y-98000000D01*
X76246584Y-98000000D01*
X76043726Y-98040350D01*
X75852638Y-98119502D01*
X75680664Y-98234411D01*
X75534411Y-98380664D01*
X75530000Y-98387266D01*
X75530000Y-97172734D01*
X75534411Y-97179336D01*
X75680664Y-97325589D01*
X75852638Y-97440498D01*
X76043726Y-97519650D01*
X76246584Y-97560000D01*
X76453416Y-97560000D01*
X76656274Y-97519650D01*
X76847362Y-97440498D01*
X77019336Y-97325589D01*
X77165589Y-97179336D01*
X77280498Y-97007362D01*
X77359650Y-96816274D01*
X77400000Y-96613416D01*
X77400000Y-96406584D01*
X77359650Y-96203726D01*
X77280498Y-96012638D01*
X77165589Y-95840664D01*
X77019336Y-95694411D01*
X76847362Y-95579502D01*
X76656274Y-95500350D01*
X76453416Y-95460000D01*
X76246584Y-95460000D01*
X76043726Y-95500350D01*
X75852638Y-95579502D01*
X75680664Y-95694411D01*
X75534411Y-95840664D01*
X75530000Y-95847266D01*
X75530000Y-94632734D01*
X75534411Y-94639336D01*
X75680664Y-94785589D01*
X75852638Y-94900498D01*
X76043726Y-94979650D01*
X76246584Y-95020000D01*
X76453416Y-95020000D01*
X76656274Y-94979650D01*
X76847362Y-94900498D01*
X77019336Y-94785589D01*
X77165589Y-94639336D01*
X77280498Y-94467362D01*
X77359650Y-94276274D01*
X77400000Y-94073416D01*
X77400000Y-93866584D01*
X77359650Y-93663726D01*
X77280498Y-93472638D01*
X77165589Y-93300664D01*
X77019336Y-93154411D01*
X76847362Y-93039502D01*
X76656274Y-92960350D01*
X76453416Y-92920000D01*
X76246584Y-92920000D01*
X76043726Y-92960350D01*
X75852638Y-93039502D01*
X75680664Y-93154411D01*
X75534411Y-93300664D01*
X75530000Y-93307266D01*
X75530000Y-92092734D01*
X75534411Y-92099336D01*
X75680664Y-92245589D01*
X75852638Y-92360498D01*
X76043726Y-92439650D01*
X76246584Y-92480000D01*
X76453416Y-92480000D01*
X76656274Y-92439650D01*
X76847362Y-92360498D01*
X77019336Y-92245589D01*
X77165589Y-92099336D01*
X77280498Y-91927362D01*
X77359650Y-91736274D01*
X77400000Y-91533416D01*
X77400000Y-91326584D01*
X77359650Y-91123726D01*
X77280498Y-90932638D01*
X77165589Y-90760664D01*
X77019336Y-90614411D01*
X76847362Y-90499502D01*
X76656274Y-90420350D01*
X76453416Y-90380000D01*
X76246584Y-90380000D01*
X76043726Y-90420350D01*
X75852638Y-90499502D01*
X75680664Y-90614411D01*
X75534411Y-90760664D01*
X75530000Y-90767266D01*
X75530000Y-89552734D01*
X75534411Y-89559336D01*
X75680664Y-89705589D01*
X75852638Y-89820498D01*
X76043726Y-89899650D01*
X76246584Y-89940000D01*
X76453416Y-89940000D01*
X76656274Y-89899650D01*
X76847362Y-89820498D01*
X77019336Y-89705589D01*
X77165589Y-89559336D01*
X77280498Y-89387362D01*
X77359650Y-89196274D01*
X77400000Y-88993416D01*
X77400000Y-88786584D01*
X77359650Y-88583726D01*
X77280498Y-88392638D01*
X77165589Y-88220664D01*
X77019336Y-88074411D01*
X76847362Y-87959502D01*
X76656274Y-87880350D01*
X76453416Y-87840000D01*
X76246584Y-87840000D01*
X76043726Y-87880350D01*
X75852638Y-87959502D01*
X75680664Y-88074411D01*
X75534411Y-88220664D01*
X75530000Y-88227266D01*
X75530000Y-87012734D01*
X75534411Y-87019336D01*
X75680664Y-87165589D01*
X75852638Y-87280498D01*
X76043726Y-87359650D01*
X76246584Y-87400000D01*
X76453416Y-87400000D01*
X76656274Y-87359650D01*
X76847362Y-87280498D01*
X77019336Y-87165589D01*
X77165589Y-87019336D01*
X77280498Y-86847362D01*
X77359650Y-86656274D01*
X77400000Y-86453416D01*
X77400000Y-86246584D01*
X77359650Y-86043726D01*
X77280498Y-85852638D01*
X77165589Y-85680664D01*
X77019336Y-85534411D01*
X76847362Y-85419502D01*
X76656274Y-85340350D01*
X76453416Y-85300000D01*
X76246584Y-85300000D01*
X76043726Y-85340350D01*
X75852638Y-85419502D01*
X75680664Y-85534411D01*
X75534411Y-85680664D01*
X75530000Y-85687266D01*
X75530000Y-84472734D01*
X75534411Y-84479336D01*
X75680664Y-84625589D01*
X75852638Y-84740498D01*
X76043726Y-84819650D01*
X76246584Y-84860000D01*
X76453416Y-84860000D01*
X76656274Y-84819650D01*
X76847362Y-84740498D01*
X77019336Y-84625589D01*
X77165589Y-84479336D01*
X77280498Y-84307362D01*
X77359650Y-84116274D01*
X77400000Y-83913416D01*
X77400000Y-83706584D01*
X77359650Y-83503726D01*
X77280498Y-83312638D01*
X77165589Y-83140664D01*
X77019336Y-82994411D01*
X76847362Y-82879502D01*
X76656274Y-82800350D01*
X76453416Y-82760000D01*
X76246584Y-82760000D01*
X76043726Y-82800350D01*
X75852638Y-82879502D01*
X75680664Y-82994411D01*
X75534411Y-83140664D01*
X75530000Y-83147266D01*
X75530000Y-81932734D01*
X75534411Y-81939336D01*
X75680664Y-82085589D01*
X75852638Y-82200498D01*
X76043726Y-82279650D01*
X76246584Y-82320000D01*
X76453416Y-82320000D01*
X76656274Y-82279650D01*
X76847362Y-82200498D01*
X77019336Y-82085589D01*
X77165589Y-81939336D01*
X77280498Y-81767362D01*
X77359650Y-81576274D01*
X77400000Y-81373416D01*
X77400000Y-81166584D01*
X77359650Y-80963726D01*
X77280498Y-80772638D01*
X77165589Y-80600664D01*
X77019336Y-80454411D01*
X76847362Y-80339502D01*
X76656274Y-80260350D01*
X76453416Y-80220000D01*
X76246584Y-80220000D01*
X76043726Y-80260350D01*
X75852638Y-80339502D01*
X75680664Y-80454411D01*
X75534411Y-80600664D01*
X75530000Y-80607266D01*
X75530000Y-79392734D01*
X75534411Y-79399336D01*
X75680664Y-79545589D01*
X75852638Y-79660498D01*
X76043726Y-79739650D01*
X76246584Y-79780000D01*
X76453416Y-79780000D01*
X76656274Y-79739650D01*
X76847362Y-79660498D01*
X77019336Y-79545589D01*
X77165589Y-79399336D01*
X77280498Y-79227362D01*
X77359650Y-79036274D01*
X77400000Y-78833416D01*
X77400000Y-78626584D01*
X77359650Y-78423726D01*
X77280498Y-78232638D01*
X77165589Y-78060664D01*
X77019336Y-77914411D01*
X76847362Y-77799502D01*
X76656274Y-77720350D01*
X76453416Y-77680000D01*
X76246584Y-77680000D01*
X76043726Y-77720350D01*
X75852638Y-77799502D01*
X75680664Y-77914411D01*
X75534411Y-78060664D01*
X75530000Y-78067266D01*
X75530000Y-76852734D01*
X75534411Y-76859336D01*
X75680664Y-77005589D01*
X75852638Y-77120498D01*
X76043726Y-77199650D01*
X76246584Y-77240000D01*
X76453416Y-77240000D01*
X76656274Y-77199650D01*
X76847362Y-77120498D01*
X77019336Y-77005589D01*
X77165589Y-76859336D01*
X77280498Y-76687362D01*
X77359650Y-76496274D01*
X77400000Y-76293416D01*
X77400000Y-76086584D01*
X77359650Y-75883726D01*
X77280498Y-75692638D01*
X77165589Y-75520664D01*
X77019336Y-75374411D01*
X76847362Y-75259502D01*
X76656274Y-75180350D01*
X76453416Y-75140000D01*
X76246584Y-75140000D01*
X76043726Y-75180350D01*
X75852638Y-75259502D01*
X75680664Y-75374411D01*
X75534411Y-75520664D01*
X75530000Y-75527266D01*
X75530000Y-74312734D01*
X75534411Y-74319336D01*
X75680664Y-74465589D01*
X75852638Y-74580498D01*
X76043726Y-74659650D01*
X76246584Y-74700000D01*
X76453416Y-74700000D01*
X76656274Y-74659650D01*
X76847362Y-74580498D01*
X77019336Y-74465589D01*
X77165589Y-74319336D01*
X77280498Y-74147362D01*
X77359650Y-73956274D01*
X77400000Y-73753416D01*
X77400000Y-73546584D01*
X77359650Y-73343726D01*
X77280498Y-73152638D01*
X77165589Y-72980664D01*
X77019336Y-72834411D01*
X76847362Y-72719502D01*
X76656274Y-72640350D01*
X76453416Y-72600000D01*
X76246584Y-72600000D01*
X76043726Y-72640350D01*
X75852638Y-72719502D01*
X75680664Y-72834411D01*
X75534411Y-72980664D01*
X75530000Y-72987266D01*
X75530000Y-71772734D01*
X75534411Y-71779336D01*
X75680664Y-71925589D01*
X75852638Y-72040498D01*
X76043726Y-72119650D01*
X76246584Y-72160000D01*
X76453416Y-72160000D01*
X76656274Y-72119650D01*
X76847362Y-72040498D01*
X77019336Y-71925589D01*
X77165589Y-71779336D01*
X77280498Y-71607362D01*
X77359650Y-71416274D01*
X77400000Y-71213416D01*
X77400000Y-71006584D01*
X77359650Y-70803726D01*
X77280498Y-70612638D01*
X77165589Y-70440664D01*
X77019336Y-70294411D01*
X76847362Y-70179502D01*
X76656274Y-70100350D01*
X76453416Y-70060000D01*
X76246584Y-70060000D01*
X76043726Y-70100350D01*
X75852638Y-70179502D01*
X75680664Y-70294411D01*
X75534411Y-70440664D01*
X75419502Y-70612638D01*
X75341803Y-70800218D01*
X75327369Y-70782630D01*
X75300663Y-70760713D01*
X73566999Y-69027050D01*
X73566999Y-68466584D01*
X75300000Y-68466584D01*
X75300000Y-68673416D01*
X75340350Y-68876274D01*
X75419502Y-69067362D01*
X75534411Y-69239336D01*
X75680664Y-69385589D01*
X75852638Y-69500498D01*
X76043726Y-69579650D01*
X76246584Y-69620000D01*
X76453416Y-69620000D01*
X76656274Y-69579650D01*
X76847362Y-69500498D01*
X77019336Y-69385589D01*
X77165589Y-69239336D01*
X77280498Y-69067362D01*
X77359650Y-68876274D01*
X77400000Y-68673416D01*
X77400000Y-68466584D01*
X77359650Y-68263726D01*
X77280498Y-68072638D01*
X77165589Y-67900664D01*
X77019336Y-67754411D01*
X76847362Y-67639502D01*
X76656274Y-67560350D01*
X76453416Y-67520000D01*
X76246584Y-67520000D01*
X76043726Y-67560350D01*
X75852638Y-67639502D01*
X75680664Y-67754411D01*
X75534411Y-67900664D01*
X75419502Y-68072638D01*
X75340350Y-68263726D01*
X75300000Y-68466584D01*
X73566999Y-68466584D01*
X73566999Y-68125000D01*
X73759133Y-68125000D01*
X73780000Y-68127055D01*
X73800867Y-68125000D01*
X73821859Y-68125000D01*
X73842441Y-68120906D01*
X73863314Y-68118850D01*
X73883387Y-68112761D01*
X73903968Y-68108667D01*
X73923355Y-68100637D01*
X73943427Y-68094548D01*
X73961926Y-68084660D01*
X73981313Y-68076630D01*
X73998759Y-68064973D01*
X74017260Y-68055084D01*
X74033478Y-68041774D01*
X74050921Y-68030119D01*
X74065756Y-68015284D01*
X74081974Y-68001974D01*
X74095284Y-67985756D01*
X74115756Y-67965284D01*
X74131974Y-67951974D01*
X74185084Y-67887260D01*
X74224548Y-67813427D01*
X74248850Y-67733314D01*
X74255000Y-67670874D01*
X74255000Y-67670866D01*
X74257055Y-67650000D01*
X74255000Y-67629133D01*
X74255000Y-67270874D01*
X74257056Y-67250000D01*
X74255000Y-67229126D01*
X74255000Y-67208141D01*
X74250906Y-67187559D01*
X74248850Y-67166686D01*
X74242761Y-67146613D01*
X74238667Y-67126032D01*
X74230637Y-67106645D01*
X74224548Y-67086573D01*
X74214660Y-67068074D01*
X74206630Y-67048687D01*
X74194973Y-67031241D01*
X74185084Y-67012740D01*
X74171774Y-66996522D01*
X74160119Y-66979079D01*
X74145284Y-66964244D01*
X74131974Y-66948026D01*
X74115756Y-66934716D01*
X74100921Y-66919881D01*
X74083478Y-66908226D01*
X74067260Y-66894916D01*
X74048759Y-66885027D01*
X74031313Y-66873370D01*
X74011926Y-66865340D01*
X73993427Y-66855452D01*
X73973355Y-66849363D01*
X73953968Y-66841333D01*
X73933387Y-66837239D01*
X73913314Y-66831150D01*
X73892441Y-66829094D01*
X73871859Y-66825000D01*
X73850874Y-66825000D01*
X73830000Y-66822944D01*
X73809126Y-66825000D01*
X73566999Y-66825000D01*
X73566999Y-65926584D01*
X75300000Y-65926584D01*
X75300000Y-66133416D01*
X75340350Y-66336274D01*
X75419502Y-66527362D01*
X75534411Y-66699336D01*
X75680664Y-66845589D01*
X75852638Y-66960498D01*
X76043726Y-67039650D01*
X76246584Y-67080000D01*
X76453416Y-67080000D01*
X76656274Y-67039650D01*
X76847362Y-66960498D01*
X77019336Y-66845589D01*
X77165589Y-66699336D01*
X77280498Y-66527362D01*
X77359650Y-66336274D01*
X77400000Y-66133416D01*
X77400000Y-65926584D01*
X77359650Y-65723726D01*
X77280498Y-65532638D01*
X77165589Y-65360664D01*
X77019336Y-65214411D01*
X76847362Y-65099502D01*
X76656274Y-65020350D01*
X76453416Y-64980000D01*
X76246584Y-64980000D01*
X76043726Y-65020350D01*
X75852638Y-65099502D01*
X75680664Y-65214411D01*
X75534411Y-65360664D01*
X75419502Y-65532638D01*
X75340350Y-65723726D01*
X75300000Y-65926584D01*
X73566999Y-65926584D01*
X73566999Y-64375000D01*
X73759133Y-64375000D01*
X73780000Y-64377055D01*
X73800867Y-64375000D01*
X73821859Y-64375000D01*
X73842441Y-64370906D01*
X73863314Y-64368850D01*
X73883387Y-64362761D01*
X73903968Y-64358667D01*
X73923355Y-64350637D01*
X73943427Y-64344548D01*
X73961926Y-64334660D01*
X73981313Y-64326630D01*
X73998759Y-64314973D01*
X74017260Y-64305084D01*
X74033478Y-64291774D01*
X74050921Y-64280119D01*
X74065756Y-64265284D01*
X74081974Y-64251974D01*
X74095284Y-64235756D01*
X74115756Y-64215284D01*
X74131974Y-64201974D01*
X74185084Y-64137260D01*
X74224548Y-64063427D01*
X74248850Y-63983314D01*
X74255000Y-63920874D01*
X74255000Y-63920866D01*
X74257055Y-63900000D01*
X74255000Y-63879133D01*
X74255000Y-63520874D01*
X74257056Y-63500000D01*
X74255000Y-63479126D01*
X74255000Y-63458141D01*
X74250906Y-63437559D01*
X74248850Y-63416686D01*
X74242761Y-63396613D01*
X74240767Y-63386584D01*
X75300000Y-63386584D01*
X75300000Y-63593416D01*
X75340350Y-63796274D01*
X75419502Y-63987362D01*
X75534411Y-64159336D01*
X75680664Y-64305589D01*
X75852638Y-64420498D01*
X76043726Y-64499650D01*
X76246584Y-64540000D01*
X76453416Y-64540000D01*
X76656274Y-64499650D01*
X76847362Y-64420498D01*
X77019336Y-64305589D01*
X77165589Y-64159336D01*
X77280498Y-63987362D01*
X77359650Y-63796274D01*
X77400000Y-63593416D01*
X77400000Y-63386584D01*
X77359650Y-63183726D01*
X77280498Y-62992638D01*
X77165589Y-62820664D01*
X77019336Y-62674411D01*
X76847362Y-62559502D01*
X76656274Y-62480350D01*
X76453416Y-62440000D01*
X76246584Y-62440000D01*
X76043726Y-62480350D01*
X75852638Y-62559502D01*
X75680664Y-62674411D01*
X75534411Y-62820664D01*
X75419502Y-62992638D01*
X75340350Y-63183726D01*
X75300000Y-63386584D01*
X74240767Y-63386584D01*
X74238667Y-63376032D01*
X74230637Y-63356645D01*
X74224548Y-63336573D01*
X74214660Y-63318074D01*
X74206630Y-63298687D01*
X74194973Y-63281241D01*
X74185084Y-63262740D01*
X74171774Y-63246522D01*
X74160119Y-63229079D01*
X74145284Y-63214244D01*
X74131974Y-63198026D01*
X74115756Y-63184716D01*
X74100921Y-63169881D01*
X74083478Y-63158226D01*
X74067260Y-63144916D01*
X74048759Y-63135027D01*
X74031313Y-63123370D01*
X74011926Y-63115340D01*
X73993427Y-63105452D01*
X73973355Y-63099363D01*
X73953968Y-63091333D01*
X73933387Y-63087239D01*
X73913314Y-63081150D01*
X73892441Y-63079094D01*
X73871859Y-63075000D01*
X73850874Y-63075000D01*
X73830000Y-63072944D01*
X73809126Y-63075000D01*
X73566999Y-63075000D01*
X73566999Y-61650000D01*
X75565075Y-61650000D01*
X75680664Y-61765589D01*
X75852638Y-61880498D01*
X76043726Y-61959650D01*
X76246584Y-62000000D01*
X76453416Y-62000000D01*
X76656274Y-61959650D01*
X76847362Y-61880498D01*
X77019336Y-61765589D01*
X77165589Y-61619336D01*
X77280498Y-61447362D01*
X77359650Y-61256274D01*
X77400000Y-61053416D01*
X77400000Y-60846584D01*
X77359650Y-60643726D01*
X77280498Y-60452638D01*
X77165589Y-60280664D01*
X77019336Y-60134411D01*
X76847362Y-60019502D01*
X76656274Y-59940350D01*
X76453416Y-59900000D01*
X76246584Y-59900000D01*
X76043726Y-59940350D01*
X75852638Y-60019502D01*
X75680664Y-60134411D01*
X75565075Y-60250000D01*
X73566999Y-60250000D01*
X73566999Y-58306584D01*
X75300000Y-58306584D01*
X75300000Y-58513416D01*
X75340350Y-58716274D01*
X75419502Y-58907362D01*
X75534411Y-59079336D01*
X75680664Y-59225589D01*
X75852638Y-59340498D01*
X76043726Y-59419650D01*
X76246584Y-59460000D01*
X76453416Y-59460000D01*
X76656274Y-59419650D01*
X76847362Y-59340498D01*
X77019336Y-59225589D01*
X77165589Y-59079336D01*
X77280498Y-58907362D01*
X77359650Y-58716274D01*
X77400000Y-58513416D01*
X77400000Y-58306584D01*
X77359650Y-58103726D01*
X77280498Y-57912638D01*
X77165589Y-57740664D01*
X77019336Y-57594411D01*
X76847362Y-57479502D01*
X76656274Y-57400350D01*
X76453416Y-57360000D01*
X76246584Y-57360000D01*
X76043726Y-57400350D01*
X75852638Y-57479502D01*
X75680664Y-57594411D01*
X75534411Y-57740664D01*
X75419502Y-57912638D01*
X75340350Y-58103726D01*
X75300000Y-58306584D01*
X73566999Y-58306584D01*
X73566999Y-57825000D01*
X73759133Y-57825000D01*
X73780000Y-57827055D01*
X73800867Y-57825000D01*
X73821859Y-57825000D01*
X73842441Y-57820906D01*
X73863314Y-57818850D01*
X73883387Y-57812761D01*
X73903968Y-57808667D01*
X73923355Y-57800637D01*
X73943427Y-57794548D01*
X73961926Y-57784660D01*
X73981313Y-57776630D01*
X73998759Y-57764973D01*
X74017260Y-57755084D01*
X74033478Y-57741774D01*
X74050921Y-57730119D01*
X74065756Y-57715284D01*
X74081974Y-57701974D01*
X74095284Y-57685756D01*
X74115756Y-57665284D01*
X74131974Y-57651974D01*
X74185084Y-57587260D01*
X74224548Y-57513427D01*
X74248850Y-57433314D01*
X74255000Y-57370874D01*
X74255000Y-57370866D01*
X74257055Y-57350000D01*
X74255000Y-57329133D01*
X74255000Y-56970874D01*
X74257056Y-56950000D01*
X74255000Y-56929126D01*
X74255000Y-56908141D01*
X74250906Y-56887559D01*
X74248850Y-56866686D01*
X74242761Y-56846613D01*
X74238667Y-56826032D01*
X74230637Y-56806645D01*
X74224548Y-56786573D01*
X74214660Y-56768074D01*
X74206630Y-56748687D01*
X74194973Y-56731241D01*
X74185084Y-56712740D01*
X74171774Y-56696522D01*
X74160119Y-56679079D01*
X74145284Y-56664244D01*
X74131974Y-56648026D01*
X74115756Y-56634716D01*
X74100921Y-56619881D01*
X74083478Y-56608226D01*
X74067260Y-56594916D01*
X74048759Y-56585027D01*
X74031313Y-56573370D01*
X74011926Y-56565340D01*
X73993427Y-56555452D01*
X73973355Y-56549363D01*
X73953968Y-56541333D01*
X73933387Y-56537239D01*
X73913314Y-56531150D01*
X73892441Y-56529094D01*
X73871859Y-56525000D01*
X73850874Y-56525000D01*
X73830000Y-56522944D01*
X73809126Y-56525000D01*
X73566999Y-56525000D01*
X73566999Y-55766584D01*
X75300000Y-55766584D01*
X75300000Y-55973416D01*
X75340350Y-56176274D01*
X75419502Y-56367362D01*
X75534411Y-56539336D01*
X75680664Y-56685589D01*
X75852638Y-56800498D01*
X76043726Y-56879650D01*
X76246584Y-56920000D01*
X76453416Y-56920000D01*
X76656274Y-56879650D01*
X76847362Y-56800498D01*
X77019336Y-56685589D01*
X77165589Y-56539336D01*
X77280498Y-56367362D01*
X77359650Y-56176274D01*
X77400000Y-55973416D01*
X77400000Y-55766584D01*
X77359650Y-55563726D01*
X77280498Y-55372638D01*
X77165589Y-55200664D01*
X77019336Y-55054411D01*
X76847362Y-54939502D01*
X76656274Y-54860350D01*
X76453416Y-54820000D01*
X76246584Y-54820000D01*
X76043726Y-54860350D01*
X75852638Y-54939502D01*
X75680664Y-55054411D01*
X75534411Y-55200664D01*
X75419502Y-55372638D01*
X75340350Y-55563726D01*
X75300000Y-55766584D01*
X73566999Y-55766584D01*
X73566999Y-54075000D01*
X73759133Y-54075000D01*
X73780000Y-54077055D01*
X73800867Y-54075000D01*
X73821859Y-54075000D01*
X73842441Y-54070906D01*
X73863314Y-54068850D01*
X73883387Y-54062761D01*
X73903968Y-54058667D01*
X73923355Y-54050637D01*
X73943427Y-54044548D01*
X73961926Y-54034660D01*
X73981313Y-54026630D01*
X73998759Y-54014973D01*
X74017260Y-54005084D01*
X74033478Y-53991774D01*
X74050921Y-53980119D01*
X74065756Y-53965284D01*
X74081974Y-53951974D01*
X74095284Y-53935756D01*
X74115756Y-53915284D01*
X74131974Y-53901974D01*
X74185084Y-53837260D01*
X74224548Y-53763427D01*
X74248850Y-53683314D01*
X74255000Y-53620874D01*
X74255000Y-53620866D01*
X74257055Y-53600000D01*
X74255000Y-53579133D01*
X74255000Y-53226584D01*
X75300000Y-53226584D01*
X75300000Y-53433416D01*
X75340350Y-53636274D01*
X75419502Y-53827362D01*
X75534411Y-53999336D01*
X75680664Y-54145589D01*
X75852638Y-54260498D01*
X76043726Y-54339650D01*
X76246584Y-54380000D01*
X76453416Y-54380000D01*
X76656274Y-54339650D01*
X76847362Y-54260498D01*
X77019336Y-54145589D01*
X77165589Y-53999336D01*
X77280498Y-53827362D01*
X77359650Y-53636274D01*
X77400000Y-53433416D01*
X77400000Y-53226584D01*
X77359650Y-53023726D01*
X77280498Y-52832638D01*
X77165589Y-52660664D01*
X77019336Y-52514411D01*
X76847362Y-52399502D01*
X76656274Y-52320350D01*
X76453416Y-52280000D01*
X76246584Y-52280000D01*
X76043726Y-52320350D01*
X75852638Y-52399502D01*
X75680664Y-52514411D01*
X75534411Y-52660664D01*
X75419502Y-52832638D01*
X75340350Y-53023726D01*
X75300000Y-53226584D01*
X74255000Y-53226584D01*
X74255000Y-53220874D01*
X74257056Y-53200000D01*
X74255000Y-53179126D01*
X74255000Y-53158141D01*
X74250906Y-53137559D01*
X74248850Y-53116686D01*
X74242761Y-53096613D01*
X74238667Y-53076032D01*
X74230637Y-53056645D01*
X74224548Y-53036573D01*
X74214660Y-53018074D01*
X74206630Y-52998687D01*
X74194973Y-52981241D01*
X74185084Y-52962740D01*
X74171774Y-52946522D01*
X74160119Y-52929079D01*
X74145284Y-52914244D01*
X74131974Y-52898026D01*
X74115756Y-52884716D01*
X74100921Y-52869881D01*
X74083478Y-52858226D01*
X74067260Y-52844916D01*
X74048759Y-52835027D01*
X74031313Y-52823370D01*
X74011926Y-52815340D01*
X73993427Y-52805452D01*
X73973355Y-52799363D01*
X73953968Y-52791333D01*
X73933387Y-52787239D01*
X73913314Y-52781150D01*
X73892441Y-52779094D01*
X73871859Y-52775000D01*
X73850874Y-52775000D01*
X73830000Y-52772944D01*
X73809126Y-52775000D01*
X73566999Y-52775000D01*
X73566999Y-50686584D01*
X75300000Y-50686584D01*
X75300000Y-50893416D01*
X75340350Y-51096274D01*
X75419502Y-51287362D01*
X75534411Y-51459336D01*
X75680664Y-51605589D01*
X75852638Y-51720498D01*
X76043726Y-51799650D01*
X76246584Y-51840000D01*
X76453416Y-51840000D01*
X76656274Y-51799650D01*
X76847362Y-51720498D01*
X77019336Y-51605589D01*
X77165589Y-51459336D01*
X77280498Y-51287362D01*
X77359650Y-51096274D01*
X77400000Y-50893416D01*
X77400000Y-50686584D01*
X77359650Y-50483726D01*
X77280498Y-50292638D01*
X77165589Y-50120664D01*
X77019336Y-49974411D01*
X76847362Y-49859502D01*
X76656274Y-49780350D01*
X76453416Y-49740000D01*
X76246584Y-49740000D01*
X76043726Y-49780350D01*
X75852638Y-49859502D01*
X75680664Y-49974411D01*
X75534411Y-50120664D01*
X75419502Y-50292638D01*
X75340350Y-50483726D01*
X75300000Y-50686584D01*
X73566999Y-50686584D01*
X73566999Y-49482950D01*
X74420778Y-48629171D01*
X75260071Y-48629171D01*
X75311181Y-48752588D01*
X75429192Y-48945594D01*
X75582589Y-49111869D01*
X75765477Y-49245023D01*
X75970828Y-49339939D01*
X76146000Y-49309836D01*
X76146000Y-48454000D01*
X76554000Y-48454000D01*
X76554000Y-49309836D01*
X76729172Y-49339939D01*
X76934523Y-49245023D01*
X77117411Y-49111869D01*
X77270808Y-48945594D01*
X77388819Y-48752588D01*
X77439929Y-48629171D01*
X77408522Y-48454000D01*
X76554000Y-48454000D01*
X76146000Y-48454000D01*
X75291478Y-48454000D01*
X75260071Y-48629171D01*
X74420778Y-48629171D01*
X75324783Y-47725166D01*
X75311181Y-47747412D01*
X75260071Y-47870829D01*
X75291478Y-48046000D01*
X76146000Y-48046000D01*
X76146000Y-47190164D01*
X76554000Y-47190164D01*
X76554000Y-48046000D01*
X77408522Y-48046000D01*
X77439929Y-47870829D01*
X77388819Y-47747412D01*
X77270808Y-47554406D01*
X77117411Y-47388131D01*
X76934523Y-47254977D01*
X76729172Y-47160061D01*
X76554000Y-47190164D01*
X76146000Y-47190164D01*
X75970828Y-47160061D01*
X75820322Y-47229627D01*
X76288982Y-46760967D01*
X77200000Y-46760967D01*
X77239207Y-46757105D01*
X77276907Y-46745669D01*
X77311651Y-46727098D01*
X77342105Y-46702105D01*
X77367098Y-46671651D01*
X77385669Y-46636907D01*
X77397105Y-46599207D01*
X77400967Y-46560000D01*
X77400967Y-44860000D01*
X77397105Y-44820793D01*
X77385669Y-44783093D01*
X77367098Y-44748349D01*
X77342105Y-44717895D01*
X77311651Y-44692902D01*
X77276907Y-44674331D01*
X77239207Y-44662895D01*
X77200000Y-44659033D01*
X75500000Y-44659033D01*
X75460793Y-44662895D01*
X75423093Y-44674331D01*
X75388349Y-44692902D01*
X75357895Y-44717895D01*
X75332902Y-44748349D01*
X75314331Y-44783093D01*
X75302895Y-44820793D01*
X75299033Y-44860000D01*
X75299033Y-45771018D01*
X72396342Y-48673709D01*
X72369629Y-48695632D01*
X72347708Y-48722343D01*
X72347707Y-48722344D01*
X72282154Y-48802220D01*
X72219554Y-48919336D01*
X72217154Y-48923827D01*
X72177127Y-49055778D01*
X72171603Y-49111869D01*
X72163612Y-49193001D01*
X72166999Y-49227388D01*
X72167000Y-51075000D01*
X72088141Y-51075000D01*
X72006032Y-51091333D01*
X71928687Y-51123370D01*
X71859079Y-51169881D01*
X71799881Y-51229079D01*
X71753370Y-51298687D01*
X71721333Y-51376032D01*
X71705000Y-51458141D01*
X65523586Y-51458141D01*
X65518215Y-51456512D01*
X65429999Y-51447824D01*
X65341784Y-51456512D01*
X65256959Y-51482243D01*
X65178783Y-51524029D01*
X65127433Y-51566172D01*
X64943605Y-51750000D01*
X64907895Y-51750000D01*
X64841785Y-51756511D01*
X64756959Y-51782243D01*
X64678784Y-51824029D01*
X64610263Y-51880263D01*
X64554029Y-51948784D01*
X64512243Y-52026959D01*
X64486511Y-52111785D01*
X64477823Y-52200000D01*
X64486511Y-52288215D01*
X64512243Y-52373041D01*
X64554029Y-52451216D01*
X64610263Y-52519737D01*
X64678784Y-52575971D01*
X64756959Y-52617757D01*
X64841785Y-52643489D01*
X64907895Y-52650000D01*
X65107906Y-52650000D01*
X65130000Y-52652176D01*
X65152094Y-52650000D01*
X65152105Y-52650000D01*
X65218215Y-52643489D01*
X65303041Y-52617757D01*
X65381216Y-52575971D01*
X65449166Y-52520206D01*
X70583001Y-57654041D01*
X70583001Y-61324498D01*
X70581313Y-61323370D01*
X70503968Y-61291333D01*
X70421859Y-61275000D01*
X70338141Y-61275000D01*
X70256032Y-61291333D01*
X70178687Y-61323370D01*
X70109079Y-61369881D01*
X70049881Y-61429079D01*
X70003370Y-61498687D01*
X69971333Y-61576032D01*
X69955000Y-61658141D01*
X69955000Y-61741859D01*
X69971333Y-61823968D01*
X70003370Y-61901313D01*
X70049881Y-61970921D01*
X70109079Y-62030119D01*
X70178687Y-62076630D01*
X70256032Y-62108667D01*
X70338141Y-62125000D01*
X70421859Y-62125000D01*
X70503968Y-62108667D01*
X70581313Y-62076630D01*
X70583001Y-62075502D01*
X70583002Y-65074498D01*
X70581313Y-65073370D01*
X70503968Y-65041333D01*
X70421859Y-65025000D01*
X70338141Y-65025000D01*
X70256032Y-65041333D01*
X70178687Y-65073370D01*
X70109079Y-65119881D01*
X70049881Y-65179079D01*
X70003370Y-65248687D01*
X69971333Y-65326032D01*
X69955000Y-65408141D01*
X69955000Y-65491859D01*
X69971333Y-65573968D01*
X70003370Y-65651313D01*
X70049881Y-65720921D01*
X70109079Y-65780119D01*
X70178687Y-65826630D01*
X70256032Y-65858667D01*
X70338141Y-65875000D01*
X70421859Y-65875000D01*
X70503968Y-65858667D01*
X70581313Y-65826630D01*
X70583002Y-65825502D01*
X70583002Y-70457124D01*
X70580946Y-70478001D01*
X70589151Y-70561315D01*
X70604752Y-70612741D01*
X70613454Y-70641428D01*
X70652918Y-70715261D01*
X70706028Y-70779975D01*
X70722240Y-70793280D01*
X72105000Y-72176040D01*
X72105000Y-72873959D01*
X69655000Y-70423960D01*
X69655000Y-60020867D01*
X69657055Y-60000000D01*
X69655000Y-59979133D01*
X69655000Y-59979126D01*
X69648850Y-59916686D01*
X69624548Y-59836573D01*
X69585084Y-59762740D01*
X69531974Y-59698026D01*
X69515763Y-59684722D01*
X67155000Y-57323960D01*
X67155000Y-56958141D01*
X67150906Y-56937559D01*
X67148850Y-56916686D01*
X67142761Y-56896613D01*
X67138667Y-56876032D01*
X67130637Y-56856645D01*
X67124548Y-56836573D01*
X67114660Y-56818074D01*
X67106630Y-56798687D01*
X67094973Y-56781241D01*
X67085084Y-56762740D01*
X67071774Y-56746522D01*
X67060119Y-56729079D01*
X67045284Y-56714244D01*
X67031974Y-56698026D01*
X67015756Y-56684716D01*
X67000921Y-56669881D01*
X66983478Y-56658226D01*
X66967260Y-56644916D01*
X66948759Y-56635027D01*
X66931313Y-56623370D01*
X66911926Y-56615340D01*
X66893427Y-56605452D01*
X66873355Y-56599363D01*
X66853968Y-56591333D01*
X66833387Y-56587239D01*
X66813314Y-56581150D01*
X66792441Y-56579094D01*
X66771859Y-56575000D01*
X66750874Y-56575000D01*
X66730000Y-56572944D01*
X66709126Y-56575000D01*
X66688141Y-56575000D01*
X66667559Y-56579094D01*
X66646687Y-56581150D01*
X66626616Y-56587238D01*
X66606032Y-56591333D01*
X66586643Y-56599364D01*
X66566574Y-56605452D01*
X66548079Y-56615338D01*
X66528687Y-56623370D01*
X66511237Y-56635030D01*
X66492741Y-56644916D01*
X66476528Y-56658222D01*
X66459079Y-56669881D01*
X66444239Y-56684721D01*
X66428027Y-56698026D01*
X66414722Y-56714238D01*
X66399881Y-56729079D01*
X66388221Y-56746529D01*
X66374917Y-56762740D01*
X66365032Y-56781234D01*
X66353370Y-56798687D01*
X66345336Y-56818083D01*
X66335453Y-56836573D01*
X66329367Y-56856636D01*
X66321333Y-56876032D01*
X66317237Y-56896623D01*
X66311151Y-56916686D01*
X66309096Y-56937549D01*
X66305000Y-56958141D01*
X66305000Y-57041859D01*
X66305001Y-57041863D01*
X66305000Y-57458140D01*
X66305000Y-57479133D01*
X66302945Y-57500000D01*
X66305000Y-57520867D01*
X66305000Y-57541859D01*
X66309095Y-57562443D01*
X66311150Y-57583314D01*
X66316610Y-57601313D01*
X66317238Y-57603384D01*
X66321333Y-57623968D01*
X66329364Y-57643357D01*
X66335452Y-57663426D01*
X66345338Y-57681921D01*
X66353370Y-57701313D01*
X66365030Y-57718763D01*
X66374916Y-57737259D01*
X66388223Y-57753474D01*
X66399881Y-57770921D01*
X66414718Y-57785758D01*
X66428026Y-57801974D01*
X66444243Y-57815283D01*
X68805000Y-60176041D01*
X68805001Y-70579123D01*
X68802945Y-70600000D01*
X68811150Y-70683314D01*
X68831528Y-70750488D01*
X68755000Y-70673960D01*
X68755000Y-60370867D01*
X68757055Y-60350000D01*
X68755000Y-60329133D01*
X68755000Y-60329126D01*
X68748850Y-60266686D01*
X68724548Y-60186573D01*
X68685084Y-60112740D01*
X68631974Y-60048026D01*
X68615758Y-60034718D01*
X65905000Y-57323960D01*
X65905000Y-53399160D01*
X65923487Y-53338216D01*
X65932176Y-53250001D01*
X65923487Y-53161786D01*
X65897756Y-53076960D01*
X65855971Y-52998784D01*
X65799737Y-52930263D01*
X65731216Y-52874029D01*
X65653040Y-52832244D01*
X65568214Y-52806513D01*
X65479999Y-52797824D01*
X65391784Y-52806513D01*
X65306959Y-52832244D01*
X65228784Y-52874029D01*
X65177433Y-52916172D01*
X65043605Y-53050000D01*
X64957895Y-53050000D01*
X64891785Y-53056511D01*
X64806959Y-53082243D01*
X64728784Y-53124029D01*
X64660263Y-53180263D01*
X64604029Y-53248784D01*
X64562243Y-53326959D01*
X64536511Y-53411785D01*
X64527823Y-53500000D01*
X64536511Y-53588215D01*
X64562243Y-53673041D01*
X64604029Y-53751216D01*
X64660263Y-53819737D01*
X64728784Y-53875971D01*
X64806959Y-53917757D01*
X64891785Y-53943489D01*
X64957895Y-53950000D01*
X65055000Y-53950000D01*
X65055001Y-57323958D01*
X63794239Y-58584721D01*
X63778027Y-58598026D01*
X63724917Y-58662740D01*
X63696303Y-58716274D01*
X63685453Y-58736573D01*
X63661150Y-58816686D01*
X63652945Y-58900000D01*
X63655001Y-58920877D01*
X63655000Y-62479133D01*
X63652945Y-62500000D01*
X63655000Y-62520867D01*
X63655000Y-62520873D01*
X63661150Y-62583313D01*
X63685452Y-62663426D01*
X63724916Y-62737259D01*
X63778026Y-62801974D01*
X63794243Y-62815283D01*
X65655001Y-64676042D01*
X65655001Y-66110017D01*
X65603040Y-66082244D01*
X65518214Y-66056513D01*
X65429999Y-66047824D01*
X65341784Y-66056513D01*
X65256959Y-66082244D01*
X65178784Y-66124029D01*
X65127433Y-66166172D01*
X64993605Y-66300000D01*
X64907895Y-66300000D01*
X64841785Y-66306511D01*
X64756959Y-66332243D01*
X64678784Y-66374029D01*
X64610263Y-66430263D01*
X64554029Y-66498784D01*
X64512243Y-66576959D01*
X64486511Y-66661785D01*
X64477823Y-66750000D01*
X64486511Y-66838215D01*
X64487496Y-66841463D01*
X63744243Y-67584717D01*
X63728026Y-67598026D01*
X63674916Y-67662741D01*
X63635452Y-67736574D01*
X63611150Y-67816687D01*
X63605000Y-67879127D01*
X63605000Y-67879133D01*
X63602945Y-67900000D01*
X61924925Y-67900000D01*
X61779336Y-67754411D01*
X61607362Y-67639502D01*
X61416274Y-67560350D01*
X61213416Y-67520000D01*
X61006584Y-67520000D01*
X60803726Y-67560350D01*
X60612638Y-67639502D01*
X60440664Y-67754411D01*
X60294411Y-67900664D01*
X60179502Y-68072638D01*
X60100350Y-68263726D01*
X60060000Y-68466584D01*
X59255000Y-68466584D01*
X59255000Y-65926584D01*
X60060000Y-65926584D01*
X60060000Y-66133416D01*
X60100350Y-66336274D01*
X60179502Y-66527362D01*
X60294411Y-66699336D01*
X60440664Y-66845589D01*
X60612638Y-66960498D01*
X60803726Y-67039650D01*
X61006584Y-67080000D01*
X61213416Y-67080000D01*
X61416274Y-67039650D01*
X61607362Y-66960498D01*
X61779336Y-66845589D01*
X61925589Y-66699336D01*
X62040498Y-66527362D01*
X62119650Y-66336274D01*
X62160000Y-66133416D01*
X62160000Y-65926584D01*
X62119650Y-65723726D01*
X62040498Y-65532638D01*
X61925589Y-65360664D01*
X61779336Y-65214411D01*
X61607362Y-65099502D01*
X61416274Y-65020350D01*
X61213416Y-64980000D01*
X61006584Y-64980000D01*
X60803726Y-65020350D01*
X60612638Y-65099502D01*
X60440664Y-65214411D01*
X60294411Y-65360664D01*
X60179502Y-65532638D01*
X60100350Y-65723726D01*
X60060000Y-65926584D01*
X59255000Y-65926584D01*
X59255000Y-63386584D01*
X60060000Y-63386584D01*
X60060000Y-63593416D01*
X60100350Y-63796274D01*
X60179502Y-63987362D01*
X60294411Y-64159336D01*
X60440664Y-64305589D01*
X60612638Y-64420498D01*
X60803726Y-64499650D01*
X61006584Y-64540000D01*
X61213416Y-64540000D01*
X61416274Y-64499650D01*
X61607362Y-64420498D01*
X61779336Y-64305589D01*
X61925589Y-64159336D01*
X62040498Y-63987362D01*
X62119650Y-63796274D01*
X62160000Y-63593416D01*
X62160000Y-63386584D01*
X62119650Y-63183726D01*
X62040498Y-62992638D01*
X61925589Y-62820664D01*
X61779336Y-62674411D01*
X61607362Y-62559502D01*
X61416274Y-62480350D01*
X61213416Y-62440000D01*
X61006584Y-62440000D01*
X60803726Y-62480350D01*
X60612638Y-62559502D01*
X60440664Y-62674411D01*
X60294411Y-62820664D01*
X60179502Y-62992638D01*
X60100350Y-63183726D01*
X60060000Y-63386584D01*
X59255000Y-63386584D01*
X59255000Y-60846584D01*
X60060000Y-60846584D01*
X60060000Y-61053416D01*
X60100350Y-61256274D01*
X60179502Y-61447362D01*
X60294411Y-61619336D01*
X60440664Y-61765589D01*
X60612638Y-61880498D01*
X60803726Y-61959650D01*
X61006584Y-62000000D01*
X61213416Y-62000000D01*
X61416274Y-61959650D01*
X61607362Y-61880498D01*
X61779336Y-61765589D01*
X61925589Y-61619336D01*
X62040498Y-61447362D01*
X62119650Y-61256274D01*
X62160000Y-61053416D01*
X62160000Y-60846584D01*
X62119650Y-60643726D01*
X62040498Y-60452638D01*
X61925589Y-60280664D01*
X61779336Y-60134411D01*
X61607362Y-60019502D01*
X61416274Y-59940350D01*
X61213416Y-59900000D01*
X61006584Y-59900000D01*
X60803726Y-59940350D01*
X60612638Y-60019502D01*
X60440664Y-60134411D01*
X60294411Y-60280664D01*
X60179502Y-60452638D01*
X60100350Y-60643726D01*
X60060000Y-60846584D01*
X59255000Y-60846584D01*
X59255000Y-58306584D01*
X60060000Y-58306584D01*
X60060000Y-58513416D01*
X60100350Y-58716274D01*
X60179502Y-58907362D01*
X60294411Y-59079336D01*
X60440664Y-59225589D01*
X60612638Y-59340498D01*
X60803726Y-59419650D01*
X61006584Y-59460000D01*
X61213416Y-59460000D01*
X61416274Y-59419650D01*
X61607362Y-59340498D01*
X61779336Y-59225589D01*
X61925589Y-59079336D01*
X62040498Y-58907362D01*
X62119650Y-58716274D01*
X62160000Y-58513416D01*
X62160000Y-58306584D01*
X62119650Y-58103726D01*
X62040498Y-57912638D01*
X61925589Y-57740664D01*
X61779336Y-57594411D01*
X61607362Y-57479502D01*
X61416274Y-57400350D01*
X61213416Y-57360000D01*
X61006584Y-57360000D01*
X60803726Y-57400350D01*
X60612638Y-57479502D01*
X60440664Y-57594411D01*
X60294411Y-57740664D01*
X60179502Y-57912638D01*
X60100350Y-58103726D01*
X60060000Y-58306584D01*
X59255000Y-58306584D01*
X59255000Y-55766584D01*
X60060000Y-55766584D01*
X60060000Y-55973416D01*
X60100350Y-56176274D01*
X60179502Y-56367362D01*
X60294411Y-56539336D01*
X60440664Y-56685589D01*
X60612638Y-56800498D01*
X60803726Y-56879650D01*
X61006584Y-56920000D01*
X61213416Y-56920000D01*
X61416274Y-56879650D01*
X61607362Y-56800498D01*
X61779336Y-56685589D01*
X61925589Y-56539336D01*
X62040498Y-56367362D01*
X62119650Y-56176274D01*
X62160000Y-55973416D01*
X62160000Y-55766584D01*
X62119650Y-55563726D01*
X62040498Y-55372638D01*
X61925589Y-55200664D01*
X61779336Y-55054411D01*
X61607362Y-54939502D01*
X61416274Y-54860350D01*
X61213416Y-54820000D01*
X61006584Y-54820000D01*
X60803726Y-54860350D01*
X60612638Y-54939502D01*
X60440664Y-55054411D01*
X60294411Y-55200664D01*
X60179502Y-55372638D01*
X60100350Y-55563726D01*
X60060000Y-55766584D01*
X59255000Y-55766584D01*
X59255000Y-53226584D01*
X60060000Y-53226584D01*
X60060000Y-53433416D01*
X60100350Y-53636274D01*
X60179502Y-53827362D01*
X60294411Y-53999336D01*
X60440664Y-54145589D01*
X60612638Y-54260498D01*
X60803726Y-54339650D01*
X61006584Y-54380000D01*
X61213416Y-54380000D01*
X61416274Y-54339650D01*
X61607362Y-54260498D01*
X61779336Y-54145589D01*
X61925589Y-53999336D01*
X62040498Y-53827362D01*
X62119650Y-53636274D01*
X62160000Y-53433416D01*
X62160000Y-53226584D01*
X62119650Y-53023726D01*
X62040498Y-52832638D01*
X61925589Y-52660664D01*
X61779336Y-52514411D01*
X61607362Y-52399502D01*
X61416274Y-52320350D01*
X61213416Y-52280000D01*
X61006584Y-52280000D01*
X60803726Y-52320350D01*
X60612638Y-52399502D01*
X60440664Y-52514411D01*
X60294411Y-52660664D01*
X60179502Y-52832638D01*
X60100350Y-53023726D01*
X60060000Y-53226584D01*
X59255000Y-53226584D01*
X59255000Y-50686584D01*
X60060000Y-50686584D01*
X60060000Y-50893416D01*
X60100350Y-51096274D01*
X60179502Y-51287362D01*
X60294411Y-51459336D01*
X60440664Y-51605589D01*
X60612638Y-51720498D01*
X60803726Y-51799650D01*
X61006584Y-51840000D01*
X61213416Y-51840000D01*
X61416274Y-51799650D01*
X61607362Y-51720498D01*
X61779336Y-51605589D01*
X61925589Y-51459336D01*
X62040498Y-51287362D01*
X62119650Y-51096274D01*
X62160000Y-50893416D01*
X62160000Y-50686584D01*
X62119650Y-50483726D01*
X62040498Y-50292638D01*
X61925589Y-50120664D01*
X61779336Y-49974411D01*
X61607362Y-49859502D01*
X61416274Y-49780350D01*
X61213416Y-49740000D01*
X61006584Y-49740000D01*
X60803726Y-49780350D01*
X60612638Y-49859502D01*
X60440664Y-49974411D01*
X60294411Y-50120664D01*
X60179502Y-50292638D01*
X60100350Y-50483726D01*
X60060000Y-50686584D01*
X59255000Y-50686584D01*
X59255000Y-48146584D01*
X60060000Y-48146584D01*
X60060000Y-48353416D01*
X60100350Y-48556274D01*
X60179502Y-48747362D01*
X60294411Y-48919336D01*
X60440664Y-49065589D01*
X60612638Y-49180498D01*
X60803726Y-49259650D01*
X61006584Y-49300000D01*
X61213416Y-49300000D01*
X61416274Y-49259650D01*
X61607362Y-49180498D01*
X61779336Y-49065589D01*
X61925589Y-48919336D01*
X62040498Y-48747362D01*
X62119650Y-48556274D01*
X62160000Y-48353416D01*
X62160000Y-48146584D01*
X62119650Y-47943726D01*
X62040498Y-47752638D01*
X61925589Y-47580664D01*
X61779336Y-47434411D01*
X61607362Y-47319502D01*
X61416274Y-47240350D01*
X61213416Y-47200000D01*
X61006584Y-47200000D01*
X60803726Y-47240350D01*
X60612638Y-47319502D01*
X60440664Y-47434411D01*
X60294411Y-47580664D01*
X60179502Y-47752638D01*
X60100350Y-47943726D01*
X60060000Y-48146584D01*
X59255000Y-48146584D01*
X59255000Y-44860000D01*
X60059033Y-44860000D01*
X60059033Y-46560000D01*
X60062895Y-46599207D01*
X60074331Y-46636907D01*
X60092902Y-46671651D01*
X60117895Y-46702105D01*
X60148349Y-46727098D01*
X60183093Y-46745669D01*
X60220793Y-46757105D01*
X60260000Y-46760967D01*
X61960000Y-46760967D01*
X61999207Y-46757105D01*
X62036907Y-46745669D01*
X62071651Y-46727098D01*
X62102105Y-46702105D01*
X62127098Y-46671651D01*
X62145669Y-46636907D01*
X62157105Y-46599207D01*
X62160967Y-46560000D01*
X62160967Y-44860000D01*
X62157105Y-44820793D01*
X62145669Y-44783093D01*
X62127098Y-44748349D01*
X62102105Y-44717895D01*
X62071651Y-44692902D01*
X62036907Y-44674331D01*
X61999207Y-44662895D01*
X61960000Y-44659033D01*
X60260000Y-44659033D01*
X60220793Y-44662895D01*
X60183093Y-44674331D01*
X60148349Y-44692902D01*
X60117895Y-44717895D01*
X60092902Y-44748349D01*
X60074331Y-44783093D01*
X60062895Y-44820793D01*
X60059033Y-44860000D01*
X59255000Y-44860000D01*
X59255000Y-43855000D01*
X78205000Y-43855000D01*
X78205000Y-111065000D01*
G37*
%TD.AperFunction*%
X67911150Y-70933314D02*
X67929726Y-70994548D01*
X67935453Y-71013427D01*
X67974917Y-71087260D01*
X68028027Y-71151974D01*
X68044239Y-71165279D01*
X70705001Y-73826042D01*
X70705000Y-74508141D01*
X70705000Y-74591859D01*
X70709094Y-74612442D01*
X70711150Y-74633313D01*
X70717238Y-74653384D01*
X70721333Y-74673968D01*
X70729364Y-74693357D01*
X70735452Y-74713426D01*
X70745338Y-74731921D01*
X70753370Y-74751313D01*
X70765030Y-74768763D01*
X70774916Y-74787259D01*
X70788223Y-74803474D01*
X70799881Y-74820921D01*
X70814718Y-74835758D01*
X70828026Y-74851974D01*
X70844244Y-74865284D01*
X70859079Y-74880119D01*
X70876522Y-74891774D01*
X70892740Y-74905084D01*
X70911241Y-74914973D01*
X70928687Y-74926630D01*
X70948074Y-74934660D01*
X70966573Y-74944548D01*
X70986645Y-74950637D01*
X71006032Y-74958667D01*
X71026613Y-74962761D01*
X71046686Y-74968850D01*
X71067559Y-74970906D01*
X71088141Y-74975000D01*
X71109126Y-74975000D01*
X71130000Y-74977056D01*
X71150874Y-74975000D01*
X71171859Y-74975000D01*
X71192441Y-74970906D01*
X71198667Y-74970293D01*
X71123960Y-75045000D01*
X70887821Y-75045000D01*
X70878968Y-75041333D01*
X70796859Y-75025000D01*
X70713141Y-75025000D01*
X70631032Y-75041333D01*
X70553687Y-75073370D01*
X70484079Y-75119881D01*
X70424881Y-75179079D01*
X70378370Y-75248687D01*
X70346333Y-75326032D01*
X70330000Y-75408141D01*
X70330000Y-75491859D01*
X70346333Y-75573968D01*
X70378370Y-75651313D01*
X70424881Y-75720921D01*
X70484079Y-75780119D01*
X70553687Y-75826630D01*
X70562331Y-75830210D01*
X70626573Y-75864548D01*
X70706686Y-75888850D01*
X70769126Y-75895000D01*
X71279133Y-75895000D01*
X71300000Y-75897055D01*
X71320867Y-75895000D01*
X71320874Y-75895000D01*
X71383314Y-75888850D01*
X71463427Y-75864548D01*
X71537260Y-75825084D01*
X71601974Y-75771974D01*
X71615283Y-75755757D01*
X72105000Y-75266041D01*
X72105001Y-78336638D01*
X72093427Y-78330452D01*
X72073355Y-78324363D01*
X72053968Y-78316333D01*
X72033387Y-78312239D01*
X72013314Y-78306150D01*
X71992441Y-78304094D01*
X71971859Y-78300000D01*
X71950874Y-78300000D01*
X71930000Y-78297944D01*
X71909126Y-78300000D01*
X71888141Y-78300000D01*
X71867559Y-78304094D01*
X71846687Y-78306150D01*
X71826616Y-78312238D01*
X71806032Y-78316333D01*
X71786643Y-78324364D01*
X71766574Y-78330452D01*
X71748079Y-78340338D01*
X71728687Y-78348370D01*
X71711237Y-78360030D01*
X71692741Y-78369916D01*
X71676528Y-78383222D01*
X71659079Y-78394881D01*
X71644239Y-78409721D01*
X71628027Y-78423026D01*
X71614722Y-78439238D01*
X71599881Y-78454079D01*
X71588221Y-78471529D01*
X71574917Y-78487740D01*
X71565032Y-78506234D01*
X71553370Y-78523687D01*
X71545336Y-78543083D01*
X71535453Y-78561573D01*
X71529367Y-78581636D01*
X71521333Y-78601032D01*
X71517237Y-78621623D01*
X71511151Y-78641686D01*
X71509096Y-78662549D01*
X71505000Y-78683141D01*
X71505000Y-78766859D01*
X71505001Y-78766864D01*
X71505001Y-79030903D01*
X71456313Y-78998370D01*
X71378968Y-78966333D01*
X71296859Y-78950000D01*
X71213141Y-78950000D01*
X71131032Y-78966333D01*
X71053687Y-78998370D01*
X70984079Y-79044881D01*
X70924881Y-79104079D01*
X70878370Y-79173687D01*
X70846333Y-79251032D01*
X70830000Y-79333141D01*
X70830000Y-79416859D01*
X70846333Y-79498968D01*
X70878370Y-79576313D01*
X70924881Y-79645921D01*
X70984079Y-79705119D01*
X71053687Y-79751630D01*
X71131032Y-79783667D01*
X71213141Y-79800000D01*
X71296859Y-79800000D01*
X71378968Y-79783667D01*
X71456313Y-79751630D01*
X71505001Y-79719098D01*
X71505000Y-82641761D01*
X71503968Y-82641333D01*
X71483387Y-82637239D01*
X71463314Y-82631150D01*
X71442441Y-82629094D01*
X71421859Y-82625000D01*
X71075866Y-82625000D01*
X71054999Y-82622945D01*
X71034132Y-82625000D01*
X71034126Y-82625000D01*
X70980098Y-82630321D01*
X70971685Y-82631150D01*
X70947383Y-82638522D01*
X70891573Y-82655452D01*
X70817740Y-82694916D01*
X70753026Y-82748026D01*
X70739716Y-82764244D01*
X70628960Y-82875000D01*
X67786040Y-82875000D01*
X67595000Y-82683960D01*
X67595000Y-77260867D01*
X67597055Y-77240000D01*
X67595000Y-77219133D01*
X67595000Y-77219126D01*
X67588850Y-77156686D01*
X67579862Y-77127056D01*
X67564548Y-77076572D01*
X67541425Y-77033313D01*
X67525084Y-77002740D01*
X67471974Y-76938026D01*
X67455763Y-76924722D01*
X67264182Y-76733141D01*
X69555000Y-76733141D01*
X69555000Y-76816859D01*
X69571333Y-76898968D01*
X69603370Y-76976313D01*
X69649881Y-77045921D01*
X69709079Y-77105119D01*
X69778687Y-77151630D01*
X69856032Y-77183667D01*
X69938141Y-77200000D01*
X70021859Y-77200000D01*
X70103968Y-77183667D01*
X70181313Y-77151630D01*
X70250921Y-77105119D01*
X70310119Y-77045921D01*
X70356630Y-76976313D01*
X70388667Y-76898968D01*
X70405000Y-76816859D01*
X70405000Y-76733141D01*
X70388667Y-76651032D01*
X70356630Y-76573687D01*
X70310119Y-76504079D01*
X70250921Y-76444881D01*
X70181313Y-76398370D01*
X70103968Y-76366333D01*
X70021859Y-76350000D01*
X69938141Y-76350000D01*
X69856032Y-76366333D01*
X69778687Y-76398370D01*
X69709079Y-76444881D01*
X69649881Y-76504079D01*
X69603370Y-76573687D01*
X69571333Y-76651032D01*
X69555000Y-76733141D01*
X67264182Y-76733141D01*
X67025000Y-76493960D01*
X67025000Y-76190757D01*
X67078687Y-76226630D01*
X67156032Y-76258667D01*
X67238141Y-76275000D01*
X67321859Y-76275000D01*
X67403968Y-76258667D01*
X67481313Y-76226630D01*
X67550921Y-76180119D01*
X67610119Y-76120921D01*
X67656630Y-76051313D01*
X67688667Y-75973968D01*
X67695183Y-75941213D01*
X67734089Y-75980119D01*
X67803697Y-76026630D01*
X67881042Y-76058667D01*
X67963151Y-76075000D01*
X68046869Y-76075000D01*
X68128978Y-76058667D01*
X68206323Y-76026630D01*
X68275931Y-75980119D01*
X68335129Y-75920921D01*
X68381640Y-75851313D01*
X68413677Y-75773968D01*
X68430010Y-75691859D01*
X68430010Y-75641182D01*
X68449881Y-75670921D01*
X68509079Y-75730119D01*
X68578687Y-75776630D01*
X68656032Y-75808667D01*
X68738141Y-75825000D01*
X68821859Y-75825000D01*
X68903968Y-75808667D01*
X68981313Y-75776630D01*
X69050921Y-75730119D01*
X69110119Y-75670921D01*
X69156630Y-75601313D01*
X69188667Y-75523968D01*
X69205000Y-75441859D01*
X69205000Y-75358141D01*
X69188667Y-75276032D01*
X69156630Y-75198687D01*
X69110119Y-75129079D01*
X69050921Y-75069881D01*
X68981313Y-75023370D01*
X68903968Y-74991333D01*
X68821859Y-74975000D01*
X68738141Y-74975000D01*
X68656032Y-74991333D01*
X68578687Y-75023370D01*
X68509079Y-75069881D01*
X68449881Y-75129079D01*
X68403370Y-75198687D01*
X68371333Y-75276032D01*
X68355000Y-75358141D01*
X68355000Y-75408818D01*
X68335129Y-75379079D01*
X68275931Y-75319881D01*
X68206323Y-75273370D01*
X68128978Y-75241333D01*
X68046869Y-75225000D01*
X67963151Y-75225000D01*
X67881042Y-75241333D01*
X67803697Y-75273370D01*
X67734089Y-75319881D01*
X67674891Y-75379079D01*
X67628380Y-75448687D01*
X67596343Y-75526032D01*
X67589827Y-75558787D01*
X67550921Y-75519881D01*
X67481313Y-75473370D01*
X67403968Y-75441333D01*
X67321859Y-75425000D01*
X67238141Y-75425000D01*
X67156032Y-75441333D01*
X67078687Y-75473370D01*
X67025000Y-75509243D01*
X67025000Y-73170042D01*
X67765762Y-72429281D01*
X67781974Y-72415976D01*
X67835084Y-72351262D01*
X67874548Y-72277429D01*
X67898850Y-72197316D01*
X67905000Y-72134876D01*
X67905000Y-72134869D01*
X67907055Y-72114002D01*
X67905000Y-72093135D01*
X67905000Y-70870867D01*
X67911150Y-70933314D01*
%TA.AperFunction,Conductor*%
G36*
X67911150Y-70933314D02*
G01*
X67929726Y-70994548D01*
X67935453Y-71013427D01*
X67974917Y-71087260D01*
X68028027Y-71151974D01*
X68044239Y-71165279D01*
X70705001Y-73826042D01*
X70705000Y-74508141D01*
X70705000Y-74591859D01*
X70709094Y-74612442D01*
X70711150Y-74633313D01*
X70717238Y-74653384D01*
X70721333Y-74673968D01*
X70729364Y-74693357D01*
X70735452Y-74713426D01*
X70745338Y-74731921D01*
X70753370Y-74751313D01*
X70765030Y-74768763D01*
X70774916Y-74787259D01*
X70788223Y-74803474D01*
X70799881Y-74820921D01*
X70814718Y-74835758D01*
X70828026Y-74851974D01*
X70844244Y-74865284D01*
X70859079Y-74880119D01*
X70876522Y-74891774D01*
X70892740Y-74905084D01*
X70911241Y-74914973D01*
X70928687Y-74926630D01*
X70948074Y-74934660D01*
X70966573Y-74944548D01*
X70986645Y-74950637D01*
X71006032Y-74958667D01*
X71026613Y-74962761D01*
X71046686Y-74968850D01*
X71067559Y-74970906D01*
X71088141Y-74975000D01*
X71109126Y-74975000D01*
X71130000Y-74977056D01*
X71150874Y-74975000D01*
X71171859Y-74975000D01*
X71192441Y-74970906D01*
X71198667Y-74970293D01*
X71123960Y-75045000D01*
X70887821Y-75045000D01*
X70878968Y-75041333D01*
X70796859Y-75025000D01*
X70713141Y-75025000D01*
X70631032Y-75041333D01*
X70553687Y-75073370D01*
X70484079Y-75119881D01*
X70424881Y-75179079D01*
X70378370Y-75248687D01*
X70346333Y-75326032D01*
X70330000Y-75408141D01*
X70330000Y-75491859D01*
X70346333Y-75573968D01*
X70378370Y-75651313D01*
X70424881Y-75720921D01*
X70484079Y-75780119D01*
X70553687Y-75826630D01*
X70562331Y-75830210D01*
X70626573Y-75864548D01*
X70706686Y-75888850D01*
X70769126Y-75895000D01*
X71279133Y-75895000D01*
X71300000Y-75897055D01*
X71320867Y-75895000D01*
X71320874Y-75895000D01*
X71383314Y-75888850D01*
X71463427Y-75864548D01*
X71537260Y-75825084D01*
X71601974Y-75771974D01*
X71615283Y-75755757D01*
X72105000Y-75266041D01*
X72105001Y-78336638D01*
X72093427Y-78330452D01*
X72073355Y-78324363D01*
X72053968Y-78316333D01*
X72033387Y-78312239D01*
X72013314Y-78306150D01*
X71992441Y-78304094D01*
X71971859Y-78300000D01*
X71950874Y-78300000D01*
X71930000Y-78297944D01*
X71909126Y-78300000D01*
X71888141Y-78300000D01*
X71867559Y-78304094D01*
X71846687Y-78306150D01*
X71826616Y-78312238D01*
X71806032Y-78316333D01*
X71786643Y-78324364D01*
X71766574Y-78330452D01*
X71748079Y-78340338D01*
X71728687Y-78348370D01*
X71711237Y-78360030D01*
X71692741Y-78369916D01*
X71676528Y-78383222D01*
X71659079Y-78394881D01*
X71644239Y-78409721D01*
X71628027Y-78423026D01*
X71614722Y-78439238D01*
X71599881Y-78454079D01*
X71588221Y-78471529D01*
X71574917Y-78487740D01*
X71565032Y-78506234D01*
X71553370Y-78523687D01*
X71545336Y-78543083D01*
X71535453Y-78561573D01*
X71529367Y-78581636D01*
X71521333Y-78601032D01*
X71517237Y-78621623D01*
X71511151Y-78641686D01*
X71509096Y-78662549D01*
X71505000Y-78683141D01*
X71505000Y-78766859D01*
X71505001Y-78766864D01*
X71505001Y-79030903D01*
X71456313Y-78998370D01*
X71378968Y-78966333D01*
X71296859Y-78950000D01*
X71213141Y-78950000D01*
X71131032Y-78966333D01*
X71053687Y-78998370D01*
X70984079Y-79044881D01*
X70924881Y-79104079D01*
X70878370Y-79173687D01*
X70846333Y-79251032D01*
X70830000Y-79333141D01*
X70830000Y-79416859D01*
X70846333Y-79498968D01*
X70878370Y-79576313D01*
X70924881Y-79645921D01*
X70984079Y-79705119D01*
X71053687Y-79751630D01*
X71131032Y-79783667D01*
X71213141Y-79800000D01*
X71296859Y-79800000D01*
X71378968Y-79783667D01*
X71456313Y-79751630D01*
X71505001Y-79719098D01*
X71505000Y-82641761D01*
X71503968Y-82641333D01*
X71483387Y-82637239D01*
X71463314Y-82631150D01*
X71442441Y-82629094D01*
X71421859Y-82625000D01*
X71075866Y-82625000D01*
X71054999Y-82622945D01*
X71034132Y-82625000D01*
X71034126Y-82625000D01*
X70980098Y-82630321D01*
X70971685Y-82631150D01*
X70947383Y-82638522D01*
X70891573Y-82655452D01*
X70817740Y-82694916D01*
X70753026Y-82748026D01*
X70739716Y-82764244D01*
X70628960Y-82875000D01*
X67786040Y-82875000D01*
X67595000Y-82683960D01*
X67595000Y-77260867D01*
X67597055Y-77240000D01*
X67595000Y-77219133D01*
X67595000Y-77219126D01*
X67588850Y-77156686D01*
X67579862Y-77127056D01*
X67564548Y-77076572D01*
X67541425Y-77033313D01*
X67525084Y-77002740D01*
X67471974Y-76938026D01*
X67455763Y-76924722D01*
X67264182Y-76733141D01*
X69555000Y-76733141D01*
X69555000Y-76816859D01*
X69571333Y-76898968D01*
X69603370Y-76976313D01*
X69649881Y-77045921D01*
X69709079Y-77105119D01*
X69778687Y-77151630D01*
X69856032Y-77183667D01*
X69938141Y-77200000D01*
X70021859Y-77200000D01*
X70103968Y-77183667D01*
X70181313Y-77151630D01*
X70250921Y-77105119D01*
X70310119Y-77045921D01*
X70356630Y-76976313D01*
X70388667Y-76898968D01*
X70405000Y-76816859D01*
X70405000Y-76733141D01*
X70388667Y-76651032D01*
X70356630Y-76573687D01*
X70310119Y-76504079D01*
X70250921Y-76444881D01*
X70181313Y-76398370D01*
X70103968Y-76366333D01*
X70021859Y-76350000D01*
X69938141Y-76350000D01*
X69856032Y-76366333D01*
X69778687Y-76398370D01*
X69709079Y-76444881D01*
X69649881Y-76504079D01*
X69603370Y-76573687D01*
X69571333Y-76651032D01*
X69555000Y-76733141D01*
X67264182Y-76733141D01*
X67025000Y-76493960D01*
X67025000Y-76190757D01*
X67078687Y-76226630D01*
X67156032Y-76258667D01*
X67238141Y-76275000D01*
X67321859Y-76275000D01*
X67403968Y-76258667D01*
X67481313Y-76226630D01*
X67550921Y-76180119D01*
X67610119Y-76120921D01*
X67656630Y-76051313D01*
X67688667Y-75973968D01*
X67695183Y-75941213D01*
X67734089Y-75980119D01*
X67803697Y-76026630D01*
X67881042Y-76058667D01*
X67963151Y-76075000D01*
X68046869Y-76075000D01*
X68128978Y-76058667D01*
X68206323Y-76026630D01*
X68275931Y-75980119D01*
X68335129Y-75920921D01*
X68381640Y-75851313D01*
X68413677Y-75773968D01*
X68430010Y-75691859D01*
X68430010Y-75641182D01*
X68449881Y-75670921D01*
X68509079Y-75730119D01*
X68578687Y-75776630D01*
X68656032Y-75808667D01*
X68738141Y-75825000D01*
X68821859Y-75825000D01*
X68903968Y-75808667D01*
X68981313Y-75776630D01*
X69050921Y-75730119D01*
X69110119Y-75670921D01*
X69156630Y-75601313D01*
X69188667Y-75523968D01*
X69205000Y-75441859D01*
X69205000Y-75358141D01*
X69188667Y-75276032D01*
X69156630Y-75198687D01*
X69110119Y-75129079D01*
X69050921Y-75069881D01*
X68981313Y-75023370D01*
X68903968Y-74991333D01*
X68821859Y-74975000D01*
X68738141Y-74975000D01*
X68656032Y-74991333D01*
X68578687Y-75023370D01*
X68509079Y-75069881D01*
X68449881Y-75129079D01*
X68403370Y-75198687D01*
X68371333Y-75276032D01*
X68355000Y-75358141D01*
X68355000Y-75408818D01*
X68335129Y-75379079D01*
X68275931Y-75319881D01*
X68206323Y-75273370D01*
X68128978Y-75241333D01*
X68046869Y-75225000D01*
X67963151Y-75225000D01*
X67881042Y-75241333D01*
X67803697Y-75273370D01*
X67734089Y-75319881D01*
X67674891Y-75379079D01*
X67628380Y-75448687D01*
X67596343Y-75526032D01*
X67589827Y-75558787D01*
X67550921Y-75519881D01*
X67481313Y-75473370D01*
X67403968Y-75441333D01*
X67321859Y-75425000D01*
X67238141Y-75425000D01*
X67156032Y-75441333D01*
X67078687Y-75473370D01*
X67025000Y-75509243D01*
X67025000Y-73170042D01*
X67765762Y-72429281D01*
X67781974Y-72415976D01*
X67835084Y-72351262D01*
X67874548Y-72277429D01*
X67898850Y-72197316D01*
X67905000Y-72134876D01*
X67905000Y-72134869D01*
X67907055Y-72114002D01*
X67905000Y-72093135D01*
X67905000Y-70870867D01*
X67911150Y-70933314D01*
G37*
%TD.AperFunction*%
X64512243Y-62073041D02*
X64554029Y-62151216D01*
X64610263Y-62219737D01*
X64678784Y-62275971D01*
X64756959Y-62317757D01*
X64841785Y-62343489D01*
X64907895Y-62350000D01*
X65107906Y-62350000D01*
X65130000Y-62352176D01*
X65152094Y-62350000D01*
X65152105Y-62350000D01*
X65209323Y-62344365D01*
X67055000Y-64190043D01*
X67055001Y-71937960D01*
X66314243Y-72678719D01*
X66298026Y-72692028D01*
X66244916Y-72756743D01*
X66205452Y-72830576D01*
X66181150Y-72910689D01*
X66175000Y-72973129D01*
X66175000Y-72973135D01*
X66172945Y-72994002D01*
X66175000Y-73014869D01*
X66175001Y-76649123D01*
X66172945Y-76670000D01*
X66181150Y-76753314D01*
X66200427Y-76816859D01*
X66205453Y-76833427D01*
X66244917Y-76907260D01*
X66298027Y-76971974D01*
X66314239Y-76985279D01*
X66745000Y-77416041D01*
X66745000Y-77532515D01*
X66731313Y-77523370D01*
X66653968Y-77491333D01*
X66571859Y-77475000D01*
X66488141Y-77475000D01*
X66406032Y-77491333D01*
X66328687Y-77523370D01*
X66259079Y-77569881D01*
X66199881Y-77629079D01*
X66153370Y-77698687D01*
X66121333Y-77776032D01*
X66105000Y-77858141D01*
X66105000Y-77941859D01*
X66121333Y-78023968D01*
X66153370Y-78101313D01*
X66199881Y-78170921D01*
X66259079Y-78230119D01*
X66328687Y-78276630D01*
X66406032Y-78308667D01*
X66488141Y-78325000D01*
X66571859Y-78325000D01*
X66653968Y-78308667D01*
X66731313Y-78276630D01*
X66745000Y-78267484D01*
X66745001Y-82424999D01*
X65600875Y-82424999D01*
X65580001Y-82422943D01*
X65559127Y-82424999D01*
X65496687Y-82431149D01*
X65416574Y-82455451D01*
X65354352Y-82488709D01*
X65385084Y-82451262D01*
X65424548Y-82377429D01*
X65448850Y-82297316D01*
X65455000Y-82234876D01*
X65455000Y-82234870D01*
X65457055Y-82214003D01*
X65455000Y-82193136D01*
X65455000Y-81333151D01*
X65855000Y-81333151D01*
X65855000Y-81416869D01*
X65871333Y-81498978D01*
X65903370Y-81576323D01*
X65949881Y-81645931D01*
X65978955Y-81675005D01*
X65974881Y-81679079D01*
X65928370Y-81748687D01*
X65896333Y-81826032D01*
X65880000Y-81908141D01*
X65880000Y-81991859D01*
X65896333Y-82073968D01*
X65928370Y-82151313D01*
X65974881Y-82220921D01*
X66034079Y-82280119D01*
X66103687Y-82326630D01*
X66181032Y-82358667D01*
X66263141Y-82375000D01*
X66346859Y-82375000D01*
X66428968Y-82358667D01*
X66506313Y-82326630D01*
X66575921Y-82280119D01*
X66635119Y-82220921D01*
X66681630Y-82151313D01*
X66713667Y-82073968D01*
X66730000Y-81991859D01*
X66730000Y-81908141D01*
X66713667Y-81826032D01*
X66681630Y-81748687D01*
X66635119Y-81679079D01*
X66606045Y-81650005D01*
X66610119Y-81645931D01*
X66656630Y-81576323D01*
X66688667Y-81498978D01*
X66705000Y-81416869D01*
X66705000Y-81333151D01*
X66688667Y-81251042D01*
X66656630Y-81173697D01*
X66610119Y-81104089D01*
X66550921Y-81044891D01*
X66481313Y-80998380D01*
X66403968Y-80966343D01*
X66321859Y-80950010D01*
X66238141Y-80950010D01*
X66156032Y-80966343D01*
X66078687Y-80998380D01*
X66009079Y-81044891D01*
X65949881Y-81104089D01*
X65903370Y-81173697D01*
X65871333Y-81251042D01*
X65855000Y-81333151D01*
X65455000Y-81333151D01*
X65455000Y-79220874D01*
X65457056Y-79200000D01*
X65448850Y-79116686D01*
X65424548Y-79036573D01*
X65387004Y-78966333D01*
X65385084Y-78962740D01*
X65331974Y-78898026D01*
X65315758Y-78884718D01*
X64455000Y-78023960D01*
X64455000Y-68076040D01*
X65375046Y-67155995D01*
X65431216Y-67125971D01*
X65499737Y-67069737D01*
X65513829Y-67052566D01*
X65655001Y-66911394D01*
X65655000Y-69287957D01*
X65344239Y-69598719D01*
X65328027Y-69612024D01*
X65274917Y-69676738D01*
X65261812Y-69701257D01*
X65235453Y-69750571D01*
X65211150Y-69830684D01*
X65202945Y-69913998D01*
X65205001Y-69934875D01*
X65205000Y-73783959D01*
X64694239Y-74294721D01*
X64678027Y-74308026D01*
X64624917Y-74372740D01*
X64617265Y-74387056D01*
X64585453Y-74446573D01*
X64561150Y-74526686D01*
X64552945Y-74610000D01*
X64555001Y-74630877D01*
X64555000Y-76679133D01*
X64552945Y-76700000D01*
X64555000Y-76720867D01*
X64555000Y-76720873D01*
X64560202Y-76773687D01*
X64561150Y-76783314D01*
X64568522Y-76807616D01*
X64585452Y-76863426D01*
X64624916Y-76937259D01*
X64678026Y-77001974D01*
X64694244Y-77015284D01*
X64959079Y-77280119D01*
X64976525Y-77291776D01*
X64992739Y-77305083D01*
X65011238Y-77314971D01*
X65028687Y-77326630D01*
X65048078Y-77334662D01*
X65066572Y-77344547D01*
X65086641Y-77350635D01*
X65106032Y-77358667D01*
X65126613Y-77362761D01*
X65146685Y-77368850D01*
X65167558Y-77370906D01*
X65188141Y-77375000D01*
X65209132Y-77375000D01*
X65229999Y-77377055D01*
X65250866Y-77375000D01*
X65271859Y-77375000D01*
X65292444Y-77370905D01*
X65313313Y-77368850D01*
X65333382Y-77362762D01*
X65353968Y-77358667D01*
X65373364Y-77350633D01*
X65393426Y-77344547D01*
X65411913Y-77334666D01*
X65431313Y-77326630D01*
X65448770Y-77314965D01*
X65467259Y-77305083D01*
X65483466Y-77291782D01*
X65500921Y-77280119D01*
X65515767Y-77265273D01*
X65531973Y-77251973D01*
X65545273Y-77235767D01*
X65560119Y-77220921D01*
X65571782Y-77203466D01*
X65585083Y-77187259D01*
X65594965Y-77168770D01*
X65606630Y-77151313D01*
X65614666Y-77131913D01*
X65624547Y-77113426D01*
X65630633Y-77093364D01*
X65638667Y-77073968D01*
X65642762Y-77053382D01*
X65648850Y-77033313D01*
X65650905Y-77012444D01*
X65655000Y-76991859D01*
X65655000Y-76970866D01*
X65657055Y-76949999D01*
X65655000Y-76929132D01*
X65655000Y-76908141D01*
X65650906Y-76887558D01*
X65648850Y-76866685D01*
X65642761Y-76846613D01*
X65638667Y-76826032D01*
X65630635Y-76806641D01*
X65624547Y-76786572D01*
X65614662Y-76768078D01*
X65606630Y-76748687D01*
X65594971Y-76731238D01*
X65585083Y-76712739D01*
X65571776Y-76696525D01*
X65560119Y-76679079D01*
X65405000Y-76523960D01*
X65405000Y-76010803D01*
X65428687Y-76026630D01*
X65506032Y-76058667D01*
X65588141Y-76075000D01*
X65671859Y-76075000D01*
X65753968Y-76058667D01*
X65831313Y-76026630D01*
X65900921Y-75980119D01*
X65960119Y-75920921D01*
X66006630Y-75851313D01*
X66038667Y-75773968D01*
X66055000Y-75691859D01*
X66055000Y-75608141D01*
X66038667Y-75526032D01*
X66006630Y-75448687D01*
X65960119Y-75379079D01*
X65900921Y-75319881D01*
X65831313Y-75273370D01*
X65753968Y-75241333D01*
X65671859Y-75225000D01*
X65588141Y-75225000D01*
X65506032Y-75241333D01*
X65428687Y-75273370D01*
X65405000Y-75289197D01*
X65405000Y-74786040D01*
X65915763Y-74275278D01*
X65931974Y-74261974D01*
X65985084Y-74197260D01*
X66014977Y-74141333D01*
X66024548Y-74123428D01*
X66048850Y-74043315D01*
X66050493Y-74026630D01*
X66055000Y-73980874D01*
X66055000Y-73980867D01*
X66057055Y-73960000D01*
X66055000Y-73939133D01*
X66055000Y-70090038D01*
X66365763Y-69779276D01*
X66381974Y-69765972D01*
X66435084Y-69701258D01*
X66474548Y-69627425D01*
X66498850Y-69547312D01*
X66505000Y-69484872D01*
X66505000Y-69484866D01*
X66507055Y-69463999D01*
X66505000Y-69443132D01*
X66505000Y-64520866D01*
X66507055Y-64499999D01*
X66505000Y-64479132D01*
X66505000Y-64479126D01*
X66499679Y-64425098D01*
X66498850Y-64416685D01*
X66486828Y-64377055D01*
X66474548Y-64336573D01*
X66435084Y-64262740D01*
X66381974Y-64198026D01*
X66365762Y-64184721D01*
X64505000Y-62323960D01*
X64505000Y-62049164D01*
X64512243Y-62073041D01*
%TA.AperFunction,Conductor*%
G36*
X64512243Y-62073041D02*
G01*
X64554029Y-62151216D01*
X64610263Y-62219737D01*
X64678784Y-62275971D01*
X64756959Y-62317757D01*
X64841785Y-62343489D01*
X64907895Y-62350000D01*
X65107906Y-62350000D01*
X65130000Y-62352176D01*
X65152094Y-62350000D01*
X65152105Y-62350000D01*
X65209323Y-62344365D01*
X67055000Y-64190043D01*
X67055001Y-71937960D01*
X66314243Y-72678719D01*
X66298026Y-72692028D01*
X66244916Y-72756743D01*
X66205452Y-72830576D01*
X66181150Y-72910689D01*
X66175000Y-72973129D01*
X66175000Y-72973135D01*
X66172945Y-72994002D01*
X66175000Y-73014869D01*
X66175001Y-76649123D01*
X66172945Y-76670000D01*
X66181150Y-76753314D01*
X66200427Y-76816859D01*
X66205453Y-76833427D01*
X66244917Y-76907260D01*
X66298027Y-76971974D01*
X66314239Y-76985279D01*
X66745000Y-77416041D01*
X66745000Y-77532515D01*
X66731313Y-77523370D01*
X66653968Y-77491333D01*
X66571859Y-77475000D01*
X66488141Y-77475000D01*
X66406032Y-77491333D01*
X66328687Y-77523370D01*
X66259079Y-77569881D01*
X66199881Y-77629079D01*
X66153370Y-77698687D01*
X66121333Y-77776032D01*
X66105000Y-77858141D01*
X66105000Y-77941859D01*
X66121333Y-78023968D01*
X66153370Y-78101313D01*
X66199881Y-78170921D01*
X66259079Y-78230119D01*
X66328687Y-78276630D01*
X66406032Y-78308667D01*
X66488141Y-78325000D01*
X66571859Y-78325000D01*
X66653968Y-78308667D01*
X66731313Y-78276630D01*
X66745000Y-78267484D01*
X66745001Y-82424999D01*
X65600875Y-82424999D01*
X65580001Y-82422943D01*
X65559127Y-82424999D01*
X65496687Y-82431149D01*
X65416574Y-82455451D01*
X65354352Y-82488709D01*
X65385084Y-82451262D01*
X65424548Y-82377429D01*
X65448850Y-82297316D01*
X65455000Y-82234876D01*
X65455000Y-82234870D01*
X65457055Y-82214003D01*
X65455000Y-82193136D01*
X65455000Y-81333151D01*
X65855000Y-81333151D01*
X65855000Y-81416869D01*
X65871333Y-81498978D01*
X65903370Y-81576323D01*
X65949881Y-81645931D01*
X65978955Y-81675005D01*
X65974881Y-81679079D01*
X65928370Y-81748687D01*
X65896333Y-81826032D01*
X65880000Y-81908141D01*
X65880000Y-81991859D01*
X65896333Y-82073968D01*
X65928370Y-82151313D01*
X65974881Y-82220921D01*
X66034079Y-82280119D01*
X66103687Y-82326630D01*
X66181032Y-82358667D01*
X66263141Y-82375000D01*
X66346859Y-82375000D01*
X66428968Y-82358667D01*
X66506313Y-82326630D01*
X66575921Y-82280119D01*
X66635119Y-82220921D01*
X66681630Y-82151313D01*
X66713667Y-82073968D01*
X66730000Y-81991859D01*
X66730000Y-81908141D01*
X66713667Y-81826032D01*
X66681630Y-81748687D01*
X66635119Y-81679079D01*
X66606045Y-81650005D01*
X66610119Y-81645931D01*
X66656630Y-81576323D01*
X66688667Y-81498978D01*
X66705000Y-81416869D01*
X66705000Y-81333151D01*
X66688667Y-81251042D01*
X66656630Y-81173697D01*
X66610119Y-81104089D01*
X66550921Y-81044891D01*
X66481313Y-80998380D01*
X66403968Y-80966343D01*
X66321859Y-80950010D01*
X66238141Y-80950010D01*
X66156032Y-80966343D01*
X66078687Y-80998380D01*
X66009079Y-81044891D01*
X65949881Y-81104089D01*
X65903370Y-81173697D01*
X65871333Y-81251042D01*
X65855000Y-81333151D01*
X65455000Y-81333151D01*
X65455000Y-79220874D01*
X65457056Y-79200000D01*
X65448850Y-79116686D01*
X65424548Y-79036573D01*
X65387004Y-78966333D01*
X65385084Y-78962740D01*
X65331974Y-78898026D01*
X65315758Y-78884718D01*
X64455000Y-78023960D01*
X64455000Y-68076040D01*
X65375046Y-67155995D01*
X65431216Y-67125971D01*
X65499737Y-67069737D01*
X65513829Y-67052566D01*
X65655001Y-66911394D01*
X65655000Y-69287957D01*
X65344239Y-69598719D01*
X65328027Y-69612024D01*
X65274917Y-69676738D01*
X65261812Y-69701257D01*
X65235453Y-69750571D01*
X65211150Y-69830684D01*
X65202945Y-69913998D01*
X65205001Y-69934875D01*
X65205000Y-73783959D01*
X64694239Y-74294721D01*
X64678027Y-74308026D01*
X64624917Y-74372740D01*
X64617265Y-74387056D01*
X64585453Y-74446573D01*
X64561150Y-74526686D01*
X64552945Y-74610000D01*
X64555001Y-74630877D01*
X64555000Y-76679133D01*
X64552945Y-76700000D01*
X64555000Y-76720867D01*
X64555000Y-76720873D01*
X64560202Y-76773687D01*
X64561150Y-76783314D01*
X64568522Y-76807616D01*
X64585452Y-76863426D01*
X64624916Y-76937259D01*
X64678026Y-77001974D01*
X64694244Y-77015284D01*
X64959079Y-77280119D01*
X64976525Y-77291776D01*
X64992739Y-77305083D01*
X65011238Y-77314971D01*
X65028687Y-77326630D01*
X65048078Y-77334662D01*
X65066572Y-77344547D01*
X65086641Y-77350635D01*
X65106032Y-77358667D01*
X65126613Y-77362761D01*
X65146685Y-77368850D01*
X65167558Y-77370906D01*
X65188141Y-77375000D01*
X65209132Y-77375000D01*
X65229999Y-77377055D01*
X65250866Y-77375000D01*
X65271859Y-77375000D01*
X65292444Y-77370905D01*
X65313313Y-77368850D01*
X65333382Y-77362762D01*
X65353968Y-77358667D01*
X65373364Y-77350633D01*
X65393426Y-77344547D01*
X65411913Y-77334666D01*
X65431313Y-77326630D01*
X65448770Y-77314965D01*
X65467259Y-77305083D01*
X65483466Y-77291782D01*
X65500921Y-77280119D01*
X65515767Y-77265273D01*
X65531973Y-77251973D01*
X65545273Y-77235767D01*
X65560119Y-77220921D01*
X65571782Y-77203466D01*
X65585083Y-77187259D01*
X65594965Y-77168770D01*
X65606630Y-77151313D01*
X65614666Y-77131913D01*
X65624547Y-77113426D01*
X65630633Y-77093364D01*
X65638667Y-77073968D01*
X65642762Y-77053382D01*
X65648850Y-77033313D01*
X65650905Y-77012444D01*
X65655000Y-76991859D01*
X65655000Y-76970866D01*
X65657055Y-76949999D01*
X65655000Y-76929132D01*
X65655000Y-76908141D01*
X65650906Y-76887558D01*
X65648850Y-76866685D01*
X65642761Y-76846613D01*
X65638667Y-76826032D01*
X65630635Y-76806641D01*
X65624547Y-76786572D01*
X65614662Y-76768078D01*
X65606630Y-76748687D01*
X65594971Y-76731238D01*
X65585083Y-76712739D01*
X65571776Y-76696525D01*
X65560119Y-76679079D01*
X65405000Y-76523960D01*
X65405000Y-76010803D01*
X65428687Y-76026630D01*
X65506032Y-76058667D01*
X65588141Y-76075000D01*
X65671859Y-76075000D01*
X65753968Y-76058667D01*
X65831313Y-76026630D01*
X65900921Y-75980119D01*
X65960119Y-75920921D01*
X66006630Y-75851313D01*
X66038667Y-75773968D01*
X66055000Y-75691859D01*
X66055000Y-75608141D01*
X66038667Y-75526032D01*
X66006630Y-75448687D01*
X65960119Y-75379079D01*
X65900921Y-75319881D01*
X65831313Y-75273370D01*
X65753968Y-75241333D01*
X65671859Y-75225000D01*
X65588141Y-75225000D01*
X65506032Y-75241333D01*
X65428687Y-75273370D01*
X65405000Y-75289197D01*
X65405000Y-74786040D01*
X65915763Y-74275278D01*
X65931974Y-74261974D01*
X65985084Y-74197260D01*
X66014977Y-74141333D01*
X66024548Y-74123428D01*
X66048850Y-74043315D01*
X66050493Y-74026630D01*
X66055000Y-73980874D01*
X66055000Y-73980867D01*
X66057055Y-73960000D01*
X66055000Y-73939133D01*
X66055000Y-70090038D01*
X66365763Y-69779276D01*
X66381974Y-69765972D01*
X66435084Y-69701258D01*
X66474548Y-69627425D01*
X66498850Y-69547312D01*
X66505000Y-69484872D01*
X66505000Y-69484866D01*
X66507055Y-69463999D01*
X66505000Y-69443132D01*
X66505000Y-64520866D01*
X66507055Y-64499999D01*
X66505000Y-64479132D01*
X66505000Y-64479126D01*
X66499679Y-64425098D01*
X66498850Y-64416685D01*
X66486828Y-64377055D01*
X66474548Y-64336573D01*
X66435084Y-64262740D01*
X66381974Y-64198026D01*
X66365762Y-64184721D01*
X64505000Y-62323960D01*
X64505000Y-62049164D01*
X64512243Y-62073041D01*
G37*
%TD.AperFunction*%
X67905000Y-60526040D02*
X67905000Y-63993128D01*
X67898850Y-63930688D01*
X67892170Y-63908667D01*
X67874548Y-63850574D01*
X67856434Y-63816686D01*
X67835084Y-63776742D01*
X67781974Y-63712028D01*
X67765763Y-63698724D01*
X65855000Y-61787962D01*
X65855000Y-61749164D01*
X65873488Y-61688216D01*
X65882176Y-61600001D01*
X65873488Y-61511785D01*
X65847757Y-61426960D01*
X65805971Y-61348784D01*
X65749737Y-61280263D01*
X65681216Y-61224029D01*
X65603040Y-61182243D01*
X65518215Y-61156512D01*
X65429999Y-61147824D01*
X65341784Y-61156512D01*
X65256959Y-61182243D01*
X65178783Y-61224029D01*
X65127433Y-61266172D01*
X64943605Y-61450000D01*
X64907895Y-61450000D01*
X64841785Y-61456511D01*
X64756959Y-61482243D01*
X64678784Y-61524029D01*
X64610263Y-61580263D01*
X64554029Y-61648784D01*
X64512243Y-61726959D01*
X64505000Y-61750836D01*
X64505000Y-59076040D01*
X65480000Y-58101040D01*
X67905000Y-60526040D01*
%TA.AperFunction,Conductor*%
G36*
X67905000Y-60526040D02*
G01*
X67905000Y-63993128D01*
X67898850Y-63930688D01*
X67892170Y-63908667D01*
X67874548Y-63850574D01*
X67856434Y-63816686D01*
X67835084Y-63776742D01*
X67781974Y-63712028D01*
X67765763Y-63698724D01*
X65855000Y-61787962D01*
X65855000Y-61749164D01*
X65873488Y-61688216D01*
X65882176Y-61600001D01*
X65873488Y-61511785D01*
X65847757Y-61426960D01*
X65805971Y-61348784D01*
X65749737Y-61280263D01*
X65681216Y-61224029D01*
X65603040Y-61182243D01*
X65518215Y-61156512D01*
X65429999Y-61147824D01*
X65341784Y-61156512D01*
X65256959Y-61182243D01*
X65178783Y-61224029D01*
X65127433Y-61266172D01*
X64943605Y-61450000D01*
X64907895Y-61450000D01*
X64841785Y-61456511D01*
X64756959Y-61482243D01*
X64678784Y-61524029D01*
X64610263Y-61580263D01*
X64554029Y-61648784D01*
X64512243Y-61726959D01*
X64505000Y-61750836D01*
X64505000Y-59076040D01*
X65480000Y-58101040D01*
X67905000Y-60526040D01*
G37*
%TD.AperFunction*%
%TD*%
M02*
