G04 #@! TF.GenerationSoftware,KiCad,Pcbnew,5.1.10-88a1d61d58~88~ubuntu20.04.1*
G04 #@! TF.CreationDate,2021-08-11T17:00:08+02:00*
G04 #@! TF.ProjectId,carrier,63617272-6965-4722-9e6b-696361645f70,0.1*
G04 #@! TF.SameCoordinates,Original*
G04 #@! TF.FileFunction,Paste,Top*
G04 #@! TF.FilePolarity,Positive*
%FSLAX46Y46*%
G04 Gerber Fmt 4.6, Leading zero omitted, Abs format (unit mm)*
G04 Created by KiCad (PCBNEW 5.1.10-88a1d61d58~88~ubuntu20.04.1) date 2021-08-11 17:00:08*
%MOMM*%
%LPD*%
G01*
G04 APERTURE LIST*
%ADD10C,0.270000*%
%ADD11R,0.650000X1.060000*%
%ADD12R,1.500000X1.900000*%
%ADD13R,0.400000X1.350000*%
%ADD14R,2.200000X2.200000*%
%ADD15R,1.200000X1.400000*%
G04 APERTURE END LIST*
D10*
G04 #@! TO.C,ASIC1*
X50480000Y-78750000D03*
X50980000Y-78750000D03*
X51480000Y-78750000D03*
X51980000Y-78750000D03*
X52480000Y-78750000D03*
X52980000Y-78750000D03*
X50480000Y-79250000D03*
X50980000Y-79250000D03*
X51480000Y-79250000D03*
X51980000Y-79250000D03*
X52480000Y-79250000D03*
X52980000Y-79250000D03*
X50480000Y-79750000D03*
X50980000Y-79750000D03*
X51480000Y-79750000D03*
X51980000Y-79750000D03*
X52480000Y-79750000D03*
X52980000Y-79750000D03*
X50480000Y-80250000D03*
X50980000Y-80250000D03*
X51480000Y-80250000D03*
X51980000Y-80250000D03*
X52480000Y-80250000D03*
X52980000Y-80250000D03*
X50480000Y-80750000D03*
X50980000Y-80750000D03*
X51480000Y-80750000D03*
X51980000Y-80750000D03*
X52480000Y-80750000D03*
X52980000Y-80750000D03*
X50480000Y-81250000D03*
X50980000Y-81250000D03*
X51480000Y-81250000D03*
X51980000Y-81250000D03*
X52480000Y-81250000D03*
X52980000Y-81250000D03*
X50480000Y-81750000D03*
X50980000Y-81750000D03*
X51480000Y-81750000D03*
X51980000Y-81750000D03*
X52480000Y-81750000D03*
X52980000Y-81750000D03*
X50480000Y-82250000D03*
X50980000Y-82250000D03*
X51480000Y-82250000D03*
X51980000Y-82250000D03*
X52480000Y-82250000D03*
X52980000Y-82250000D03*
X50480000Y-82750000D03*
X50980000Y-82750000D03*
X51480000Y-82750000D03*
X51980000Y-82750000D03*
X52480000Y-82750000D03*
X52980000Y-82750000D03*
X50480000Y-83250000D03*
X50980000Y-83250000D03*
X51480000Y-83250000D03*
X51980000Y-83250000D03*
X52480000Y-83250000D03*
X52980000Y-83250000D03*
G04 #@! TD*
G04 #@! TO.C,U2*
G36*
G01*
X58975000Y-78200000D02*
X58675000Y-78200000D01*
G75*
G02*
X58525000Y-78050000I0J150000D01*
G01*
X58525000Y-76750000D01*
G75*
G02*
X58675000Y-76600000I150000J0D01*
G01*
X58975000Y-76600000D01*
G75*
G02*
X59125000Y-76750000I0J-150000D01*
G01*
X59125000Y-78050000D01*
G75*
G02*
X58975000Y-78200000I-150000J0D01*
G01*
G37*
G36*
G01*
X60245000Y-78200000D02*
X59945000Y-78200000D01*
G75*
G02*
X59795000Y-78050000I0J150000D01*
G01*
X59795000Y-76750000D01*
G75*
G02*
X59945000Y-76600000I150000J0D01*
G01*
X60245000Y-76600000D01*
G75*
G02*
X60395000Y-76750000I0J-150000D01*
G01*
X60395000Y-78050000D01*
G75*
G02*
X60245000Y-78200000I-150000J0D01*
G01*
G37*
G36*
G01*
X61515000Y-78200000D02*
X61215000Y-78200000D01*
G75*
G02*
X61065000Y-78050000I0J150000D01*
G01*
X61065000Y-76750000D01*
G75*
G02*
X61215000Y-76600000I150000J0D01*
G01*
X61515000Y-76600000D01*
G75*
G02*
X61665000Y-76750000I0J-150000D01*
G01*
X61665000Y-78050000D01*
G75*
G02*
X61515000Y-78200000I-150000J0D01*
G01*
G37*
G36*
G01*
X62785000Y-78200000D02*
X62485000Y-78200000D01*
G75*
G02*
X62335000Y-78050000I0J150000D01*
G01*
X62335000Y-76750000D01*
G75*
G02*
X62485000Y-76600000I150000J0D01*
G01*
X62785000Y-76600000D01*
G75*
G02*
X62935000Y-76750000I0J-150000D01*
G01*
X62935000Y-78050000D01*
G75*
G02*
X62785000Y-78200000I-150000J0D01*
G01*
G37*
G36*
G01*
X62785000Y-85400000D02*
X62485000Y-85400000D01*
G75*
G02*
X62335000Y-85250000I0J150000D01*
G01*
X62335000Y-83950000D01*
G75*
G02*
X62485000Y-83800000I150000J0D01*
G01*
X62785000Y-83800000D01*
G75*
G02*
X62935000Y-83950000I0J-150000D01*
G01*
X62935000Y-85250000D01*
G75*
G02*
X62785000Y-85400000I-150000J0D01*
G01*
G37*
G36*
G01*
X61515000Y-85400000D02*
X61215000Y-85400000D01*
G75*
G02*
X61065000Y-85250000I0J150000D01*
G01*
X61065000Y-83950000D01*
G75*
G02*
X61215000Y-83800000I150000J0D01*
G01*
X61515000Y-83800000D01*
G75*
G02*
X61665000Y-83950000I0J-150000D01*
G01*
X61665000Y-85250000D01*
G75*
G02*
X61515000Y-85400000I-150000J0D01*
G01*
G37*
G36*
G01*
X60245000Y-85400000D02*
X59945000Y-85400000D01*
G75*
G02*
X59795000Y-85250000I0J150000D01*
G01*
X59795000Y-83950000D01*
G75*
G02*
X59945000Y-83800000I150000J0D01*
G01*
X60245000Y-83800000D01*
G75*
G02*
X60395000Y-83950000I0J-150000D01*
G01*
X60395000Y-85250000D01*
G75*
G02*
X60245000Y-85400000I-150000J0D01*
G01*
G37*
G36*
G01*
X58975000Y-85400000D02*
X58675000Y-85400000D01*
G75*
G02*
X58525000Y-85250000I0J150000D01*
G01*
X58525000Y-83950000D01*
G75*
G02*
X58675000Y-83800000I150000J0D01*
G01*
X58975000Y-83800000D01*
G75*
G02*
X59125000Y-83950000I0J-150000D01*
G01*
X59125000Y-85250000D01*
G75*
G02*
X58975000Y-85400000I-150000J0D01*
G01*
G37*
G04 #@! TD*
D11*
G04 #@! TO.C,U6*
X53830000Y-71850000D03*
X51930000Y-71850000D03*
X51930000Y-69650000D03*
X52880000Y-69650000D03*
X53830000Y-69650000D03*
G04 #@! TD*
G04 #@! TO.C,U5*
X60580000Y-71850000D03*
X58680000Y-71850000D03*
X58680000Y-69650000D03*
X59630000Y-69650000D03*
X60580000Y-69650000D03*
G04 #@! TD*
G04 #@! TO.C,C7*
G36*
G01*
X52830000Y-73243750D02*
X52830000Y-73756250D01*
G75*
G02*
X52611250Y-73975000I-218750J0D01*
G01*
X52173750Y-73975000D01*
G75*
G02*
X51955000Y-73756250I0J218750D01*
G01*
X51955000Y-73243750D01*
G75*
G02*
X52173750Y-73025000I218750J0D01*
G01*
X52611250Y-73025000D01*
G75*
G02*
X52830000Y-73243750I0J-218750D01*
G01*
G37*
G36*
G01*
X54405000Y-73243750D02*
X54405000Y-73756250D01*
G75*
G02*
X54186250Y-73975000I-218750J0D01*
G01*
X53748750Y-73975000D01*
G75*
G02*
X53530000Y-73756250I0J218750D01*
G01*
X53530000Y-73243750D01*
G75*
G02*
X53748750Y-73025000I218750J0D01*
G01*
X54186250Y-73025000D01*
G75*
G02*
X54405000Y-73243750I0J-218750D01*
G01*
G37*
G04 #@! TD*
G04 #@! TO.C,C5*
G36*
G01*
X52830000Y-67743750D02*
X52830000Y-68256250D01*
G75*
G02*
X52611250Y-68475000I-218750J0D01*
G01*
X52173750Y-68475000D01*
G75*
G02*
X51955000Y-68256250I0J218750D01*
G01*
X51955000Y-67743750D01*
G75*
G02*
X52173750Y-67525000I218750J0D01*
G01*
X52611250Y-67525000D01*
G75*
G02*
X52830000Y-67743750I0J-218750D01*
G01*
G37*
G36*
G01*
X54405000Y-67743750D02*
X54405000Y-68256250D01*
G75*
G02*
X54186250Y-68475000I-218750J0D01*
G01*
X53748750Y-68475000D01*
G75*
G02*
X53530000Y-68256250I0J218750D01*
G01*
X53530000Y-67743750D01*
G75*
G02*
X53748750Y-67525000I218750J0D01*
G01*
X54186250Y-67525000D01*
G75*
G02*
X54405000Y-67743750I0J-218750D01*
G01*
G37*
G04 #@! TD*
G04 #@! TO.C,C3*
G36*
G01*
X59580000Y-73243750D02*
X59580000Y-73756250D01*
G75*
G02*
X59361250Y-73975000I-218750J0D01*
G01*
X58923750Y-73975000D01*
G75*
G02*
X58705000Y-73756250I0J218750D01*
G01*
X58705000Y-73243750D01*
G75*
G02*
X58923750Y-73025000I218750J0D01*
G01*
X59361250Y-73025000D01*
G75*
G02*
X59580000Y-73243750I0J-218750D01*
G01*
G37*
G36*
G01*
X61155000Y-73243750D02*
X61155000Y-73756250D01*
G75*
G02*
X60936250Y-73975000I-218750J0D01*
G01*
X60498750Y-73975000D01*
G75*
G02*
X60280000Y-73756250I0J218750D01*
G01*
X60280000Y-73243750D01*
G75*
G02*
X60498750Y-73025000I218750J0D01*
G01*
X60936250Y-73025000D01*
G75*
G02*
X61155000Y-73243750I0J-218750D01*
G01*
G37*
G04 #@! TD*
G04 #@! TO.C,C1*
G36*
G01*
X59580000Y-67743750D02*
X59580000Y-68256250D01*
G75*
G02*
X59361250Y-68475000I-218750J0D01*
G01*
X58923750Y-68475000D01*
G75*
G02*
X58705000Y-68256250I0J218750D01*
G01*
X58705000Y-67743750D01*
G75*
G02*
X58923750Y-67525000I218750J0D01*
G01*
X59361250Y-67525000D01*
G75*
G02*
X59580000Y-67743750I0J-218750D01*
G01*
G37*
G36*
G01*
X61155000Y-67743750D02*
X61155000Y-68256250D01*
G75*
G02*
X60936250Y-68475000I-218750J0D01*
G01*
X60498750Y-68475000D01*
G75*
G02*
X60280000Y-68256250I0J218750D01*
G01*
X60280000Y-67743750D01*
G75*
G02*
X60498750Y-67525000I218750J0D01*
G01*
X60936250Y-67525000D01*
G75*
G02*
X61155000Y-67743750I0J-218750D01*
G01*
G37*
G04 #@! TD*
G04 #@! TO.C,C9*
G36*
G01*
X55980000Y-82675000D02*
X55480000Y-82675000D01*
G75*
G02*
X55255000Y-82450000I0J225000D01*
G01*
X55255000Y-82000000D01*
G75*
G02*
X55480000Y-81775000I225000J0D01*
G01*
X55980000Y-81775000D01*
G75*
G02*
X56205000Y-82000000I0J-225000D01*
G01*
X56205000Y-82450000D01*
G75*
G02*
X55980000Y-82675000I-225000J0D01*
G01*
G37*
G36*
G01*
X55980000Y-84225000D02*
X55480000Y-84225000D01*
G75*
G02*
X55255000Y-84000000I0J225000D01*
G01*
X55255000Y-83550000D01*
G75*
G02*
X55480000Y-83325000I225000J0D01*
G01*
X55980000Y-83325000D01*
G75*
G02*
X56205000Y-83550000I0J-225000D01*
G01*
X56205000Y-84000000D01*
G75*
G02*
X55980000Y-84225000I-225000J0D01*
G01*
G37*
G04 #@! TD*
G04 #@! TO.C,C10*
G36*
G01*
X51180000Y-75750000D02*
X51180000Y-76250000D01*
G75*
G02*
X50955000Y-76475000I-225000J0D01*
G01*
X50505000Y-76475000D01*
G75*
G02*
X50280000Y-76250000I0J225000D01*
G01*
X50280000Y-75750000D01*
G75*
G02*
X50505000Y-75525000I225000J0D01*
G01*
X50955000Y-75525000D01*
G75*
G02*
X51180000Y-75750000I0J-225000D01*
G01*
G37*
G36*
G01*
X49630000Y-75750000D02*
X49630000Y-76250000D01*
G75*
G02*
X49405000Y-76475000I-225000J0D01*
G01*
X48955000Y-76475000D01*
G75*
G02*
X48730000Y-76250000I0J225000D01*
G01*
X48730000Y-75750000D01*
G75*
G02*
X48955000Y-75525000I225000J0D01*
G01*
X49405000Y-75525000D01*
G75*
G02*
X49630000Y-75750000I0J-225000D01*
G01*
G37*
G04 #@! TD*
G04 #@! TO.C,C11*
G36*
G01*
X55480000Y-80325000D02*
X55980000Y-80325000D01*
G75*
G02*
X56205000Y-80550000I0J-225000D01*
G01*
X56205000Y-81000000D01*
G75*
G02*
X55980000Y-81225000I-225000J0D01*
G01*
X55480000Y-81225000D01*
G75*
G02*
X55255000Y-81000000I0J225000D01*
G01*
X55255000Y-80550000D01*
G75*
G02*
X55480000Y-80325000I225000J0D01*
G01*
G37*
G36*
G01*
X55480000Y-78775000D02*
X55980000Y-78775000D01*
G75*
G02*
X56205000Y-79000000I0J-225000D01*
G01*
X56205000Y-79450000D01*
G75*
G02*
X55980000Y-79675000I-225000J0D01*
G01*
X55480000Y-79675000D01*
G75*
G02*
X55255000Y-79450000I0J225000D01*
G01*
X55255000Y-79000000D01*
G75*
G02*
X55480000Y-78775000I225000J0D01*
G01*
G37*
G04 #@! TD*
G04 #@! TO.C,C16*
G36*
G01*
X45030000Y-75250000D02*
X45030000Y-74750000D01*
G75*
G02*
X45255000Y-74525000I225000J0D01*
G01*
X45705000Y-74525000D01*
G75*
G02*
X45930000Y-74750000I0J-225000D01*
G01*
X45930000Y-75250000D01*
G75*
G02*
X45705000Y-75475000I-225000J0D01*
G01*
X45255000Y-75475000D01*
G75*
G02*
X45030000Y-75250000I0J225000D01*
G01*
G37*
G36*
G01*
X46580000Y-75250000D02*
X46580000Y-74750000D01*
G75*
G02*
X46805000Y-74525000I225000J0D01*
G01*
X47255000Y-74525000D01*
G75*
G02*
X47480000Y-74750000I0J-225000D01*
G01*
X47480000Y-75250000D01*
G75*
G02*
X47255000Y-75475000I-225000J0D01*
G01*
X46805000Y-75475000D01*
G75*
G02*
X46580000Y-75250000I0J225000D01*
G01*
G37*
G04 #@! TD*
G04 #@! TO.C,R1*
G36*
G01*
X58005000Y-88575000D02*
X57455000Y-88575000D01*
G75*
G02*
X57255000Y-88375000I0J200000D01*
G01*
X57255000Y-87975000D01*
G75*
G02*
X57455000Y-87775000I200000J0D01*
G01*
X58005000Y-87775000D01*
G75*
G02*
X58205000Y-87975000I0J-200000D01*
G01*
X58205000Y-88375000D01*
G75*
G02*
X58005000Y-88575000I-200000J0D01*
G01*
G37*
G36*
G01*
X58005000Y-90225000D02*
X57455000Y-90225000D01*
G75*
G02*
X57255000Y-90025000I0J200000D01*
G01*
X57255000Y-89625000D01*
G75*
G02*
X57455000Y-89425000I200000J0D01*
G01*
X58005000Y-89425000D01*
G75*
G02*
X58205000Y-89625000I0J-200000D01*
G01*
X58205000Y-90025000D01*
G75*
G02*
X58005000Y-90225000I-200000J0D01*
G01*
G37*
G04 #@! TD*
G04 #@! TO.C,R2*
G36*
G01*
X56005000Y-90225000D02*
X55455000Y-90225000D01*
G75*
G02*
X55255000Y-90025000I0J200000D01*
G01*
X55255000Y-89625000D01*
G75*
G02*
X55455000Y-89425000I200000J0D01*
G01*
X56005000Y-89425000D01*
G75*
G02*
X56205000Y-89625000I0J-200000D01*
G01*
X56205000Y-90025000D01*
G75*
G02*
X56005000Y-90225000I-200000J0D01*
G01*
G37*
G36*
G01*
X56005000Y-88575000D02*
X55455000Y-88575000D01*
G75*
G02*
X55255000Y-88375000I0J200000D01*
G01*
X55255000Y-87975000D01*
G75*
G02*
X55455000Y-87775000I200000J0D01*
G01*
X56005000Y-87775000D01*
G75*
G02*
X56205000Y-87975000I0J-200000D01*
G01*
X56205000Y-88375000D01*
G75*
G02*
X56005000Y-88575000I-200000J0D01*
G01*
G37*
G04 #@! TD*
G04 #@! TO.C,R3*
G36*
G01*
X54005000Y-88575000D02*
X53455000Y-88575000D01*
G75*
G02*
X53255000Y-88375000I0J200000D01*
G01*
X53255000Y-87975000D01*
G75*
G02*
X53455000Y-87775000I200000J0D01*
G01*
X54005000Y-87775000D01*
G75*
G02*
X54205000Y-87975000I0J-200000D01*
G01*
X54205000Y-88375000D01*
G75*
G02*
X54005000Y-88575000I-200000J0D01*
G01*
G37*
G36*
G01*
X54005000Y-90225000D02*
X53455000Y-90225000D01*
G75*
G02*
X53255000Y-90025000I0J200000D01*
G01*
X53255000Y-89625000D01*
G75*
G02*
X53455000Y-89425000I200000J0D01*
G01*
X54005000Y-89425000D01*
G75*
G02*
X54205000Y-89625000I0J-200000D01*
G01*
X54205000Y-90025000D01*
G75*
G02*
X54005000Y-90225000I-200000J0D01*
G01*
G37*
G04 #@! TD*
G04 #@! TO.C,R4*
G36*
G01*
X52005000Y-90280001D02*
X51455000Y-90280001D01*
G75*
G02*
X51255000Y-90080001I0J200000D01*
G01*
X51255000Y-89680001D01*
G75*
G02*
X51455000Y-89480001I200000J0D01*
G01*
X52005000Y-89480001D01*
G75*
G02*
X52205000Y-89680001I0J-200000D01*
G01*
X52205000Y-90080001D01*
G75*
G02*
X52005000Y-90280001I-200000J0D01*
G01*
G37*
G36*
G01*
X52005000Y-88630001D02*
X51455000Y-88630001D01*
G75*
G02*
X51255000Y-88430001I0J200000D01*
G01*
X51255000Y-88030001D01*
G75*
G02*
X51455000Y-87830001I200000J0D01*
G01*
X52005000Y-87830001D01*
G75*
G02*
X52205000Y-88030001I0J-200000D01*
G01*
X52205000Y-88430001D01*
G75*
G02*
X52005000Y-88630001I-200000J0D01*
G01*
G37*
G04 #@! TD*
G04 #@! TO.C,R5*
G36*
G01*
X50005000Y-88575000D02*
X49455000Y-88575000D01*
G75*
G02*
X49255000Y-88375000I0J200000D01*
G01*
X49255000Y-87975000D01*
G75*
G02*
X49455000Y-87775000I200000J0D01*
G01*
X50005000Y-87775000D01*
G75*
G02*
X50205000Y-87975000I0J-200000D01*
G01*
X50205000Y-88375000D01*
G75*
G02*
X50005000Y-88575000I-200000J0D01*
G01*
G37*
G36*
G01*
X50005000Y-90225000D02*
X49455000Y-90225000D01*
G75*
G02*
X49255000Y-90025000I0J200000D01*
G01*
X49255000Y-89625000D01*
G75*
G02*
X49455000Y-89425000I200000J0D01*
G01*
X50005000Y-89425000D01*
G75*
G02*
X50205000Y-89625000I0J-200000D01*
G01*
X50205000Y-90025000D01*
G75*
G02*
X50005000Y-90225000I-200000J0D01*
G01*
G37*
G04 #@! TD*
G04 #@! TO.C,R6*
G36*
G01*
X48005000Y-90225000D02*
X47455000Y-90225000D01*
G75*
G02*
X47255000Y-90025000I0J200000D01*
G01*
X47255000Y-89625000D01*
G75*
G02*
X47455000Y-89425000I200000J0D01*
G01*
X48005000Y-89425000D01*
G75*
G02*
X48205000Y-89625000I0J-200000D01*
G01*
X48205000Y-90025000D01*
G75*
G02*
X48005000Y-90225000I-200000J0D01*
G01*
G37*
G36*
G01*
X48005000Y-88575000D02*
X47455000Y-88575000D01*
G75*
G02*
X47255000Y-88375000I0J200000D01*
G01*
X47255000Y-87975000D01*
G75*
G02*
X47455000Y-87775000I200000J0D01*
G01*
X48005000Y-87775000D01*
G75*
G02*
X48205000Y-87975000I0J-200000D01*
G01*
X48205000Y-88375000D01*
G75*
G02*
X48005000Y-88575000I-200000J0D01*
G01*
G37*
G04 #@! TD*
D12*
G04 #@! TO.C,J3*
X56730000Y-62000000D03*
D13*
X58380000Y-64700000D03*
X59030000Y-64700000D03*
X56430000Y-64700000D03*
X57080000Y-64700000D03*
X57730000Y-64700000D03*
D12*
X58730000Y-62000000D03*
G04 #@! TD*
G04 #@! TO.C,D1*
G36*
G01*
X45105000Y-71456250D02*
X45105000Y-70943750D01*
G75*
G02*
X45323750Y-70725000I218750J0D01*
G01*
X45761250Y-70725000D01*
G75*
G02*
X45980000Y-70943750I0J-218750D01*
G01*
X45980000Y-71456250D01*
G75*
G02*
X45761250Y-71675000I-218750J0D01*
G01*
X45323750Y-71675000D01*
G75*
G02*
X45105000Y-71456250I0J218750D01*
G01*
G37*
G36*
G01*
X46680000Y-71456250D02*
X46680000Y-70943750D01*
G75*
G02*
X46898750Y-70725000I218750J0D01*
G01*
X47336250Y-70725000D01*
G75*
G02*
X47555000Y-70943750I0J-218750D01*
G01*
X47555000Y-71456250D01*
G75*
G02*
X47336250Y-71675000I-218750J0D01*
G01*
X46898750Y-71675000D01*
G75*
G02*
X46680000Y-71456250I0J218750D01*
G01*
G37*
G04 #@! TD*
G04 #@! TO.C,R7*
G36*
G01*
X45105000Y-73475000D02*
X45105000Y-72925000D01*
G75*
G02*
X45305000Y-72725000I200000J0D01*
G01*
X45705000Y-72725000D01*
G75*
G02*
X45905000Y-72925000I0J-200000D01*
G01*
X45905000Y-73475000D01*
G75*
G02*
X45705000Y-73675000I-200000J0D01*
G01*
X45305000Y-73675000D01*
G75*
G02*
X45105000Y-73475000I0J200000D01*
G01*
G37*
G36*
G01*
X46755000Y-73475000D02*
X46755000Y-72925000D01*
G75*
G02*
X46955000Y-72725000I200000J0D01*
G01*
X47355000Y-72725000D01*
G75*
G02*
X47555000Y-72925000I0J-200000D01*
G01*
X47555000Y-73475000D01*
G75*
G02*
X47355000Y-73675000I-200000J0D01*
G01*
X46955000Y-73675000D01*
G75*
G02*
X46755000Y-73475000I0J200000D01*
G01*
G37*
G04 #@! TD*
D14*
G04 #@! TO.C,SW1*
X48730000Y-61550000D03*
X48730000Y-68450000D03*
G04 #@! TD*
G04 #@! TO.C,SW2*
X44230000Y-68450000D03*
X44230000Y-61550000D03*
G04 #@! TD*
G04 #@! TO.C,SW3*
X39730000Y-61550000D03*
X39730000Y-68450000D03*
G04 #@! TD*
D15*
G04 #@! TO.C,X1*
X40780000Y-72800000D03*
X40780000Y-75200000D03*
X42680000Y-75200000D03*
X42680000Y-72800000D03*
G04 #@! TD*
M02*
