G04 #@! TF.GenerationSoftware,KiCad,Pcbnew,5.1.10-88a1d61d58~88~ubuntu20.04.1*
G04 #@! TF.CreationDate,2021-07-28T15:35:08+02:00*
G04 #@! TF.ProjectId,carrier,63617272-6965-4722-9e6b-696361645f70,0.1*
G04 #@! TF.SameCoordinates,Original*
G04 #@! TF.FileFunction,Legend,Bot*
G04 #@! TF.FilePolarity,Positive*
%FSLAX46Y46*%
G04 Gerber Fmt 4.6, Leading zero omitted, Abs format (unit mm)*
G04 Created by KiCad (PCBNEW 5.1.10-88a1d61d58~88~ubuntu20.04.1) date 2021-07-28 15:35:08*
%MOMM*%
%LPD*%
G01*
G04 APERTURE LIST*
%ADD10C,0.300000*%
%ADD11C,0.100000*%
%ADD12C,0.150000*%
%ADD13C,0.010000*%
G04 APERTURE END LIST*
D10*
X63360952Y-68683333D02*
X62408571Y-68683333D01*
X63551428Y-69254761D02*
X62884761Y-67254761D01*
X62218095Y-69254761D01*
X61646666Y-69159523D02*
X61360952Y-69254761D01*
X60884761Y-69254761D01*
X60694285Y-69159523D01*
X60599047Y-69064285D01*
X60503809Y-68873809D01*
X60503809Y-68683333D01*
X60599047Y-68492857D01*
X60694285Y-68397619D01*
X60884761Y-68302380D01*
X61265714Y-68207142D01*
X61456190Y-68111904D01*
X61551428Y-68016666D01*
X61646666Y-67826190D01*
X61646666Y-67635714D01*
X61551428Y-67445238D01*
X61456190Y-67350000D01*
X61265714Y-67254761D01*
X60789523Y-67254761D01*
X60503809Y-67350000D01*
X59646666Y-69254761D02*
X59646666Y-67254761D01*
X57551428Y-69064285D02*
X57646666Y-69159523D01*
X57932380Y-69254761D01*
X58122857Y-69254761D01*
X58408571Y-69159523D01*
X58599047Y-68969047D01*
X58694285Y-68778571D01*
X58789523Y-68397619D01*
X58789523Y-68111904D01*
X58694285Y-67730952D01*
X58599047Y-67540476D01*
X58408571Y-67350000D01*
X58122857Y-67254761D01*
X57932380Y-67254761D01*
X57646666Y-67350000D01*
X57551428Y-67445238D01*
X55456190Y-67254761D02*
X54789523Y-69254761D01*
X54122857Y-67254761D01*
X52408571Y-67350000D02*
X52599047Y-67254761D01*
X52884761Y-67254761D01*
X53170476Y-67350000D01*
X53360952Y-67540476D01*
X53456190Y-67730952D01*
X53551428Y-68111904D01*
X53551428Y-68397619D01*
X53456190Y-68778571D01*
X53360952Y-68969047D01*
X53170476Y-69159523D01*
X52884761Y-69254761D01*
X52694285Y-69254761D01*
X52408571Y-69159523D01*
X52313333Y-69064285D01*
X52313333Y-68397619D01*
X52694285Y-68397619D01*
X51551428Y-68683333D02*
X50599047Y-68683333D01*
X51741904Y-69254761D02*
X51075238Y-67254761D01*
X50408571Y-69254761D01*
X59456190Y-72364285D02*
X59551428Y-72459523D01*
X59837142Y-72554761D01*
X60027619Y-72554761D01*
X60313333Y-72459523D01*
X60503809Y-72269047D01*
X60599047Y-72078571D01*
X60694285Y-71697619D01*
X60694285Y-71411904D01*
X60599047Y-71030952D01*
X60503809Y-70840476D01*
X60313333Y-70650000D01*
X60027619Y-70554761D01*
X59837142Y-70554761D01*
X59551428Y-70650000D01*
X59456190Y-70745238D01*
X58313333Y-72554761D02*
X58503809Y-72459523D01*
X58599047Y-72269047D01*
X58599047Y-70554761D01*
X57265714Y-72554761D02*
X57456190Y-72459523D01*
X57551428Y-72364285D01*
X57646666Y-72173809D01*
X57646666Y-71602380D01*
X57551428Y-71411904D01*
X57456190Y-71316666D01*
X57265714Y-71221428D01*
X56980000Y-71221428D01*
X56789523Y-71316666D01*
X56694285Y-71411904D01*
X56599047Y-71602380D01*
X56599047Y-72173809D01*
X56694285Y-72364285D01*
X56789523Y-72459523D01*
X56980000Y-72554761D01*
X57265714Y-72554761D01*
X54884761Y-72459523D02*
X55075238Y-72554761D01*
X55456190Y-72554761D01*
X55646666Y-72459523D01*
X55741904Y-72364285D01*
X55837142Y-72173809D01*
X55837142Y-71602380D01*
X55741904Y-71411904D01*
X55646666Y-71316666D01*
X55456190Y-71221428D01*
X55075238Y-71221428D01*
X54884761Y-71316666D01*
X54027619Y-72554761D02*
X54027619Y-70554761D01*
X53837142Y-71792857D02*
X53265714Y-72554761D01*
X53265714Y-71221428D02*
X54027619Y-71983333D01*
D11*
G36*
X57980000Y-89750000D02*
G01*
X41980000Y-89750000D01*
X41980000Y-82750000D01*
X57980000Y-82750000D01*
X57980000Y-89750000D01*
G37*
X57980000Y-89750000D02*
X41980000Y-89750000D01*
X41980000Y-82750000D01*
X57980000Y-82750000D01*
X57980000Y-89750000D01*
D12*
X54599047Y-91654761D02*
X54456190Y-91702380D01*
X54218095Y-91702380D01*
X54122857Y-91654761D01*
X54075238Y-91607142D01*
X54027619Y-91511904D01*
X54027619Y-91416666D01*
X54075238Y-91321428D01*
X54122857Y-91273809D01*
X54218095Y-91226190D01*
X54408571Y-91178571D01*
X54503809Y-91130952D01*
X54551428Y-91083333D01*
X54599047Y-90988095D01*
X54599047Y-90892857D01*
X54551428Y-90797619D01*
X54503809Y-90750000D01*
X54408571Y-90702380D01*
X54170476Y-90702380D01*
X54027619Y-90750000D01*
X53218095Y-91654761D02*
X53313333Y-91702380D01*
X53503809Y-91702380D01*
X53599047Y-91654761D01*
X53646666Y-91559523D01*
X53646666Y-91178571D01*
X53599047Y-91083333D01*
X53503809Y-91035714D01*
X53313333Y-91035714D01*
X53218095Y-91083333D01*
X53170476Y-91178571D01*
X53170476Y-91273809D01*
X53646666Y-91369047D01*
X52741904Y-91702380D02*
X52741904Y-91035714D01*
X52741904Y-91226190D02*
X52694285Y-91130952D01*
X52646666Y-91083333D01*
X52551428Y-91035714D01*
X52456190Y-91035714D01*
X52122857Y-91702380D02*
X52122857Y-91035714D01*
X52122857Y-90702380D02*
X52170476Y-90750000D01*
X52122857Y-90797619D01*
X52075238Y-90750000D01*
X52122857Y-90702380D01*
X52122857Y-90797619D01*
X51218095Y-91702380D02*
X51218095Y-91178571D01*
X51265714Y-91083333D01*
X51360952Y-91035714D01*
X51551428Y-91035714D01*
X51646666Y-91083333D01*
X51218095Y-91654761D02*
X51313333Y-91702380D01*
X51551428Y-91702380D01*
X51646666Y-91654761D01*
X51694285Y-91559523D01*
X51694285Y-91464285D01*
X51646666Y-91369047D01*
X51551428Y-91321428D01*
X51313333Y-91321428D01*
X51218095Y-91273809D01*
X50599047Y-91702380D02*
X50694285Y-91654761D01*
X50741904Y-91559523D01*
X50741904Y-90702380D01*
X49456190Y-91035714D02*
X49456190Y-91702380D01*
X49456190Y-91130952D02*
X49408571Y-91083333D01*
X49313333Y-91035714D01*
X49170476Y-91035714D01*
X49075238Y-91083333D01*
X49027619Y-91178571D01*
X49027619Y-91702380D01*
X48122857Y-91035714D02*
X48122857Y-91702380D01*
X48551428Y-91035714D02*
X48551428Y-91559523D01*
X48503809Y-91654761D01*
X48408571Y-91702380D01*
X48265714Y-91702380D01*
X48170476Y-91654761D01*
X48122857Y-91607142D01*
X47646666Y-91702380D02*
X47646666Y-91035714D01*
X47646666Y-91130952D02*
X47599047Y-91083333D01*
X47503809Y-91035714D01*
X47360952Y-91035714D01*
X47265714Y-91083333D01*
X47218095Y-91178571D01*
X47218095Y-91702380D01*
X47218095Y-91178571D02*
X47170476Y-91083333D01*
X47075238Y-91035714D01*
X46932380Y-91035714D01*
X46837142Y-91083333D01*
X46789523Y-91178571D01*
X46789523Y-91702380D01*
X46313333Y-91702380D02*
X46313333Y-90702380D01*
X46313333Y-91083333D02*
X46218095Y-91035714D01*
X46027619Y-91035714D01*
X45932380Y-91083333D01*
X45884761Y-91130952D01*
X45837142Y-91226190D01*
X45837142Y-91511904D01*
X45884761Y-91607142D01*
X45932380Y-91654761D01*
X46027619Y-91702380D01*
X46218095Y-91702380D01*
X46313333Y-91654761D01*
X45027619Y-91654761D02*
X45122857Y-91702380D01*
X45313333Y-91702380D01*
X45408571Y-91654761D01*
X45456190Y-91559523D01*
X45456190Y-91178571D01*
X45408571Y-91083333D01*
X45313333Y-91035714D01*
X45122857Y-91035714D01*
X45027619Y-91083333D01*
X44980000Y-91178571D01*
X44980000Y-91273809D01*
X45456190Y-91369047D01*
X44551428Y-91702380D02*
X44551428Y-91035714D01*
X44551428Y-91226190D02*
X44503809Y-91130952D01*
X44456190Y-91083333D01*
X44360952Y-91035714D01*
X44265714Y-91035714D01*
X62872857Y-81452380D02*
X62968095Y-81404761D01*
X63015714Y-81357142D01*
X63063333Y-81261904D01*
X63063333Y-80976190D01*
X63015714Y-80880952D01*
X62968095Y-80833333D01*
X62872857Y-80785714D01*
X62730000Y-80785714D01*
X62634761Y-80833333D01*
X62587142Y-80880952D01*
X62539523Y-80976190D01*
X62539523Y-81261904D01*
X62587142Y-81357142D01*
X62634761Y-81404761D01*
X62730000Y-81452380D01*
X62872857Y-81452380D01*
X62110952Y-80785714D02*
X62110952Y-81785714D01*
X62110952Y-80833333D02*
X62015714Y-80785714D01*
X61825238Y-80785714D01*
X61730000Y-80833333D01*
X61682380Y-80880952D01*
X61634761Y-80976190D01*
X61634761Y-81261904D01*
X61682380Y-81357142D01*
X61730000Y-81404761D01*
X61825238Y-81452380D01*
X62015714Y-81452380D01*
X62110952Y-81404761D01*
X60825238Y-81404761D02*
X60920476Y-81452380D01*
X61110952Y-81452380D01*
X61206190Y-81404761D01*
X61253809Y-81309523D01*
X61253809Y-80928571D01*
X61206190Y-80833333D01*
X61110952Y-80785714D01*
X60920476Y-80785714D01*
X60825238Y-80833333D01*
X60777619Y-80928571D01*
X60777619Y-81023809D01*
X61253809Y-81119047D01*
X60349047Y-80785714D02*
X60349047Y-81452380D01*
X60349047Y-80880952D02*
X60301428Y-80833333D01*
X60206190Y-80785714D01*
X60063333Y-80785714D01*
X59968095Y-80833333D01*
X59920476Y-80928571D01*
X59920476Y-81452380D01*
X58730000Y-81404761D02*
X58634761Y-81452380D01*
X58444285Y-81452380D01*
X58349047Y-81404761D01*
X58301428Y-81309523D01*
X58301428Y-81261904D01*
X58349047Y-81166666D01*
X58444285Y-81119047D01*
X58587142Y-81119047D01*
X58682380Y-81071428D01*
X58730000Y-80976190D01*
X58730000Y-80928571D01*
X58682380Y-80833333D01*
X58587142Y-80785714D01*
X58444285Y-80785714D01*
X58349047Y-80833333D01*
X57730000Y-81452380D02*
X57825238Y-81404761D01*
X57872857Y-81357142D01*
X57920476Y-81261904D01*
X57920476Y-80976190D01*
X57872857Y-80880952D01*
X57825238Y-80833333D01*
X57730000Y-80785714D01*
X57587142Y-80785714D01*
X57491904Y-80833333D01*
X57444285Y-80880952D01*
X57396666Y-80976190D01*
X57396666Y-81261904D01*
X57444285Y-81357142D01*
X57491904Y-81404761D01*
X57587142Y-81452380D01*
X57730000Y-81452380D01*
X56539523Y-80785714D02*
X56539523Y-81452380D01*
X56968095Y-80785714D02*
X56968095Y-81309523D01*
X56920476Y-81404761D01*
X56825238Y-81452380D01*
X56682380Y-81452380D01*
X56587142Y-81404761D01*
X56539523Y-81357142D01*
X56063333Y-81452380D02*
X56063333Y-80785714D01*
X56063333Y-80976190D02*
X56015714Y-80880952D01*
X55968095Y-80833333D01*
X55872857Y-80785714D01*
X55777619Y-80785714D01*
X55015714Y-81404761D02*
X55110952Y-81452380D01*
X55301428Y-81452380D01*
X55396666Y-81404761D01*
X55444285Y-81357142D01*
X55491904Y-81261904D01*
X55491904Y-80976190D01*
X55444285Y-80880952D01*
X55396666Y-80833333D01*
X55301428Y-80785714D01*
X55110952Y-80785714D01*
X55015714Y-80833333D01*
X54206190Y-81404761D02*
X54301428Y-81452380D01*
X54491904Y-81452380D01*
X54587142Y-81404761D01*
X54634761Y-81309523D01*
X54634761Y-80928571D01*
X54587142Y-80833333D01*
X54491904Y-80785714D01*
X54301428Y-80785714D01*
X54206190Y-80833333D01*
X54158571Y-80928571D01*
X54158571Y-81023809D01*
X54634761Y-81119047D01*
X53015714Y-81166666D02*
X52539523Y-81166666D01*
X53110952Y-81452380D02*
X52777619Y-80452380D01*
X52444285Y-81452380D01*
X52158571Y-81404761D02*
X52015714Y-81452380D01*
X51777619Y-81452380D01*
X51682380Y-81404761D01*
X51634761Y-81357142D01*
X51587142Y-81261904D01*
X51587142Y-81166666D01*
X51634761Y-81071428D01*
X51682380Y-81023809D01*
X51777619Y-80976190D01*
X51968095Y-80928571D01*
X52063333Y-80880952D01*
X52110952Y-80833333D01*
X52158571Y-80738095D01*
X52158571Y-80642857D01*
X52110952Y-80547619D01*
X52063333Y-80500000D01*
X51968095Y-80452380D01*
X51730000Y-80452380D01*
X51587142Y-80500000D01*
X51158571Y-81452380D02*
X51158571Y-80452380D01*
X50110952Y-81357142D02*
X50158571Y-81404761D01*
X50301428Y-81452380D01*
X50396666Y-81452380D01*
X50539523Y-81404761D01*
X50634761Y-81309523D01*
X50682380Y-81214285D01*
X50730000Y-81023809D01*
X50730000Y-80880952D01*
X50682380Y-80690476D01*
X50634761Y-80595238D01*
X50539523Y-80500000D01*
X50396666Y-80452380D01*
X50301428Y-80452380D01*
X50158571Y-80500000D01*
X50110952Y-80547619D01*
X49634761Y-81404761D02*
X49634761Y-81452380D01*
X49682380Y-81547619D01*
X49730000Y-81595238D01*
X48444285Y-81452380D02*
X48444285Y-80452380D01*
X48063333Y-80452380D01*
X47968095Y-80500000D01*
X47920476Y-80547619D01*
X47872857Y-80642857D01*
X47872857Y-80785714D01*
X47920476Y-80880952D01*
X47968095Y-80928571D01*
X48063333Y-80976190D01*
X48444285Y-80976190D01*
X46872857Y-81357142D02*
X46920476Y-81404761D01*
X47063333Y-81452380D01*
X47158571Y-81452380D01*
X47301428Y-81404761D01*
X47396666Y-81309523D01*
X47444285Y-81214285D01*
X47491904Y-81023809D01*
X47491904Y-80880952D01*
X47444285Y-80690476D01*
X47396666Y-80595238D01*
X47301428Y-80500000D01*
X47158571Y-80452380D01*
X47063333Y-80452380D01*
X46920476Y-80500000D01*
X46872857Y-80547619D01*
X46110952Y-80928571D02*
X45968095Y-80976190D01*
X45920476Y-81023809D01*
X45872857Y-81119047D01*
X45872857Y-81261904D01*
X45920476Y-81357142D01*
X45968095Y-81404761D01*
X46063333Y-81452380D01*
X46444285Y-81452380D01*
X46444285Y-80452380D01*
X46110952Y-80452380D01*
X46015714Y-80500000D01*
X45968095Y-80547619D01*
X45920476Y-80642857D01*
X45920476Y-80738095D01*
X45968095Y-80833333D01*
X46015714Y-80880952D01*
X46110952Y-80928571D01*
X46444285Y-80928571D01*
X43872857Y-81452380D02*
X43920476Y-81452380D01*
X44015714Y-81404761D01*
X44158571Y-81261904D01*
X44396666Y-80976190D01*
X44491904Y-80833333D01*
X44539523Y-80690476D01*
X44539523Y-80595238D01*
X44491904Y-80500000D01*
X44396666Y-80452380D01*
X44349047Y-80452380D01*
X44253809Y-80500000D01*
X44206190Y-80595238D01*
X44206190Y-80642857D01*
X44253809Y-80738095D01*
X44301428Y-80785714D01*
X44587142Y-80976190D01*
X44634761Y-81023809D01*
X44682380Y-81119047D01*
X44682380Y-81261904D01*
X44634761Y-81357142D01*
X44587142Y-81404761D01*
X44491904Y-81452380D01*
X44349047Y-81452380D01*
X44253809Y-81404761D01*
X44206190Y-81357142D01*
X44063333Y-81166666D01*
X44015714Y-81023809D01*
X44015714Y-80928571D01*
X42349047Y-80928571D02*
X42682380Y-80928571D01*
X42682380Y-81452380D02*
X42682380Y-80452380D01*
X42206190Y-80452380D01*
X41825238Y-81452380D02*
X41825238Y-80785714D01*
X41825238Y-80452380D02*
X41872857Y-80500000D01*
X41825238Y-80547619D01*
X41777619Y-80500000D01*
X41825238Y-80452380D01*
X41825238Y-80547619D01*
X41349047Y-81452380D02*
X41349047Y-80785714D01*
X41349047Y-80976190D02*
X41301428Y-80880952D01*
X41253809Y-80833333D01*
X41158571Y-80785714D01*
X41063333Y-80785714D01*
X40730000Y-81452380D02*
X40730000Y-80785714D01*
X40730000Y-80880952D02*
X40682380Y-80833333D01*
X40587142Y-80785714D01*
X40444285Y-80785714D01*
X40349047Y-80833333D01*
X40301428Y-80928571D01*
X40301428Y-81452380D01*
X40301428Y-80928571D02*
X40253809Y-80833333D01*
X40158571Y-80785714D01*
X40015714Y-80785714D01*
X39920476Y-80833333D01*
X39872857Y-80928571D01*
X39872857Y-81452380D01*
X39491904Y-80785714D02*
X39301428Y-81452380D01*
X39110952Y-80976190D01*
X38920476Y-81452380D01*
X38730000Y-80785714D01*
X37920476Y-81452380D02*
X37920476Y-80928571D01*
X37968095Y-80833333D01*
X38063333Y-80785714D01*
X38253809Y-80785714D01*
X38349047Y-80833333D01*
X37920476Y-81404761D02*
X38015714Y-81452380D01*
X38253809Y-81452380D01*
X38349047Y-81404761D01*
X38396666Y-81309523D01*
X38396666Y-81214285D01*
X38349047Y-81119047D01*
X38253809Y-81071428D01*
X38015714Y-81071428D01*
X37920476Y-81023809D01*
X37444285Y-81452380D02*
X37444285Y-80785714D01*
X37444285Y-80976190D02*
X37396666Y-80880952D01*
X37349047Y-80833333D01*
X37253809Y-80785714D01*
X37158571Y-80785714D01*
X36444285Y-81404761D02*
X36539523Y-81452380D01*
X36730000Y-81452380D01*
X36825238Y-81404761D01*
X36872857Y-81309523D01*
X36872857Y-80928571D01*
X36825238Y-80833333D01*
X36730000Y-80785714D01*
X36539523Y-80785714D01*
X36444285Y-80833333D01*
X36396666Y-80928571D01*
X36396666Y-81023809D01*
X36872857Y-81119047D01*
X55515714Y-78452380D02*
X55515714Y-77452380D01*
X55182380Y-78166666D01*
X54849047Y-77452380D01*
X54849047Y-78452380D01*
X53944285Y-78452380D02*
X53944285Y-77928571D01*
X53991904Y-77833333D01*
X54087142Y-77785714D01*
X54277619Y-77785714D01*
X54372857Y-77833333D01*
X53944285Y-78404761D02*
X54039523Y-78452380D01*
X54277619Y-78452380D01*
X54372857Y-78404761D01*
X54420476Y-78309523D01*
X54420476Y-78214285D01*
X54372857Y-78119047D01*
X54277619Y-78071428D01*
X54039523Y-78071428D01*
X53944285Y-78023809D01*
X53610952Y-77785714D02*
X53230000Y-77785714D01*
X53468095Y-77452380D02*
X53468095Y-78309523D01*
X53420476Y-78404761D01*
X53325238Y-78452380D01*
X53230000Y-78452380D01*
X53039523Y-77785714D02*
X52658571Y-77785714D01*
X52896666Y-77452380D02*
X52896666Y-78309523D01*
X52849047Y-78404761D01*
X52753809Y-78452380D01*
X52658571Y-78452380D01*
X51706190Y-77452380D02*
X51372857Y-78452380D01*
X51039523Y-77452380D01*
X50325238Y-78404761D02*
X50420476Y-78452380D01*
X50610952Y-78452380D01*
X50706190Y-78404761D01*
X50753809Y-78309523D01*
X50753809Y-77928571D01*
X50706190Y-77833333D01*
X50610952Y-77785714D01*
X50420476Y-77785714D01*
X50325238Y-77833333D01*
X50277619Y-77928571D01*
X50277619Y-78023809D01*
X50753809Y-78119047D01*
X49849047Y-77785714D02*
X49849047Y-78452380D01*
X49849047Y-77880952D02*
X49801428Y-77833333D01*
X49706190Y-77785714D01*
X49563333Y-77785714D01*
X49468095Y-77833333D01*
X49420476Y-77928571D01*
X49420476Y-78452380D01*
X48944285Y-77785714D02*
X48944285Y-78452380D01*
X48944285Y-77880952D02*
X48896666Y-77833333D01*
X48801428Y-77785714D01*
X48658571Y-77785714D01*
X48563333Y-77833333D01*
X48515714Y-77928571D01*
X48515714Y-78452380D01*
X47325238Y-77547619D02*
X47277619Y-77500000D01*
X47182380Y-77452380D01*
X46944285Y-77452380D01*
X46849047Y-77500000D01*
X46801428Y-77547619D01*
X46753809Y-77642857D01*
X46753809Y-77738095D01*
X46801428Y-77880952D01*
X47372857Y-78452380D01*
X46753809Y-78452380D01*
X46134761Y-77452380D02*
X46039523Y-77452380D01*
X45944285Y-77500000D01*
X45896666Y-77547619D01*
X45849047Y-77642857D01*
X45801428Y-77833333D01*
X45801428Y-78071428D01*
X45849047Y-78261904D01*
X45896666Y-78357142D01*
X45944285Y-78404761D01*
X46039523Y-78452380D01*
X46134761Y-78452380D01*
X46230000Y-78404761D01*
X46277619Y-78357142D01*
X46325238Y-78261904D01*
X46372857Y-78071428D01*
X46372857Y-77833333D01*
X46325238Y-77642857D01*
X46277619Y-77547619D01*
X46230000Y-77500000D01*
X46134761Y-77452380D01*
X45420476Y-77547619D02*
X45372857Y-77500000D01*
X45277619Y-77452380D01*
X45039523Y-77452380D01*
X44944285Y-77500000D01*
X44896666Y-77547619D01*
X44849047Y-77642857D01*
X44849047Y-77738095D01*
X44896666Y-77880952D01*
X45468095Y-78452380D01*
X44849047Y-78452380D01*
X43896666Y-78452380D02*
X44468095Y-78452380D01*
X44182380Y-78452380D02*
X44182380Y-77452380D01*
X44277619Y-77595238D01*
X44372857Y-77690476D01*
X44468095Y-77738095D01*
X58287142Y-76452380D02*
X58287142Y-75452380D01*
X58287142Y-75833333D02*
X58191904Y-75785714D01*
X58001428Y-75785714D01*
X57906190Y-75833333D01*
X57858571Y-75880952D01*
X57810952Y-75976190D01*
X57810952Y-76261904D01*
X57858571Y-76357142D01*
X57906190Y-76404761D01*
X58001428Y-76452380D01*
X58191904Y-76452380D01*
X58287142Y-76404761D01*
X57239523Y-76452380D02*
X57334761Y-76404761D01*
X57382380Y-76357142D01*
X57430000Y-76261904D01*
X57430000Y-75976190D01*
X57382380Y-75880952D01*
X57334761Y-75833333D01*
X57239523Y-75785714D01*
X57096666Y-75785714D01*
X57001428Y-75833333D01*
X56953809Y-75880952D01*
X56906190Y-75976190D01*
X56906190Y-76261904D01*
X56953809Y-76357142D01*
X57001428Y-76404761D01*
X57096666Y-76452380D01*
X57239523Y-76452380D01*
X56049047Y-76452380D02*
X56049047Y-75928571D01*
X56096666Y-75833333D01*
X56191904Y-75785714D01*
X56382380Y-75785714D01*
X56477619Y-75833333D01*
X56049047Y-76404761D02*
X56144285Y-76452380D01*
X56382380Y-76452380D01*
X56477619Y-76404761D01*
X56525238Y-76309523D01*
X56525238Y-76214285D01*
X56477619Y-76119047D01*
X56382380Y-76071428D01*
X56144285Y-76071428D01*
X56049047Y-76023809D01*
X55572857Y-76452380D02*
X55572857Y-75785714D01*
X55572857Y-75976190D02*
X55525238Y-75880952D01*
X55477619Y-75833333D01*
X55382380Y-75785714D01*
X55287142Y-75785714D01*
X54525238Y-76452380D02*
X54525238Y-75452380D01*
X54525238Y-76404761D02*
X54620476Y-76452380D01*
X54810952Y-76452380D01*
X54906190Y-76404761D01*
X54953809Y-76357142D01*
X55001428Y-76261904D01*
X55001428Y-75976190D01*
X54953809Y-75880952D01*
X54906190Y-75833333D01*
X54810952Y-75785714D01*
X54620476Y-75785714D01*
X54525238Y-75833333D01*
X54096666Y-76404761D02*
X54001428Y-76452380D01*
X53810952Y-76452380D01*
X53715714Y-76404761D01*
X53668095Y-76309523D01*
X53668095Y-76261904D01*
X53715714Y-76166666D01*
X53810952Y-76119047D01*
X53953809Y-76119047D01*
X54049047Y-76071428D01*
X54096666Y-75976190D01*
X54096666Y-75928571D01*
X54049047Y-75833333D01*
X53953809Y-75785714D01*
X53810952Y-75785714D01*
X53715714Y-75833333D01*
X52477619Y-76452380D02*
X52477619Y-75452380D01*
X52477619Y-75833333D02*
X52382380Y-75785714D01*
X52191904Y-75785714D01*
X52096666Y-75833333D01*
X52049047Y-75880952D01*
X52001428Y-75976190D01*
X52001428Y-76261904D01*
X52049047Y-76357142D01*
X52096666Y-76404761D01*
X52191904Y-76452380D01*
X52382380Y-76452380D01*
X52477619Y-76404761D01*
X51668095Y-75785714D02*
X51430000Y-76452380D01*
X51191904Y-75785714D02*
X51430000Y-76452380D01*
X51525238Y-76690476D01*
X51572857Y-76738095D01*
X51668095Y-76785714D01*
X49858571Y-75452380D02*
X49668095Y-75452380D01*
X49572857Y-75500000D01*
X49477619Y-75595238D01*
X49430000Y-75785714D01*
X49430000Y-76119047D01*
X49477619Y-76309523D01*
X49572857Y-76404761D01*
X49668095Y-76452380D01*
X49858571Y-76452380D01*
X49953809Y-76404761D01*
X50049047Y-76309523D01*
X50096666Y-76119047D01*
X50096666Y-75785714D01*
X50049047Y-75595238D01*
X49953809Y-75500000D01*
X49858571Y-75452380D01*
X49049047Y-76404761D02*
X48906190Y-76452380D01*
X48668095Y-76452380D01*
X48572857Y-76404761D01*
X48525238Y-76357142D01*
X48477619Y-76261904D01*
X48477619Y-76166666D01*
X48525238Y-76071428D01*
X48572857Y-76023809D01*
X48668095Y-75976190D01*
X48858571Y-75928571D01*
X48953809Y-75880952D01*
X49001428Y-75833333D01*
X49049047Y-75738095D01*
X49049047Y-75642857D01*
X49001428Y-75547619D01*
X48953809Y-75500000D01*
X48858571Y-75452380D01*
X48620476Y-75452380D01*
X48477619Y-75500000D01*
X48049047Y-76452380D02*
X48049047Y-75452380D01*
X48049047Y-75928571D02*
X47477619Y-75928571D01*
X47477619Y-76452380D02*
X47477619Y-75452380D01*
X47001428Y-76452380D02*
X47001428Y-75452380D01*
X46620476Y-75452380D01*
X46525238Y-75500000D01*
X46477619Y-75547619D01*
X46430000Y-75642857D01*
X46430000Y-75785714D01*
X46477619Y-75880952D01*
X46525238Y-75928571D01*
X46620476Y-75976190D01*
X47001428Y-75976190D01*
X45572857Y-76452380D02*
X45572857Y-75928571D01*
X45620476Y-75833333D01*
X45715714Y-75785714D01*
X45906190Y-75785714D01*
X46001428Y-75833333D01*
X45572857Y-76404761D02*
X45668095Y-76452380D01*
X45906190Y-76452380D01*
X46001428Y-76404761D01*
X46049047Y-76309523D01*
X46049047Y-76214285D01*
X46001428Y-76119047D01*
X45906190Y-76071428D01*
X45668095Y-76071428D01*
X45572857Y-76023809D01*
X45096666Y-76452380D02*
X45096666Y-75785714D01*
X45096666Y-75976190D02*
X45049047Y-75880952D01*
X45001428Y-75833333D01*
X44906190Y-75785714D01*
X44810952Y-75785714D01*
X44477619Y-76452380D02*
X44477619Y-75452380D01*
X44382380Y-76071428D02*
X44096666Y-76452380D01*
X44096666Y-75785714D02*
X44477619Y-76166666D01*
X43668095Y-76357142D02*
X43620476Y-76404761D01*
X43668095Y-76452380D01*
X43715714Y-76404761D01*
X43668095Y-76357142D01*
X43668095Y-76452380D01*
X42763333Y-76404761D02*
X42858571Y-76452380D01*
X43049047Y-76452380D01*
X43144285Y-76404761D01*
X43191904Y-76357142D01*
X43239523Y-76261904D01*
X43239523Y-75976190D01*
X43191904Y-75880952D01*
X43144285Y-75833333D01*
X43049047Y-75785714D01*
X42858571Y-75785714D01*
X42763333Y-75833333D01*
X42191904Y-76452380D02*
X42287142Y-76404761D01*
X42334761Y-76357142D01*
X42382380Y-76261904D01*
X42382380Y-75976190D01*
X42334761Y-75880952D01*
X42287142Y-75833333D01*
X42191904Y-75785714D01*
X42049047Y-75785714D01*
X41953809Y-75833333D01*
X41906190Y-75880952D01*
X41858571Y-75976190D01*
X41858571Y-76261904D01*
X41906190Y-76357142D01*
X41953809Y-76404761D01*
X42049047Y-76452380D01*
X42191904Y-76452380D01*
X41430000Y-76452380D02*
X41430000Y-75785714D01*
X41430000Y-75880952D02*
X41382380Y-75833333D01*
X41287142Y-75785714D01*
X41144285Y-75785714D01*
X41049047Y-75833333D01*
X41001428Y-75928571D01*
X41001428Y-76452380D01*
X41001428Y-75928571D02*
X40953809Y-75833333D01*
X40858571Y-75785714D01*
X40715714Y-75785714D01*
X40620476Y-75833333D01*
X40572857Y-75928571D01*
X40572857Y-76452380D01*
D13*
G04 #@! TO.C,G\u002A\u002A\u002A*
G36*
X40099359Y-72837671D02*
G01*
X40055944Y-72859325D01*
X39991149Y-72921303D01*
X39966151Y-73001202D01*
X39977371Y-73083438D01*
X40021227Y-73152428D01*
X40094140Y-73192587D01*
X40133555Y-73197112D01*
X40209782Y-73177512D01*
X40258166Y-73143307D01*
X40297821Y-73062090D01*
X40294275Y-72970783D01*
X40251089Y-72890905D01*
X40211166Y-72859325D01*
X40149606Y-72831999D01*
X40099359Y-72837671D01*
G37*
X40099359Y-72837671D02*
X40055944Y-72859325D01*
X39991149Y-72921303D01*
X39966151Y-73001202D01*
X39977371Y-73083438D01*
X40021227Y-73152428D01*
X40094140Y-73192587D01*
X40133555Y-73197112D01*
X40209782Y-73177512D01*
X40258166Y-73143307D01*
X40297821Y-73062090D01*
X40294275Y-72970783D01*
X40251089Y-72890905D01*
X40211166Y-72859325D01*
X40149606Y-72831999D01*
X40099359Y-72837671D01*
G36*
X41749061Y-72886363D02*
G01*
X41747544Y-72887766D01*
X41698599Y-72965449D01*
X41694658Y-73050945D01*
X41729491Y-73128420D01*
X41796869Y-73182036D01*
X41869222Y-73197112D01*
X41942224Y-73177483D01*
X41996222Y-73140667D01*
X42045250Y-73064342D01*
X42040558Y-72982845D01*
X41994174Y-72904584D01*
X41918321Y-72843404D01*
X41834413Y-72837180D01*
X41749061Y-72886363D01*
G37*
X41749061Y-72886363D02*
X41747544Y-72887766D01*
X41698599Y-72965449D01*
X41694658Y-73050945D01*
X41729491Y-73128420D01*
X41796869Y-73182036D01*
X41869222Y-73197112D01*
X41942224Y-73177483D01*
X41996222Y-73140667D01*
X42045250Y-73064342D01*
X42040558Y-72982845D01*
X41994174Y-72904584D01*
X41918321Y-72843404D01*
X41834413Y-72837180D01*
X41749061Y-72886363D01*
G36*
X43546938Y-72849443D02*
G01*
X43482139Y-72895678D01*
X43429006Y-72951790D01*
X43407333Y-73000128D01*
X43423608Y-73058743D01*
X43460978Y-73127440D01*
X43502266Y-73174819D01*
X43503280Y-73175513D01*
X43579796Y-73196337D01*
X43665341Y-73176932D01*
X43717778Y-73140667D01*
X43760476Y-73073433D01*
X43774222Y-73013667D01*
X43751195Y-72934313D01*
X43694231Y-72867180D01*
X43621507Y-72831813D01*
X43603606Y-72830223D01*
X43546938Y-72849443D01*
G37*
X43546938Y-72849443D02*
X43482139Y-72895678D01*
X43429006Y-72951790D01*
X43407333Y-73000128D01*
X43423608Y-73058743D01*
X43460978Y-73127440D01*
X43502266Y-73174819D01*
X43503280Y-73175513D01*
X43579796Y-73196337D01*
X43665341Y-73176932D01*
X43717778Y-73140667D01*
X43760476Y-73073433D01*
X43774222Y-73013667D01*
X43751195Y-72934313D01*
X43694231Y-72867180D01*
X43621507Y-72831813D01*
X43603606Y-72830223D01*
X43546938Y-72849443D01*
G36*
X45292248Y-72837671D02*
G01*
X45248833Y-72859325D01*
X45184038Y-72921303D01*
X45159040Y-73001202D01*
X45170260Y-73083438D01*
X45214116Y-73152428D01*
X45287028Y-73192587D01*
X45326444Y-73197112D01*
X45402671Y-73177512D01*
X45451055Y-73143307D01*
X45490710Y-73062090D01*
X45487164Y-72970783D01*
X45443978Y-72890905D01*
X45404055Y-72859325D01*
X45342495Y-72831999D01*
X45292248Y-72837671D01*
G37*
X45292248Y-72837671D02*
X45248833Y-72859325D01*
X45184038Y-72921303D01*
X45159040Y-73001202D01*
X45170260Y-73083438D01*
X45214116Y-73152428D01*
X45287028Y-73192587D01*
X45326444Y-73197112D01*
X45402671Y-73177512D01*
X45451055Y-73143307D01*
X45490710Y-73062090D01*
X45487164Y-72970783D01*
X45443978Y-72890905D01*
X45404055Y-72859325D01*
X45342495Y-72831999D01*
X45292248Y-72837671D01*
G36*
X37023940Y-64084418D02*
G01*
X36954248Y-64092716D01*
X36928141Y-64104794D01*
X36928795Y-64107066D01*
X36941084Y-64144678D01*
X36962188Y-64227889D01*
X36989891Y-64346945D01*
X37021978Y-64492088D01*
X37056236Y-64653563D01*
X37086333Y-64801000D01*
X37102922Y-64880718D01*
X37127480Y-64995014D01*
X37155590Y-65123397D01*
X37165455Y-65167889D01*
X37191549Y-65286373D01*
X37225695Y-65443190D01*
X37264237Y-65621455D01*
X37303519Y-65804286D01*
X37321317Y-65887556D01*
X37360010Y-66068271D01*
X37400013Y-66253957D01*
X37437556Y-66427198D01*
X37468874Y-66570582D01*
X37480068Y-66621334D01*
X37509890Y-66756861D01*
X37546737Y-66925722D01*
X37585851Y-67106048D01*
X37621290Y-67270445D01*
X37658042Y-67441096D01*
X37697053Y-67621384D01*
X37733580Y-67789444D01*
X37762036Y-67919556D01*
X37794524Y-68068220D01*
X37828817Y-68226531D01*
X37858800Y-68366225D01*
X37865840Y-68399334D01*
X37894457Y-68533117D01*
X37924882Y-68673468D01*
X37948388Y-68780334D01*
X37968856Y-68874039D01*
X37997148Y-69005880D01*
X38029610Y-69158727D01*
X38062586Y-69315448D01*
X38064294Y-69323612D01*
X38142520Y-69697556D01*
X38347816Y-69697556D01*
X38453729Y-69696337D01*
X38515198Y-69690284D01*
X38544207Y-69675802D01*
X38552742Y-69649295D01*
X38553111Y-69635978D01*
X38559935Y-69579568D01*
X38577956Y-69487223D01*
X38603502Y-69377458D01*
X38607711Y-69360811D01*
X38634802Y-69250818D01*
X38669561Y-69103868D01*
X38707747Y-68938178D01*
X38745115Y-68771963D01*
X38749505Y-68752112D01*
X38786580Y-68586910D01*
X38825151Y-68419780D01*
X38860932Y-68269010D01*
X38889639Y-68152890D01*
X38892461Y-68141939D01*
X38919253Y-68031163D01*
X38939006Y-67935311D01*
X38948023Y-67872628D01*
X38948222Y-67866772D01*
X38959392Y-67818960D01*
X38976444Y-67806667D01*
X39003931Y-67816674D01*
X39004666Y-67819606D01*
X39010643Y-67850452D01*
X39027169Y-67926995D01*
X39052142Y-68039927D01*
X39083456Y-68179938D01*
X39119009Y-68337717D01*
X39156696Y-68503956D01*
X39194413Y-68669344D01*
X39230056Y-68824572D01*
X39261521Y-68960330D01*
X39285572Y-69062556D01*
X39319407Y-69205449D01*
X39355988Y-69361138D01*
X39386704Y-69492945D01*
X39434080Y-69697556D01*
X39819652Y-69697556D01*
X39836755Y-69563500D01*
X39847880Y-69482448D01*
X39865359Y-69362168D01*
X39886753Y-69219188D01*
X39908594Y-69076667D01*
X39938287Y-68883947D01*
X39967678Y-68690145D01*
X39998609Y-68482868D01*
X40032925Y-68249723D01*
X40072468Y-67978316D01*
X40091213Y-67849000D01*
X40115493Y-67684242D01*
X40144380Y-67492619D01*
X40173499Y-67302991D01*
X40189623Y-67199889D01*
X40212551Y-67052029D01*
X40233890Y-66909763D01*
X40251050Y-66790626D01*
X40260482Y-66720112D01*
X40273517Y-66627435D01*
X40286833Y-66552514D01*
X40292287Y-66529612D01*
X40293732Y-66503745D01*
X40271984Y-66488828D01*
X40216188Y-66481957D01*
X40115492Y-66480226D01*
X40107773Y-66480223D01*
X40003192Y-66481705D01*
X39941972Y-66488756D01*
X39911054Y-66505281D01*
X39897377Y-66535185D01*
X39895432Y-66543723D01*
X39887448Y-66589746D01*
X39876015Y-66669373D01*
X39860798Y-66785383D01*
X39841462Y-66940556D01*
X39817672Y-67137672D01*
X39789093Y-67379510D01*
X39755390Y-67668850D01*
X39716228Y-68008471D01*
X39671272Y-68401154D01*
X39666648Y-68441667D01*
X39644296Y-68635953D01*
X39626909Y-68781212D01*
X39613277Y-68884526D01*
X39602190Y-68952973D01*
X39592440Y-68993634D01*
X39582817Y-69013589D01*
X39572111Y-69019917D01*
X39567832Y-69020223D01*
X39541456Y-69001789D01*
X39540889Y-68997065D01*
X39535203Y-68961046D01*
X39519922Y-68883212D01*
X39497713Y-68776848D01*
X39482812Y-68707787D01*
X39454166Y-68574770D01*
X39427260Y-68446779D01*
X39406430Y-68344560D01*
X39400607Y-68314667D01*
X39385126Y-68236842D01*
X39361221Y-68120865D01*
X39331952Y-67981146D01*
X39300379Y-67832095D01*
X39269562Y-67688121D01*
X39242561Y-67563634D01*
X39222434Y-67473043D01*
X39216074Y-67445662D01*
X39204654Y-67413078D01*
X39181468Y-67394488D01*
X39133898Y-67386814D01*
X39049328Y-67386981D01*
X38984615Y-67389217D01*
X38905440Y-67391086D01*
X38846569Y-67394623D01*
X38803411Y-67407113D01*
X38771373Y-67435840D01*
X38745865Y-67488086D01*
X38722293Y-67571137D01*
X38696067Y-67692274D01*
X38662594Y-67858783D01*
X38650272Y-67919556D01*
X38618672Y-68072944D01*
X38587008Y-68224117D01*
X38559120Y-68354892D01*
X38540072Y-68441667D01*
X38514234Y-68557380D01*
X38483257Y-68697832D01*
X38453906Y-68832343D01*
X38427649Y-68937607D01*
X38403279Y-69006472D01*
X38384037Y-69030236D01*
X38380826Y-69028560D01*
X38367495Y-68993583D01*
X38344669Y-68908639D01*
X38313567Y-68779179D01*
X38275409Y-68610656D01*
X38231414Y-68408521D01*
X38182801Y-68178224D01*
X38130790Y-67925219D01*
X38101194Y-67778445D01*
X38087450Y-67711190D01*
X38064366Y-67599734D01*
X38034239Y-67455108D01*
X37999368Y-67288344D01*
X37962050Y-67110472D01*
X37960083Y-67101112D01*
X37922701Y-66922963D01*
X37887645Y-66755348D01*
X37857215Y-66609298D01*
X37833707Y-66495842D01*
X37819420Y-66426013D01*
X37818972Y-66423778D01*
X37804462Y-66352675D01*
X37780504Y-66236775D01*
X37749279Y-66086514D01*
X37712967Y-65912327D01*
X37673751Y-65724652D01*
X37633811Y-65533924D01*
X37595330Y-65350579D01*
X37560489Y-65185054D01*
X37531469Y-65047784D01*
X37524010Y-65012667D01*
X37485637Y-64830977D01*
X37448300Y-64651846D01*
X37413783Y-64484072D01*
X37383867Y-64336447D01*
X37360336Y-64217769D01*
X37344971Y-64136833D01*
X37339555Y-64102546D01*
X37313630Y-64092442D01*
X37245011Y-64084951D01*
X37147438Y-64081439D01*
X37126223Y-64081334D01*
X37023940Y-64084418D01*
G37*
X37023940Y-64084418D02*
X36954248Y-64092716D01*
X36928141Y-64104794D01*
X36928795Y-64107066D01*
X36941084Y-64144678D01*
X36962188Y-64227889D01*
X36989891Y-64346945D01*
X37021978Y-64492088D01*
X37056236Y-64653563D01*
X37086333Y-64801000D01*
X37102922Y-64880718D01*
X37127480Y-64995014D01*
X37155590Y-65123397D01*
X37165455Y-65167889D01*
X37191549Y-65286373D01*
X37225695Y-65443190D01*
X37264237Y-65621455D01*
X37303519Y-65804286D01*
X37321317Y-65887556D01*
X37360010Y-66068271D01*
X37400013Y-66253957D01*
X37437556Y-66427198D01*
X37468874Y-66570582D01*
X37480068Y-66621334D01*
X37509890Y-66756861D01*
X37546737Y-66925722D01*
X37585851Y-67106048D01*
X37621290Y-67270445D01*
X37658042Y-67441096D01*
X37697053Y-67621384D01*
X37733580Y-67789444D01*
X37762036Y-67919556D01*
X37794524Y-68068220D01*
X37828817Y-68226531D01*
X37858800Y-68366225D01*
X37865840Y-68399334D01*
X37894457Y-68533117D01*
X37924882Y-68673468D01*
X37948388Y-68780334D01*
X37968856Y-68874039D01*
X37997148Y-69005880D01*
X38029610Y-69158727D01*
X38062586Y-69315448D01*
X38064294Y-69323612D01*
X38142520Y-69697556D01*
X38347816Y-69697556D01*
X38453729Y-69696337D01*
X38515198Y-69690284D01*
X38544207Y-69675802D01*
X38552742Y-69649295D01*
X38553111Y-69635978D01*
X38559935Y-69579568D01*
X38577956Y-69487223D01*
X38603502Y-69377458D01*
X38607711Y-69360811D01*
X38634802Y-69250818D01*
X38669561Y-69103868D01*
X38707747Y-68938178D01*
X38745115Y-68771963D01*
X38749505Y-68752112D01*
X38786580Y-68586910D01*
X38825151Y-68419780D01*
X38860932Y-68269010D01*
X38889639Y-68152890D01*
X38892461Y-68141939D01*
X38919253Y-68031163D01*
X38939006Y-67935311D01*
X38948023Y-67872628D01*
X38948222Y-67866772D01*
X38959392Y-67818960D01*
X38976444Y-67806667D01*
X39003931Y-67816674D01*
X39004666Y-67819606D01*
X39010643Y-67850452D01*
X39027169Y-67926995D01*
X39052142Y-68039927D01*
X39083456Y-68179938D01*
X39119009Y-68337717D01*
X39156696Y-68503956D01*
X39194413Y-68669344D01*
X39230056Y-68824572D01*
X39261521Y-68960330D01*
X39285572Y-69062556D01*
X39319407Y-69205449D01*
X39355988Y-69361138D01*
X39386704Y-69492945D01*
X39434080Y-69697556D01*
X39819652Y-69697556D01*
X39836755Y-69563500D01*
X39847880Y-69482448D01*
X39865359Y-69362168D01*
X39886753Y-69219188D01*
X39908594Y-69076667D01*
X39938287Y-68883947D01*
X39967678Y-68690145D01*
X39998609Y-68482868D01*
X40032925Y-68249723D01*
X40072468Y-67978316D01*
X40091213Y-67849000D01*
X40115493Y-67684242D01*
X40144380Y-67492619D01*
X40173499Y-67302991D01*
X40189623Y-67199889D01*
X40212551Y-67052029D01*
X40233890Y-66909763D01*
X40251050Y-66790626D01*
X40260482Y-66720112D01*
X40273517Y-66627435D01*
X40286833Y-66552514D01*
X40292287Y-66529612D01*
X40293732Y-66503745D01*
X40271984Y-66488828D01*
X40216188Y-66481957D01*
X40115492Y-66480226D01*
X40107773Y-66480223D01*
X40003192Y-66481705D01*
X39941972Y-66488756D01*
X39911054Y-66505281D01*
X39897377Y-66535185D01*
X39895432Y-66543723D01*
X39887448Y-66589746D01*
X39876015Y-66669373D01*
X39860798Y-66785383D01*
X39841462Y-66940556D01*
X39817672Y-67137672D01*
X39789093Y-67379510D01*
X39755390Y-67668850D01*
X39716228Y-68008471D01*
X39671272Y-68401154D01*
X39666648Y-68441667D01*
X39644296Y-68635953D01*
X39626909Y-68781212D01*
X39613277Y-68884526D01*
X39602190Y-68952973D01*
X39592440Y-68993634D01*
X39582817Y-69013589D01*
X39572111Y-69019917D01*
X39567832Y-69020223D01*
X39541456Y-69001789D01*
X39540889Y-68997065D01*
X39535203Y-68961046D01*
X39519922Y-68883212D01*
X39497713Y-68776848D01*
X39482812Y-68707787D01*
X39454166Y-68574770D01*
X39427260Y-68446779D01*
X39406430Y-68344560D01*
X39400607Y-68314667D01*
X39385126Y-68236842D01*
X39361221Y-68120865D01*
X39331952Y-67981146D01*
X39300379Y-67832095D01*
X39269562Y-67688121D01*
X39242561Y-67563634D01*
X39222434Y-67473043D01*
X39216074Y-67445662D01*
X39204654Y-67413078D01*
X39181468Y-67394488D01*
X39133898Y-67386814D01*
X39049328Y-67386981D01*
X38984615Y-67389217D01*
X38905440Y-67391086D01*
X38846569Y-67394623D01*
X38803411Y-67407113D01*
X38771373Y-67435840D01*
X38745865Y-67488086D01*
X38722293Y-67571137D01*
X38696067Y-67692274D01*
X38662594Y-67858783D01*
X38650272Y-67919556D01*
X38618672Y-68072944D01*
X38587008Y-68224117D01*
X38559120Y-68354892D01*
X38540072Y-68441667D01*
X38514234Y-68557380D01*
X38483257Y-68697832D01*
X38453906Y-68832343D01*
X38427649Y-68937607D01*
X38403279Y-69006472D01*
X38384037Y-69030236D01*
X38380826Y-69028560D01*
X38367495Y-68993583D01*
X38344669Y-68908639D01*
X38313567Y-68779179D01*
X38275409Y-68610656D01*
X38231414Y-68408521D01*
X38182801Y-68178224D01*
X38130790Y-67925219D01*
X38101194Y-67778445D01*
X38087450Y-67711190D01*
X38064366Y-67599734D01*
X38034239Y-67455108D01*
X37999368Y-67288344D01*
X37962050Y-67110472D01*
X37960083Y-67101112D01*
X37922701Y-66922963D01*
X37887645Y-66755348D01*
X37857215Y-66609298D01*
X37833707Y-66495842D01*
X37819420Y-66426013D01*
X37818972Y-66423778D01*
X37804462Y-66352675D01*
X37780504Y-66236775D01*
X37749279Y-66086514D01*
X37712967Y-65912327D01*
X37673751Y-65724652D01*
X37633811Y-65533924D01*
X37595330Y-65350579D01*
X37560489Y-65185054D01*
X37531469Y-65047784D01*
X37524010Y-65012667D01*
X37485637Y-64830977D01*
X37448300Y-64651846D01*
X37413783Y-64484072D01*
X37383867Y-64336447D01*
X37360336Y-64217769D01*
X37344971Y-64136833D01*
X37339555Y-64102546D01*
X37313630Y-64092442D01*
X37245011Y-64084951D01*
X37147438Y-64081439D01*
X37126223Y-64081334D01*
X37023940Y-64084418D01*
G36*
X42222000Y-67807812D02*
G01*
X41050778Y-67792556D01*
X41043202Y-67136389D01*
X41035626Y-66480223D01*
X40613333Y-66480223D01*
X40613333Y-69697556D01*
X41036666Y-69697556D01*
X41036666Y-68173556D01*
X42222000Y-68173556D01*
X42222000Y-69697556D01*
X42673555Y-69697556D01*
X42673555Y-66480223D01*
X42222000Y-66480223D01*
X42222000Y-67807812D01*
G37*
X42222000Y-67807812D02*
X41050778Y-67792556D01*
X41043202Y-67136389D01*
X41035626Y-66480223D01*
X40613333Y-66480223D01*
X40613333Y-69697556D01*
X41036666Y-69697556D01*
X41036666Y-68173556D01*
X42222000Y-68173556D01*
X42222000Y-69697556D01*
X42673555Y-69697556D01*
X42673555Y-66480223D01*
X42222000Y-66480223D01*
X42222000Y-67807812D01*
G36*
X43929242Y-66456465D02*
G01*
X43693568Y-66507736D01*
X43675444Y-66512937D01*
X43449666Y-66579000D01*
X43441424Y-66797723D01*
X43438935Y-66900705D01*
X43439728Y-66977613D01*
X43443587Y-67014897D01*
X43444925Y-67016445D01*
X43474249Y-67003958D01*
X43536124Y-66972083D01*
X43580167Y-66948137D01*
X43767820Y-66864873D01*
X43971707Y-66809431D01*
X44177348Y-66783432D01*
X44370262Y-66788501D01*
X44535970Y-66826260D01*
X44564444Y-66837820D01*
X44714355Y-66930127D01*
X44821637Y-67051051D01*
X44882699Y-67192812D01*
X44893954Y-67347628D01*
X44861962Y-67482939D01*
X44819488Y-67570140D01*
X44760956Y-67638294D01*
X44676352Y-67694026D01*
X44555662Y-67743956D01*
X44391725Y-67793918D01*
X44185649Y-67851447D01*
X44025809Y-67897528D01*
X43903860Y-67935103D01*
X43811458Y-67967112D01*
X43740259Y-67996495D01*
X43681919Y-68026193D01*
X43628092Y-68059147D01*
X43615563Y-68067436D01*
X43465598Y-68199810D01*
X43353283Y-68365138D01*
X43279483Y-68553561D01*
X43245063Y-68755222D01*
X43250890Y-68960262D01*
X43297828Y-69158822D01*
X43386743Y-69341045D01*
X43492255Y-69472033D01*
X43649952Y-69591787D01*
X43847248Y-69679634D01*
X44076396Y-69734401D01*
X44329652Y-69754913D01*
X44599270Y-69739996D01*
X44877503Y-69688478D01*
X44893548Y-69684392D01*
X45043067Y-69645327D01*
X45146640Y-69613438D01*
X45212691Y-69580741D01*
X45249645Y-69539250D01*
X45265925Y-69480982D01*
X45269957Y-69397952D01*
X45270000Y-69327603D01*
X45270000Y-69100747D01*
X45121833Y-69185144D01*
X44901421Y-69290427D01*
X44677016Y-69360493D01*
X44456796Y-69395249D01*
X44248938Y-69394602D01*
X44061620Y-69358457D01*
X43903021Y-69286722D01*
X43799229Y-69200280D01*
X43713197Y-69068112D01*
X43669603Y-68917207D01*
X43668042Y-68761023D01*
X43708113Y-68613019D01*
X43789413Y-68486653D01*
X43821516Y-68455209D01*
X43868218Y-68419533D01*
X43927080Y-68386579D01*
X44005921Y-68353593D01*
X44112560Y-68317821D01*
X44254817Y-68276506D01*
X44440512Y-68226895D01*
X44549069Y-68198892D01*
X44796891Y-68116162D01*
X44994993Y-68007229D01*
X45143991Y-67871419D01*
X45244506Y-67708060D01*
X45297155Y-67516478D01*
X45305998Y-67375817D01*
X45279289Y-67137617D01*
X45204811Y-66928132D01*
X45085005Y-66750485D01*
X44922316Y-66607800D01*
X44719184Y-66503202D01*
X44592666Y-66463434D01*
X44396426Y-66433362D01*
X44169406Y-66431357D01*
X43929242Y-66456465D01*
G37*
X43929242Y-66456465D02*
X43693568Y-66507736D01*
X43675444Y-66512937D01*
X43449666Y-66579000D01*
X43441424Y-66797723D01*
X43438935Y-66900705D01*
X43439728Y-66977613D01*
X43443587Y-67014897D01*
X43444925Y-67016445D01*
X43474249Y-67003958D01*
X43536124Y-66972083D01*
X43580167Y-66948137D01*
X43767820Y-66864873D01*
X43971707Y-66809431D01*
X44177348Y-66783432D01*
X44370262Y-66788501D01*
X44535970Y-66826260D01*
X44564444Y-66837820D01*
X44714355Y-66930127D01*
X44821637Y-67051051D01*
X44882699Y-67192812D01*
X44893954Y-67347628D01*
X44861962Y-67482939D01*
X44819488Y-67570140D01*
X44760956Y-67638294D01*
X44676352Y-67694026D01*
X44555662Y-67743956D01*
X44391725Y-67793918D01*
X44185649Y-67851447D01*
X44025809Y-67897528D01*
X43903860Y-67935103D01*
X43811458Y-67967112D01*
X43740259Y-67996495D01*
X43681919Y-68026193D01*
X43628092Y-68059147D01*
X43615563Y-68067436D01*
X43465598Y-68199810D01*
X43353283Y-68365138D01*
X43279483Y-68553561D01*
X43245063Y-68755222D01*
X43250890Y-68960262D01*
X43297828Y-69158822D01*
X43386743Y-69341045D01*
X43492255Y-69472033D01*
X43649952Y-69591787D01*
X43847248Y-69679634D01*
X44076396Y-69734401D01*
X44329652Y-69754913D01*
X44599270Y-69739996D01*
X44877503Y-69688478D01*
X44893548Y-69684392D01*
X45043067Y-69645327D01*
X45146640Y-69613438D01*
X45212691Y-69580741D01*
X45249645Y-69539250D01*
X45265925Y-69480982D01*
X45269957Y-69397952D01*
X45270000Y-69327603D01*
X45270000Y-69100747D01*
X45121833Y-69185144D01*
X44901421Y-69290427D01*
X44677016Y-69360493D01*
X44456796Y-69395249D01*
X44248938Y-69394602D01*
X44061620Y-69358457D01*
X43903021Y-69286722D01*
X43799229Y-69200280D01*
X43713197Y-69068112D01*
X43669603Y-68917207D01*
X43668042Y-68761023D01*
X43708113Y-68613019D01*
X43789413Y-68486653D01*
X43821516Y-68455209D01*
X43868218Y-68419533D01*
X43927080Y-68386579D01*
X44005921Y-68353593D01*
X44112560Y-68317821D01*
X44254817Y-68276506D01*
X44440512Y-68226895D01*
X44549069Y-68198892D01*
X44796891Y-68116162D01*
X44994993Y-68007229D01*
X45143991Y-67871419D01*
X45244506Y-67708060D01*
X45297155Y-67516478D01*
X45305998Y-67375817D01*
X45279289Y-67137617D01*
X45204811Y-66928132D01*
X45085005Y-66750485D01*
X44922316Y-66607800D01*
X44719184Y-66503202D01*
X44592666Y-66463434D01*
X44396426Y-66433362D01*
X44169406Y-66431357D01*
X43929242Y-66456465D01*
G36*
X46694077Y-66447495D02*
G01*
X46483652Y-66518521D01*
X46303946Y-66636673D01*
X46155069Y-66801765D01*
X46037130Y-67013614D01*
X45950238Y-67272035D01*
X45894503Y-67576843D01*
X45870034Y-67927854D01*
X45872073Y-68215889D01*
X45880576Y-68384428D01*
X45893500Y-68551214D01*
X45909256Y-68699490D01*
X45926256Y-68812500D01*
X45930743Y-68834307D01*
X46011991Y-69102463D01*
X46125097Y-69326952D01*
X46268998Y-69506215D01*
X46442631Y-69638691D01*
X46498857Y-69668357D01*
X46645506Y-69717341D01*
X46823089Y-69744583D01*
X47010085Y-69749186D01*
X47184972Y-69730252D01*
X47291694Y-69701401D01*
X47475990Y-69611330D01*
X47630035Y-69487503D01*
X47755294Y-69326872D01*
X47853229Y-69126394D01*
X47925305Y-68883020D01*
X47972984Y-68593707D01*
X47997730Y-68255408D01*
X47998635Y-68230000D01*
X47997563Y-67976579D01*
X47551235Y-67976579D01*
X47550822Y-68221201D01*
X47536087Y-68462834D01*
X47505610Y-68726748D01*
X47461175Y-68939891D01*
X47400710Y-69106670D01*
X47322141Y-69231492D01*
X47223396Y-69318764D01*
X47109128Y-69370872D01*
X47015887Y-69398457D01*
X46951918Y-69409808D01*
X46892468Y-69405048D01*
X46812788Y-69384301D01*
X46773018Y-69372536D01*
X46651122Y-69319115D01*
X46552061Y-69235249D01*
X46473486Y-69116067D01*
X46413046Y-68956697D01*
X46368391Y-68752269D01*
X46337171Y-68497910D01*
X46334135Y-68462834D01*
X46320581Y-68209727D01*
X46320556Y-67954080D01*
X46333172Y-67707999D01*
X46357545Y-67483587D01*
X46392788Y-67292951D01*
X46428670Y-67171667D01*
X46516135Y-67000756D01*
X46630974Y-66876937D01*
X46769633Y-66802176D01*
X46928559Y-66778441D01*
X47092528Y-66804202D01*
X47213450Y-66855040D01*
X47311590Y-66933641D01*
X47389508Y-67045269D01*
X47449765Y-67195192D01*
X47494921Y-67388674D01*
X47527536Y-67630981D01*
X47535340Y-67714945D01*
X47551235Y-67976579D01*
X47997563Y-67976579D01*
X47996987Y-67840708D01*
X47964442Y-67498643D01*
X47900989Y-67203789D01*
X47806620Y-66956130D01*
X47681325Y-66755650D01*
X47525095Y-66602335D01*
X47337921Y-66496168D01*
X47119793Y-66437133D01*
X46935111Y-66423778D01*
X46694077Y-66447495D01*
G37*
X46694077Y-66447495D02*
X46483652Y-66518521D01*
X46303946Y-66636673D01*
X46155069Y-66801765D01*
X46037130Y-67013614D01*
X45950238Y-67272035D01*
X45894503Y-67576843D01*
X45870034Y-67927854D01*
X45872073Y-68215889D01*
X45880576Y-68384428D01*
X45893500Y-68551214D01*
X45909256Y-68699490D01*
X45926256Y-68812500D01*
X45930743Y-68834307D01*
X46011991Y-69102463D01*
X46125097Y-69326952D01*
X46268998Y-69506215D01*
X46442631Y-69638691D01*
X46498857Y-69668357D01*
X46645506Y-69717341D01*
X46823089Y-69744583D01*
X47010085Y-69749186D01*
X47184972Y-69730252D01*
X47291694Y-69701401D01*
X47475990Y-69611330D01*
X47630035Y-69487503D01*
X47755294Y-69326872D01*
X47853229Y-69126394D01*
X47925305Y-68883020D01*
X47972984Y-68593707D01*
X47997730Y-68255408D01*
X47998635Y-68230000D01*
X47997563Y-67976579D01*
X47551235Y-67976579D01*
X47550822Y-68221201D01*
X47536087Y-68462834D01*
X47505610Y-68726748D01*
X47461175Y-68939891D01*
X47400710Y-69106670D01*
X47322141Y-69231492D01*
X47223396Y-69318764D01*
X47109128Y-69370872D01*
X47015887Y-69398457D01*
X46951918Y-69409808D01*
X46892468Y-69405048D01*
X46812788Y-69384301D01*
X46773018Y-69372536D01*
X46651122Y-69319115D01*
X46552061Y-69235249D01*
X46473486Y-69116067D01*
X46413046Y-68956697D01*
X46368391Y-68752269D01*
X46337171Y-68497910D01*
X46334135Y-68462834D01*
X46320581Y-68209727D01*
X46320556Y-67954080D01*
X46333172Y-67707999D01*
X46357545Y-67483587D01*
X46392788Y-67292951D01*
X46428670Y-67171667D01*
X46516135Y-67000756D01*
X46630974Y-66876937D01*
X46769633Y-66802176D01*
X46928559Y-66778441D01*
X47092528Y-66804202D01*
X47213450Y-66855040D01*
X47311590Y-66933641D01*
X47389508Y-67045269D01*
X47449765Y-67195192D01*
X47494921Y-67388674D01*
X47527536Y-67630981D01*
X47535340Y-67714945D01*
X47551235Y-67976579D01*
X47997563Y-67976579D01*
X47996987Y-67840708D01*
X47964442Y-67498643D01*
X47900989Y-67203789D01*
X47806620Y-66956130D01*
X47681325Y-66755650D01*
X47525095Y-66602335D01*
X47337921Y-66496168D01*
X47119793Y-66437133D01*
X46935111Y-66423778D01*
X46694077Y-66447495D01*
G36*
X38355555Y-65436000D02*
G01*
X48938889Y-65436000D01*
X48938889Y-70600667D01*
X36492889Y-70600667D01*
X36492889Y-64899778D01*
X35956666Y-64899778D01*
X35956666Y-71136889D01*
X49503333Y-71136889D01*
X49503333Y-64899778D01*
X38355555Y-64899778D01*
X38355555Y-65436000D01*
G37*
X38355555Y-65436000D02*
X48938889Y-65436000D01*
X48938889Y-70600667D01*
X36492889Y-70600667D01*
X36492889Y-64899778D01*
X35956666Y-64899778D01*
X35956666Y-71136889D01*
X49503333Y-71136889D01*
X49503333Y-64899778D01*
X38355555Y-64899778D01*
X38355555Y-65436000D01*
G36*
X38325283Y-71947584D02*
G01*
X38156889Y-71998798D01*
X38015423Y-72084278D01*
X37906996Y-72201341D01*
X37837716Y-72347304D01*
X37813689Y-72517179D01*
X37817866Y-72608927D01*
X37833071Y-72694574D01*
X37863314Y-72780452D01*
X37912604Y-72872892D01*
X37984951Y-72978225D01*
X38084365Y-73102783D01*
X38214855Y-73252898D01*
X38380432Y-73434901D01*
X38426337Y-73484571D01*
X38528329Y-73595979D01*
X38615131Y-73693261D01*
X38680122Y-73768798D01*
X38716681Y-73814975D01*
X38722272Y-73825056D01*
X38695661Y-73832100D01*
X38621905Y-73838151D01*
X38510300Y-73842787D01*
X38370143Y-73845584D01*
X38256778Y-73846223D01*
X37791111Y-73846223D01*
X37791111Y-74072000D01*
X39061111Y-74072000D01*
X39061111Y-73958976D01*
X39058752Y-73915895D01*
X39048132Y-73875021D01*
X39023937Y-73828933D01*
X38980851Y-73770209D01*
X38913559Y-73691428D01*
X38816748Y-73585169D01*
X38715784Y-73476794D01*
X38530941Y-73276121D01*
X38383873Y-73109134D01*
X38270963Y-72971146D01*
X38188594Y-72857470D01*
X38133149Y-72763416D01*
X38101010Y-72684297D01*
X38099086Y-72677562D01*
X38082786Y-72534585D01*
X38106569Y-72393909D01*
X38147619Y-72306378D01*
X38210307Y-72248078D01*
X38306806Y-72196685D01*
X38414568Y-72162254D01*
X38490182Y-72153618D01*
X38554510Y-72163767D01*
X38654184Y-72189938D01*
X38772270Y-72226882D01*
X38891830Y-72269348D01*
X38983500Y-72306538D01*
X39013700Y-72312747D01*
X39028353Y-72288683D01*
X39032764Y-72222754D01*
X39032889Y-72198621D01*
X39029391Y-72117341D01*
X39010732Y-72071737D01*
X38964665Y-72041117D01*
X38930944Y-72026385D01*
X38718420Y-71958695D01*
X38514496Y-71933322D01*
X38325283Y-71947584D01*
G37*
X38325283Y-71947584D02*
X38156889Y-71998798D01*
X38015423Y-72084278D01*
X37906996Y-72201341D01*
X37837716Y-72347304D01*
X37813689Y-72517179D01*
X37817866Y-72608927D01*
X37833071Y-72694574D01*
X37863314Y-72780452D01*
X37912604Y-72872892D01*
X37984951Y-72978225D01*
X38084365Y-73102783D01*
X38214855Y-73252898D01*
X38380432Y-73434901D01*
X38426337Y-73484571D01*
X38528329Y-73595979D01*
X38615131Y-73693261D01*
X38680122Y-73768798D01*
X38716681Y-73814975D01*
X38722272Y-73825056D01*
X38695661Y-73832100D01*
X38621905Y-73838151D01*
X38510300Y-73842787D01*
X38370143Y-73845584D01*
X38256778Y-73846223D01*
X37791111Y-73846223D01*
X37791111Y-74072000D01*
X39061111Y-74072000D01*
X39061111Y-73958976D01*
X39058752Y-73915895D01*
X39048132Y-73875021D01*
X39023937Y-73828933D01*
X38980851Y-73770209D01*
X38913559Y-73691428D01*
X38816748Y-73585169D01*
X38715784Y-73476794D01*
X38530941Y-73276121D01*
X38383873Y-73109134D01*
X38270963Y-72971146D01*
X38188594Y-72857470D01*
X38133149Y-72763416D01*
X38101010Y-72684297D01*
X38099086Y-72677562D01*
X38082786Y-72534585D01*
X38106569Y-72393909D01*
X38147619Y-72306378D01*
X38210307Y-72248078D01*
X38306806Y-72196685D01*
X38414568Y-72162254D01*
X38490182Y-72153618D01*
X38554510Y-72163767D01*
X38654184Y-72189938D01*
X38772270Y-72226882D01*
X38891830Y-72269348D01*
X38983500Y-72306538D01*
X39013700Y-72312747D01*
X39028353Y-72288683D01*
X39032764Y-72222754D01*
X39032889Y-72198621D01*
X39029391Y-72117341D01*
X39010732Y-72071737D01*
X38964665Y-72041117D01*
X38930944Y-72026385D01*
X38718420Y-71958695D01*
X38514496Y-71933322D01*
X38325283Y-71947584D01*
G36*
X48148666Y-72209334D02*
G01*
X49108222Y-72209334D01*
X49108222Y-72830223D01*
X48176889Y-72830223D01*
X48176889Y-73054602D01*
X49094111Y-73070112D01*
X49094111Y-73832112D01*
X48607278Y-73839833D01*
X48120444Y-73847555D01*
X48120444Y-74072000D01*
X49362222Y-74072000D01*
X49362222Y-71983556D01*
X48148666Y-71983556D01*
X48148666Y-72209334D01*
G37*
X48148666Y-72209334D02*
X49108222Y-72209334D01*
X49108222Y-72830223D01*
X48176889Y-72830223D01*
X48176889Y-73054602D01*
X49094111Y-73070112D01*
X49094111Y-73832112D01*
X48607278Y-73839833D01*
X48120444Y-73847555D01*
X48120444Y-74072000D01*
X49362222Y-74072000D01*
X49362222Y-71983556D01*
X48148666Y-71983556D01*
X48148666Y-72209334D01*
G36*
X36450291Y-71983959D02*
G01*
X36291089Y-72072279D01*
X36235808Y-72121107D01*
X36142202Y-72247286D01*
X36091373Y-72387731D01*
X36082248Y-72531366D01*
X36113752Y-72667116D01*
X36184810Y-72783903D01*
X36294348Y-72870652D01*
X36309251Y-72878148D01*
X36382132Y-72918192D01*
X36402502Y-72948688D01*
X36371526Y-72977556D01*
X36326871Y-72998183D01*
X36219089Y-73066506D01*
X36124706Y-73167374D01*
X36071351Y-73262449D01*
X36053843Y-73337424D01*
X36043026Y-73438901D01*
X36041333Y-73493445D01*
X36053529Y-73648943D01*
X36094275Y-73770537D01*
X36169811Y-73876167D01*
X36177184Y-73884085D01*
X36290060Y-73981063D01*
X36419451Y-74044620D01*
X36578777Y-74079874D01*
X36718666Y-74090573D01*
X36831473Y-74093285D01*
X36923178Y-74093141D01*
X36978732Y-74090252D01*
X36986778Y-74088639D01*
X37028162Y-74077639D01*
X37105843Y-74059998D01*
X37177278Y-74044875D01*
X37339555Y-74011508D01*
X37339555Y-73743285D01*
X37134944Y-73812037D01*
X36968553Y-73853399D01*
X36800382Y-73869789D01*
X36645758Y-73861344D01*
X36520009Y-73828200D01*
X36478325Y-73806188D01*
X36377029Y-73709154D01*
X36315675Y-73585293D01*
X36297376Y-73449132D01*
X36325240Y-73315200D01*
X36359396Y-73250674D01*
X36456763Y-73146670D01*
X36585728Y-73082974D01*
X36752166Y-73056969D01*
X36796278Y-73056044D01*
X36972666Y-73056000D01*
X36972666Y-72830223D01*
X36818015Y-72830223D01*
X36665520Y-72815608D01*
X36532132Y-72775244D01*
X36431924Y-72714350D01*
X36395789Y-72673600D01*
X36359492Y-72574466D01*
X36356025Y-72454727D01*
X36385590Y-72339833D01*
X36393027Y-72324319D01*
X36456036Y-72254109D01*
X36556294Y-72196562D01*
X36674720Y-72160704D01*
X36754515Y-72153306D01*
X36834390Y-72160867D01*
X36946197Y-72179956D01*
X37067783Y-72205959D01*
X37176993Y-72234264D01*
X37235526Y-72253478D01*
X37266784Y-72259271D01*
X37279755Y-72236179D01*
X37279371Y-72172093D01*
X37277859Y-72149545D01*
X37270172Y-72076500D01*
X37250753Y-72035657D01*
X37204780Y-72011270D01*
X37127889Y-71990235D01*
X36868442Y-71942974D01*
X36642659Y-71940870D01*
X36450291Y-71983959D01*
G37*
X36450291Y-71983959D02*
X36291089Y-72072279D01*
X36235808Y-72121107D01*
X36142202Y-72247286D01*
X36091373Y-72387731D01*
X36082248Y-72531366D01*
X36113752Y-72667116D01*
X36184810Y-72783903D01*
X36294348Y-72870652D01*
X36309251Y-72878148D01*
X36382132Y-72918192D01*
X36402502Y-72948688D01*
X36371526Y-72977556D01*
X36326871Y-72998183D01*
X36219089Y-73066506D01*
X36124706Y-73167374D01*
X36071351Y-73262449D01*
X36053843Y-73337424D01*
X36043026Y-73438901D01*
X36041333Y-73493445D01*
X36053529Y-73648943D01*
X36094275Y-73770537D01*
X36169811Y-73876167D01*
X36177184Y-73884085D01*
X36290060Y-73981063D01*
X36419451Y-74044620D01*
X36578777Y-74079874D01*
X36718666Y-74090573D01*
X36831473Y-74093285D01*
X36923178Y-74093141D01*
X36978732Y-74090252D01*
X36986778Y-74088639D01*
X37028162Y-74077639D01*
X37105843Y-74059998D01*
X37177278Y-74044875D01*
X37339555Y-74011508D01*
X37339555Y-73743285D01*
X37134944Y-73812037D01*
X36968553Y-73853399D01*
X36800382Y-73869789D01*
X36645758Y-73861344D01*
X36520009Y-73828200D01*
X36478325Y-73806188D01*
X36377029Y-73709154D01*
X36315675Y-73585293D01*
X36297376Y-73449132D01*
X36325240Y-73315200D01*
X36359396Y-73250674D01*
X36456763Y-73146670D01*
X36585728Y-73082974D01*
X36752166Y-73056969D01*
X36796278Y-73056044D01*
X36972666Y-73056000D01*
X36972666Y-72830223D01*
X36818015Y-72830223D01*
X36665520Y-72815608D01*
X36532132Y-72775244D01*
X36431924Y-72714350D01*
X36395789Y-72673600D01*
X36359492Y-72574466D01*
X36356025Y-72454727D01*
X36385590Y-72339833D01*
X36393027Y-72324319D01*
X36456036Y-72254109D01*
X36556294Y-72196562D01*
X36674720Y-72160704D01*
X36754515Y-72153306D01*
X36834390Y-72160867D01*
X36946197Y-72179956D01*
X37067783Y-72205959D01*
X37176993Y-72234264D01*
X37235526Y-72253478D01*
X37266784Y-72259271D01*
X37279755Y-72236179D01*
X37279371Y-72172093D01*
X37277859Y-72149545D01*
X37270172Y-72076500D01*
X37250753Y-72035657D01*
X37204780Y-72011270D01*
X37127889Y-71990235D01*
X36868442Y-71942974D01*
X36642659Y-71940870D01*
X36450291Y-71983959D01*
G36*
X39955787Y-71956601D02*
G01*
X39814726Y-72028919D01*
X39690229Y-72143821D01*
X39589908Y-72301271D01*
X39541663Y-72425139D01*
X39492292Y-72640766D01*
X39466845Y-72879116D01*
X39464851Y-73124629D01*
X39485840Y-73361741D01*
X39529344Y-73574892D01*
X39580730Y-73719223D01*
X39683182Y-73885396D01*
X39815752Y-74006648D01*
X39972490Y-74080188D01*
X40147442Y-74103222D01*
X40334656Y-74072959D01*
X40334785Y-74072920D01*
X40472793Y-74002038D01*
X40591309Y-73880156D01*
X40669872Y-73748211D01*
X40741602Y-73550112D01*
X40786980Y-73316767D01*
X40795540Y-73198903D01*
X40521735Y-73198903D01*
X40497532Y-73438205D01*
X40448349Y-73626892D01*
X40374185Y-73764965D01*
X40275040Y-73852423D01*
X40263193Y-73858664D01*
X40147667Y-73886779D01*
X40024865Y-73868054D01*
X39960221Y-73837174D01*
X39879282Y-73754996D01*
X39816255Y-73623078D01*
X39772084Y-73445512D01*
X39747713Y-73226393D01*
X39744085Y-72969815D01*
X39746155Y-72908985D01*
X39757671Y-72711185D01*
X39775136Y-72559571D01*
X39801244Y-72443979D01*
X39838690Y-72354246D01*
X39890171Y-72280206D01*
X39921976Y-72245936D01*
X39995831Y-72183797D01*
X40068238Y-72157129D01*
X40133555Y-72152889D01*
X40221912Y-72162087D01*
X40291789Y-72197991D01*
X40345135Y-72245936D01*
X40404633Y-72315943D01*
X40448752Y-72396568D01*
X40480185Y-72497976D01*
X40501630Y-72630329D01*
X40515780Y-72803793D01*
X40520956Y-72908985D01*
X40521735Y-73198903D01*
X40795540Y-73198903D01*
X40805400Y-73063163D01*
X40796256Y-72804285D01*
X40758943Y-72555119D01*
X40723595Y-72419140D01*
X40643048Y-72235137D01*
X40533381Y-72093951D01*
X40402207Y-71995543D01*
X40257141Y-71939874D01*
X40105796Y-71926906D01*
X39955787Y-71956601D01*
G37*
X39955787Y-71956601D02*
X39814726Y-72028919D01*
X39690229Y-72143821D01*
X39589908Y-72301271D01*
X39541663Y-72425139D01*
X39492292Y-72640766D01*
X39466845Y-72879116D01*
X39464851Y-73124629D01*
X39485840Y-73361741D01*
X39529344Y-73574892D01*
X39580730Y-73719223D01*
X39683182Y-73885396D01*
X39815752Y-74006648D01*
X39972490Y-74080188D01*
X40147442Y-74103222D01*
X40334656Y-74072959D01*
X40334785Y-74072920D01*
X40472793Y-74002038D01*
X40591309Y-73880156D01*
X40669872Y-73748211D01*
X40741602Y-73550112D01*
X40786980Y-73316767D01*
X40795540Y-73198903D01*
X40521735Y-73198903D01*
X40497532Y-73438205D01*
X40448349Y-73626892D01*
X40374185Y-73764965D01*
X40275040Y-73852423D01*
X40263193Y-73858664D01*
X40147667Y-73886779D01*
X40024865Y-73868054D01*
X39960221Y-73837174D01*
X39879282Y-73754996D01*
X39816255Y-73623078D01*
X39772084Y-73445512D01*
X39747713Y-73226393D01*
X39744085Y-72969815D01*
X39746155Y-72908985D01*
X39757671Y-72711185D01*
X39775136Y-72559571D01*
X39801244Y-72443979D01*
X39838690Y-72354246D01*
X39890171Y-72280206D01*
X39921976Y-72245936D01*
X39995831Y-72183797D01*
X40068238Y-72157129D01*
X40133555Y-72152889D01*
X40221912Y-72162087D01*
X40291789Y-72197991D01*
X40345135Y-72245936D01*
X40404633Y-72315943D01*
X40448752Y-72396568D01*
X40480185Y-72497976D01*
X40501630Y-72630329D01*
X40515780Y-72803793D01*
X40520956Y-72908985D01*
X40521735Y-73198903D01*
X40795540Y-73198903D01*
X40805400Y-73063163D01*
X40796256Y-72804285D01*
X40758943Y-72555119D01*
X40723595Y-72419140D01*
X40643048Y-72235137D01*
X40533381Y-72093951D01*
X40402207Y-71995543D01*
X40257141Y-71939874D01*
X40105796Y-71926906D01*
X39955787Y-71956601D01*
G36*
X41662432Y-71969422D02*
G01*
X41514841Y-72053412D01*
X41389292Y-72183378D01*
X41292318Y-72356740D01*
X41287588Y-72368372D01*
X41262643Y-72435789D01*
X41244835Y-72500599D01*
X41232961Y-72574172D01*
X41225821Y-72667877D01*
X41222211Y-72793083D01*
X41220929Y-72961159D01*
X41220848Y-72999556D01*
X41223884Y-73231375D01*
X41235154Y-73416517D01*
X41256681Y-73564407D01*
X41290483Y-73684470D01*
X41338582Y-73786131D01*
X41402997Y-73878813D01*
X41411591Y-73889382D01*
X41539189Y-74002062D01*
X41694701Y-74072875D01*
X41865314Y-74099033D01*
X42038216Y-74077750D01*
X42128536Y-74045318D01*
X42251653Y-73960895D01*
X42359604Y-73830814D01*
X42444600Y-73665378D01*
X42469684Y-73594023D01*
X42495104Y-73473858D01*
X42512088Y-73314863D01*
X42520707Y-73132076D01*
X42520966Y-72978975D01*
X42263082Y-72978975D01*
X42257742Y-73194775D01*
X42235881Y-73395404D01*
X42198926Y-73566779D01*
X42157727Y-73676889D01*
X42075111Y-73796283D01*
X41973226Y-73867163D01*
X41859264Y-73887306D01*
X41740417Y-73854489D01*
X41687714Y-73822182D01*
X41604427Y-73729629D01*
X41539353Y-73589182D01*
X41493824Y-73406811D01*
X41469175Y-73188484D01*
X41466737Y-72940169D01*
X41471062Y-72852214D01*
X41498720Y-72611360D01*
X41547885Y-72420430D01*
X41618192Y-72280106D01*
X41709274Y-72191070D01*
X41820764Y-72154006D01*
X41846207Y-72152889D01*
X41969646Y-72171760D01*
X42068605Y-72230593D01*
X42145295Y-72332720D01*
X42201927Y-72481472D01*
X42240712Y-72680179D01*
X42250473Y-72762086D01*
X42263082Y-72978975D01*
X42520966Y-72978975D01*
X42521032Y-72940537D01*
X42513133Y-72755286D01*
X42497082Y-72591360D01*
X42472949Y-72463801D01*
X42464227Y-72435112D01*
X42382050Y-72245407D01*
X42283265Y-72106713D01*
X42172115Y-72019104D01*
X41997603Y-71949688D01*
X41825531Y-71933987D01*
X41662432Y-71969422D01*
G37*
X41662432Y-71969422D02*
X41514841Y-72053412D01*
X41389292Y-72183378D01*
X41292318Y-72356740D01*
X41287588Y-72368372D01*
X41262643Y-72435789D01*
X41244835Y-72500599D01*
X41232961Y-72574172D01*
X41225821Y-72667877D01*
X41222211Y-72793083D01*
X41220929Y-72961159D01*
X41220848Y-72999556D01*
X41223884Y-73231375D01*
X41235154Y-73416517D01*
X41256681Y-73564407D01*
X41290483Y-73684470D01*
X41338582Y-73786131D01*
X41402997Y-73878813D01*
X41411591Y-73889382D01*
X41539189Y-74002062D01*
X41694701Y-74072875D01*
X41865314Y-74099033D01*
X42038216Y-74077750D01*
X42128536Y-74045318D01*
X42251653Y-73960895D01*
X42359604Y-73830814D01*
X42444600Y-73665378D01*
X42469684Y-73594023D01*
X42495104Y-73473858D01*
X42512088Y-73314863D01*
X42520707Y-73132076D01*
X42520966Y-72978975D01*
X42263082Y-72978975D01*
X42257742Y-73194775D01*
X42235881Y-73395404D01*
X42198926Y-73566779D01*
X42157727Y-73676889D01*
X42075111Y-73796283D01*
X41973226Y-73867163D01*
X41859264Y-73887306D01*
X41740417Y-73854489D01*
X41687714Y-73822182D01*
X41604427Y-73729629D01*
X41539353Y-73589182D01*
X41493824Y-73406811D01*
X41469175Y-73188484D01*
X41466737Y-72940169D01*
X41471062Y-72852214D01*
X41498720Y-72611360D01*
X41547885Y-72420430D01*
X41618192Y-72280106D01*
X41709274Y-72191070D01*
X41820764Y-72154006D01*
X41846207Y-72152889D01*
X41969646Y-72171760D01*
X42068605Y-72230593D01*
X42145295Y-72332720D01*
X42201927Y-72481472D01*
X42240712Y-72680179D01*
X42250473Y-72762086D01*
X42263082Y-72978975D01*
X42520966Y-72978975D01*
X42521032Y-72940537D01*
X42513133Y-72755286D01*
X42497082Y-72591360D01*
X42472949Y-72463801D01*
X42464227Y-72435112D01*
X42382050Y-72245407D01*
X42283265Y-72106713D01*
X42172115Y-72019104D01*
X41997603Y-71949688D01*
X41825531Y-71933987D01*
X41662432Y-71969422D01*
G36*
X43423698Y-71960648D02*
G01*
X43284686Y-72018772D01*
X43168227Y-72120843D01*
X43068804Y-72271276D01*
X43005112Y-72410910D01*
X42981257Y-72477455D01*
X42964455Y-72545851D01*
X42953475Y-72627823D01*
X42947085Y-72735096D01*
X42944054Y-72879396D01*
X42943299Y-72999556D01*
X42946161Y-73226071D01*
X42957803Y-73407021D01*
X42980427Y-73552903D01*
X43016233Y-73674211D01*
X43067422Y-73781441D01*
X43126113Y-73871349D01*
X43243829Y-73988301D01*
X43391626Y-74065112D01*
X43557052Y-74098752D01*
X43727657Y-74086189D01*
X43846774Y-74046803D01*
X43982761Y-73955366D01*
X44096421Y-73818510D01*
X44180512Y-73645212D01*
X44187523Y-73624681D01*
X44208776Y-73548492D01*
X44223640Y-73463148D01*
X44233097Y-73357162D01*
X44238127Y-73219046D01*
X44239713Y-73037313D01*
X44239719Y-73013667D01*
X44239581Y-72999556D01*
X43982339Y-72999556D01*
X43979672Y-73199464D01*
X43971028Y-73364754D01*
X43956967Y-73487063D01*
X43946403Y-73535519D01*
X43881573Y-73692460D01*
X43794271Y-73805203D01*
X43689705Y-73870900D01*
X43573081Y-73886707D01*
X43449605Y-73849775D01*
X43411749Y-73827820D01*
X43341777Y-73752529D01*
X43285089Y-73632405D01*
X43242034Y-73477557D01*
X43212965Y-73298095D01*
X43198230Y-73104129D01*
X43198182Y-72905768D01*
X43213170Y-72713122D01*
X43243546Y-72536301D01*
X43289661Y-72385415D01*
X43351864Y-72270572D01*
X43357475Y-72263333D01*
X43447723Y-72191044D01*
X43561456Y-72156420D01*
X43679462Y-72161871D01*
X43782526Y-72209808D01*
X43782740Y-72209976D01*
X43832705Y-72267610D01*
X43885674Y-72356584D01*
X43918342Y-72428698D01*
X43944011Y-72501490D01*
X43961778Y-72573996D01*
X43973071Y-72658961D01*
X43979320Y-72769130D01*
X43981954Y-72917250D01*
X43982339Y-72999556D01*
X44239581Y-72999556D01*
X44237685Y-72806272D01*
X44230325Y-72644368D01*
X44215488Y-72517091D01*
X44191024Y-72413578D01*
X44154783Y-72322965D01*
X44104614Y-72234387D01*
X44077227Y-72192748D01*
X43963100Y-72062236D01*
X43827627Y-71980967D01*
X43662807Y-71944818D01*
X43590778Y-71942054D01*
X43423698Y-71960648D01*
G37*
X43423698Y-71960648D02*
X43284686Y-72018772D01*
X43168227Y-72120843D01*
X43068804Y-72271276D01*
X43005112Y-72410910D01*
X42981257Y-72477455D01*
X42964455Y-72545851D01*
X42953475Y-72627823D01*
X42947085Y-72735096D01*
X42944054Y-72879396D01*
X42943299Y-72999556D01*
X42946161Y-73226071D01*
X42957803Y-73407021D01*
X42980427Y-73552903D01*
X43016233Y-73674211D01*
X43067422Y-73781441D01*
X43126113Y-73871349D01*
X43243829Y-73988301D01*
X43391626Y-74065112D01*
X43557052Y-74098752D01*
X43727657Y-74086189D01*
X43846774Y-74046803D01*
X43982761Y-73955366D01*
X44096421Y-73818510D01*
X44180512Y-73645212D01*
X44187523Y-73624681D01*
X44208776Y-73548492D01*
X44223640Y-73463148D01*
X44233097Y-73357162D01*
X44238127Y-73219046D01*
X44239713Y-73037313D01*
X44239719Y-73013667D01*
X44239581Y-72999556D01*
X43982339Y-72999556D01*
X43979672Y-73199464D01*
X43971028Y-73364754D01*
X43956967Y-73487063D01*
X43946403Y-73535519D01*
X43881573Y-73692460D01*
X43794271Y-73805203D01*
X43689705Y-73870900D01*
X43573081Y-73886707D01*
X43449605Y-73849775D01*
X43411749Y-73827820D01*
X43341777Y-73752529D01*
X43285089Y-73632405D01*
X43242034Y-73477557D01*
X43212965Y-73298095D01*
X43198230Y-73104129D01*
X43198182Y-72905768D01*
X43213170Y-72713122D01*
X43243546Y-72536301D01*
X43289661Y-72385415D01*
X43351864Y-72270572D01*
X43357475Y-72263333D01*
X43447723Y-72191044D01*
X43561456Y-72156420D01*
X43679462Y-72161871D01*
X43782526Y-72209808D01*
X43782740Y-72209976D01*
X43832705Y-72267610D01*
X43885674Y-72356584D01*
X43918342Y-72428698D01*
X43944011Y-72501490D01*
X43961778Y-72573996D01*
X43973071Y-72658961D01*
X43979320Y-72769130D01*
X43981954Y-72917250D01*
X43982339Y-72999556D01*
X44239581Y-72999556D01*
X44237685Y-72806272D01*
X44230325Y-72644368D01*
X44215488Y-72517091D01*
X44191024Y-72413578D01*
X44154783Y-72322965D01*
X44104614Y-72234387D01*
X44077227Y-72192748D01*
X43963100Y-72062236D01*
X43827627Y-71980967D01*
X43662807Y-71944818D01*
X43590778Y-71942054D01*
X43423698Y-71960648D01*
G36*
X45148676Y-71956601D02*
G01*
X45007615Y-72028919D01*
X44883118Y-72143821D01*
X44782797Y-72301271D01*
X44734552Y-72425139D01*
X44685181Y-72640766D01*
X44659733Y-72879116D01*
X44657739Y-73124629D01*
X44678729Y-73361741D01*
X44722233Y-73574892D01*
X44773619Y-73719223D01*
X44876070Y-73885396D01*
X45008641Y-74006648D01*
X45165379Y-74080188D01*
X45340331Y-74103222D01*
X45527545Y-74072959D01*
X45527674Y-74072920D01*
X45665682Y-74002038D01*
X45784198Y-73880156D01*
X45862761Y-73748211D01*
X45934491Y-73550112D01*
X45979869Y-73316767D01*
X45988429Y-73198903D01*
X45714623Y-73198903D01*
X45690421Y-73438205D01*
X45641238Y-73626892D01*
X45567074Y-73764965D01*
X45467928Y-73852423D01*
X45456081Y-73858664D01*
X45340556Y-73886779D01*
X45217754Y-73868054D01*
X45153110Y-73837174D01*
X45072171Y-73754996D01*
X45009144Y-73623078D01*
X44964973Y-73445512D01*
X44940602Y-73226393D01*
X44936974Y-72969815D01*
X44939044Y-72908985D01*
X44950560Y-72711185D01*
X44968025Y-72559571D01*
X44994132Y-72443979D01*
X45031579Y-72354246D01*
X45083059Y-72280206D01*
X45114864Y-72245936D01*
X45188720Y-72183797D01*
X45261127Y-72157129D01*
X45326444Y-72152889D01*
X45414801Y-72162087D01*
X45484678Y-72197991D01*
X45538024Y-72245936D01*
X45597522Y-72315943D01*
X45641641Y-72396568D01*
X45673074Y-72497976D01*
X45694519Y-72630329D01*
X45708669Y-72803793D01*
X45713845Y-72908985D01*
X45714623Y-73198903D01*
X45988429Y-73198903D01*
X45998289Y-73063163D01*
X45989145Y-72804285D01*
X45951832Y-72555119D01*
X45916484Y-72419140D01*
X45835937Y-72235137D01*
X45726270Y-72093951D01*
X45595096Y-71995543D01*
X45450030Y-71939874D01*
X45298685Y-71926906D01*
X45148676Y-71956601D01*
G37*
X45148676Y-71956601D02*
X45007615Y-72028919D01*
X44883118Y-72143821D01*
X44782797Y-72301271D01*
X44734552Y-72425139D01*
X44685181Y-72640766D01*
X44659733Y-72879116D01*
X44657739Y-73124629D01*
X44678729Y-73361741D01*
X44722233Y-73574892D01*
X44773619Y-73719223D01*
X44876070Y-73885396D01*
X45008641Y-74006648D01*
X45165379Y-74080188D01*
X45340331Y-74103222D01*
X45527545Y-74072959D01*
X45527674Y-74072920D01*
X45665682Y-74002038D01*
X45784198Y-73880156D01*
X45862761Y-73748211D01*
X45934491Y-73550112D01*
X45979869Y-73316767D01*
X45988429Y-73198903D01*
X45714623Y-73198903D01*
X45690421Y-73438205D01*
X45641238Y-73626892D01*
X45567074Y-73764965D01*
X45467928Y-73852423D01*
X45456081Y-73858664D01*
X45340556Y-73886779D01*
X45217754Y-73868054D01*
X45153110Y-73837174D01*
X45072171Y-73754996D01*
X45009144Y-73623078D01*
X44964973Y-73445512D01*
X44940602Y-73226393D01*
X44936974Y-72969815D01*
X44939044Y-72908985D01*
X44950560Y-72711185D01*
X44968025Y-72559571D01*
X44994132Y-72443979D01*
X45031579Y-72354246D01*
X45083059Y-72280206D01*
X45114864Y-72245936D01*
X45188720Y-72183797D01*
X45261127Y-72157129D01*
X45326444Y-72152889D01*
X45414801Y-72162087D01*
X45484678Y-72197991D01*
X45538024Y-72245936D01*
X45597522Y-72315943D01*
X45641641Y-72396568D01*
X45673074Y-72497976D01*
X45694519Y-72630329D01*
X45708669Y-72803793D01*
X45713845Y-72908985D01*
X45714623Y-73198903D01*
X45988429Y-73198903D01*
X45998289Y-73063163D01*
X45989145Y-72804285D01*
X45951832Y-72555119D01*
X45916484Y-72419140D01*
X45835937Y-72235137D01*
X45726270Y-72093951D01*
X45595096Y-71995543D01*
X45450030Y-71939874D01*
X45298685Y-71926906D01*
X45148676Y-71956601D01*
G36*
X46864851Y-71951023D02*
G01*
X46841745Y-71954930D01*
X46701171Y-71982026D01*
X46607248Y-72007696D01*
X46550687Y-72038037D01*
X46522198Y-72079147D01*
X46512493Y-72137123D01*
X46511778Y-72171530D01*
X46513229Y-72245688D01*
X46516887Y-72289136D01*
X46518833Y-72293870D01*
X46546433Y-72283920D01*
X46611697Y-72258036D01*
X46695222Y-72223984D01*
X46868207Y-72171596D01*
X47031314Y-72156866D01*
X47177767Y-72176355D01*
X47300792Y-72226624D01*
X47393614Y-72304231D01*
X47449456Y-72405740D01*
X47461544Y-72527709D01*
X47446214Y-72605218D01*
X47419737Y-72670337D01*
X47378368Y-72722245D01*
X47313173Y-72766145D01*
X47215218Y-72807239D01*
X47075567Y-72850731D01*
X46979246Y-72877160D01*
X46773738Y-72942797D01*
X46619029Y-73019318D01*
X46509706Y-73112470D01*
X46440358Y-73228005D01*
X46405573Y-73371671D01*
X46398889Y-73493722D01*
X46418043Y-73684237D01*
X46476555Y-73836297D01*
X46575996Y-73951343D01*
X46717939Y-74030816D01*
X46903956Y-74076156D01*
X47047498Y-74087947D01*
X47167472Y-74090153D01*
X47273250Y-74088826D01*
X47346337Y-74084291D01*
X47358444Y-74082487D01*
X47427894Y-74065640D01*
X47521412Y-74038845D01*
X47563055Y-74025856D01*
X47697111Y-73982797D01*
X47697111Y-73843954D01*
X47694955Y-73764177D01*
X47689453Y-73713971D01*
X47685319Y-73705112D01*
X47655813Y-73716773D01*
X47591317Y-73747019D01*
X47523811Y-73780309D01*
X47394042Y-73829194D01*
X47243290Y-73861164D01*
X47090801Y-73874251D01*
X46955821Y-73866488D01*
X46878696Y-73846235D01*
X46758193Y-73768883D01*
X46681711Y-73657611D01*
X46653011Y-73518057D01*
X46652889Y-73507556D01*
X46672471Y-73374239D01*
X46733962Y-73272648D01*
X46841481Y-73198031D01*
X46957368Y-73156202D01*
X47135104Y-73106612D01*
X47267786Y-73067132D01*
X47365075Y-73033992D01*
X47436629Y-73003425D01*
X47492107Y-72971662D01*
X47541168Y-72934935D01*
X47555573Y-72922818D01*
X47658876Y-72799627D01*
X47712497Y-72650551D01*
X47715598Y-72477995D01*
X47714263Y-72467702D01*
X47664740Y-72291633D01*
X47571853Y-72147700D01*
X47440511Y-72038786D01*
X47275623Y-71967778D01*
X47082100Y-71937562D01*
X46864851Y-71951023D01*
G37*
X46864851Y-71951023D02*
X46841745Y-71954930D01*
X46701171Y-71982026D01*
X46607248Y-72007696D01*
X46550687Y-72038037D01*
X46522198Y-72079147D01*
X46512493Y-72137123D01*
X46511778Y-72171530D01*
X46513229Y-72245688D01*
X46516887Y-72289136D01*
X46518833Y-72293870D01*
X46546433Y-72283920D01*
X46611697Y-72258036D01*
X46695222Y-72223984D01*
X46868207Y-72171596D01*
X47031314Y-72156866D01*
X47177767Y-72176355D01*
X47300792Y-72226624D01*
X47393614Y-72304231D01*
X47449456Y-72405740D01*
X47461544Y-72527709D01*
X47446214Y-72605218D01*
X47419737Y-72670337D01*
X47378368Y-72722245D01*
X47313173Y-72766145D01*
X47215218Y-72807239D01*
X47075567Y-72850731D01*
X46979246Y-72877160D01*
X46773738Y-72942797D01*
X46619029Y-73019318D01*
X46509706Y-73112470D01*
X46440358Y-73228005D01*
X46405573Y-73371671D01*
X46398889Y-73493722D01*
X46418043Y-73684237D01*
X46476555Y-73836297D01*
X46575996Y-73951343D01*
X46717939Y-74030816D01*
X46903956Y-74076156D01*
X47047498Y-74087947D01*
X47167472Y-74090153D01*
X47273250Y-74088826D01*
X47346337Y-74084291D01*
X47358444Y-74082487D01*
X47427894Y-74065640D01*
X47521412Y-74038845D01*
X47563055Y-74025856D01*
X47697111Y-73982797D01*
X47697111Y-73843954D01*
X47694955Y-73764177D01*
X47689453Y-73713971D01*
X47685319Y-73705112D01*
X47655813Y-73716773D01*
X47591317Y-73747019D01*
X47523811Y-73780309D01*
X47394042Y-73829194D01*
X47243290Y-73861164D01*
X47090801Y-73874251D01*
X46955821Y-73866488D01*
X46878696Y-73846235D01*
X46758193Y-73768883D01*
X46681711Y-73657611D01*
X46653011Y-73518057D01*
X46652889Y-73507556D01*
X46672471Y-73374239D01*
X46733962Y-73272648D01*
X46841481Y-73198031D01*
X46957368Y-73156202D01*
X47135104Y-73106612D01*
X47267786Y-73067132D01*
X47365075Y-73033992D01*
X47436629Y-73003425D01*
X47492107Y-72971662D01*
X47541168Y-72934935D01*
X47555573Y-72922818D01*
X47658876Y-72799627D01*
X47712497Y-72650551D01*
X47715598Y-72477995D01*
X47714263Y-72467702D01*
X47664740Y-72291633D01*
X47571853Y-72147700D01*
X47440511Y-72038786D01*
X47275623Y-71967778D01*
X47082100Y-71937562D01*
X46864851Y-71951023D01*
G04 #@! TD*
M02*
