%TF.GenerationSoftware,KiCad,Pcbnew,(5.1.7-0-10_14)*%
%TF.CreationDate,2020-11-23T19:19:37+00:00*%
%TF.ProjectId,carrier,63617272-6965-4722-9e6b-696361645f70,0.1*%
%TF.SameCoordinates,Original*%
%TF.FileFunction,Legend,Top*%
%TF.FilePolarity,Positive*%
%FSLAX46Y46*%
G04 Gerber Fmt 4.6, Leading zero omitted, Abs format (unit mm)*
G04 Created by KiCad (PCBNEW (5.1.7-0-10_14)) date 2020-11-23 19:19:37*
%MOMM*%
%LPD*%
G01*
G04 APERTURE LIST*
%ADD10C,0.100000*%
%ADD11C,0.150000*%
%ADD12C,0.120000*%
G04 APERTURE END LIST*
D10*
X73360714Y-47875000D02*
X73289285Y-47839285D01*
X73182142Y-47839285D01*
X73075000Y-47875000D01*
X73003571Y-47946428D01*
X72967857Y-48017857D01*
X72932142Y-48160714D01*
X72932142Y-48267857D01*
X72967857Y-48410714D01*
X73003571Y-48482142D01*
X73075000Y-48553571D01*
X73182142Y-48589285D01*
X73253571Y-48589285D01*
X73360714Y-48553571D01*
X73396428Y-48517857D01*
X73396428Y-48267857D01*
X73253571Y-48267857D01*
X73717857Y-48589285D02*
X73717857Y-47839285D01*
X74146428Y-48589285D01*
X74146428Y-47839285D01*
X74503571Y-48589285D02*
X74503571Y-47839285D01*
X74682142Y-47839285D01*
X74789285Y-47875000D01*
X74860714Y-47946428D01*
X74896428Y-48017857D01*
X74932142Y-48160714D01*
X74932142Y-48267857D01*
X74896428Y-48410714D01*
X74860714Y-48482142D01*
X74789285Y-48553571D01*
X74682142Y-48589285D01*
X74503571Y-48589285D01*
X74133571Y-45299285D02*
X73776428Y-45299285D01*
X73740714Y-45656428D01*
X73776428Y-45620714D01*
X73847857Y-45585000D01*
X74026428Y-45585000D01*
X74097857Y-45620714D01*
X74133571Y-45656428D01*
X74169285Y-45727857D01*
X74169285Y-45906428D01*
X74133571Y-45977857D01*
X74097857Y-46013571D01*
X74026428Y-46049285D01*
X73847857Y-46049285D01*
X73776428Y-46013571D01*
X73740714Y-45977857D01*
X74383571Y-45299285D02*
X74633571Y-46049285D01*
X74883571Y-45299285D01*
X65850714Y-105107761D02*
X66207857Y-104941095D01*
X65850714Y-104822047D02*
X66600714Y-104822047D01*
X66600714Y-105012523D01*
X66565000Y-105060142D01*
X66529285Y-105083952D01*
X66457857Y-105107761D01*
X66350714Y-105107761D01*
X66279285Y-105083952D01*
X66243571Y-105060142D01*
X66207857Y-105012523D01*
X66207857Y-104822047D01*
X66243571Y-105322047D02*
X66243571Y-105488714D01*
X65850714Y-105560142D02*
X65850714Y-105322047D01*
X66600714Y-105322047D01*
X66600714Y-105560142D01*
X65886428Y-105750619D02*
X65850714Y-105822047D01*
X65850714Y-105941095D01*
X65886428Y-105988714D01*
X65922142Y-106012523D01*
X65993571Y-106036333D01*
X66065000Y-106036333D01*
X66136428Y-106012523D01*
X66172142Y-105988714D01*
X66207857Y-105941095D01*
X66243571Y-105845857D01*
X66279285Y-105798238D01*
X66315000Y-105774428D01*
X66386428Y-105750619D01*
X66457857Y-105750619D01*
X66529285Y-105774428D01*
X66565000Y-105798238D01*
X66600714Y-105845857D01*
X66600714Y-105964904D01*
X66565000Y-106036333D01*
X66243571Y-106250619D02*
X66243571Y-106417285D01*
X65850714Y-106488714D02*
X65850714Y-106250619D01*
X66600714Y-106250619D01*
X66600714Y-106488714D01*
X66600714Y-106631571D02*
X66600714Y-106917285D01*
X65850714Y-106774428D02*
X66600714Y-106774428D01*
X66866714Y-104822047D02*
X67616714Y-104822047D01*
X66866714Y-105345857D02*
X67223857Y-105179190D01*
X66866714Y-105060142D02*
X67616714Y-105060142D01*
X67616714Y-105250619D01*
X67581000Y-105298238D01*
X67545285Y-105322047D01*
X67473857Y-105345857D01*
X67366714Y-105345857D01*
X67295285Y-105322047D01*
X67259571Y-105298238D01*
X67223857Y-105250619D01*
X67223857Y-105060142D01*
X66795285Y-105893476D02*
X66831000Y-105845857D01*
X66902428Y-105798238D01*
X67009571Y-105726809D01*
X67045285Y-105679190D01*
X67045285Y-105631571D01*
X66866714Y-105655380D02*
X66902428Y-105607761D01*
X66973857Y-105560142D01*
X67116714Y-105536333D01*
X67366714Y-105536333D01*
X67509571Y-105560142D01*
X67581000Y-105607761D01*
X67616714Y-105655380D01*
X67616714Y-105750619D01*
X67581000Y-105798238D01*
X67509571Y-105845857D01*
X67366714Y-105869666D01*
X67116714Y-105869666D01*
X66973857Y-105845857D01*
X66902428Y-105798238D01*
X66866714Y-105750619D01*
X66866714Y-105655380D01*
X67882714Y-105107761D02*
X68239857Y-104941095D01*
X67882714Y-104822047D02*
X68632714Y-104822047D01*
X68632714Y-105012523D01*
X68597000Y-105060142D01*
X68561285Y-105083952D01*
X68489857Y-105107761D01*
X68382714Y-105107761D01*
X68311285Y-105083952D01*
X68275571Y-105060142D01*
X68239857Y-105012523D01*
X68239857Y-104822047D01*
X68632714Y-105274428D02*
X67882714Y-105607761D01*
X68632714Y-105607761D02*
X67882714Y-105274428D01*
X68970142Y-105107761D02*
X68934428Y-105083952D01*
X68898714Y-105012523D01*
X68898714Y-104964904D01*
X68934428Y-104893476D01*
X69005857Y-104845857D01*
X69077285Y-104822047D01*
X69220142Y-104798238D01*
X69327285Y-104798238D01*
X69470142Y-104822047D01*
X69541571Y-104845857D01*
X69613000Y-104893476D01*
X69648714Y-104964904D01*
X69648714Y-105012523D01*
X69613000Y-105083952D01*
X69577285Y-105107761D01*
X68934428Y-105298238D02*
X68898714Y-105369666D01*
X68898714Y-105488714D01*
X68934428Y-105536333D01*
X68970142Y-105560142D01*
X69041571Y-105583952D01*
X69113000Y-105583952D01*
X69184428Y-105560142D01*
X69220142Y-105536333D01*
X69255857Y-105488714D01*
X69291571Y-105393476D01*
X69327285Y-105345857D01*
X69363000Y-105322047D01*
X69434428Y-105298238D01*
X69505857Y-105298238D01*
X69577285Y-105322047D01*
X69613000Y-105345857D01*
X69648714Y-105393476D01*
X69648714Y-105512523D01*
X69613000Y-105583952D01*
X69950428Y-104798238D02*
X69914714Y-104869666D01*
X69914714Y-104988714D01*
X69950428Y-105036333D01*
X69986142Y-105060142D01*
X70057571Y-105083952D01*
X70129000Y-105083952D01*
X70200428Y-105060142D01*
X70236142Y-105036333D01*
X70271857Y-104988714D01*
X70307571Y-104893476D01*
X70343285Y-104845857D01*
X70379000Y-104822047D01*
X70450428Y-104798238D01*
X70521857Y-104798238D01*
X70593285Y-104822047D01*
X70629000Y-104845857D01*
X70664714Y-104893476D01*
X70664714Y-105012523D01*
X70629000Y-105083952D01*
X69914714Y-105298238D02*
X70664714Y-105298238D01*
X70664714Y-105417285D01*
X70629000Y-105488714D01*
X70557571Y-105536333D01*
X70486142Y-105560142D01*
X70343285Y-105583952D01*
X70236142Y-105583952D01*
X70093285Y-105560142D01*
X70021857Y-105536333D01*
X69950428Y-105488714D01*
X69914714Y-105417285D01*
X69914714Y-105298238D01*
X70664714Y-105893476D02*
X70664714Y-105988714D01*
X70629000Y-106036333D01*
X70557571Y-106083952D01*
X70414714Y-106107761D01*
X70164714Y-106107761D01*
X70021857Y-106083952D01*
X69950428Y-106036333D01*
X69914714Y-105988714D01*
X69914714Y-105893476D01*
X69950428Y-105845857D01*
X70021857Y-105798238D01*
X70164714Y-105774428D01*
X70414714Y-105774428D01*
X70557571Y-105798238D01*
X70629000Y-105845857D01*
X70664714Y-105893476D01*
X71680714Y-105060142D02*
X71680714Y-104822047D01*
X71323571Y-104798238D01*
X71359285Y-104822047D01*
X71395000Y-104869666D01*
X71395000Y-104988714D01*
X71359285Y-105036333D01*
X71323571Y-105060142D01*
X71252142Y-105083952D01*
X71073571Y-105083952D01*
X71002142Y-105060142D01*
X70966428Y-105036333D01*
X70930714Y-104988714D01*
X70930714Y-104869666D01*
X70966428Y-104822047D01*
X71002142Y-104798238D01*
X71680714Y-105226809D02*
X70930714Y-105393476D01*
X71680714Y-105560142D01*
X67918428Y-96842047D02*
X67882714Y-96913476D01*
X67882714Y-97032523D01*
X67918428Y-97080142D01*
X67954142Y-97103952D01*
X68025571Y-97127761D01*
X68097000Y-97127761D01*
X68168428Y-97103952D01*
X68204142Y-97080142D01*
X68239857Y-97032523D01*
X68275571Y-96937285D01*
X68311285Y-96889666D01*
X68347000Y-96865857D01*
X68418428Y-96842047D01*
X68489857Y-96842047D01*
X68561285Y-96865857D01*
X68597000Y-96889666D01*
X68632714Y-96937285D01*
X68632714Y-97056333D01*
X68597000Y-97127761D01*
X67954142Y-97627761D02*
X67918428Y-97603952D01*
X67882714Y-97532523D01*
X67882714Y-97484904D01*
X67918428Y-97413476D01*
X67989857Y-97365857D01*
X68061285Y-97342047D01*
X68204142Y-97318238D01*
X68311285Y-97318238D01*
X68454142Y-97342047D01*
X68525571Y-97365857D01*
X68597000Y-97413476D01*
X68632714Y-97484904D01*
X68632714Y-97532523D01*
X68597000Y-97603952D01*
X68561285Y-97627761D01*
X67882714Y-97842047D02*
X68632714Y-97842047D01*
X67882714Y-98127761D02*
X68311285Y-97913476D01*
X68632714Y-98127761D02*
X68204142Y-97842047D01*
X67616714Y-97413476D02*
X67616714Y-97699190D01*
X66866714Y-97556333D02*
X67616714Y-97556333D01*
X67616714Y-97818238D02*
X66866714Y-98151571D01*
X67616714Y-98151571D02*
X66866714Y-97818238D01*
X71680714Y-96080142D02*
X70930714Y-96246809D01*
X71680714Y-96413476D01*
X70930714Y-96580142D02*
X71680714Y-96580142D01*
X71680714Y-96699190D01*
X71645000Y-96770619D01*
X71573571Y-96818238D01*
X71502142Y-96842047D01*
X71359285Y-96865857D01*
X71252142Y-96865857D01*
X71109285Y-96842047D01*
X71037857Y-96818238D01*
X70966428Y-96770619D01*
X70930714Y-96699190D01*
X70930714Y-96580142D01*
X70930714Y-97080142D02*
X71680714Y-97080142D01*
X71680714Y-97199190D01*
X71645000Y-97270619D01*
X71573571Y-97318238D01*
X71502142Y-97342047D01*
X71359285Y-97365857D01*
X71252142Y-97365857D01*
X71109285Y-97342047D01*
X71037857Y-97318238D01*
X70966428Y-97270619D01*
X70930714Y-97199190D01*
X70930714Y-97080142D01*
X70930714Y-97580142D02*
X71680714Y-97580142D01*
X71680714Y-97913476D02*
X71680714Y-98008714D01*
X71645000Y-98056333D01*
X71573571Y-98103952D01*
X71430714Y-98127761D01*
X71180714Y-98127761D01*
X71037857Y-98103952D01*
X70966428Y-98056333D01*
X70930714Y-98008714D01*
X70930714Y-97913476D01*
X70966428Y-97865857D01*
X71037857Y-97818238D01*
X71180714Y-97794428D01*
X71430714Y-97794428D01*
X71573571Y-97818238D01*
X71645000Y-97865857D01*
X71680714Y-97913476D01*
X70664714Y-96794428D02*
X70129000Y-96794428D01*
X70021857Y-96770619D01*
X69950428Y-96723000D01*
X69914714Y-96651571D01*
X69914714Y-96603952D01*
X70664714Y-96961095D02*
X70664714Y-97246809D01*
X69914714Y-97103952D02*
X70664714Y-97103952D01*
X70129000Y-97389666D02*
X70129000Y-97627761D01*
X69914714Y-97342047D02*
X70664714Y-97508714D01*
X69914714Y-97675380D01*
X70629000Y-98103952D02*
X70664714Y-98056333D01*
X70664714Y-97984904D01*
X70629000Y-97913476D01*
X70557571Y-97865857D01*
X70486142Y-97842047D01*
X70343285Y-97818238D01*
X70236142Y-97818238D01*
X70093285Y-97842047D01*
X70021857Y-97865857D01*
X69950428Y-97913476D01*
X69914714Y-97984904D01*
X69914714Y-98032523D01*
X69950428Y-98103952D01*
X69986142Y-98127761D01*
X70236142Y-98127761D01*
X70236142Y-98032523D01*
X68934428Y-97103952D02*
X68898714Y-97175380D01*
X68898714Y-97294428D01*
X68934428Y-97342047D01*
X68970142Y-97365857D01*
X69041571Y-97389666D01*
X69113000Y-97389666D01*
X69184428Y-97365857D01*
X69220142Y-97342047D01*
X69255857Y-97294428D01*
X69291571Y-97199190D01*
X69327285Y-97151571D01*
X69363000Y-97127761D01*
X69434428Y-97103952D01*
X69505857Y-97103952D01*
X69577285Y-97127761D01*
X69613000Y-97151571D01*
X69648714Y-97199190D01*
X69648714Y-97318238D01*
X69613000Y-97389666D01*
X68898714Y-97603952D02*
X69648714Y-97603952D01*
X69648714Y-97723000D01*
X69613000Y-97794428D01*
X69541571Y-97842047D01*
X69470142Y-97865857D01*
X69327285Y-97889666D01*
X69220142Y-97889666D01*
X69077285Y-97865857D01*
X69005857Y-97842047D01*
X68934428Y-97794428D01*
X68898714Y-97723000D01*
X68898714Y-97603952D01*
X68898714Y-98103952D02*
X69648714Y-98103952D01*
X66565000Y-97080142D02*
X66600714Y-97032523D01*
X66600714Y-96961095D01*
X66565000Y-96889666D01*
X66493571Y-96842047D01*
X66422142Y-96818238D01*
X66279285Y-96794428D01*
X66172142Y-96794428D01*
X66029285Y-96818238D01*
X65957857Y-96842047D01*
X65886428Y-96889666D01*
X65850714Y-96961095D01*
X65850714Y-97008714D01*
X65886428Y-97080142D01*
X65922142Y-97103952D01*
X66172142Y-97103952D01*
X66172142Y-97008714D01*
X65850714Y-97318238D02*
X66600714Y-97318238D01*
X65850714Y-97603952D01*
X66600714Y-97603952D01*
X65850714Y-97842047D02*
X66600714Y-97842047D01*
X66600714Y-97961095D01*
X66565000Y-98032523D01*
X66493571Y-98080142D01*
X66422142Y-98103952D01*
X66279285Y-98127761D01*
X66172142Y-98127761D01*
X66029285Y-98103952D01*
X65957857Y-98080142D01*
X65886428Y-98032523D01*
X65850714Y-97961095D01*
X65850714Y-97842047D01*
X65015714Y-110462142D02*
X64980000Y-110426428D01*
X64908571Y-110390714D01*
X64837142Y-110390714D01*
X64765714Y-110426428D01*
X64730000Y-110462142D01*
X64694285Y-110533571D01*
X64694285Y-110605000D01*
X64730000Y-110676428D01*
X64765714Y-110712142D01*
X64837142Y-110747857D01*
X64908571Y-110747857D01*
X64980000Y-110712142D01*
X65015714Y-110676428D01*
X65015714Y-110390714D02*
X65015714Y-110676428D01*
X65051428Y-110712142D01*
X65087142Y-110712142D01*
X65158571Y-110676428D01*
X65194285Y-110605000D01*
X65194285Y-110426428D01*
X65122857Y-110319285D01*
X65015714Y-110247857D01*
X64872857Y-110212142D01*
X64730000Y-110247857D01*
X64622857Y-110319285D01*
X64551428Y-110426428D01*
X64515714Y-110569285D01*
X64551428Y-110712142D01*
X64622857Y-110819285D01*
X64730000Y-110890714D01*
X64872857Y-110926428D01*
X65015714Y-110890714D01*
X65122857Y-110819285D01*
X65480000Y-110783571D02*
X65551428Y-110819285D01*
X65694285Y-110819285D01*
X65765714Y-110783571D01*
X65801428Y-110712142D01*
X65801428Y-110676428D01*
X65765714Y-110605000D01*
X65694285Y-110569285D01*
X65587142Y-110569285D01*
X65515714Y-110533571D01*
X65480000Y-110462142D01*
X65480000Y-110426428D01*
X65515714Y-110355000D01*
X65587142Y-110319285D01*
X65694285Y-110319285D01*
X65765714Y-110355000D01*
X66444285Y-110819285D02*
X66444285Y-110426428D01*
X66408571Y-110355000D01*
X66337142Y-110319285D01*
X66194285Y-110319285D01*
X66122857Y-110355000D01*
X66444285Y-110783571D02*
X66372857Y-110819285D01*
X66194285Y-110819285D01*
X66122857Y-110783571D01*
X66087142Y-110712142D01*
X66087142Y-110640714D01*
X66122857Y-110569285D01*
X66194285Y-110533571D01*
X66372857Y-110533571D01*
X66444285Y-110497857D01*
X66801428Y-110819285D02*
X66801428Y-110319285D01*
X66801428Y-110390714D02*
X66837142Y-110355000D01*
X66908571Y-110319285D01*
X67015714Y-110319285D01*
X67087142Y-110355000D01*
X67122857Y-110426428D01*
X67122857Y-110819285D01*
X67122857Y-110426428D02*
X67158571Y-110355000D01*
X67230000Y-110319285D01*
X67337142Y-110319285D01*
X67408571Y-110355000D01*
X67444285Y-110426428D01*
X67444285Y-110819285D01*
X67908571Y-110819285D02*
X67837142Y-110783571D01*
X67801428Y-110712142D01*
X67801428Y-110069285D01*
X68194285Y-110819285D02*
X68194285Y-110319285D01*
X68194285Y-110069285D02*
X68158571Y-110105000D01*
X68194285Y-110140714D01*
X68230000Y-110105000D01*
X68194285Y-110069285D01*
X68194285Y-110140714D01*
X68444285Y-110319285D02*
X68730000Y-110319285D01*
X68551428Y-110069285D02*
X68551428Y-110712142D01*
X68587142Y-110783571D01*
X68658571Y-110819285D01*
X68730000Y-110819285D01*
X68872857Y-110319285D02*
X69158571Y-110319285D01*
X68980000Y-110069285D02*
X68980000Y-110712142D01*
X69015714Y-110783571D01*
X69087142Y-110819285D01*
X69158571Y-110819285D01*
X69515714Y-110819285D02*
X69444285Y-110783571D01*
X69408571Y-110712142D01*
X69408571Y-110069285D01*
X70087142Y-110783571D02*
X70015714Y-110819285D01*
X69872857Y-110819285D01*
X69801428Y-110783571D01*
X69765714Y-110712142D01*
X69765714Y-110426428D01*
X69801428Y-110355000D01*
X69872857Y-110319285D01*
X70015714Y-110319285D01*
X70087142Y-110355000D01*
X70122857Y-110426428D01*
X70122857Y-110497857D01*
X69765714Y-110569285D01*
X70372857Y-110319285D02*
X70515714Y-110819285D01*
X70658571Y-110462142D01*
X70801428Y-110819285D01*
X70944285Y-110319285D01*
X71337142Y-110819285D02*
X71265714Y-110783571D01*
X71230000Y-110747857D01*
X71194285Y-110676428D01*
X71194285Y-110462142D01*
X71230000Y-110390714D01*
X71265714Y-110355000D01*
X71337142Y-110319285D01*
X71444285Y-110319285D01*
X71515714Y-110355000D01*
X71551428Y-110390714D01*
X71587142Y-110462142D01*
X71587142Y-110676428D01*
X71551428Y-110747857D01*
X71515714Y-110783571D01*
X71444285Y-110819285D01*
X71337142Y-110819285D01*
X72015714Y-110819285D02*
X71944285Y-110783571D01*
X71908571Y-110747857D01*
X71872857Y-110676428D01*
X71872857Y-110462142D01*
X71908571Y-110390714D01*
X71944285Y-110355000D01*
X72015714Y-110319285D01*
X72122857Y-110319285D01*
X72194285Y-110355000D01*
X72230000Y-110390714D01*
X72265714Y-110462142D01*
X72265714Y-110676428D01*
X72230000Y-110747857D01*
X72194285Y-110783571D01*
X72122857Y-110819285D01*
X72015714Y-110819285D01*
X72908571Y-110819285D02*
X72908571Y-110069285D01*
X72908571Y-110783571D02*
X72837142Y-110819285D01*
X72694285Y-110819285D01*
X72622857Y-110783571D01*
X72587142Y-110747857D01*
X72551428Y-110676428D01*
X72551428Y-110462142D01*
X72587142Y-110390714D01*
X72622857Y-110355000D01*
X72694285Y-110319285D01*
X72837142Y-110319285D01*
X72908571Y-110355000D01*
D11*
X66753809Y-85007142D02*
X66706190Y-85054761D01*
X66563333Y-85102380D01*
X66468095Y-85102380D01*
X66325238Y-85054761D01*
X66230000Y-84959523D01*
X66182380Y-84864285D01*
X66134761Y-84673809D01*
X66134761Y-84530952D01*
X66182380Y-84340476D01*
X66230000Y-84245238D01*
X66325238Y-84150000D01*
X66468095Y-84102380D01*
X66563333Y-84102380D01*
X66706190Y-84150000D01*
X66753809Y-84197619D01*
X67610952Y-85102380D02*
X67610952Y-84578571D01*
X67563333Y-84483333D01*
X67468095Y-84435714D01*
X67277619Y-84435714D01*
X67182380Y-84483333D01*
X67610952Y-85054761D02*
X67515714Y-85102380D01*
X67277619Y-85102380D01*
X67182380Y-85054761D01*
X67134761Y-84959523D01*
X67134761Y-84864285D01*
X67182380Y-84769047D01*
X67277619Y-84721428D01*
X67515714Y-84721428D01*
X67610952Y-84673809D01*
X68087142Y-85102380D02*
X68087142Y-84435714D01*
X68087142Y-84626190D02*
X68134761Y-84530952D01*
X68182380Y-84483333D01*
X68277619Y-84435714D01*
X68372857Y-84435714D01*
X69134761Y-85102380D02*
X69134761Y-84578571D01*
X69087142Y-84483333D01*
X68991904Y-84435714D01*
X68801428Y-84435714D01*
X68706190Y-84483333D01*
X69134761Y-85054761D02*
X69039523Y-85102380D01*
X68801428Y-85102380D01*
X68706190Y-85054761D01*
X68658571Y-84959523D01*
X68658571Y-84864285D01*
X68706190Y-84769047D01*
X68801428Y-84721428D01*
X69039523Y-84721428D01*
X69134761Y-84673809D01*
X69515714Y-84435714D02*
X69753809Y-85102380D01*
X69991904Y-84435714D01*
X70753809Y-85054761D02*
X70658571Y-85102380D01*
X70468095Y-85102380D01*
X70372857Y-85054761D01*
X70325238Y-84959523D01*
X70325238Y-84578571D01*
X70372857Y-84483333D01*
X70468095Y-84435714D01*
X70658571Y-84435714D01*
X70753809Y-84483333D01*
X70801428Y-84578571D01*
X70801428Y-84673809D01*
X70325238Y-84769047D01*
X71372857Y-85102380D02*
X71277619Y-85054761D01*
X71230000Y-84959523D01*
X71230000Y-84102380D01*
X66991904Y-86657142D02*
X66944285Y-86704761D01*
X66801428Y-86752380D01*
X66706190Y-86752380D01*
X66563333Y-86704761D01*
X66468095Y-86609523D01*
X66420476Y-86514285D01*
X66372857Y-86323809D01*
X66372857Y-86180952D01*
X66420476Y-85990476D01*
X66468095Y-85895238D01*
X66563333Y-85800000D01*
X66706190Y-85752380D01*
X66801428Y-85752380D01*
X66944285Y-85800000D01*
X66991904Y-85847619D01*
X67849047Y-86752380D02*
X67849047Y-86228571D01*
X67801428Y-86133333D01*
X67706190Y-86085714D01*
X67515714Y-86085714D01*
X67420476Y-86133333D01*
X67849047Y-86704761D02*
X67753809Y-86752380D01*
X67515714Y-86752380D01*
X67420476Y-86704761D01*
X67372857Y-86609523D01*
X67372857Y-86514285D01*
X67420476Y-86419047D01*
X67515714Y-86371428D01*
X67753809Y-86371428D01*
X67849047Y-86323809D01*
X68325238Y-86752380D02*
X68325238Y-86085714D01*
X68325238Y-86276190D02*
X68372857Y-86180952D01*
X68420476Y-86133333D01*
X68515714Y-86085714D01*
X68610952Y-86085714D01*
X68944285Y-86752380D02*
X68944285Y-86085714D01*
X68944285Y-86276190D02*
X68991904Y-86180952D01*
X69039523Y-86133333D01*
X69134761Y-86085714D01*
X69230000Y-86085714D01*
X69563333Y-86752380D02*
X69563333Y-86085714D01*
X69563333Y-85752380D02*
X69515714Y-85800000D01*
X69563333Y-85847619D01*
X69610952Y-85800000D01*
X69563333Y-85752380D01*
X69563333Y-85847619D01*
X70420476Y-86704761D02*
X70325238Y-86752380D01*
X70134761Y-86752380D01*
X70039523Y-86704761D01*
X69991904Y-86609523D01*
X69991904Y-86228571D01*
X70039523Y-86133333D01*
X70134761Y-86085714D01*
X70325238Y-86085714D01*
X70420476Y-86133333D01*
X70468095Y-86228571D01*
X70468095Y-86323809D01*
X69991904Y-86419047D01*
X70896666Y-86752380D02*
X70896666Y-86085714D01*
X70896666Y-86276190D02*
X70944285Y-86180952D01*
X70991904Y-86133333D01*
X71087142Y-86085714D01*
X71182380Y-86085714D01*
X67968095Y-87402380D02*
X68063333Y-87402380D01*
X68158571Y-87450000D01*
X68206190Y-87497619D01*
X68253809Y-87592857D01*
X68301428Y-87783333D01*
X68301428Y-88021428D01*
X68253809Y-88211904D01*
X68206190Y-88307142D01*
X68158571Y-88354761D01*
X68063333Y-88402380D01*
X67968095Y-88402380D01*
X67872857Y-88354761D01*
X67825238Y-88307142D01*
X67777619Y-88211904D01*
X67730000Y-88021428D01*
X67730000Y-87783333D01*
X67777619Y-87592857D01*
X67825238Y-87497619D01*
X67872857Y-87450000D01*
X67968095Y-87402380D01*
X68730000Y-88307142D02*
X68777619Y-88354761D01*
X68730000Y-88402380D01*
X68682380Y-88354761D01*
X68730000Y-88307142D01*
X68730000Y-88402380D01*
X69730000Y-88402380D02*
X69158571Y-88402380D01*
X69444285Y-88402380D02*
X69444285Y-87402380D01*
X69349047Y-87545238D01*
X69253809Y-87640476D01*
X69158571Y-87688095D01*
D10*
X73693571Y-68159285D02*
X74157857Y-68159285D01*
X73907857Y-68445000D01*
X74015000Y-68445000D01*
X74086428Y-68480714D01*
X74122142Y-68516428D01*
X74157857Y-68587857D01*
X74157857Y-68766428D01*
X74122142Y-68837857D01*
X74086428Y-68873571D01*
X74015000Y-68909285D01*
X73800714Y-68909285D01*
X73729285Y-68873571D01*
X73693571Y-68837857D01*
X74836428Y-68159285D02*
X74479285Y-68159285D01*
X74443571Y-68516428D01*
X74479285Y-68480714D01*
X74550714Y-68445000D01*
X74729285Y-68445000D01*
X74800714Y-68480714D01*
X74836428Y-68516428D01*
X74872142Y-68587857D01*
X74872142Y-68766428D01*
X74836428Y-68837857D01*
X74800714Y-68873571D01*
X74729285Y-68909285D01*
X74550714Y-68909285D01*
X74479285Y-68873571D01*
X74443571Y-68837857D01*
X74193571Y-60539285D02*
X73836428Y-60539285D01*
X73800714Y-60896428D01*
X73836428Y-60860714D01*
X73907857Y-60825000D01*
X74086428Y-60825000D01*
X74157857Y-60860714D01*
X74193571Y-60896428D01*
X74229285Y-60967857D01*
X74229285Y-61146428D01*
X74193571Y-61217857D01*
X74157857Y-61253571D01*
X74086428Y-61289285D01*
X73907857Y-61289285D01*
X73836428Y-61253571D01*
X73800714Y-61217857D01*
X74443571Y-60539285D02*
X74693571Y-61289285D01*
X74943571Y-60539285D01*
X73693571Y-63079285D02*
X74157857Y-63079285D01*
X73907857Y-63365000D01*
X74015000Y-63365000D01*
X74086428Y-63400714D01*
X74122142Y-63436428D01*
X74157857Y-63507857D01*
X74157857Y-63686428D01*
X74122142Y-63757857D01*
X74086428Y-63793571D01*
X74015000Y-63829285D01*
X73800714Y-63829285D01*
X73729285Y-63793571D01*
X73693571Y-63757857D01*
X74407857Y-63079285D02*
X74907857Y-63079285D01*
X74586428Y-63829285D01*
X73693571Y-65619285D02*
X74157857Y-65619285D01*
X73907857Y-65905000D01*
X74015000Y-65905000D01*
X74086428Y-65940714D01*
X74122142Y-65976428D01*
X74157857Y-66047857D01*
X74157857Y-66226428D01*
X74122142Y-66297857D01*
X74086428Y-66333571D01*
X74015000Y-66369285D01*
X73800714Y-66369285D01*
X73729285Y-66333571D01*
X73693571Y-66297857D01*
X74800714Y-65619285D02*
X74657857Y-65619285D01*
X74586428Y-65655000D01*
X74550714Y-65690714D01*
X74479285Y-65797857D01*
X74443571Y-65940714D01*
X74443571Y-66226428D01*
X74479285Y-66297857D01*
X74515000Y-66333571D01*
X74586428Y-66369285D01*
X74729285Y-66369285D01*
X74800714Y-66333571D01*
X74836428Y-66297857D01*
X74872142Y-66226428D01*
X74872142Y-66047857D01*
X74836428Y-65976428D01*
X74800714Y-65940714D01*
X74729285Y-65905000D01*
X74586428Y-65905000D01*
X74515000Y-65940714D01*
X74479285Y-65976428D01*
X74443571Y-66047857D01*
X73693571Y-70699285D02*
X74157857Y-70699285D01*
X73907857Y-70985000D01*
X74015000Y-70985000D01*
X74086428Y-71020714D01*
X74122142Y-71056428D01*
X74157857Y-71127857D01*
X74157857Y-71306428D01*
X74122142Y-71377857D01*
X74086428Y-71413571D01*
X74015000Y-71449285D01*
X73800714Y-71449285D01*
X73729285Y-71413571D01*
X73693571Y-71377857D01*
X74800714Y-70949285D02*
X74800714Y-71449285D01*
X74622142Y-70663571D02*
X74443571Y-71199285D01*
X74907857Y-71199285D01*
X73693571Y-73239285D02*
X74157857Y-73239285D01*
X73907857Y-73525000D01*
X74015000Y-73525000D01*
X74086428Y-73560714D01*
X74122142Y-73596428D01*
X74157857Y-73667857D01*
X74157857Y-73846428D01*
X74122142Y-73917857D01*
X74086428Y-73953571D01*
X74015000Y-73989285D01*
X73800714Y-73989285D01*
X73729285Y-73953571D01*
X73693571Y-73917857D01*
X74407857Y-73239285D02*
X74872142Y-73239285D01*
X74622142Y-73525000D01*
X74729285Y-73525000D01*
X74800714Y-73560714D01*
X74836428Y-73596428D01*
X74872142Y-73667857D01*
X74872142Y-73846428D01*
X74836428Y-73917857D01*
X74800714Y-73953571D01*
X74729285Y-73989285D01*
X74515000Y-73989285D01*
X74443571Y-73953571D01*
X74407857Y-73917857D01*
X73693571Y-75779285D02*
X74157857Y-75779285D01*
X73907857Y-76065000D01*
X74015000Y-76065000D01*
X74086428Y-76100714D01*
X74122142Y-76136428D01*
X74157857Y-76207857D01*
X74157857Y-76386428D01*
X74122142Y-76457857D01*
X74086428Y-76493571D01*
X74015000Y-76529285D01*
X73800714Y-76529285D01*
X73729285Y-76493571D01*
X73693571Y-76457857D01*
X74443571Y-75850714D02*
X74479285Y-75815000D01*
X74550714Y-75779285D01*
X74729285Y-75779285D01*
X74800714Y-75815000D01*
X74836428Y-75850714D01*
X74872142Y-75922142D01*
X74872142Y-75993571D01*
X74836428Y-76100714D01*
X74407857Y-76529285D01*
X74872142Y-76529285D01*
X73693571Y-78319285D02*
X74157857Y-78319285D01*
X73907857Y-78605000D01*
X74015000Y-78605000D01*
X74086428Y-78640714D01*
X74122142Y-78676428D01*
X74157857Y-78747857D01*
X74157857Y-78926428D01*
X74122142Y-78997857D01*
X74086428Y-79033571D01*
X74015000Y-79069285D01*
X73800714Y-79069285D01*
X73729285Y-79033571D01*
X73693571Y-78997857D01*
X74872142Y-79069285D02*
X74443571Y-79069285D01*
X74657857Y-79069285D02*
X74657857Y-78319285D01*
X74586428Y-78426428D01*
X74515000Y-78497857D01*
X74443571Y-78533571D01*
X73693571Y-80859285D02*
X74157857Y-80859285D01*
X73907857Y-81145000D01*
X74015000Y-81145000D01*
X74086428Y-81180714D01*
X74122142Y-81216428D01*
X74157857Y-81287857D01*
X74157857Y-81466428D01*
X74122142Y-81537857D01*
X74086428Y-81573571D01*
X74015000Y-81609285D01*
X73800714Y-81609285D01*
X73729285Y-81573571D01*
X73693571Y-81537857D01*
X74622142Y-80859285D02*
X74693571Y-80859285D01*
X74765000Y-80895000D01*
X74800714Y-80930714D01*
X74836428Y-81002142D01*
X74872142Y-81145000D01*
X74872142Y-81323571D01*
X74836428Y-81466428D01*
X74800714Y-81537857D01*
X74765000Y-81573571D01*
X74693571Y-81609285D01*
X74622142Y-81609285D01*
X74550714Y-81573571D01*
X74515000Y-81537857D01*
X74479285Y-81466428D01*
X74443571Y-81323571D01*
X74443571Y-81145000D01*
X74479285Y-81002142D01*
X74515000Y-80930714D01*
X74550714Y-80895000D01*
X74622142Y-80859285D01*
X73729285Y-83470714D02*
X73765000Y-83435000D01*
X73836428Y-83399285D01*
X74015000Y-83399285D01*
X74086428Y-83435000D01*
X74122142Y-83470714D01*
X74157857Y-83542142D01*
X74157857Y-83613571D01*
X74122142Y-83720714D01*
X73693571Y-84149285D01*
X74157857Y-84149285D01*
X74515000Y-84149285D02*
X74657857Y-84149285D01*
X74729285Y-84113571D01*
X74765000Y-84077857D01*
X74836428Y-83970714D01*
X74872142Y-83827857D01*
X74872142Y-83542142D01*
X74836428Y-83470714D01*
X74800714Y-83435000D01*
X74729285Y-83399285D01*
X74586428Y-83399285D01*
X74515000Y-83435000D01*
X74479285Y-83470714D01*
X74443571Y-83542142D01*
X74443571Y-83720714D01*
X74479285Y-83792142D01*
X74515000Y-83827857D01*
X74586428Y-83863571D01*
X74729285Y-83863571D01*
X74800714Y-83827857D01*
X74836428Y-83792142D01*
X74872142Y-83720714D01*
X73729285Y-86010714D02*
X73765000Y-85975000D01*
X73836428Y-85939285D01*
X74015000Y-85939285D01*
X74086428Y-85975000D01*
X74122142Y-86010714D01*
X74157857Y-86082142D01*
X74157857Y-86153571D01*
X74122142Y-86260714D01*
X73693571Y-86689285D01*
X74157857Y-86689285D01*
X74586428Y-86260714D02*
X74515000Y-86225000D01*
X74479285Y-86189285D01*
X74443571Y-86117857D01*
X74443571Y-86082142D01*
X74479285Y-86010714D01*
X74515000Y-85975000D01*
X74586428Y-85939285D01*
X74729285Y-85939285D01*
X74800714Y-85975000D01*
X74836428Y-86010714D01*
X74872142Y-86082142D01*
X74872142Y-86117857D01*
X74836428Y-86189285D01*
X74800714Y-86225000D01*
X74729285Y-86260714D01*
X74586428Y-86260714D01*
X74515000Y-86296428D01*
X74479285Y-86332142D01*
X74443571Y-86403571D01*
X74443571Y-86546428D01*
X74479285Y-86617857D01*
X74515000Y-86653571D01*
X74586428Y-86689285D01*
X74729285Y-86689285D01*
X74800714Y-86653571D01*
X74836428Y-86617857D01*
X74872142Y-86546428D01*
X74872142Y-86403571D01*
X74836428Y-86332142D01*
X74800714Y-86296428D01*
X74729285Y-86260714D01*
X73729285Y-88550714D02*
X73765000Y-88515000D01*
X73836428Y-88479285D01*
X74015000Y-88479285D01*
X74086428Y-88515000D01*
X74122142Y-88550714D01*
X74157857Y-88622142D01*
X74157857Y-88693571D01*
X74122142Y-88800714D01*
X73693571Y-89229285D01*
X74157857Y-89229285D01*
X74407857Y-88479285D02*
X74907857Y-88479285D01*
X74586428Y-89229285D01*
X73729285Y-91090714D02*
X73765000Y-91055000D01*
X73836428Y-91019285D01*
X74015000Y-91019285D01*
X74086428Y-91055000D01*
X74122142Y-91090714D01*
X74157857Y-91162142D01*
X74157857Y-91233571D01*
X74122142Y-91340714D01*
X73693571Y-91769285D01*
X74157857Y-91769285D01*
X74800714Y-91019285D02*
X74657857Y-91019285D01*
X74586428Y-91055000D01*
X74550714Y-91090714D01*
X74479285Y-91197857D01*
X74443571Y-91340714D01*
X74443571Y-91626428D01*
X74479285Y-91697857D01*
X74515000Y-91733571D01*
X74586428Y-91769285D01*
X74729285Y-91769285D01*
X74800714Y-91733571D01*
X74836428Y-91697857D01*
X74872142Y-91626428D01*
X74872142Y-91447857D01*
X74836428Y-91376428D01*
X74800714Y-91340714D01*
X74729285Y-91305000D01*
X74586428Y-91305000D01*
X74515000Y-91340714D01*
X74479285Y-91376428D01*
X74443571Y-91447857D01*
X73729285Y-93630714D02*
X73765000Y-93595000D01*
X73836428Y-93559285D01*
X74015000Y-93559285D01*
X74086428Y-93595000D01*
X74122142Y-93630714D01*
X74157857Y-93702142D01*
X74157857Y-93773571D01*
X74122142Y-93880714D01*
X73693571Y-94309285D01*
X74157857Y-94309285D01*
X74836428Y-93559285D02*
X74479285Y-93559285D01*
X74443571Y-93916428D01*
X74479285Y-93880714D01*
X74550714Y-93845000D01*
X74729285Y-93845000D01*
X74800714Y-93880714D01*
X74836428Y-93916428D01*
X74872142Y-93987857D01*
X74872142Y-94166428D01*
X74836428Y-94237857D01*
X74800714Y-94273571D01*
X74729285Y-94309285D01*
X74550714Y-94309285D01*
X74479285Y-94273571D01*
X74443571Y-94237857D01*
X73729285Y-96170714D02*
X73765000Y-96135000D01*
X73836428Y-96099285D01*
X74015000Y-96099285D01*
X74086428Y-96135000D01*
X74122142Y-96170714D01*
X74157857Y-96242142D01*
X74157857Y-96313571D01*
X74122142Y-96420714D01*
X73693571Y-96849285D01*
X74157857Y-96849285D01*
X74800714Y-96349285D02*
X74800714Y-96849285D01*
X74622142Y-96063571D02*
X74443571Y-96599285D01*
X74907857Y-96599285D01*
X73729285Y-98710714D02*
X73765000Y-98675000D01*
X73836428Y-98639285D01*
X74015000Y-98639285D01*
X74086428Y-98675000D01*
X74122142Y-98710714D01*
X74157857Y-98782142D01*
X74157857Y-98853571D01*
X74122142Y-98960714D01*
X73693571Y-99389285D01*
X74157857Y-99389285D01*
X74407857Y-98639285D02*
X74872142Y-98639285D01*
X74622142Y-98925000D01*
X74729285Y-98925000D01*
X74800714Y-98960714D01*
X74836428Y-98996428D01*
X74872142Y-99067857D01*
X74872142Y-99246428D01*
X74836428Y-99317857D01*
X74800714Y-99353571D01*
X74729285Y-99389285D01*
X74515000Y-99389285D01*
X74443571Y-99353571D01*
X74407857Y-99317857D01*
X73729285Y-101250714D02*
X73765000Y-101215000D01*
X73836428Y-101179285D01*
X74015000Y-101179285D01*
X74086428Y-101215000D01*
X74122142Y-101250714D01*
X74157857Y-101322142D01*
X74157857Y-101393571D01*
X74122142Y-101500714D01*
X73693571Y-101929285D01*
X74157857Y-101929285D01*
X74443571Y-101250714D02*
X74479285Y-101215000D01*
X74550714Y-101179285D01*
X74729285Y-101179285D01*
X74800714Y-101215000D01*
X74836428Y-101250714D01*
X74872142Y-101322142D01*
X74872142Y-101393571D01*
X74836428Y-101500714D01*
X74407857Y-101929285D01*
X74872142Y-101929285D01*
X73729285Y-103790714D02*
X73765000Y-103755000D01*
X73836428Y-103719285D01*
X74015000Y-103719285D01*
X74086428Y-103755000D01*
X74122142Y-103790714D01*
X74157857Y-103862142D01*
X74157857Y-103933571D01*
X74122142Y-104040714D01*
X73693571Y-104469285D01*
X74157857Y-104469285D01*
X74872142Y-104469285D02*
X74443571Y-104469285D01*
X74657857Y-104469285D02*
X74657857Y-103719285D01*
X74586428Y-103826428D01*
X74515000Y-103897857D01*
X74443571Y-103933571D01*
X73729285Y-106330714D02*
X73765000Y-106295000D01*
X73836428Y-106259285D01*
X74015000Y-106259285D01*
X74086428Y-106295000D01*
X74122142Y-106330714D01*
X74157857Y-106402142D01*
X74157857Y-106473571D01*
X74122142Y-106580714D01*
X73693571Y-107009285D01*
X74157857Y-107009285D01*
X74622142Y-106259285D02*
X74693571Y-106259285D01*
X74765000Y-106295000D01*
X74800714Y-106330714D01*
X74836428Y-106402142D01*
X74872142Y-106545000D01*
X74872142Y-106723571D01*
X74836428Y-106866428D01*
X74800714Y-106937857D01*
X74765000Y-106973571D01*
X74693571Y-107009285D01*
X74622142Y-107009285D01*
X74550714Y-106973571D01*
X74515000Y-106937857D01*
X74479285Y-106866428D01*
X74443571Y-106723571D01*
X74443571Y-106545000D01*
X74479285Y-106402142D01*
X74515000Y-106330714D01*
X74550714Y-106295000D01*
X74622142Y-106259285D01*
X74157857Y-109549285D02*
X73729285Y-109549285D01*
X73943571Y-109549285D02*
X73943571Y-108799285D01*
X73872142Y-108906428D01*
X73800714Y-108977857D01*
X73729285Y-109013571D01*
X74515000Y-109549285D02*
X74657857Y-109549285D01*
X74729285Y-109513571D01*
X74765000Y-109477857D01*
X74836428Y-109370714D01*
X74872142Y-109227857D01*
X74872142Y-108942142D01*
X74836428Y-108870714D01*
X74800714Y-108835000D01*
X74729285Y-108799285D01*
X74586428Y-108799285D01*
X74515000Y-108835000D01*
X74479285Y-108870714D01*
X74443571Y-108942142D01*
X74443571Y-109120714D01*
X74479285Y-109192142D01*
X74515000Y-109227857D01*
X74586428Y-109263571D01*
X74729285Y-109263571D01*
X74800714Y-109227857D01*
X74836428Y-109192142D01*
X74872142Y-109120714D01*
D11*
X62858928Y-60539285D02*
X62930357Y-60539285D01*
X63001785Y-60575000D01*
X63037500Y-60610714D01*
X63073214Y-60682142D01*
X63108928Y-60825000D01*
X63108928Y-61003571D01*
X63073214Y-61146428D01*
X63037500Y-61217857D01*
X63001785Y-61253571D01*
X62930357Y-61289285D01*
X62858928Y-61289285D01*
X62787500Y-61253571D01*
X62751785Y-61217857D01*
X62716071Y-61146428D01*
X62680357Y-61003571D01*
X62680357Y-60825000D01*
X62716071Y-60682142D01*
X62751785Y-60610714D01*
X62787500Y-60575000D01*
X62858928Y-60539285D01*
D10*
X63076428Y-63829285D02*
X62647857Y-63829285D01*
X62862142Y-63829285D02*
X62862142Y-63079285D01*
X62790714Y-63186428D01*
X62719285Y-63257857D01*
X62647857Y-63293571D01*
X62647857Y-65690714D02*
X62683571Y-65655000D01*
X62755000Y-65619285D01*
X62933571Y-65619285D01*
X63005000Y-65655000D01*
X63040714Y-65690714D01*
X63076428Y-65762142D01*
X63076428Y-65833571D01*
X63040714Y-65940714D01*
X62612142Y-66369285D01*
X63076428Y-66369285D01*
X62612142Y-68159285D02*
X63076428Y-68159285D01*
X62826428Y-68445000D01*
X62933571Y-68445000D01*
X63005000Y-68480714D01*
X63040714Y-68516428D01*
X63076428Y-68587857D01*
X63076428Y-68766428D01*
X63040714Y-68837857D01*
X63005000Y-68873571D01*
X62933571Y-68909285D01*
X62719285Y-68909285D01*
X62647857Y-68873571D01*
X62612142Y-68837857D01*
X63005000Y-70949285D02*
X63005000Y-71449285D01*
X62826428Y-70663571D02*
X62647857Y-71199285D01*
X63112142Y-71199285D01*
X63040714Y-73239285D02*
X62683571Y-73239285D01*
X62647857Y-73596428D01*
X62683571Y-73560714D01*
X62755000Y-73525000D01*
X62933571Y-73525000D01*
X63005000Y-73560714D01*
X63040714Y-73596428D01*
X63076428Y-73667857D01*
X63076428Y-73846428D01*
X63040714Y-73917857D01*
X63005000Y-73953571D01*
X62933571Y-73989285D01*
X62755000Y-73989285D01*
X62683571Y-73953571D01*
X62647857Y-73917857D01*
X63005000Y-75779285D02*
X62862142Y-75779285D01*
X62790714Y-75815000D01*
X62755000Y-75850714D01*
X62683571Y-75957857D01*
X62647857Y-76100714D01*
X62647857Y-76386428D01*
X62683571Y-76457857D01*
X62719285Y-76493571D01*
X62790714Y-76529285D01*
X62933571Y-76529285D01*
X63005000Y-76493571D01*
X63040714Y-76457857D01*
X63076428Y-76386428D01*
X63076428Y-76207857D01*
X63040714Y-76136428D01*
X63005000Y-76100714D01*
X62933571Y-76065000D01*
X62790714Y-76065000D01*
X62719285Y-76100714D01*
X62683571Y-76136428D01*
X62647857Y-76207857D01*
X62612142Y-78319285D02*
X63112142Y-78319285D01*
X62790714Y-79069285D01*
X62790714Y-81180714D02*
X62719285Y-81145000D01*
X62683571Y-81109285D01*
X62647857Y-81037857D01*
X62647857Y-81002142D01*
X62683571Y-80930714D01*
X62719285Y-80895000D01*
X62790714Y-80859285D01*
X62933571Y-80859285D01*
X63005000Y-80895000D01*
X63040714Y-80930714D01*
X63076428Y-81002142D01*
X63076428Y-81037857D01*
X63040714Y-81109285D01*
X63005000Y-81145000D01*
X62933571Y-81180714D01*
X62790714Y-81180714D01*
X62719285Y-81216428D01*
X62683571Y-81252142D01*
X62647857Y-81323571D01*
X62647857Y-81466428D01*
X62683571Y-81537857D01*
X62719285Y-81573571D01*
X62790714Y-81609285D01*
X62933571Y-81609285D01*
X63005000Y-81573571D01*
X63040714Y-81537857D01*
X63076428Y-81466428D01*
X63076428Y-81323571D01*
X63040714Y-81252142D01*
X63005000Y-81216428D01*
X62933571Y-81180714D01*
X62719285Y-84149285D02*
X62862142Y-84149285D01*
X62933571Y-84113571D01*
X62969285Y-84077857D01*
X63040714Y-83970714D01*
X63076428Y-83827857D01*
X63076428Y-83542142D01*
X63040714Y-83470714D01*
X63005000Y-83435000D01*
X62933571Y-83399285D01*
X62790714Y-83399285D01*
X62719285Y-83435000D01*
X62683571Y-83470714D01*
X62647857Y-83542142D01*
X62647857Y-83720714D01*
X62683571Y-83792142D01*
X62719285Y-83827857D01*
X62790714Y-83863571D01*
X62933571Y-83863571D01*
X63005000Y-83827857D01*
X63040714Y-83792142D01*
X63076428Y-83720714D01*
X63076428Y-86689285D02*
X62647857Y-86689285D01*
X62862142Y-86689285D02*
X62862142Y-85939285D01*
X62790714Y-86046428D01*
X62719285Y-86117857D01*
X62647857Y-86153571D01*
X63540714Y-85939285D02*
X63612142Y-85939285D01*
X63683571Y-85975000D01*
X63719285Y-86010714D01*
X63755000Y-86082142D01*
X63790714Y-86225000D01*
X63790714Y-86403571D01*
X63755000Y-86546428D01*
X63719285Y-86617857D01*
X63683571Y-86653571D01*
X63612142Y-86689285D01*
X63540714Y-86689285D01*
X63469285Y-86653571D01*
X63433571Y-86617857D01*
X63397857Y-86546428D01*
X63362142Y-86403571D01*
X63362142Y-86225000D01*
X63397857Y-86082142D01*
X63433571Y-86010714D01*
X63469285Y-85975000D01*
X63540714Y-85939285D01*
X63076428Y-89229285D02*
X62647857Y-89229285D01*
X62862142Y-89229285D02*
X62862142Y-88479285D01*
X62790714Y-88586428D01*
X62719285Y-88657857D01*
X62647857Y-88693571D01*
X63790714Y-89229285D02*
X63362142Y-89229285D01*
X63576428Y-89229285D02*
X63576428Y-88479285D01*
X63505000Y-88586428D01*
X63433571Y-88657857D01*
X63362142Y-88693571D01*
X63076428Y-91769285D02*
X62647857Y-91769285D01*
X62862142Y-91769285D02*
X62862142Y-91019285D01*
X62790714Y-91126428D01*
X62719285Y-91197857D01*
X62647857Y-91233571D01*
X63362142Y-91090714D02*
X63397857Y-91055000D01*
X63469285Y-91019285D01*
X63647857Y-91019285D01*
X63719285Y-91055000D01*
X63755000Y-91090714D01*
X63790714Y-91162142D01*
X63790714Y-91233571D01*
X63755000Y-91340714D01*
X63326428Y-91769285D01*
X63790714Y-91769285D01*
X63076428Y-94309285D02*
X62647857Y-94309285D01*
X62862142Y-94309285D02*
X62862142Y-93559285D01*
X62790714Y-93666428D01*
X62719285Y-93737857D01*
X62647857Y-93773571D01*
X63326428Y-93559285D02*
X63790714Y-93559285D01*
X63540714Y-93845000D01*
X63647857Y-93845000D01*
X63719285Y-93880714D01*
X63755000Y-93916428D01*
X63790714Y-93987857D01*
X63790714Y-94166428D01*
X63755000Y-94237857D01*
X63719285Y-94273571D01*
X63647857Y-94309285D01*
X63433571Y-94309285D01*
X63362142Y-94273571D01*
X63326428Y-94237857D01*
X63076428Y-96849285D02*
X62647857Y-96849285D01*
X62862142Y-96849285D02*
X62862142Y-96099285D01*
X62790714Y-96206428D01*
X62719285Y-96277857D01*
X62647857Y-96313571D01*
X63719285Y-96349285D02*
X63719285Y-96849285D01*
X63540714Y-96063571D02*
X63362142Y-96599285D01*
X63826428Y-96599285D01*
X63076428Y-99389285D02*
X62647857Y-99389285D01*
X62862142Y-99389285D02*
X62862142Y-98639285D01*
X62790714Y-98746428D01*
X62719285Y-98817857D01*
X62647857Y-98853571D01*
X63755000Y-98639285D02*
X63397857Y-98639285D01*
X63362142Y-98996428D01*
X63397857Y-98960714D01*
X63469285Y-98925000D01*
X63647857Y-98925000D01*
X63719285Y-98960714D01*
X63755000Y-98996428D01*
X63790714Y-99067857D01*
X63790714Y-99246428D01*
X63755000Y-99317857D01*
X63719285Y-99353571D01*
X63647857Y-99389285D01*
X63469285Y-99389285D01*
X63397857Y-99353571D01*
X63362142Y-99317857D01*
X63076428Y-101929285D02*
X62647857Y-101929285D01*
X62862142Y-101929285D02*
X62862142Y-101179285D01*
X62790714Y-101286428D01*
X62719285Y-101357857D01*
X62647857Y-101393571D01*
X63719285Y-101179285D02*
X63576428Y-101179285D01*
X63505000Y-101215000D01*
X63469285Y-101250714D01*
X63397857Y-101357857D01*
X63362142Y-101500714D01*
X63362142Y-101786428D01*
X63397857Y-101857857D01*
X63433571Y-101893571D01*
X63505000Y-101929285D01*
X63647857Y-101929285D01*
X63719285Y-101893571D01*
X63755000Y-101857857D01*
X63790714Y-101786428D01*
X63790714Y-101607857D01*
X63755000Y-101536428D01*
X63719285Y-101500714D01*
X63647857Y-101465000D01*
X63505000Y-101465000D01*
X63433571Y-101500714D01*
X63397857Y-101536428D01*
X63362142Y-101607857D01*
X63076428Y-104469285D02*
X62647857Y-104469285D01*
X62862142Y-104469285D02*
X62862142Y-103719285D01*
X62790714Y-103826428D01*
X62719285Y-103897857D01*
X62647857Y-103933571D01*
X63326428Y-103719285D02*
X63826428Y-103719285D01*
X63505000Y-104469285D01*
X63076428Y-107009285D02*
X62647857Y-107009285D01*
X62862142Y-107009285D02*
X62862142Y-106259285D01*
X62790714Y-106366428D01*
X62719285Y-106437857D01*
X62647857Y-106473571D01*
X63505000Y-106580714D02*
X63433571Y-106545000D01*
X63397857Y-106509285D01*
X63362142Y-106437857D01*
X63362142Y-106402142D01*
X63397857Y-106330714D01*
X63433571Y-106295000D01*
X63505000Y-106259285D01*
X63647857Y-106259285D01*
X63719285Y-106295000D01*
X63755000Y-106330714D01*
X63790714Y-106402142D01*
X63790714Y-106437857D01*
X63755000Y-106509285D01*
X63719285Y-106545000D01*
X63647857Y-106580714D01*
X63505000Y-106580714D01*
X63433571Y-106616428D01*
X63397857Y-106652142D01*
X63362142Y-106723571D01*
X63362142Y-106866428D01*
X63397857Y-106937857D01*
X63433571Y-106973571D01*
X63505000Y-107009285D01*
X63647857Y-107009285D01*
X63719285Y-106973571D01*
X63755000Y-106937857D01*
X63790714Y-106866428D01*
X63790714Y-106723571D01*
X63755000Y-106652142D01*
X63719285Y-106616428D01*
X63647857Y-106580714D01*
X63076428Y-108835000D02*
X63005000Y-108799285D01*
X62897857Y-108799285D01*
X62790714Y-108835000D01*
X62719285Y-108906428D01*
X62683571Y-108977857D01*
X62647857Y-109120714D01*
X62647857Y-109227857D01*
X62683571Y-109370714D01*
X62719285Y-109442142D01*
X62790714Y-109513571D01*
X62897857Y-109549285D01*
X62969285Y-109549285D01*
X63076428Y-109513571D01*
X63112142Y-109477857D01*
X63112142Y-109227857D01*
X62969285Y-109227857D01*
X63433571Y-109549285D02*
X63433571Y-108799285D01*
X63862142Y-109549285D01*
X63862142Y-108799285D01*
X64219285Y-109549285D02*
X64219285Y-108799285D01*
X64397857Y-108799285D01*
X64505000Y-108835000D01*
X64576428Y-108906428D01*
X64612142Y-108977857D01*
X64647857Y-109120714D01*
X64647857Y-109227857D01*
X64612142Y-109370714D01*
X64576428Y-109442142D01*
X64505000Y-109513571D01*
X64397857Y-109549285D01*
X64219285Y-109549285D01*
D12*
%TO.C,U1*%
X70730000Y-82900000D02*
X70730000Y-83000000D01*
X70630000Y-82900000D02*
X70730000Y-82900000D01*
X70630000Y-83000000D02*
X70630000Y-82900000D01*
X70730000Y-83000000D02*
X70630000Y-83000000D01*
X70480000Y-77250000D02*
X70480000Y-82400000D01*
X66980000Y-77250000D02*
X70480000Y-77250000D01*
X66980000Y-82750000D02*
X66980000Y-77250000D01*
X70130000Y-82750000D02*
X66980000Y-82750000D01*
%TO.C,U2*%
X71455000Y-95465000D02*
X73130000Y-95465000D01*
X71455000Y-95725000D02*
X71455000Y-95465000D01*
X68730000Y-95725000D02*
X71455000Y-95725000D01*
X66005000Y-95725000D02*
X66005000Y-95465000D01*
X68730000Y-95725000D02*
X66005000Y-95725000D01*
X71455000Y-90275000D02*
X71455000Y-90535000D01*
X68730000Y-90275000D02*
X71455000Y-90275000D01*
X66005000Y-90275000D02*
X66005000Y-90535000D01*
X68730000Y-90275000D02*
X66005000Y-90275000D01*
%TO.C,X1*%
X69098400Y-71200000D02*
X69098400Y-70950000D01*
X68558400Y-71200000D02*
X69098400Y-71200000D01*
X71528400Y-74800000D02*
X71098400Y-74800000D01*
X71528400Y-71200000D02*
X71528400Y-74800000D01*
X71098400Y-71200000D02*
X71528400Y-71200000D01*
X71098400Y-70950000D02*
X71098400Y-71200000D01*
X69098400Y-74800000D02*
X68558400Y-74800000D01*
X66128400Y-71200000D02*
X66558400Y-71200000D01*
X66128400Y-74800000D02*
X66128400Y-71200000D01*
X66558400Y-74800000D02*
X66128400Y-74800000D01*
%TO.C,J3*%
X75020000Y-44380000D02*
X76350000Y-44380000D01*
X75020000Y-45710000D02*
X75020000Y-44380000D01*
X75020000Y-46980000D02*
X77680000Y-46980000D01*
X77680000Y-46980000D02*
X77680000Y-110540000D01*
X75020000Y-46980000D02*
X75020000Y-110540000D01*
X75020000Y-110540000D02*
X77680000Y-110540000D01*
%TO.C,J2*%
X59780000Y-44380000D02*
X61110000Y-44380000D01*
X59780000Y-45710000D02*
X59780000Y-44380000D01*
X59780000Y-46980000D02*
X62440000Y-46980000D01*
X62440000Y-46980000D02*
X62440000Y-110540000D01*
X59780000Y-46980000D02*
X59780000Y-110540000D01*
X59780000Y-110540000D02*
X62440000Y-110540000D01*
%TO.C,J1*%
X65680000Y-102710000D02*
X65630000Y-102710000D01*
X65680000Y-100290000D02*
X65630000Y-100290000D01*
X71750000Y-102710000D02*
X71700000Y-102710000D01*
X71750000Y-100290000D02*
X71700000Y-100290000D01*
X71700000Y-98910000D02*
X71700000Y-100290000D01*
X65630000Y-100290000D02*
X65630000Y-102710000D01*
X71750000Y-100290000D02*
X71750000Y-102710000D01*
%TO.C,U3*%
X69380000Y-68010000D02*
X71830000Y-68010000D01*
X71180000Y-64790000D02*
X69380000Y-64790000D01*
%TO.C,U6*%
X69380000Y-53960000D02*
X71830000Y-53960000D01*
X71180000Y-50740000D02*
X69380000Y-50740000D01*
%TO.C,U4*%
X69380000Y-64260000D02*
X71830000Y-64260000D01*
X71180000Y-61040000D02*
X69380000Y-61040000D01*
%TO.C,U5*%
X69380000Y-57710000D02*
X71830000Y-57710000D01*
X71180000Y-54490000D02*
X69380000Y-54490000D01*
%TO.C,JP1*%
X64180000Y-54100000D02*
X64180000Y-50000000D01*
X64180000Y-50000000D02*
X66180000Y-50000000D01*
X66180000Y-50000000D02*
X66180000Y-54100000D01*
X66180000Y-54100000D02*
X64180000Y-54100000D01*
X66380000Y-53350000D02*
X66680000Y-53650000D01*
X66680000Y-53650000D02*
X66680000Y-53050000D01*
X66380000Y-53350000D02*
X66680000Y-53050000D01*
%TO.C,JP3*%
X64180000Y-68650000D02*
X64180000Y-64550000D01*
X64180000Y-64550000D02*
X66180000Y-64550000D01*
X66180000Y-64550000D02*
X66180000Y-68650000D01*
X66180000Y-68650000D02*
X64180000Y-68650000D01*
X66380000Y-67900000D02*
X66680000Y-68200000D01*
X66680000Y-68200000D02*
X66680000Y-67600000D01*
X66380000Y-67900000D02*
X66680000Y-67600000D01*
%TO.C,JP2*%
X64180000Y-63800000D02*
X64180000Y-59700000D01*
X64180000Y-59700000D02*
X66180000Y-59700000D01*
X66180000Y-59700000D02*
X66180000Y-63800000D01*
X66180000Y-63800000D02*
X64180000Y-63800000D01*
X66380000Y-63050000D02*
X66680000Y-63350000D01*
X66680000Y-63350000D02*
X66680000Y-62750000D01*
X66380000Y-63050000D02*
X66680000Y-62750000D01*
%TO.C,C8*%
X68040000Y-66866779D02*
X68040000Y-66541221D01*
X67020000Y-66866779D02*
X67020000Y-66541221D01*
%TO.C,C7*%
X68040000Y-52812779D02*
X68040000Y-52487221D01*
X67020000Y-52812779D02*
X67020000Y-52487221D01*
%TO.C,C6*%
X73540000Y-63112779D02*
X73540000Y-62787221D01*
X72520000Y-63112779D02*
X72520000Y-62787221D01*
%TO.C,C5*%
X73540000Y-52812779D02*
X73540000Y-52487221D01*
X72520000Y-52812779D02*
X72520000Y-52487221D01*
%TO.C,C4*%
X68040000Y-63112779D02*
X68040000Y-62787221D01*
X67020000Y-63112779D02*
X67020000Y-62787221D01*
%TO.C,C3*%
X68040000Y-56562779D02*
X68040000Y-56237221D01*
X67020000Y-56562779D02*
X67020000Y-56237221D01*
%TO.C,C2*%
X73540000Y-66862779D02*
X73540000Y-66537221D01*
X72520000Y-66862779D02*
X72520000Y-66537221D01*
%TO.C,C1*%
X73540000Y-56562779D02*
X73540000Y-56237221D01*
X72520000Y-56562779D02*
X72520000Y-56237221D01*
%TO.C,U1*%
D11*
X64468095Y-78952380D02*
X64468095Y-79761904D01*
X64515714Y-79857142D01*
X64563333Y-79904761D01*
X64658571Y-79952380D01*
X64849047Y-79952380D01*
X64944285Y-79904761D01*
X64991904Y-79857142D01*
X65039523Y-79761904D01*
X65039523Y-78952380D01*
X66039523Y-79952380D02*
X65468095Y-79952380D01*
X65753809Y-79952380D02*
X65753809Y-78952380D01*
X65658571Y-79095238D01*
X65563333Y-79190476D01*
X65468095Y-79238095D01*
%TO.C,U2*%
X64568095Y-88852380D02*
X64568095Y-89661904D01*
X64615714Y-89757142D01*
X64663333Y-89804761D01*
X64758571Y-89852380D01*
X64949047Y-89852380D01*
X65044285Y-89804761D01*
X65091904Y-89757142D01*
X65139523Y-89661904D01*
X65139523Y-88852380D01*
X65568095Y-88947619D02*
X65615714Y-88900000D01*
X65710952Y-88852380D01*
X65949047Y-88852380D01*
X66044285Y-88900000D01*
X66091904Y-88947619D01*
X66139523Y-89042857D01*
X66139523Y-89138095D01*
X66091904Y-89280952D01*
X65520476Y-89852380D01*
X66139523Y-89852380D01*
%TO.C,X1*%
X64320476Y-72452380D02*
X64987142Y-73452380D01*
X64987142Y-72452380D02*
X64320476Y-73452380D01*
X65891904Y-73452380D02*
X65320476Y-73452380D01*
X65606190Y-73452380D02*
X65606190Y-72452380D01*
X65510952Y-72595238D01*
X65415714Y-72690476D01*
X65320476Y-72738095D01*
%TO.C,J1*%
X72246380Y-101923333D02*
X72960666Y-101923333D01*
X73103523Y-101970952D01*
X73198761Y-102066190D01*
X73246380Y-102209047D01*
X73246380Y-102304285D01*
X73246380Y-100923333D02*
X73246380Y-101494761D01*
X73246380Y-101209047D02*
X72246380Y-101209047D01*
X72389238Y-101304285D01*
X72484476Y-101399523D01*
X72532095Y-101494761D01*
%TO.C,U3*%
X69468095Y-68252380D02*
X69468095Y-69061904D01*
X69515714Y-69157142D01*
X69563333Y-69204761D01*
X69658571Y-69252380D01*
X69849047Y-69252380D01*
X69944285Y-69204761D01*
X69991904Y-69157142D01*
X70039523Y-69061904D01*
X70039523Y-68252380D01*
X70420476Y-68252380D02*
X71039523Y-68252380D01*
X70706190Y-68633333D01*
X70849047Y-68633333D01*
X70944285Y-68680952D01*
X70991904Y-68728571D01*
X71039523Y-68823809D01*
X71039523Y-69061904D01*
X70991904Y-69157142D01*
X70944285Y-69204761D01*
X70849047Y-69252380D01*
X70563333Y-69252380D01*
X70468095Y-69204761D01*
X70420476Y-69157142D01*
%TO.C,U6*%
X69568095Y-49252380D02*
X69568095Y-50061904D01*
X69615714Y-50157142D01*
X69663333Y-50204761D01*
X69758571Y-50252380D01*
X69949047Y-50252380D01*
X70044285Y-50204761D01*
X70091904Y-50157142D01*
X70139523Y-50061904D01*
X70139523Y-49252380D01*
X71044285Y-49252380D02*
X70853809Y-49252380D01*
X70758571Y-49300000D01*
X70710952Y-49347619D01*
X70615714Y-49490476D01*
X70568095Y-49680952D01*
X70568095Y-50061904D01*
X70615714Y-50157142D01*
X70663333Y-50204761D01*
X70758571Y-50252380D01*
X70949047Y-50252380D01*
X71044285Y-50204761D01*
X71091904Y-50157142D01*
X71139523Y-50061904D01*
X71139523Y-49823809D01*
X71091904Y-49728571D01*
X71044285Y-49680952D01*
X70949047Y-49633333D01*
X70758571Y-49633333D01*
X70663333Y-49680952D01*
X70615714Y-49728571D01*
X70568095Y-49823809D01*
%TO.C,U4*%
X69543095Y-59627380D02*
X69543095Y-60436904D01*
X69590714Y-60532142D01*
X69638333Y-60579761D01*
X69733571Y-60627380D01*
X69924047Y-60627380D01*
X70019285Y-60579761D01*
X70066904Y-60532142D01*
X70114523Y-60436904D01*
X70114523Y-59627380D01*
X71019285Y-59960714D02*
X71019285Y-60627380D01*
X70781190Y-59579761D02*
X70543095Y-60294047D01*
X71162142Y-60294047D01*
%TO.C,U5*%
X69468095Y-58002380D02*
X69468095Y-58811904D01*
X69515714Y-58907142D01*
X69563333Y-58954761D01*
X69658571Y-59002380D01*
X69849047Y-59002380D01*
X69944285Y-58954761D01*
X69991904Y-58907142D01*
X70039523Y-58811904D01*
X70039523Y-58002380D01*
X70991904Y-58002380D02*
X70515714Y-58002380D01*
X70468095Y-58478571D01*
X70515714Y-58430952D01*
X70610952Y-58383333D01*
X70849047Y-58383333D01*
X70944285Y-58430952D01*
X70991904Y-58478571D01*
X71039523Y-58573809D01*
X71039523Y-58811904D01*
X70991904Y-58907142D01*
X70944285Y-58954761D01*
X70849047Y-59002380D01*
X70610952Y-59002380D01*
X70515714Y-58954761D01*
X70468095Y-58907142D01*
%TO.C,JP1*%
X64396666Y-48652380D02*
X64396666Y-49366666D01*
X64349047Y-49509523D01*
X64253809Y-49604761D01*
X64110952Y-49652380D01*
X64015714Y-49652380D01*
X64872857Y-49652380D02*
X64872857Y-48652380D01*
X65253809Y-48652380D01*
X65349047Y-48700000D01*
X65396666Y-48747619D01*
X65444285Y-48842857D01*
X65444285Y-48985714D01*
X65396666Y-49080952D01*
X65349047Y-49128571D01*
X65253809Y-49176190D01*
X64872857Y-49176190D01*
X66396666Y-49652380D02*
X65825238Y-49652380D01*
X66110952Y-49652380D02*
X66110952Y-48652380D01*
X66015714Y-48795238D01*
X65920476Y-48890476D01*
X65825238Y-48938095D01*
%TO.C,JP3*%
X64296666Y-69052380D02*
X64296666Y-69766666D01*
X64249047Y-69909523D01*
X64153809Y-70004761D01*
X64010952Y-70052380D01*
X63915714Y-70052380D01*
X64772857Y-70052380D02*
X64772857Y-69052380D01*
X65153809Y-69052380D01*
X65249047Y-69100000D01*
X65296666Y-69147619D01*
X65344285Y-69242857D01*
X65344285Y-69385714D01*
X65296666Y-69480952D01*
X65249047Y-69528571D01*
X65153809Y-69576190D01*
X64772857Y-69576190D01*
X65677619Y-69052380D02*
X66296666Y-69052380D01*
X65963333Y-69433333D01*
X66106190Y-69433333D01*
X66201428Y-69480952D01*
X66249047Y-69528571D01*
X66296666Y-69623809D01*
X66296666Y-69861904D01*
X66249047Y-69957142D01*
X66201428Y-70004761D01*
X66106190Y-70052380D01*
X65820476Y-70052380D01*
X65725238Y-70004761D01*
X65677619Y-69957142D01*
%TO.C,JP2*%
X64296666Y-58252380D02*
X64296666Y-58966666D01*
X64249047Y-59109523D01*
X64153809Y-59204761D01*
X64010952Y-59252380D01*
X63915714Y-59252380D01*
X64772857Y-59252380D02*
X64772857Y-58252380D01*
X65153809Y-58252380D01*
X65249047Y-58300000D01*
X65296666Y-58347619D01*
X65344285Y-58442857D01*
X65344285Y-58585714D01*
X65296666Y-58680952D01*
X65249047Y-58728571D01*
X65153809Y-58776190D01*
X64772857Y-58776190D01*
X65725238Y-58347619D02*
X65772857Y-58300000D01*
X65868095Y-58252380D01*
X66106190Y-58252380D01*
X66201428Y-58300000D01*
X66249047Y-58347619D01*
X66296666Y-58442857D01*
X66296666Y-58538095D01*
X66249047Y-58680952D01*
X65677619Y-59252380D01*
X66296666Y-59252380D01*
%TD*%
M02*
