%TF.GenerationSoftware,KiCad,Pcbnew,(5.1.7-0-10_14)*%
%TF.CreationDate,2020-11-27T18:15:49+00:00*%
%TF.ProjectId,carrier,63617272-6965-4722-9e6b-696361645f70,0.1*%
%TF.SameCoordinates,Original*%
%TF.FileFunction,Copper,L4,Bot*%
%TF.FilePolarity,Positive*%
%FSLAX46Y46*%
G04 Gerber Fmt 4.6, Leading zero omitted, Abs format (unit mm)*
G04 Created by KiCad (PCBNEW (5.1.7-0-10_14)) date 2020-11-27 18:15:49*
%MOMM*%
%LPD*%
G01*
G04 APERTURE LIST*
%TA.AperFunction,ComponentPad*%
%ADD10O,1.700000X1.700000*%
%TD*%
%TA.AperFunction,ComponentPad*%
%ADD11R,1.700000X1.700000*%
%TD*%
%TA.AperFunction,ViaPad*%
%ADD12C,0.450000*%
%TD*%
%TA.AperFunction,Conductor*%
%ADD13C,0.450000*%
%TD*%
%TA.AperFunction,Conductor*%
%ADD14C,0.100000*%
%TD*%
G04 APERTURE END LIST*
D10*
%TO.P,J3,26*%
%TO.N,mprj_io[19]*%
X76350000Y-109210000D03*
%TO.P,J3,25*%
%TO.N,mprj_io[20]*%
X76350000Y-106670000D03*
%TO.P,J3,24*%
%TO.N,mprj_io[21]*%
X76350000Y-104130000D03*
%TO.P,J3,23*%
%TO.N,mprj_io[22]*%
X76350000Y-101590000D03*
%TO.P,J3,22*%
%TO.N,mprj_io[23]*%
X76350000Y-99050000D03*
%TO.P,J3,21*%
%TO.N,mprj_io[24]*%
X76350000Y-96510000D03*
%TO.P,J3,20*%
%TO.N,mprj_io[25]*%
X76350000Y-93970000D03*
%TO.P,J3,19*%
%TO.N,mprj_io[26]*%
X76350000Y-91430000D03*
%TO.P,J3,18*%
%TO.N,mprj_io[27]*%
X76350000Y-88890000D03*
%TO.P,J3,17*%
%TO.N,mprj_io[28]*%
X76350000Y-86350000D03*
%TO.P,J3,16*%
%TO.N,mprj_io[29]*%
X76350000Y-83810000D03*
%TO.P,J3,15*%
%TO.N,mprj_io[30]*%
X76350000Y-81270000D03*
%TO.P,J3,14*%
%TO.N,mprj_io[31]*%
X76350000Y-78730000D03*
%TO.P,J3,13*%
%TO.N,mprj_io[32]*%
X76350000Y-76190000D03*
%TO.P,J3,12*%
%TO.N,mprj_io[33]*%
X76350000Y-73650000D03*
%TO.P,J3,11*%
%TO.N,mprj_io[34]*%
X76350000Y-71110000D03*
%TO.P,J3,10*%
%TO.N,mprj_io[35]*%
X76350000Y-68570000D03*
%TO.P,J3,9*%
%TO.N,mprj_io[36]*%
X76350000Y-66030000D03*
%TO.P,J3,8*%
%TO.N,mprj_io[37]*%
X76350000Y-63490000D03*
%TO.P,J3,7*%
%TO.N,+5V*%
X76350000Y-60950000D03*
%TO.P,J3,6*%
%TO.N,flash_csb*%
X76350000Y-58410000D03*
%TO.P,J3,5*%
%TO.N,flash_io0*%
X76350000Y-55870000D03*
%TO.P,J3,4*%
%TO.N,flash_io1*%
X76350000Y-53330000D03*
%TO.P,J3,3*%
%TO.N,flash_clk*%
X76350000Y-50790000D03*
%TO.P,J3,2*%
%TO.N,GND*%
X76350000Y-48250000D03*
D11*
%TO.P,J3,1*%
%TO.N,+5V*%
X76350000Y-45710000D03*
%TD*%
D10*
%TO.P,J2,26*%
%TO.N,GND*%
X61110000Y-109210000D03*
%TO.P,J2,25*%
%TO.N,mprj_io[18]*%
X61110000Y-106670000D03*
%TO.P,J2,24*%
%TO.N,mprj_io[17]*%
X61110000Y-104130000D03*
%TO.P,J2,23*%
%TO.N,mprj_io[16]*%
X61110000Y-101590000D03*
%TO.P,J2,22*%
%TO.N,mprj_io[15]*%
X61110000Y-99050000D03*
%TO.P,J2,21*%
%TO.N,mprj_io[14]*%
X61110000Y-96510000D03*
%TO.P,J2,20*%
%TO.N,mprj_io[13]*%
X61110000Y-93970000D03*
%TO.P,J2,19*%
%TO.N,mprj_io[12]*%
X61110000Y-91430000D03*
%TO.P,J2,18*%
%TO.N,mprj_io[11]*%
X61110000Y-88890000D03*
%TO.P,J2,17*%
%TO.N,mprj_io[10]*%
X61110000Y-86350000D03*
%TO.P,J2,16*%
%TO.N,mprj_io[9]*%
X61110000Y-83810000D03*
%TO.P,J2,15*%
%TO.N,mprj_io[8]*%
X61110000Y-81270000D03*
%TO.P,J2,14*%
%TO.N,mprj_io[7]*%
X61110000Y-78730000D03*
%TO.P,J2,13*%
%TO.N,mprj_io[6]*%
X61110000Y-76190000D03*
%TO.P,J2,12*%
%TO.N,mprj_io[5]*%
X61110000Y-73650000D03*
%TO.P,J2,11*%
%TO.N,mprj_io[4]*%
X61110000Y-71110000D03*
%TO.P,J2,10*%
%TO.N,mprj_io[3]*%
X61110000Y-68570000D03*
%TO.P,J2,9*%
%TO.N,mprj_io[2]*%
X61110000Y-66030000D03*
%TO.P,J2,8*%
%TO.N,mprj_io[1]*%
X61110000Y-63490000D03*
%TO.P,J2,7*%
%TO.N,mprj_io[0]*%
X61110000Y-60950000D03*
%TO.P,J2,6*%
%TO.N,clock*%
X61110000Y-58410000D03*
%TO.P,J2,5*%
%TO.N,resetb*%
X61110000Y-55870000D03*
%TO.P,J2,4*%
%TO.N,gpio*%
X61110000Y-53330000D03*
%TO.P,J2,3*%
%TO.N,ext_3v3*%
X61110000Y-50790000D03*
%TO.P,J2,2*%
%TO.N,ext_1v8*%
X61110000Y-48250000D03*
D11*
%TO.P,J2,1*%
%TO.N,ext_vddio*%
X61110000Y-45710000D03*
%TD*%
D12*
%TO.N,GND*%
X73830000Y-51650000D03*
X66680000Y-52100000D03*
X73780000Y-52100000D03*
X66730000Y-51650000D03*
X73830000Y-55400000D03*
X66680000Y-55850000D03*
X73780000Y-55850000D03*
X66730000Y-55400000D03*
X73830000Y-61950000D03*
X66680000Y-62400000D03*
X73780000Y-62400000D03*
X66730000Y-61950000D03*
X70455000Y-82125000D03*
X73730000Y-81900000D03*
X73480000Y-79275000D03*
X64730000Y-78100000D03*
X68730000Y-80000000D03*
X66680000Y-66150000D03*
X66730000Y-65700000D03*
X73780000Y-66150000D03*
X73830000Y-65700000D03*
X66530000Y-71450000D03*
X66530000Y-72250000D03*
X71780000Y-75975000D03*
X71270000Y-91095000D03*
X70855000Y-82525000D03*
X74004990Y-82600000D03*
X64895000Y-101305000D03*
X64430000Y-82000000D03*
X64479990Y-80500000D03*
X63650000Y-105400000D03*
X64920000Y-73142000D03*
X64920000Y-71872000D03*
X63650000Y-107432000D03*
X71270000Y-89144000D03*
X70000000Y-87874000D03*
X73240000Y-89000000D03*
X73810000Y-74666000D03*
X67206000Y-60354000D03*
X74064000Y-59500000D03*
X64680000Y-55000000D03*
X67206000Y-93716000D03*
X70000000Y-92446000D03*
X64895000Y-101905000D03*
X64295000Y-101305000D03*
X64295000Y-101905000D03*
X64130000Y-57550000D03*
X70000000Y-69840000D03*
X73810000Y-72380000D03*
X72540000Y-70475000D03*
X66620000Y-69770000D03*
X69492000Y-85080000D03*
X70254000Y-60188000D03*
X73175000Y-97780000D03*
X70635000Y-96510000D03*
X68095000Y-96510000D03*
X64285000Y-97145000D03*
X64285000Y-99050000D03*
X63650000Y-110480000D03*
X66825000Y-110480000D03*
X70000000Y-110480000D03*
X73175000Y-110480000D03*
X73175000Y-102860000D03*
X72540000Y-46980000D03*
X70000000Y-46980000D03*
X67460000Y-46980000D03*
X64920000Y-46980000D03*
%TO.N,+5V*%
X74064000Y-105527000D03*
X73556000Y-105527000D03*
X73556000Y-105019000D03*
X74064000Y-105019000D03*
X73830000Y-53200000D03*
X73780000Y-53650000D03*
X73830000Y-56950000D03*
X73780000Y-57400000D03*
X73830000Y-63500000D03*
X73780000Y-63950000D03*
X73830000Y-67250000D03*
X73780000Y-67700000D03*
X72130000Y-51500000D03*
X72130000Y-55200000D03*
%TO.N,vccd*%
X66730000Y-57500000D03*
X66730000Y-57000000D03*
X70755000Y-75450000D03*
%TO.N,vdda*%
X64980000Y-53500000D03*
X66444000Y-94905000D03*
X65230000Y-76950000D03*
X71130000Y-74550000D03*
X71130000Y-73650000D03*
X65480000Y-53250000D03*
%TO.N,vccd1*%
X64930000Y-61900000D03*
X65430000Y-61600000D03*
X65130000Y-83300000D03*
X71380000Y-83050000D03*
%TO.N,vdda1*%
X64930000Y-66750000D03*
X65430000Y-66500000D03*
X65030000Y-81800000D03*
X71930000Y-78725000D03*
%TO.N,vddio*%
X64930000Y-52200000D03*
X65430000Y-51900000D03*
X72530000Y-82450000D03*
X71778000Y-99939000D03*
%TO.N,gpio*%
X70380000Y-61700000D03*
X70380000Y-65450000D03*
X65630000Y-75650000D03*
%TO.N,flash_io0*%
X66805000Y-91100000D03*
X68005010Y-75650000D03*
%TO.N,flash_csb*%
X68780000Y-75400000D03*
X70780000Y-94900000D03*
%TO.N,resetb*%
X63330000Y-90050000D03*
X65428000Y-103749000D03*
%TO.N,mprj_io[2]*%
X64530000Y-86900000D03*
X69111000Y-102987000D03*
%TO.N,mprj_io[1]*%
X64530000Y-86250000D03*
X70381000Y-103749000D03*
%TO.N,flash_io1*%
X67280000Y-75850000D03*
X67180000Y-89900000D03*
%TO.N,mprj_io[36]*%
X73455000Y-75975000D03*
%TO.N,mprj_io[4]*%
X63930000Y-87800000D03*
X67841000Y-102987000D03*
%TO.N,mprj_io[3]*%
X63930000Y-87150000D03*
X69111000Y-103749000D03*
%TO.N,flash_clk*%
X66530000Y-77900000D03*
X66280000Y-92350000D03*
%TO.N,mprj_io[33]*%
X69980000Y-76775000D03*
%TO.N,mprj_io[34]*%
X73329998Y-76975000D03*
%TO.N,mprj_io[6]*%
X63330000Y-88700000D03*
X66698000Y-102987000D03*
%TO.N,mprj_io[5]*%
X63930000Y-88450000D03*
X67841000Y-103749000D03*
%TO.N,mprj_io[0]*%
X64530000Y-85600000D03*
X70381000Y-102987000D03*
%TO.N,mprj_io[32]*%
X71255000Y-79375000D03*
%TO.N,mprj_io[7]*%
X63330000Y-89350000D03*
X66698000Y-103749000D03*
%TO.N,mprj_io[12]*%
X66280000Y-81375010D03*
%TO.N,mprj_io[11]*%
X66305000Y-81950000D03*
%TO.N,mprj_io[24]*%
X73605000Y-86150000D03*
%TO.N,mprj_io[15]*%
X66380000Y-83424990D03*
%TO.N,mprj_io[19]*%
X73605000Y-86875000D03*
%TD*%
D13*
%TO.N,vdda*%
X65729999Y-94190999D02*
X66444000Y-94905000D01*
X65330000Y-79200000D02*
X67130000Y-81000000D01*
X67130000Y-88419656D02*
X65729999Y-89819657D01*
X65729999Y-89819657D02*
X65729999Y-94190999D01*
X67130000Y-81000000D02*
X67130000Y-88419656D01*
X65330000Y-77050000D02*
X65330000Y-79200000D01*
X65230000Y-76950000D02*
X65330000Y-77050000D01*
D14*
%TO.N,gpio*%
X63580000Y-57800000D02*
X64480000Y-58700000D01*
X63580000Y-55800000D02*
X61110000Y-53330000D01*
X63580000Y-57800000D02*
X63580000Y-55800000D01*
X64530000Y-58750000D02*
X63580000Y-57800000D01*
X64530000Y-64500000D02*
X64530000Y-58750000D01*
X65830000Y-65800000D02*
X64530000Y-64500000D01*
X70380000Y-65450000D02*
X70380000Y-61700000D01*
X65830000Y-65800000D02*
X65830000Y-75560000D01*
X65830000Y-75560000D02*
X65740000Y-75650000D01*
X70130000Y-65200000D02*
X70380000Y-65450000D01*
X66430000Y-65200000D02*
X70130000Y-65200000D01*
X65830000Y-65800000D02*
X66430000Y-65200000D01*
%TO.N,flash_io0*%
X67230000Y-91100000D02*
X66805000Y-91100000D01*
X68130000Y-90200000D02*
X67230000Y-91100000D01*
X68130000Y-75774990D02*
X68130000Y-90200000D01*
X68005010Y-75650000D02*
X68130000Y-75774990D01*
X67830000Y-75474990D02*
X68005010Y-75650000D01*
X67830000Y-70250000D02*
X67830000Y-75474990D01*
X74023193Y-64827521D02*
X73252479Y-64827521D01*
X75130000Y-63720714D02*
X74023193Y-64827521D01*
X73252479Y-64827521D02*
X67830000Y-70250000D01*
X75130000Y-57090000D02*
X75130000Y-63720714D01*
X76350000Y-55870000D02*
X75130000Y-57090000D01*
%TO.N,flash_csb*%
X68354999Y-89525001D02*
X68354999Y-89600000D01*
X68354999Y-75825001D02*
X68354999Y-89525001D01*
X68780000Y-75400000D02*
X68354999Y-75825001D01*
X68780000Y-69582858D02*
X68780000Y-75400000D01*
X74083570Y-65050000D02*
X73312858Y-65050000D01*
X73312858Y-65050000D02*
X68780000Y-69582858D01*
X75349999Y-63783571D02*
X74083570Y-65050000D01*
X75349999Y-59410001D02*
X75349999Y-63783571D01*
X76350000Y-58410000D02*
X75349999Y-59410001D01*
X70030000Y-94900000D02*
X70780000Y-94900000D01*
X68354999Y-93224999D02*
X70030000Y-94900000D01*
X68354999Y-89525001D02*
X68354999Y-93224999D01*
%TO.N,resetb*%
X65255001Y-88124999D02*
X63330000Y-90050000D01*
X64054999Y-84124999D02*
X65255001Y-85325001D01*
X64054999Y-58814999D02*
X64054999Y-84124999D01*
X65255001Y-85325001D02*
X65255001Y-88124999D01*
X61110000Y-55870000D02*
X64054999Y-58814999D01*
%TO.N,mprj_io[2]*%
X63430000Y-85800000D02*
X64430000Y-86800000D01*
X63430000Y-68300000D02*
X63430000Y-85800000D01*
X61160000Y-66030000D02*
X63430000Y-68300000D01*
X61110000Y-66030000D02*
X61160000Y-66030000D01*
%TO.N,mprj_io[1]*%
X63630000Y-85300000D02*
X64630000Y-86300000D01*
X63630000Y-66000000D02*
X63630000Y-85300000D01*
X61110000Y-63480000D02*
X63630000Y-66000000D01*
X61110000Y-63490000D02*
X61110000Y-63480000D01*
%TO.N,flash_io1*%
X67830000Y-89250000D02*
X67180000Y-89900000D01*
X67830000Y-76400000D02*
X67830000Y-89250000D01*
X67630000Y-70150000D02*
X67630000Y-75500000D01*
X67647144Y-70150000D02*
X67630000Y-70150000D01*
X73169633Y-64627511D02*
X67647144Y-70150000D01*
X67280000Y-75850000D02*
X67830000Y-76400000D01*
X67630000Y-75500000D02*
X67280000Y-75850000D01*
X74929990Y-63637868D02*
X73940347Y-64627511D01*
X76350000Y-53330000D02*
X74929990Y-54750010D01*
X74929990Y-54750010D02*
X74929990Y-63637868D01*
X73940347Y-64627511D02*
X73169633Y-64627511D01*
%TO.N,mprj_io[36]*%
X75130000Y-67250000D02*
X75130000Y-74300000D01*
X75130000Y-74300000D02*
X73455000Y-75975000D01*
X76350000Y-66030000D02*
X75130000Y-67250000D01*
%TO.N,mprj_io[4]*%
X62980000Y-72950000D02*
X62980000Y-86850000D01*
X61140000Y-71110000D02*
X62980000Y-72950000D01*
X62980000Y-86850000D02*
X63930000Y-87800000D01*
X61110000Y-71110000D02*
X61140000Y-71110000D01*
%TO.N,mprj_io[3]*%
X63180000Y-86400000D02*
X63930000Y-87150000D01*
X63180000Y-70650000D02*
X63180000Y-86400000D01*
X61110000Y-68580000D02*
X63180000Y-70650000D01*
X61110000Y-68570000D02*
X61110000Y-68580000D01*
%TO.N,flash_clk*%
X66330000Y-92350000D02*
X66280000Y-92350000D01*
X73857501Y-64427501D02*
X73002499Y-64427501D01*
X66429999Y-92250001D02*
X66330000Y-92350000D01*
X67530000Y-78900000D02*
X67530000Y-88550000D01*
X66429999Y-89650001D02*
X66429999Y-92250001D01*
X67530000Y-88550000D02*
X66429999Y-89650001D01*
X76350000Y-50790000D02*
X74729980Y-52410020D01*
X66080000Y-77450000D02*
X67530000Y-78900000D01*
X73002499Y-64427501D02*
X66080000Y-71350000D01*
X74729980Y-63555022D02*
X73857501Y-64427501D01*
X66080000Y-71350000D02*
X66080000Y-77450000D01*
X74729980Y-52410020D02*
X74729980Y-63555022D01*
%TO.N,mprj_io[33]*%
X70705000Y-77500000D02*
X69980000Y-76775000D01*
X73480000Y-77500000D02*
X70705000Y-77500000D01*
X76350000Y-74630000D02*
X73480000Y-77500000D01*
X76350000Y-73650000D02*
X76350000Y-74630000D01*
%TO.N,mprj_io[34]*%
X75330000Y-74974998D02*
X73329998Y-76975000D01*
X76350000Y-71110000D02*
X75330000Y-72130000D01*
X75330000Y-72130000D02*
X75330000Y-74974998D01*
%TO.N,mprj_io[6]*%
X62580000Y-87950000D02*
X63330000Y-88700000D01*
X62580000Y-77650000D02*
X62580000Y-87950000D01*
X61120000Y-76190000D02*
X62580000Y-77650000D01*
X61110000Y-76190000D02*
X61120000Y-76190000D01*
%TO.N,mprj_io[5]*%
X62780000Y-87300000D02*
X63930000Y-88450000D01*
X62780000Y-75350000D02*
X62780000Y-87300000D01*
X61110000Y-73680000D02*
X62780000Y-75350000D01*
X61110000Y-73650000D02*
X61110000Y-73680000D01*
%TO.N,mprj_io[0]*%
X63830000Y-63600000D02*
X63830000Y-84900000D01*
X63830000Y-84900000D02*
X64530000Y-85600000D01*
X61180000Y-60950000D02*
X63830000Y-63600000D01*
X61110000Y-60950000D02*
X61180000Y-60950000D01*
%TO.N,mprj_io[32]*%
X72130000Y-77800000D02*
X71255000Y-78675000D01*
X74740000Y-77800000D02*
X72130000Y-77800000D01*
X71255000Y-78675000D02*
X71255000Y-79375000D01*
X76350000Y-76190000D02*
X74740000Y-77800000D01*
%TO.N,mprj_io[7]*%
X62380000Y-79950000D02*
X62380000Y-88400000D01*
X63280000Y-89300000D02*
X63330000Y-89300000D01*
X61160000Y-78730000D02*
X62380000Y-79950000D01*
X62380000Y-88400000D02*
X63280000Y-89300000D01*
X61110000Y-78730000D02*
X61160000Y-78730000D01*
%TO.N,mprj_io[12]*%
X61140000Y-91400000D02*
X61110000Y-91430000D01*
X63230000Y-91400000D02*
X61140000Y-91400000D01*
X65880000Y-88750000D02*
X63230000Y-91400000D01*
X65880000Y-83350000D02*
X65880000Y-88750000D01*
X66680001Y-82549999D02*
X65880000Y-83350000D01*
X66280000Y-81375010D02*
X66479989Y-81574999D01*
X66680001Y-81769999D02*
X66680001Y-82549999D01*
X66485001Y-81574999D02*
X66680001Y-81769999D01*
X66479989Y-81574999D02*
X66485001Y-81574999D01*
%TO.N,mprj_io[11]*%
X63630000Y-90600000D02*
X62180000Y-90600000D01*
X65630000Y-88600000D02*
X63630000Y-90600000D01*
X66305000Y-82625000D02*
X65630000Y-83300000D01*
X65630000Y-83300000D02*
X65630000Y-88600000D01*
X62180000Y-90600000D02*
X61110000Y-89530000D01*
X66305000Y-81950000D02*
X66305000Y-82625000D01*
%TO.N,mprj_io[24]*%
X74980010Y-87525010D02*
X74980010Y-95140010D01*
X74980010Y-95140010D02*
X76350000Y-96510000D01*
X73605000Y-86150000D02*
X74980010Y-87525010D01*
%TO.N,mprj_io[15]*%
X62110001Y-98049999D02*
X61110000Y-99050000D01*
X62110001Y-92869999D02*
X62110001Y-98049999D01*
X66380000Y-88600000D02*
X62110001Y-92869999D01*
X66380000Y-83424990D02*
X66380000Y-88600000D01*
%TO.N,mprj_io[19]*%
X74780000Y-88050000D02*
X74780000Y-107640000D01*
X74780000Y-107640000D02*
X76350000Y-109210000D01*
X73605000Y-86875000D02*
X74780000Y-88050000D01*
%TD*%
%TO.N,GND*%
X78205000Y-111065000D02*
X59255000Y-111065000D01*
X59255000Y-109589171D01*
X60020071Y-109589171D01*
X60071181Y-109712588D01*
X60189192Y-109905594D01*
X60342589Y-110071869D01*
X60525477Y-110205023D01*
X60730828Y-110299939D01*
X60906000Y-110269836D01*
X60906000Y-109414000D01*
X61314000Y-109414000D01*
X61314000Y-110269836D01*
X61489172Y-110299939D01*
X61694523Y-110205023D01*
X61877411Y-110071869D01*
X62030808Y-109905594D01*
X62148819Y-109712588D01*
X62199929Y-109589171D01*
X62168522Y-109414000D01*
X61314000Y-109414000D01*
X60906000Y-109414000D01*
X60051478Y-109414000D01*
X60020071Y-109589171D01*
X59255000Y-109589171D01*
X59255000Y-108830829D01*
X60020071Y-108830829D01*
X60051478Y-109006000D01*
X60906000Y-109006000D01*
X60906000Y-108150164D01*
X61314000Y-108150164D01*
X61314000Y-109006000D01*
X62168522Y-109006000D01*
X62199929Y-108830829D01*
X62148819Y-108707412D01*
X62030808Y-108514406D01*
X61877411Y-108348131D01*
X61694523Y-108214977D01*
X61489172Y-108120061D01*
X61314000Y-108150164D01*
X60906000Y-108150164D01*
X60730828Y-108120061D01*
X60525477Y-108214977D01*
X60342589Y-108348131D01*
X60189192Y-108514406D01*
X60071181Y-108707412D01*
X60020071Y-108830829D01*
X59255000Y-108830829D01*
X59255000Y-106566584D01*
X60060000Y-106566584D01*
X60060000Y-106773416D01*
X60100350Y-106976274D01*
X60179502Y-107167362D01*
X60294411Y-107339336D01*
X60440664Y-107485589D01*
X60612638Y-107600498D01*
X60803726Y-107679650D01*
X61006584Y-107720000D01*
X61213416Y-107720000D01*
X61416274Y-107679650D01*
X61607362Y-107600498D01*
X61779336Y-107485589D01*
X61925589Y-107339336D01*
X62040498Y-107167362D01*
X62119650Y-106976274D01*
X62160000Y-106773416D01*
X62160000Y-106566584D01*
X62119650Y-106363726D01*
X62040498Y-106172638D01*
X61925589Y-106000664D01*
X61779336Y-105854411D01*
X61607362Y-105739502D01*
X61416274Y-105660350D01*
X61213416Y-105620000D01*
X61006584Y-105620000D01*
X60803726Y-105660350D01*
X60612638Y-105739502D01*
X60440664Y-105854411D01*
X60294411Y-106000664D01*
X60179502Y-106172638D01*
X60100350Y-106363726D01*
X60060000Y-106566584D01*
X59255000Y-106566584D01*
X59255000Y-104026584D01*
X60060000Y-104026584D01*
X60060000Y-104233416D01*
X60100350Y-104436274D01*
X60179502Y-104627362D01*
X60294411Y-104799336D01*
X60440664Y-104945589D01*
X60612638Y-105060498D01*
X60803726Y-105139650D01*
X61006584Y-105180000D01*
X61213416Y-105180000D01*
X61416274Y-105139650D01*
X61607362Y-105060498D01*
X61732114Y-104977141D01*
X73131000Y-104977141D01*
X73131000Y-105060859D01*
X73147333Y-105142968D01*
X73179370Y-105220313D01*
X73214575Y-105273000D01*
X73179370Y-105325687D01*
X73147333Y-105403032D01*
X73131000Y-105485141D01*
X73131000Y-105568859D01*
X73147333Y-105650968D01*
X73179370Y-105728313D01*
X73225881Y-105797921D01*
X73285079Y-105857119D01*
X73354687Y-105903630D01*
X73432032Y-105935667D01*
X73514141Y-105952000D01*
X73597859Y-105952000D01*
X73679968Y-105935667D01*
X73757313Y-105903630D01*
X73810000Y-105868425D01*
X73862687Y-105903630D01*
X73940032Y-105935667D01*
X74022141Y-105952000D01*
X74105859Y-105952000D01*
X74187968Y-105935667D01*
X74265313Y-105903630D01*
X74334921Y-105857119D01*
X74394119Y-105797921D01*
X74440630Y-105728313D01*
X74472667Y-105650968D01*
X74489000Y-105568859D01*
X74489000Y-105485141D01*
X74472667Y-105403032D01*
X74440630Y-105325687D01*
X74405425Y-105273000D01*
X74440630Y-105220313D01*
X74472667Y-105142968D01*
X74489000Y-105060859D01*
X74489000Y-104977141D01*
X74472667Y-104895032D01*
X74440630Y-104817687D01*
X74394119Y-104748079D01*
X74334921Y-104688881D01*
X74265313Y-104642370D01*
X74187968Y-104610333D01*
X74105859Y-104594000D01*
X74022141Y-104594000D01*
X73940032Y-104610333D01*
X73862687Y-104642370D01*
X73810000Y-104677575D01*
X73757313Y-104642370D01*
X73679968Y-104610333D01*
X73597859Y-104594000D01*
X73514141Y-104594000D01*
X73432032Y-104610333D01*
X73354687Y-104642370D01*
X73285079Y-104688881D01*
X73225881Y-104748079D01*
X73179370Y-104817687D01*
X73147333Y-104895032D01*
X73131000Y-104977141D01*
X61732114Y-104977141D01*
X61779336Y-104945589D01*
X61925589Y-104799336D01*
X62040498Y-104627362D01*
X62119650Y-104436274D01*
X62160000Y-104233416D01*
X62160000Y-104026584D01*
X62119650Y-103823726D01*
X62071359Y-103707141D01*
X65003000Y-103707141D01*
X65003000Y-103790859D01*
X65019333Y-103872968D01*
X65051370Y-103950313D01*
X65097881Y-104019921D01*
X65157079Y-104079119D01*
X65226687Y-104125630D01*
X65304032Y-104157667D01*
X65386141Y-104174000D01*
X65469859Y-104174000D01*
X65551968Y-104157667D01*
X65629313Y-104125630D01*
X65698921Y-104079119D01*
X65758119Y-104019921D01*
X65804630Y-103950313D01*
X65836667Y-103872968D01*
X65853000Y-103790859D01*
X65853000Y-103707141D01*
X65836667Y-103625032D01*
X65804630Y-103547687D01*
X65758119Y-103478079D01*
X65698921Y-103418881D01*
X65629313Y-103372370D01*
X65551968Y-103340333D01*
X65469859Y-103324000D01*
X65386141Y-103324000D01*
X65304032Y-103340333D01*
X65226687Y-103372370D01*
X65157079Y-103418881D01*
X65097881Y-103478079D01*
X65051370Y-103547687D01*
X65019333Y-103625032D01*
X65003000Y-103707141D01*
X62071359Y-103707141D01*
X62040498Y-103632638D01*
X61925589Y-103460664D01*
X61779336Y-103314411D01*
X61607362Y-103199502D01*
X61416274Y-103120350D01*
X61213416Y-103080000D01*
X61006584Y-103080000D01*
X60803726Y-103120350D01*
X60612638Y-103199502D01*
X60440664Y-103314411D01*
X60294411Y-103460664D01*
X60179502Y-103632638D01*
X60100350Y-103823726D01*
X60060000Y-104026584D01*
X59255000Y-104026584D01*
X59255000Y-102945141D01*
X66273000Y-102945141D01*
X66273000Y-103028859D01*
X66289333Y-103110968D01*
X66321370Y-103188313D01*
X66367881Y-103257921D01*
X66427079Y-103317119D01*
X66496687Y-103363630D01*
X66507237Y-103368000D01*
X66496687Y-103372370D01*
X66427079Y-103418881D01*
X66367881Y-103478079D01*
X66321370Y-103547687D01*
X66289333Y-103625032D01*
X66273000Y-103707141D01*
X66273000Y-103790859D01*
X66289333Y-103872968D01*
X66321370Y-103950313D01*
X66367881Y-104019921D01*
X66427079Y-104079119D01*
X66496687Y-104125630D01*
X66574032Y-104157667D01*
X66656141Y-104174000D01*
X66739859Y-104174000D01*
X66821968Y-104157667D01*
X66899313Y-104125630D01*
X66968921Y-104079119D01*
X67028119Y-104019921D01*
X67074630Y-103950313D01*
X67106667Y-103872968D01*
X67123000Y-103790859D01*
X67123000Y-103707141D01*
X67106667Y-103625032D01*
X67074630Y-103547687D01*
X67028119Y-103478079D01*
X66968921Y-103418881D01*
X66899313Y-103372370D01*
X66888763Y-103368000D01*
X66899313Y-103363630D01*
X66968921Y-103317119D01*
X67028119Y-103257921D01*
X67074630Y-103188313D01*
X67106667Y-103110968D01*
X67123000Y-103028859D01*
X67123000Y-102945141D01*
X67416000Y-102945141D01*
X67416000Y-103028859D01*
X67432333Y-103110968D01*
X67464370Y-103188313D01*
X67510881Y-103257921D01*
X67570079Y-103317119D01*
X67639687Y-103363630D01*
X67650237Y-103368000D01*
X67639687Y-103372370D01*
X67570079Y-103418881D01*
X67510881Y-103478079D01*
X67464370Y-103547687D01*
X67432333Y-103625032D01*
X67416000Y-103707141D01*
X67416000Y-103790859D01*
X67432333Y-103872968D01*
X67464370Y-103950313D01*
X67510881Y-104019921D01*
X67570079Y-104079119D01*
X67639687Y-104125630D01*
X67717032Y-104157667D01*
X67799141Y-104174000D01*
X67882859Y-104174000D01*
X67964968Y-104157667D01*
X68042313Y-104125630D01*
X68111921Y-104079119D01*
X68171119Y-104019921D01*
X68217630Y-103950313D01*
X68249667Y-103872968D01*
X68266000Y-103790859D01*
X68266000Y-103707141D01*
X68249667Y-103625032D01*
X68217630Y-103547687D01*
X68171119Y-103478079D01*
X68111921Y-103418881D01*
X68042313Y-103372370D01*
X68031763Y-103368000D01*
X68042313Y-103363630D01*
X68111921Y-103317119D01*
X68171119Y-103257921D01*
X68217630Y-103188313D01*
X68249667Y-103110968D01*
X68266000Y-103028859D01*
X68266000Y-102945141D01*
X68686000Y-102945141D01*
X68686000Y-103028859D01*
X68702333Y-103110968D01*
X68734370Y-103188313D01*
X68780881Y-103257921D01*
X68840079Y-103317119D01*
X68909687Y-103363630D01*
X68920237Y-103368000D01*
X68909687Y-103372370D01*
X68840079Y-103418881D01*
X68780881Y-103478079D01*
X68734370Y-103547687D01*
X68702333Y-103625032D01*
X68686000Y-103707141D01*
X68686000Y-103790859D01*
X68702333Y-103872968D01*
X68734370Y-103950313D01*
X68780881Y-104019921D01*
X68840079Y-104079119D01*
X68909687Y-104125630D01*
X68987032Y-104157667D01*
X69069141Y-104174000D01*
X69152859Y-104174000D01*
X69234968Y-104157667D01*
X69312313Y-104125630D01*
X69381921Y-104079119D01*
X69441119Y-104019921D01*
X69487630Y-103950313D01*
X69519667Y-103872968D01*
X69536000Y-103790859D01*
X69536000Y-103707141D01*
X69519667Y-103625032D01*
X69487630Y-103547687D01*
X69441119Y-103478079D01*
X69381921Y-103418881D01*
X69312313Y-103372370D01*
X69301763Y-103368000D01*
X69312313Y-103363630D01*
X69381921Y-103317119D01*
X69441119Y-103257921D01*
X69487630Y-103188313D01*
X69519667Y-103110968D01*
X69536000Y-103028859D01*
X69536000Y-102945141D01*
X69956000Y-102945141D01*
X69956000Y-103028859D01*
X69972333Y-103110968D01*
X70004370Y-103188313D01*
X70050881Y-103257921D01*
X70110079Y-103317119D01*
X70179687Y-103363630D01*
X70190237Y-103368000D01*
X70179687Y-103372370D01*
X70110079Y-103418881D01*
X70050881Y-103478079D01*
X70004370Y-103547687D01*
X69972333Y-103625032D01*
X69956000Y-103707141D01*
X69956000Y-103790859D01*
X69972333Y-103872968D01*
X70004370Y-103950313D01*
X70050881Y-104019921D01*
X70110079Y-104079119D01*
X70179687Y-104125630D01*
X70257032Y-104157667D01*
X70339141Y-104174000D01*
X70422859Y-104174000D01*
X70504968Y-104157667D01*
X70582313Y-104125630D01*
X70651921Y-104079119D01*
X70711119Y-104019921D01*
X70757630Y-103950313D01*
X70789667Y-103872968D01*
X70806000Y-103790859D01*
X70806000Y-103707141D01*
X70789667Y-103625032D01*
X70757630Y-103547687D01*
X70711119Y-103478079D01*
X70651921Y-103418881D01*
X70582313Y-103372370D01*
X70571763Y-103368000D01*
X70582313Y-103363630D01*
X70651921Y-103317119D01*
X70711119Y-103257921D01*
X70757630Y-103188313D01*
X70789667Y-103110968D01*
X70806000Y-103028859D01*
X70806000Y-102945141D01*
X70789667Y-102863032D01*
X70757630Y-102785687D01*
X70711119Y-102716079D01*
X70651921Y-102656881D01*
X70582313Y-102610370D01*
X70504968Y-102578333D01*
X70422859Y-102562000D01*
X70339141Y-102562000D01*
X70257032Y-102578333D01*
X70179687Y-102610370D01*
X70110079Y-102656881D01*
X70050881Y-102716079D01*
X70004370Y-102785687D01*
X69972333Y-102863032D01*
X69956000Y-102945141D01*
X69536000Y-102945141D01*
X69519667Y-102863032D01*
X69487630Y-102785687D01*
X69441119Y-102716079D01*
X69381921Y-102656881D01*
X69312313Y-102610370D01*
X69234968Y-102578333D01*
X69152859Y-102562000D01*
X69069141Y-102562000D01*
X68987032Y-102578333D01*
X68909687Y-102610370D01*
X68840079Y-102656881D01*
X68780881Y-102716079D01*
X68734370Y-102785687D01*
X68702333Y-102863032D01*
X68686000Y-102945141D01*
X68266000Y-102945141D01*
X68249667Y-102863032D01*
X68217630Y-102785687D01*
X68171119Y-102716079D01*
X68111921Y-102656881D01*
X68042313Y-102610370D01*
X67964968Y-102578333D01*
X67882859Y-102562000D01*
X67799141Y-102562000D01*
X67717032Y-102578333D01*
X67639687Y-102610370D01*
X67570079Y-102656881D01*
X67510881Y-102716079D01*
X67464370Y-102785687D01*
X67432333Y-102863032D01*
X67416000Y-102945141D01*
X67123000Y-102945141D01*
X67106667Y-102863032D01*
X67074630Y-102785687D01*
X67028119Y-102716079D01*
X66968921Y-102656881D01*
X66899313Y-102610370D01*
X66821968Y-102578333D01*
X66739859Y-102562000D01*
X66656141Y-102562000D01*
X66574032Y-102578333D01*
X66496687Y-102610370D01*
X66427079Y-102656881D01*
X66367881Y-102716079D01*
X66321370Y-102785687D01*
X66289333Y-102863032D01*
X66273000Y-102945141D01*
X59255000Y-102945141D01*
X59255000Y-101486584D01*
X60060000Y-101486584D01*
X60060000Y-101693416D01*
X60100350Y-101896274D01*
X60179502Y-102087362D01*
X60294411Y-102259336D01*
X60440664Y-102405589D01*
X60612638Y-102520498D01*
X60803726Y-102599650D01*
X61006584Y-102640000D01*
X61213416Y-102640000D01*
X61416274Y-102599650D01*
X61607362Y-102520498D01*
X61779336Y-102405589D01*
X61925589Y-102259336D01*
X62040498Y-102087362D01*
X62119650Y-101896274D01*
X62160000Y-101693416D01*
X62160000Y-101486584D01*
X62119650Y-101283726D01*
X62040498Y-101092638D01*
X61925589Y-100920664D01*
X61779336Y-100774411D01*
X61607362Y-100659502D01*
X61416274Y-100580350D01*
X61213416Y-100540000D01*
X61006584Y-100540000D01*
X60803726Y-100580350D01*
X60612638Y-100659502D01*
X60440664Y-100774411D01*
X60294411Y-100920664D01*
X60179502Y-101092638D01*
X60100350Y-101283726D01*
X60060000Y-101486584D01*
X59255000Y-101486584D01*
X59255000Y-58306584D01*
X60060000Y-58306584D01*
X60060000Y-58513416D01*
X60100350Y-58716274D01*
X60179502Y-58907362D01*
X60294411Y-59079336D01*
X60440664Y-59225589D01*
X60612638Y-59340498D01*
X60803726Y-59419650D01*
X61006584Y-59460000D01*
X61213416Y-59460000D01*
X61416274Y-59419650D01*
X61607362Y-59340498D01*
X61779336Y-59225589D01*
X61925589Y-59079336D01*
X62040498Y-58907362D01*
X62119650Y-58716274D01*
X62160000Y-58513416D01*
X62160000Y-58306584D01*
X62119650Y-58103726D01*
X62040498Y-57912638D01*
X61925589Y-57740664D01*
X61779336Y-57594411D01*
X61607362Y-57479502D01*
X61416274Y-57400350D01*
X61213416Y-57360000D01*
X61006584Y-57360000D01*
X60803726Y-57400350D01*
X60612638Y-57479502D01*
X60440664Y-57594411D01*
X60294411Y-57740664D01*
X60179502Y-57912638D01*
X60100350Y-58103726D01*
X60060000Y-58306584D01*
X59255000Y-58306584D01*
X59255000Y-53226584D01*
X60060000Y-53226584D01*
X60060000Y-53433416D01*
X60100350Y-53636274D01*
X60179502Y-53827362D01*
X60294411Y-53999336D01*
X60440664Y-54145589D01*
X60612638Y-54260498D01*
X60803726Y-54339650D01*
X61006584Y-54380000D01*
X61213416Y-54380000D01*
X61416274Y-54339650D01*
X61607362Y-54260498D01*
X61655069Y-54228621D01*
X63330001Y-55903555D01*
X63330000Y-57736447D01*
X62008621Y-56415069D01*
X62040498Y-56367362D01*
X62119650Y-56176274D01*
X62160000Y-55973416D01*
X62160000Y-55766584D01*
X62119650Y-55563726D01*
X62040498Y-55372638D01*
X61925589Y-55200664D01*
X61779336Y-55054411D01*
X61607362Y-54939502D01*
X61416274Y-54860350D01*
X61213416Y-54820000D01*
X61006584Y-54820000D01*
X60803726Y-54860350D01*
X60612638Y-54939502D01*
X60440664Y-55054411D01*
X60294411Y-55200664D01*
X60179502Y-55372638D01*
X60100350Y-55563726D01*
X60060000Y-55766584D01*
X60060000Y-55973416D01*
X60100350Y-56176274D01*
X60179502Y-56367362D01*
X60294411Y-56539336D01*
X60440664Y-56685589D01*
X60612638Y-56800498D01*
X60803726Y-56879650D01*
X61006584Y-56920000D01*
X61213416Y-56920000D01*
X61416274Y-56879650D01*
X61607362Y-56800498D01*
X61655069Y-56768621D01*
X63804999Y-58918552D01*
X63804999Y-63221446D01*
X62036659Y-61453107D01*
X62040498Y-61447362D01*
X62119650Y-61256274D01*
X62160000Y-61053416D01*
X62160000Y-60846584D01*
X62119650Y-60643726D01*
X62040498Y-60452638D01*
X61925589Y-60280664D01*
X61779336Y-60134411D01*
X61607362Y-60019502D01*
X61416274Y-59940350D01*
X61213416Y-59900000D01*
X61006584Y-59900000D01*
X60803726Y-59940350D01*
X60612638Y-60019502D01*
X60440664Y-60134411D01*
X60294411Y-60280664D01*
X60179502Y-60452638D01*
X60100350Y-60643726D01*
X60060000Y-60846584D01*
X60060000Y-61053416D01*
X60100350Y-61256274D01*
X60179502Y-61447362D01*
X60294411Y-61619336D01*
X60440664Y-61765589D01*
X60612638Y-61880498D01*
X60803726Y-61959650D01*
X61006584Y-62000000D01*
X61213416Y-62000000D01*
X61416274Y-61959650D01*
X61607362Y-61880498D01*
X61697031Y-61820583D01*
X63580000Y-63703553D01*
X63580000Y-65596446D01*
X62012627Y-64029074D01*
X62040498Y-63987362D01*
X62119650Y-63796274D01*
X62160000Y-63593416D01*
X62160000Y-63386584D01*
X62119650Y-63183726D01*
X62040498Y-62992638D01*
X61925589Y-62820664D01*
X61779336Y-62674411D01*
X61607362Y-62559502D01*
X61416274Y-62480350D01*
X61213416Y-62440000D01*
X61006584Y-62440000D01*
X60803726Y-62480350D01*
X60612638Y-62559502D01*
X60440664Y-62674411D01*
X60294411Y-62820664D01*
X60179502Y-62992638D01*
X60100350Y-63183726D01*
X60060000Y-63386584D01*
X60060000Y-63593416D01*
X60100350Y-63796274D01*
X60179502Y-63987362D01*
X60294411Y-64159336D01*
X60440664Y-64305589D01*
X60612638Y-64420498D01*
X60803726Y-64499650D01*
X61006584Y-64540000D01*
X61213416Y-64540000D01*
X61416274Y-64499650D01*
X61607362Y-64420498D01*
X61661063Y-64384616D01*
X63380000Y-66103554D01*
X63380000Y-67896447D01*
X62028648Y-66545096D01*
X62040498Y-66527362D01*
X62119650Y-66336274D01*
X62160000Y-66133416D01*
X62160000Y-65926584D01*
X62119650Y-65723726D01*
X62040498Y-65532638D01*
X61925589Y-65360664D01*
X61779336Y-65214411D01*
X61607362Y-65099502D01*
X61416274Y-65020350D01*
X61213416Y-64980000D01*
X61006584Y-64980000D01*
X60803726Y-65020350D01*
X60612638Y-65099502D01*
X60440664Y-65214411D01*
X60294411Y-65360664D01*
X60179502Y-65532638D01*
X60100350Y-65723726D01*
X60060000Y-65926584D01*
X60060000Y-66133416D01*
X60100350Y-66336274D01*
X60179502Y-66527362D01*
X60294411Y-66699336D01*
X60440664Y-66845589D01*
X60612638Y-66960498D01*
X60803726Y-67039650D01*
X61006584Y-67080000D01*
X61213416Y-67080000D01*
X61416274Y-67039650D01*
X61607362Y-66960498D01*
X61685042Y-66908594D01*
X63180000Y-68403553D01*
X63180000Y-70296446D01*
X62004616Y-69121063D01*
X62040498Y-69067362D01*
X62119650Y-68876274D01*
X62160000Y-68673416D01*
X62160000Y-68466584D01*
X62119650Y-68263726D01*
X62040498Y-68072638D01*
X61925589Y-67900664D01*
X61779336Y-67754411D01*
X61607362Y-67639502D01*
X61416274Y-67560350D01*
X61213416Y-67520000D01*
X61006584Y-67520000D01*
X60803726Y-67560350D01*
X60612638Y-67639502D01*
X60440664Y-67754411D01*
X60294411Y-67900664D01*
X60179502Y-68072638D01*
X60100350Y-68263726D01*
X60060000Y-68466584D01*
X60060000Y-68673416D01*
X60100350Y-68876274D01*
X60179502Y-69067362D01*
X60294411Y-69239336D01*
X60440664Y-69385589D01*
X60612638Y-69500498D01*
X60803726Y-69579650D01*
X61006584Y-69620000D01*
X61213416Y-69620000D01*
X61416274Y-69579650D01*
X61607362Y-69500498D01*
X61649074Y-69472627D01*
X62930000Y-70753554D01*
X62930000Y-72546447D01*
X62020638Y-71637085D01*
X62040498Y-71607362D01*
X62119650Y-71416274D01*
X62160000Y-71213416D01*
X62160000Y-71006584D01*
X62119650Y-70803726D01*
X62040498Y-70612638D01*
X61925589Y-70440664D01*
X61779336Y-70294411D01*
X61607362Y-70179502D01*
X61416274Y-70100350D01*
X61213416Y-70060000D01*
X61006584Y-70060000D01*
X60803726Y-70100350D01*
X60612638Y-70179502D01*
X60440664Y-70294411D01*
X60294411Y-70440664D01*
X60179502Y-70612638D01*
X60100350Y-70803726D01*
X60060000Y-71006584D01*
X60060000Y-71213416D01*
X60100350Y-71416274D01*
X60179502Y-71607362D01*
X60294411Y-71779336D01*
X60440664Y-71925589D01*
X60612638Y-72040498D01*
X60803726Y-72119650D01*
X61006584Y-72160000D01*
X61213416Y-72160000D01*
X61416274Y-72119650D01*
X61607362Y-72040498D01*
X61673053Y-71996605D01*
X62730000Y-73053553D01*
X62730000Y-74946447D01*
X61996605Y-74213053D01*
X62040498Y-74147362D01*
X62119650Y-73956274D01*
X62160000Y-73753416D01*
X62160000Y-73546584D01*
X62119650Y-73343726D01*
X62040498Y-73152638D01*
X61925589Y-72980664D01*
X61779336Y-72834411D01*
X61607362Y-72719502D01*
X61416274Y-72640350D01*
X61213416Y-72600000D01*
X61006584Y-72600000D01*
X60803726Y-72640350D01*
X60612638Y-72719502D01*
X60440664Y-72834411D01*
X60294411Y-72980664D01*
X60179502Y-73152638D01*
X60100350Y-73343726D01*
X60060000Y-73546584D01*
X60060000Y-73753416D01*
X60100350Y-73956274D01*
X60179502Y-74147362D01*
X60294411Y-74319336D01*
X60440664Y-74465589D01*
X60612638Y-74580498D01*
X60803726Y-74659650D01*
X61006584Y-74700000D01*
X61213416Y-74700000D01*
X61416274Y-74659650D01*
X61607362Y-74580498D01*
X61637085Y-74560638D01*
X62530000Y-75453553D01*
X62530000Y-77246447D01*
X62012627Y-76729074D01*
X62040498Y-76687362D01*
X62119650Y-76496274D01*
X62160000Y-76293416D01*
X62160000Y-76086584D01*
X62119650Y-75883726D01*
X62040498Y-75692638D01*
X61925589Y-75520664D01*
X61779336Y-75374411D01*
X61607362Y-75259502D01*
X61416274Y-75180350D01*
X61213416Y-75140000D01*
X61006584Y-75140000D01*
X60803726Y-75180350D01*
X60612638Y-75259502D01*
X60440664Y-75374411D01*
X60294411Y-75520664D01*
X60179502Y-75692638D01*
X60100350Y-75883726D01*
X60060000Y-76086584D01*
X60060000Y-76293416D01*
X60100350Y-76496274D01*
X60179502Y-76687362D01*
X60294411Y-76859336D01*
X60440664Y-77005589D01*
X60612638Y-77120498D01*
X60803726Y-77199650D01*
X61006584Y-77240000D01*
X61213416Y-77240000D01*
X61416274Y-77199650D01*
X61607362Y-77120498D01*
X61661063Y-77084616D01*
X62330000Y-77753553D01*
X62330000Y-79546447D01*
X62028649Y-79245096D01*
X62040498Y-79227362D01*
X62119650Y-79036274D01*
X62160000Y-78833416D01*
X62160000Y-78626584D01*
X62119650Y-78423726D01*
X62040498Y-78232638D01*
X61925589Y-78060664D01*
X61779336Y-77914411D01*
X61607362Y-77799502D01*
X61416274Y-77720350D01*
X61213416Y-77680000D01*
X61006584Y-77680000D01*
X60803726Y-77720350D01*
X60612638Y-77799502D01*
X60440664Y-77914411D01*
X60294411Y-78060664D01*
X60179502Y-78232638D01*
X60100350Y-78423726D01*
X60060000Y-78626584D01*
X60060000Y-78833416D01*
X60100350Y-79036274D01*
X60179502Y-79227362D01*
X60294411Y-79399336D01*
X60440664Y-79545589D01*
X60612638Y-79660498D01*
X60803726Y-79739650D01*
X61006584Y-79780000D01*
X61213416Y-79780000D01*
X61416274Y-79739650D01*
X61607362Y-79660498D01*
X61685042Y-79608594D01*
X62130000Y-80053553D01*
X62130000Y-81015761D01*
X62119650Y-80963726D01*
X62040498Y-80772638D01*
X61925589Y-80600664D01*
X61779336Y-80454411D01*
X61607362Y-80339502D01*
X61416274Y-80260350D01*
X61213416Y-80220000D01*
X61006584Y-80220000D01*
X60803726Y-80260350D01*
X60612638Y-80339502D01*
X60440664Y-80454411D01*
X60294411Y-80600664D01*
X60179502Y-80772638D01*
X60100350Y-80963726D01*
X60060000Y-81166584D01*
X60060000Y-81373416D01*
X60100350Y-81576274D01*
X60179502Y-81767362D01*
X60294411Y-81939336D01*
X60440664Y-82085589D01*
X60612638Y-82200498D01*
X60803726Y-82279650D01*
X61006584Y-82320000D01*
X61213416Y-82320000D01*
X61416274Y-82279650D01*
X61607362Y-82200498D01*
X61779336Y-82085589D01*
X61925589Y-81939336D01*
X62040498Y-81767362D01*
X62119650Y-81576274D01*
X62130000Y-81524239D01*
X62130000Y-83555762D01*
X62119650Y-83503726D01*
X62040498Y-83312638D01*
X61925589Y-83140664D01*
X61779336Y-82994411D01*
X61607362Y-82879502D01*
X61416274Y-82800350D01*
X61213416Y-82760000D01*
X61006584Y-82760000D01*
X60803726Y-82800350D01*
X60612638Y-82879502D01*
X60440664Y-82994411D01*
X60294411Y-83140664D01*
X60179502Y-83312638D01*
X60100350Y-83503726D01*
X60060000Y-83706584D01*
X60060000Y-83913416D01*
X60100350Y-84116274D01*
X60179502Y-84307362D01*
X60294411Y-84479336D01*
X60440664Y-84625589D01*
X60612638Y-84740498D01*
X60803726Y-84819650D01*
X61006584Y-84860000D01*
X61213416Y-84860000D01*
X61416274Y-84819650D01*
X61607362Y-84740498D01*
X61779336Y-84625589D01*
X61925589Y-84479336D01*
X62040498Y-84307362D01*
X62119650Y-84116274D01*
X62130000Y-84064237D01*
X62130001Y-86095764D01*
X62119650Y-86043726D01*
X62040498Y-85852638D01*
X61925589Y-85680664D01*
X61779336Y-85534411D01*
X61607362Y-85419502D01*
X61416274Y-85340350D01*
X61213416Y-85300000D01*
X61006584Y-85300000D01*
X60803726Y-85340350D01*
X60612638Y-85419502D01*
X60440664Y-85534411D01*
X60294411Y-85680664D01*
X60179502Y-85852638D01*
X60100350Y-86043726D01*
X60060000Y-86246584D01*
X60060000Y-86453416D01*
X60100350Y-86656274D01*
X60179502Y-86847362D01*
X60294411Y-87019336D01*
X60440664Y-87165589D01*
X60612638Y-87280498D01*
X60803726Y-87359650D01*
X61006584Y-87400000D01*
X61213416Y-87400000D01*
X61416274Y-87359650D01*
X61607362Y-87280498D01*
X61779336Y-87165589D01*
X61925589Y-87019336D01*
X62040498Y-86847362D01*
X62119650Y-86656274D01*
X62130001Y-86604236D01*
X62130001Y-88387715D01*
X62128791Y-88400000D01*
X62133618Y-88449008D01*
X62147913Y-88496133D01*
X62171128Y-88539564D01*
X62202369Y-88577632D01*
X62211909Y-88585462D01*
X62909909Y-89283463D01*
X62905000Y-89308141D01*
X62905000Y-89391859D01*
X62921333Y-89473968D01*
X62953370Y-89551313D01*
X62999881Y-89620921D01*
X63059079Y-89680119D01*
X63088833Y-89700000D01*
X63059079Y-89719881D01*
X62999881Y-89779079D01*
X62953370Y-89848687D01*
X62921333Y-89926032D01*
X62905000Y-90008141D01*
X62905000Y-90091859D01*
X62921333Y-90173968D01*
X62953370Y-90251313D01*
X62999881Y-90320921D01*
X63028960Y-90350000D01*
X62283553Y-90350000D01*
X61695295Y-89761743D01*
X61779336Y-89705589D01*
X61925589Y-89559336D01*
X62040498Y-89387362D01*
X62119650Y-89196274D01*
X62160000Y-88993416D01*
X62160000Y-88786584D01*
X62119650Y-88583726D01*
X62040498Y-88392638D01*
X61925589Y-88220664D01*
X61779336Y-88074411D01*
X61607362Y-87959502D01*
X61416274Y-87880350D01*
X61213416Y-87840000D01*
X61006584Y-87840000D01*
X60803726Y-87880350D01*
X60612638Y-87959502D01*
X60440664Y-88074411D01*
X60294411Y-88220664D01*
X60179502Y-88392638D01*
X60100350Y-88583726D01*
X60060000Y-88786584D01*
X60060000Y-88993416D01*
X60100350Y-89196274D01*
X60179502Y-89387362D01*
X60294411Y-89559336D01*
X60440664Y-89705589D01*
X60612638Y-89820498D01*
X60803726Y-89899650D01*
X61006584Y-89940000D01*
X61166448Y-89940000D01*
X61994538Y-90768091D01*
X62002368Y-90777632D01*
X62040436Y-90808873D01*
X62083866Y-90832087D01*
X62107429Y-90839235D01*
X62130991Y-90846382D01*
X62180000Y-90851209D01*
X62192275Y-90850000D01*
X63426448Y-90850000D01*
X63126448Y-91150000D01*
X62124876Y-91150000D01*
X62119650Y-91123726D01*
X62040498Y-90932638D01*
X61925589Y-90760664D01*
X61779336Y-90614411D01*
X61607362Y-90499502D01*
X61416274Y-90420350D01*
X61213416Y-90380000D01*
X61006584Y-90380000D01*
X60803726Y-90420350D01*
X60612638Y-90499502D01*
X60440664Y-90614411D01*
X60294411Y-90760664D01*
X60179502Y-90932638D01*
X60100350Y-91123726D01*
X60060000Y-91326584D01*
X60060000Y-91533416D01*
X60100350Y-91736274D01*
X60179502Y-91927362D01*
X60294411Y-92099336D01*
X60440664Y-92245589D01*
X60612638Y-92360498D01*
X60803726Y-92439650D01*
X61006584Y-92480000D01*
X61213416Y-92480000D01*
X61416274Y-92439650D01*
X61607362Y-92360498D01*
X61779336Y-92245589D01*
X61925589Y-92099336D01*
X62040498Y-91927362D01*
X62119650Y-91736274D01*
X62136811Y-91650000D01*
X62976448Y-91650000D01*
X61941915Y-92684533D01*
X61932369Y-92692367D01*
X61901128Y-92730435D01*
X61886038Y-92758667D01*
X61877914Y-92773866D01*
X61863619Y-92820991D01*
X61858792Y-92869999D01*
X61860001Y-92882274D01*
X61860001Y-93235076D01*
X61779336Y-93154411D01*
X61607362Y-93039502D01*
X61416274Y-92960350D01*
X61213416Y-92920000D01*
X61006584Y-92920000D01*
X60803726Y-92960350D01*
X60612638Y-93039502D01*
X60440664Y-93154411D01*
X60294411Y-93300664D01*
X60179502Y-93472638D01*
X60100350Y-93663726D01*
X60060000Y-93866584D01*
X60060000Y-94073416D01*
X60100350Y-94276274D01*
X60179502Y-94467362D01*
X60294411Y-94639336D01*
X60440664Y-94785589D01*
X60612638Y-94900498D01*
X60803726Y-94979650D01*
X61006584Y-95020000D01*
X61213416Y-95020000D01*
X61416274Y-94979650D01*
X61607362Y-94900498D01*
X61779336Y-94785589D01*
X61860001Y-94704924D01*
X61860002Y-95775077D01*
X61779336Y-95694411D01*
X61607362Y-95579502D01*
X61416274Y-95500350D01*
X61213416Y-95460000D01*
X61006584Y-95460000D01*
X60803726Y-95500350D01*
X60612638Y-95579502D01*
X60440664Y-95694411D01*
X60294411Y-95840664D01*
X60179502Y-96012638D01*
X60100350Y-96203726D01*
X60060000Y-96406584D01*
X60060000Y-96613416D01*
X60100350Y-96816274D01*
X60179502Y-97007362D01*
X60294411Y-97179336D01*
X60440664Y-97325589D01*
X60612638Y-97440498D01*
X60803726Y-97519650D01*
X61006584Y-97560000D01*
X61213416Y-97560000D01*
X61416274Y-97519650D01*
X61607362Y-97440498D01*
X61779336Y-97325589D01*
X61860002Y-97244923D01*
X61860002Y-97946445D01*
X61655069Y-98151379D01*
X61607362Y-98119502D01*
X61416274Y-98040350D01*
X61213416Y-98000000D01*
X61006584Y-98000000D01*
X60803726Y-98040350D01*
X60612638Y-98119502D01*
X60440664Y-98234411D01*
X60294411Y-98380664D01*
X60179502Y-98552638D01*
X60100350Y-98743726D01*
X60060000Y-98946584D01*
X60060000Y-99153416D01*
X60100350Y-99356274D01*
X60179502Y-99547362D01*
X60294411Y-99719336D01*
X60440664Y-99865589D01*
X60612638Y-99980498D01*
X60803726Y-100059650D01*
X61006584Y-100100000D01*
X61213416Y-100100000D01*
X61416274Y-100059650D01*
X61607362Y-99980498D01*
X61732114Y-99897141D01*
X71353000Y-99897141D01*
X71353000Y-99980859D01*
X71369333Y-100062968D01*
X71401370Y-100140313D01*
X71447881Y-100209921D01*
X71507079Y-100269119D01*
X71576687Y-100315630D01*
X71654032Y-100347667D01*
X71736141Y-100364000D01*
X71819859Y-100364000D01*
X71901968Y-100347667D01*
X71979313Y-100315630D01*
X72048921Y-100269119D01*
X72108119Y-100209921D01*
X72154630Y-100140313D01*
X72186667Y-100062968D01*
X72203000Y-99980859D01*
X72203000Y-99897141D01*
X72186667Y-99815032D01*
X72154630Y-99737687D01*
X72108119Y-99668079D01*
X72048921Y-99608881D01*
X71979313Y-99562370D01*
X71901968Y-99530333D01*
X71819859Y-99514000D01*
X71736141Y-99514000D01*
X71654032Y-99530333D01*
X71576687Y-99562370D01*
X71507079Y-99608881D01*
X71447881Y-99668079D01*
X71401370Y-99737687D01*
X71369333Y-99815032D01*
X71353000Y-99897141D01*
X61732114Y-99897141D01*
X61779336Y-99865589D01*
X61925589Y-99719336D01*
X62040498Y-99547362D01*
X62119650Y-99356274D01*
X62160000Y-99153416D01*
X62160000Y-98946584D01*
X62119650Y-98743726D01*
X62040498Y-98552638D01*
X62008621Y-98504931D01*
X62278092Y-98235461D01*
X62287633Y-98227631D01*
X62318874Y-98189563D01*
X62342088Y-98146133D01*
X62356383Y-98099007D01*
X62360001Y-98062274D01*
X62361210Y-98049999D01*
X62360001Y-98037724D01*
X62360001Y-92973551D01*
X65304999Y-90028554D01*
X65305000Y-94170122D01*
X65302944Y-94190999D01*
X65311149Y-94274313D01*
X65335452Y-94354426D01*
X65374916Y-94428259D01*
X65402453Y-94461812D01*
X65413276Y-94475000D01*
X65428026Y-94492973D01*
X65444238Y-94506278D01*
X66158239Y-95220280D01*
X66158245Y-95220285D01*
X66173079Y-95235119D01*
X66190526Y-95246777D01*
X66206740Y-95260083D01*
X66225235Y-95269969D01*
X66242687Y-95281630D01*
X66262079Y-95289663D01*
X66280572Y-95299547D01*
X66300641Y-95305635D01*
X66320032Y-95313667D01*
X66340613Y-95317761D01*
X66360685Y-95323850D01*
X66381557Y-95325906D01*
X66402141Y-95330000D01*
X66423133Y-95330000D01*
X66444000Y-95332055D01*
X66464867Y-95330000D01*
X66485859Y-95330000D01*
X66506443Y-95325905D01*
X66527314Y-95323850D01*
X66547384Y-95317761D01*
X66567968Y-95313667D01*
X66587361Y-95305634D01*
X66607427Y-95299547D01*
X66625916Y-95289664D01*
X66645313Y-95281630D01*
X66662769Y-95269966D01*
X66681259Y-95260083D01*
X66697469Y-95246780D01*
X66714921Y-95235119D01*
X66729760Y-95220280D01*
X66745974Y-95206974D01*
X66759281Y-95190759D01*
X66774119Y-95175921D01*
X66785780Y-95158469D01*
X66799083Y-95142259D01*
X66808966Y-95123769D01*
X66820630Y-95106313D01*
X66828664Y-95086916D01*
X66838547Y-95068427D01*
X66844634Y-95048361D01*
X66852667Y-95028968D01*
X66856761Y-95008384D01*
X66862850Y-94988314D01*
X66864905Y-94967443D01*
X66869000Y-94946859D01*
X66869000Y-94925867D01*
X66871055Y-94905000D01*
X66869000Y-94884133D01*
X66869000Y-94863141D01*
X66864906Y-94842557D01*
X66862850Y-94821685D01*
X66856761Y-94801613D01*
X66852667Y-94781032D01*
X66844635Y-94761641D01*
X66838547Y-94741572D01*
X66828663Y-94723079D01*
X66820630Y-94703687D01*
X66808969Y-94686235D01*
X66799083Y-94667740D01*
X66785777Y-94651526D01*
X66774119Y-94634079D01*
X66759285Y-94619245D01*
X66759280Y-94619239D01*
X66154999Y-94014959D01*
X66154999Y-92758239D01*
X66156032Y-92758667D01*
X66238141Y-92775000D01*
X66321859Y-92775000D01*
X66403968Y-92758667D01*
X66481313Y-92726630D01*
X66550921Y-92680119D01*
X66610119Y-92620921D01*
X66656630Y-92551313D01*
X66688667Y-92473968D01*
X66705000Y-92391859D01*
X66705000Y-92308141D01*
X66688667Y-92226032D01*
X66679999Y-92205105D01*
X66679999Y-91508239D01*
X66681032Y-91508667D01*
X66763141Y-91525000D01*
X66846859Y-91525000D01*
X66928968Y-91508667D01*
X67006313Y-91476630D01*
X67075921Y-91430119D01*
X67135119Y-91370921D01*
X67149098Y-91350000D01*
X67217725Y-91350000D01*
X67230000Y-91351209D01*
X67279008Y-91346382D01*
X67326134Y-91332087D01*
X67369564Y-91308873D01*
X67407632Y-91277632D01*
X67415466Y-91268086D01*
X68104999Y-90578554D01*
X68105000Y-93212714D01*
X68103790Y-93224999D01*
X68108617Y-93274007D01*
X68122912Y-93321132D01*
X68122913Y-93321133D01*
X68146127Y-93364563D01*
X68177368Y-93402631D01*
X68186909Y-93410461D01*
X69844543Y-95068097D01*
X69852368Y-95077632D01*
X69890436Y-95108873D01*
X69933866Y-95132087D01*
X69980991Y-95146382D01*
X70029999Y-95151209D01*
X70042274Y-95150000D01*
X70435902Y-95150000D01*
X70449881Y-95170921D01*
X70509079Y-95230119D01*
X70578687Y-95276630D01*
X70656032Y-95308667D01*
X70738141Y-95325000D01*
X70821859Y-95325000D01*
X70903968Y-95308667D01*
X70981313Y-95276630D01*
X71050921Y-95230119D01*
X71110119Y-95170921D01*
X71156630Y-95101313D01*
X71188667Y-95023968D01*
X71205000Y-94941859D01*
X71205000Y-94858141D01*
X71188667Y-94776032D01*
X71156630Y-94698687D01*
X71110119Y-94629079D01*
X71050921Y-94569881D01*
X70981313Y-94523370D01*
X70903968Y-94491333D01*
X70821859Y-94475000D01*
X70738141Y-94475000D01*
X70656032Y-94491333D01*
X70578687Y-94523370D01*
X70509079Y-94569881D01*
X70449881Y-94629079D01*
X70435902Y-94650000D01*
X70133554Y-94650000D01*
X68604999Y-93121447D01*
X68604999Y-86108141D01*
X73180000Y-86108141D01*
X73180000Y-86191859D01*
X73196333Y-86273968D01*
X73228370Y-86351313D01*
X73274881Y-86420921D01*
X73334079Y-86480119D01*
X73382540Y-86512500D01*
X73334079Y-86544881D01*
X73274881Y-86604079D01*
X73228370Y-86673687D01*
X73196333Y-86751032D01*
X73180000Y-86833141D01*
X73180000Y-86916859D01*
X73196333Y-86998968D01*
X73228370Y-87076313D01*
X73274881Y-87145921D01*
X73334079Y-87205119D01*
X73403687Y-87251630D01*
X73481032Y-87283667D01*
X73563141Y-87300000D01*
X73646859Y-87300000D01*
X73671539Y-87295091D01*
X74530000Y-88153553D01*
X74530001Y-107627715D01*
X74528791Y-107640000D01*
X74533618Y-107689008D01*
X74547913Y-107736133D01*
X74547914Y-107736134D01*
X74571128Y-107779564D01*
X74602369Y-107817632D01*
X74611910Y-107825462D01*
X75451378Y-108664931D01*
X75419502Y-108712638D01*
X75340350Y-108903726D01*
X75300000Y-109106584D01*
X75300000Y-109313416D01*
X75340350Y-109516274D01*
X75419502Y-109707362D01*
X75534411Y-109879336D01*
X75680664Y-110025589D01*
X75852638Y-110140498D01*
X76043726Y-110219650D01*
X76246584Y-110260000D01*
X76453416Y-110260000D01*
X76656274Y-110219650D01*
X76847362Y-110140498D01*
X77019336Y-110025589D01*
X77165589Y-109879336D01*
X77280498Y-109707362D01*
X77359650Y-109516274D01*
X77400000Y-109313416D01*
X77400000Y-109106584D01*
X77359650Y-108903726D01*
X77280498Y-108712638D01*
X77165589Y-108540664D01*
X77019336Y-108394411D01*
X76847362Y-108279502D01*
X76656274Y-108200350D01*
X76453416Y-108160000D01*
X76246584Y-108160000D01*
X76043726Y-108200350D01*
X75852638Y-108279502D01*
X75804931Y-108311378D01*
X75030000Y-107536448D01*
X75030000Y-106566584D01*
X75300000Y-106566584D01*
X75300000Y-106773416D01*
X75340350Y-106976274D01*
X75419502Y-107167362D01*
X75534411Y-107339336D01*
X75680664Y-107485589D01*
X75852638Y-107600498D01*
X76043726Y-107679650D01*
X76246584Y-107720000D01*
X76453416Y-107720000D01*
X76656274Y-107679650D01*
X76847362Y-107600498D01*
X77019336Y-107485589D01*
X77165589Y-107339336D01*
X77280498Y-107167362D01*
X77359650Y-106976274D01*
X77400000Y-106773416D01*
X77400000Y-106566584D01*
X77359650Y-106363726D01*
X77280498Y-106172638D01*
X77165589Y-106000664D01*
X77019336Y-105854411D01*
X76847362Y-105739502D01*
X76656274Y-105660350D01*
X76453416Y-105620000D01*
X76246584Y-105620000D01*
X76043726Y-105660350D01*
X75852638Y-105739502D01*
X75680664Y-105854411D01*
X75534411Y-106000664D01*
X75419502Y-106172638D01*
X75340350Y-106363726D01*
X75300000Y-106566584D01*
X75030000Y-106566584D01*
X75030000Y-104026584D01*
X75300000Y-104026584D01*
X75300000Y-104233416D01*
X75340350Y-104436274D01*
X75419502Y-104627362D01*
X75534411Y-104799336D01*
X75680664Y-104945589D01*
X75852638Y-105060498D01*
X76043726Y-105139650D01*
X76246584Y-105180000D01*
X76453416Y-105180000D01*
X76656274Y-105139650D01*
X76847362Y-105060498D01*
X77019336Y-104945589D01*
X77165589Y-104799336D01*
X77280498Y-104627362D01*
X77359650Y-104436274D01*
X77400000Y-104233416D01*
X77400000Y-104026584D01*
X77359650Y-103823726D01*
X77280498Y-103632638D01*
X77165589Y-103460664D01*
X77019336Y-103314411D01*
X76847362Y-103199502D01*
X76656274Y-103120350D01*
X76453416Y-103080000D01*
X76246584Y-103080000D01*
X76043726Y-103120350D01*
X75852638Y-103199502D01*
X75680664Y-103314411D01*
X75534411Y-103460664D01*
X75419502Y-103632638D01*
X75340350Y-103823726D01*
X75300000Y-104026584D01*
X75030000Y-104026584D01*
X75030000Y-101486584D01*
X75300000Y-101486584D01*
X75300000Y-101693416D01*
X75340350Y-101896274D01*
X75419502Y-102087362D01*
X75534411Y-102259336D01*
X75680664Y-102405589D01*
X75852638Y-102520498D01*
X76043726Y-102599650D01*
X76246584Y-102640000D01*
X76453416Y-102640000D01*
X76656274Y-102599650D01*
X76847362Y-102520498D01*
X77019336Y-102405589D01*
X77165589Y-102259336D01*
X77280498Y-102087362D01*
X77359650Y-101896274D01*
X77400000Y-101693416D01*
X77400000Y-101486584D01*
X77359650Y-101283726D01*
X77280498Y-101092638D01*
X77165589Y-100920664D01*
X77019336Y-100774411D01*
X76847362Y-100659502D01*
X76656274Y-100580350D01*
X76453416Y-100540000D01*
X76246584Y-100540000D01*
X76043726Y-100580350D01*
X75852638Y-100659502D01*
X75680664Y-100774411D01*
X75534411Y-100920664D01*
X75419502Y-101092638D01*
X75340350Y-101283726D01*
X75300000Y-101486584D01*
X75030000Y-101486584D01*
X75030000Y-98946584D01*
X75300000Y-98946584D01*
X75300000Y-99153416D01*
X75340350Y-99356274D01*
X75419502Y-99547362D01*
X75534411Y-99719336D01*
X75680664Y-99865589D01*
X75852638Y-99980498D01*
X76043726Y-100059650D01*
X76246584Y-100100000D01*
X76453416Y-100100000D01*
X76656274Y-100059650D01*
X76847362Y-99980498D01*
X77019336Y-99865589D01*
X77165589Y-99719336D01*
X77280498Y-99547362D01*
X77359650Y-99356274D01*
X77400000Y-99153416D01*
X77400000Y-98946584D01*
X77359650Y-98743726D01*
X77280498Y-98552638D01*
X77165589Y-98380664D01*
X77019336Y-98234411D01*
X76847362Y-98119502D01*
X76656274Y-98040350D01*
X76453416Y-98000000D01*
X76246584Y-98000000D01*
X76043726Y-98040350D01*
X75852638Y-98119502D01*
X75680664Y-98234411D01*
X75534411Y-98380664D01*
X75419502Y-98552638D01*
X75340350Y-98743726D01*
X75300000Y-98946584D01*
X75030000Y-98946584D01*
X75030000Y-95543552D01*
X75451378Y-95964931D01*
X75419502Y-96012638D01*
X75340350Y-96203726D01*
X75300000Y-96406584D01*
X75300000Y-96613416D01*
X75340350Y-96816274D01*
X75419502Y-97007362D01*
X75534411Y-97179336D01*
X75680664Y-97325589D01*
X75852638Y-97440498D01*
X76043726Y-97519650D01*
X76246584Y-97560000D01*
X76453416Y-97560000D01*
X76656274Y-97519650D01*
X76847362Y-97440498D01*
X77019336Y-97325589D01*
X77165589Y-97179336D01*
X77280498Y-97007362D01*
X77359650Y-96816274D01*
X77400000Y-96613416D01*
X77400000Y-96406584D01*
X77359650Y-96203726D01*
X77280498Y-96012638D01*
X77165589Y-95840664D01*
X77019336Y-95694411D01*
X76847362Y-95579502D01*
X76656274Y-95500350D01*
X76453416Y-95460000D01*
X76246584Y-95460000D01*
X76043726Y-95500350D01*
X75852638Y-95579502D01*
X75804931Y-95611378D01*
X75230010Y-95036458D01*
X75230010Y-93866584D01*
X75300000Y-93866584D01*
X75300000Y-94073416D01*
X75340350Y-94276274D01*
X75419502Y-94467362D01*
X75534411Y-94639336D01*
X75680664Y-94785589D01*
X75852638Y-94900498D01*
X76043726Y-94979650D01*
X76246584Y-95020000D01*
X76453416Y-95020000D01*
X76656274Y-94979650D01*
X76847362Y-94900498D01*
X77019336Y-94785589D01*
X77165589Y-94639336D01*
X77280498Y-94467362D01*
X77359650Y-94276274D01*
X77400000Y-94073416D01*
X77400000Y-93866584D01*
X77359650Y-93663726D01*
X77280498Y-93472638D01*
X77165589Y-93300664D01*
X77019336Y-93154411D01*
X76847362Y-93039502D01*
X76656274Y-92960350D01*
X76453416Y-92920000D01*
X76246584Y-92920000D01*
X76043726Y-92960350D01*
X75852638Y-93039502D01*
X75680664Y-93154411D01*
X75534411Y-93300664D01*
X75419502Y-93472638D01*
X75340350Y-93663726D01*
X75300000Y-93866584D01*
X75230010Y-93866584D01*
X75230010Y-91326584D01*
X75300000Y-91326584D01*
X75300000Y-91533416D01*
X75340350Y-91736274D01*
X75419502Y-91927362D01*
X75534411Y-92099336D01*
X75680664Y-92245589D01*
X75852638Y-92360498D01*
X76043726Y-92439650D01*
X76246584Y-92480000D01*
X76453416Y-92480000D01*
X76656274Y-92439650D01*
X76847362Y-92360498D01*
X77019336Y-92245589D01*
X77165589Y-92099336D01*
X77280498Y-91927362D01*
X77359650Y-91736274D01*
X77400000Y-91533416D01*
X77400000Y-91326584D01*
X77359650Y-91123726D01*
X77280498Y-90932638D01*
X77165589Y-90760664D01*
X77019336Y-90614411D01*
X76847362Y-90499502D01*
X76656274Y-90420350D01*
X76453416Y-90380000D01*
X76246584Y-90380000D01*
X76043726Y-90420350D01*
X75852638Y-90499502D01*
X75680664Y-90614411D01*
X75534411Y-90760664D01*
X75419502Y-90932638D01*
X75340350Y-91123726D01*
X75300000Y-91326584D01*
X75230010Y-91326584D01*
X75230010Y-88786584D01*
X75300000Y-88786584D01*
X75300000Y-88993416D01*
X75340350Y-89196274D01*
X75419502Y-89387362D01*
X75534411Y-89559336D01*
X75680664Y-89705589D01*
X75852638Y-89820498D01*
X76043726Y-89899650D01*
X76246584Y-89940000D01*
X76453416Y-89940000D01*
X76656274Y-89899650D01*
X76847362Y-89820498D01*
X77019336Y-89705589D01*
X77165589Y-89559336D01*
X77280498Y-89387362D01*
X77359650Y-89196274D01*
X77400000Y-88993416D01*
X77400000Y-88786584D01*
X77359650Y-88583726D01*
X77280498Y-88392638D01*
X77165589Y-88220664D01*
X77019336Y-88074411D01*
X76847362Y-87959502D01*
X76656274Y-87880350D01*
X76453416Y-87840000D01*
X76246584Y-87840000D01*
X76043726Y-87880350D01*
X75852638Y-87959502D01*
X75680664Y-88074411D01*
X75534411Y-88220664D01*
X75419502Y-88392638D01*
X75340350Y-88583726D01*
X75300000Y-88786584D01*
X75230010Y-88786584D01*
X75230010Y-87537285D01*
X75231219Y-87525010D01*
X75226392Y-87476001D01*
X75212097Y-87428876D01*
X75207845Y-87420921D01*
X75188883Y-87385446D01*
X75157642Y-87347378D01*
X75148101Y-87339548D01*
X74055137Y-86246584D01*
X75300000Y-86246584D01*
X75300000Y-86453416D01*
X75340350Y-86656274D01*
X75419502Y-86847362D01*
X75534411Y-87019336D01*
X75680664Y-87165589D01*
X75852638Y-87280498D01*
X76043726Y-87359650D01*
X76246584Y-87400000D01*
X76453416Y-87400000D01*
X76656274Y-87359650D01*
X76847362Y-87280498D01*
X77019336Y-87165589D01*
X77165589Y-87019336D01*
X77280498Y-86847362D01*
X77359650Y-86656274D01*
X77400000Y-86453416D01*
X77400000Y-86246584D01*
X77359650Y-86043726D01*
X77280498Y-85852638D01*
X77165589Y-85680664D01*
X77019336Y-85534411D01*
X76847362Y-85419502D01*
X76656274Y-85340350D01*
X76453416Y-85300000D01*
X76246584Y-85300000D01*
X76043726Y-85340350D01*
X75852638Y-85419502D01*
X75680664Y-85534411D01*
X75534411Y-85680664D01*
X75419502Y-85852638D01*
X75340350Y-86043726D01*
X75300000Y-86246584D01*
X74055137Y-86246584D01*
X74025091Y-86216539D01*
X74030000Y-86191859D01*
X74030000Y-86108141D01*
X74013667Y-86026032D01*
X73981630Y-85948687D01*
X73935119Y-85879079D01*
X73875921Y-85819881D01*
X73806313Y-85773370D01*
X73728968Y-85741333D01*
X73646859Y-85725000D01*
X73563141Y-85725000D01*
X73481032Y-85741333D01*
X73403687Y-85773370D01*
X73334079Y-85819881D01*
X73274881Y-85879079D01*
X73228370Y-85948687D01*
X73196333Y-86026032D01*
X73180000Y-86108141D01*
X68604999Y-86108141D01*
X68604999Y-83706584D01*
X75300000Y-83706584D01*
X75300000Y-83913416D01*
X75340350Y-84116274D01*
X75419502Y-84307362D01*
X75534411Y-84479336D01*
X75680664Y-84625589D01*
X75852638Y-84740498D01*
X76043726Y-84819650D01*
X76246584Y-84860000D01*
X76453416Y-84860000D01*
X76656274Y-84819650D01*
X76847362Y-84740498D01*
X77019336Y-84625589D01*
X77165589Y-84479336D01*
X77280498Y-84307362D01*
X77359650Y-84116274D01*
X77400000Y-83913416D01*
X77400000Y-83706584D01*
X77359650Y-83503726D01*
X77280498Y-83312638D01*
X77165589Y-83140664D01*
X77019336Y-82994411D01*
X76847362Y-82879502D01*
X76656274Y-82800350D01*
X76453416Y-82760000D01*
X76246584Y-82760000D01*
X76043726Y-82800350D01*
X75852638Y-82879502D01*
X75680664Y-82994411D01*
X75534411Y-83140664D01*
X75419502Y-83312638D01*
X75340350Y-83503726D01*
X75300000Y-83706584D01*
X68604999Y-83706584D01*
X68604999Y-83008141D01*
X70955000Y-83008141D01*
X70955000Y-83091859D01*
X70971333Y-83173968D01*
X71003370Y-83251313D01*
X71049881Y-83320921D01*
X71109079Y-83380119D01*
X71178687Y-83426630D01*
X71256032Y-83458667D01*
X71338141Y-83475000D01*
X71421859Y-83475000D01*
X71503968Y-83458667D01*
X71581313Y-83426630D01*
X71650921Y-83380119D01*
X71710119Y-83320921D01*
X71756630Y-83251313D01*
X71788667Y-83173968D01*
X71805000Y-83091859D01*
X71805000Y-83008141D01*
X71788667Y-82926032D01*
X71756630Y-82848687D01*
X71710119Y-82779079D01*
X71650921Y-82719881D01*
X71581313Y-82673370D01*
X71503968Y-82641333D01*
X71421859Y-82625000D01*
X71338141Y-82625000D01*
X71256032Y-82641333D01*
X71178687Y-82673370D01*
X71109079Y-82719881D01*
X71049881Y-82779079D01*
X71003370Y-82848687D01*
X70971333Y-82926032D01*
X70955000Y-83008141D01*
X68604999Y-83008141D01*
X68604999Y-82408141D01*
X72105000Y-82408141D01*
X72105000Y-82491859D01*
X72121333Y-82573968D01*
X72153370Y-82651313D01*
X72199881Y-82720921D01*
X72259079Y-82780119D01*
X72328687Y-82826630D01*
X72406032Y-82858667D01*
X72488141Y-82875000D01*
X72571859Y-82875000D01*
X72653968Y-82858667D01*
X72731313Y-82826630D01*
X72800921Y-82780119D01*
X72860119Y-82720921D01*
X72906630Y-82651313D01*
X72938667Y-82573968D01*
X72955000Y-82491859D01*
X72955000Y-82408141D01*
X72938667Y-82326032D01*
X72906630Y-82248687D01*
X72860119Y-82179079D01*
X72800921Y-82119881D01*
X72731313Y-82073370D01*
X72653968Y-82041333D01*
X72571859Y-82025000D01*
X72488141Y-82025000D01*
X72406032Y-82041333D01*
X72328687Y-82073370D01*
X72259079Y-82119881D01*
X72199881Y-82179079D01*
X72153370Y-82248687D01*
X72121333Y-82326032D01*
X72105000Y-82408141D01*
X68604999Y-82408141D01*
X68604999Y-81166584D01*
X75300000Y-81166584D01*
X75300000Y-81373416D01*
X75340350Y-81576274D01*
X75419502Y-81767362D01*
X75534411Y-81939336D01*
X75680664Y-82085589D01*
X75852638Y-82200498D01*
X76043726Y-82279650D01*
X76246584Y-82320000D01*
X76453416Y-82320000D01*
X76656274Y-82279650D01*
X76847362Y-82200498D01*
X77019336Y-82085589D01*
X77165589Y-81939336D01*
X77280498Y-81767362D01*
X77359650Y-81576274D01*
X77400000Y-81373416D01*
X77400000Y-81166584D01*
X77359650Y-80963726D01*
X77280498Y-80772638D01*
X77165589Y-80600664D01*
X77019336Y-80454411D01*
X76847362Y-80339502D01*
X76656274Y-80260350D01*
X76453416Y-80220000D01*
X76246584Y-80220000D01*
X76043726Y-80260350D01*
X75852638Y-80339502D01*
X75680664Y-80454411D01*
X75534411Y-80600664D01*
X75419502Y-80772638D01*
X75340350Y-80963726D01*
X75300000Y-81166584D01*
X68604999Y-81166584D01*
X68604999Y-76733141D01*
X69555000Y-76733141D01*
X69555000Y-76816859D01*
X69571333Y-76898968D01*
X69603370Y-76976313D01*
X69649881Y-77045921D01*
X69709079Y-77105119D01*
X69778687Y-77151630D01*
X69856032Y-77183667D01*
X69938141Y-77200000D01*
X70021859Y-77200000D01*
X70046538Y-77195091D01*
X70519538Y-77668091D01*
X70527368Y-77677632D01*
X70565436Y-77708873D01*
X70586908Y-77720350D01*
X70608866Y-77732087D01*
X70655991Y-77746382D01*
X70705000Y-77751209D01*
X70717275Y-77750000D01*
X71826447Y-77750000D01*
X71086914Y-78489534D01*
X71077368Y-78497368D01*
X71046127Y-78535436D01*
X71022914Y-78578866D01*
X71022913Y-78578867D01*
X71008618Y-78625992D01*
X71003791Y-78675000D01*
X71005000Y-78687275D01*
X71005001Y-79030902D01*
X70984079Y-79044881D01*
X70924881Y-79104079D01*
X70878370Y-79173687D01*
X70846333Y-79251032D01*
X70830000Y-79333141D01*
X70830000Y-79416859D01*
X70846333Y-79498968D01*
X70878370Y-79576313D01*
X70924881Y-79645921D01*
X70984079Y-79705119D01*
X71053687Y-79751630D01*
X71131032Y-79783667D01*
X71213141Y-79800000D01*
X71296859Y-79800000D01*
X71378968Y-79783667D01*
X71456313Y-79751630D01*
X71525921Y-79705119D01*
X71585119Y-79645921D01*
X71631630Y-79576313D01*
X71663667Y-79498968D01*
X71680000Y-79416859D01*
X71680000Y-79333141D01*
X71663667Y-79251032D01*
X71631630Y-79173687D01*
X71585119Y-79104079D01*
X71525921Y-79044881D01*
X71505000Y-79030902D01*
X71505000Y-78778552D01*
X71506940Y-78776612D01*
X71521333Y-78848968D01*
X71553370Y-78926313D01*
X71599881Y-78995921D01*
X71659079Y-79055119D01*
X71728687Y-79101630D01*
X71806032Y-79133667D01*
X71888141Y-79150000D01*
X71971859Y-79150000D01*
X72053968Y-79133667D01*
X72131313Y-79101630D01*
X72200921Y-79055119D01*
X72260119Y-78995921D01*
X72306630Y-78926313D01*
X72338667Y-78848968D01*
X72355000Y-78766859D01*
X72355000Y-78683141D01*
X72343750Y-78626584D01*
X75300000Y-78626584D01*
X75300000Y-78833416D01*
X75340350Y-79036274D01*
X75419502Y-79227362D01*
X75534411Y-79399336D01*
X75680664Y-79545589D01*
X75852638Y-79660498D01*
X76043726Y-79739650D01*
X76246584Y-79780000D01*
X76453416Y-79780000D01*
X76656274Y-79739650D01*
X76847362Y-79660498D01*
X77019336Y-79545589D01*
X77165589Y-79399336D01*
X77280498Y-79227362D01*
X77359650Y-79036274D01*
X77400000Y-78833416D01*
X77400000Y-78626584D01*
X77359650Y-78423726D01*
X77280498Y-78232638D01*
X77165589Y-78060664D01*
X77019336Y-77914411D01*
X76847362Y-77799502D01*
X76656274Y-77720350D01*
X76453416Y-77680000D01*
X76246584Y-77680000D01*
X76043726Y-77720350D01*
X75852638Y-77799502D01*
X75680664Y-77914411D01*
X75534411Y-78060664D01*
X75419502Y-78232638D01*
X75340350Y-78423726D01*
X75300000Y-78626584D01*
X72343750Y-78626584D01*
X72338667Y-78601032D01*
X72306630Y-78523687D01*
X72260119Y-78454079D01*
X72200921Y-78394881D01*
X72131313Y-78348370D01*
X72053968Y-78316333D01*
X71981612Y-78301940D01*
X72233553Y-78050000D01*
X74727725Y-78050000D01*
X74740000Y-78051209D01*
X74789008Y-78046382D01*
X74836134Y-78032087D01*
X74879564Y-78008873D01*
X74917632Y-77977632D01*
X74925466Y-77968086D01*
X75804931Y-77088621D01*
X75852638Y-77120498D01*
X76043726Y-77199650D01*
X76246584Y-77240000D01*
X76453416Y-77240000D01*
X76656274Y-77199650D01*
X76847362Y-77120498D01*
X77019336Y-77005589D01*
X77165589Y-76859336D01*
X77280498Y-76687362D01*
X77359650Y-76496274D01*
X77400000Y-76293416D01*
X77400000Y-76086584D01*
X77359650Y-75883726D01*
X77280498Y-75692638D01*
X77165589Y-75520664D01*
X77019336Y-75374411D01*
X76847362Y-75259502D01*
X76656274Y-75180350D01*
X76453416Y-75140000D01*
X76246584Y-75140000D01*
X76180385Y-75153167D01*
X76518091Y-74815462D01*
X76527632Y-74807632D01*
X76558873Y-74769564D01*
X76582087Y-74726134D01*
X76582798Y-74723789D01*
X76596382Y-74679009D01*
X76597130Y-74671414D01*
X76656274Y-74659650D01*
X76847362Y-74580498D01*
X77019336Y-74465589D01*
X77165589Y-74319336D01*
X77280498Y-74147362D01*
X77359650Y-73956274D01*
X77400000Y-73753416D01*
X77400000Y-73546584D01*
X77359650Y-73343726D01*
X77280498Y-73152638D01*
X77165589Y-72980664D01*
X77019336Y-72834411D01*
X76847362Y-72719502D01*
X76656274Y-72640350D01*
X76453416Y-72600000D01*
X76246584Y-72600000D01*
X76043726Y-72640350D01*
X75852638Y-72719502D01*
X75680664Y-72834411D01*
X75580000Y-72935075D01*
X75580000Y-72233552D01*
X75804931Y-72008621D01*
X75852638Y-72040498D01*
X76043726Y-72119650D01*
X76246584Y-72160000D01*
X76453416Y-72160000D01*
X76656274Y-72119650D01*
X76847362Y-72040498D01*
X77019336Y-71925589D01*
X77165589Y-71779336D01*
X77280498Y-71607362D01*
X77359650Y-71416274D01*
X77400000Y-71213416D01*
X77400000Y-71006584D01*
X77359650Y-70803726D01*
X77280498Y-70612638D01*
X77165589Y-70440664D01*
X77019336Y-70294411D01*
X76847362Y-70179502D01*
X76656274Y-70100350D01*
X76453416Y-70060000D01*
X76246584Y-70060000D01*
X76043726Y-70100350D01*
X75852638Y-70179502D01*
X75680664Y-70294411D01*
X75534411Y-70440664D01*
X75419502Y-70612638D01*
X75380000Y-70708003D01*
X75380000Y-68971997D01*
X75419502Y-69067362D01*
X75534411Y-69239336D01*
X75680664Y-69385589D01*
X75852638Y-69500498D01*
X76043726Y-69579650D01*
X76246584Y-69620000D01*
X76453416Y-69620000D01*
X76656274Y-69579650D01*
X76847362Y-69500498D01*
X77019336Y-69385589D01*
X77165589Y-69239336D01*
X77280498Y-69067362D01*
X77359650Y-68876274D01*
X77400000Y-68673416D01*
X77400000Y-68466584D01*
X77359650Y-68263726D01*
X77280498Y-68072638D01*
X77165589Y-67900664D01*
X77019336Y-67754411D01*
X76847362Y-67639502D01*
X76656274Y-67560350D01*
X76453416Y-67520000D01*
X76246584Y-67520000D01*
X76043726Y-67560350D01*
X75852638Y-67639502D01*
X75680664Y-67754411D01*
X75534411Y-67900664D01*
X75419502Y-68072638D01*
X75380000Y-68168003D01*
X75380000Y-67353552D01*
X75804931Y-66928621D01*
X75852638Y-66960498D01*
X76043726Y-67039650D01*
X76246584Y-67080000D01*
X76453416Y-67080000D01*
X76656274Y-67039650D01*
X76847362Y-66960498D01*
X77019336Y-66845589D01*
X77165589Y-66699336D01*
X77280498Y-66527362D01*
X77359650Y-66336274D01*
X77400000Y-66133416D01*
X77400000Y-65926584D01*
X77359650Y-65723726D01*
X77280498Y-65532638D01*
X77165589Y-65360664D01*
X77019336Y-65214411D01*
X76847362Y-65099502D01*
X76656274Y-65020350D01*
X76453416Y-64980000D01*
X76246584Y-64980000D01*
X76043726Y-65020350D01*
X75852638Y-65099502D01*
X75680664Y-65214411D01*
X75534411Y-65360664D01*
X75419502Y-65532638D01*
X75340350Y-65723726D01*
X75300000Y-65926584D01*
X75300000Y-66133416D01*
X75340350Y-66336274D01*
X75419502Y-66527362D01*
X75451379Y-66575069D01*
X74961914Y-67064534D01*
X74952368Y-67072368D01*
X74921127Y-67110436D01*
X74897914Y-67153866D01*
X74897913Y-67153867D01*
X74883618Y-67200992D01*
X74878791Y-67250000D01*
X74880000Y-67262275D01*
X74880001Y-74196446D01*
X73521539Y-75554909D01*
X73496859Y-75550000D01*
X73413141Y-75550000D01*
X73331032Y-75566333D01*
X73253687Y-75598370D01*
X73184079Y-75644881D01*
X73124881Y-75704079D01*
X73078370Y-75773687D01*
X73046333Y-75851032D01*
X73030000Y-75933141D01*
X73030000Y-76016859D01*
X73046333Y-76098968D01*
X73078370Y-76176313D01*
X73124881Y-76245921D01*
X73184079Y-76305119D01*
X73253687Y-76351630D01*
X73331032Y-76383667D01*
X73413141Y-76400000D01*
X73496859Y-76400000D01*
X73565000Y-76386445D01*
X73396537Y-76554909D01*
X73371857Y-76550000D01*
X73288139Y-76550000D01*
X73206030Y-76566333D01*
X73128685Y-76598370D01*
X73059077Y-76644881D01*
X72999879Y-76704079D01*
X72953368Y-76773687D01*
X72921331Y-76851032D01*
X72904998Y-76933141D01*
X72904998Y-77016859D01*
X72921331Y-77098968D01*
X72953368Y-77176313D01*
X72999879Y-77245921D01*
X73003958Y-77250000D01*
X70808553Y-77250000D01*
X70400091Y-76841538D01*
X70405000Y-76816859D01*
X70405000Y-76733141D01*
X70388667Y-76651032D01*
X70356630Y-76573687D01*
X70310119Y-76504079D01*
X70250921Y-76444881D01*
X70181313Y-76398370D01*
X70103968Y-76366333D01*
X70021859Y-76350000D01*
X69938141Y-76350000D01*
X69856032Y-76366333D01*
X69778687Y-76398370D01*
X69709079Y-76444881D01*
X69649881Y-76504079D01*
X69603370Y-76573687D01*
X69571333Y-76651032D01*
X69555000Y-76733141D01*
X68604999Y-76733141D01*
X68604999Y-75928553D01*
X68713462Y-75820091D01*
X68738141Y-75825000D01*
X68821859Y-75825000D01*
X68903968Y-75808667D01*
X68981313Y-75776630D01*
X69050921Y-75730119D01*
X69110119Y-75670921D01*
X69156630Y-75601313D01*
X69188667Y-75523968D01*
X69205000Y-75441859D01*
X69205000Y-75408141D01*
X70330000Y-75408141D01*
X70330000Y-75491859D01*
X70346333Y-75573968D01*
X70378370Y-75651313D01*
X70424881Y-75720921D01*
X70484079Y-75780119D01*
X70553687Y-75826630D01*
X70631032Y-75858667D01*
X70713141Y-75875000D01*
X70796859Y-75875000D01*
X70878968Y-75858667D01*
X70956313Y-75826630D01*
X71025921Y-75780119D01*
X71085119Y-75720921D01*
X71131630Y-75651313D01*
X71163667Y-75573968D01*
X71180000Y-75491859D01*
X71180000Y-75408141D01*
X71163667Y-75326032D01*
X71131630Y-75248687D01*
X71085119Y-75179079D01*
X71025921Y-75119881D01*
X70956313Y-75073370D01*
X70878968Y-75041333D01*
X70796859Y-75025000D01*
X70713141Y-75025000D01*
X70631032Y-75041333D01*
X70553687Y-75073370D01*
X70484079Y-75119881D01*
X70424881Y-75179079D01*
X70378370Y-75248687D01*
X70346333Y-75326032D01*
X70330000Y-75408141D01*
X69205000Y-75408141D01*
X69205000Y-75358141D01*
X69188667Y-75276032D01*
X69156630Y-75198687D01*
X69110119Y-75129079D01*
X69050921Y-75069881D01*
X69030000Y-75055902D01*
X69030000Y-74508141D01*
X70705000Y-74508141D01*
X70705000Y-74591859D01*
X70721333Y-74673968D01*
X70753370Y-74751313D01*
X70799881Y-74820921D01*
X70859079Y-74880119D01*
X70928687Y-74926630D01*
X71006032Y-74958667D01*
X71088141Y-74975000D01*
X71171859Y-74975000D01*
X71253968Y-74958667D01*
X71331313Y-74926630D01*
X71400921Y-74880119D01*
X71460119Y-74820921D01*
X71506630Y-74751313D01*
X71538667Y-74673968D01*
X71555000Y-74591859D01*
X71555000Y-74508141D01*
X71538667Y-74426032D01*
X71506630Y-74348687D01*
X71460119Y-74279079D01*
X71400921Y-74219881D01*
X71331313Y-74173370D01*
X71253968Y-74141333D01*
X71171859Y-74125000D01*
X71088141Y-74125000D01*
X71006032Y-74141333D01*
X70928687Y-74173370D01*
X70859079Y-74219881D01*
X70799881Y-74279079D01*
X70753370Y-74348687D01*
X70721333Y-74426032D01*
X70705000Y-74508141D01*
X69030000Y-74508141D01*
X69030000Y-73608141D01*
X70705000Y-73608141D01*
X70705000Y-73691859D01*
X70721333Y-73773968D01*
X70753370Y-73851313D01*
X70799881Y-73920921D01*
X70859079Y-73980119D01*
X70928687Y-74026630D01*
X71006032Y-74058667D01*
X71088141Y-74075000D01*
X71171859Y-74075000D01*
X71253968Y-74058667D01*
X71331313Y-74026630D01*
X71400921Y-73980119D01*
X71460119Y-73920921D01*
X71506630Y-73851313D01*
X71538667Y-73773968D01*
X71555000Y-73691859D01*
X71555000Y-73608141D01*
X71538667Y-73526032D01*
X71506630Y-73448687D01*
X71460119Y-73379079D01*
X71400921Y-73319881D01*
X71331313Y-73273370D01*
X71253968Y-73241333D01*
X71171859Y-73225000D01*
X71088141Y-73225000D01*
X71006032Y-73241333D01*
X70928687Y-73273370D01*
X70859079Y-73319881D01*
X70799881Y-73379079D01*
X70753370Y-73448687D01*
X70721333Y-73526032D01*
X70705000Y-73608141D01*
X69030000Y-73608141D01*
X69030000Y-69686410D01*
X71058269Y-67658141D01*
X73355000Y-67658141D01*
X73355000Y-67741859D01*
X73371333Y-67823968D01*
X73403370Y-67901313D01*
X73449881Y-67970921D01*
X73509079Y-68030119D01*
X73578687Y-68076630D01*
X73656032Y-68108667D01*
X73738141Y-68125000D01*
X73821859Y-68125000D01*
X73903968Y-68108667D01*
X73981313Y-68076630D01*
X74050921Y-68030119D01*
X74110119Y-67970921D01*
X74156630Y-67901313D01*
X74188667Y-67823968D01*
X74205000Y-67741859D01*
X74205000Y-67658141D01*
X74188667Y-67576032D01*
X74163650Y-67515636D01*
X74206630Y-67451313D01*
X74238667Y-67373968D01*
X74255000Y-67291859D01*
X74255000Y-67208141D01*
X74238667Y-67126032D01*
X74206630Y-67048687D01*
X74160119Y-66979079D01*
X74100921Y-66919881D01*
X74031313Y-66873370D01*
X73953968Y-66841333D01*
X73871859Y-66825000D01*
X73788141Y-66825000D01*
X73706032Y-66841333D01*
X73628687Y-66873370D01*
X73559079Y-66919881D01*
X73499881Y-66979079D01*
X73453370Y-67048687D01*
X73421333Y-67126032D01*
X73405000Y-67208141D01*
X73405000Y-67291859D01*
X73421333Y-67373968D01*
X73446350Y-67434364D01*
X73403370Y-67498687D01*
X73371333Y-67576032D01*
X73355000Y-67658141D01*
X71058269Y-67658141D01*
X73416412Y-65300000D01*
X74071295Y-65300000D01*
X74083570Y-65301209D01*
X74132578Y-65296382D01*
X74133399Y-65296133D01*
X74179704Y-65282087D01*
X74223134Y-65258873D01*
X74261202Y-65227632D01*
X74269036Y-65218086D01*
X75451650Y-64035474D01*
X75534411Y-64159336D01*
X75680664Y-64305589D01*
X75852638Y-64420498D01*
X76043726Y-64499650D01*
X76246584Y-64540000D01*
X76453416Y-64540000D01*
X76656274Y-64499650D01*
X76847362Y-64420498D01*
X77019336Y-64305589D01*
X77165589Y-64159336D01*
X77280498Y-63987362D01*
X77359650Y-63796274D01*
X77400000Y-63593416D01*
X77400000Y-63386584D01*
X77359650Y-63183726D01*
X77280498Y-62992638D01*
X77165589Y-62820664D01*
X77019336Y-62674411D01*
X76847362Y-62559502D01*
X76656274Y-62480350D01*
X76453416Y-62440000D01*
X76246584Y-62440000D01*
X76043726Y-62480350D01*
X75852638Y-62559502D01*
X75680664Y-62674411D01*
X75599999Y-62755076D01*
X75599999Y-61684924D01*
X75680664Y-61765589D01*
X75852638Y-61880498D01*
X76043726Y-61959650D01*
X76246584Y-62000000D01*
X76453416Y-62000000D01*
X76656274Y-61959650D01*
X76847362Y-61880498D01*
X77019336Y-61765589D01*
X77165589Y-61619336D01*
X77280498Y-61447362D01*
X77359650Y-61256274D01*
X77400000Y-61053416D01*
X77400000Y-60846584D01*
X77359650Y-60643726D01*
X77280498Y-60452638D01*
X77165589Y-60280664D01*
X77019336Y-60134411D01*
X76847362Y-60019502D01*
X76656274Y-59940350D01*
X76453416Y-59900000D01*
X76246584Y-59900000D01*
X76043726Y-59940350D01*
X75852638Y-60019502D01*
X75680664Y-60134411D01*
X75599999Y-60215076D01*
X75599999Y-59513553D01*
X75804931Y-59308621D01*
X75852638Y-59340498D01*
X76043726Y-59419650D01*
X76246584Y-59460000D01*
X76453416Y-59460000D01*
X76656274Y-59419650D01*
X76847362Y-59340498D01*
X77019336Y-59225589D01*
X77165589Y-59079336D01*
X77280498Y-58907362D01*
X77359650Y-58716274D01*
X77400000Y-58513416D01*
X77400000Y-58306584D01*
X77359650Y-58103726D01*
X77280498Y-57912638D01*
X77165589Y-57740664D01*
X77019336Y-57594411D01*
X76847362Y-57479502D01*
X76656274Y-57400350D01*
X76453416Y-57360000D01*
X76246584Y-57360000D01*
X76043726Y-57400350D01*
X75852638Y-57479502D01*
X75680664Y-57594411D01*
X75534411Y-57740664D01*
X75419502Y-57912638D01*
X75380000Y-58008003D01*
X75380000Y-57193552D01*
X75804931Y-56768621D01*
X75852638Y-56800498D01*
X76043726Y-56879650D01*
X76246584Y-56920000D01*
X76453416Y-56920000D01*
X76656274Y-56879650D01*
X76847362Y-56800498D01*
X77019336Y-56685589D01*
X77165589Y-56539336D01*
X77280498Y-56367362D01*
X77359650Y-56176274D01*
X77400000Y-55973416D01*
X77400000Y-55766584D01*
X77359650Y-55563726D01*
X77280498Y-55372638D01*
X77165589Y-55200664D01*
X77019336Y-55054411D01*
X76847362Y-54939502D01*
X76656274Y-54860350D01*
X76453416Y-54820000D01*
X76246584Y-54820000D01*
X76043726Y-54860350D01*
X75852638Y-54939502D01*
X75680664Y-55054411D01*
X75534411Y-55200664D01*
X75419502Y-55372638D01*
X75340350Y-55563726D01*
X75300000Y-55766584D01*
X75300000Y-55973416D01*
X75340350Y-56176274D01*
X75419502Y-56367362D01*
X75451379Y-56415069D01*
X75179990Y-56686458D01*
X75179990Y-54853562D01*
X75804931Y-54228622D01*
X75852638Y-54260498D01*
X76043726Y-54339650D01*
X76246584Y-54380000D01*
X76453416Y-54380000D01*
X76656274Y-54339650D01*
X76847362Y-54260498D01*
X77019336Y-54145589D01*
X77165589Y-53999336D01*
X77280498Y-53827362D01*
X77359650Y-53636274D01*
X77400000Y-53433416D01*
X77400000Y-53226584D01*
X77359650Y-53023726D01*
X77280498Y-52832638D01*
X77165589Y-52660664D01*
X77019336Y-52514411D01*
X76847362Y-52399502D01*
X76656274Y-52320350D01*
X76453416Y-52280000D01*
X76246584Y-52280000D01*
X76043726Y-52320350D01*
X75852638Y-52399502D01*
X75680664Y-52514411D01*
X75534411Y-52660664D01*
X75419502Y-52832638D01*
X75340350Y-53023726D01*
X75300000Y-53226584D01*
X75300000Y-53433416D01*
X75340350Y-53636274D01*
X75419502Y-53827362D01*
X75451378Y-53875069D01*
X74979980Y-54346468D01*
X74979980Y-52513572D01*
X75804931Y-51688622D01*
X75852638Y-51720498D01*
X76043726Y-51799650D01*
X76246584Y-51840000D01*
X76453416Y-51840000D01*
X76656274Y-51799650D01*
X76847362Y-51720498D01*
X77019336Y-51605589D01*
X77165589Y-51459336D01*
X77280498Y-51287362D01*
X77359650Y-51096274D01*
X77400000Y-50893416D01*
X77400000Y-50686584D01*
X77359650Y-50483726D01*
X77280498Y-50292638D01*
X77165589Y-50120664D01*
X77019336Y-49974411D01*
X76847362Y-49859502D01*
X76656274Y-49780350D01*
X76453416Y-49740000D01*
X76246584Y-49740000D01*
X76043726Y-49780350D01*
X75852638Y-49859502D01*
X75680664Y-49974411D01*
X75534411Y-50120664D01*
X75419502Y-50292638D01*
X75340350Y-50483726D01*
X75300000Y-50686584D01*
X75300000Y-50893416D01*
X75340350Y-51096274D01*
X75419502Y-51287362D01*
X75451378Y-51335069D01*
X74561894Y-52224554D01*
X74552348Y-52232388D01*
X74521107Y-52270456D01*
X74516006Y-52280000D01*
X74497893Y-52313887D01*
X74483598Y-52361012D01*
X74478771Y-52410020D01*
X74479980Y-52422295D01*
X74479981Y-63451468D01*
X74164284Y-63767165D01*
X74163650Y-63765636D01*
X74206630Y-63701313D01*
X74238667Y-63623968D01*
X74255000Y-63541859D01*
X74255000Y-63458141D01*
X74238667Y-63376032D01*
X74206630Y-63298687D01*
X74160119Y-63229079D01*
X74100921Y-63169881D01*
X74031313Y-63123370D01*
X73953968Y-63091333D01*
X73871859Y-63075000D01*
X73788141Y-63075000D01*
X73706032Y-63091333D01*
X73628687Y-63123370D01*
X73559079Y-63169881D01*
X73499881Y-63229079D01*
X73453370Y-63298687D01*
X73421333Y-63376032D01*
X73405000Y-63458141D01*
X73405000Y-63541859D01*
X73421333Y-63623968D01*
X73446350Y-63684364D01*
X73403370Y-63748687D01*
X73371333Y-63826032D01*
X73355000Y-63908141D01*
X73355000Y-63991859D01*
X73371333Y-64073968D01*
X73403370Y-64151313D01*
X73420868Y-64177501D01*
X73014774Y-64177501D01*
X73002499Y-64176292D01*
X72953490Y-64181119D01*
X72906365Y-64195414D01*
X72862935Y-64218628D01*
X72824867Y-64249869D01*
X72817037Y-64259410D01*
X66080000Y-70996448D01*
X66080000Y-65903552D01*
X66533554Y-65450000D01*
X69955000Y-65450000D01*
X69955000Y-65491859D01*
X69971333Y-65573968D01*
X70003370Y-65651313D01*
X70049881Y-65720921D01*
X70109079Y-65780119D01*
X70178687Y-65826630D01*
X70256032Y-65858667D01*
X70338141Y-65875000D01*
X70421859Y-65875000D01*
X70503968Y-65858667D01*
X70581313Y-65826630D01*
X70650921Y-65780119D01*
X70710119Y-65720921D01*
X70756630Y-65651313D01*
X70788667Y-65573968D01*
X70805000Y-65491859D01*
X70805000Y-65408141D01*
X70788667Y-65326032D01*
X70756630Y-65248687D01*
X70710119Y-65179079D01*
X70650921Y-65119881D01*
X70630000Y-65105902D01*
X70630000Y-62044098D01*
X70650921Y-62030119D01*
X70710119Y-61970921D01*
X70756630Y-61901313D01*
X70788667Y-61823968D01*
X70805000Y-61741859D01*
X70805000Y-61658141D01*
X70788667Y-61576032D01*
X70756630Y-61498687D01*
X70710119Y-61429079D01*
X70650921Y-61369881D01*
X70581313Y-61323370D01*
X70503968Y-61291333D01*
X70421859Y-61275000D01*
X70338141Y-61275000D01*
X70256032Y-61291333D01*
X70178687Y-61323370D01*
X70109079Y-61369881D01*
X70049881Y-61429079D01*
X70003370Y-61498687D01*
X69971333Y-61576032D01*
X69955000Y-61658141D01*
X69955000Y-61741859D01*
X69971333Y-61823968D01*
X70003370Y-61901313D01*
X70049881Y-61970921D01*
X70109079Y-62030119D01*
X70130001Y-62044099D01*
X70130000Y-64948791D01*
X70117725Y-64950000D01*
X66442274Y-64950000D01*
X66429999Y-64948791D01*
X66380991Y-64953618D01*
X66336596Y-64967085D01*
X66333866Y-64967913D01*
X66290436Y-64991127D01*
X66252368Y-65022368D01*
X66244543Y-65031903D01*
X65830000Y-65446447D01*
X64780000Y-64396448D01*
X64780000Y-62297884D01*
X64806032Y-62308667D01*
X64888141Y-62325000D01*
X64971859Y-62325000D01*
X65053968Y-62308667D01*
X65131313Y-62276630D01*
X65200921Y-62230119D01*
X65260119Y-62170921D01*
X65306630Y-62101313D01*
X65338667Y-62023968D01*
X65340353Y-62015494D01*
X65388141Y-62025000D01*
X65471859Y-62025000D01*
X65553968Y-62008667D01*
X65631313Y-61976630D01*
X65700921Y-61930119D01*
X65760119Y-61870921D01*
X65806630Y-61801313D01*
X65838667Y-61723968D01*
X65855000Y-61641859D01*
X65855000Y-61558141D01*
X65838667Y-61476032D01*
X65806630Y-61398687D01*
X65760119Y-61329079D01*
X65700921Y-61269881D01*
X65631313Y-61223370D01*
X65553968Y-61191333D01*
X65471859Y-61175000D01*
X65388141Y-61175000D01*
X65306032Y-61191333D01*
X65228687Y-61223370D01*
X65159079Y-61269881D01*
X65099881Y-61329079D01*
X65053370Y-61398687D01*
X65021333Y-61476032D01*
X65019647Y-61484506D01*
X64971859Y-61475000D01*
X64888141Y-61475000D01*
X64806032Y-61491333D01*
X64780000Y-61502116D01*
X64780000Y-58762275D01*
X64781209Y-58750000D01*
X64776382Y-58700991D01*
X64762087Y-58653866D01*
X64738872Y-58610435D01*
X64733481Y-58603866D01*
X64707632Y-58572368D01*
X64698091Y-58564538D01*
X64665461Y-58531908D01*
X64665456Y-58531902D01*
X63830000Y-57696448D01*
X63830000Y-56958141D01*
X66305000Y-56958141D01*
X66305000Y-57041859D01*
X66321333Y-57123968D01*
X66353370Y-57201313D01*
X66385902Y-57250000D01*
X66353370Y-57298687D01*
X66321333Y-57376032D01*
X66305000Y-57458141D01*
X66305000Y-57541859D01*
X66321333Y-57623968D01*
X66353370Y-57701313D01*
X66399881Y-57770921D01*
X66459079Y-57830119D01*
X66528687Y-57876630D01*
X66606032Y-57908667D01*
X66688141Y-57925000D01*
X66771859Y-57925000D01*
X66853968Y-57908667D01*
X66931313Y-57876630D01*
X67000921Y-57830119D01*
X67060119Y-57770921D01*
X67106630Y-57701313D01*
X67138667Y-57623968D01*
X67155000Y-57541859D01*
X67155000Y-57458141D01*
X67138667Y-57376032D01*
X67131257Y-57358141D01*
X73355000Y-57358141D01*
X73355000Y-57441859D01*
X73371333Y-57523968D01*
X73403370Y-57601313D01*
X73449881Y-57670921D01*
X73509079Y-57730119D01*
X73578687Y-57776630D01*
X73656032Y-57808667D01*
X73738141Y-57825000D01*
X73821859Y-57825000D01*
X73903968Y-57808667D01*
X73981313Y-57776630D01*
X74050921Y-57730119D01*
X74110119Y-57670921D01*
X74156630Y-57601313D01*
X74188667Y-57523968D01*
X74205000Y-57441859D01*
X74205000Y-57358141D01*
X74188667Y-57276032D01*
X74163650Y-57215636D01*
X74206630Y-57151313D01*
X74238667Y-57073968D01*
X74255000Y-56991859D01*
X74255000Y-56908141D01*
X74238667Y-56826032D01*
X74206630Y-56748687D01*
X74160119Y-56679079D01*
X74100921Y-56619881D01*
X74031313Y-56573370D01*
X73953968Y-56541333D01*
X73871859Y-56525000D01*
X73788141Y-56525000D01*
X73706032Y-56541333D01*
X73628687Y-56573370D01*
X73559079Y-56619881D01*
X73499881Y-56679079D01*
X73453370Y-56748687D01*
X73421333Y-56826032D01*
X73405000Y-56908141D01*
X73405000Y-56991859D01*
X73421333Y-57073968D01*
X73446350Y-57134364D01*
X73403370Y-57198687D01*
X73371333Y-57276032D01*
X73355000Y-57358141D01*
X67131257Y-57358141D01*
X67106630Y-57298687D01*
X67074098Y-57250000D01*
X67106630Y-57201313D01*
X67138667Y-57123968D01*
X67155000Y-57041859D01*
X67155000Y-56958141D01*
X67138667Y-56876032D01*
X67106630Y-56798687D01*
X67060119Y-56729079D01*
X67000921Y-56669881D01*
X66931313Y-56623370D01*
X66853968Y-56591333D01*
X66771859Y-56575000D01*
X66688141Y-56575000D01*
X66606032Y-56591333D01*
X66528687Y-56623370D01*
X66459079Y-56669881D01*
X66399881Y-56729079D01*
X66353370Y-56798687D01*
X66321333Y-56876032D01*
X66305000Y-56958141D01*
X63830000Y-56958141D01*
X63830000Y-55812272D01*
X63831209Y-55799999D01*
X63828635Y-55773867D01*
X63826382Y-55750992D01*
X63812087Y-55703866D01*
X63788873Y-55660436D01*
X63757632Y-55622368D01*
X63748097Y-55614543D01*
X63291695Y-55158141D01*
X71705000Y-55158141D01*
X71705000Y-55241859D01*
X71721333Y-55323968D01*
X71753370Y-55401313D01*
X71799881Y-55470921D01*
X71859079Y-55530119D01*
X71928687Y-55576630D01*
X72006032Y-55608667D01*
X72088141Y-55625000D01*
X72171859Y-55625000D01*
X72253968Y-55608667D01*
X72331313Y-55576630D01*
X72400921Y-55530119D01*
X72460119Y-55470921D01*
X72506630Y-55401313D01*
X72538667Y-55323968D01*
X72555000Y-55241859D01*
X72555000Y-55158141D01*
X72538667Y-55076032D01*
X72506630Y-54998687D01*
X72460119Y-54929079D01*
X72400921Y-54869881D01*
X72331313Y-54823370D01*
X72253968Y-54791333D01*
X72171859Y-54775000D01*
X72088141Y-54775000D01*
X72006032Y-54791333D01*
X71928687Y-54823370D01*
X71859079Y-54869881D01*
X71799881Y-54929079D01*
X71753370Y-54998687D01*
X71721333Y-55076032D01*
X71705000Y-55158141D01*
X63291695Y-55158141D01*
X62008621Y-53875069D01*
X62040498Y-53827362D01*
X62119650Y-53636274D01*
X62155082Y-53458141D01*
X64555000Y-53458141D01*
X64555000Y-53541859D01*
X64571333Y-53623968D01*
X64603370Y-53701313D01*
X64649881Y-53770921D01*
X64709079Y-53830119D01*
X64778687Y-53876630D01*
X64856032Y-53908667D01*
X64938141Y-53925000D01*
X65021859Y-53925000D01*
X65103968Y-53908667D01*
X65181313Y-53876630D01*
X65250921Y-53830119D01*
X65310119Y-53770921D01*
X65356630Y-53701313D01*
X65372904Y-53662023D01*
X65438141Y-53675000D01*
X65521859Y-53675000D01*
X65603968Y-53658667D01*
X65681313Y-53626630D01*
X65708983Y-53608141D01*
X73355000Y-53608141D01*
X73355000Y-53691859D01*
X73371333Y-53773968D01*
X73403370Y-53851313D01*
X73449881Y-53920921D01*
X73509079Y-53980119D01*
X73578687Y-54026630D01*
X73656032Y-54058667D01*
X73738141Y-54075000D01*
X73821859Y-54075000D01*
X73903968Y-54058667D01*
X73981313Y-54026630D01*
X74050921Y-53980119D01*
X74110119Y-53920921D01*
X74156630Y-53851313D01*
X74188667Y-53773968D01*
X74205000Y-53691859D01*
X74205000Y-53608141D01*
X74188667Y-53526032D01*
X74163650Y-53465636D01*
X74206630Y-53401313D01*
X74238667Y-53323968D01*
X74255000Y-53241859D01*
X74255000Y-53158141D01*
X74238667Y-53076032D01*
X74206630Y-52998687D01*
X74160119Y-52929079D01*
X74100921Y-52869881D01*
X74031313Y-52823370D01*
X73953968Y-52791333D01*
X73871859Y-52775000D01*
X73788141Y-52775000D01*
X73706032Y-52791333D01*
X73628687Y-52823370D01*
X73559079Y-52869881D01*
X73499881Y-52929079D01*
X73453370Y-52998687D01*
X73421333Y-53076032D01*
X73405000Y-53158141D01*
X73405000Y-53241859D01*
X73421333Y-53323968D01*
X73446350Y-53384364D01*
X73403370Y-53448687D01*
X73371333Y-53526032D01*
X73355000Y-53608141D01*
X65708983Y-53608141D01*
X65750921Y-53580119D01*
X65810119Y-53520921D01*
X65856630Y-53451313D01*
X65888667Y-53373968D01*
X65905000Y-53291859D01*
X65905000Y-53208141D01*
X65888667Y-53126032D01*
X65856630Y-53048687D01*
X65810119Y-52979079D01*
X65750921Y-52919881D01*
X65681313Y-52873370D01*
X65603968Y-52841333D01*
X65521859Y-52825000D01*
X65438141Y-52825000D01*
X65356032Y-52841333D01*
X65278687Y-52873370D01*
X65209079Y-52919881D01*
X65149881Y-52979079D01*
X65103370Y-53048687D01*
X65087096Y-53087977D01*
X65021859Y-53075000D01*
X64938141Y-53075000D01*
X64856032Y-53091333D01*
X64778687Y-53123370D01*
X64709079Y-53169881D01*
X64649881Y-53229079D01*
X64603370Y-53298687D01*
X64571333Y-53376032D01*
X64555000Y-53458141D01*
X62155082Y-53458141D01*
X62160000Y-53433416D01*
X62160000Y-53226584D01*
X62119650Y-53023726D01*
X62040498Y-52832638D01*
X61925589Y-52660664D01*
X61779336Y-52514411D01*
X61607362Y-52399502D01*
X61416274Y-52320350D01*
X61213416Y-52280000D01*
X61006584Y-52280000D01*
X60803726Y-52320350D01*
X60612638Y-52399502D01*
X60440664Y-52514411D01*
X60294411Y-52660664D01*
X60179502Y-52832638D01*
X60100350Y-53023726D01*
X60060000Y-53226584D01*
X59255000Y-53226584D01*
X59255000Y-52158141D01*
X64505000Y-52158141D01*
X64505000Y-52241859D01*
X64521333Y-52323968D01*
X64553370Y-52401313D01*
X64599881Y-52470921D01*
X64659079Y-52530119D01*
X64728687Y-52576630D01*
X64806032Y-52608667D01*
X64888141Y-52625000D01*
X64971859Y-52625000D01*
X65053968Y-52608667D01*
X65131313Y-52576630D01*
X65200921Y-52530119D01*
X65260119Y-52470921D01*
X65306630Y-52401313D01*
X65338667Y-52323968D01*
X65340353Y-52315494D01*
X65388141Y-52325000D01*
X65471859Y-52325000D01*
X65553968Y-52308667D01*
X65631313Y-52276630D01*
X65700921Y-52230119D01*
X65760119Y-52170921D01*
X65806630Y-52101313D01*
X65838667Y-52023968D01*
X65855000Y-51941859D01*
X65855000Y-51858141D01*
X65838667Y-51776032D01*
X65806630Y-51698687D01*
X65760119Y-51629079D01*
X65700921Y-51569881D01*
X65631313Y-51523370D01*
X65553968Y-51491333D01*
X65471859Y-51475000D01*
X65388141Y-51475000D01*
X65306032Y-51491333D01*
X65228687Y-51523370D01*
X65159079Y-51569881D01*
X65099881Y-51629079D01*
X65053370Y-51698687D01*
X65021333Y-51776032D01*
X65019647Y-51784506D01*
X64971859Y-51775000D01*
X64888141Y-51775000D01*
X64806032Y-51791333D01*
X64728687Y-51823370D01*
X64659079Y-51869881D01*
X64599881Y-51929079D01*
X64553370Y-51998687D01*
X64521333Y-52076032D01*
X64505000Y-52158141D01*
X59255000Y-52158141D01*
X59255000Y-50686584D01*
X60060000Y-50686584D01*
X60060000Y-50893416D01*
X60100350Y-51096274D01*
X60179502Y-51287362D01*
X60294411Y-51459336D01*
X60440664Y-51605589D01*
X60612638Y-51720498D01*
X60803726Y-51799650D01*
X61006584Y-51840000D01*
X61213416Y-51840000D01*
X61416274Y-51799650D01*
X61607362Y-51720498D01*
X61779336Y-51605589D01*
X61925589Y-51459336D01*
X61926387Y-51458141D01*
X71705000Y-51458141D01*
X71705000Y-51541859D01*
X71721333Y-51623968D01*
X71753370Y-51701313D01*
X71799881Y-51770921D01*
X71859079Y-51830119D01*
X71928687Y-51876630D01*
X72006032Y-51908667D01*
X72088141Y-51925000D01*
X72171859Y-51925000D01*
X72253968Y-51908667D01*
X72331313Y-51876630D01*
X72400921Y-51830119D01*
X72460119Y-51770921D01*
X72506630Y-51701313D01*
X72538667Y-51623968D01*
X72555000Y-51541859D01*
X72555000Y-51458141D01*
X72538667Y-51376032D01*
X72506630Y-51298687D01*
X72460119Y-51229079D01*
X72400921Y-51169881D01*
X72331313Y-51123370D01*
X72253968Y-51091333D01*
X72171859Y-51075000D01*
X72088141Y-51075000D01*
X72006032Y-51091333D01*
X71928687Y-51123370D01*
X71859079Y-51169881D01*
X71799881Y-51229079D01*
X71753370Y-51298687D01*
X71721333Y-51376032D01*
X71705000Y-51458141D01*
X61926387Y-51458141D01*
X62040498Y-51287362D01*
X62119650Y-51096274D01*
X62160000Y-50893416D01*
X62160000Y-50686584D01*
X62119650Y-50483726D01*
X62040498Y-50292638D01*
X61925589Y-50120664D01*
X61779336Y-49974411D01*
X61607362Y-49859502D01*
X61416274Y-49780350D01*
X61213416Y-49740000D01*
X61006584Y-49740000D01*
X60803726Y-49780350D01*
X60612638Y-49859502D01*
X60440664Y-49974411D01*
X60294411Y-50120664D01*
X60179502Y-50292638D01*
X60100350Y-50483726D01*
X60060000Y-50686584D01*
X59255000Y-50686584D01*
X59255000Y-48146584D01*
X60060000Y-48146584D01*
X60060000Y-48353416D01*
X60100350Y-48556274D01*
X60179502Y-48747362D01*
X60294411Y-48919336D01*
X60440664Y-49065589D01*
X60612638Y-49180498D01*
X60803726Y-49259650D01*
X61006584Y-49300000D01*
X61213416Y-49300000D01*
X61416274Y-49259650D01*
X61607362Y-49180498D01*
X61779336Y-49065589D01*
X61925589Y-48919336D01*
X62040498Y-48747362D01*
X62089454Y-48629171D01*
X75260071Y-48629171D01*
X75311181Y-48752588D01*
X75429192Y-48945594D01*
X75582589Y-49111869D01*
X75765477Y-49245023D01*
X75970828Y-49339939D01*
X76146000Y-49309836D01*
X76146000Y-48454000D01*
X76554000Y-48454000D01*
X76554000Y-49309836D01*
X76729172Y-49339939D01*
X76934523Y-49245023D01*
X77117411Y-49111869D01*
X77270808Y-48945594D01*
X77388819Y-48752588D01*
X77439929Y-48629171D01*
X77408522Y-48454000D01*
X76554000Y-48454000D01*
X76146000Y-48454000D01*
X75291478Y-48454000D01*
X75260071Y-48629171D01*
X62089454Y-48629171D01*
X62119650Y-48556274D01*
X62160000Y-48353416D01*
X62160000Y-48146584D01*
X62119650Y-47943726D01*
X62089455Y-47870829D01*
X75260071Y-47870829D01*
X75291478Y-48046000D01*
X76146000Y-48046000D01*
X76146000Y-47190164D01*
X76554000Y-47190164D01*
X76554000Y-48046000D01*
X77408522Y-48046000D01*
X77439929Y-47870829D01*
X77388819Y-47747412D01*
X77270808Y-47554406D01*
X77117411Y-47388131D01*
X76934523Y-47254977D01*
X76729172Y-47160061D01*
X76554000Y-47190164D01*
X76146000Y-47190164D01*
X75970828Y-47160061D01*
X75765477Y-47254977D01*
X75582589Y-47388131D01*
X75429192Y-47554406D01*
X75311181Y-47747412D01*
X75260071Y-47870829D01*
X62089455Y-47870829D01*
X62040498Y-47752638D01*
X61925589Y-47580664D01*
X61779336Y-47434411D01*
X61607362Y-47319502D01*
X61416274Y-47240350D01*
X61213416Y-47200000D01*
X61006584Y-47200000D01*
X60803726Y-47240350D01*
X60612638Y-47319502D01*
X60440664Y-47434411D01*
X60294411Y-47580664D01*
X60179502Y-47752638D01*
X60100350Y-47943726D01*
X60060000Y-48146584D01*
X59255000Y-48146584D01*
X59255000Y-44860000D01*
X60059033Y-44860000D01*
X60059033Y-46560000D01*
X60062895Y-46599207D01*
X60074331Y-46636907D01*
X60092902Y-46671651D01*
X60117895Y-46702105D01*
X60148349Y-46727098D01*
X60183093Y-46745669D01*
X60220793Y-46757105D01*
X60260000Y-46760967D01*
X61960000Y-46760967D01*
X61999207Y-46757105D01*
X62036907Y-46745669D01*
X62071651Y-46727098D01*
X62102105Y-46702105D01*
X62127098Y-46671651D01*
X62145669Y-46636907D01*
X62157105Y-46599207D01*
X62160967Y-46560000D01*
X62160967Y-44860000D01*
X75299033Y-44860000D01*
X75299033Y-46560000D01*
X75302895Y-46599207D01*
X75314331Y-46636907D01*
X75332902Y-46671651D01*
X75357895Y-46702105D01*
X75388349Y-46727098D01*
X75423093Y-46745669D01*
X75460793Y-46757105D01*
X75500000Y-46760967D01*
X77200000Y-46760967D01*
X77239207Y-46757105D01*
X77276907Y-46745669D01*
X77311651Y-46727098D01*
X77342105Y-46702105D01*
X77367098Y-46671651D01*
X77385669Y-46636907D01*
X77397105Y-46599207D01*
X77400967Y-46560000D01*
X77400967Y-44860000D01*
X77397105Y-44820793D01*
X77385669Y-44783093D01*
X77367098Y-44748349D01*
X77342105Y-44717895D01*
X77311651Y-44692902D01*
X77276907Y-44674331D01*
X77239207Y-44662895D01*
X77200000Y-44659033D01*
X75500000Y-44659033D01*
X75460793Y-44662895D01*
X75423093Y-44674331D01*
X75388349Y-44692902D01*
X75357895Y-44717895D01*
X75332902Y-44748349D01*
X75314331Y-44783093D01*
X75302895Y-44820793D01*
X75299033Y-44860000D01*
X62160967Y-44860000D01*
X62157105Y-44820793D01*
X62145669Y-44783093D01*
X62127098Y-44748349D01*
X62102105Y-44717895D01*
X62071651Y-44692902D01*
X62036907Y-44674331D01*
X61999207Y-44662895D01*
X61960000Y-44659033D01*
X60260000Y-44659033D01*
X60220793Y-44662895D01*
X60183093Y-44674331D01*
X60148349Y-44692902D01*
X60117895Y-44717895D01*
X60092902Y-44748349D01*
X60074331Y-44783093D01*
X60062895Y-44820793D01*
X60059033Y-44860000D01*
X59255000Y-44860000D01*
X59255000Y-43855000D01*
X78205000Y-43855000D01*
X78205000Y-111065000D01*
%TA.AperFunction,Conductor*%
G36*
X78205000Y-111065000D02*
G01*
X59255000Y-111065000D01*
X59255000Y-109589171D01*
X60020071Y-109589171D01*
X60071181Y-109712588D01*
X60189192Y-109905594D01*
X60342589Y-110071869D01*
X60525477Y-110205023D01*
X60730828Y-110299939D01*
X60906000Y-110269836D01*
X60906000Y-109414000D01*
X61314000Y-109414000D01*
X61314000Y-110269836D01*
X61489172Y-110299939D01*
X61694523Y-110205023D01*
X61877411Y-110071869D01*
X62030808Y-109905594D01*
X62148819Y-109712588D01*
X62199929Y-109589171D01*
X62168522Y-109414000D01*
X61314000Y-109414000D01*
X60906000Y-109414000D01*
X60051478Y-109414000D01*
X60020071Y-109589171D01*
X59255000Y-109589171D01*
X59255000Y-108830829D01*
X60020071Y-108830829D01*
X60051478Y-109006000D01*
X60906000Y-109006000D01*
X60906000Y-108150164D01*
X61314000Y-108150164D01*
X61314000Y-109006000D01*
X62168522Y-109006000D01*
X62199929Y-108830829D01*
X62148819Y-108707412D01*
X62030808Y-108514406D01*
X61877411Y-108348131D01*
X61694523Y-108214977D01*
X61489172Y-108120061D01*
X61314000Y-108150164D01*
X60906000Y-108150164D01*
X60730828Y-108120061D01*
X60525477Y-108214977D01*
X60342589Y-108348131D01*
X60189192Y-108514406D01*
X60071181Y-108707412D01*
X60020071Y-108830829D01*
X59255000Y-108830829D01*
X59255000Y-106566584D01*
X60060000Y-106566584D01*
X60060000Y-106773416D01*
X60100350Y-106976274D01*
X60179502Y-107167362D01*
X60294411Y-107339336D01*
X60440664Y-107485589D01*
X60612638Y-107600498D01*
X60803726Y-107679650D01*
X61006584Y-107720000D01*
X61213416Y-107720000D01*
X61416274Y-107679650D01*
X61607362Y-107600498D01*
X61779336Y-107485589D01*
X61925589Y-107339336D01*
X62040498Y-107167362D01*
X62119650Y-106976274D01*
X62160000Y-106773416D01*
X62160000Y-106566584D01*
X62119650Y-106363726D01*
X62040498Y-106172638D01*
X61925589Y-106000664D01*
X61779336Y-105854411D01*
X61607362Y-105739502D01*
X61416274Y-105660350D01*
X61213416Y-105620000D01*
X61006584Y-105620000D01*
X60803726Y-105660350D01*
X60612638Y-105739502D01*
X60440664Y-105854411D01*
X60294411Y-106000664D01*
X60179502Y-106172638D01*
X60100350Y-106363726D01*
X60060000Y-106566584D01*
X59255000Y-106566584D01*
X59255000Y-104026584D01*
X60060000Y-104026584D01*
X60060000Y-104233416D01*
X60100350Y-104436274D01*
X60179502Y-104627362D01*
X60294411Y-104799336D01*
X60440664Y-104945589D01*
X60612638Y-105060498D01*
X60803726Y-105139650D01*
X61006584Y-105180000D01*
X61213416Y-105180000D01*
X61416274Y-105139650D01*
X61607362Y-105060498D01*
X61732114Y-104977141D01*
X73131000Y-104977141D01*
X73131000Y-105060859D01*
X73147333Y-105142968D01*
X73179370Y-105220313D01*
X73214575Y-105273000D01*
X73179370Y-105325687D01*
X73147333Y-105403032D01*
X73131000Y-105485141D01*
X73131000Y-105568859D01*
X73147333Y-105650968D01*
X73179370Y-105728313D01*
X73225881Y-105797921D01*
X73285079Y-105857119D01*
X73354687Y-105903630D01*
X73432032Y-105935667D01*
X73514141Y-105952000D01*
X73597859Y-105952000D01*
X73679968Y-105935667D01*
X73757313Y-105903630D01*
X73810000Y-105868425D01*
X73862687Y-105903630D01*
X73940032Y-105935667D01*
X74022141Y-105952000D01*
X74105859Y-105952000D01*
X74187968Y-105935667D01*
X74265313Y-105903630D01*
X74334921Y-105857119D01*
X74394119Y-105797921D01*
X74440630Y-105728313D01*
X74472667Y-105650968D01*
X74489000Y-105568859D01*
X74489000Y-105485141D01*
X74472667Y-105403032D01*
X74440630Y-105325687D01*
X74405425Y-105273000D01*
X74440630Y-105220313D01*
X74472667Y-105142968D01*
X74489000Y-105060859D01*
X74489000Y-104977141D01*
X74472667Y-104895032D01*
X74440630Y-104817687D01*
X74394119Y-104748079D01*
X74334921Y-104688881D01*
X74265313Y-104642370D01*
X74187968Y-104610333D01*
X74105859Y-104594000D01*
X74022141Y-104594000D01*
X73940032Y-104610333D01*
X73862687Y-104642370D01*
X73810000Y-104677575D01*
X73757313Y-104642370D01*
X73679968Y-104610333D01*
X73597859Y-104594000D01*
X73514141Y-104594000D01*
X73432032Y-104610333D01*
X73354687Y-104642370D01*
X73285079Y-104688881D01*
X73225881Y-104748079D01*
X73179370Y-104817687D01*
X73147333Y-104895032D01*
X73131000Y-104977141D01*
X61732114Y-104977141D01*
X61779336Y-104945589D01*
X61925589Y-104799336D01*
X62040498Y-104627362D01*
X62119650Y-104436274D01*
X62160000Y-104233416D01*
X62160000Y-104026584D01*
X62119650Y-103823726D01*
X62071359Y-103707141D01*
X65003000Y-103707141D01*
X65003000Y-103790859D01*
X65019333Y-103872968D01*
X65051370Y-103950313D01*
X65097881Y-104019921D01*
X65157079Y-104079119D01*
X65226687Y-104125630D01*
X65304032Y-104157667D01*
X65386141Y-104174000D01*
X65469859Y-104174000D01*
X65551968Y-104157667D01*
X65629313Y-104125630D01*
X65698921Y-104079119D01*
X65758119Y-104019921D01*
X65804630Y-103950313D01*
X65836667Y-103872968D01*
X65853000Y-103790859D01*
X65853000Y-103707141D01*
X65836667Y-103625032D01*
X65804630Y-103547687D01*
X65758119Y-103478079D01*
X65698921Y-103418881D01*
X65629313Y-103372370D01*
X65551968Y-103340333D01*
X65469859Y-103324000D01*
X65386141Y-103324000D01*
X65304032Y-103340333D01*
X65226687Y-103372370D01*
X65157079Y-103418881D01*
X65097881Y-103478079D01*
X65051370Y-103547687D01*
X65019333Y-103625032D01*
X65003000Y-103707141D01*
X62071359Y-103707141D01*
X62040498Y-103632638D01*
X61925589Y-103460664D01*
X61779336Y-103314411D01*
X61607362Y-103199502D01*
X61416274Y-103120350D01*
X61213416Y-103080000D01*
X61006584Y-103080000D01*
X60803726Y-103120350D01*
X60612638Y-103199502D01*
X60440664Y-103314411D01*
X60294411Y-103460664D01*
X60179502Y-103632638D01*
X60100350Y-103823726D01*
X60060000Y-104026584D01*
X59255000Y-104026584D01*
X59255000Y-102945141D01*
X66273000Y-102945141D01*
X66273000Y-103028859D01*
X66289333Y-103110968D01*
X66321370Y-103188313D01*
X66367881Y-103257921D01*
X66427079Y-103317119D01*
X66496687Y-103363630D01*
X66507237Y-103368000D01*
X66496687Y-103372370D01*
X66427079Y-103418881D01*
X66367881Y-103478079D01*
X66321370Y-103547687D01*
X66289333Y-103625032D01*
X66273000Y-103707141D01*
X66273000Y-103790859D01*
X66289333Y-103872968D01*
X66321370Y-103950313D01*
X66367881Y-104019921D01*
X66427079Y-104079119D01*
X66496687Y-104125630D01*
X66574032Y-104157667D01*
X66656141Y-104174000D01*
X66739859Y-104174000D01*
X66821968Y-104157667D01*
X66899313Y-104125630D01*
X66968921Y-104079119D01*
X67028119Y-104019921D01*
X67074630Y-103950313D01*
X67106667Y-103872968D01*
X67123000Y-103790859D01*
X67123000Y-103707141D01*
X67106667Y-103625032D01*
X67074630Y-103547687D01*
X67028119Y-103478079D01*
X66968921Y-103418881D01*
X66899313Y-103372370D01*
X66888763Y-103368000D01*
X66899313Y-103363630D01*
X66968921Y-103317119D01*
X67028119Y-103257921D01*
X67074630Y-103188313D01*
X67106667Y-103110968D01*
X67123000Y-103028859D01*
X67123000Y-102945141D01*
X67416000Y-102945141D01*
X67416000Y-103028859D01*
X67432333Y-103110968D01*
X67464370Y-103188313D01*
X67510881Y-103257921D01*
X67570079Y-103317119D01*
X67639687Y-103363630D01*
X67650237Y-103368000D01*
X67639687Y-103372370D01*
X67570079Y-103418881D01*
X67510881Y-103478079D01*
X67464370Y-103547687D01*
X67432333Y-103625032D01*
X67416000Y-103707141D01*
X67416000Y-103790859D01*
X67432333Y-103872968D01*
X67464370Y-103950313D01*
X67510881Y-104019921D01*
X67570079Y-104079119D01*
X67639687Y-104125630D01*
X67717032Y-104157667D01*
X67799141Y-104174000D01*
X67882859Y-104174000D01*
X67964968Y-104157667D01*
X68042313Y-104125630D01*
X68111921Y-104079119D01*
X68171119Y-104019921D01*
X68217630Y-103950313D01*
X68249667Y-103872968D01*
X68266000Y-103790859D01*
X68266000Y-103707141D01*
X68249667Y-103625032D01*
X68217630Y-103547687D01*
X68171119Y-103478079D01*
X68111921Y-103418881D01*
X68042313Y-103372370D01*
X68031763Y-103368000D01*
X68042313Y-103363630D01*
X68111921Y-103317119D01*
X68171119Y-103257921D01*
X68217630Y-103188313D01*
X68249667Y-103110968D01*
X68266000Y-103028859D01*
X68266000Y-102945141D01*
X68686000Y-102945141D01*
X68686000Y-103028859D01*
X68702333Y-103110968D01*
X68734370Y-103188313D01*
X68780881Y-103257921D01*
X68840079Y-103317119D01*
X68909687Y-103363630D01*
X68920237Y-103368000D01*
X68909687Y-103372370D01*
X68840079Y-103418881D01*
X68780881Y-103478079D01*
X68734370Y-103547687D01*
X68702333Y-103625032D01*
X68686000Y-103707141D01*
X68686000Y-103790859D01*
X68702333Y-103872968D01*
X68734370Y-103950313D01*
X68780881Y-104019921D01*
X68840079Y-104079119D01*
X68909687Y-104125630D01*
X68987032Y-104157667D01*
X69069141Y-104174000D01*
X69152859Y-104174000D01*
X69234968Y-104157667D01*
X69312313Y-104125630D01*
X69381921Y-104079119D01*
X69441119Y-104019921D01*
X69487630Y-103950313D01*
X69519667Y-103872968D01*
X69536000Y-103790859D01*
X69536000Y-103707141D01*
X69519667Y-103625032D01*
X69487630Y-103547687D01*
X69441119Y-103478079D01*
X69381921Y-103418881D01*
X69312313Y-103372370D01*
X69301763Y-103368000D01*
X69312313Y-103363630D01*
X69381921Y-103317119D01*
X69441119Y-103257921D01*
X69487630Y-103188313D01*
X69519667Y-103110968D01*
X69536000Y-103028859D01*
X69536000Y-102945141D01*
X69956000Y-102945141D01*
X69956000Y-103028859D01*
X69972333Y-103110968D01*
X70004370Y-103188313D01*
X70050881Y-103257921D01*
X70110079Y-103317119D01*
X70179687Y-103363630D01*
X70190237Y-103368000D01*
X70179687Y-103372370D01*
X70110079Y-103418881D01*
X70050881Y-103478079D01*
X70004370Y-103547687D01*
X69972333Y-103625032D01*
X69956000Y-103707141D01*
X69956000Y-103790859D01*
X69972333Y-103872968D01*
X70004370Y-103950313D01*
X70050881Y-104019921D01*
X70110079Y-104079119D01*
X70179687Y-104125630D01*
X70257032Y-104157667D01*
X70339141Y-104174000D01*
X70422859Y-104174000D01*
X70504968Y-104157667D01*
X70582313Y-104125630D01*
X70651921Y-104079119D01*
X70711119Y-104019921D01*
X70757630Y-103950313D01*
X70789667Y-103872968D01*
X70806000Y-103790859D01*
X70806000Y-103707141D01*
X70789667Y-103625032D01*
X70757630Y-103547687D01*
X70711119Y-103478079D01*
X70651921Y-103418881D01*
X70582313Y-103372370D01*
X70571763Y-103368000D01*
X70582313Y-103363630D01*
X70651921Y-103317119D01*
X70711119Y-103257921D01*
X70757630Y-103188313D01*
X70789667Y-103110968D01*
X70806000Y-103028859D01*
X70806000Y-102945141D01*
X70789667Y-102863032D01*
X70757630Y-102785687D01*
X70711119Y-102716079D01*
X70651921Y-102656881D01*
X70582313Y-102610370D01*
X70504968Y-102578333D01*
X70422859Y-102562000D01*
X70339141Y-102562000D01*
X70257032Y-102578333D01*
X70179687Y-102610370D01*
X70110079Y-102656881D01*
X70050881Y-102716079D01*
X70004370Y-102785687D01*
X69972333Y-102863032D01*
X69956000Y-102945141D01*
X69536000Y-102945141D01*
X69519667Y-102863032D01*
X69487630Y-102785687D01*
X69441119Y-102716079D01*
X69381921Y-102656881D01*
X69312313Y-102610370D01*
X69234968Y-102578333D01*
X69152859Y-102562000D01*
X69069141Y-102562000D01*
X68987032Y-102578333D01*
X68909687Y-102610370D01*
X68840079Y-102656881D01*
X68780881Y-102716079D01*
X68734370Y-102785687D01*
X68702333Y-102863032D01*
X68686000Y-102945141D01*
X68266000Y-102945141D01*
X68249667Y-102863032D01*
X68217630Y-102785687D01*
X68171119Y-102716079D01*
X68111921Y-102656881D01*
X68042313Y-102610370D01*
X67964968Y-102578333D01*
X67882859Y-102562000D01*
X67799141Y-102562000D01*
X67717032Y-102578333D01*
X67639687Y-102610370D01*
X67570079Y-102656881D01*
X67510881Y-102716079D01*
X67464370Y-102785687D01*
X67432333Y-102863032D01*
X67416000Y-102945141D01*
X67123000Y-102945141D01*
X67106667Y-102863032D01*
X67074630Y-102785687D01*
X67028119Y-102716079D01*
X66968921Y-102656881D01*
X66899313Y-102610370D01*
X66821968Y-102578333D01*
X66739859Y-102562000D01*
X66656141Y-102562000D01*
X66574032Y-102578333D01*
X66496687Y-102610370D01*
X66427079Y-102656881D01*
X66367881Y-102716079D01*
X66321370Y-102785687D01*
X66289333Y-102863032D01*
X66273000Y-102945141D01*
X59255000Y-102945141D01*
X59255000Y-101486584D01*
X60060000Y-101486584D01*
X60060000Y-101693416D01*
X60100350Y-101896274D01*
X60179502Y-102087362D01*
X60294411Y-102259336D01*
X60440664Y-102405589D01*
X60612638Y-102520498D01*
X60803726Y-102599650D01*
X61006584Y-102640000D01*
X61213416Y-102640000D01*
X61416274Y-102599650D01*
X61607362Y-102520498D01*
X61779336Y-102405589D01*
X61925589Y-102259336D01*
X62040498Y-102087362D01*
X62119650Y-101896274D01*
X62160000Y-101693416D01*
X62160000Y-101486584D01*
X62119650Y-101283726D01*
X62040498Y-101092638D01*
X61925589Y-100920664D01*
X61779336Y-100774411D01*
X61607362Y-100659502D01*
X61416274Y-100580350D01*
X61213416Y-100540000D01*
X61006584Y-100540000D01*
X60803726Y-100580350D01*
X60612638Y-100659502D01*
X60440664Y-100774411D01*
X60294411Y-100920664D01*
X60179502Y-101092638D01*
X60100350Y-101283726D01*
X60060000Y-101486584D01*
X59255000Y-101486584D01*
X59255000Y-58306584D01*
X60060000Y-58306584D01*
X60060000Y-58513416D01*
X60100350Y-58716274D01*
X60179502Y-58907362D01*
X60294411Y-59079336D01*
X60440664Y-59225589D01*
X60612638Y-59340498D01*
X60803726Y-59419650D01*
X61006584Y-59460000D01*
X61213416Y-59460000D01*
X61416274Y-59419650D01*
X61607362Y-59340498D01*
X61779336Y-59225589D01*
X61925589Y-59079336D01*
X62040498Y-58907362D01*
X62119650Y-58716274D01*
X62160000Y-58513416D01*
X62160000Y-58306584D01*
X62119650Y-58103726D01*
X62040498Y-57912638D01*
X61925589Y-57740664D01*
X61779336Y-57594411D01*
X61607362Y-57479502D01*
X61416274Y-57400350D01*
X61213416Y-57360000D01*
X61006584Y-57360000D01*
X60803726Y-57400350D01*
X60612638Y-57479502D01*
X60440664Y-57594411D01*
X60294411Y-57740664D01*
X60179502Y-57912638D01*
X60100350Y-58103726D01*
X60060000Y-58306584D01*
X59255000Y-58306584D01*
X59255000Y-53226584D01*
X60060000Y-53226584D01*
X60060000Y-53433416D01*
X60100350Y-53636274D01*
X60179502Y-53827362D01*
X60294411Y-53999336D01*
X60440664Y-54145589D01*
X60612638Y-54260498D01*
X60803726Y-54339650D01*
X61006584Y-54380000D01*
X61213416Y-54380000D01*
X61416274Y-54339650D01*
X61607362Y-54260498D01*
X61655069Y-54228621D01*
X63330001Y-55903555D01*
X63330000Y-57736447D01*
X62008621Y-56415069D01*
X62040498Y-56367362D01*
X62119650Y-56176274D01*
X62160000Y-55973416D01*
X62160000Y-55766584D01*
X62119650Y-55563726D01*
X62040498Y-55372638D01*
X61925589Y-55200664D01*
X61779336Y-55054411D01*
X61607362Y-54939502D01*
X61416274Y-54860350D01*
X61213416Y-54820000D01*
X61006584Y-54820000D01*
X60803726Y-54860350D01*
X60612638Y-54939502D01*
X60440664Y-55054411D01*
X60294411Y-55200664D01*
X60179502Y-55372638D01*
X60100350Y-55563726D01*
X60060000Y-55766584D01*
X60060000Y-55973416D01*
X60100350Y-56176274D01*
X60179502Y-56367362D01*
X60294411Y-56539336D01*
X60440664Y-56685589D01*
X60612638Y-56800498D01*
X60803726Y-56879650D01*
X61006584Y-56920000D01*
X61213416Y-56920000D01*
X61416274Y-56879650D01*
X61607362Y-56800498D01*
X61655069Y-56768621D01*
X63804999Y-58918552D01*
X63804999Y-63221446D01*
X62036659Y-61453107D01*
X62040498Y-61447362D01*
X62119650Y-61256274D01*
X62160000Y-61053416D01*
X62160000Y-60846584D01*
X62119650Y-60643726D01*
X62040498Y-60452638D01*
X61925589Y-60280664D01*
X61779336Y-60134411D01*
X61607362Y-60019502D01*
X61416274Y-59940350D01*
X61213416Y-59900000D01*
X61006584Y-59900000D01*
X60803726Y-59940350D01*
X60612638Y-60019502D01*
X60440664Y-60134411D01*
X60294411Y-60280664D01*
X60179502Y-60452638D01*
X60100350Y-60643726D01*
X60060000Y-60846584D01*
X60060000Y-61053416D01*
X60100350Y-61256274D01*
X60179502Y-61447362D01*
X60294411Y-61619336D01*
X60440664Y-61765589D01*
X60612638Y-61880498D01*
X60803726Y-61959650D01*
X61006584Y-62000000D01*
X61213416Y-62000000D01*
X61416274Y-61959650D01*
X61607362Y-61880498D01*
X61697031Y-61820583D01*
X63580000Y-63703553D01*
X63580000Y-65596446D01*
X62012627Y-64029074D01*
X62040498Y-63987362D01*
X62119650Y-63796274D01*
X62160000Y-63593416D01*
X62160000Y-63386584D01*
X62119650Y-63183726D01*
X62040498Y-62992638D01*
X61925589Y-62820664D01*
X61779336Y-62674411D01*
X61607362Y-62559502D01*
X61416274Y-62480350D01*
X61213416Y-62440000D01*
X61006584Y-62440000D01*
X60803726Y-62480350D01*
X60612638Y-62559502D01*
X60440664Y-62674411D01*
X60294411Y-62820664D01*
X60179502Y-62992638D01*
X60100350Y-63183726D01*
X60060000Y-63386584D01*
X60060000Y-63593416D01*
X60100350Y-63796274D01*
X60179502Y-63987362D01*
X60294411Y-64159336D01*
X60440664Y-64305589D01*
X60612638Y-64420498D01*
X60803726Y-64499650D01*
X61006584Y-64540000D01*
X61213416Y-64540000D01*
X61416274Y-64499650D01*
X61607362Y-64420498D01*
X61661063Y-64384616D01*
X63380000Y-66103554D01*
X63380000Y-67896447D01*
X62028648Y-66545096D01*
X62040498Y-66527362D01*
X62119650Y-66336274D01*
X62160000Y-66133416D01*
X62160000Y-65926584D01*
X62119650Y-65723726D01*
X62040498Y-65532638D01*
X61925589Y-65360664D01*
X61779336Y-65214411D01*
X61607362Y-65099502D01*
X61416274Y-65020350D01*
X61213416Y-64980000D01*
X61006584Y-64980000D01*
X60803726Y-65020350D01*
X60612638Y-65099502D01*
X60440664Y-65214411D01*
X60294411Y-65360664D01*
X60179502Y-65532638D01*
X60100350Y-65723726D01*
X60060000Y-65926584D01*
X60060000Y-66133416D01*
X60100350Y-66336274D01*
X60179502Y-66527362D01*
X60294411Y-66699336D01*
X60440664Y-66845589D01*
X60612638Y-66960498D01*
X60803726Y-67039650D01*
X61006584Y-67080000D01*
X61213416Y-67080000D01*
X61416274Y-67039650D01*
X61607362Y-66960498D01*
X61685042Y-66908594D01*
X63180000Y-68403553D01*
X63180000Y-70296446D01*
X62004616Y-69121063D01*
X62040498Y-69067362D01*
X62119650Y-68876274D01*
X62160000Y-68673416D01*
X62160000Y-68466584D01*
X62119650Y-68263726D01*
X62040498Y-68072638D01*
X61925589Y-67900664D01*
X61779336Y-67754411D01*
X61607362Y-67639502D01*
X61416274Y-67560350D01*
X61213416Y-67520000D01*
X61006584Y-67520000D01*
X60803726Y-67560350D01*
X60612638Y-67639502D01*
X60440664Y-67754411D01*
X60294411Y-67900664D01*
X60179502Y-68072638D01*
X60100350Y-68263726D01*
X60060000Y-68466584D01*
X60060000Y-68673416D01*
X60100350Y-68876274D01*
X60179502Y-69067362D01*
X60294411Y-69239336D01*
X60440664Y-69385589D01*
X60612638Y-69500498D01*
X60803726Y-69579650D01*
X61006584Y-69620000D01*
X61213416Y-69620000D01*
X61416274Y-69579650D01*
X61607362Y-69500498D01*
X61649074Y-69472627D01*
X62930000Y-70753554D01*
X62930000Y-72546447D01*
X62020638Y-71637085D01*
X62040498Y-71607362D01*
X62119650Y-71416274D01*
X62160000Y-71213416D01*
X62160000Y-71006584D01*
X62119650Y-70803726D01*
X62040498Y-70612638D01*
X61925589Y-70440664D01*
X61779336Y-70294411D01*
X61607362Y-70179502D01*
X61416274Y-70100350D01*
X61213416Y-70060000D01*
X61006584Y-70060000D01*
X60803726Y-70100350D01*
X60612638Y-70179502D01*
X60440664Y-70294411D01*
X60294411Y-70440664D01*
X60179502Y-70612638D01*
X60100350Y-70803726D01*
X60060000Y-71006584D01*
X60060000Y-71213416D01*
X60100350Y-71416274D01*
X60179502Y-71607362D01*
X60294411Y-71779336D01*
X60440664Y-71925589D01*
X60612638Y-72040498D01*
X60803726Y-72119650D01*
X61006584Y-72160000D01*
X61213416Y-72160000D01*
X61416274Y-72119650D01*
X61607362Y-72040498D01*
X61673053Y-71996605D01*
X62730000Y-73053553D01*
X62730000Y-74946447D01*
X61996605Y-74213053D01*
X62040498Y-74147362D01*
X62119650Y-73956274D01*
X62160000Y-73753416D01*
X62160000Y-73546584D01*
X62119650Y-73343726D01*
X62040498Y-73152638D01*
X61925589Y-72980664D01*
X61779336Y-72834411D01*
X61607362Y-72719502D01*
X61416274Y-72640350D01*
X61213416Y-72600000D01*
X61006584Y-72600000D01*
X60803726Y-72640350D01*
X60612638Y-72719502D01*
X60440664Y-72834411D01*
X60294411Y-72980664D01*
X60179502Y-73152638D01*
X60100350Y-73343726D01*
X60060000Y-73546584D01*
X60060000Y-73753416D01*
X60100350Y-73956274D01*
X60179502Y-74147362D01*
X60294411Y-74319336D01*
X60440664Y-74465589D01*
X60612638Y-74580498D01*
X60803726Y-74659650D01*
X61006584Y-74700000D01*
X61213416Y-74700000D01*
X61416274Y-74659650D01*
X61607362Y-74580498D01*
X61637085Y-74560638D01*
X62530000Y-75453553D01*
X62530000Y-77246447D01*
X62012627Y-76729074D01*
X62040498Y-76687362D01*
X62119650Y-76496274D01*
X62160000Y-76293416D01*
X62160000Y-76086584D01*
X62119650Y-75883726D01*
X62040498Y-75692638D01*
X61925589Y-75520664D01*
X61779336Y-75374411D01*
X61607362Y-75259502D01*
X61416274Y-75180350D01*
X61213416Y-75140000D01*
X61006584Y-75140000D01*
X60803726Y-75180350D01*
X60612638Y-75259502D01*
X60440664Y-75374411D01*
X60294411Y-75520664D01*
X60179502Y-75692638D01*
X60100350Y-75883726D01*
X60060000Y-76086584D01*
X60060000Y-76293416D01*
X60100350Y-76496274D01*
X60179502Y-76687362D01*
X60294411Y-76859336D01*
X60440664Y-77005589D01*
X60612638Y-77120498D01*
X60803726Y-77199650D01*
X61006584Y-77240000D01*
X61213416Y-77240000D01*
X61416274Y-77199650D01*
X61607362Y-77120498D01*
X61661063Y-77084616D01*
X62330000Y-77753553D01*
X62330000Y-79546447D01*
X62028649Y-79245096D01*
X62040498Y-79227362D01*
X62119650Y-79036274D01*
X62160000Y-78833416D01*
X62160000Y-78626584D01*
X62119650Y-78423726D01*
X62040498Y-78232638D01*
X61925589Y-78060664D01*
X61779336Y-77914411D01*
X61607362Y-77799502D01*
X61416274Y-77720350D01*
X61213416Y-77680000D01*
X61006584Y-77680000D01*
X60803726Y-77720350D01*
X60612638Y-77799502D01*
X60440664Y-77914411D01*
X60294411Y-78060664D01*
X60179502Y-78232638D01*
X60100350Y-78423726D01*
X60060000Y-78626584D01*
X60060000Y-78833416D01*
X60100350Y-79036274D01*
X60179502Y-79227362D01*
X60294411Y-79399336D01*
X60440664Y-79545589D01*
X60612638Y-79660498D01*
X60803726Y-79739650D01*
X61006584Y-79780000D01*
X61213416Y-79780000D01*
X61416274Y-79739650D01*
X61607362Y-79660498D01*
X61685042Y-79608594D01*
X62130000Y-80053553D01*
X62130000Y-81015761D01*
X62119650Y-80963726D01*
X62040498Y-80772638D01*
X61925589Y-80600664D01*
X61779336Y-80454411D01*
X61607362Y-80339502D01*
X61416274Y-80260350D01*
X61213416Y-80220000D01*
X61006584Y-80220000D01*
X60803726Y-80260350D01*
X60612638Y-80339502D01*
X60440664Y-80454411D01*
X60294411Y-80600664D01*
X60179502Y-80772638D01*
X60100350Y-80963726D01*
X60060000Y-81166584D01*
X60060000Y-81373416D01*
X60100350Y-81576274D01*
X60179502Y-81767362D01*
X60294411Y-81939336D01*
X60440664Y-82085589D01*
X60612638Y-82200498D01*
X60803726Y-82279650D01*
X61006584Y-82320000D01*
X61213416Y-82320000D01*
X61416274Y-82279650D01*
X61607362Y-82200498D01*
X61779336Y-82085589D01*
X61925589Y-81939336D01*
X62040498Y-81767362D01*
X62119650Y-81576274D01*
X62130000Y-81524239D01*
X62130000Y-83555762D01*
X62119650Y-83503726D01*
X62040498Y-83312638D01*
X61925589Y-83140664D01*
X61779336Y-82994411D01*
X61607362Y-82879502D01*
X61416274Y-82800350D01*
X61213416Y-82760000D01*
X61006584Y-82760000D01*
X60803726Y-82800350D01*
X60612638Y-82879502D01*
X60440664Y-82994411D01*
X60294411Y-83140664D01*
X60179502Y-83312638D01*
X60100350Y-83503726D01*
X60060000Y-83706584D01*
X60060000Y-83913416D01*
X60100350Y-84116274D01*
X60179502Y-84307362D01*
X60294411Y-84479336D01*
X60440664Y-84625589D01*
X60612638Y-84740498D01*
X60803726Y-84819650D01*
X61006584Y-84860000D01*
X61213416Y-84860000D01*
X61416274Y-84819650D01*
X61607362Y-84740498D01*
X61779336Y-84625589D01*
X61925589Y-84479336D01*
X62040498Y-84307362D01*
X62119650Y-84116274D01*
X62130000Y-84064237D01*
X62130001Y-86095764D01*
X62119650Y-86043726D01*
X62040498Y-85852638D01*
X61925589Y-85680664D01*
X61779336Y-85534411D01*
X61607362Y-85419502D01*
X61416274Y-85340350D01*
X61213416Y-85300000D01*
X61006584Y-85300000D01*
X60803726Y-85340350D01*
X60612638Y-85419502D01*
X60440664Y-85534411D01*
X60294411Y-85680664D01*
X60179502Y-85852638D01*
X60100350Y-86043726D01*
X60060000Y-86246584D01*
X60060000Y-86453416D01*
X60100350Y-86656274D01*
X60179502Y-86847362D01*
X60294411Y-87019336D01*
X60440664Y-87165589D01*
X60612638Y-87280498D01*
X60803726Y-87359650D01*
X61006584Y-87400000D01*
X61213416Y-87400000D01*
X61416274Y-87359650D01*
X61607362Y-87280498D01*
X61779336Y-87165589D01*
X61925589Y-87019336D01*
X62040498Y-86847362D01*
X62119650Y-86656274D01*
X62130001Y-86604236D01*
X62130001Y-88387715D01*
X62128791Y-88400000D01*
X62133618Y-88449008D01*
X62147913Y-88496133D01*
X62171128Y-88539564D01*
X62202369Y-88577632D01*
X62211909Y-88585462D01*
X62909909Y-89283463D01*
X62905000Y-89308141D01*
X62905000Y-89391859D01*
X62921333Y-89473968D01*
X62953370Y-89551313D01*
X62999881Y-89620921D01*
X63059079Y-89680119D01*
X63088833Y-89700000D01*
X63059079Y-89719881D01*
X62999881Y-89779079D01*
X62953370Y-89848687D01*
X62921333Y-89926032D01*
X62905000Y-90008141D01*
X62905000Y-90091859D01*
X62921333Y-90173968D01*
X62953370Y-90251313D01*
X62999881Y-90320921D01*
X63028960Y-90350000D01*
X62283553Y-90350000D01*
X61695295Y-89761743D01*
X61779336Y-89705589D01*
X61925589Y-89559336D01*
X62040498Y-89387362D01*
X62119650Y-89196274D01*
X62160000Y-88993416D01*
X62160000Y-88786584D01*
X62119650Y-88583726D01*
X62040498Y-88392638D01*
X61925589Y-88220664D01*
X61779336Y-88074411D01*
X61607362Y-87959502D01*
X61416274Y-87880350D01*
X61213416Y-87840000D01*
X61006584Y-87840000D01*
X60803726Y-87880350D01*
X60612638Y-87959502D01*
X60440664Y-88074411D01*
X60294411Y-88220664D01*
X60179502Y-88392638D01*
X60100350Y-88583726D01*
X60060000Y-88786584D01*
X60060000Y-88993416D01*
X60100350Y-89196274D01*
X60179502Y-89387362D01*
X60294411Y-89559336D01*
X60440664Y-89705589D01*
X60612638Y-89820498D01*
X60803726Y-89899650D01*
X61006584Y-89940000D01*
X61166448Y-89940000D01*
X61994538Y-90768091D01*
X62002368Y-90777632D01*
X62040436Y-90808873D01*
X62083866Y-90832087D01*
X62107429Y-90839235D01*
X62130991Y-90846382D01*
X62180000Y-90851209D01*
X62192275Y-90850000D01*
X63426448Y-90850000D01*
X63126448Y-91150000D01*
X62124876Y-91150000D01*
X62119650Y-91123726D01*
X62040498Y-90932638D01*
X61925589Y-90760664D01*
X61779336Y-90614411D01*
X61607362Y-90499502D01*
X61416274Y-90420350D01*
X61213416Y-90380000D01*
X61006584Y-90380000D01*
X60803726Y-90420350D01*
X60612638Y-90499502D01*
X60440664Y-90614411D01*
X60294411Y-90760664D01*
X60179502Y-90932638D01*
X60100350Y-91123726D01*
X60060000Y-91326584D01*
X60060000Y-91533416D01*
X60100350Y-91736274D01*
X60179502Y-91927362D01*
X60294411Y-92099336D01*
X60440664Y-92245589D01*
X60612638Y-92360498D01*
X60803726Y-92439650D01*
X61006584Y-92480000D01*
X61213416Y-92480000D01*
X61416274Y-92439650D01*
X61607362Y-92360498D01*
X61779336Y-92245589D01*
X61925589Y-92099336D01*
X62040498Y-91927362D01*
X62119650Y-91736274D01*
X62136811Y-91650000D01*
X62976448Y-91650000D01*
X61941915Y-92684533D01*
X61932369Y-92692367D01*
X61901128Y-92730435D01*
X61886038Y-92758667D01*
X61877914Y-92773866D01*
X61863619Y-92820991D01*
X61858792Y-92869999D01*
X61860001Y-92882274D01*
X61860001Y-93235076D01*
X61779336Y-93154411D01*
X61607362Y-93039502D01*
X61416274Y-92960350D01*
X61213416Y-92920000D01*
X61006584Y-92920000D01*
X60803726Y-92960350D01*
X60612638Y-93039502D01*
X60440664Y-93154411D01*
X60294411Y-93300664D01*
X60179502Y-93472638D01*
X60100350Y-93663726D01*
X60060000Y-93866584D01*
X60060000Y-94073416D01*
X60100350Y-94276274D01*
X60179502Y-94467362D01*
X60294411Y-94639336D01*
X60440664Y-94785589D01*
X60612638Y-94900498D01*
X60803726Y-94979650D01*
X61006584Y-95020000D01*
X61213416Y-95020000D01*
X61416274Y-94979650D01*
X61607362Y-94900498D01*
X61779336Y-94785589D01*
X61860001Y-94704924D01*
X61860002Y-95775077D01*
X61779336Y-95694411D01*
X61607362Y-95579502D01*
X61416274Y-95500350D01*
X61213416Y-95460000D01*
X61006584Y-95460000D01*
X60803726Y-95500350D01*
X60612638Y-95579502D01*
X60440664Y-95694411D01*
X60294411Y-95840664D01*
X60179502Y-96012638D01*
X60100350Y-96203726D01*
X60060000Y-96406584D01*
X60060000Y-96613416D01*
X60100350Y-96816274D01*
X60179502Y-97007362D01*
X60294411Y-97179336D01*
X60440664Y-97325589D01*
X60612638Y-97440498D01*
X60803726Y-97519650D01*
X61006584Y-97560000D01*
X61213416Y-97560000D01*
X61416274Y-97519650D01*
X61607362Y-97440498D01*
X61779336Y-97325589D01*
X61860002Y-97244923D01*
X61860002Y-97946445D01*
X61655069Y-98151379D01*
X61607362Y-98119502D01*
X61416274Y-98040350D01*
X61213416Y-98000000D01*
X61006584Y-98000000D01*
X60803726Y-98040350D01*
X60612638Y-98119502D01*
X60440664Y-98234411D01*
X60294411Y-98380664D01*
X60179502Y-98552638D01*
X60100350Y-98743726D01*
X60060000Y-98946584D01*
X60060000Y-99153416D01*
X60100350Y-99356274D01*
X60179502Y-99547362D01*
X60294411Y-99719336D01*
X60440664Y-99865589D01*
X60612638Y-99980498D01*
X60803726Y-100059650D01*
X61006584Y-100100000D01*
X61213416Y-100100000D01*
X61416274Y-100059650D01*
X61607362Y-99980498D01*
X61732114Y-99897141D01*
X71353000Y-99897141D01*
X71353000Y-99980859D01*
X71369333Y-100062968D01*
X71401370Y-100140313D01*
X71447881Y-100209921D01*
X71507079Y-100269119D01*
X71576687Y-100315630D01*
X71654032Y-100347667D01*
X71736141Y-100364000D01*
X71819859Y-100364000D01*
X71901968Y-100347667D01*
X71979313Y-100315630D01*
X72048921Y-100269119D01*
X72108119Y-100209921D01*
X72154630Y-100140313D01*
X72186667Y-100062968D01*
X72203000Y-99980859D01*
X72203000Y-99897141D01*
X72186667Y-99815032D01*
X72154630Y-99737687D01*
X72108119Y-99668079D01*
X72048921Y-99608881D01*
X71979313Y-99562370D01*
X71901968Y-99530333D01*
X71819859Y-99514000D01*
X71736141Y-99514000D01*
X71654032Y-99530333D01*
X71576687Y-99562370D01*
X71507079Y-99608881D01*
X71447881Y-99668079D01*
X71401370Y-99737687D01*
X71369333Y-99815032D01*
X71353000Y-99897141D01*
X61732114Y-99897141D01*
X61779336Y-99865589D01*
X61925589Y-99719336D01*
X62040498Y-99547362D01*
X62119650Y-99356274D01*
X62160000Y-99153416D01*
X62160000Y-98946584D01*
X62119650Y-98743726D01*
X62040498Y-98552638D01*
X62008621Y-98504931D01*
X62278092Y-98235461D01*
X62287633Y-98227631D01*
X62318874Y-98189563D01*
X62342088Y-98146133D01*
X62356383Y-98099007D01*
X62360001Y-98062274D01*
X62361210Y-98049999D01*
X62360001Y-98037724D01*
X62360001Y-92973551D01*
X65304999Y-90028554D01*
X65305000Y-94170122D01*
X65302944Y-94190999D01*
X65311149Y-94274313D01*
X65335452Y-94354426D01*
X65374916Y-94428259D01*
X65402453Y-94461812D01*
X65413276Y-94475000D01*
X65428026Y-94492973D01*
X65444238Y-94506278D01*
X66158239Y-95220280D01*
X66158245Y-95220285D01*
X66173079Y-95235119D01*
X66190526Y-95246777D01*
X66206740Y-95260083D01*
X66225235Y-95269969D01*
X66242687Y-95281630D01*
X66262079Y-95289663D01*
X66280572Y-95299547D01*
X66300641Y-95305635D01*
X66320032Y-95313667D01*
X66340613Y-95317761D01*
X66360685Y-95323850D01*
X66381557Y-95325906D01*
X66402141Y-95330000D01*
X66423133Y-95330000D01*
X66444000Y-95332055D01*
X66464867Y-95330000D01*
X66485859Y-95330000D01*
X66506443Y-95325905D01*
X66527314Y-95323850D01*
X66547384Y-95317761D01*
X66567968Y-95313667D01*
X66587361Y-95305634D01*
X66607427Y-95299547D01*
X66625916Y-95289664D01*
X66645313Y-95281630D01*
X66662769Y-95269966D01*
X66681259Y-95260083D01*
X66697469Y-95246780D01*
X66714921Y-95235119D01*
X66729760Y-95220280D01*
X66745974Y-95206974D01*
X66759281Y-95190759D01*
X66774119Y-95175921D01*
X66785780Y-95158469D01*
X66799083Y-95142259D01*
X66808966Y-95123769D01*
X66820630Y-95106313D01*
X66828664Y-95086916D01*
X66838547Y-95068427D01*
X66844634Y-95048361D01*
X66852667Y-95028968D01*
X66856761Y-95008384D01*
X66862850Y-94988314D01*
X66864905Y-94967443D01*
X66869000Y-94946859D01*
X66869000Y-94925867D01*
X66871055Y-94905000D01*
X66869000Y-94884133D01*
X66869000Y-94863141D01*
X66864906Y-94842557D01*
X66862850Y-94821685D01*
X66856761Y-94801613D01*
X66852667Y-94781032D01*
X66844635Y-94761641D01*
X66838547Y-94741572D01*
X66828663Y-94723079D01*
X66820630Y-94703687D01*
X66808969Y-94686235D01*
X66799083Y-94667740D01*
X66785777Y-94651526D01*
X66774119Y-94634079D01*
X66759285Y-94619245D01*
X66759280Y-94619239D01*
X66154999Y-94014959D01*
X66154999Y-92758239D01*
X66156032Y-92758667D01*
X66238141Y-92775000D01*
X66321859Y-92775000D01*
X66403968Y-92758667D01*
X66481313Y-92726630D01*
X66550921Y-92680119D01*
X66610119Y-92620921D01*
X66656630Y-92551313D01*
X66688667Y-92473968D01*
X66705000Y-92391859D01*
X66705000Y-92308141D01*
X66688667Y-92226032D01*
X66679999Y-92205105D01*
X66679999Y-91508239D01*
X66681032Y-91508667D01*
X66763141Y-91525000D01*
X66846859Y-91525000D01*
X66928968Y-91508667D01*
X67006313Y-91476630D01*
X67075921Y-91430119D01*
X67135119Y-91370921D01*
X67149098Y-91350000D01*
X67217725Y-91350000D01*
X67230000Y-91351209D01*
X67279008Y-91346382D01*
X67326134Y-91332087D01*
X67369564Y-91308873D01*
X67407632Y-91277632D01*
X67415466Y-91268086D01*
X68104999Y-90578554D01*
X68105000Y-93212714D01*
X68103790Y-93224999D01*
X68108617Y-93274007D01*
X68122912Y-93321132D01*
X68122913Y-93321133D01*
X68146127Y-93364563D01*
X68177368Y-93402631D01*
X68186909Y-93410461D01*
X69844543Y-95068097D01*
X69852368Y-95077632D01*
X69890436Y-95108873D01*
X69933866Y-95132087D01*
X69980991Y-95146382D01*
X70029999Y-95151209D01*
X70042274Y-95150000D01*
X70435902Y-95150000D01*
X70449881Y-95170921D01*
X70509079Y-95230119D01*
X70578687Y-95276630D01*
X70656032Y-95308667D01*
X70738141Y-95325000D01*
X70821859Y-95325000D01*
X70903968Y-95308667D01*
X70981313Y-95276630D01*
X71050921Y-95230119D01*
X71110119Y-95170921D01*
X71156630Y-95101313D01*
X71188667Y-95023968D01*
X71205000Y-94941859D01*
X71205000Y-94858141D01*
X71188667Y-94776032D01*
X71156630Y-94698687D01*
X71110119Y-94629079D01*
X71050921Y-94569881D01*
X70981313Y-94523370D01*
X70903968Y-94491333D01*
X70821859Y-94475000D01*
X70738141Y-94475000D01*
X70656032Y-94491333D01*
X70578687Y-94523370D01*
X70509079Y-94569881D01*
X70449881Y-94629079D01*
X70435902Y-94650000D01*
X70133554Y-94650000D01*
X68604999Y-93121447D01*
X68604999Y-86108141D01*
X73180000Y-86108141D01*
X73180000Y-86191859D01*
X73196333Y-86273968D01*
X73228370Y-86351313D01*
X73274881Y-86420921D01*
X73334079Y-86480119D01*
X73382540Y-86512500D01*
X73334079Y-86544881D01*
X73274881Y-86604079D01*
X73228370Y-86673687D01*
X73196333Y-86751032D01*
X73180000Y-86833141D01*
X73180000Y-86916859D01*
X73196333Y-86998968D01*
X73228370Y-87076313D01*
X73274881Y-87145921D01*
X73334079Y-87205119D01*
X73403687Y-87251630D01*
X73481032Y-87283667D01*
X73563141Y-87300000D01*
X73646859Y-87300000D01*
X73671539Y-87295091D01*
X74530000Y-88153553D01*
X74530001Y-107627715D01*
X74528791Y-107640000D01*
X74533618Y-107689008D01*
X74547913Y-107736133D01*
X74547914Y-107736134D01*
X74571128Y-107779564D01*
X74602369Y-107817632D01*
X74611910Y-107825462D01*
X75451378Y-108664931D01*
X75419502Y-108712638D01*
X75340350Y-108903726D01*
X75300000Y-109106584D01*
X75300000Y-109313416D01*
X75340350Y-109516274D01*
X75419502Y-109707362D01*
X75534411Y-109879336D01*
X75680664Y-110025589D01*
X75852638Y-110140498D01*
X76043726Y-110219650D01*
X76246584Y-110260000D01*
X76453416Y-110260000D01*
X76656274Y-110219650D01*
X76847362Y-110140498D01*
X77019336Y-110025589D01*
X77165589Y-109879336D01*
X77280498Y-109707362D01*
X77359650Y-109516274D01*
X77400000Y-109313416D01*
X77400000Y-109106584D01*
X77359650Y-108903726D01*
X77280498Y-108712638D01*
X77165589Y-108540664D01*
X77019336Y-108394411D01*
X76847362Y-108279502D01*
X76656274Y-108200350D01*
X76453416Y-108160000D01*
X76246584Y-108160000D01*
X76043726Y-108200350D01*
X75852638Y-108279502D01*
X75804931Y-108311378D01*
X75030000Y-107536448D01*
X75030000Y-106566584D01*
X75300000Y-106566584D01*
X75300000Y-106773416D01*
X75340350Y-106976274D01*
X75419502Y-107167362D01*
X75534411Y-107339336D01*
X75680664Y-107485589D01*
X75852638Y-107600498D01*
X76043726Y-107679650D01*
X76246584Y-107720000D01*
X76453416Y-107720000D01*
X76656274Y-107679650D01*
X76847362Y-107600498D01*
X77019336Y-107485589D01*
X77165589Y-107339336D01*
X77280498Y-107167362D01*
X77359650Y-106976274D01*
X77400000Y-106773416D01*
X77400000Y-106566584D01*
X77359650Y-106363726D01*
X77280498Y-106172638D01*
X77165589Y-106000664D01*
X77019336Y-105854411D01*
X76847362Y-105739502D01*
X76656274Y-105660350D01*
X76453416Y-105620000D01*
X76246584Y-105620000D01*
X76043726Y-105660350D01*
X75852638Y-105739502D01*
X75680664Y-105854411D01*
X75534411Y-106000664D01*
X75419502Y-106172638D01*
X75340350Y-106363726D01*
X75300000Y-106566584D01*
X75030000Y-106566584D01*
X75030000Y-104026584D01*
X75300000Y-104026584D01*
X75300000Y-104233416D01*
X75340350Y-104436274D01*
X75419502Y-104627362D01*
X75534411Y-104799336D01*
X75680664Y-104945589D01*
X75852638Y-105060498D01*
X76043726Y-105139650D01*
X76246584Y-105180000D01*
X76453416Y-105180000D01*
X76656274Y-105139650D01*
X76847362Y-105060498D01*
X77019336Y-104945589D01*
X77165589Y-104799336D01*
X77280498Y-104627362D01*
X77359650Y-104436274D01*
X77400000Y-104233416D01*
X77400000Y-104026584D01*
X77359650Y-103823726D01*
X77280498Y-103632638D01*
X77165589Y-103460664D01*
X77019336Y-103314411D01*
X76847362Y-103199502D01*
X76656274Y-103120350D01*
X76453416Y-103080000D01*
X76246584Y-103080000D01*
X76043726Y-103120350D01*
X75852638Y-103199502D01*
X75680664Y-103314411D01*
X75534411Y-103460664D01*
X75419502Y-103632638D01*
X75340350Y-103823726D01*
X75300000Y-104026584D01*
X75030000Y-104026584D01*
X75030000Y-101486584D01*
X75300000Y-101486584D01*
X75300000Y-101693416D01*
X75340350Y-101896274D01*
X75419502Y-102087362D01*
X75534411Y-102259336D01*
X75680664Y-102405589D01*
X75852638Y-102520498D01*
X76043726Y-102599650D01*
X76246584Y-102640000D01*
X76453416Y-102640000D01*
X76656274Y-102599650D01*
X76847362Y-102520498D01*
X77019336Y-102405589D01*
X77165589Y-102259336D01*
X77280498Y-102087362D01*
X77359650Y-101896274D01*
X77400000Y-101693416D01*
X77400000Y-101486584D01*
X77359650Y-101283726D01*
X77280498Y-101092638D01*
X77165589Y-100920664D01*
X77019336Y-100774411D01*
X76847362Y-100659502D01*
X76656274Y-100580350D01*
X76453416Y-100540000D01*
X76246584Y-100540000D01*
X76043726Y-100580350D01*
X75852638Y-100659502D01*
X75680664Y-100774411D01*
X75534411Y-100920664D01*
X75419502Y-101092638D01*
X75340350Y-101283726D01*
X75300000Y-101486584D01*
X75030000Y-101486584D01*
X75030000Y-98946584D01*
X75300000Y-98946584D01*
X75300000Y-99153416D01*
X75340350Y-99356274D01*
X75419502Y-99547362D01*
X75534411Y-99719336D01*
X75680664Y-99865589D01*
X75852638Y-99980498D01*
X76043726Y-100059650D01*
X76246584Y-100100000D01*
X76453416Y-100100000D01*
X76656274Y-100059650D01*
X76847362Y-99980498D01*
X77019336Y-99865589D01*
X77165589Y-99719336D01*
X77280498Y-99547362D01*
X77359650Y-99356274D01*
X77400000Y-99153416D01*
X77400000Y-98946584D01*
X77359650Y-98743726D01*
X77280498Y-98552638D01*
X77165589Y-98380664D01*
X77019336Y-98234411D01*
X76847362Y-98119502D01*
X76656274Y-98040350D01*
X76453416Y-98000000D01*
X76246584Y-98000000D01*
X76043726Y-98040350D01*
X75852638Y-98119502D01*
X75680664Y-98234411D01*
X75534411Y-98380664D01*
X75419502Y-98552638D01*
X75340350Y-98743726D01*
X75300000Y-98946584D01*
X75030000Y-98946584D01*
X75030000Y-95543552D01*
X75451378Y-95964931D01*
X75419502Y-96012638D01*
X75340350Y-96203726D01*
X75300000Y-96406584D01*
X75300000Y-96613416D01*
X75340350Y-96816274D01*
X75419502Y-97007362D01*
X75534411Y-97179336D01*
X75680664Y-97325589D01*
X75852638Y-97440498D01*
X76043726Y-97519650D01*
X76246584Y-97560000D01*
X76453416Y-97560000D01*
X76656274Y-97519650D01*
X76847362Y-97440498D01*
X77019336Y-97325589D01*
X77165589Y-97179336D01*
X77280498Y-97007362D01*
X77359650Y-96816274D01*
X77400000Y-96613416D01*
X77400000Y-96406584D01*
X77359650Y-96203726D01*
X77280498Y-96012638D01*
X77165589Y-95840664D01*
X77019336Y-95694411D01*
X76847362Y-95579502D01*
X76656274Y-95500350D01*
X76453416Y-95460000D01*
X76246584Y-95460000D01*
X76043726Y-95500350D01*
X75852638Y-95579502D01*
X75804931Y-95611378D01*
X75230010Y-95036458D01*
X75230010Y-93866584D01*
X75300000Y-93866584D01*
X75300000Y-94073416D01*
X75340350Y-94276274D01*
X75419502Y-94467362D01*
X75534411Y-94639336D01*
X75680664Y-94785589D01*
X75852638Y-94900498D01*
X76043726Y-94979650D01*
X76246584Y-95020000D01*
X76453416Y-95020000D01*
X76656274Y-94979650D01*
X76847362Y-94900498D01*
X77019336Y-94785589D01*
X77165589Y-94639336D01*
X77280498Y-94467362D01*
X77359650Y-94276274D01*
X77400000Y-94073416D01*
X77400000Y-93866584D01*
X77359650Y-93663726D01*
X77280498Y-93472638D01*
X77165589Y-93300664D01*
X77019336Y-93154411D01*
X76847362Y-93039502D01*
X76656274Y-92960350D01*
X76453416Y-92920000D01*
X76246584Y-92920000D01*
X76043726Y-92960350D01*
X75852638Y-93039502D01*
X75680664Y-93154411D01*
X75534411Y-93300664D01*
X75419502Y-93472638D01*
X75340350Y-93663726D01*
X75300000Y-93866584D01*
X75230010Y-93866584D01*
X75230010Y-91326584D01*
X75300000Y-91326584D01*
X75300000Y-91533416D01*
X75340350Y-91736274D01*
X75419502Y-91927362D01*
X75534411Y-92099336D01*
X75680664Y-92245589D01*
X75852638Y-92360498D01*
X76043726Y-92439650D01*
X76246584Y-92480000D01*
X76453416Y-92480000D01*
X76656274Y-92439650D01*
X76847362Y-92360498D01*
X77019336Y-92245589D01*
X77165589Y-92099336D01*
X77280498Y-91927362D01*
X77359650Y-91736274D01*
X77400000Y-91533416D01*
X77400000Y-91326584D01*
X77359650Y-91123726D01*
X77280498Y-90932638D01*
X77165589Y-90760664D01*
X77019336Y-90614411D01*
X76847362Y-90499502D01*
X76656274Y-90420350D01*
X76453416Y-90380000D01*
X76246584Y-90380000D01*
X76043726Y-90420350D01*
X75852638Y-90499502D01*
X75680664Y-90614411D01*
X75534411Y-90760664D01*
X75419502Y-90932638D01*
X75340350Y-91123726D01*
X75300000Y-91326584D01*
X75230010Y-91326584D01*
X75230010Y-88786584D01*
X75300000Y-88786584D01*
X75300000Y-88993416D01*
X75340350Y-89196274D01*
X75419502Y-89387362D01*
X75534411Y-89559336D01*
X75680664Y-89705589D01*
X75852638Y-89820498D01*
X76043726Y-89899650D01*
X76246584Y-89940000D01*
X76453416Y-89940000D01*
X76656274Y-89899650D01*
X76847362Y-89820498D01*
X77019336Y-89705589D01*
X77165589Y-89559336D01*
X77280498Y-89387362D01*
X77359650Y-89196274D01*
X77400000Y-88993416D01*
X77400000Y-88786584D01*
X77359650Y-88583726D01*
X77280498Y-88392638D01*
X77165589Y-88220664D01*
X77019336Y-88074411D01*
X76847362Y-87959502D01*
X76656274Y-87880350D01*
X76453416Y-87840000D01*
X76246584Y-87840000D01*
X76043726Y-87880350D01*
X75852638Y-87959502D01*
X75680664Y-88074411D01*
X75534411Y-88220664D01*
X75419502Y-88392638D01*
X75340350Y-88583726D01*
X75300000Y-88786584D01*
X75230010Y-88786584D01*
X75230010Y-87537285D01*
X75231219Y-87525010D01*
X75226392Y-87476001D01*
X75212097Y-87428876D01*
X75207845Y-87420921D01*
X75188883Y-87385446D01*
X75157642Y-87347378D01*
X75148101Y-87339548D01*
X74055137Y-86246584D01*
X75300000Y-86246584D01*
X75300000Y-86453416D01*
X75340350Y-86656274D01*
X75419502Y-86847362D01*
X75534411Y-87019336D01*
X75680664Y-87165589D01*
X75852638Y-87280498D01*
X76043726Y-87359650D01*
X76246584Y-87400000D01*
X76453416Y-87400000D01*
X76656274Y-87359650D01*
X76847362Y-87280498D01*
X77019336Y-87165589D01*
X77165589Y-87019336D01*
X77280498Y-86847362D01*
X77359650Y-86656274D01*
X77400000Y-86453416D01*
X77400000Y-86246584D01*
X77359650Y-86043726D01*
X77280498Y-85852638D01*
X77165589Y-85680664D01*
X77019336Y-85534411D01*
X76847362Y-85419502D01*
X76656274Y-85340350D01*
X76453416Y-85300000D01*
X76246584Y-85300000D01*
X76043726Y-85340350D01*
X75852638Y-85419502D01*
X75680664Y-85534411D01*
X75534411Y-85680664D01*
X75419502Y-85852638D01*
X75340350Y-86043726D01*
X75300000Y-86246584D01*
X74055137Y-86246584D01*
X74025091Y-86216539D01*
X74030000Y-86191859D01*
X74030000Y-86108141D01*
X74013667Y-86026032D01*
X73981630Y-85948687D01*
X73935119Y-85879079D01*
X73875921Y-85819881D01*
X73806313Y-85773370D01*
X73728968Y-85741333D01*
X73646859Y-85725000D01*
X73563141Y-85725000D01*
X73481032Y-85741333D01*
X73403687Y-85773370D01*
X73334079Y-85819881D01*
X73274881Y-85879079D01*
X73228370Y-85948687D01*
X73196333Y-86026032D01*
X73180000Y-86108141D01*
X68604999Y-86108141D01*
X68604999Y-83706584D01*
X75300000Y-83706584D01*
X75300000Y-83913416D01*
X75340350Y-84116274D01*
X75419502Y-84307362D01*
X75534411Y-84479336D01*
X75680664Y-84625589D01*
X75852638Y-84740498D01*
X76043726Y-84819650D01*
X76246584Y-84860000D01*
X76453416Y-84860000D01*
X76656274Y-84819650D01*
X76847362Y-84740498D01*
X77019336Y-84625589D01*
X77165589Y-84479336D01*
X77280498Y-84307362D01*
X77359650Y-84116274D01*
X77400000Y-83913416D01*
X77400000Y-83706584D01*
X77359650Y-83503726D01*
X77280498Y-83312638D01*
X77165589Y-83140664D01*
X77019336Y-82994411D01*
X76847362Y-82879502D01*
X76656274Y-82800350D01*
X76453416Y-82760000D01*
X76246584Y-82760000D01*
X76043726Y-82800350D01*
X75852638Y-82879502D01*
X75680664Y-82994411D01*
X75534411Y-83140664D01*
X75419502Y-83312638D01*
X75340350Y-83503726D01*
X75300000Y-83706584D01*
X68604999Y-83706584D01*
X68604999Y-83008141D01*
X70955000Y-83008141D01*
X70955000Y-83091859D01*
X70971333Y-83173968D01*
X71003370Y-83251313D01*
X71049881Y-83320921D01*
X71109079Y-83380119D01*
X71178687Y-83426630D01*
X71256032Y-83458667D01*
X71338141Y-83475000D01*
X71421859Y-83475000D01*
X71503968Y-83458667D01*
X71581313Y-83426630D01*
X71650921Y-83380119D01*
X71710119Y-83320921D01*
X71756630Y-83251313D01*
X71788667Y-83173968D01*
X71805000Y-83091859D01*
X71805000Y-83008141D01*
X71788667Y-82926032D01*
X71756630Y-82848687D01*
X71710119Y-82779079D01*
X71650921Y-82719881D01*
X71581313Y-82673370D01*
X71503968Y-82641333D01*
X71421859Y-82625000D01*
X71338141Y-82625000D01*
X71256032Y-82641333D01*
X71178687Y-82673370D01*
X71109079Y-82719881D01*
X71049881Y-82779079D01*
X71003370Y-82848687D01*
X70971333Y-82926032D01*
X70955000Y-83008141D01*
X68604999Y-83008141D01*
X68604999Y-82408141D01*
X72105000Y-82408141D01*
X72105000Y-82491859D01*
X72121333Y-82573968D01*
X72153370Y-82651313D01*
X72199881Y-82720921D01*
X72259079Y-82780119D01*
X72328687Y-82826630D01*
X72406032Y-82858667D01*
X72488141Y-82875000D01*
X72571859Y-82875000D01*
X72653968Y-82858667D01*
X72731313Y-82826630D01*
X72800921Y-82780119D01*
X72860119Y-82720921D01*
X72906630Y-82651313D01*
X72938667Y-82573968D01*
X72955000Y-82491859D01*
X72955000Y-82408141D01*
X72938667Y-82326032D01*
X72906630Y-82248687D01*
X72860119Y-82179079D01*
X72800921Y-82119881D01*
X72731313Y-82073370D01*
X72653968Y-82041333D01*
X72571859Y-82025000D01*
X72488141Y-82025000D01*
X72406032Y-82041333D01*
X72328687Y-82073370D01*
X72259079Y-82119881D01*
X72199881Y-82179079D01*
X72153370Y-82248687D01*
X72121333Y-82326032D01*
X72105000Y-82408141D01*
X68604999Y-82408141D01*
X68604999Y-81166584D01*
X75300000Y-81166584D01*
X75300000Y-81373416D01*
X75340350Y-81576274D01*
X75419502Y-81767362D01*
X75534411Y-81939336D01*
X75680664Y-82085589D01*
X75852638Y-82200498D01*
X76043726Y-82279650D01*
X76246584Y-82320000D01*
X76453416Y-82320000D01*
X76656274Y-82279650D01*
X76847362Y-82200498D01*
X77019336Y-82085589D01*
X77165589Y-81939336D01*
X77280498Y-81767362D01*
X77359650Y-81576274D01*
X77400000Y-81373416D01*
X77400000Y-81166584D01*
X77359650Y-80963726D01*
X77280498Y-80772638D01*
X77165589Y-80600664D01*
X77019336Y-80454411D01*
X76847362Y-80339502D01*
X76656274Y-80260350D01*
X76453416Y-80220000D01*
X76246584Y-80220000D01*
X76043726Y-80260350D01*
X75852638Y-80339502D01*
X75680664Y-80454411D01*
X75534411Y-80600664D01*
X75419502Y-80772638D01*
X75340350Y-80963726D01*
X75300000Y-81166584D01*
X68604999Y-81166584D01*
X68604999Y-76733141D01*
X69555000Y-76733141D01*
X69555000Y-76816859D01*
X69571333Y-76898968D01*
X69603370Y-76976313D01*
X69649881Y-77045921D01*
X69709079Y-77105119D01*
X69778687Y-77151630D01*
X69856032Y-77183667D01*
X69938141Y-77200000D01*
X70021859Y-77200000D01*
X70046538Y-77195091D01*
X70519538Y-77668091D01*
X70527368Y-77677632D01*
X70565436Y-77708873D01*
X70586908Y-77720350D01*
X70608866Y-77732087D01*
X70655991Y-77746382D01*
X70705000Y-77751209D01*
X70717275Y-77750000D01*
X71826447Y-77750000D01*
X71086914Y-78489534D01*
X71077368Y-78497368D01*
X71046127Y-78535436D01*
X71022914Y-78578866D01*
X71022913Y-78578867D01*
X71008618Y-78625992D01*
X71003791Y-78675000D01*
X71005000Y-78687275D01*
X71005001Y-79030902D01*
X70984079Y-79044881D01*
X70924881Y-79104079D01*
X70878370Y-79173687D01*
X70846333Y-79251032D01*
X70830000Y-79333141D01*
X70830000Y-79416859D01*
X70846333Y-79498968D01*
X70878370Y-79576313D01*
X70924881Y-79645921D01*
X70984079Y-79705119D01*
X71053687Y-79751630D01*
X71131032Y-79783667D01*
X71213141Y-79800000D01*
X71296859Y-79800000D01*
X71378968Y-79783667D01*
X71456313Y-79751630D01*
X71525921Y-79705119D01*
X71585119Y-79645921D01*
X71631630Y-79576313D01*
X71663667Y-79498968D01*
X71680000Y-79416859D01*
X71680000Y-79333141D01*
X71663667Y-79251032D01*
X71631630Y-79173687D01*
X71585119Y-79104079D01*
X71525921Y-79044881D01*
X71505000Y-79030902D01*
X71505000Y-78778552D01*
X71506940Y-78776612D01*
X71521333Y-78848968D01*
X71553370Y-78926313D01*
X71599881Y-78995921D01*
X71659079Y-79055119D01*
X71728687Y-79101630D01*
X71806032Y-79133667D01*
X71888141Y-79150000D01*
X71971859Y-79150000D01*
X72053968Y-79133667D01*
X72131313Y-79101630D01*
X72200921Y-79055119D01*
X72260119Y-78995921D01*
X72306630Y-78926313D01*
X72338667Y-78848968D01*
X72355000Y-78766859D01*
X72355000Y-78683141D01*
X72343750Y-78626584D01*
X75300000Y-78626584D01*
X75300000Y-78833416D01*
X75340350Y-79036274D01*
X75419502Y-79227362D01*
X75534411Y-79399336D01*
X75680664Y-79545589D01*
X75852638Y-79660498D01*
X76043726Y-79739650D01*
X76246584Y-79780000D01*
X76453416Y-79780000D01*
X76656274Y-79739650D01*
X76847362Y-79660498D01*
X77019336Y-79545589D01*
X77165589Y-79399336D01*
X77280498Y-79227362D01*
X77359650Y-79036274D01*
X77400000Y-78833416D01*
X77400000Y-78626584D01*
X77359650Y-78423726D01*
X77280498Y-78232638D01*
X77165589Y-78060664D01*
X77019336Y-77914411D01*
X76847362Y-77799502D01*
X76656274Y-77720350D01*
X76453416Y-77680000D01*
X76246584Y-77680000D01*
X76043726Y-77720350D01*
X75852638Y-77799502D01*
X75680664Y-77914411D01*
X75534411Y-78060664D01*
X75419502Y-78232638D01*
X75340350Y-78423726D01*
X75300000Y-78626584D01*
X72343750Y-78626584D01*
X72338667Y-78601032D01*
X72306630Y-78523687D01*
X72260119Y-78454079D01*
X72200921Y-78394881D01*
X72131313Y-78348370D01*
X72053968Y-78316333D01*
X71981612Y-78301940D01*
X72233553Y-78050000D01*
X74727725Y-78050000D01*
X74740000Y-78051209D01*
X74789008Y-78046382D01*
X74836134Y-78032087D01*
X74879564Y-78008873D01*
X74917632Y-77977632D01*
X74925466Y-77968086D01*
X75804931Y-77088621D01*
X75852638Y-77120498D01*
X76043726Y-77199650D01*
X76246584Y-77240000D01*
X76453416Y-77240000D01*
X76656274Y-77199650D01*
X76847362Y-77120498D01*
X77019336Y-77005589D01*
X77165589Y-76859336D01*
X77280498Y-76687362D01*
X77359650Y-76496274D01*
X77400000Y-76293416D01*
X77400000Y-76086584D01*
X77359650Y-75883726D01*
X77280498Y-75692638D01*
X77165589Y-75520664D01*
X77019336Y-75374411D01*
X76847362Y-75259502D01*
X76656274Y-75180350D01*
X76453416Y-75140000D01*
X76246584Y-75140000D01*
X76180385Y-75153167D01*
X76518091Y-74815462D01*
X76527632Y-74807632D01*
X76558873Y-74769564D01*
X76582087Y-74726134D01*
X76582798Y-74723789D01*
X76596382Y-74679009D01*
X76597130Y-74671414D01*
X76656274Y-74659650D01*
X76847362Y-74580498D01*
X77019336Y-74465589D01*
X77165589Y-74319336D01*
X77280498Y-74147362D01*
X77359650Y-73956274D01*
X77400000Y-73753416D01*
X77400000Y-73546584D01*
X77359650Y-73343726D01*
X77280498Y-73152638D01*
X77165589Y-72980664D01*
X77019336Y-72834411D01*
X76847362Y-72719502D01*
X76656274Y-72640350D01*
X76453416Y-72600000D01*
X76246584Y-72600000D01*
X76043726Y-72640350D01*
X75852638Y-72719502D01*
X75680664Y-72834411D01*
X75580000Y-72935075D01*
X75580000Y-72233552D01*
X75804931Y-72008621D01*
X75852638Y-72040498D01*
X76043726Y-72119650D01*
X76246584Y-72160000D01*
X76453416Y-72160000D01*
X76656274Y-72119650D01*
X76847362Y-72040498D01*
X77019336Y-71925589D01*
X77165589Y-71779336D01*
X77280498Y-71607362D01*
X77359650Y-71416274D01*
X77400000Y-71213416D01*
X77400000Y-71006584D01*
X77359650Y-70803726D01*
X77280498Y-70612638D01*
X77165589Y-70440664D01*
X77019336Y-70294411D01*
X76847362Y-70179502D01*
X76656274Y-70100350D01*
X76453416Y-70060000D01*
X76246584Y-70060000D01*
X76043726Y-70100350D01*
X75852638Y-70179502D01*
X75680664Y-70294411D01*
X75534411Y-70440664D01*
X75419502Y-70612638D01*
X75380000Y-70708003D01*
X75380000Y-68971997D01*
X75419502Y-69067362D01*
X75534411Y-69239336D01*
X75680664Y-69385589D01*
X75852638Y-69500498D01*
X76043726Y-69579650D01*
X76246584Y-69620000D01*
X76453416Y-69620000D01*
X76656274Y-69579650D01*
X76847362Y-69500498D01*
X77019336Y-69385589D01*
X77165589Y-69239336D01*
X77280498Y-69067362D01*
X77359650Y-68876274D01*
X77400000Y-68673416D01*
X77400000Y-68466584D01*
X77359650Y-68263726D01*
X77280498Y-68072638D01*
X77165589Y-67900664D01*
X77019336Y-67754411D01*
X76847362Y-67639502D01*
X76656274Y-67560350D01*
X76453416Y-67520000D01*
X76246584Y-67520000D01*
X76043726Y-67560350D01*
X75852638Y-67639502D01*
X75680664Y-67754411D01*
X75534411Y-67900664D01*
X75419502Y-68072638D01*
X75380000Y-68168003D01*
X75380000Y-67353552D01*
X75804931Y-66928621D01*
X75852638Y-66960498D01*
X76043726Y-67039650D01*
X76246584Y-67080000D01*
X76453416Y-67080000D01*
X76656274Y-67039650D01*
X76847362Y-66960498D01*
X77019336Y-66845589D01*
X77165589Y-66699336D01*
X77280498Y-66527362D01*
X77359650Y-66336274D01*
X77400000Y-66133416D01*
X77400000Y-65926584D01*
X77359650Y-65723726D01*
X77280498Y-65532638D01*
X77165589Y-65360664D01*
X77019336Y-65214411D01*
X76847362Y-65099502D01*
X76656274Y-65020350D01*
X76453416Y-64980000D01*
X76246584Y-64980000D01*
X76043726Y-65020350D01*
X75852638Y-65099502D01*
X75680664Y-65214411D01*
X75534411Y-65360664D01*
X75419502Y-65532638D01*
X75340350Y-65723726D01*
X75300000Y-65926584D01*
X75300000Y-66133416D01*
X75340350Y-66336274D01*
X75419502Y-66527362D01*
X75451379Y-66575069D01*
X74961914Y-67064534D01*
X74952368Y-67072368D01*
X74921127Y-67110436D01*
X74897914Y-67153866D01*
X74897913Y-67153867D01*
X74883618Y-67200992D01*
X74878791Y-67250000D01*
X74880000Y-67262275D01*
X74880001Y-74196446D01*
X73521539Y-75554909D01*
X73496859Y-75550000D01*
X73413141Y-75550000D01*
X73331032Y-75566333D01*
X73253687Y-75598370D01*
X73184079Y-75644881D01*
X73124881Y-75704079D01*
X73078370Y-75773687D01*
X73046333Y-75851032D01*
X73030000Y-75933141D01*
X73030000Y-76016859D01*
X73046333Y-76098968D01*
X73078370Y-76176313D01*
X73124881Y-76245921D01*
X73184079Y-76305119D01*
X73253687Y-76351630D01*
X73331032Y-76383667D01*
X73413141Y-76400000D01*
X73496859Y-76400000D01*
X73565000Y-76386445D01*
X73396537Y-76554909D01*
X73371857Y-76550000D01*
X73288139Y-76550000D01*
X73206030Y-76566333D01*
X73128685Y-76598370D01*
X73059077Y-76644881D01*
X72999879Y-76704079D01*
X72953368Y-76773687D01*
X72921331Y-76851032D01*
X72904998Y-76933141D01*
X72904998Y-77016859D01*
X72921331Y-77098968D01*
X72953368Y-77176313D01*
X72999879Y-77245921D01*
X73003958Y-77250000D01*
X70808553Y-77250000D01*
X70400091Y-76841538D01*
X70405000Y-76816859D01*
X70405000Y-76733141D01*
X70388667Y-76651032D01*
X70356630Y-76573687D01*
X70310119Y-76504079D01*
X70250921Y-76444881D01*
X70181313Y-76398370D01*
X70103968Y-76366333D01*
X70021859Y-76350000D01*
X69938141Y-76350000D01*
X69856032Y-76366333D01*
X69778687Y-76398370D01*
X69709079Y-76444881D01*
X69649881Y-76504079D01*
X69603370Y-76573687D01*
X69571333Y-76651032D01*
X69555000Y-76733141D01*
X68604999Y-76733141D01*
X68604999Y-75928553D01*
X68713462Y-75820091D01*
X68738141Y-75825000D01*
X68821859Y-75825000D01*
X68903968Y-75808667D01*
X68981313Y-75776630D01*
X69050921Y-75730119D01*
X69110119Y-75670921D01*
X69156630Y-75601313D01*
X69188667Y-75523968D01*
X69205000Y-75441859D01*
X69205000Y-75408141D01*
X70330000Y-75408141D01*
X70330000Y-75491859D01*
X70346333Y-75573968D01*
X70378370Y-75651313D01*
X70424881Y-75720921D01*
X70484079Y-75780119D01*
X70553687Y-75826630D01*
X70631032Y-75858667D01*
X70713141Y-75875000D01*
X70796859Y-75875000D01*
X70878968Y-75858667D01*
X70956313Y-75826630D01*
X71025921Y-75780119D01*
X71085119Y-75720921D01*
X71131630Y-75651313D01*
X71163667Y-75573968D01*
X71180000Y-75491859D01*
X71180000Y-75408141D01*
X71163667Y-75326032D01*
X71131630Y-75248687D01*
X71085119Y-75179079D01*
X71025921Y-75119881D01*
X70956313Y-75073370D01*
X70878968Y-75041333D01*
X70796859Y-75025000D01*
X70713141Y-75025000D01*
X70631032Y-75041333D01*
X70553687Y-75073370D01*
X70484079Y-75119881D01*
X70424881Y-75179079D01*
X70378370Y-75248687D01*
X70346333Y-75326032D01*
X70330000Y-75408141D01*
X69205000Y-75408141D01*
X69205000Y-75358141D01*
X69188667Y-75276032D01*
X69156630Y-75198687D01*
X69110119Y-75129079D01*
X69050921Y-75069881D01*
X69030000Y-75055902D01*
X69030000Y-74508141D01*
X70705000Y-74508141D01*
X70705000Y-74591859D01*
X70721333Y-74673968D01*
X70753370Y-74751313D01*
X70799881Y-74820921D01*
X70859079Y-74880119D01*
X70928687Y-74926630D01*
X71006032Y-74958667D01*
X71088141Y-74975000D01*
X71171859Y-74975000D01*
X71253968Y-74958667D01*
X71331313Y-74926630D01*
X71400921Y-74880119D01*
X71460119Y-74820921D01*
X71506630Y-74751313D01*
X71538667Y-74673968D01*
X71555000Y-74591859D01*
X71555000Y-74508141D01*
X71538667Y-74426032D01*
X71506630Y-74348687D01*
X71460119Y-74279079D01*
X71400921Y-74219881D01*
X71331313Y-74173370D01*
X71253968Y-74141333D01*
X71171859Y-74125000D01*
X71088141Y-74125000D01*
X71006032Y-74141333D01*
X70928687Y-74173370D01*
X70859079Y-74219881D01*
X70799881Y-74279079D01*
X70753370Y-74348687D01*
X70721333Y-74426032D01*
X70705000Y-74508141D01*
X69030000Y-74508141D01*
X69030000Y-73608141D01*
X70705000Y-73608141D01*
X70705000Y-73691859D01*
X70721333Y-73773968D01*
X70753370Y-73851313D01*
X70799881Y-73920921D01*
X70859079Y-73980119D01*
X70928687Y-74026630D01*
X71006032Y-74058667D01*
X71088141Y-74075000D01*
X71171859Y-74075000D01*
X71253968Y-74058667D01*
X71331313Y-74026630D01*
X71400921Y-73980119D01*
X71460119Y-73920921D01*
X71506630Y-73851313D01*
X71538667Y-73773968D01*
X71555000Y-73691859D01*
X71555000Y-73608141D01*
X71538667Y-73526032D01*
X71506630Y-73448687D01*
X71460119Y-73379079D01*
X71400921Y-73319881D01*
X71331313Y-73273370D01*
X71253968Y-73241333D01*
X71171859Y-73225000D01*
X71088141Y-73225000D01*
X71006032Y-73241333D01*
X70928687Y-73273370D01*
X70859079Y-73319881D01*
X70799881Y-73379079D01*
X70753370Y-73448687D01*
X70721333Y-73526032D01*
X70705000Y-73608141D01*
X69030000Y-73608141D01*
X69030000Y-69686410D01*
X71058269Y-67658141D01*
X73355000Y-67658141D01*
X73355000Y-67741859D01*
X73371333Y-67823968D01*
X73403370Y-67901313D01*
X73449881Y-67970921D01*
X73509079Y-68030119D01*
X73578687Y-68076630D01*
X73656032Y-68108667D01*
X73738141Y-68125000D01*
X73821859Y-68125000D01*
X73903968Y-68108667D01*
X73981313Y-68076630D01*
X74050921Y-68030119D01*
X74110119Y-67970921D01*
X74156630Y-67901313D01*
X74188667Y-67823968D01*
X74205000Y-67741859D01*
X74205000Y-67658141D01*
X74188667Y-67576032D01*
X74163650Y-67515636D01*
X74206630Y-67451313D01*
X74238667Y-67373968D01*
X74255000Y-67291859D01*
X74255000Y-67208141D01*
X74238667Y-67126032D01*
X74206630Y-67048687D01*
X74160119Y-66979079D01*
X74100921Y-66919881D01*
X74031313Y-66873370D01*
X73953968Y-66841333D01*
X73871859Y-66825000D01*
X73788141Y-66825000D01*
X73706032Y-66841333D01*
X73628687Y-66873370D01*
X73559079Y-66919881D01*
X73499881Y-66979079D01*
X73453370Y-67048687D01*
X73421333Y-67126032D01*
X73405000Y-67208141D01*
X73405000Y-67291859D01*
X73421333Y-67373968D01*
X73446350Y-67434364D01*
X73403370Y-67498687D01*
X73371333Y-67576032D01*
X73355000Y-67658141D01*
X71058269Y-67658141D01*
X73416412Y-65300000D01*
X74071295Y-65300000D01*
X74083570Y-65301209D01*
X74132578Y-65296382D01*
X74133399Y-65296133D01*
X74179704Y-65282087D01*
X74223134Y-65258873D01*
X74261202Y-65227632D01*
X74269036Y-65218086D01*
X75451650Y-64035474D01*
X75534411Y-64159336D01*
X75680664Y-64305589D01*
X75852638Y-64420498D01*
X76043726Y-64499650D01*
X76246584Y-64540000D01*
X76453416Y-64540000D01*
X76656274Y-64499650D01*
X76847362Y-64420498D01*
X77019336Y-64305589D01*
X77165589Y-64159336D01*
X77280498Y-63987362D01*
X77359650Y-63796274D01*
X77400000Y-63593416D01*
X77400000Y-63386584D01*
X77359650Y-63183726D01*
X77280498Y-62992638D01*
X77165589Y-62820664D01*
X77019336Y-62674411D01*
X76847362Y-62559502D01*
X76656274Y-62480350D01*
X76453416Y-62440000D01*
X76246584Y-62440000D01*
X76043726Y-62480350D01*
X75852638Y-62559502D01*
X75680664Y-62674411D01*
X75599999Y-62755076D01*
X75599999Y-61684924D01*
X75680664Y-61765589D01*
X75852638Y-61880498D01*
X76043726Y-61959650D01*
X76246584Y-62000000D01*
X76453416Y-62000000D01*
X76656274Y-61959650D01*
X76847362Y-61880498D01*
X77019336Y-61765589D01*
X77165589Y-61619336D01*
X77280498Y-61447362D01*
X77359650Y-61256274D01*
X77400000Y-61053416D01*
X77400000Y-60846584D01*
X77359650Y-60643726D01*
X77280498Y-60452638D01*
X77165589Y-60280664D01*
X77019336Y-60134411D01*
X76847362Y-60019502D01*
X76656274Y-59940350D01*
X76453416Y-59900000D01*
X76246584Y-59900000D01*
X76043726Y-59940350D01*
X75852638Y-60019502D01*
X75680664Y-60134411D01*
X75599999Y-60215076D01*
X75599999Y-59513553D01*
X75804931Y-59308621D01*
X75852638Y-59340498D01*
X76043726Y-59419650D01*
X76246584Y-59460000D01*
X76453416Y-59460000D01*
X76656274Y-59419650D01*
X76847362Y-59340498D01*
X77019336Y-59225589D01*
X77165589Y-59079336D01*
X77280498Y-58907362D01*
X77359650Y-58716274D01*
X77400000Y-58513416D01*
X77400000Y-58306584D01*
X77359650Y-58103726D01*
X77280498Y-57912638D01*
X77165589Y-57740664D01*
X77019336Y-57594411D01*
X76847362Y-57479502D01*
X76656274Y-57400350D01*
X76453416Y-57360000D01*
X76246584Y-57360000D01*
X76043726Y-57400350D01*
X75852638Y-57479502D01*
X75680664Y-57594411D01*
X75534411Y-57740664D01*
X75419502Y-57912638D01*
X75380000Y-58008003D01*
X75380000Y-57193552D01*
X75804931Y-56768621D01*
X75852638Y-56800498D01*
X76043726Y-56879650D01*
X76246584Y-56920000D01*
X76453416Y-56920000D01*
X76656274Y-56879650D01*
X76847362Y-56800498D01*
X77019336Y-56685589D01*
X77165589Y-56539336D01*
X77280498Y-56367362D01*
X77359650Y-56176274D01*
X77400000Y-55973416D01*
X77400000Y-55766584D01*
X77359650Y-55563726D01*
X77280498Y-55372638D01*
X77165589Y-55200664D01*
X77019336Y-55054411D01*
X76847362Y-54939502D01*
X76656274Y-54860350D01*
X76453416Y-54820000D01*
X76246584Y-54820000D01*
X76043726Y-54860350D01*
X75852638Y-54939502D01*
X75680664Y-55054411D01*
X75534411Y-55200664D01*
X75419502Y-55372638D01*
X75340350Y-55563726D01*
X75300000Y-55766584D01*
X75300000Y-55973416D01*
X75340350Y-56176274D01*
X75419502Y-56367362D01*
X75451379Y-56415069D01*
X75179990Y-56686458D01*
X75179990Y-54853562D01*
X75804931Y-54228622D01*
X75852638Y-54260498D01*
X76043726Y-54339650D01*
X76246584Y-54380000D01*
X76453416Y-54380000D01*
X76656274Y-54339650D01*
X76847362Y-54260498D01*
X77019336Y-54145589D01*
X77165589Y-53999336D01*
X77280498Y-53827362D01*
X77359650Y-53636274D01*
X77400000Y-53433416D01*
X77400000Y-53226584D01*
X77359650Y-53023726D01*
X77280498Y-52832638D01*
X77165589Y-52660664D01*
X77019336Y-52514411D01*
X76847362Y-52399502D01*
X76656274Y-52320350D01*
X76453416Y-52280000D01*
X76246584Y-52280000D01*
X76043726Y-52320350D01*
X75852638Y-52399502D01*
X75680664Y-52514411D01*
X75534411Y-52660664D01*
X75419502Y-52832638D01*
X75340350Y-53023726D01*
X75300000Y-53226584D01*
X75300000Y-53433416D01*
X75340350Y-53636274D01*
X75419502Y-53827362D01*
X75451378Y-53875069D01*
X74979980Y-54346468D01*
X74979980Y-52513572D01*
X75804931Y-51688622D01*
X75852638Y-51720498D01*
X76043726Y-51799650D01*
X76246584Y-51840000D01*
X76453416Y-51840000D01*
X76656274Y-51799650D01*
X76847362Y-51720498D01*
X77019336Y-51605589D01*
X77165589Y-51459336D01*
X77280498Y-51287362D01*
X77359650Y-51096274D01*
X77400000Y-50893416D01*
X77400000Y-50686584D01*
X77359650Y-50483726D01*
X77280498Y-50292638D01*
X77165589Y-50120664D01*
X77019336Y-49974411D01*
X76847362Y-49859502D01*
X76656274Y-49780350D01*
X76453416Y-49740000D01*
X76246584Y-49740000D01*
X76043726Y-49780350D01*
X75852638Y-49859502D01*
X75680664Y-49974411D01*
X75534411Y-50120664D01*
X75419502Y-50292638D01*
X75340350Y-50483726D01*
X75300000Y-50686584D01*
X75300000Y-50893416D01*
X75340350Y-51096274D01*
X75419502Y-51287362D01*
X75451378Y-51335069D01*
X74561894Y-52224554D01*
X74552348Y-52232388D01*
X74521107Y-52270456D01*
X74516006Y-52280000D01*
X74497893Y-52313887D01*
X74483598Y-52361012D01*
X74478771Y-52410020D01*
X74479980Y-52422295D01*
X74479981Y-63451468D01*
X74164284Y-63767165D01*
X74163650Y-63765636D01*
X74206630Y-63701313D01*
X74238667Y-63623968D01*
X74255000Y-63541859D01*
X74255000Y-63458141D01*
X74238667Y-63376032D01*
X74206630Y-63298687D01*
X74160119Y-63229079D01*
X74100921Y-63169881D01*
X74031313Y-63123370D01*
X73953968Y-63091333D01*
X73871859Y-63075000D01*
X73788141Y-63075000D01*
X73706032Y-63091333D01*
X73628687Y-63123370D01*
X73559079Y-63169881D01*
X73499881Y-63229079D01*
X73453370Y-63298687D01*
X73421333Y-63376032D01*
X73405000Y-63458141D01*
X73405000Y-63541859D01*
X73421333Y-63623968D01*
X73446350Y-63684364D01*
X73403370Y-63748687D01*
X73371333Y-63826032D01*
X73355000Y-63908141D01*
X73355000Y-63991859D01*
X73371333Y-64073968D01*
X73403370Y-64151313D01*
X73420868Y-64177501D01*
X73014774Y-64177501D01*
X73002499Y-64176292D01*
X72953490Y-64181119D01*
X72906365Y-64195414D01*
X72862935Y-64218628D01*
X72824867Y-64249869D01*
X72817037Y-64259410D01*
X66080000Y-70996448D01*
X66080000Y-65903552D01*
X66533554Y-65450000D01*
X69955000Y-65450000D01*
X69955000Y-65491859D01*
X69971333Y-65573968D01*
X70003370Y-65651313D01*
X70049881Y-65720921D01*
X70109079Y-65780119D01*
X70178687Y-65826630D01*
X70256032Y-65858667D01*
X70338141Y-65875000D01*
X70421859Y-65875000D01*
X70503968Y-65858667D01*
X70581313Y-65826630D01*
X70650921Y-65780119D01*
X70710119Y-65720921D01*
X70756630Y-65651313D01*
X70788667Y-65573968D01*
X70805000Y-65491859D01*
X70805000Y-65408141D01*
X70788667Y-65326032D01*
X70756630Y-65248687D01*
X70710119Y-65179079D01*
X70650921Y-65119881D01*
X70630000Y-65105902D01*
X70630000Y-62044098D01*
X70650921Y-62030119D01*
X70710119Y-61970921D01*
X70756630Y-61901313D01*
X70788667Y-61823968D01*
X70805000Y-61741859D01*
X70805000Y-61658141D01*
X70788667Y-61576032D01*
X70756630Y-61498687D01*
X70710119Y-61429079D01*
X70650921Y-61369881D01*
X70581313Y-61323370D01*
X70503968Y-61291333D01*
X70421859Y-61275000D01*
X70338141Y-61275000D01*
X70256032Y-61291333D01*
X70178687Y-61323370D01*
X70109079Y-61369881D01*
X70049881Y-61429079D01*
X70003370Y-61498687D01*
X69971333Y-61576032D01*
X69955000Y-61658141D01*
X69955000Y-61741859D01*
X69971333Y-61823968D01*
X70003370Y-61901313D01*
X70049881Y-61970921D01*
X70109079Y-62030119D01*
X70130001Y-62044099D01*
X70130000Y-64948791D01*
X70117725Y-64950000D01*
X66442274Y-64950000D01*
X66429999Y-64948791D01*
X66380991Y-64953618D01*
X66336596Y-64967085D01*
X66333866Y-64967913D01*
X66290436Y-64991127D01*
X66252368Y-65022368D01*
X66244543Y-65031903D01*
X65830000Y-65446447D01*
X64780000Y-64396448D01*
X64780000Y-62297884D01*
X64806032Y-62308667D01*
X64888141Y-62325000D01*
X64971859Y-62325000D01*
X65053968Y-62308667D01*
X65131313Y-62276630D01*
X65200921Y-62230119D01*
X65260119Y-62170921D01*
X65306630Y-62101313D01*
X65338667Y-62023968D01*
X65340353Y-62015494D01*
X65388141Y-62025000D01*
X65471859Y-62025000D01*
X65553968Y-62008667D01*
X65631313Y-61976630D01*
X65700921Y-61930119D01*
X65760119Y-61870921D01*
X65806630Y-61801313D01*
X65838667Y-61723968D01*
X65855000Y-61641859D01*
X65855000Y-61558141D01*
X65838667Y-61476032D01*
X65806630Y-61398687D01*
X65760119Y-61329079D01*
X65700921Y-61269881D01*
X65631313Y-61223370D01*
X65553968Y-61191333D01*
X65471859Y-61175000D01*
X65388141Y-61175000D01*
X65306032Y-61191333D01*
X65228687Y-61223370D01*
X65159079Y-61269881D01*
X65099881Y-61329079D01*
X65053370Y-61398687D01*
X65021333Y-61476032D01*
X65019647Y-61484506D01*
X64971859Y-61475000D01*
X64888141Y-61475000D01*
X64806032Y-61491333D01*
X64780000Y-61502116D01*
X64780000Y-58762275D01*
X64781209Y-58750000D01*
X64776382Y-58700991D01*
X64762087Y-58653866D01*
X64738872Y-58610435D01*
X64733481Y-58603866D01*
X64707632Y-58572368D01*
X64698091Y-58564538D01*
X64665461Y-58531908D01*
X64665456Y-58531902D01*
X63830000Y-57696448D01*
X63830000Y-56958141D01*
X66305000Y-56958141D01*
X66305000Y-57041859D01*
X66321333Y-57123968D01*
X66353370Y-57201313D01*
X66385902Y-57250000D01*
X66353370Y-57298687D01*
X66321333Y-57376032D01*
X66305000Y-57458141D01*
X66305000Y-57541859D01*
X66321333Y-57623968D01*
X66353370Y-57701313D01*
X66399881Y-57770921D01*
X66459079Y-57830119D01*
X66528687Y-57876630D01*
X66606032Y-57908667D01*
X66688141Y-57925000D01*
X66771859Y-57925000D01*
X66853968Y-57908667D01*
X66931313Y-57876630D01*
X67000921Y-57830119D01*
X67060119Y-57770921D01*
X67106630Y-57701313D01*
X67138667Y-57623968D01*
X67155000Y-57541859D01*
X67155000Y-57458141D01*
X67138667Y-57376032D01*
X67131257Y-57358141D01*
X73355000Y-57358141D01*
X73355000Y-57441859D01*
X73371333Y-57523968D01*
X73403370Y-57601313D01*
X73449881Y-57670921D01*
X73509079Y-57730119D01*
X73578687Y-57776630D01*
X73656032Y-57808667D01*
X73738141Y-57825000D01*
X73821859Y-57825000D01*
X73903968Y-57808667D01*
X73981313Y-57776630D01*
X74050921Y-57730119D01*
X74110119Y-57670921D01*
X74156630Y-57601313D01*
X74188667Y-57523968D01*
X74205000Y-57441859D01*
X74205000Y-57358141D01*
X74188667Y-57276032D01*
X74163650Y-57215636D01*
X74206630Y-57151313D01*
X74238667Y-57073968D01*
X74255000Y-56991859D01*
X74255000Y-56908141D01*
X74238667Y-56826032D01*
X74206630Y-56748687D01*
X74160119Y-56679079D01*
X74100921Y-56619881D01*
X74031313Y-56573370D01*
X73953968Y-56541333D01*
X73871859Y-56525000D01*
X73788141Y-56525000D01*
X73706032Y-56541333D01*
X73628687Y-56573370D01*
X73559079Y-56619881D01*
X73499881Y-56679079D01*
X73453370Y-56748687D01*
X73421333Y-56826032D01*
X73405000Y-56908141D01*
X73405000Y-56991859D01*
X73421333Y-57073968D01*
X73446350Y-57134364D01*
X73403370Y-57198687D01*
X73371333Y-57276032D01*
X73355000Y-57358141D01*
X67131257Y-57358141D01*
X67106630Y-57298687D01*
X67074098Y-57250000D01*
X67106630Y-57201313D01*
X67138667Y-57123968D01*
X67155000Y-57041859D01*
X67155000Y-56958141D01*
X67138667Y-56876032D01*
X67106630Y-56798687D01*
X67060119Y-56729079D01*
X67000921Y-56669881D01*
X66931313Y-56623370D01*
X66853968Y-56591333D01*
X66771859Y-56575000D01*
X66688141Y-56575000D01*
X66606032Y-56591333D01*
X66528687Y-56623370D01*
X66459079Y-56669881D01*
X66399881Y-56729079D01*
X66353370Y-56798687D01*
X66321333Y-56876032D01*
X66305000Y-56958141D01*
X63830000Y-56958141D01*
X63830000Y-55812272D01*
X63831209Y-55799999D01*
X63828635Y-55773867D01*
X63826382Y-55750992D01*
X63812087Y-55703866D01*
X63788873Y-55660436D01*
X63757632Y-55622368D01*
X63748097Y-55614543D01*
X63291695Y-55158141D01*
X71705000Y-55158141D01*
X71705000Y-55241859D01*
X71721333Y-55323968D01*
X71753370Y-55401313D01*
X71799881Y-55470921D01*
X71859079Y-55530119D01*
X71928687Y-55576630D01*
X72006032Y-55608667D01*
X72088141Y-55625000D01*
X72171859Y-55625000D01*
X72253968Y-55608667D01*
X72331313Y-55576630D01*
X72400921Y-55530119D01*
X72460119Y-55470921D01*
X72506630Y-55401313D01*
X72538667Y-55323968D01*
X72555000Y-55241859D01*
X72555000Y-55158141D01*
X72538667Y-55076032D01*
X72506630Y-54998687D01*
X72460119Y-54929079D01*
X72400921Y-54869881D01*
X72331313Y-54823370D01*
X72253968Y-54791333D01*
X72171859Y-54775000D01*
X72088141Y-54775000D01*
X72006032Y-54791333D01*
X71928687Y-54823370D01*
X71859079Y-54869881D01*
X71799881Y-54929079D01*
X71753370Y-54998687D01*
X71721333Y-55076032D01*
X71705000Y-55158141D01*
X63291695Y-55158141D01*
X62008621Y-53875069D01*
X62040498Y-53827362D01*
X62119650Y-53636274D01*
X62155082Y-53458141D01*
X64555000Y-53458141D01*
X64555000Y-53541859D01*
X64571333Y-53623968D01*
X64603370Y-53701313D01*
X64649881Y-53770921D01*
X64709079Y-53830119D01*
X64778687Y-53876630D01*
X64856032Y-53908667D01*
X64938141Y-53925000D01*
X65021859Y-53925000D01*
X65103968Y-53908667D01*
X65181313Y-53876630D01*
X65250921Y-53830119D01*
X65310119Y-53770921D01*
X65356630Y-53701313D01*
X65372904Y-53662023D01*
X65438141Y-53675000D01*
X65521859Y-53675000D01*
X65603968Y-53658667D01*
X65681313Y-53626630D01*
X65708983Y-53608141D01*
X73355000Y-53608141D01*
X73355000Y-53691859D01*
X73371333Y-53773968D01*
X73403370Y-53851313D01*
X73449881Y-53920921D01*
X73509079Y-53980119D01*
X73578687Y-54026630D01*
X73656032Y-54058667D01*
X73738141Y-54075000D01*
X73821859Y-54075000D01*
X73903968Y-54058667D01*
X73981313Y-54026630D01*
X74050921Y-53980119D01*
X74110119Y-53920921D01*
X74156630Y-53851313D01*
X74188667Y-53773968D01*
X74205000Y-53691859D01*
X74205000Y-53608141D01*
X74188667Y-53526032D01*
X74163650Y-53465636D01*
X74206630Y-53401313D01*
X74238667Y-53323968D01*
X74255000Y-53241859D01*
X74255000Y-53158141D01*
X74238667Y-53076032D01*
X74206630Y-52998687D01*
X74160119Y-52929079D01*
X74100921Y-52869881D01*
X74031313Y-52823370D01*
X73953968Y-52791333D01*
X73871859Y-52775000D01*
X73788141Y-52775000D01*
X73706032Y-52791333D01*
X73628687Y-52823370D01*
X73559079Y-52869881D01*
X73499881Y-52929079D01*
X73453370Y-52998687D01*
X73421333Y-53076032D01*
X73405000Y-53158141D01*
X73405000Y-53241859D01*
X73421333Y-53323968D01*
X73446350Y-53384364D01*
X73403370Y-53448687D01*
X73371333Y-53526032D01*
X73355000Y-53608141D01*
X65708983Y-53608141D01*
X65750921Y-53580119D01*
X65810119Y-53520921D01*
X65856630Y-53451313D01*
X65888667Y-53373968D01*
X65905000Y-53291859D01*
X65905000Y-53208141D01*
X65888667Y-53126032D01*
X65856630Y-53048687D01*
X65810119Y-52979079D01*
X65750921Y-52919881D01*
X65681313Y-52873370D01*
X65603968Y-52841333D01*
X65521859Y-52825000D01*
X65438141Y-52825000D01*
X65356032Y-52841333D01*
X65278687Y-52873370D01*
X65209079Y-52919881D01*
X65149881Y-52979079D01*
X65103370Y-53048687D01*
X65087096Y-53087977D01*
X65021859Y-53075000D01*
X64938141Y-53075000D01*
X64856032Y-53091333D01*
X64778687Y-53123370D01*
X64709079Y-53169881D01*
X64649881Y-53229079D01*
X64603370Y-53298687D01*
X64571333Y-53376032D01*
X64555000Y-53458141D01*
X62155082Y-53458141D01*
X62160000Y-53433416D01*
X62160000Y-53226584D01*
X62119650Y-53023726D01*
X62040498Y-52832638D01*
X61925589Y-52660664D01*
X61779336Y-52514411D01*
X61607362Y-52399502D01*
X61416274Y-52320350D01*
X61213416Y-52280000D01*
X61006584Y-52280000D01*
X60803726Y-52320350D01*
X60612638Y-52399502D01*
X60440664Y-52514411D01*
X60294411Y-52660664D01*
X60179502Y-52832638D01*
X60100350Y-53023726D01*
X60060000Y-53226584D01*
X59255000Y-53226584D01*
X59255000Y-52158141D01*
X64505000Y-52158141D01*
X64505000Y-52241859D01*
X64521333Y-52323968D01*
X64553370Y-52401313D01*
X64599881Y-52470921D01*
X64659079Y-52530119D01*
X64728687Y-52576630D01*
X64806032Y-52608667D01*
X64888141Y-52625000D01*
X64971859Y-52625000D01*
X65053968Y-52608667D01*
X65131313Y-52576630D01*
X65200921Y-52530119D01*
X65260119Y-52470921D01*
X65306630Y-52401313D01*
X65338667Y-52323968D01*
X65340353Y-52315494D01*
X65388141Y-52325000D01*
X65471859Y-52325000D01*
X65553968Y-52308667D01*
X65631313Y-52276630D01*
X65700921Y-52230119D01*
X65760119Y-52170921D01*
X65806630Y-52101313D01*
X65838667Y-52023968D01*
X65855000Y-51941859D01*
X65855000Y-51858141D01*
X65838667Y-51776032D01*
X65806630Y-51698687D01*
X65760119Y-51629079D01*
X65700921Y-51569881D01*
X65631313Y-51523370D01*
X65553968Y-51491333D01*
X65471859Y-51475000D01*
X65388141Y-51475000D01*
X65306032Y-51491333D01*
X65228687Y-51523370D01*
X65159079Y-51569881D01*
X65099881Y-51629079D01*
X65053370Y-51698687D01*
X65021333Y-51776032D01*
X65019647Y-51784506D01*
X64971859Y-51775000D01*
X64888141Y-51775000D01*
X64806032Y-51791333D01*
X64728687Y-51823370D01*
X64659079Y-51869881D01*
X64599881Y-51929079D01*
X64553370Y-51998687D01*
X64521333Y-52076032D01*
X64505000Y-52158141D01*
X59255000Y-52158141D01*
X59255000Y-50686584D01*
X60060000Y-50686584D01*
X60060000Y-50893416D01*
X60100350Y-51096274D01*
X60179502Y-51287362D01*
X60294411Y-51459336D01*
X60440664Y-51605589D01*
X60612638Y-51720498D01*
X60803726Y-51799650D01*
X61006584Y-51840000D01*
X61213416Y-51840000D01*
X61416274Y-51799650D01*
X61607362Y-51720498D01*
X61779336Y-51605589D01*
X61925589Y-51459336D01*
X61926387Y-51458141D01*
X71705000Y-51458141D01*
X71705000Y-51541859D01*
X71721333Y-51623968D01*
X71753370Y-51701313D01*
X71799881Y-51770921D01*
X71859079Y-51830119D01*
X71928687Y-51876630D01*
X72006032Y-51908667D01*
X72088141Y-51925000D01*
X72171859Y-51925000D01*
X72253968Y-51908667D01*
X72331313Y-51876630D01*
X72400921Y-51830119D01*
X72460119Y-51770921D01*
X72506630Y-51701313D01*
X72538667Y-51623968D01*
X72555000Y-51541859D01*
X72555000Y-51458141D01*
X72538667Y-51376032D01*
X72506630Y-51298687D01*
X72460119Y-51229079D01*
X72400921Y-51169881D01*
X72331313Y-51123370D01*
X72253968Y-51091333D01*
X72171859Y-51075000D01*
X72088141Y-51075000D01*
X72006032Y-51091333D01*
X71928687Y-51123370D01*
X71859079Y-51169881D01*
X71799881Y-51229079D01*
X71753370Y-51298687D01*
X71721333Y-51376032D01*
X71705000Y-51458141D01*
X61926387Y-51458141D01*
X62040498Y-51287362D01*
X62119650Y-51096274D01*
X62160000Y-50893416D01*
X62160000Y-50686584D01*
X62119650Y-50483726D01*
X62040498Y-50292638D01*
X61925589Y-50120664D01*
X61779336Y-49974411D01*
X61607362Y-49859502D01*
X61416274Y-49780350D01*
X61213416Y-49740000D01*
X61006584Y-49740000D01*
X60803726Y-49780350D01*
X60612638Y-49859502D01*
X60440664Y-49974411D01*
X60294411Y-50120664D01*
X60179502Y-50292638D01*
X60100350Y-50483726D01*
X60060000Y-50686584D01*
X59255000Y-50686584D01*
X59255000Y-48146584D01*
X60060000Y-48146584D01*
X60060000Y-48353416D01*
X60100350Y-48556274D01*
X60179502Y-48747362D01*
X60294411Y-48919336D01*
X60440664Y-49065589D01*
X60612638Y-49180498D01*
X60803726Y-49259650D01*
X61006584Y-49300000D01*
X61213416Y-49300000D01*
X61416274Y-49259650D01*
X61607362Y-49180498D01*
X61779336Y-49065589D01*
X61925589Y-48919336D01*
X62040498Y-48747362D01*
X62089454Y-48629171D01*
X75260071Y-48629171D01*
X75311181Y-48752588D01*
X75429192Y-48945594D01*
X75582589Y-49111869D01*
X75765477Y-49245023D01*
X75970828Y-49339939D01*
X76146000Y-49309836D01*
X76146000Y-48454000D01*
X76554000Y-48454000D01*
X76554000Y-49309836D01*
X76729172Y-49339939D01*
X76934523Y-49245023D01*
X77117411Y-49111869D01*
X77270808Y-48945594D01*
X77388819Y-48752588D01*
X77439929Y-48629171D01*
X77408522Y-48454000D01*
X76554000Y-48454000D01*
X76146000Y-48454000D01*
X75291478Y-48454000D01*
X75260071Y-48629171D01*
X62089454Y-48629171D01*
X62119650Y-48556274D01*
X62160000Y-48353416D01*
X62160000Y-48146584D01*
X62119650Y-47943726D01*
X62089455Y-47870829D01*
X75260071Y-47870829D01*
X75291478Y-48046000D01*
X76146000Y-48046000D01*
X76146000Y-47190164D01*
X76554000Y-47190164D01*
X76554000Y-48046000D01*
X77408522Y-48046000D01*
X77439929Y-47870829D01*
X77388819Y-47747412D01*
X77270808Y-47554406D01*
X77117411Y-47388131D01*
X76934523Y-47254977D01*
X76729172Y-47160061D01*
X76554000Y-47190164D01*
X76146000Y-47190164D01*
X75970828Y-47160061D01*
X75765477Y-47254977D01*
X75582589Y-47388131D01*
X75429192Y-47554406D01*
X75311181Y-47747412D01*
X75260071Y-47870829D01*
X62089455Y-47870829D01*
X62040498Y-47752638D01*
X61925589Y-47580664D01*
X61779336Y-47434411D01*
X61607362Y-47319502D01*
X61416274Y-47240350D01*
X61213416Y-47200000D01*
X61006584Y-47200000D01*
X60803726Y-47240350D01*
X60612638Y-47319502D01*
X60440664Y-47434411D01*
X60294411Y-47580664D01*
X60179502Y-47752638D01*
X60100350Y-47943726D01*
X60060000Y-48146584D01*
X59255000Y-48146584D01*
X59255000Y-44860000D01*
X60059033Y-44860000D01*
X60059033Y-46560000D01*
X60062895Y-46599207D01*
X60074331Y-46636907D01*
X60092902Y-46671651D01*
X60117895Y-46702105D01*
X60148349Y-46727098D01*
X60183093Y-46745669D01*
X60220793Y-46757105D01*
X60260000Y-46760967D01*
X61960000Y-46760967D01*
X61999207Y-46757105D01*
X62036907Y-46745669D01*
X62071651Y-46727098D01*
X62102105Y-46702105D01*
X62127098Y-46671651D01*
X62145669Y-46636907D01*
X62157105Y-46599207D01*
X62160967Y-46560000D01*
X62160967Y-44860000D01*
X75299033Y-44860000D01*
X75299033Y-46560000D01*
X75302895Y-46599207D01*
X75314331Y-46636907D01*
X75332902Y-46671651D01*
X75357895Y-46702105D01*
X75388349Y-46727098D01*
X75423093Y-46745669D01*
X75460793Y-46757105D01*
X75500000Y-46760967D01*
X77200000Y-46760967D01*
X77239207Y-46757105D01*
X77276907Y-46745669D01*
X77311651Y-46727098D01*
X77342105Y-46702105D01*
X77367098Y-46671651D01*
X77385669Y-46636907D01*
X77397105Y-46599207D01*
X77400967Y-46560000D01*
X77400967Y-44860000D01*
X77397105Y-44820793D01*
X77385669Y-44783093D01*
X77367098Y-44748349D01*
X77342105Y-44717895D01*
X77311651Y-44692902D01*
X77276907Y-44674331D01*
X77239207Y-44662895D01*
X77200000Y-44659033D01*
X75500000Y-44659033D01*
X75460793Y-44662895D01*
X75423093Y-44674331D01*
X75388349Y-44692902D01*
X75357895Y-44717895D01*
X75332902Y-44748349D01*
X75314331Y-44783093D01*
X75302895Y-44820793D01*
X75299033Y-44860000D01*
X62160967Y-44860000D01*
X62157105Y-44820793D01*
X62145669Y-44783093D01*
X62127098Y-44748349D01*
X62102105Y-44717895D01*
X62071651Y-44692902D01*
X62036907Y-44674331D01*
X61999207Y-44662895D01*
X61960000Y-44659033D01*
X60260000Y-44659033D01*
X60220793Y-44662895D01*
X60183093Y-44674331D01*
X60148349Y-44692902D01*
X60117895Y-44717895D01*
X60092902Y-44748349D01*
X60074331Y-44783093D01*
X60062895Y-44820793D01*
X60059033Y-44860000D01*
X59255000Y-44860000D01*
X59255000Y-43855000D01*
X78205000Y-43855000D01*
X78205000Y-111065000D01*
G37*
%TD.AperFunction*%
X64321127Y-64639564D02*
X64352368Y-64677632D01*
X64361914Y-64685466D01*
X65580000Y-65903553D01*
X65580000Y-66102116D01*
X65553968Y-66091333D01*
X65471859Y-66075000D01*
X65388141Y-66075000D01*
X65306032Y-66091333D01*
X65228687Y-66123370D01*
X65159079Y-66169881D01*
X65099881Y-66229079D01*
X65053370Y-66298687D01*
X65037096Y-66337977D01*
X64971859Y-66325000D01*
X64888141Y-66325000D01*
X64806032Y-66341333D01*
X64728687Y-66373370D01*
X64659079Y-66419881D01*
X64599881Y-66479079D01*
X64553370Y-66548687D01*
X64521333Y-66626032D01*
X64505000Y-66708141D01*
X64505000Y-66791859D01*
X64521333Y-66873968D01*
X64553370Y-66951313D01*
X64599881Y-67020921D01*
X64659079Y-67080119D01*
X64728687Y-67126630D01*
X64806032Y-67158667D01*
X64888141Y-67175000D01*
X64971859Y-67175000D01*
X65053968Y-67158667D01*
X65131313Y-67126630D01*
X65200921Y-67080119D01*
X65260119Y-67020921D01*
X65306630Y-66951313D01*
X65322904Y-66912023D01*
X65388141Y-66925000D01*
X65471859Y-66925000D01*
X65553968Y-66908667D01*
X65580000Y-66897884D01*
X65580001Y-75226619D01*
X65506032Y-75241333D01*
X65428687Y-75273370D01*
X65359079Y-75319881D01*
X65299881Y-75379079D01*
X65253370Y-75448687D01*
X65221333Y-75526032D01*
X65205000Y-75608141D01*
X65205000Y-75691859D01*
X65221333Y-75773968D01*
X65253370Y-75851313D01*
X65299881Y-75920921D01*
X65359079Y-75980119D01*
X65428687Y-76026630D01*
X65506032Y-76058667D01*
X65588141Y-76075000D01*
X65671859Y-76075000D01*
X65753968Y-76058667D01*
X65830001Y-76027174D01*
X65830001Y-77437715D01*
X65828791Y-77450000D01*
X65833618Y-77499008D01*
X65847913Y-77546133D01*
X65852047Y-77553867D01*
X65871128Y-77589564D01*
X65902369Y-77627632D01*
X65911910Y-77635462D01*
X66109909Y-77833461D01*
X66105000Y-77858141D01*
X66105000Y-77941859D01*
X66121333Y-78023968D01*
X66153370Y-78101313D01*
X66199881Y-78170921D01*
X66259079Y-78230119D01*
X66328687Y-78276630D01*
X66406032Y-78308667D01*
X66488141Y-78325000D01*
X66571859Y-78325000D01*
X66596538Y-78320091D01*
X67280000Y-79003553D01*
X67280000Y-80548959D01*
X65755000Y-79023960D01*
X65755000Y-77070866D01*
X65757055Y-77049999D01*
X65755000Y-77029132D01*
X65755000Y-77029126D01*
X65748850Y-76966686D01*
X65724548Y-76886573D01*
X65685084Y-76812740D01*
X65631974Y-76748026D01*
X65615758Y-76734718D01*
X65500921Y-76619881D01*
X65483468Y-76608219D01*
X65467259Y-76594917D01*
X65448769Y-76585034D01*
X65431313Y-76573370D01*
X65411916Y-76565336D01*
X65393427Y-76555453D01*
X65373361Y-76549366D01*
X65353968Y-76541333D01*
X65333384Y-76537239D01*
X65313314Y-76531150D01*
X65292443Y-76529095D01*
X65271859Y-76525000D01*
X65250867Y-76525000D01*
X65230000Y-76522945D01*
X65209133Y-76525000D01*
X65188141Y-76525000D01*
X65167557Y-76529095D01*
X65146686Y-76531150D01*
X65126616Y-76537239D01*
X65106032Y-76541333D01*
X65086639Y-76549366D01*
X65066573Y-76555453D01*
X65048084Y-76565336D01*
X65028687Y-76573370D01*
X65011231Y-76585034D01*
X64992741Y-76594917D01*
X64976531Y-76608220D01*
X64959079Y-76619881D01*
X64944241Y-76634719D01*
X64928026Y-76648026D01*
X64914719Y-76664241D01*
X64899881Y-76679079D01*
X64888220Y-76696531D01*
X64874917Y-76712741D01*
X64865034Y-76731231D01*
X64853370Y-76748687D01*
X64845336Y-76768084D01*
X64835453Y-76786573D01*
X64829366Y-76806639D01*
X64821333Y-76826032D01*
X64817239Y-76846616D01*
X64811150Y-76866686D01*
X64809095Y-76887557D01*
X64805000Y-76908141D01*
X64805000Y-76929133D01*
X64802945Y-76950000D01*
X64805000Y-76970867D01*
X64805000Y-76991859D01*
X64809095Y-77012443D01*
X64811150Y-77033314D01*
X64817239Y-77053384D01*
X64821333Y-77073968D01*
X64829366Y-77093361D01*
X64835453Y-77113427D01*
X64845336Y-77131916D01*
X64853370Y-77151313D01*
X64865034Y-77168769D01*
X64874917Y-77187259D01*
X64888219Y-77203468D01*
X64899881Y-77220921D01*
X64905000Y-77226040D01*
X64905001Y-79179123D01*
X64902945Y-79200000D01*
X64911150Y-79283314D01*
X64935453Y-79363427D01*
X64974917Y-79437260D01*
X65028027Y-79501974D01*
X65044239Y-79515279D01*
X66705000Y-81176041D01*
X66705000Y-81333151D01*
X66688667Y-81251042D01*
X66656630Y-81173697D01*
X66610119Y-81104089D01*
X66550921Y-81044891D01*
X66481313Y-80998380D01*
X66403968Y-80966343D01*
X66321859Y-80950010D01*
X66238141Y-80950010D01*
X66156032Y-80966343D01*
X66078687Y-80998380D01*
X66009079Y-81044891D01*
X65949881Y-81104089D01*
X65903370Y-81173697D01*
X65871333Y-81251042D01*
X65855000Y-81333151D01*
X65855000Y-81416869D01*
X65871333Y-81498978D01*
X65903370Y-81576323D01*
X65949881Y-81645931D01*
X65978955Y-81675005D01*
X65974881Y-81679079D01*
X65928370Y-81748687D01*
X65896333Y-81826032D01*
X65880000Y-81908141D01*
X65880000Y-81991859D01*
X65896333Y-82073968D01*
X65928370Y-82151313D01*
X65974881Y-82220921D01*
X66034079Y-82280119D01*
X66055001Y-82294098D01*
X66055001Y-82521445D01*
X65495067Y-83081381D01*
X65460119Y-83029079D01*
X65400921Y-82969881D01*
X65331313Y-82923370D01*
X65253968Y-82891333D01*
X65171859Y-82875000D01*
X65088141Y-82875000D01*
X65006032Y-82891333D01*
X64928687Y-82923370D01*
X64859079Y-82969881D01*
X64799881Y-83029079D01*
X64753370Y-83098687D01*
X64721333Y-83176032D01*
X64705000Y-83258141D01*
X64705000Y-83341859D01*
X64721333Y-83423968D01*
X64753370Y-83501313D01*
X64799881Y-83570921D01*
X64859079Y-83630119D01*
X64928687Y-83676630D01*
X65006032Y-83708667D01*
X65088141Y-83725000D01*
X65171859Y-83725000D01*
X65253968Y-83708667D01*
X65331313Y-83676630D01*
X65380000Y-83644098D01*
X65380000Y-85096446D01*
X64304999Y-84021447D01*
X64304999Y-81758141D01*
X64605000Y-81758141D01*
X64605000Y-81841859D01*
X64621333Y-81923968D01*
X64653370Y-82001313D01*
X64699881Y-82070921D01*
X64759079Y-82130119D01*
X64828687Y-82176630D01*
X64906032Y-82208667D01*
X64988141Y-82225000D01*
X65071859Y-82225000D01*
X65153968Y-82208667D01*
X65231313Y-82176630D01*
X65300921Y-82130119D01*
X65360119Y-82070921D01*
X65406630Y-82001313D01*
X65438667Y-81923968D01*
X65455000Y-81841859D01*
X65455000Y-81758141D01*
X65438667Y-81676032D01*
X65406630Y-81598687D01*
X65360119Y-81529079D01*
X65300921Y-81469881D01*
X65231313Y-81423370D01*
X65153968Y-81391333D01*
X65071859Y-81375000D01*
X64988141Y-81375000D01*
X64906032Y-81391333D01*
X64828687Y-81423370D01*
X64759079Y-81469881D01*
X64699881Y-81529079D01*
X64653370Y-81598687D01*
X64621333Y-81676032D01*
X64605000Y-81758141D01*
X64304999Y-81758141D01*
X64304999Y-64609390D01*
X64321127Y-64639564D01*
%TA.AperFunction,Conductor*%
G36*
X64321127Y-64639564D02*
G01*
X64352368Y-64677632D01*
X64361914Y-64685466D01*
X65580000Y-65903553D01*
X65580000Y-66102116D01*
X65553968Y-66091333D01*
X65471859Y-66075000D01*
X65388141Y-66075000D01*
X65306032Y-66091333D01*
X65228687Y-66123370D01*
X65159079Y-66169881D01*
X65099881Y-66229079D01*
X65053370Y-66298687D01*
X65037096Y-66337977D01*
X64971859Y-66325000D01*
X64888141Y-66325000D01*
X64806032Y-66341333D01*
X64728687Y-66373370D01*
X64659079Y-66419881D01*
X64599881Y-66479079D01*
X64553370Y-66548687D01*
X64521333Y-66626032D01*
X64505000Y-66708141D01*
X64505000Y-66791859D01*
X64521333Y-66873968D01*
X64553370Y-66951313D01*
X64599881Y-67020921D01*
X64659079Y-67080119D01*
X64728687Y-67126630D01*
X64806032Y-67158667D01*
X64888141Y-67175000D01*
X64971859Y-67175000D01*
X65053968Y-67158667D01*
X65131313Y-67126630D01*
X65200921Y-67080119D01*
X65260119Y-67020921D01*
X65306630Y-66951313D01*
X65322904Y-66912023D01*
X65388141Y-66925000D01*
X65471859Y-66925000D01*
X65553968Y-66908667D01*
X65580000Y-66897884D01*
X65580001Y-75226619D01*
X65506032Y-75241333D01*
X65428687Y-75273370D01*
X65359079Y-75319881D01*
X65299881Y-75379079D01*
X65253370Y-75448687D01*
X65221333Y-75526032D01*
X65205000Y-75608141D01*
X65205000Y-75691859D01*
X65221333Y-75773968D01*
X65253370Y-75851313D01*
X65299881Y-75920921D01*
X65359079Y-75980119D01*
X65428687Y-76026630D01*
X65506032Y-76058667D01*
X65588141Y-76075000D01*
X65671859Y-76075000D01*
X65753968Y-76058667D01*
X65830001Y-76027174D01*
X65830001Y-77437715D01*
X65828791Y-77450000D01*
X65833618Y-77499008D01*
X65847913Y-77546133D01*
X65852047Y-77553867D01*
X65871128Y-77589564D01*
X65902369Y-77627632D01*
X65911910Y-77635462D01*
X66109909Y-77833461D01*
X66105000Y-77858141D01*
X66105000Y-77941859D01*
X66121333Y-78023968D01*
X66153370Y-78101313D01*
X66199881Y-78170921D01*
X66259079Y-78230119D01*
X66328687Y-78276630D01*
X66406032Y-78308667D01*
X66488141Y-78325000D01*
X66571859Y-78325000D01*
X66596538Y-78320091D01*
X67280000Y-79003553D01*
X67280000Y-80548959D01*
X65755000Y-79023960D01*
X65755000Y-77070866D01*
X65757055Y-77049999D01*
X65755000Y-77029132D01*
X65755000Y-77029126D01*
X65748850Y-76966686D01*
X65724548Y-76886573D01*
X65685084Y-76812740D01*
X65631974Y-76748026D01*
X65615758Y-76734718D01*
X65500921Y-76619881D01*
X65483468Y-76608219D01*
X65467259Y-76594917D01*
X65448769Y-76585034D01*
X65431313Y-76573370D01*
X65411916Y-76565336D01*
X65393427Y-76555453D01*
X65373361Y-76549366D01*
X65353968Y-76541333D01*
X65333384Y-76537239D01*
X65313314Y-76531150D01*
X65292443Y-76529095D01*
X65271859Y-76525000D01*
X65250867Y-76525000D01*
X65230000Y-76522945D01*
X65209133Y-76525000D01*
X65188141Y-76525000D01*
X65167557Y-76529095D01*
X65146686Y-76531150D01*
X65126616Y-76537239D01*
X65106032Y-76541333D01*
X65086639Y-76549366D01*
X65066573Y-76555453D01*
X65048084Y-76565336D01*
X65028687Y-76573370D01*
X65011231Y-76585034D01*
X64992741Y-76594917D01*
X64976531Y-76608220D01*
X64959079Y-76619881D01*
X64944241Y-76634719D01*
X64928026Y-76648026D01*
X64914719Y-76664241D01*
X64899881Y-76679079D01*
X64888220Y-76696531D01*
X64874917Y-76712741D01*
X64865034Y-76731231D01*
X64853370Y-76748687D01*
X64845336Y-76768084D01*
X64835453Y-76786573D01*
X64829366Y-76806639D01*
X64821333Y-76826032D01*
X64817239Y-76846616D01*
X64811150Y-76866686D01*
X64809095Y-76887557D01*
X64805000Y-76908141D01*
X64805000Y-76929133D01*
X64802945Y-76950000D01*
X64805000Y-76970867D01*
X64805000Y-76991859D01*
X64809095Y-77012443D01*
X64811150Y-77033314D01*
X64817239Y-77053384D01*
X64821333Y-77073968D01*
X64829366Y-77093361D01*
X64835453Y-77113427D01*
X64845336Y-77131916D01*
X64853370Y-77151313D01*
X64865034Y-77168769D01*
X64874917Y-77187259D01*
X64888219Y-77203468D01*
X64899881Y-77220921D01*
X64905000Y-77226040D01*
X64905001Y-79179123D01*
X64902945Y-79200000D01*
X64911150Y-79283314D01*
X64935453Y-79363427D01*
X64974917Y-79437260D01*
X65028027Y-79501974D01*
X65044239Y-79515279D01*
X66705000Y-81176041D01*
X66705000Y-81333151D01*
X66688667Y-81251042D01*
X66656630Y-81173697D01*
X66610119Y-81104089D01*
X66550921Y-81044891D01*
X66481313Y-80998380D01*
X66403968Y-80966343D01*
X66321859Y-80950010D01*
X66238141Y-80950010D01*
X66156032Y-80966343D01*
X66078687Y-80998380D01*
X66009079Y-81044891D01*
X65949881Y-81104089D01*
X65903370Y-81173697D01*
X65871333Y-81251042D01*
X65855000Y-81333151D01*
X65855000Y-81416869D01*
X65871333Y-81498978D01*
X65903370Y-81576323D01*
X65949881Y-81645931D01*
X65978955Y-81675005D01*
X65974881Y-81679079D01*
X65928370Y-81748687D01*
X65896333Y-81826032D01*
X65880000Y-81908141D01*
X65880000Y-81991859D01*
X65896333Y-82073968D01*
X65928370Y-82151313D01*
X65974881Y-82220921D01*
X66034079Y-82280119D01*
X66055001Y-82294098D01*
X66055001Y-82521445D01*
X65495067Y-83081381D01*
X65460119Y-83029079D01*
X65400921Y-82969881D01*
X65331313Y-82923370D01*
X65253968Y-82891333D01*
X65171859Y-82875000D01*
X65088141Y-82875000D01*
X65006032Y-82891333D01*
X64928687Y-82923370D01*
X64859079Y-82969881D01*
X64799881Y-83029079D01*
X64753370Y-83098687D01*
X64721333Y-83176032D01*
X64705000Y-83258141D01*
X64705000Y-83341859D01*
X64721333Y-83423968D01*
X64753370Y-83501313D01*
X64799881Y-83570921D01*
X64859079Y-83630119D01*
X64928687Y-83676630D01*
X65006032Y-83708667D01*
X65088141Y-83725000D01*
X65171859Y-83725000D01*
X65253968Y-83708667D01*
X65331313Y-83676630D01*
X65380000Y-83644098D01*
X65380000Y-85096446D01*
X64304999Y-84021447D01*
X64304999Y-81758141D01*
X64605000Y-81758141D01*
X64605000Y-81841859D01*
X64621333Y-81923968D01*
X64653370Y-82001313D01*
X64699881Y-82070921D01*
X64759079Y-82130119D01*
X64828687Y-82176630D01*
X64906032Y-82208667D01*
X64988141Y-82225000D01*
X65071859Y-82225000D01*
X65153968Y-82208667D01*
X65231313Y-82176630D01*
X65300921Y-82130119D01*
X65360119Y-82070921D01*
X65406630Y-82001313D01*
X65438667Y-81923968D01*
X65455000Y-81841859D01*
X65455000Y-81758141D01*
X65438667Y-81676032D01*
X65406630Y-81598687D01*
X65360119Y-81529079D01*
X65300921Y-81469881D01*
X65231313Y-81423370D01*
X65153968Y-81391333D01*
X65071859Y-81375000D01*
X64988141Y-81375000D01*
X64906032Y-81391333D01*
X64828687Y-81423370D01*
X64759079Y-81469881D01*
X64699881Y-81529079D01*
X64653370Y-81598687D01*
X64621333Y-81676032D01*
X64605000Y-81758141D01*
X64304999Y-81758141D01*
X64304999Y-64609390D01*
X64321127Y-64639564D01*
G37*
%TD.AperFunction*%
X67380001Y-75396446D02*
X67346538Y-75429909D01*
X67321859Y-75425000D01*
X67238141Y-75425000D01*
X67156032Y-75441333D01*
X67078687Y-75473370D01*
X67009079Y-75519881D01*
X66949881Y-75579079D01*
X66903370Y-75648687D01*
X66871333Y-75726032D01*
X66855000Y-75808141D01*
X66855000Y-75891859D01*
X66871333Y-75973968D01*
X66903370Y-76051313D01*
X66949881Y-76120921D01*
X67009079Y-76180119D01*
X67078687Y-76226630D01*
X67156032Y-76258667D01*
X67238141Y-76275000D01*
X67321859Y-76275000D01*
X67346538Y-76270091D01*
X67580000Y-76503554D01*
X67580000Y-78596447D01*
X66950091Y-77966538D01*
X66955000Y-77941859D01*
X66955000Y-77858141D01*
X66938667Y-77776032D01*
X66906630Y-77698687D01*
X66860119Y-77629079D01*
X66800921Y-77569881D01*
X66731313Y-77523370D01*
X66653968Y-77491333D01*
X66571859Y-77475000D01*
X66488141Y-77475000D01*
X66463461Y-77479909D01*
X66330000Y-77346448D01*
X66330000Y-71453552D01*
X67380000Y-70403552D01*
X67380001Y-75396446D01*
%TA.AperFunction,Conductor*%
G36*
X67380001Y-75396446D02*
G01*
X67346538Y-75429909D01*
X67321859Y-75425000D01*
X67238141Y-75425000D01*
X67156032Y-75441333D01*
X67078687Y-75473370D01*
X67009079Y-75519881D01*
X66949881Y-75579079D01*
X66903370Y-75648687D01*
X66871333Y-75726032D01*
X66855000Y-75808141D01*
X66855000Y-75891859D01*
X66871333Y-75973968D01*
X66903370Y-76051313D01*
X66949881Y-76120921D01*
X67009079Y-76180119D01*
X67078687Y-76226630D01*
X67156032Y-76258667D01*
X67238141Y-76275000D01*
X67321859Y-76275000D01*
X67346538Y-76270091D01*
X67580000Y-76503554D01*
X67580000Y-78596447D01*
X66950091Y-77966538D01*
X66955000Y-77941859D01*
X66955000Y-77858141D01*
X66938667Y-77776032D01*
X66906630Y-77698687D01*
X66860119Y-77629079D01*
X66800921Y-77569881D01*
X66731313Y-77523370D01*
X66653968Y-77491333D01*
X66571859Y-77475000D01*
X66488141Y-77475000D01*
X66463461Y-77479909D01*
X66330000Y-77346448D01*
X66330000Y-71453552D01*
X67380000Y-70403552D01*
X67380001Y-75396446D01*
G37*
%TD.AperFunction*%
%TD*%
M02*
