M48
; DRILL file {KiCad 5.1.10-88a1d61d58~88~ubuntu20.04.1} date Wed Jul 28 15:35:10 2021
; FORMAT={-:-/ absolute / inch / decimal}
; #@! TF.CreationDate,2021-07-28T15:35:10+02:00
; #@! TF.GenerationSoftware,Kicad,Pcbnew,5.1.10-88a1d61d58~88~ubuntu20.04.1
FMAT,2
INCH
T1C0.0079
T2C0.0236
T3C0.0335
T4C0.0469
T5C0.1201
%
G90
G05
T1
X1.4854Y-3.0787
X1.5346Y-2.9626
X1.5642Y-3.435
X1.6114Y-3.189
X1.7413Y-3.2283
X1.7512Y-3.2776
X1.7531Y-3.0157
X1.7709Y-3.2382
X1.7807Y-3.2972
X1.8398Y-2.9134
X1.8791Y-2.9331
X1.9264Y-3.0945
X1.9382Y-2.9528
X1.95Y-3.1024
X1.9657Y-3.3543
X1.9927Y-3.0694
X2.013Y-2.9528
X2.0169Y-2.8937
X2.0268Y-2.6772
X2.0366Y-3.189
X2.0563Y-2.9921
X2.0967Y-3.0834
X2.1209Y-3.2542
X2.1311Y-3.1417
X2.1862Y-3.2677
X2.1941Y-3.3386
X2.2138Y-2.6083
X2.2177Y-3.2126
X2.2256Y-3.0394
X2.2413Y-3.0945
X2.2571Y-3.1339
X2.2925Y-2.6772
X2.2925Y-2.8937
X2.3043Y-3.1417
X2.3201Y-2.9843
X2.4795Y-3.3957
T3
X2.1744Y-2.5472
X2.3713Y-2.5472
T4
X1.768Y-3.7189
X1.768Y-3.9189
X1.8131Y-3.8189
X1.858Y-3.7189
X1.858Y-3.9189
X1.9031Y-3.8189
X1.948Y-3.7189
X1.948Y-3.9189
X1.9931Y-3.8189
X2.038Y-3.7189
X2.038Y-3.9189
X2.0831Y-3.8189
X2.128Y-3.7189
X2.128Y-3.9189
X2.1731Y-3.8189
T5
X1.4659Y-3.8189
X2.4498Y-3.8189
T2
G00X2.135Y-2.4547
M15
G01X2.135Y-2.4272
M16
G05
G00X2.4106Y-2.4272
M15
G01X2.4106Y-2.4547
M16
G05
T0
M30
