G04 #@! TF.GenerationSoftware,KiCad,Pcbnew,5.1.10-88a1d61d58~88~ubuntu20.04.1*
G04 #@! TF.CreationDate,2021-07-29T12:13:13+02:00*
G04 #@! TF.ProjectId,carrier,63617272-6965-4722-9e6b-696361645f70,0.1*
G04 #@! TF.SameCoordinates,Original*
G04 #@! TF.FileFunction,Copper,L1,Top*
G04 #@! TF.FilePolarity,Positive*
%FSLAX46Y46*%
G04 Gerber Fmt 4.6, Leading zero omitted, Abs format (unit mm)*
G04 Created by KiCad (PCBNEW 5.1.10-88a1d61d58~88~ubuntu20.04.1) date 2021-07-29 12:13:13*
%MOMM*%
%LPD*%
G01*
G04 APERTURE LIST*
G04 #@! TA.AperFunction,ComponentPad*
%ADD10C,2.000000*%
G04 #@! TD*
G04 #@! TA.AperFunction,ComponentPad*
%ADD11C,5.000000*%
G04 #@! TD*
G04 #@! TA.AperFunction,SMDPad,CuDef*
%ADD12C,0.270000*%
G04 #@! TD*
G04 #@! TA.AperFunction,SMDPad,CuDef*
%ADD13R,2.400000X0.740000*%
G04 #@! TD*
G04 #@! TA.AperFunction,SMDPad,CuDef*
%ADD14R,0.650000X1.060000*%
G04 #@! TD*
G04 #@! TA.AperFunction,SMDPad,CuDef*
%ADD15R,1.500000X1.900000*%
G04 #@! TD*
G04 #@! TA.AperFunction,ComponentPad*
%ADD16C,1.450000*%
G04 #@! TD*
G04 #@! TA.AperFunction,SMDPad,CuDef*
%ADD17R,0.400000X1.350000*%
G04 #@! TD*
G04 #@! TA.AperFunction,ComponentPad*
%ADD18O,1.200000X1.900000*%
G04 #@! TD*
G04 #@! TA.AperFunction,SMDPad,CuDef*
%ADD19R,1.200000X1.900000*%
G04 #@! TD*
G04 #@! TA.AperFunction,SMDPad,CuDef*
%ADD20R,2.200000X2.200000*%
G04 #@! TD*
G04 #@! TA.AperFunction,SMDPad,CuDef*
%ADD21R,1.200000X1.400000*%
G04 #@! TD*
G04 #@! TA.AperFunction,ViaPad*
%ADD22C,0.450000*%
G04 #@! TD*
G04 #@! TA.AperFunction,Conductor*
%ADD23C,0.280000*%
G04 #@! TD*
G04 #@! TA.AperFunction,Conductor*
%ADD24C,0.450000*%
G04 #@! TD*
G04 #@! TA.AperFunction,Conductor*
%ADD25C,0.127000*%
G04 #@! TD*
G04 #@! TA.AperFunction,Conductor*
%ADD26C,0.076200*%
G04 #@! TD*
G04 #@! TA.AperFunction,Conductor*
%ADD27C,0.101600*%
G04 #@! TD*
G04 APERTURE END LIST*
D10*
G04 #@! TO.P,J2,7*
G04 #@! TO.N,GND*
X52911000Y-97000000D03*
G04 #@! TO.P,J2,8*
X50625000Y-97000000D03*
G04 #@! TO.P,J2,6*
X55197000Y-97000000D03*
G04 #@! TO.P,J2,9*
G04 #@! TO.N,Net-(J2-Pad9)*
X48339000Y-97000000D03*
G04 #@! TO.P,J2,10*
G04 #@! TO.N,GND*
X46053000Y-97000000D03*
G04 #@! TO.P,J2,3*
G04 #@! TO.N,/blue*
X49480000Y-94460000D03*
G04 #@! TO.P,J2,5*
G04 #@! TO.N,GND*
X44908000Y-94460000D03*
G04 #@! TO.P,J2,1*
G04 #@! TO.N,/red*
X54052000Y-94460000D03*
G04 #@! TO.P,J2,4*
G04 #@! TO.N,Net-(J2-Pad4)*
X47194000Y-94460000D03*
G04 #@! TO.P,J2,2*
G04 #@! TO.N,/green*
X51766000Y-94460000D03*
G04 #@! TO.P,J2,15*
G04 #@! TO.N,Net-(J2-Pad15)*
X44908000Y-99540000D03*
G04 #@! TO.P,J2,14*
G04 #@! TO.N,mprj_io[12]*
X47194000Y-99540000D03*
G04 #@! TO.P,J2,13*
G04 #@! TO.N,mprj_io[11]*
X49480000Y-99540000D03*
G04 #@! TO.P,J2,12*
G04 #@! TO.N,Net-(J2-Pad12)*
X51766000Y-99540000D03*
G04 #@! TO.P,J2,11*
G04 #@! TO.N,Net-(J2-Pad11)*
X54052000Y-99540000D03*
D11*
G04 #@! TO.P,J2,*
G04 #@! TO.N,*
X37235000Y-97000000D03*
X62225000Y-97000000D03*
G04 #@! TD*
D12*
G04 #@! TO.P,U1,F10*
G04 #@! TO.N,vdda*
X50480000Y-78750000D03*
G04 #@! TO.P,U1,E10*
G04 #@! TO.N,gpio*
X50980000Y-78750000D03*
G04 #@! TO.P,U1,D10*
G04 #@! TO.N,flash_io0*
X51480000Y-78750000D03*
G04 #@! TO.P,U1,C10*
G04 #@! TO.N,flash_csb*
X51980000Y-78750000D03*
G04 #@! TO.P,U1,B10*
G04 #@! TO.N,resetb*
X52480000Y-78750000D03*
G04 #@! TO.P,U1,A10*
G04 #@! TO.N,vccd*
X52980000Y-78750000D03*
G04 #@! TO.P,U1,F9*
G04 #@! TO.N,mprj_io[2]*
X50480000Y-79250000D03*
G04 #@! TO.P,U1,E9*
G04 #@! TO.N,mprj_io[1]*
X50980000Y-79250000D03*
G04 #@! TO.P,U1,D9*
G04 #@! TO.N,flash_io1*
X51480000Y-79250000D03*
G04 #@! TO.P,U1,C9*
G04 #@! TO.N,clock*
X51980000Y-79250000D03*
G04 #@! TO.P,U1,B9*
G04 #@! TO.N,Net-(U1-PadB9)*
X52480000Y-79250000D03*
G04 #@! TO.P,U1,A9*
G04 #@! TO.N,Net-(U1-PadA9)*
X52980000Y-79250000D03*
G04 #@! TO.P,U1,F8*
G04 #@! TO.N,mprj_io[4]*
X50480000Y-79750000D03*
G04 #@! TO.P,U1,E8*
G04 #@! TO.N,mprj_io[3]*
X50980000Y-79750000D03*
G04 #@! TO.P,U1,D8*
G04 #@! TO.N,flash_clk*
X51480000Y-79750000D03*
G04 #@! TO.P,U1,C8*
G04 #@! TO.N,Net-(U1-PadC8)*
X51980000Y-79750000D03*
G04 #@! TO.P,U1,B8*
G04 #@! TO.N,Net-(U1-PadB8)*
X52480000Y-79750000D03*
G04 #@! TO.P,U1,A8*
G04 #@! TO.N,Net-(U1-PadA8)*
X52980000Y-79750000D03*
G04 #@! TO.P,U1,F7*
G04 #@! TO.N,mprj_io[6]*
X50480000Y-80250000D03*
G04 #@! TO.P,U1,E7*
G04 #@! TO.N,mprj_io[5]*
X50980000Y-80250000D03*
G04 #@! TO.P,U1,D7*
G04 #@! TO.N,mprj_io[0]*
X51480000Y-80250000D03*
G04 #@! TO.P,U1,C7*
G04 #@! TO.N,vdda*
X51980000Y-80250000D03*
G04 #@! TO.P,U1,B7*
G04 #@! TO.N,GND*
X52480000Y-80250000D03*
G04 #@! TO.P,U1,A7*
G04 #@! TO.N,Net-(U1-PadA7)*
X52980000Y-80250000D03*
G04 #@! TO.P,U1,F6*
G04 #@! TO.N,GND*
X50480000Y-80750000D03*
G04 #@! TO.P,U1,E6*
X50980000Y-80750000D03*
G04 #@! TO.P,U1,D6*
X51480000Y-80750000D03*
G04 #@! TO.P,U1,C6*
X51980000Y-80750000D03*
G04 #@! TO.P,U1,B6*
G04 #@! TO.N,Net-(U1-PadB6)*
X52480000Y-80750000D03*
G04 #@! TO.P,U1,A6*
G04 #@! TO.N,Net-(U1-PadA6)*
X52980000Y-80750000D03*
G04 #@! TO.P,U1,F5*
G04 #@! TO.N,mprj_io[8]*
X50480000Y-81250000D03*
G04 #@! TO.P,U1,E5*
G04 #@! TO.N,mprj_io[7]*
X50980000Y-81250000D03*
G04 #@! TO.P,U1,D5*
G04 #@! TO.N,GND*
X51480000Y-81250000D03*
G04 #@! TO.P,U1,C5*
X51980000Y-81250000D03*
G04 #@! TO.P,U1,B5*
G04 #@! TO.N,Net-(U1-PadB5)*
X52480000Y-81250000D03*
G04 #@! TO.P,U1,A5*
G04 #@! TO.N,Net-(U1-PadA5)*
X52980000Y-81250000D03*
G04 #@! TO.P,U1,F4*
G04 #@! TO.N,mprj_io[10]*
X50480000Y-81750000D03*
G04 #@! TO.P,U1,E4*
G04 #@! TO.N,mprj_io[9]*
X50980000Y-81750000D03*
G04 #@! TO.P,U1,D4*
G04 #@! TO.N,vdda*
X51480000Y-81750000D03*
G04 #@! TO.P,U1,C4*
X51980000Y-81750000D03*
G04 #@! TO.P,U1,B4*
G04 #@! TO.N,Net-(U1-PadB4)*
X52480000Y-81750000D03*
G04 #@! TO.P,U1,A4*
G04 #@! TO.N,Net-(U1-PadA4)*
X52980000Y-81750000D03*
G04 #@! TO.P,U1,F3*
G04 #@! TO.N,mprj_io[12]*
X50480000Y-82250000D03*
G04 #@! TO.P,U1,E3*
G04 #@! TO.N,mprj_io[11]*
X50980000Y-82250000D03*
G04 #@! TO.P,U1,D3*
G04 #@! TO.N,mprj_io[13]*
X51480000Y-82250000D03*
G04 #@! TO.P,U1,C3*
G04 #@! TO.N,Net-(U1-PadC3)*
X51980000Y-82250000D03*
G04 #@! TO.P,U1,B3*
G04 #@! TO.N,GND*
X52480000Y-82250000D03*
G04 #@! TO.P,U1,A3*
G04 #@! TO.N,Net-(U1-PadA3)*
X52980000Y-82250000D03*
G04 #@! TO.P,U1,F2*
G04 #@! TO.N,vccd*
X50480000Y-82750000D03*
G04 #@! TO.P,U1,E2*
G04 #@! TO.N,mprj_io[14]*
X50980000Y-82750000D03*
G04 #@! TO.P,U1,D2*
G04 #@! TO.N,mprj_io[17]*
X51480000Y-82750000D03*
G04 #@! TO.P,U1,C2*
G04 #@! TO.N,Net-(U1-PadC2)*
X51980000Y-82750000D03*
G04 #@! TO.P,U1,B2*
G04 #@! TO.N,Net-(U1-PadB2)*
X52480000Y-82750000D03*
G04 #@! TO.P,U1,A2*
G04 #@! TO.N,vccd*
X52980000Y-82750000D03*
G04 #@! TO.P,U1,F1*
G04 #@! TO.N,mprj_io[15]*
X50480000Y-83250000D03*
G04 #@! TO.P,U1,E1*
G04 #@! TO.N,mprj_io[16]*
X50980000Y-83250000D03*
G04 #@! TO.P,U1,D1*
G04 #@! TO.N,mprj_io[18]*
X51480000Y-83250000D03*
G04 #@! TO.P,U1,C1*
G04 #@! TO.N,Net-(U1-PadC1)*
X51980000Y-83250000D03*
G04 #@! TO.P,U1,B1*
G04 #@! TO.N,Net-(U1-PadB1)*
X52480000Y-83250000D03*
G04 #@! TO.P,U1,A1*
G04 #@! TO.N,Net-(U1-PadA1)*
X52980000Y-83250000D03*
G04 #@! TD*
G04 #@! TO.P,U2,8*
G04 #@! TO.N,vdda*
G04 #@! TA.AperFunction,SMDPad,CuDef*
G36*
G01*
X58975000Y-78200000D02*
X58675000Y-78200000D01*
G75*
G02*
X58525000Y-78050000I0J150000D01*
G01*
X58525000Y-76750000D01*
G75*
G02*
X58675000Y-76600000I150000J0D01*
G01*
X58975000Y-76600000D01*
G75*
G02*
X59125000Y-76750000I0J-150000D01*
G01*
X59125000Y-78050000D01*
G75*
G02*
X58975000Y-78200000I-150000J0D01*
G01*
G37*
G04 #@! TD.AperFunction*
G04 #@! TO.P,U2,7*
G04 #@! TO.N,Net-(U2-Pad7)*
G04 #@! TA.AperFunction,SMDPad,CuDef*
G36*
G01*
X60245000Y-78200000D02*
X59945000Y-78200000D01*
G75*
G02*
X59795000Y-78050000I0J150000D01*
G01*
X59795000Y-76750000D01*
G75*
G02*
X59945000Y-76600000I150000J0D01*
G01*
X60245000Y-76600000D01*
G75*
G02*
X60395000Y-76750000I0J-150000D01*
G01*
X60395000Y-78050000D01*
G75*
G02*
X60245000Y-78200000I-150000J0D01*
G01*
G37*
G04 #@! TD.AperFunction*
G04 #@! TO.P,U2,6*
G04 #@! TO.N,flash_clk*
G04 #@! TA.AperFunction,SMDPad,CuDef*
G36*
G01*
X61515000Y-78200000D02*
X61215000Y-78200000D01*
G75*
G02*
X61065000Y-78050000I0J150000D01*
G01*
X61065000Y-76750000D01*
G75*
G02*
X61215000Y-76600000I150000J0D01*
G01*
X61515000Y-76600000D01*
G75*
G02*
X61665000Y-76750000I0J-150000D01*
G01*
X61665000Y-78050000D01*
G75*
G02*
X61515000Y-78200000I-150000J0D01*
G01*
G37*
G04 #@! TD.AperFunction*
G04 #@! TO.P,U2,5*
G04 #@! TO.N,flash_io0*
G04 #@! TA.AperFunction,SMDPad,CuDef*
G36*
G01*
X62785000Y-78200000D02*
X62485000Y-78200000D01*
G75*
G02*
X62335000Y-78050000I0J150000D01*
G01*
X62335000Y-76750000D01*
G75*
G02*
X62485000Y-76600000I150000J0D01*
G01*
X62785000Y-76600000D01*
G75*
G02*
X62935000Y-76750000I0J-150000D01*
G01*
X62935000Y-78050000D01*
G75*
G02*
X62785000Y-78200000I-150000J0D01*
G01*
G37*
G04 #@! TD.AperFunction*
G04 #@! TO.P,U2,4*
G04 #@! TO.N,GND*
G04 #@! TA.AperFunction,SMDPad,CuDef*
G36*
G01*
X62785000Y-85400000D02*
X62485000Y-85400000D01*
G75*
G02*
X62335000Y-85250000I0J150000D01*
G01*
X62335000Y-83950000D01*
G75*
G02*
X62485000Y-83800000I150000J0D01*
G01*
X62785000Y-83800000D01*
G75*
G02*
X62935000Y-83950000I0J-150000D01*
G01*
X62935000Y-85250000D01*
G75*
G02*
X62785000Y-85400000I-150000J0D01*
G01*
G37*
G04 #@! TD.AperFunction*
G04 #@! TO.P,U2,3*
G04 #@! TO.N,Net-(U2-Pad3)*
G04 #@! TA.AperFunction,SMDPad,CuDef*
G36*
G01*
X61515000Y-85400000D02*
X61215000Y-85400000D01*
G75*
G02*
X61065000Y-85250000I0J150000D01*
G01*
X61065000Y-83950000D01*
G75*
G02*
X61215000Y-83800000I150000J0D01*
G01*
X61515000Y-83800000D01*
G75*
G02*
X61665000Y-83950000I0J-150000D01*
G01*
X61665000Y-85250000D01*
G75*
G02*
X61515000Y-85400000I-150000J0D01*
G01*
G37*
G04 #@! TD.AperFunction*
G04 #@! TO.P,U2,2*
G04 #@! TO.N,flash_io1*
G04 #@! TA.AperFunction,SMDPad,CuDef*
G36*
G01*
X60245000Y-85400000D02*
X59945000Y-85400000D01*
G75*
G02*
X59795000Y-85250000I0J150000D01*
G01*
X59795000Y-83950000D01*
G75*
G02*
X59945000Y-83800000I150000J0D01*
G01*
X60245000Y-83800000D01*
G75*
G02*
X60395000Y-83950000I0J-150000D01*
G01*
X60395000Y-85250000D01*
G75*
G02*
X60245000Y-85400000I-150000J0D01*
G01*
G37*
G04 #@! TD.AperFunction*
G04 #@! TO.P,U2,1*
G04 #@! TO.N,flash_csb*
G04 #@! TA.AperFunction,SMDPad,CuDef*
G36*
G01*
X58975000Y-85400000D02*
X58675000Y-85400000D01*
G75*
G02*
X58525000Y-85250000I0J150000D01*
G01*
X58525000Y-83950000D01*
G75*
G02*
X58675000Y-83800000I150000J0D01*
G01*
X58975000Y-83800000D01*
G75*
G02*
X59125000Y-83950000I0J-150000D01*
G01*
X59125000Y-85250000D01*
G75*
G02*
X58975000Y-85400000I-150000J0D01*
G01*
G37*
G04 #@! TD.AperFunction*
G04 #@! TD*
D13*
G04 #@! TO.P,J1,12*
G04 #@! TO.N,resetb*
X42680000Y-86175000D03*
G04 #@! TO.P,J1,11*
G04 #@! TO.N,GND*
X38780000Y-86175000D03*
G04 #@! TO.P,J1,10*
G04 #@! TO.N,mprj_io[7]*
X42680000Y-84905000D03*
G04 #@! TO.P,J1,9*
G04 #@! TO.N,mprj_io[6]*
X38780000Y-84905000D03*
G04 #@! TO.P,J1,8*
G04 #@! TO.N,mprj_io[5]*
X42680000Y-83635000D03*
G04 #@! TO.P,J1,7*
G04 #@! TO.N,mprj_io[4]*
X38780000Y-83635000D03*
G04 #@! TO.P,J1,6*
G04 #@! TO.N,mprj_io[3]*
X42680000Y-82365000D03*
G04 #@! TO.P,J1,5*
G04 #@! TO.N,mprj_io[2]*
X38780000Y-82365000D03*
G04 #@! TO.P,J1,4*
G04 #@! TO.N,mprj_io[1]*
X42680000Y-81095000D03*
G04 #@! TO.P,J1,3*
G04 #@! TO.N,mprj_io[0]*
X38780000Y-81095000D03*
G04 #@! TO.P,J1,2*
G04 #@! TO.N,+5V*
X42680000Y-79825000D03*
G04 #@! TO.P,J1,1*
G04 #@! TO.N,vdda*
X38780000Y-79825000D03*
G04 #@! TD*
D14*
G04 #@! TO.P,U6,5*
G04 #@! TO.N,vdda*
X53830000Y-71850000D03*
G04 #@! TO.P,U6,4*
G04 #@! TO.N,Net-(U6-Pad4)*
X51930000Y-71850000D03*
G04 #@! TO.P,U6,3*
G04 #@! TO.N,+5V*
X51930000Y-69650000D03*
G04 #@! TO.P,U6,2*
G04 #@! TO.N,GND*
X52880000Y-69650000D03*
G04 #@! TO.P,U6,1*
G04 #@! TO.N,+5V*
X53830000Y-69650000D03*
G04 #@! TD*
G04 #@! TO.P,U5,5*
G04 #@! TO.N,vccd*
X60580000Y-71850000D03*
G04 #@! TO.P,U5,4*
G04 #@! TO.N,Net-(U5-Pad4)*
X58680000Y-71850000D03*
G04 #@! TO.P,U5,3*
G04 #@! TO.N,+5V*
X58680000Y-69650000D03*
G04 #@! TO.P,U5,2*
G04 #@! TO.N,GND*
X59630000Y-69650000D03*
G04 #@! TO.P,U5,1*
G04 #@! TO.N,+5V*
X60580000Y-69650000D03*
G04 #@! TD*
G04 #@! TO.P,C7,2*
G04 #@! TO.N,GND*
G04 #@! TA.AperFunction,SMDPad,CuDef*
G36*
G01*
X52830000Y-73243750D02*
X52830000Y-73756250D01*
G75*
G02*
X52611250Y-73975000I-218750J0D01*
G01*
X52173750Y-73975000D01*
G75*
G02*
X51955000Y-73756250I0J218750D01*
G01*
X51955000Y-73243750D01*
G75*
G02*
X52173750Y-73025000I218750J0D01*
G01*
X52611250Y-73025000D01*
G75*
G02*
X52830000Y-73243750I0J-218750D01*
G01*
G37*
G04 #@! TD.AperFunction*
G04 #@! TO.P,C7,1*
G04 #@! TO.N,vdda*
G04 #@! TA.AperFunction,SMDPad,CuDef*
G36*
G01*
X54405000Y-73243750D02*
X54405000Y-73756250D01*
G75*
G02*
X54186250Y-73975000I-218750J0D01*
G01*
X53748750Y-73975000D01*
G75*
G02*
X53530000Y-73756250I0J218750D01*
G01*
X53530000Y-73243750D01*
G75*
G02*
X53748750Y-73025000I218750J0D01*
G01*
X54186250Y-73025000D01*
G75*
G02*
X54405000Y-73243750I0J-218750D01*
G01*
G37*
G04 #@! TD.AperFunction*
G04 #@! TD*
G04 #@! TO.P,C5,2*
G04 #@! TO.N,GND*
G04 #@! TA.AperFunction,SMDPad,CuDef*
G36*
G01*
X52830000Y-67743750D02*
X52830000Y-68256250D01*
G75*
G02*
X52611250Y-68475000I-218750J0D01*
G01*
X52173750Y-68475000D01*
G75*
G02*
X51955000Y-68256250I0J218750D01*
G01*
X51955000Y-67743750D01*
G75*
G02*
X52173750Y-67525000I218750J0D01*
G01*
X52611250Y-67525000D01*
G75*
G02*
X52830000Y-67743750I0J-218750D01*
G01*
G37*
G04 #@! TD.AperFunction*
G04 #@! TO.P,C5,1*
G04 #@! TO.N,+5V*
G04 #@! TA.AperFunction,SMDPad,CuDef*
G36*
G01*
X54405000Y-67743750D02*
X54405000Y-68256250D01*
G75*
G02*
X54186250Y-68475000I-218750J0D01*
G01*
X53748750Y-68475000D01*
G75*
G02*
X53530000Y-68256250I0J218750D01*
G01*
X53530000Y-67743750D01*
G75*
G02*
X53748750Y-67525000I218750J0D01*
G01*
X54186250Y-67525000D01*
G75*
G02*
X54405000Y-67743750I0J-218750D01*
G01*
G37*
G04 #@! TD.AperFunction*
G04 #@! TD*
G04 #@! TO.P,C3,2*
G04 #@! TO.N,GND*
G04 #@! TA.AperFunction,SMDPad,CuDef*
G36*
G01*
X59580000Y-73243750D02*
X59580000Y-73756250D01*
G75*
G02*
X59361250Y-73975000I-218750J0D01*
G01*
X58923750Y-73975000D01*
G75*
G02*
X58705000Y-73756250I0J218750D01*
G01*
X58705000Y-73243750D01*
G75*
G02*
X58923750Y-73025000I218750J0D01*
G01*
X59361250Y-73025000D01*
G75*
G02*
X59580000Y-73243750I0J-218750D01*
G01*
G37*
G04 #@! TD.AperFunction*
G04 #@! TO.P,C3,1*
G04 #@! TO.N,vccd*
G04 #@! TA.AperFunction,SMDPad,CuDef*
G36*
G01*
X61155000Y-73243750D02*
X61155000Y-73756250D01*
G75*
G02*
X60936250Y-73975000I-218750J0D01*
G01*
X60498750Y-73975000D01*
G75*
G02*
X60280000Y-73756250I0J218750D01*
G01*
X60280000Y-73243750D01*
G75*
G02*
X60498750Y-73025000I218750J0D01*
G01*
X60936250Y-73025000D01*
G75*
G02*
X61155000Y-73243750I0J-218750D01*
G01*
G37*
G04 #@! TD.AperFunction*
G04 #@! TD*
G04 #@! TO.P,C1,2*
G04 #@! TO.N,GND*
G04 #@! TA.AperFunction,SMDPad,CuDef*
G36*
G01*
X59580000Y-67743750D02*
X59580000Y-68256250D01*
G75*
G02*
X59361250Y-68475000I-218750J0D01*
G01*
X58923750Y-68475000D01*
G75*
G02*
X58705000Y-68256250I0J218750D01*
G01*
X58705000Y-67743750D01*
G75*
G02*
X58923750Y-67525000I218750J0D01*
G01*
X59361250Y-67525000D01*
G75*
G02*
X59580000Y-67743750I0J-218750D01*
G01*
G37*
G04 #@! TD.AperFunction*
G04 #@! TO.P,C1,1*
G04 #@! TO.N,+5V*
G04 #@! TA.AperFunction,SMDPad,CuDef*
G36*
G01*
X61155000Y-67743750D02*
X61155000Y-68256250D01*
G75*
G02*
X60936250Y-68475000I-218750J0D01*
G01*
X60498750Y-68475000D01*
G75*
G02*
X60280000Y-68256250I0J218750D01*
G01*
X60280000Y-67743750D01*
G75*
G02*
X60498750Y-67525000I218750J0D01*
G01*
X60936250Y-67525000D01*
G75*
G02*
X61155000Y-67743750I0J-218750D01*
G01*
G37*
G04 #@! TD.AperFunction*
G04 #@! TD*
G04 #@! TO.P,C9,2*
G04 #@! TO.N,GND*
G04 #@! TA.AperFunction,SMDPad,CuDef*
G36*
G01*
X55980000Y-82675000D02*
X55480000Y-82675000D01*
G75*
G02*
X55255000Y-82450000I0J225000D01*
G01*
X55255000Y-82000000D01*
G75*
G02*
X55480000Y-81775000I225000J0D01*
G01*
X55980000Y-81775000D01*
G75*
G02*
X56205000Y-82000000I0J-225000D01*
G01*
X56205000Y-82450000D01*
G75*
G02*
X55980000Y-82675000I-225000J0D01*
G01*
G37*
G04 #@! TD.AperFunction*
G04 #@! TO.P,C9,1*
G04 #@! TO.N,vdda*
G04 #@! TA.AperFunction,SMDPad,CuDef*
G36*
G01*
X55980000Y-84225000D02*
X55480000Y-84225000D01*
G75*
G02*
X55255000Y-84000000I0J225000D01*
G01*
X55255000Y-83550000D01*
G75*
G02*
X55480000Y-83325000I225000J0D01*
G01*
X55980000Y-83325000D01*
G75*
G02*
X56205000Y-83550000I0J-225000D01*
G01*
X56205000Y-84000000D01*
G75*
G02*
X55980000Y-84225000I-225000J0D01*
G01*
G37*
G04 #@! TD.AperFunction*
G04 #@! TD*
G04 #@! TO.P,C10,1*
G04 #@! TO.N,vdda*
G04 #@! TA.AperFunction,SMDPad,CuDef*
G36*
G01*
X51180000Y-75750000D02*
X51180000Y-76250000D01*
G75*
G02*
X50955000Y-76475000I-225000J0D01*
G01*
X50505000Y-76475000D01*
G75*
G02*
X50280000Y-76250000I0J225000D01*
G01*
X50280000Y-75750000D01*
G75*
G02*
X50505000Y-75525000I225000J0D01*
G01*
X50955000Y-75525000D01*
G75*
G02*
X51180000Y-75750000I0J-225000D01*
G01*
G37*
G04 #@! TD.AperFunction*
G04 #@! TO.P,C10,2*
G04 #@! TO.N,GND*
G04 #@! TA.AperFunction,SMDPad,CuDef*
G36*
G01*
X49630000Y-75750000D02*
X49630000Y-76250000D01*
G75*
G02*
X49405000Y-76475000I-225000J0D01*
G01*
X48955000Y-76475000D01*
G75*
G02*
X48730000Y-76250000I0J225000D01*
G01*
X48730000Y-75750000D01*
G75*
G02*
X48955000Y-75525000I225000J0D01*
G01*
X49405000Y-75525000D01*
G75*
G02*
X49630000Y-75750000I0J-225000D01*
G01*
G37*
G04 #@! TD.AperFunction*
G04 #@! TD*
G04 #@! TO.P,C11,2*
G04 #@! TO.N,GND*
G04 #@! TA.AperFunction,SMDPad,CuDef*
G36*
G01*
X55480000Y-80325000D02*
X55980000Y-80325000D01*
G75*
G02*
X56205000Y-80550000I0J-225000D01*
G01*
X56205000Y-81000000D01*
G75*
G02*
X55980000Y-81225000I-225000J0D01*
G01*
X55480000Y-81225000D01*
G75*
G02*
X55255000Y-81000000I0J225000D01*
G01*
X55255000Y-80550000D01*
G75*
G02*
X55480000Y-80325000I225000J0D01*
G01*
G37*
G04 #@! TD.AperFunction*
G04 #@! TO.P,C11,1*
G04 #@! TO.N,vccd*
G04 #@! TA.AperFunction,SMDPad,CuDef*
G36*
G01*
X55480000Y-78775000D02*
X55980000Y-78775000D01*
G75*
G02*
X56205000Y-79000000I0J-225000D01*
G01*
X56205000Y-79450000D01*
G75*
G02*
X55980000Y-79675000I-225000J0D01*
G01*
X55480000Y-79675000D01*
G75*
G02*
X55255000Y-79450000I0J225000D01*
G01*
X55255000Y-79000000D01*
G75*
G02*
X55480000Y-78775000I225000J0D01*
G01*
G37*
G04 #@! TD.AperFunction*
G04 #@! TD*
G04 #@! TO.P,C16,1*
G04 #@! TO.N,vdda*
G04 #@! TA.AperFunction,SMDPad,CuDef*
G36*
G01*
X45030000Y-75250000D02*
X45030000Y-74750000D01*
G75*
G02*
X45255000Y-74525000I225000J0D01*
G01*
X45705000Y-74525000D01*
G75*
G02*
X45930000Y-74750000I0J-225000D01*
G01*
X45930000Y-75250000D01*
G75*
G02*
X45705000Y-75475000I-225000J0D01*
G01*
X45255000Y-75475000D01*
G75*
G02*
X45030000Y-75250000I0J225000D01*
G01*
G37*
G04 #@! TD.AperFunction*
G04 #@! TO.P,C16,2*
G04 #@! TO.N,GND*
G04 #@! TA.AperFunction,SMDPad,CuDef*
G36*
G01*
X46580000Y-75250000D02*
X46580000Y-74750000D01*
G75*
G02*
X46805000Y-74525000I225000J0D01*
G01*
X47255000Y-74525000D01*
G75*
G02*
X47480000Y-74750000I0J-225000D01*
G01*
X47480000Y-75250000D01*
G75*
G02*
X47255000Y-75475000I-225000J0D01*
G01*
X46805000Y-75475000D01*
G75*
G02*
X46580000Y-75250000I0J225000D01*
G01*
G37*
G04 #@! TD.AperFunction*
G04 #@! TD*
G04 #@! TO.P,R1,2*
G04 #@! TO.N,mprj_io[18]*
G04 #@! TA.AperFunction,SMDPad,CuDef*
G36*
G01*
X58005000Y-88575000D02*
X57455000Y-88575000D01*
G75*
G02*
X57255000Y-88375000I0J200000D01*
G01*
X57255000Y-87975000D01*
G75*
G02*
X57455000Y-87775000I200000J0D01*
G01*
X58005000Y-87775000D01*
G75*
G02*
X58205000Y-87975000I0J-200000D01*
G01*
X58205000Y-88375000D01*
G75*
G02*
X58005000Y-88575000I-200000J0D01*
G01*
G37*
G04 #@! TD.AperFunction*
G04 #@! TO.P,R1,1*
G04 #@! TO.N,/red*
G04 #@! TA.AperFunction,SMDPad,CuDef*
G36*
G01*
X58005000Y-90225000D02*
X57455000Y-90225000D01*
G75*
G02*
X57255000Y-90025000I0J200000D01*
G01*
X57255000Y-89625000D01*
G75*
G02*
X57455000Y-89425000I200000J0D01*
G01*
X58005000Y-89425000D01*
G75*
G02*
X58205000Y-89625000I0J-200000D01*
G01*
X58205000Y-90025000D01*
G75*
G02*
X58005000Y-90225000I-200000J0D01*
G01*
G37*
G04 #@! TD.AperFunction*
G04 #@! TD*
G04 #@! TO.P,R2,1*
G04 #@! TO.N,/red*
G04 #@! TA.AperFunction,SMDPad,CuDef*
G36*
G01*
X56005000Y-90225000D02*
X55455000Y-90225000D01*
G75*
G02*
X55255000Y-90025000I0J200000D01*
G01*
X55255000Y-89625000D01*
G75*
G02*
X55455000Y-89425000I200000J0D01*
G01*
X56005000Y-89425000D01*
G75*
G02*
X56205000Y-89625000I0J-200000D01*
G01*
X56205000Y-90025000D01*
G75*
G02*
X56005000Y-90225000I-200000J0D01*
G01*
G37*
G04 #@! TD.AperFunction*
G04 #@! TO.P,R2,2*
G04 #@! TO.N,mprj_io[17]*
G04 #@! TA.AperFunction,SMDPad,CuDef*
G36*
G01*
X56005000Y-88575000D02*
X55455000Y-88575000D01*
G75*
G02*
X55255000Y-88375000I0J200000D01*
G01*
X55255000Y-87975000D01*
G75*
G02*
X55455000Y-87775000I200000J0D01*
G01*
X56005000Y-87775000D01*
G75*
G02*
X56205000Y-87975000I0J-200000D01*
G01*
X56205000Y-88375000D01*
G75*
G02*
X56005000Y-88575000I-200000J0D01*
G01*
G37*
G04 #@! TD.AperFunction*
G04 #@! TD*
G04 #@! TO.P,R3,2*
G04 #@! TO.N,mprj_io[16]*
G04 #@! TA.AperFunction,SMDPad,CuDef*
G36*
G01*
X54005000Y-88575000D02*
X53455000Y-88575000D01*
G75*
G02*
X53255000Y-88375000I0J200000D01*
G01*
X53255000Y-87975000D01*
G75*
G02*
X53455000Y-87775000I200000J0D01*
G01*
X54005000Y-87775000D01*
G75*
G02*
X54205000Y-87975000I0J-200000D01*
G01*
X54205000Y-88375000D01*
G75*
G02*
X54005000Y-88575000I-200000J0D01*
G01*
G37*
G04 #@! TD.AperFunction*
G04 #@! TO.P,R3,1*
G04 #@! TO.N,/green*
G04 #@! TA.AperFunction,SMDPad,CuDef*
G36*
G01*
X54005000Y-90225000D02*
X53455000Y-90225000D01*
G75*
G02*
X53255000Y-90025000I0J200000D01*
G01*
X53255000Y-89625000D01*
G75*
G02*
X53455000Y-89425000I200000J0D01*
G01*
X54005000Y-89425000D01*
G75*
G02*
X54205000Y-89625000I0J-200000D01*
G01*
X54205000Y-90025000D01*
G75*
G02*
X54005000Y-90225000I-200000J0D01*
G01*
G37*
G04 #@! TD.AperFunction*
G04 #@! TD*
G04 #@! TO.P,R4,1*
G04 #@! TO.N,/green*
G04 #@! TA.AperFunction,SMDPad,CuDef*
G36*
G01*
X52005000Y-90280001D02*
X51455000Y-90280001D01*
G75*
G02*
X51255000Y-90080001I0J200000D01*
G01*
X51255000Y-89680001D01*
G75*
G02*
X51455000Y-89480001I200000J0D01*
G01*
X52005000Y-89480001D01*
G75*
G02*
X52205000Y-89680001I0J-200000D01*
G01*
X52205000Y-90080001D01*
G75*
G02*
X52005000Y-90280001I-200000J0D01*
G01*
G37*
G04 #@! TD.AperFunction*
G04 #@! TO.P,R4,2*
G04 #@! TO.N,mprj_io[15]*
G04 #@! TA.AperFunction,SMDPad,CuDef*
G36*
G01*
X52005000Y-88630001D02*
X51455000Y-88630001D01*
G75*
G02*
X51255000Y-88430001I0J200000D01*
G01*
X51255000Y-88030001D01*
G75*
G02*
X51455000Y-87830001I200000J0D01*
G01*
X52005000Y-87830001D01*
G75*
G02*
X52205000Y-88030001I0J-200000D01*
G01*
X52205000Y-88430001D01*
G75*
G02*
X52005000Y-88630001I-200000J0D01*
G01*
G37*
G04 #@! TD.AperFunction*
G04 #@! TD*
G04 #@! TO.P,R5,2*
G04 #@! TO.N,mprj_io[14]*
G04 #@! TA.AperFunction,SMDPad,CuDef*
G36*
G01*
X50005000Y-88575000D02*
X49455000Y-88575000D01*
G75*
G02*
X49255000Y-88375000I0J200000D01*
G01*
X49255000Y-87975000D01*
G75*
G02*
X49455000Y-87775000I200000J0D01*
G01*
X50005000Y-87775000D01*
G75*
G02*
X50205000Y-87975000I0J-200000D01*
G01*
X50205000Y-88375000D01*
G75*
G02*
X50005000Y-88575000I-200000J0D01*
G01*
G37*
G04 #@! TD.AperFunction*
G04 #@! TO.P,R5,1*
G04 #@! TO.N,/blue*
G04 #@! TA.AperFunction,SMDPad,CuDef*
G36*
G01*
X50005000Y-90225000D02*
X49455000Y-90225000D01*
G75*
G02*
X49255000Y-90025000I0J200000D01*
G01*
X49255000Y-89625000D01*
G75*
G02*
X49455000Y-89425000I200000J0D01*
G01*
X50005000Y-89425000D01*
G75*
G02*
X50205000Y-89625000I0J-200000D01*
G01*
X50205000Y-90025000D01*
G75*
G02*
X50005000Y-90225000I-200000J0D01*
G01*
G37*
G04 #@! TD.AperFunction*
G04 #@! TD*
G04 #@! TO.P,R6,1*
G04 #@! TO.N,/blue*
G04 #@! TA.AperFunction,SMDPad,CuDef*
G36*
G01*
X48005000Y-90225000D02*
X47455000Y-90225000D01*
G75*
G02*
X47255000Y-90025000I0J200000D01*
G01*
X47255000Y-89625000D01*
G75*
G02*
X47455000Y-89425000I200000J0D01*
G01*
X48005000Y-89425000D01*
G75*
G02*
X48205000Y-89625000I0J-200000D01*
G01*
X48205000Y-90025000D01*
G75*
G02*
X48005000Y-90225000I-200000J0D01*
G01*
G37*
G04 #@! TD.AperFunction*
G04 #@! TO.P,R6,2*
G04 #@! TO.N,mprj_io[13]*
G04 #@! TA.AperFunction,SMDPad,CuDef*
G36*
G01*
X48005000Y-88575000D02*
X47455000Y-88575000D01*
G75*
G02*
X47255000Y-88375000I0J200000D01*
G01*
X47255000Y-87975000D01*
G75*
G02*
X47455000Y-87775000I200000J0D01*
G01*
X48005000Y-87775000D01*
G75*
G02*
X48205000Y-87975000I0J-200000D01*
G01*
X48205000Y-88375000D01*
G75*
G02*
X48005000Y-88575000I-200000J0D01*
G01*
G37*
G04 #@! TD.AperFunction*
G04 #@! TD*
D15*
G04 #@! TO.P,J3,6*
G04 #@! TO.N,Net-(J3-Pad6)*
X56730000Y-62000000D03*
D16*
X60230000Y-64700000D03*
D17*
G04 #@! TO.P,J3,2*
G04 #@! TO.N,Net-(J3-Pad2)*
X58380000Y-64700000D03*
G04 #@! TO.P,J3,1*
G04 #@! TO.N,+5V*
X59030000Y-64700000D03*
G04 #@! TO.P,J3,5*
G04 #@! TO.N,GND*
X56430000Y-64700000D03*
G04 #@! TO.P,J3,4*
G04 #@! TO.N,Net-(J3-Pad4)*
X57080000Y-64700000D03*
G04 #@! TO.P,J3,3*
G04 #@! TO.N,Net-(J3-Pad3)*
X57730000Y-64700000D03*
D16*
G04 #@! TO.P,J3,6*
G04 #@! TO.N,Net-(J3-Pad6)*
X55230000Y-64700000D03*
D15*
X58730000Y-62000000D03*
D18*
X61230000Y-62000000D03*
X54230000Y-62000000D03*
D19*
X54830000Y-62000000D03*
X60630000Y-62000000D03*
G04 #@! TD*
G04 #@! TO.P,D1,1*
G04 #@! TO.N,Net-(D1-Pad1)*
G04 #@! TA.AperFunction,SMDPad,CuDef*
G36*
G01*
X45105000Y-71456250D02*
X45105000Y-70943750D01*
G75*
G02*
X45323750Y-70725000I218750J0D01*
G01*
X45761250Y-70725000D01*
G75*
G02*
X45980000Y-70943750I0J-218750D01*
G01*
X45980000Y-71456250D01*
G75*
G02*
X45761250Y-71675000I-218750J0D01*
G01*
X45323750Y-71675000D01*
G75*
G02*
X45105000Y-71456250I0J218750D01*
G01*
G37*
G04 #@! TD.AperFunction*
G04 #@! TO.P,D1,2*
G04 #@! TO.N,gpio*
G04 #@! TA.AperFunction,SMDPad,CuDef*
G36*
G01*
X46680000Y-71456250D02*
X46680000Y-70943750D01*
G75*
G02*
X46898750Y-70725000I218750J0D01*
G01*
X47336250Y-70725000D01*
G75*
G02*
X47555000Y-70943750I0J-218750D01*
G01*
X47555000Y-71456250D01*
G75*
G02*
X47336250Y-71675000I-218750J0D01*
G01*
X46898750Y-71675000D01*
G75*
G02*
X46680000Y-71456250I0J218750D01*
G01*
G37*
G04 #@! TD.AperFunction*
G04 #@! TD*
G04 #@! TO.P,R7,1*
G04 #@! TO.N,Net-(D1-Pad1)*
G04 #@! TA.AperFunction,SMDPad,CuDef*
G36*
G01*
X45105000Y-73475000D02*
X45105000Y-72925000D01*
G75*
G02*
X45305000Y-72725000I200000J0D01*
G01*
X45705000Y-72725000D01*
G75*
G02*
X45905000Y-72925000I0J-200000D01*
G01*
X45905000Y-73475000D01*
G75*
G02*
X45705000Y-73675000I-200000J0D01*
G01*
X45305000Y-73675000D01*
G75*
G02*
X45105000Y-73475000I0J200000D01*
G01*
G37*
G04 #@! TD.AperFunction*
G04 #@! TO.P,R7,2*
G04 #@! TO.N,GND*
G04 #@! TA.AperFunction,SMDPad,CuDef*
G36*
G01*
X46755000Y-73475000D02*
X46755000Y-72925000D01*
G75*
G02*
X46955000Y-72725000I200000J0D01*
G01*
X47355000Y-72725000D01*
G75*
G02*
X47555000Y-72925000I0J-200000D01*
G01*
X47555000Y-73475000D01*
G75*
G02*
X47355000Y-73675000I-200000J0D01*
G01*
X46955000Y-73675000D01*
G75*
G02*
X46755000Y-73475000I0J200000D01*
G01*
G37*
G04 #@! TD.AperFunction*
G04 #@! TD*
D20*
G04 #@! TO.P,SW1,1*
G04 #@! TO.N,mprj_io[8]*
X48730000Y-61550000D03*
G04 #@! TO.P,SW1,2*
G04 #@! TO.N,vdda*
X48730000Y-68450000D03*
G04 #@! TD*
G04 #@! TO.P,SW2,2*
G04 #@! TO.N,vdda*
X44230000Y-68450000D03*
G04 #@! TO.P,SW2,1*
G04 #@! TO.N,mprj_io[9]*
X44230000Y-61550000D03*
G04 #@! TD*
G04 #@! TO.P,SW3,1*
G04 #@! TO.N,mprj_io[10]*
X39730000Y-61550000D03*
G04 #@! TO.P,SW3,2*
G04 #@! TO.N,vdda*
X39730000Y-68450000D03*
G04 #@! TD*
D21*
G04 #@! TO.P,X1,1*
G04 #@! TO.N,Net-(X1-Pad1)*
X40780000Y-72800000D03*
G04 #@! TO.P,X1,2*
G04 #@! TO.N,GND*
X40780000Y-75200000D03*
G04 #@! TO.P,X1,3*
G04 #@! TO.N,clock*
X42680000Y-75200000D03*
G04 #@! TO.P,X1,4*
G04 #@! TO.N,vdda*
X42680000Y-72800000D03*
G04 #@! TD*
D22*
G04 #@! TO.N,GND*
X51730000Y-81000000D03*
X62980000Y-86250000D03*
X39730000Y-87250000D03*
X51230000Y-73500000D03*
X49230000Y-75000000D03*
X51480000Y-68000000D03*
X58230000Y-73500000D03*
X58230000Y-68000000D03*
X56230000Y-66250000D03*
X56330004Y-81600000D03*
X53872111Y-82657889D03*
X46730000Y-74000000D03*
X47730000Y-74500000D03*
X39510000Y-75600000D03*
G04 #@! TO.N,+5V*
X37730000Y-78200000D03*
X40930000Y-81000000D03*
G04 #@! TO.N,vccd*
X57330000Y-79600000D03*
X58530000Y-79800000D03*
X49930000Y-85200000D03*
X55730000Y-84800000D03*
G04 #@! TO.N,vdda*
X58930000Y-75800000D03*
X55530000Y-83000000D03*
G04 #@! TO.N,resetb*
X53256581Y-78317921D03*
X48930000Y-78600000D03*
G04 #@! TO.N,flash_io1*
X56930000Y-78600000D03*
X56529998Y-77200000D03*
G04 #@! TO.N,clock*
X54130000Y-79800000D03*
X44530000Y-76600000D03*
G04 #@! TO.N,mprj_io[3]*
X44980000Y-82250000D03*
X44230000Y-82000000D03*
G04 #@! TO.N,mprj_io[5]*
X45230000Y-83750000D03*
X44480000Y-83250000D03*
G04 #@! TO.N,mprj_io[0]*
X49529998Y-78800000D03*
X50615290Y-77962358D03*
G04 #@! TO.N,gpio*
X51130000Y-75000000D03*
X52230000Y-76000000D03*
G04 #@! TD*
D23*
G04 #@! TO.N,GND*
X51480000Y-81250000D02*
X51480000Y-80750000D01*
X51980000Y-80750000D02*
X51980000Y-81250000D01*
X51980000Y-80750000D02*
X51480000Y-80750000D01*
X51480000Y-81250000D02*
X51730000Y-81000000D01*
X51730000Y-81000000D02*
X51980000Y-80750000D01*
X50980000Y-80750000D02*
X51480000Y-80750000D01*
D24*
X62635000Y-85905000D02*
X62980000Y-86250000D01*
X62635000Y-84600000D02*
X62635000Y-85905000D01*
X38780000Y-86300000D02*
X39730000Y-87250000D01*
X38780000Y-86175000D02*
X38780000Y-86300000D01*
X52392500Y-73500000D02*
X51230000Y-73500000D01*
X49180000Y-75050000D02*
X49230000Y-75000000D01*
X49180000Y-76000000D02*
X49180000Y-75050000D01*
X52392500Y-68000000D02*
X51480000Y-68000000D01*
X59142500Y-73500000D02*
X58230000Y-73500000D01*
X59142500Y-68000000D02*
X58230000Y-68000000D01*
X52880000Y-69650000D02*
X52880000Y-68487492D01*
X52880000Y-68487492D02*
X52392508Y-68000000D01*
X59630000Y-69650000D02*
X59630000Y-68487500D01*
X59630000Y-68487500D02*
X59142506Y-68000006D01*
X56430000Y-66050000D02*
X56230000Y-66250000D01*
X56430000Y-64700000D02*
X56430000Y-66050000D01*
D25*
X50480000Y-80750000D02*
X50980000Y-80750000D01*
D24*
X55730000Y-80775000D02*
X55730000Y-80999996D01*
X55730000Y-80999996D02*
X56330004Y-81600000D01*
X56330004Y-81624996D02*
X55730000Y-82225000D01*
X56330004Y-81600000D02*
X56330004Y-81624996D01*
D26*
X52480000Y-82250000D02*
X52729301Y-82499301D01*
D25*
X51680000Y-81050000D02*
X51680000Y-81250000D01*
X52480000Y-80250000D02*
X51680000Y-81050000D01*
D23*
X51680000Y-81250000D02*
X51980000Y-81250000D01*
X51480000Y-81250000D02*
X51680000Y-81250000D01*
D25*
X47155000Y-73575000D02*
X46730000Y-74000000D01*
X47155000Y-73200000D02*
X47155000Y-73575000D01*
D23*
X47230000Y-75000000D02*
X47730000Y-74500000D01*
X47030000Y-75000000D02*
X47230000Y-75000000D01*
D27*
X53872111Y-82657889D02*
X53317889Y-82657889D01*
X53170000Y-82510000D02*
X53127762Y-82510000D01*
X53317889Y-82657889D02*
X53170000Y-82510000D01*
D26*
X53117063Y-82499301D02*
X53127762Y-82510000D01*
X52729301Y-82499301D02*
X53117063Y-82499301D01*
D24*
X40630000Y-75270000D02*
X39840000Y-75270000D01*
X39840000Y-75270000D02*
X39510000Y-75600000D01*
G04 #@! TO.N,+5V*
X59941290Y-67223790D02*
X60717500Y-68000000D01*
X53967500Y-68000000D02*
X54743710Y-67223790D01*
X59030000Y-67050000D02*
X59203790Y-67223790D01*
X59203790Y-67223790D02*
X59941290Y-67223790D01*
X59030000Y-64700000D02*
X59030000Y-67050000D01*
X54743710Y-67223790D02*
X59203790Y-67223790D01*
X60580000Y-68137500D02*
X60717500Y-68000000D01*
X60580000Y-69650000D02*
X60580000Y-68137500D01*
X53730000Y-69750000D02*
X53830000Y-69650000D01*
X53203799Y-71054979D02*
X53730000Y-70528778D01*
X53730000Y-70528778D02*
X53730000Y-69750000D01*
X52534979Y-71054979D02*
X53203799Y-71054979D01*
X51930000Y-70450000D02*
X52534979Y-71054979D01*
X51930000Y-69650000D02*
X51930000Y-70450000D01*
X60282838Y-70750000D02*
X60580000Y-70452838D01*
X60580000Y-70452838D02*
X60580000Y-69650000D01*
X59209039Y-70750000D02*
X60282838Y-70750000D01*
X58680000Y-70220961D02*
X59209039Y-70750000D01*
X58680000Y-69650000D02*
X58680000Y-70220961D01*
X53967500Y-69512500D02*
X53830000Y-69650000D01*
X53967500Y-68000000D02*
X53967500Y-69512500D01*
X41786802Y-79825000D02*
X42680000Y-79825000D01*
X40930000Y-80681802D02*
X41786802Y-79825000D01*
X40930000Y-81000000D02*
X40930000Y-80681802D01*
X37330000Y-65800000D02*
X37330000Y-77800000D01*
X49130000Y-64600000D02*
X38530000Y-64600000D01*
X37330000Y-77800000D02*
X37730000Y-78200000D01*
X50730000Y-66200000D02*
X49130000Y-64600000D01*
X50730000Y-68359071D02*
X50730000Y-66200000D01*
X38530000Y-64600000D02*
X37330000Y-65800000D01*
X51930000Y-69559071D02*
X50730000Y-68359071D01*
X51930000Y-70450000D02*
X51930000Y-69559071D01*
G04 #@! TO.N,vccd*
X60580000Y-73362500D02*
X60717500Y-73500000D01*
X60580000Y-71850000D02*
X60580000Y-73362500D01*
X55755000Y-79250000D02*
X55730000Y-79225000D01*
D23*
X52980000Y-78750000D02*
X53455000Y-79225000D01*
X53455000Y-79225000D02*
X55730000Y-79225000D01*
D24*
X56955000Y-79225000D02*
X57330000Y-79600000D01*
X62445779Y-79800000D02*
X58530000Y-79800000D01*
X63844711Y-76189711D02*
X63844711Y-78401068D01*
X60717500Y-73500000D02*
X61155000Y-73500000D01*
X63844711Y-78401068D02*
X62445779Y-79800000D01*
X61155000Y-73500000D02*
X63844711Y-76189711D01*
D25*
X50480000Y-82750000D02*
X50180000Y-82750000D01*
X49926790Y-83146862D02*
X49926790Y-83715828D01*
X49930000Y-83000000D02*
X49930000Y-83143652D01*
X49930000Y-83143652D02*
X49926790Y-83146862D01*
X50180000Y-82750000D02*
X49930000Y-83000000D01*
X49926790Y-83715828D02*
X49926790Y-85196790D01*
X49926790Y-85196790D02*
X49930000Y-85200000D01*
D24*
X56355000Y-79225000D02*
X56955000Y-79225000D01*
X55730000Y-79225000D02*
X56355000Y-79225000D01*
D25*
X56694706Y-83835294D02*
X56694706Y-79564706D01*
X56694706Y-79564706D02*
X56355000Y-79225000D01*
X55730000Y-84800000D02*
X56694706Y-83835294D01*
X54800000Y-83870000D02*
X55730000Y-84800000D01*
X54100000Y-83870000D02*
X54800000Y-83870000D01*
X52980000Y-82750000D02*
X54100000Y-83870000D01*
D24*
G04 #@! TO.N,vdda*
X42830000Y-70325000D02*
X42505000Y-70000000D01*
X42830000Y-72730000D02*
X42830000Y-70325000D01*
X53830000Y-73362500D02*
X53967500Y-73500000D01*
X53830000Y-71850000D02*
X53830000Y-73362500D01*
X51467500Y-76000000D02*
X53967500Y-73500000D01*
X50730000Y-76000000D02*
X51467500Y-76000000D01*
X57867500Y-77400000D02*
X53967500Y-73500000D01*
X58825000Y-77400000D02*
X57867500Y-77400000D01*
X50730000Y-76000000D02*
X49230000Y-77500000D01*
D25*
X50480000Y-78750000D02*
X49230000Y-77500000D01*
D24*
X40805000Y-77800000D02*
X38780000Y-79825000D01*
X48930000Y-77800000D02*
X40805000Y-77800000D01*
X49230000Y-77500000D02*
X48930000Y-77800000D01*
D26*
X51980000Y-81750000D02*
X52230000Y-82000000D01*
D25*
X55505000Y-83775000D02*
X55730000Y-83775000D01*
D24*
X58825000Y-75905000D02*
X58930000Y-75800000D01*
X58825000Y-77400000D02*
X58825000Y-75905000D01*
X55530000Y-83575000D02*
X55730000Y-83775000D01*
X55530000Y-83000000D02*
X55530000Y-83575000D01*
D26*
X51480000Y-81750000D02*
X51980000Y-81750000D01*
X51980000Y-80250000D02*
X52230000Y-80000000D01*
X52730699Y-80400699D02*
X52829301Y-80499301D01*
X52598966Y-80000000D02*
X52730699Y-80131733D01*
X52230000Y-80000000D02*
X52598966Y-80000000D01*
X52730699Y-80131733D02*
X52730699Y-80400699D01*
X52829301Y-80499301D02*
X53229301Y-80499301D01*
D24*
X40930002Y-70000000D02*
X39555001Y-68624999D01*
X42505000Y-70000000D02*
X40930002Y-70000000D01*
X42630000Y-70000000D02*
X44005001Y-68624999D01*
X42505000Y-70000000D02*
X42630000Y-70000000D01*
X44005001Y-68624999D02*
X48455001Y-68624999D01*
X43210000Y-72730000D02*
X45480000Y-75000000D01*
X42830000Y-72730000D02*
X43210000Y-72730000D01*
D25*
X53930000Y-82200000D02*
X55505000Y-83775000D01*
D27*
X53229301Y-80499301D02*
X53249301Y-80499301D01*
D26*
X53140000Y-82000000D02*
X53160000Y-82020000D01*
X52230000Y-82000000D02*
X53140000Y-82000000D01*
D25*
X53930000Y-82200000D02*
X53930000Y-81180000D01*
X53930000Y-81180000D02*
X53249301Y-80499301D01*
X53930000Y-82200000D02*
X53420000Y-82200000D01*
X53420000Y-82200000D02*
X53240000Y-82020000D01*
X53160000Y-82020000D02*
X53240000Y-82020000D01*
D24*
X41590000Y-73970000D02*
X42830000Y-72730000D01*
X39481222Y-73970000D02*
X41590000Y-73970000D01*
X38453799Y-78678799D02*
X38453799Y-74997423D01*
X38453799Y-74997423D02*
X39481222Y-73970000D01*
X38780000Y-79005000D02*
X38453799Y-78678799D01*
X38780000Y-79825000D02*
X38780000Y-79005000D01*
D25*
G04 #@! TO.N,flash_io0*
X61535000Y-78500000D02*
X62635000Y-77400000D01*
X57082085Y-77564702D02*
X58017383Y-78500000D01*
X56154940Y-77564702D02*
X57082085Y-77564702D01*
X56137027Y-77546789D02*
X56154940Y-77564702D01*
X52403211Y-77546789D02*
X56137027Y-77546789D01*
X58017383Y-78500000D02*
X61535000Y-78500000D01*
X51480000Y-78470000D02*
X52403211Y-77546789D01*
X51480000Y-78750000D02*
X51480000Y-78470000D01*
G04 #@! TO.N,flash_csb*
X58130000Y-83905000D02*
X58825000Y-84600000D01*
X58130000Y-79187382D02*
X58130000Y-83905000D01*
X57145827Y-78203209D02*
X58130000Y-79187382D01*
X54645829Y-77953211D02*
X54895827Y-78203209D01*
X53064172Y-77953211D02*
X54645829Y-77953211D01*
X52814172Y-78203211D02*
X53064172Y-77953211D01*
X52526789Y-78203211D02*
X52814172Y-78203211D01*
X54895827Y-78203209D02*
X57145827Y-78203209D01*
X51980000Y-78750000D02*
X52526789Y-78203211D01*
G04 #@! TO.N,resetb*
X42680000Y-86175000D02*
X41655000Y-86175000D01*
X52480000Y-78750000D02*
X52554766Y-78750000D01*
X52986845Y-78317921D02*
X53256581Y-78317921D01*
X52554766Y-78750000D02*
X52986845Y-78317921D01*
X48705001Y-78375001D02*
X48930000Y-78600000D01*
X40730002Y-79378770D02*
X41733771Y-78375001D01*
X40730001Y-79696461D02*
X40730002Y-79378770D01*
X37330000Y-80500000D02*
X39926462Y-80500000D01*
X36933211Y-80896789D02*
X37330000Y-80500000D01*
X39926462Y-80500000D02*
X40730001Y-79696461D01*
X38367382Y-87750000D02*
X36933211Y-86315829D01*
X41105000Y-87750000D02*
X38367382Y-87750000D01*
X41733771Y-78375001D02*
X48705001Y-78375001D01*
X36933211Y-86315829D02*
X36933211Y-80896789D01*
X42680000Y-86175000D02*
X41105000Y-87750000D01*
G04 #@! TO.N,mprj_io[2]*
X50480000Y-79250000D02*
X41433538Y-79250000D01*
X41136422Y-79547116D02*
X41136422Y-79864806D01*
X41136422Y-79864806D02*
X40330000Y-80671228D01*
X40107000Y-82365000D02*
X38780000Y-82365000D01*
X41433538Y-79250000D02*
X41136422Y-79547116D01*
X40330000Y-82142000D02*
X40107000Y-82365000D01*
X40330000Y-80671228D02*
X40330000Y-82142000D01*
D26*
G04 #@! TO.N,mprj_io[1]*
X50980000Y-79250000D02*
X50730000Y-79500000D01*
D27*
X50280000Y-79500000D02*
X50360000Y-79500000D01*
D26*
X50730000Y-79500000D02*
X50360000Y-79500000D01*
D25*
X44826462Y-79500000D02*
X50360000Y-79500000D01*
X43231462Y-81095000D02*
X44826462Y-79500000D01*
X42680000Y-81095000D02*
X43231462Y-81095000D01*
D26*
G04 #@! TO.N,flash_io1*
X51480000Y-79250000D02*
X51480000Y-79150000D01*
X51480000Y-79150000D02*
X51230699Y-78900699D01*
D25*
X51230699Y-78299301D02*
X52330000Y-77200000D01*
X52330000Y-77200000D02*
X56529998Y-77200000D01*
X59795000Y-84900000D02*
X60095000Y-84600000D01*
X58895000Y-85800000D02*
X59795000Y-84900000D01*
X57694702Y-79775058D02*
X57530000Y-79939760D01*
X58130000Y-85800000D02*
X58895000Y-85800000D01*
X57530000Y-85200000D02*
X58130000Y-85800000D01*
X57530000Y-79939760D02*
X57530000Y-85200000D01*
X57694702Y-79364702D02*
X57694702Y-79775058D01*
X56930000Y-78600000D02*
X57694702Y-79364702D01*
X51230699Y-78299301D02*
X51230699Y-78569301D01*
D26*
X51230699Y-78900699D02*
X51230699Y-78569301D01*
G04 #@! TO.N,clock*
X52229301Y-79499301D02*
X53229301Y-79499301D01*
X51980000Y-79250000D02*
X52229301Y-79499301D01*
D25*
X53229301Y-79499301D02*
X53530000Y-79800000D01*
X53530000Y-79800000D02*
X54130000Y-79800000D01*
X43200000Y-75270000D02*
X42830000Y-75270000D01*
X44530000Y-76600000D02*
X43200000Y-75270000D01*
G04 #@! TO.N,mprj_io[4]*
X39415000Y-83000000D02*
X38780000Y-83635000D01*
X43866462Y-83000000D02*
X39415000Y-83000000D01*
X46940240Y-79750000D02*
X44615298Y-82074942D01*
X44615298Y-82251164D02*
X43866462Y-83000000D01*
X44615298Y-82074942D02*
X44615298Y-82251164D01*
X50132196Y-79750000D02*
X46940240Y-79750000D01*
X50140616Y-79758420D02*
X50132196Y-79750000D01*
X50471580Y-79758420D02*
X50140616Y-79758420D01*
X50480000Y-79750000D02*
X50471580Y-79758420D01*
D26*
G04 #@! TO.N,mprj_io[3]*
X50980000Y-79750000D02*
X50730699Y-79999301D01*
D25*
X49730699Y-79999301D02*
X49730000Y-80000000D01*
X47230000Y-80000000D02*
X44980000Y-82250000D01*
X49730000Y-80000000D02*
X47230000Y-80000000D01*
X43045000Y-82000000D02*
X44230000Y-82000000D01*
X42680000Y-82365000D02*
X43045000Y-82000000D01*
D26*
X50730699Y-79999301D02*
X50329301Y-79999301D01*
D25*
X49730699Y-79999301D02*
X50329301Y-79999301D01*
D26*
G04 #@! TO.N,flash_clk*
X51480000Y-79750000D02*
X51730000Y-79500000D01*
X51730000Y-79500000D02*
X51730000Y-78631034D01*
D25*
X56070768Y-77767913D02*
X56997913Y-77767913D01*
X52980000Y-77750000D02*
X56052855Y-77750000D01*
X63480000Y-78250000D02*
X63480000Y-76767643D01*
X56997913Y-77767913D02*
X57980000Y-78750000D01*
X56052855Y-77750000D02*
X56070768Y-77767913D01*
X62962357Y-76250000D02*
X62515000Y-76250000D01*
X52361034Y-78000000D02*
X52730000Y-78000000D01*
X57980000Y-78750000D02*
X62980000Y-78750000D01*
X61665000Y-77100000D02*
X61365000Y-77400000D01*
X62515000Y-76250000D02*
X61665000Y-77100000D01*
X52730000Y-78000000D02*
X52980000Y-77750000D01*
X62980000Y-78750000D02*
X63480000Y-78250000D01*
X63480000Y-76767643D02*
X62962357Y-76250000D01*
D27*
X52361034Y-78000000D02*
X52340000Y-78000000D01*
X51730000Y-78610000D02*
X51730000Y-78631034D01*
D25*
X51730000Y-78590000D02*
X51730000Y-78610000D01*
X52320000Y-78000000D02*
X51730000Y-78590000D01*
X52340000Y-78000000D02*
X52320000Y-78000000D01*
G04 #@! TO.N,mprj_io[6]*
X39385000Y-84300000D02*
X38780000Y-84905000D01*
X43969760Y-84300000D02*
X39385000Y-84300000D01*
X45320367Y-82949393D02*
X43969760Y-84300000D01*
X45320367Y-82747484D02*
X45320367Y-82949393D01*
X47817852Y-80250000D02*
X45320367Y-82747484D01*
X50480000Y-80250000D02*
X47817852Y-80250000D01*
D26*
G04 #@! TO.N,mprj_io[5]*
X50980000Y-80250000D02*
X50730000Y-80500000D01*
D25*
X44095000Y-83635000D02*
X42680000Y-83635000D01*
X44480000Y-83250000D02*
X44095000Y-83635000D01*
X45523578Y-82831656D02*
X45523578Y-83456422D01*
X45523578Y-83456422D02*
X45230000Y-83750000D01*
X48480000Y-80500000D02*
X47855235Y-80500000D01*
X47855235Y-80500000D02*
X45523578Y-82831656D01*
D26*
X50500000Y-80500000D02*
X50340000Y-80500000D01*
X50730000Y-80500000D02*
X50500000Y-80500000D01*
D25*
X48480000Y-80500000D02*
X50340000Y-80500000D01*
G04 #@! TO.N,mprj_io[0]*
X39618845Y-81095000D02*
X40933211Y-79780632D01*
X41596154Y-78800000D02*
X48390240Y-78800000D01*
X48390240Y-78800000D02*
X48615239Y-79024999D01*
X49304999Y-79024999D02*
X49529998Y-78800000D01*
X48615239Y-79024999D02*
X49304999Y-79024999D01*
X40933211Y-79780632D02*
X40933212Y-79462942D01*
X40933212Y-79462942D02*
X41596154Y-78800000D01*
X38780000Y-81095000D02*
X39618845Y-81095000D01*
D26*
X51230000Y-80000000D02*
X51230000Y-79131034D01*
X51230000Y-79131034D02*
X51098267Y-78999301D01*
X51480000Y-80250000D02*
X51230000Y-80000000D01*
X51098267Y-78999301D02*
X50860335Y-78999301D01*
X50860335Y-78999301D02*
X50729301Y-78868267D01*
X50729301Y-78076369D02*
X50615290Y-77962358D01*
D27*
X50615290Y-78497528D02*
X50717762Y-78600000D01*
X50615290Y-78455290D02*
X50615290Y-78497528D01*
D26*
X50729301Y-78611539D02*
X50717762Y-78600000D01*
X50729301Y-78868267D02*
X50729301Y-78611539D01*
D25*
X50615290Y-77962358D02*
X50615290Y-78455290D01*
G04 #@! TO.N,mprj_io[8]*
X36530000Y-87000000D02*
X36530000Y-64900000D01*
X38123578Y-88593578D02*
X36530000Y-87000000D01*
X46280000Y-64000000D02*
X48730000Y-61550000D01*
X36530000Y-64900000D02*
X37430000Y-64000000D01*
X42736422Y-88593578D02*
X38123578Y-88593578D01*
X45930000Y-85400000D02*
X42736422Y-88593578D01*
X45930000Y-83000000D02*
X45930000Y-85400000D01*
X47680000Y-81250000D02*
X45930000Y-83000000D01*
X37430000Y-64000000D02*
X46280000Y-64000000D01*
X50480000Y-81250000D02*
X47680000Y-81250000D01*
D26*
G04 #@! TO.N,mprj_io[7]*
X50848966Y-81250000D02*
X50980000Y-81250000D01*
X50598966Y-81000000D02*
X50848966Y-81250000D01*
D25*
X47642618Y-81000000D02*
X49480000Y-81000000D01*
X44737618Y-84905000D02*
X45726789Y-83915829D01*
X45726789Y-82915828D02*
X47642618Y-81000000D01*
X45726789Y-83915829D02*
X45726789Y-82915828D01*
X42680000Y-84905000D02*
X44737618Y-84905000D01*
D27*
X49480000Y-81000000D02*
X50310000Y-81000000D01*
X50310000Y-81000000D02*
X50342238Y-81000000D01*
D26*
X50598966Y-81000000D02*
X50490000Y-81000000D01*
D25*
X49480000Y-81000000D02*
X50340000Y-81000000D01*
D26*
X50340000Y-81000000D02*
X50310000Y-81000000D01*
X50490000Y-81000000D02*
X50340000Y-81000000D01*
D25*
G04 #@! TO.N,mprj_io[10]*
X37929999Y-89000000D02*
X36123578Y-87193579D01*
X42930000Y-89000000D02*
X37929999Y-89000000D01*
X46336422Y-85593578D02*
X42930000Y-89000000D01*
X46336422Y-83593578D02*
X46336422Y-85593578D01*
X36123578Y-63929422D02*
X38503000Y-61550000D01*
X36123578Y-87193579D02*
X36123578Y-63929422D01*
X48030000Y-81900000D02*
X46336422Y-83593578D01*
X49467371Y-81750000D02*
X49317371Y-81900000D01*
X38503000Y-61550000D02*
X39730000Y-61550000D01*
X49317371Y-81900000D02*
X48030000Y-81900000D01*
X50480000Y-81750000D02*
X49467371Y-81750000D01*
D26*
G04 #@! TO.N,mprj_io[9]*
X50980000Y-81750000D02*
X50730699Y-81500699D01*
D27*
X50280000Y-81500000D02*
X50360000Y-81500000D01*
D26*
X50280699Y-81500699D02*
X50280000Y-81500000D01*
X50730699Y-81500699D02*
X50280699Y-81500699D01*
D25*
X50260000Y-81520000D02*
X50280000Y-81500000D01*
X47903692Y-81520000D02*
X50260000Y-81520000D01*
X46133211Y-85484172D02*
X46133211Y-83290481D01*
X42820594Y-88796789D02*
X46133211Y-85484172D01*
X38014171Y-88796789D02*
X42820594Y-88796789D01*
X36326789Y-87109407D02*
X38014171Y-88796789D01*
X36326789Y-64403211D02*
X36326789Y-87109407D01*
X46133211Y-83290481D02*
X47903692Y-81520000D01*
X37230000Y-63500000D02*
X36326789Y-64403211D01*
X42280000Y-63500000D02*
X37230000Y-63500000D01*
X44230000Y-61550000D02*
X42280000Y-63500000D01*
G04 #@! TO.N,mprj_io[12]*
X43480000Y-96425242D02*
X46594758Y-99540000D01*
X46480000Y-90250000D02*
X43480000Y-93250000D01*
X49230000Y-85234788D02*
X46480000Y-87984788D01*
X49230000Y-82750000D02*
X49230000Y-85234788D01*
X49730000Y-82250000D02*
X49230000Y-82750000D01*
X46594758Y-99540000D02*
X47194000Y-99540000D01*
X50480000Y-82250000D02*
X49730000Y-82250000D01*
X43480000Y-93250000D02*
X43480000Y-96425242D01*
X46480000Y-87984788D02*
X46480000Y-90250000D01*
D26*
G04 #@! TO.N,mprj_io[11]*
X50980000Y-82250000D02*
X50730000Y-82000000D01*
X50730000Y-82000000D02*
X50350000Y-82000000D01*
D25*
X49230000Y-82360000D02*
X49590000Y-82000000D01*
X44100176Y-101200000D02*
X43565088Y-100664912D01*
X43565088Y-100664912D02*
X43565088Y-97316401D01*
X43565088Y-97316401D02*
X42980000Y-96731313D01*
X49480000Y-99540000D02*
X47820000Y-101200000D01*
X47820000Y-101200000D02*
X44100176Y-101200000D01*
X48730000Y-82875000D02*
X49230000Y-82375000D01*
X49590000Y-82000000D02*
X50350000Y-82000000D01*
X42980000Y-96731313D02*
X42980000Y-93250000D01*
X42980000Y-93250000D02*
X45980000Y-90250000D01*
X45980000Y-90250000D02*
X45980000Y-87757890D01*
X45980000Y-87757890D02*
X48730000Y-85007890D01*
X48730000Y-85007890D02*
X48730000Y-82875000D01*
X49230000Y-82375000D02*
X49230000Y-82360000D01*
D26*
G04 #@! TO.N,mprj_io[13]*
X51230699Y-82499301D02*
X51480000Y-82250000D01*
D25*
X47730000Y-88175000D02*
X48205000Y-88175000D01*
X48205000Y-88175000D02*
X49530000Y-86850000D01*
X49526789Y-83003211D02*
X49530000Y-83000000D01*
X49530000Y-86850000D02*
X49530000Y-84487383D01*
X49530000Y-84487383D02*
X49526789Y-84484172D01*
X49526789Y-84484172D02*
X49526789Y-83003211D01*
D26*
X50310699Y-82499301D02*
X51230699Y-82499301D01*
D25*
X49526789Y-83003211D02*
X49556789Y-83003211D01*
X50060699Y-82499301D02*
X50310699Y-82499301D01*
X49556789Y-83003211D02*
X50060699Y-82499301D01*
D26*
G04 #@! TO.N,mprj_io[14]*
X50729301Y-83000699D02*
X50360335Y-83000699D01*
X50980000Y-82750000D02*
X50729301Y-83000699D01*
D27*
X50130000Y-87775000D02*
X49730000Y-88175000D01*
D25*
X50130000Y-83180000D02*
X50309301Y-83000699D01*
X50309301Y-83000699D02*
X50360335Y-83000699D01*
X50294702Y-85024942D02*
X50130000Y-84860240D01*
X50294702Y-85375058D02*
X50294702Y-85024942D01*
X50130000Y-85539760D02*
X50294702Y-85375058D01*
X50130000Y-84860240D02*
X50130000Y-83180000D01*
X50130000Y-87775000D02*
X50130000Y-85539760D01*
D26*
G04 #@! TO.N,mprj_io[17]*
X51480000Y-82750000D02*
X51230699Y-82999301D01*
D25*
X55730000Y-88000000D02*
X55730000Y-88175000D01*
X51230699Y-83500699D02*
X55730000Y-88000000D01*
D27*
X51230699Y-83500699D02*
X51230699Y-83339301D01*
D26*
X51230699Y-82999301D02*
X51230699Y-83339301D01*
D25*
X51230699Y-83500699D02*
X51230699Y-83407257D01*
G04 #@! TO.N,mprj_io[15]*
X50480000Y-83250000D02*
X50614999Y-83384999D01*
X51255000Y-88230001D02*
X51730000Y-88230001D01*
X50614999Y-83384999D02*
X50614999Y-87590000D01*
X50614999Y-87590000D02*
X51255000Y-88230001D01*
G04 #@! TO.N,mprj_io[16]*
X50980000Y-85425000D02*
X53730000Y-88175000D01*
X50980000Y-83250000D02*
X50980000Y-85425000D01*
G04 #@! TO.N,mprj_io[18]*
X53079701Y-83524701D02*
X57730000Y-88175000D01*
X51754701Y-83524701D02*
X53079701Y-83524701D01*
X51480000Y-83250000D02*
X51754701Y-83524701D01*
D24*
G04 #@! TO.N,/red*
X55730000Y-89825000D02*
X57730000Y-89825000D01*
X55730000Y-92782000D02*
X54052000Y-94460000D01*
X55730000Y-89825000D02*
X55730000Y-92782000D01*
G04 #@! TO.N,/green*
X53674999Y-89880001D02*
X53730000Y-89825000D01*
X51730000Y-89880001D02*
X53674999Y-89880001D01*
X51766000Y-89916001D02*
X51730000Y-89880001D01*
X51766000Y-94460000D02*
X51766000Y-89916001D01*
G04 #@! TO.N,/blue*
X47730000Y-89825000D02*
X49730000Y-89825000D01*
X49480000Y-90075000D02*
X49730000Y-89825000D01*
X49480000Y-94460000D02*
X49480000Y-90075000D01*
G04 #@! TO.N,Net-(J3-Pad6)*
X55230000Y-62400000D02*
X54830000Y-62000000D01*
X55230000Y-64700000D02*
X55230000Y-62400000D01*
X60230000Y-62400000D02*
X60630000Y-62000000D01*
X60230000Y-64700000D02*
X60230000Y-62400000D01*
X56730000Y-62000000D02*
X54830000Y-62000000D01*
X56730000Y-62000000D02*
X58730000Y-62000000D01*
X58730000Y-62000000D02*
X60630000Y-62000000D01*
D25*
G04 #@! TO.N,Net-(D1-Pad1)*
X45505000Y-71237500D02*
X45542500Y-71200000D01*
X45505000Y-73200000D02*
X45505000Y-71237500D01*
G04 #@! TO.N,gpio*
X47330000Y-71200000D02*
X47117500Y-71200000D01*
X51130000Y-75000000D02*
X47330000Y-71200000D01*
X50980000Y-77250000D02*
X52230000Y-76000000D01*
X50980000Y-78750000D02*
X50980000Y-77250000D01*
G04 #@! TD*
M02*
