%TF.GenerationSoftware,KiCad,Pcbnew,(5.1.7-0-10_14)*%
%TF.CreationDate,2020-11-23T19:13:45+00:00*%
%TF.ProjectId,carrier,63617272-6965-4722-9e6b-696361645f70,0.1*%
%TF.SameCoordinates,Original*%
%TF.FileFunction,Soldermask,Bot*%
%TF.FilePolarity,Negative*%
%FSLAX46Y46*%
G04 Gerber Fmt 4.6, Leading zero omitted, Abs format (unit mm)*
G04 Created by KiCad (PCBNEW (5.1.7-0-10_14)) date 2020-11-23 19:13:45*
%MOMM*%
%LPD*%
G01*
G04 APERTURE LIST*
%ADD10O,1.700000X1.700000*%
%ADD11R,1.700000X1.700000*%
G04 APERTURE END LIST*
D10*
%TO.C,J3*%
X76350000Y-109210000D03*
X76350000Y-106670000D03*
X76350000Y-104130000D03*
X76350000Y-101590000D03*
X76350000Y-99050000D03*
X76350000Y-96510000D03*
X76350000Y-93970000D03*
X76350000Y-91430000D03*
X76350000Y-88890000D03*
X76350000Y-86350000D03*
X76350000Y-83810000D03*
X76350000Y-81270000D03*
X76350000Y-78730000D03*
X76350000Y-76190000D03*
X76350000Y-73650000D03*
X76350000Y-71110000D03*
X76350000Y-68570000D03*
X76350000Y-66030000D03*
X76350000Y-63490000D03*
X76350000Y-60950000D03*
X76350000Y-58410000D03*
X76350000Y-55870000D03*
X76350000Y-53330000D03*
X76350000Y-50790000D03*
X76350000Y-48250000D03*
D11*
X76350000Y-45710000D03*
%TD*%
D10*
%TO.C,J2*%
X61110000Y-109210000D03*
X61110000Y-106670000D03*
X61110000Y-104130000D03*
X61110000Y-101590000D03*
X61110000Y-99050000D03*
X61110000Y-96510000D03*
X61110000Y-93970000D03*
X61110000Y-91430000D03*
X61110000Y-88890000D03*
X61110000Y-86350000D03*
X61110000Y-83810000D03*
X61110000Y-81270000D03*
X61110000Y-78730000D03*
X61110000Y-76190000D03*
X61110000Y-73650000D03*
X61110000Y-71110000D03*
X61110000Y-68570000D03*
X61110000Y-66030000D03*
X61110000Y-63490000D03*
X61110000Y-60950000D03*
X61110000Y-58410000D03*
X61110000Y-55870000D03*
X61110000Y-53330000D03*
X61110000Y-50790000D03*
X61110000Y-48250000D03*
D11*
X61110000Y-45710000D03*
%TD*%
M02*
