%TF.GenerationSoftware,KiCad,Pcbnew,(5.1.7-0-10_14)*%
%TF.CreationDate,2020-11-21T21:11:40+00:00*%
%TF.ProjectId,carrier,63617272-6965-4722-9e6b-696361645f70,0.1*%
%TF.SameCoordinates,Original*%
%TF.FileFunction,Copper,L4,Bot*%
%TF.FilePolarity,Positive*%
%FSLAX46Y46*%
G04 Gerber Fmt 4.6, Leading zero omitted, Abs format (unit mm)*
G04 Created by KiCad (PCBNEW (5.1.7-0-10_14)) date 2020-11-21 21:11:40*
%MOMM*%
%LPD*%
G01*
G04 APERTURE LIST*
%TA.AperFunction,ComponentPad*%
%ADD10O,1.700000X1.700000*%
%TD*%
%TA.AperFunction,ComponentPad*%
%ADD11R,1.700000X1.700000*%
%TD*%
%TA.AperFunction,ViaPad*%
%ADD12C,0.450000*%
%TD*%
%TA.AperFunction,Conductor*%
%ADD13C,0.450000*%
%TD*%
%TA.AperFunction,Conductor*%
%ADD14C,0.100000*%
%TD*%
G04 APERTURE END LIST*
D10*
%TO.P,J2,26*%
%TO.N,ext_vddio*%
X76350000Y-114290000D03*
%TO.P,J2,25*%
%TO.N,ext_1v8*%
X76350000Y-111750000D03*
%TO.P,J2,24*%
%TO.N,ext_3v3*%
X76350000Y-109210000D03*
%TO.P,J2,23*%
%TO.N,gpio*%
X76350000Y-106670000D03*
%TO.P,J2,22*%
%TO.N,resetb*%
X76350000Y-104130000D03*
%TO.P,J2,21*%
%TO.N,clock*%
X76350000Y-101590000D03*
%TO.P,J2,20*%
%TO.N,mprj_io[0]*%
X76350000Y-99050000D03*
%TO.P,J2,19*%
%TO.N,mprj_io[1]*%
X76350000Y-96510000D03*
%TO.P,J2,18*%
%TO.N,mprj_io[2]*%
X76350000Y-93970000D03*
%TO.P,J2,17*%
%TO.N,mprj_io[3]*%
X76350000Y-91430000D03*
%TO.P,J2,16*%
%TO.N,mprj_io[4]*%
X76350000Y-88890000D03*
%TO.P,J2,15*%
%TO.N,mprj_io[5]*%
X76350000Y-86350000D03*
%TO.P,J2,14*%
%TO.N,mprj_io[6]*%
X76350000Y-83810000D03*
%TO.P,J2,13*%
%TO.N,mprj_io[7]*%
X76350000Y-81270000D03*
%TO.P,J2,12*%
%TO.N,mprj_io[8]*%
X76350000Y-78730000D03*
%TO.P,J2,11*%
%TO.N,mprj_io[9]*%
X76350000Y-76190000D03*
%TO.P,J2,10*%
%TO.N,mprj_io[10]*%
X76350000Y-73650000D03*
%TO.P,J2,9*%
%TO.N,mprj_io[11]*%
X76350000Y-71110000D03*
%TO.P,J2,8*%
%TO.N,mprj_io[12]*%
X76350000Y-68570000D03*
%TO.P,J2,7*%
%TO.N,mprj_io[13]*%
X76350000Y-66030000D03*
%TO.P,J2,6*%
%TO.N,mprj_io[14]*%
X76350000Y-63490000D03*
%TO.P,J2,5*%
%TO.N,mprj_io[15]*%
X76350000Y-60950000D03*
%TO.P,J2,4*%
%TO.N,mprj_io[16]*%
X76350000Y-58410000D03*
%TO.P,J2,3*%
%TO.N,mprj_io[17]*%
X76350000Y-55870000D03*
%TO.P,J2,2*%
%TO.N,mprj_io[18]*%
X76350000Y-53330000D03*
D11*
%TO.P,J2,1*%
%TO.N,+5V*%
X76350000Y-50790000D03*
%TD*%
D10*
%TO.P,J1,26*%
%TO.N,GND*%
X61110000Y-114290000D03*
%TO.P,J1,25*%
%TO.N,Net-(J1-Pad25)*%
X61110000Y-111750000D03*
%TO.P,J1,24*%
%TO.N,flash_clk*%
X61110000Y-109210000D03*
%TO.P,J1,23*%
%TO.N,flash_io1*%
X61110000Y-106670000D03*
%TO.P,J1,22*%
%TO.N,flash_io0*%
X61110000Y-104130000D03*
%TO.P,J1,21*%
%TO.N,flash_csb*%
X61110000Y-101590000D03*
%TO.P,J1,20*%
%TO.N,GND*%
X61110000Y-99050000D03*
%TO.P,J1,19*%
%TO.N,mprj_io[37]*%
X61110000Y-96510000D03*
%TO.P,J1,18*%
%TO.N,mprj_io[36]*%
X61110000Y-93970000D03*
%TO.P,J1,17*%
%TO.N,mprj_io[35]*%
X61110000Y-91430000D03*
%TO.P,J1,16*%
%TO.N,mprj_io[34]*%
X61110000Y-88890000D03*
%TO.P,J1,15*%
%TO.N,mprj_io[33]*%
X61110000Y-86350000D03*
%TO.P,J1,14*%
%TO.N,mprj_io[32]*%
X61110000Y-83810000D03*
%TO.P,J1,13*%
%TO.N,mprj_io[31]*%
X61110000Y-81270000D03*
%TO.P,J1,12*%
%TO.N,mprj_io[30]*%
X61110000Y-78730000D03*
%TO.P,J1,11*%
%TO.N,mprj_io[29]*%
X61110000Y-76190000D03*
%TO.P,J1,10*%
%TO.N,mprj_io[28]*%
X61110000Y-73650000D03*
%TO.P,J1,9*%
%TO.N,mprj_io[27]*%
X61110000Y-71110000D03*
%TO.P,J1,8*%
%TO.N,mprj_io[26]*%
X61110000Y-68570000D03*
%TO.P,J1,7*%
%TO.N,mprj_io[25]*%
X61110000Y-66030000D03*
%TO.P,J1,6*%
%TO.N,mprj_io[24]*%
X61110000Y-63490000D03*
%TO.P,J1,5*%
%TO.N,mprj_io[23]*%
X61110000Y-60950000D03*
%TO.P,J1,4*%
%TO.N,mprj_io[22]*%
X61110000Y-58410000D03*
%TO.P,J1,3*%
%TO.N,mprj_io[21]*%
X61110000Y-55870000D03*
%TO.P,J1,2*%
%TO.N,mprj_io[20]*%
X61110000Y-53330000D03*
D11*
%TO.P,J1,1*%
%TO.N,mprj_io[19]*%
X61110000Y-50790000D03*
%TD*%
D12*
%TO.N,vdda*%
X72480000Y-112000000D03*
%TO.N,flash_csb*%
X68680000Y-84600000D03*
%TO.N,vdda*%
X71270000Y-65095000D03*
%TO.N,vddio*%
X72530000Y-113300000D03*
X72030000Y-113600000D03*
%TO.N,vccd1*%
X72530000Y-103600000D03*
X72030000Y-103900000D03*
%TO.N,vdda1*%
X72530000Y-98750000D03*
X72030000Y-99000000D03*
%TO.N,GND*%
X63630000Y-113850000D03*
X70780000Y-113400000D03*
X63680000Y-113400000D03*
X70730000Y-113850000D03*
%TO.N,+5V*%
X63630000Y-112300000D03*
X63680000Y-111850000D03*
%TO.N,GND*%
X63630000Y-110100000D03*
X70780000Y-109650000D03*
X63680000Y-109650000D03*
X70730000Y-110100000D03*
%TO.N,+5V*%
X63630000Y-108550000D03*
X63680000Y-108100000D03*
%TO.N,GND*%
X63630000Y-103550000D03*
X70780000Y-103100000D03*
X63680000Y-103100000D03*
X70730000Y-103550000D03*
%TO.N,+5V*%
X63630000Y-102000000D03*
X63680000Y-101550000D03*
X63630000Y-98250000D03*
X63680000Y-97800000D03*
%TO.N,vdda1*%
X72430000Y-78200000D03*
%TO.N,GND*%
X67005000Y-77875000D03*
X63730000Y-78100000D03*
%TO.N,vddio*%
X64930000Y-77550000D03*
%TO.N,vccd1*%
X64930000Y-76400000D03*
%TO.N,GND*%
X63980000Y-80725000D03*
%TO.N,vdda1*%
X64980000Y-81275000D03*
%TO.N,GND*%
X72730000Y-81900000D03*
%TO.N,vdda*%
X72230000Y-83050000D03*
%TO.N,GND*%
X68730000Y-80000000D03*
X70780000Y-99350000D03*
X70730000Y-99800000D03*
X63680000Y-99350000D03*
X63630000Y-99800000D03*
X70930000Y-88550000D03*
X70930000Y-87750000D03*
X65155000Y-84025000D03*
X66190000Y-68905000D03*
X66605000Y-77475000D03*
X63455010Y-77400000D03*
X71230000Y-61500000D03*
X73030000Y-78000000D03*
X72980010Y-79500000D03*
%TO.N,resetb*%
X74130000Y-69950000D03*
%TO.N,mprj_io[6]*%
X74130000Y-71300000D03*
%TO.N,mprj_io[5]*%
X73530000Y-71550000D03*
%TO.N,mprj_io[4]*%
X73530000Y-72200000D03*
%TO.N,mprj_io[3]*%
X73530000Y-72850000D03*
%TO.N,mprj_io[2]*%
X72930000Y-73100000D03*
%TO.N,mprj_io[1]*%
X72930000Y-73750000D03*
%TO.N,mprj_io[0]*%
X72930000Y-74400000D03*
%TO.N,mprj_io[7]*%
X74130000Y-70650000D03*
%TO.N,vddio*%
X65330000Y-73800000D03*
%TO.N,vccd*%
X70730000Y-108000000D03*
X70730000Y-108500000D03*
%TO.N,flash_io1*%
X70230000Y-84350000D03*
%TO.N,gpio*%
X71880000Y-84350000D03*
%TO.N,mprj_io[24]*%
X63855000Y-73850000D03*
%TO.N,mprj_io[19]*%
X63855000Y-73125000D03*
%TO.N,mprj_io[32]*%
X66205000Y-80625000D03*
%TO.N,vccd*%
X66155000Y-84575000D03*
%TO.N,vdda*%
X66330000Y-85450000D03*
X66330000Y-86350000D03*
%TO.N,+5V*%
X65330000Y-114000000D03*
X65330000Y-110300000D03*
X63730000Y-56500000D03*
%TO.N,mprj_io[11]*%
X71155000Y-78050000D03*
%TO.N,vdda*%
X71980000Y-112250000D03*
%TO.N,vccd1*%
X72330000Y-76700000D03*
%TO.N,vddio*%
X66230000Y-61500000D03*
%TO.N,gpio*%
X67080000Y-103800000D03*
X67080000Y-100050000D03*
%TO.N,flash_io0*%
X70655000Y-68900000D03*
X69454990Y-84350000D03*
%TO.N,flash_csb*%
X66680000Y-65100000D03*
%TO.N,flash_io1*%
X70280000Y-70100000D03*
%TO.N,resetb*%
X71280000Y-58300000D03*
%TO.N,mprj_io[2]*%
X68280000Y-61550000D03*
%TO.N,mprj_io[1]*%
X67280000Y-58300000D03*
%TO.N,mprj_io[36]*%
X64005000Y-84025000D03*
%TO.N,mprj_io[4]*%
X69230000Y-61550000D03*
%TO.N,mprj_io[3]*%
X68280000Y-58300000D03*
%TO.N,flash_clk*%
X70930000Y-82100000D03*
X71180000Y-67650000D03*
%TO.N,mprj_io[33]*%
X67430004Y-84050000D03*
%TO.N,mprj_io[34]*%
X63954998Y-83025000D03*
%TO.N,mprj_io[6]*%
X70280000Y-61550000D03*
%TO.N,mprj_io[5]*%
X69230000Y-58300000D03*
%TO.N,mprj_io[0]*%
X67230000Y-61550000D03*
%TO.N,mprj_io[7]*%
X70280000Y-58300000D03*
%TO.N,mprj_io[12]*%
X71180000Y-78624990D03*
%TO.N,mprj_io[15]*%
X71080000Y-76575010D03*
%TD*%
D13*
%TO.N,vdda*%
X71730001Y-70180343D02*
X71730001Y-65555001D01*
X72130000Y-80800000D02*
X70330000Y-79000000D01*
X71730001Y-65555001D02*
X71270000Y-65095000D01*
X72130000Y-82950000D02*
X72130000Y-80800000D01*
X72230000Y-83050000D02*
X72130000Y-82950000D01*
X70330000Y-71580344D02*
X71730001Y-70180343D01*
X70330000Y-79000000D02*
X70330000Y-71580344D01*
D14*
%TO.N,gpio*%
X68680000Y-102200000D02*
X67080000Y-103800000D01*
X72930000Y-95500000D02*
X72930000Y-101250000D01*
X71930000Y-94500000D02*
X72930000Y-95500000D01*
X72930000Y-101250000D02*
X73880000Y-102200000D01*
X71930000Y-84400000D02*
X71930000Y-94500000D01*
X71880000Y-84350000D02*
X71930000Y-84400000D01*
X69580000Y-101300000D02*
X68680000Y-102200000D01*
X72980000Y-101300000D02*
X69580000Y-101300000D01*
X73880000Y-102200000D02*
X72980000Y-101300000D01*
X68955000Y-101925000D02*
X67080000Y-100050000D01*
X68680000Y-102200000D02*
X68955000Y-101925000D01*
X73880000Y-104200000D02*
X76350000Y-106670000D01*
X73880000Y-102200000D02*
X73880000Y-104200000D01*
%TO.N,flash_io0*%
X69630000Y-89750000D02*
X69630000Y-84525010D01*
X62330000Y-102910000D02*
X62330000Y-97050000D01*
X61110000Y-104130000D02*
X62330000Y-102910000D01*
X69630000Y-84525010D02*
X69454990Y-84350000D01*
X62330000Y-97050000D02*
X69630000Y-89750000D01*
X70230000Y-68900000D02*
X70655000Y-68900000D01*
X69330000Y-69800000D02*
X70230000Y-68900000D01*
X69330000Y-84225010D02*
X69330000Y-69800000D01*
X69454990Y-84350000D02*
X69330000Y-84225010D01*
%TO.N,flash_csb*%
X69105001Y-70474999D02*
X69105001Y-70400000D01*
X68280000Y-65100000D02*
X66680000Y-65100000D01*
X69105001Y-65925001D02*
X68280000Y-65100000D01*
X69105001Y-70474999D02*
X69105001Y-65925001D01*
X62110001Y-100589999D02*
X61110000Y-101590000D01*
X68680000Y-84600000D02*
X68680000Y-90417142D01*
X68680000Y-90417142D02*
X62110001Y-96987141D01*
X62110001Y-96987141D02*
X62110001Y-100589999D01*
X69105001Y-84174999D02*
X69105001Y-70474999D01*
X68680000Y-84600000D02*
X69105001Y-84174999D01*
%TO.N,resetb*%
X72204999Y-71875001D02*
X74130000Y-69950000D01*
X73405001Y-75875001D02*
X72204999Y-74674999D01*
X73405001Y-101185001D02*
X73405001Y-75875001D01*
X72204999Y-74674999D02*
X72204999Y-71875001D01*
X76350000Y-104130000D02*
X73405001Y-101185001D01*
%TO.N,mprj_io[2]*%
X74030000Y-74200000D02*
X73030000Y-73200000D01*
X74030000Y-93724979D02*
X74030000Y-74200000D01*
X74275021Y-93970000D02*
X74030000Y-93724979D01*
X76350000Y-93970000D02*
X74275021Y-93970000D01*
%TO.N,mprj_io[1]*%
X73830000Y-96200000D02*
X73830000Y-74700000D01*
X73830000Y-74700000D02*
X72830000Y-73700000D01*
X76350000Y-96510000D02*
X76350000Y-96680000D01*
X76350000Y-96680000D02*
X76070000Y-96400000D01*
X74030000Y-96400000D02*
X73830000Y-96200000D01*
X76070000Y-96400000D02*
X74030000Y-96400000D01*
%TO.N,flash_io1*%
X69830000Y-84750000D02*
X70230000Y-84350000D01*
X69830000Y-89850000D02*
X69830000Y-84750000D01*
X62530010Y-97149990D02*
X69830000Y-89850000D01*
X62530010Y-105249990D02*
X62530010Y-97149990D01*
X61110000Y-106670000D02*
X62530010Y-105249990D01*
X69630000Y-70750000D02*
X70280000Y-70100000D01*
X69630000Y-83750000D02*
X69630000Y-70750000D01*
X70230000Y-84350000D02*
X69630000Y-83750000D01*
%TO.N,mprj_io[36]*%
X62330000Y-92750000D02*
X62330000Y-85700000D01*
X62330000Y-85700000D02*
X64005000Y-84025000D01*
X61110000Y-93970000D02*
X62330000Y-92750000D01*
%TO.N,mprj_io[4]*%
X74480000Y-88850000D02*
X74480000Y-73150000D01*
X74520000Y-88890000D02*
X74480000Y-88850000D01*
X74480000Y-73150000D02*
X73530000Y-72200000D01*
X76350000Y-88890000D02*
X74520000Y-88890000D01*
%TO.N,mprj_io[3]*%
X74280000Y-73600000D02*
X73530000Y-72850000D01*
X74280000Y-91410000D02*
X74280000Y-73600000D01*
X74260000Y-91430000D02*
X74280000Y-91410000D01*
X76350000Y-91430000D02*
X74260000Y-91430000D01*
%TO.N,flash_clk*%
X62730020Y-107589980D02*
X61110000Y-109210000D01*
X62730020Y-97299980D02*
X62730020Y-107589980D01*
X71380000Y-88650000D02*
X62730020Y-97299980D01*
X71380000Y-82550000D02*
X71380000Y-88650000D01*
X69930000Y-81100000D02*
X71380000Y-82550000D01*
X69930000Y-71450000D02*
X69930000Y-81100000D01*
X71030001Y-67749999D02*
X71030001Y-70349999D01*
X71180000Y-67650000D02*
X71130000Y-67650000D01*
X71130000Y-67650000D02*
X71030001Y-67749999D01*
X71030001Y-70349999D02*
X69930000Y-71450000D01*
%TO.N,mprj_io[33]*%
X61110000Y-85314996D02*
X61110000Y-86350000D01*
X66004999Y-82649999D02*
X63774997Y-82649999D01*
X67405000Y-84050000D02*
X66004999Y-82649999D01*
X63774997Y-82649999D02*
X61110000Y-85314996D01*
X67430004Y-84050000D02*
X67405000Y-84050000D01*
%TO.N,mprj_io[34]*%
X62130000Y-84849998D02*
X63954998Y-83025000D01*
X62130000Y-87870000D02*
X62130000Y-84849998D01*
X61110000Y-88890000D02*
X62130000Y-87870000D01*
%TO.N,mprj_io[6]*%
X74880000Y-72050000D02*
X74130000Y-71300000D01*
X74880000Y-83774939D02*
X74880000Y-72050000D01*
X74915061Y-83810000D02*
X74880000Y-83774939D01*
X76350000Y-83810000D02*
X74915061Y-83810000D01*
%TO.N,mprj_io[5]*%
X74680000Y-72700000D02*
X73530000Y-71550000D01*
X74680000Y-86174949D02*
X74680000Y-72700000D01*
X74855051Y-86350000D02*
X74680000Y-86174949D01*
X76350000Y-86350000D02*
X74855051Y-86350000D01*
%TO.N,mprj_io[0]*%
X76350000Y-99050000D02*
X76280000Y-99050000D01*
X73630000Y-75100000D02*
X72930000Y-74400000D01*
X73630000Y-98300000D02*
X73630000Y-75100000D01*
X74380000Y-99050000D02*
X73630000Y-98300000D01*
X76350000Y-99050000D02*
X74380000Y-99050000D01*
%TO.N,mprj_io[32]*%
X61110000Y-83039998D02*
X61110000Y-83810000D01*
X64905001Y-81924999D02*
X66205000Y-80625000D01*
X62995001Y-81924999D02*
X64905001Y-81924999D01*
X61110000Y-83810000D02*
X62995001Y-81924999D01*
%TO.N,mprj_io[7]*%
X75080000Y-80800000D02*
X75080000Y-71600000D01*
X75080000Y-71600000D02*
X74180000Y-70700000D01*
X75550000Y-81270000D02*
X75080000Y-80800000D01*
X74180000Y-70700000D02*
X74130000Y-70700000D01*
X76350000Y-81270000D02*
X75550000Y-81270000D01*
%TO.N,mprj_io[12]*%
X76320000Y-68600000D02*
X76350000Y-68570000D01*
X74230000Y-68600000D02*
X76320000Y-68600000D01*
X71580000Y-71250000D02*
X74230000Y-68600000D01*
X71580000Y-76650000D02*
X71580000Y-71250000D01*
X70779999Y-77450001D02*
X71580000Y-76650000D01*
X71180000Y-78624990D02*
X70980011Y-78425001D01*
X70779999Y-78230001D02*
X70779999Y-77450001D01*
X70974999Y-78425001D02*
X70779999Y-78230001D01*
X70980011Y-78425001D02*
X70974999Y-78425001D01*
%TO.N,mprj_io[11]*%
X76350000Y-70470000D02*
X76350000Y-71110000D01*
X73830000Y-69400000D02*
X75280000Y-69400000D01*
X71830000Y-71400000D02*
X73830000Y-69400000D01*
X71155000Y-77375000D02*
X71830000Y-76700000D01*
X71830000Y-76700000D02*
X71830000Y-71400000D01*
X75280000Y-69400000D02*
X76350000Y-70470000D01*
X71155000Y-78050000D02*
X71155000Y-77375000D01*
%TO.N,mprj_io[24]*%
X62479990Y-72474990D02*
X62479990Y-64859990D01*
X62479990Y-64859990D02*
X61110000Y-63490000D01*
X63855000Y-73850000D02*
X62479990Y-72474990D01*
%TO.N,mprj_io[15]*%
X75349999Y-61950001D02*
X76350000Y-60950000D01*
X75349999Y-67130001D02*
X75349999Y-61950001D01*
X71080000Y-71400000D02*
X75349999Y-67130001D01*
X71080000Y-76575010D02*
X71080000Y-71400000D01*
%TO.N,mprj_io[19]*%
X62680000Y-71950000D02*
X62680000Y-52360000D01*
X62680000Y-52360000D02*
X61110000Y-50790000D01*
X63855000Y-73125000D02*
X62680000Y-71950000D01*
%TD*%
M02*
