%TF.GenerationSoftware,KiCad,Pcbnew,(5.1.7-0-10_14)*%
%TF.CreationDate,2020-11-23T12:08:10+00:00*%
%TF.ProjectId,carrier,63617272-6965-4722-9e6b-696361645f70,0.1*%
%TF.SameCoordinates,Original*%
%TF.FileFunction,Paste,Top*%
%TF.FilePolarity,Positive*%
%FSLAX46Y46*%
G04 Gerber Fmt 4.6, Leading zero omitted, Abs format (unit mm)*
G04 Created by KiCad (PCBNEW (5.1.7-0-10_14)) date 2020-11-23 12:08:10*
%MOMM*%
%LPD*%
G01*
G04 APERTURE LIST*
%ADD10R,1.500000X1.400000*%
%ADD11R,0.400000X1.900000*%
%ADD12R,0.960000X0.550000*%
%ADD13C,0.180000*%
G04 APERTURE END LIST*
%TO.C,U2*%
G36*
G01*
X71580000Y-65220000D02*
X71580000Y-64970000D01*
G75*
G02*
X71705000Y-64845000I125000J0D01*
G01*
X72955000Y-64845000D01*
G75*
G02*
X73080000Y-64970000I0J-125000D01*
G01*
X73080000Y-65220000D01*
G75*
G02*
X72955000Y-65345000I-125000J0D01*
G01*
X71705000Y-65345000D01*
G75*
G02*
X71580000Y-65220000I0J125000D01*
G01*
G37*
G36*
G01*
X71580000Y-66490000D02*
X71580000Y-66240000D01*
G75*
G02*
X71705000Y-66115000I125000J0D01*
G01*
X72955000Y-66115000D01*
G75*
G02*
X73080000Y-66240000I0J-125000D01*
G01*
X73080000Y-66490000D01*
G75*
G02*
X72955000Y-66615000I-125000J0D01*
G01*
X71705000Y-66615000D01*
G75*
G02*
X71580000Y-66490000I0J125000D01*
G01*
G37*
G36*
G01*
X71580000Y-67760000D02*
X71580000Y-67510000D01*
G75*
G02*
X71705000Y-67385000I125000J0D01*
G01*
X72955000Y-67385000D01*
G75*
G02*
X73080000Y-67510000I0J-125000D01*
G01*
X73080000Y-67760000D01*
G75*
G02*
X72955000Y-67885000I-125000J0D01*
G01*
X71705000Y-67885000D01*
G75*
G02*
X71580000Y-67760000I0J125000D01*
G01*
G37*
G36*
G01*
X71580000Y-69030000D02*
X71580000Y-68780000D01*
G75*
G02*
X71705000Y-68655000I125000J0D01*
G01*
X72955000Y-68655000D01*
G75*
G02*
X73080000Y-68780000I0J-125000D01*
G01*
X73080000Y-69030000D01*
G75*
G02*
X72955000Y-69155000I-125000J0D01*
G01*
X71705000Y-69155000D01*
G75*
G02*
X71580000Y-69030000I0J125000D01*
G01*
G37*
G36*
G01*
X64380000Y-69030000D02*
X64380000Y-68780000D01*
G75*
G02*
X64505000Y-68655000I125000J0D01*
G01*
X65755000Y-68655000D01*
G75*
G02*
X65880000Y-68780000I0J-125000D01*
G01*
X65880000Y-69030000D01*
G75*
G02*
X65755000Y-69155000I-125000J0D01*
G01*
X64505000Y-69155000D01*
G75*
G02*
X64380000Y-69030000I0J125000D01*
G01*
G37*
G36*
G01*
X64380000Y-67760000D02*
X64380000Y-67510000D01*
G75*
G02*
X64505000Y-67385000I125000J0D01*
G01*
X65755000Y-67385000D01*
G75*
G02*
X65880000Y-67510000I0J-125000D01*
G01*
X65880000Y-67760000D01*
G75*
G02*
X65755000Y-67885000I-125000J0D01*
G01*
X64505000Y-67885000D01*
G75*
G02*
X64380000Y-67760000I0J125000D01*
G01*
G37*
G36*
G01*
X64380000Y-66490000D02*
X64380000Y-66240000D01*
G75*
G02*
X64505000Y-66115000I125000J0D01*
G01*
X65755000Y-66115000D01*
G75*
G02*
X65880000Y-66240000I0J-125000D01*
G01*
X65880000Y-66490000D01*
G75*
G02*
X65755000Y-66615000I-125000J0D01*
G01*
X64505000Y-66615000D01*
G75*
G02*
X64380000Y-66490000I0J125000D01*
G01*
G37*
G36*
G01*
X64380000Y-65220000D02*
X64380000Y-64970000D01*
G75*
G02*
X64505000Y-64845000I125000J0D01*
G01*
X65755000Y-64845000D01*
G75*
G02*
X65880000Y-64970000I0J-125000D01*
G01*
X65880000Y-65220000D01*
G75*
G02*
X65755000Y-65345000I-125000J0D01*
G01*
X64505000Y-65345000D01*
G75*
G02*
X64380000Y-65220000I0J125000D01*
G01*
G37*
%TD*%
D10*
%TO.C,X1*%
X67361600Y-85900000D03*
X69901600Y-85900000D03*
X69901600Y-88100000D03*
X67361600Y-88100000D03*
%TD*%
%TO.C,C16*%
G36*
G01*
X65132500Y-86755000D02*
X65427500Y-86755000D01*
G75*
G02*
X65550000Y-86877500I0J-122500D01*
G01*
X65550000Y-87122500D01*
G75*
G02*
X65427500Y-87245000I-122500J0D01*
G01*
X65132500Y-87245000D01*
G75*
G02*
X65010000Y-87122500I0J122500D01*
G01*
X65010000Y-86877500D01*
G75*
G02*
X65132500Y-86755000I122500J0D01*
G01*
G37*
G36*
G01*
X65132500Y-85785000D02*
X65427500Y-85785000D01*
G75*
G02*
X65550000Y-85907500I0J-122500D01*
G01*
X65550000Y-86152500D01*
G75*
G02*
X65427500Y-86275000I-122500J0D01*
G01*
X65132500Y-86275000D01*
G75*
G02*
X65010000Y-86152500I0J122500D01*
G01*
X65010000Y-85907500D01*
G75*
G02*
X65132500Y-85785000I122500J0D01*
G01*
G37*
%TD*%
%TO.C,C15*%
G36*
G01*
X64690000Y-76802500D02*
X64690000Y-77097500D01*
G75*
G02*
X64567500Y-77220000I-122500J0D01*
G01*
X64322500Y-77220000D01*
G75*
G02*
X64200000Y-77097500I0J122500D01*
G01*
X64200000Y-76802500D01*
G75*
G02*
X64322500Y-76680000I122500J0D01*
G01*
X64567500Y-76680000D01*
G75*
G02*
X64690000Y-76802500I0J-122500D01*
G01*
G37*
G36*
G01*
X65660000Y-76802500D02*
X65660000Y-77097500D01*
G75*
G02*
X65537500Y-77220000I-122500J0D01*
G01*
X65292500Y-77220000D01*
G75*
G02*
X65170000Y-77097500I0J122500D01*
G01*
X65170000Y-76802500D01*
G75*
G02*
X65292500Y-76680000I122500J0D01*
G01*
X65537500Y-76680000D01*
G75*
G02*
X65660000Y-76802500I0J-122500D01*
G01*
G37*
%TD*%
%TO.C,C14*%
G36*
G01*
X64740000Y-80577500D02*
X64740000Y-80872500D01*
G75*
G02*
X64617500Y-80995000I-122500J0D01*
G01*
X64372500Y-80995000D01*
G75*
G02*
X64250000Y-80872500I0J122500D01*
G01*
X64250000Y-80577500D01*
G75*
G02*
X64372500Y-80455000I122500J0D01*
G01*
X64617500Y-80455000D01*
G75*
G02*
X64740000Y-80577500I0J-122500D01*
G01*
G37*
G36*
G01*
X65710000Y-80577500D02*
X65710000Y-80872500D01*
G75*
G02*
X65587500Y-80995000I-122500J0D01*
G01*
X65342500Y-80995000D01*
G75*
G02*
X65220000Y-80872500I0J122500D01*
G01*
X65220000Y-80577500D01*
G75*
G02*
X65342500Y-80455000I122500J0D01*
G01*
X65587500Y-80455000D01*
G75*
G02*
X65710000Y-80577500I0J-122500D01*
G01*
G37*
%TD*%
%TO.C,C13*%
G36*
G01*
X72570000Y-77447500D02*
X72570000Y-77152500D01*
G75*
G02*
X72692500Y-77030000I122500J0D01*
G01*
X72937500Y-77030000D01*
G75*
G02*
X73060000Y-77152500I0J-122500D01*
G01*
X73060000Y-77447500D01*
G75*
G02*
X72937500Y-77570000I-122500J0D01*
G01*
X72692500Y-77570000D01*
G75*
G02*
X72570000Y-77447500I0J122500D01*
G01*
G37*
G36*
G01*
X71600000Y-77447500D02*
X71600000Y-77152500D01*
G75*
G02*
X71722500Y-77030000I122500J0D01*
G01*
X71967500Y-77030000D01*
G75*
G02*
X72090000Y-77152500I0J-122500D01*
G01*
X72090000Y-77447500D01*
G75*
G02*
X71967500Y-77570000I-122500J0D01*
G01*
X71722500Y-77570000D01*
G75*
G02*
X71600000Y-77447500I0J122500D01*
G01*
G37*
%TD*%
%TO.C,C12*%
G36*
G01*
X72570000Y-79047500D02*
X72570000Y-78752500D01*
G75*
G02*
X72692500Y-78630000I122500J0D01*
G01*
X72937500Y-78630000D01*
G75*
G02*
X73060000Y-78752500I0J-122500D01*
G01*
X73060000Y-79047500D01*
G75*
G02*
X72937500Y-79170000I-122500J0D01*
G01*
X72692500Y-79170000D01*
G75*
G02*
X72570000Y-79047500I0J122500D01*
G01*
G37*
G36*
G01*
X71600000Y-79047500D02*
X71600000Y-78752500D01*
G75*
G02*
X71722500Y-78630000I122500J0D01*
G01*
X71967500Y-78630000D01*
G75*
G02*
X72090000Y-78752500I0J-122500D01*
G01*
X72090000Y-79047500D01*
G75*
G02*
X71967500Y-79170000I-122500J0D01*
G01*
X71722500Y-79170000D01*
G75*
G02*
X71600000Y-79047500I0J122500D01*
G01*
G37*
%TD*%
%TO.C,C11*%
G36*
G01*
X65915000Y-83877500D02*
X65915000Y-84172500D01*
G75*
G02*
X65792500Y-84295000I-122500J0D01*
G01*
X65547500Y-84295000D01*
G75*
G02*
X65425000Y-84172500I0J122500D01*
G01*
X65425000Y-83877500D01*
G75*
G02*
X65547500Y-83755000I122500J0D01*
G01*
X65792500Y-83755000D01*
G75*
G02*
X65915000Y-83877500I0J-122500D01*
G01*
G37*
G36*
G01*
X66885000Y-83877500D02*
X66885000Y-84172500D01*
G75*
G02*
X66762500Y-84295000I-122500J0D01*
G01*
X66517500Y-84295000D01*
G75*
G02*
X66395000Y-84172500I0J122500D01*
G01*
X66395000Y-83877500D01*
G75*
G02*
X66517500Y-83755000I122500J0D01*
G01*
X66762500Y-83755000D01*
G75*
G02*
X66885000Y-83877500I0J-122500D01*
G01*
G37*
%TD*%
%TO.C,C10*%
G36*
G01*
X72485000Y-82647500D02*
X72485000Y-82352500D01*
G75*
G02*
X72607500Y-82230000I122500J0D01*
G01*
X72852500Y-82230000D01*
G75*
G02*
X72975000Y-82352500I0J-122500D01*
G01*
X72975000Y-82647500D01*
G75*
G02*
X72852500Y-82770000I-122500J0D01*
G01*
X72607500Y-82770000D01*
G75*
G02*
X72485000Y-82647500I0J122500D01*
G01*
G37*
G36*
G01*
X71515000Y-82647500D02*
X71515000Y-82352500D01*
G75*
G02*
X71637500Y-82230000I122500J0D01*
G01*
X71882500Y-82230000D01*
G75*
G02*
X72005000Y-82352500I0J-122500D01*
G01*
X72005000Y-82647500D01*
G75*
G02*
X71882500Y-82770000I-122500J0D01*
G01*
X71637500Y-82770000D01*
G75*
G02*
X71515000Y-82647500I0J122500D01*
G01*
G37*
%TD*%
%TO.C,C9*%
G36*
G01*
X64690000Y-77952500D02*
X64690000Y-78247500D01*
G75*
G02*
X64567500Y-78370000I-122500J0D01*
G01*
X64322500Y-78370000D01*
G75*
G02*
X64200000Y-78247500I0J122500D01*
G01*
X64200000Y-77952500D01*
G75*
G02*
X64322500Y-77830000I122500J0D01*
G01*
X64567500Y-77830000D01*
G75*
G02*
X64690000Y-77952500I0J-122500D01*
G01*
G37*
G36*
G01*
X65660000Y-77952500D02*
X65660000Y-78247500D01*
G75*
G02*
X65537500Y-78370000I-122500J0D01*
G01*
X65292500Y-78370000D01*
G75*
G02*
X65170000Y-78247500I0J122500D01*
G01*
X65170000Y-77952500D01*
G75*
G02*
X65292500Y-77830000I122500J0D01*
G01*
X65537500Y-77830000D01*
G75*
G02*
X65660000Y-77952500I0J-122500D01*
G01*
G37*
%TD*%
D11*
%TO.C,J1*%
X71270000Y-56850000D03*
X71270000Y-60150000D03*
X70270000Y-56850000D03*
X70270000Y-60150000D03*
X69270000Y-56850000D03*
X69270000Y-60150000D03*
X68270000Y-56850000D03*
X68270000Y-60150000D03*
X67270000Y-56850000D03*
X67270000Y-60150000D03*
X66270000Y-56850000D03*
X66270000Y-60150000D03*
%TD*%
D12*
%TO.C,U3*%
X68280000Y-98150000D03*
X68280000Y-100050000D03*
X66080000Y-100050000D03*
X66080000Y-99100000D03*
X66080000Y-98150000D03*
%TD*%
%TO.C,U6*%
X68280000Y-112200000D03*
X68280000Y-114100000D03*
X66080000Y-114100000D03*
X66080000Y-113150000D03*
X66080000Y-112200000D03*
%TD*%
%TO.C,U4*%
X68280000Y-101900000D03*
X68280000Y-103800000D03*
X66080000Y-103800000D03*
X66080000Y-102850000D03*
X66080000Y-101900000D03*
%TD*%
%TO.C,U5*%
X68280000Y-108450000D03*
X68280000Y-110350000D03*
X66080000Y-110350000D03*
X66080000Y-109400000D03*
X66080000Y-108450000D03*
%TD*%
D13*
%TO.C,U1*%
X69980000Y-82250000D03*
X69480000Y-82250000D03*
X68980000Y-82250000D03*
X68480000Y-82250000D03*
X67980000Y-82250000D03*
X67480000Y-82250000D03*
X69980000Y-81750000D03*
X69480000Y-81750000D03*
X68980000Y-81750000D03*
X68480000Y-81750000D03*
X67980000Y-81750000D03*
X67480000Y-81750000D03*
X69980000Y-81250000D03*
X69480000Y-81250000D03*
X68980000Y-81250000D03*
X68480000Y-81250000D03*
X67980000Y-81250000D03*
X67480000Y-81250000D03*
X69980000Y-80750000D03*
X69480000Y-80750000D03*
X68980000Y-80750000D03*
X68480000Y-80750000D03*
X67980000Y-80750000D03*
X67480000Y-80750000D03*
X69980000Y-80250000D03*
X69480000Y-80250000D03*
X68980000Y-80250000D03*
X68480000Y-80250000D03*
X67980000Y-80250000D03*
X67480000Y-80250000D03*
X69980000Y-79750000D03*
X69480000Y-79750000D03*
X68980000Y-79750000D03*
X68480000Y-79750000D03*
X67980000Y-79750000D03*
X67480000Y-79750000D03*
X69980000Y-79250000D03*
X69480000Y-79250000D03*
X68980000Y-79250000D03*
X68480000Y-79250000D03*
X67980000Y-79250000D03*
X67480000Y-79250000D03*
X69980000Y-78750000D03*
X69480000Y-78750000D03*
X68980000Y-78750000D03*
X68480000Y-78750000D03*
X67980000Y-78750000D03*
X67480000Y-78750000D03*
X69980000Y-78250000D03*
X69480000Y-78250000D03*
X68980000Y-78250000D03*
X68480000Y-78250000D03*
X67980000Y-78250000D03*
X67480000Y-78250000D03*
X69980000Y-77750000D03*
X69480000Y-77750000D03*
X68980000Y-77750000D03*
X68480000Y-77750000D03*
X67980000Y-77750000D03*
X67480000Y-77750000D03*
%TD*%
%TO.C,C8*%
G36*
G01*
X69698750Y-99196000D02*
X70161250Y-99196000D01*
G75*
G02*
X70355000Y-99389750I0J-193750D01*
G01*
X70355000Y-99777250D01*
G75*
G02*
X70161250Y-99971000I-193750J0D01*
G01*
X69698750Y-99971000D01*
G75*
G02*
X69505000Y-99777250I0J193750D01*
G01*
X69505000Y-99389750D01*
G75*
G02*
X69698750Y-99196000I193750J0D01*
G01*
G37*
G36*
G01*
X69698750Y-97621000D02*
X70161250Y-97621000D01*
G75*
G02*
X70355000Y-97814750I0J-193750D01*
G01*
X70355000Y-98202250D01*
G75*
G02*
X70161250Y-98396000I-193750J0D01*
G01*
X69698750Y-98396000D01*
G75*
G02*
X69505000Y-98202250I0J193750D01*
G01*
X69505000Y-97814750D01*
G75*
G02*
X69698750Y-97621000I193750J0D01*
G01*
G37*
%TD*%
%TO.C,C7*%
G36*
G01*
X69698750Y-113250000D02*
X70161250Y-113250000D01*
G75*
G02*
X70355000Y-113443750I0J-193750D01*
G01*
X70355000Y-113831250D01*
G75*
G02*
X70161250Y-114025000I-193750J0D01*
G01*
X69698750Y-114025000D01*
G75*
G02*
X69505000Y-113831250I0J193750D01*
G01*
X69505000Y-113443750D01*
G75*
G02*
X69698750Y-113250000I193750J0D01*
G01*
G37*
G36*
G01*
X69698750Y-111675000D02*
X70161250Y-111675000D01*
G75*
G02*
X70355000Y-111868750I0J-193750D01*
G01*
X70355000Y-112256250D01*
G75*
G02*
X70161250Y-112450000I-193750J0D01*
G01*
X69698750Y-112450000D01*
G75*
G02*
X69505000Y-112256250I0J193750D01*
G01*
X69505000Y-111868750D01*
G75*
G02*
X69698750Y-111675000I193750J0D01*
G01*
G37*
%TD*%
%TO.C,C6*%
G36*
G01*
X64198750Y-102950000D02*
X64661250Y-102950000D01*
G75*
G02*
X64855000Y-103143750I0J-193750D01*
G01*
X64855000Y-103531250D01*
G75*
G02*
X64661250Y-103725000I-193750J0D01*
G01*
X64198750Y-103725000D01*
G75*
G02*
X64005000Y-103531250I0J193750D01*
G01*
X64005000Y-103143750D01*
G75*
G02*
X64198750Y-102950000I193750J0D01*
G01*
G37*
G36*
G01*
X64198750Y-101375000D02*
X64661250Y-101375000D01*
G75*
G02*
X64855000Y-101568750I0J-193750D01*
G01*
X64855000Y-101956250D01*
G75*
G02*
X64661250Y-102150000I-193750J0D01*
G01*
X64198750Y-102150000D01*
G75*
G02*
X64005000Y-101956250I0J193750D01*
G01*
X64005000Y-101568750D01*
G75*
G02*
X64198750Y-101375000I193750J0D01*
G01*
G37*
%TD*%
%TO.C,C5*%
G36*
G01*
X64198750Y-113250000D02*
X64661250Y-113250000D01*
G75*
G02*
X64855000Y-113443750I0J-193750D01*
G01*
X64855000Y-113831250D01*
G75*
G02*
X64661250Y-114025000I-193750J0D01*
G01*
X64198750Y-114025000D01*
G75*
G02*
X64005000Y-113831250I0J193750D01*
G01*
X64005000Y-113443750D01*
G75*
G02*
X64198750Y-113250000I193750J0D01*
G01*
G37*
G36*
G01*
X64198750Y-111675000D02*
X64661250Y-111675000D01*
G75*
G02*
X64855000Y-111868750I0J-193750D01*
G01*
X64855000Y-112256250D01*
G75*
G02*
X64661250Y-112450000I-193750J0D01*
G01*
X64198750Y-112450000D01*
G75*
G02*
X64005000Y-112256250I0J193750D01*
G01*
X64005000Y-111868750D01*
G75*
G02*
X64198750Y-111675000I193750J0D01*
G01*
G37*
%TD*%
%TO.C,C4*%
G36*
G01*
X69698750Y-102950000D02*
X70161250Y-102950000D01*
G75*
G02*
X70355000Y-103143750I0J-193750D01*
G01*
X70355000Y-103531250D01*
G75*
G02*
X70161250Y-103725000I-193750J0D01*
G01*
X69698750Y-103725000D01*
G75*
G02*
X69505000Y-103531250I0J193750D01*
G01*
X69505000Y-103143750D01*
G75*
G02*
X69698750Y-102950000I193750J0D01*
G01*
G37*
G36*
G01*
X69698750Y-101375000D02*
X70161250Y-101375000D01*
G75*
G02*
X70355000Y-101568750I0J-193750D01*
G01*
X70355000Y-101956250D01*
G75*
G02*
X70161250Y-102150000I-193750J0D01*
G01*
X69698750Y-102150000D01*
G75*
G02*
X69505000Y-101956250I0J193750D01*
G01*
X69505000Y-101568750D01*
G75*
G02*
X69698750Y-101375000I193750J0D01*
G01*
G37*
%TD*%
%TO.C,C3*%
G36*
G01*
X69698750Y-109500000D02*
X70161250Y-109500000D01*
G75*
G02*
X70355000Y-109693750I0J-193750D01*
G01*
X70355000Y-110081250D01*
G75*
G02*
X70161250Y-110275000I-193750J0D01*
G01*
X69698750Y-110275000D01*
G75*
G02*
X69505000Y-110081250I0J193750D01*
G01*
X69505000Y-109693750D01*
G75*
G02*
X69698750Y-109500000I193750J0D01*
G01*
G37*
G36*
G01*
X69698750Y-107925000D02*
X70161250Y-107925000D01*
G75*
G02*
X70355000Y-108118750I0J-193750D01*
G01*
X70355000Y-108506250D01*
G75*
G02*
X70161250Y-108700000I-193750J0D01*
G01*
X69698750Y-108700000D01*
G75*
G02*
X69505000Y-108506250I0J193750D01*
G01*
X69505000Y-108118750D01*
G75*
G02*
X69698750Y-107925000I193750J0D01*
G01*
G37*
%TD*%
%TO.C,C2*%
G36*
G01*
X64198750Y-99200000D02*
X64661250Y-99200000D01*
G75*
G02*
X64855000Y-99393750I0J-193750D01*
G01*
X64855000Y-99781250D01*
G75*
G02*
X64661250Y-99975000I-193750J0D01*
G01*
X64198750Y-99975000D01*
G75*
G02*
X64005000Y-99781250I0J193750D01*
G01*
X64005000Y-99393750D01*
G75*
G02*
X64198750Y-99200000I193750J0D01*
G01*
G37*
G36*
G01*
X64198750Y-97625000D02*
X64661250Y-97625000D01*
G75*
G02*
X64855000Y-97818750I0J-193750D01*
G01*
X64855000Y-98206250D01*
G75*
G02*
X64661250Y-98400000I-193750J0D01*
G01*
X64198750Y-98400000D01*
G75*
G02*
X64005000Y-98206250I0J193750D01*
G01*
X64005000Y-97818750D01*
G75*
G02*
X64198750Y-97625000I193750J0D01*
G01*
G37*
%TD*%
%TO.C,C1*%
G36*
G01*
X64198750Y-109500000D02*
X64661250Y-109500000D01*
G75*
G02*
X64855000Y-109693750I0J-193750D01*
G01*
X64855000Y-110081250D01*
G75*
G02*
X64661250Y-110275000I-193750J0D01*
G01*
X64198750Y-110275000D01*
G75*
G02*
X64005000Y-110081250I0J193750D01*
G01*
X64005000Y-109693750D01*
G75*
G02*
X64198750Y-109500000I193750J0D01*
G01*
G37*
G36*
G01*
X64198750Y-107925000D02*
X64661250Y-107925000D01*
G75*
G02*
X64855000Y-108118750I0J-193750D01*
G01*
X64855000Y-108506250D01*
G75*
G02*
X64661250Y-108700000I-193750J0D01*
G01*
X64198750Y-108700000D01*
G75*
G02*
X64005000Y-108506250I0J193750D01*
G01*
X64005000Y-108118750D01*
G75*
G02*
X64198750Y-107925000I193750J0D01*
G01*
G37*
%TD*%
M02*
