G04 #@! TF.GenerationSoftware,KiCad,Pcbnew,5.1.10-88a1d61d58~88~ubuntu20.04.1*
G04 #@! TF.CreationDate,2021-09-24T12:37:35+02:00*
G04 #@! TF.ProjectId,carrier,63617272-6965-4722-9e6b-696361645f70,0.1*
G04 #@! TF.SameCoordinates,Original*
G04 #@! TF.FileFunction,Copper,L2,Bot*
G04 #@! TF.FilePolarity,Positive*
%FSLAX46Y46*%
G04 Gerber Fmt 4.6, Leading zero omitted, Abs format (unit mm)*
G04 Created by KiCad (PCBNEW 5.1.10-88a1d61d58~88~ubuntu20.04.1) date 2021-09-24 12:37:35*
%MOMM*%
%LPD*%
G01*
G04 APERTURE LIST*
G04 #@! TA.AperFunction,ComponentPad*
%ADD10R,1.700000X1.700000*%
G04 #@! TD*
G04 #@! TA.AperFunction,ComponentPad*
%ADD11O,1.700000X1.700000*%
G04 #@! TD*
G04 #@! TA.AperFunction,ComponentPad*
%ADD12C,2.000000*%
G04 #@! TD*
G04 #@! TA.AperFunction,ComponentPad*
%ADD13C,5.000000*%
G04 #@! TD*
G04 #@! TA.AperFunction,ComponentPad*
%ADD14C,1.450000*%
G04 #@! TD*
G04 #@! TA.AperFunction,ComponentPad*
%ADD15O,1.200000X1.900000*%
G04 #@! TD*
G04 #@! TA.AperFunction,SMDPad,CuDef*
%ADD16C,1.000000*%
G04 #@! TD*
G04 #@! TA.AperFunction,ViaPad*
%ADD17C,0.450000*%
G04 #@! TD*
G04 #@! TA.AperFunction,Conductor*
%ADD18C,0.250000*%
G04 #@! TD*
G04 #@! TA.AperFunction,Conductor*
%ADD19C,0.127000*%
G04 #@! TD*
G04 #@! TA.AperFunction,Conductor*
%ADD20C,0.150000*%
G04 #@! TD*
G04 #@! TA.AperFunction,Conductor*
%ADD21C,0.100000*%
G04 #@! TD*
G04 APERTURE END LIST*
D10*
G04 #@! TO.P,J1,1*
G04 #@! TO.N,mprj_io[3]*
X42010000Y-85920000D03*
D11*
G04 #@! TO.P,J1,2*
G04 #@! TO.N,mprj_io[2]*
X39470000Y-85920000D03*
G04 #@! TO.P,J1,3*
G04 #@! TO.N,mprj_io[4]*
X42010000Y-83380000D03*
G04 #@! TO.P,J1,4*
G04 #@! TO.N,GND*
X39470000Y-83380000D03*
G04 #@! TO.P,J1,5*
G04 #@! TO.N,mprj_io[1]*
X42010000Y-80840000D03*
G04 #@! TO.P,J1,6*
G04 #@! TO.N,+5V*
X39470000Y-80840000D03*
G04 #@! TD*
D12*
G04 #@! TO.P,J2,7*
G04 #@! TO.N,GND*
X52911000Y-97000000D03*
G04 #@! TO.P,J2,8*
X50625000Y-97000000D03*
G04 #@! TO.P,J2,6*
X55197000Y-97000000D03*
G04 #@! TO.P,J2,9*
G04 #@! TO.N,Net-(J2-Pad9)*
X48339000Y-97000000D03*
G04 #@! TO.P,J2,10*
G04 #@! TO.N,GND*
X46053000Y-97000000D03*
G04 #@! TO.P,J2,3*
G04 #@! TO.N,/blue*
X49480000Y-94460000D03*
G04 #@! TO.P,J2,5*
G04 #@! TO.N,GND*
X44908000Y-94460000D03*
G04 #@! TO.P,J2,1*
G04 #@! TO.N,/red*
X54052000Y-94460000D03*
G04 #@! TO.P,J2,4*
G04 #@! TO.N,Net-(J2-Pad4)*
X47194000Y-94460000D03*
G04 #@! TO.P,J2,2*
G04 #@! TO.N,/green*
X51766000Y-94460000D03*
G04 #@! TO.P,J2,15*
G04 #@! TO.N,Net-(J2-Pad15)*
X44908000Y-99540000D03*
G04 #@! TO.P,J2,14*
G04 #@! TO.N,mprj_io[12]*
X47194000Y-99540000D03*
G04 #@! TO.P,J2,13*
G04 #@! TO.N,mprj_io[11]*
X49480000Y-99540000D03*
G04 #@! TO.P,J2,12*
G04 #@! TO.N,Net-(J2-Pad12)*
X51766000Y-99540000D03*
G04 #@! TO.P,J2,11*
G04 #@! TO.N,Net-(J2-Pad11)*
X54052000Y-99540000D03*
D13*
G04 #@! TO.P,J2,*
G04 #@! TO.N,*
X37235000Y-97000000D03*
X62225000Y-97000000D03*
G04 #@! TD*
D14*
G04 #@! TO.P,J3,6*
G04 #@! TO.N,Net-(J3-Pad6)*
X60230000Y-64700000D03*
X55230000Y-64700000D03*
D15*
X61230000Y-62000000D03*
X54230000Y-62000000D03*
G04 #@! TD*
D16*
G04 #@! TO.P,TP2,1*
G04 #@! TO.N,flash_clk*
X60480000Y-80500000D03*
G04 #@! TD*
G04 #@! TO.P,TP3,1*
G04 #@! TO.N,flash_csb*
X60480000Y-82500000D03*
G04 #@! TD*
G04 #@! TO.P,TP4,1*
G04 #@! TO.N,flash_io0*
X62480000Y-80500000D03*
G04 #@! TD*
G04 #@! TO.P,TP5,1*
G04 #@! TO.N,flash_io1*
X62480000Y-82500000D03*
G04 #@! TD*
G04 #@! TO.P,TP7,1*
G04 #@! TO.N,mprj_io[11]*
X48830000Y-103250000D03*
G04 #@! TD*
G04 #@! TO.P,TP8,1*
G04 #@! TO.N,mprj_io[12]*
X46530000Y-103250000D03*
G04 #@! TD*
D17*
G04 #@! TO.N,GND*
X51480000Y-68000000D03*
X58230000Y-73500000D03*
X58230000Y-68000000D03*
X56230000Y-66250000D03*
X46730000Y-74000000D03*
X47730000Y-74500000D03*
X51730000Y-81000000D03*
X49831394Y-82200000D03*
X57130000Y-66200000D03*
X62980000Y-86077790D03*
X56530000Y-80200000D03*
X41029996Y-76300000D03*
X51480000Y-73500000D03*
X48430000Y-75999986D03*
G04 #@! TO.N,vccd*
X55530000Y-80000000D03*
X53863387Y-83760937D03*
X49530000Y-84000000D03*
X49530000Y-78700000D03*
G04 #@! TO.N,vdda*
X54530000Y-78900000D03*
X49134000Y-80800000D03*
G04 #@! TO.N,flash_io0*
X62130000Y-78600000D03*
X51629998Y-77800000D03*
X51630000Y-76700000D03*
G04 #@! TO.N,flash_csb*
X59230000Y-83300000D03*
G04 #@! TO.N,mprj_io[2]*
X44530000Y-81800000D03*
X53841843Y-79136643D03*
G04 #@! TO.N,mprj_io[1]*
X54130000Y-78332708D03*
G04 #@! TO.N,flash_io1*
X61630000Y-82000000D03*
X52119023Y-77597949D03*
G04 #@! TO.N,mprj_io[4]*
X54930000Y-81000000D03*
G04 #@! TO.N,mprj_io[3]*
X54122118Y-80892104D03*
G04 #@! TO.N,flash_clk*
X60730000Y-78000000D03*
X57930000Y-80200000D03*
G04 #@! TO.N,mprj_io[8]*
X42630000Y-88599994D03*
X55631896Y-84275476D03*
G04 #@! TO.N,mprj_io[10]*
X43730000Y-88300000D03*
X55106311Y-84301154D03*
G04 #@! TO.N,mprj_io[9]*
X43155227Y-88567820D03*
X54649596Y-84039792D03*
G04 #@! TO.N,mprj_io[12]*
X54155828Y-82458394D03*
G04 #@! TO.N,mprj_io[11]*
X54830000Y-82300000D03*
G04 #@! TO.N,mprj_io[14]*
X54230000Y-86900000D03*
X50730000Y-87100000D03*
G04 #@! TO.N,mprj_io[17]*
X54437434Y-86316808D03*
X51430000Y-86500000D03*
G04 #@! TO.N,mprj_io[18]*
X54224587Y-85835564D03*
X50713846Y-86297608D03*
G04 #@! TO.N,gpio*
X51130000Y-75000000D03*
X52730000Y-77400000D03*
G04 #@! TD*
D18*
G04 #@! TO.N,vccd*
X53545189Y-83760937D02*
X53863387Y-83760937D01*
X53206126Y-84100000D02*
X53545189Y-83760937D01*
X49630000Y-84100000D02*
X53206126Y-84100000D01*
X49530000Y-84000000D02*
X49630000Y-84100000D01*
D19*
X52530000Y-78700000D02*
X49530000Y-78700000D01*
X53730000Y-77500000D02*
X52530000Y-78700000D01*
X54430000Y-77500000D02*
X53730000Y-77500000D01*
X55530000Y-78600000D02*
X54430000Y-77500000D01*
X55530000Y-80000000D02*
X55530000Y-78600000D01*
G04 #@! TO.N,vdda*
X49730000Y-80464710D02*
X49794710Y-80464710D01*
X49469290Y-80464710D02*
X49134000Y-80800000D01*
X49794710Y-80464710D02*
X49469290Y-80464710D01*
X49794710Y-80464710D02*
X53283488Y-80464710D01*
X53283488Y-80464710D02*
X54530000Y-79218198D01*
X54530000Y-79218198D02*
X54530000Y-78900000D01*
G04 #@! TO.N,flash_io0*
X62480000Y-78950000D02*
X62130000Y-78600000D01*
X62480000Y-80500000D02*
X62480000Y-78950000D01*
X51629998Y-76700002D02*
X51630000Y-76700000D01*
X51629998Y-77800000D02*
X51629998Y-76700002D01*
G04 #@! TO.N,flash_csb*
X59680000Y-83300000D02*
X59230000Y-83300000D01*
X60480000Y-82500000D02*
X59680000Y-83300000D01*
G04 #@! TO.N,mprj_io[2]*
X44530000Y-81800000D02*
X46330000Y-80000000D01*
X46330000Y-80000000D02*
X52978486Y-80000000D01*
X52978486Y-80000000D02*
X53841843Y-79136643D01*
G04 #@! TO.N,mprj_io[1]*
X52862708Y-79600000D02*
X54130000Y-78332708D01*
X43250000Y-79600000D02*
X52862708Y-79600000D01*
X42010000Y-80840000D02*
X43250000Y-79600000D01*
G04 #@! TO.N,flash_io1*
X61980000Y-82000000D02*
X61630000Y-82000000D01*
X62480000Y-82500000D02*
X61980000Y-82000000D01*
G04 #@! TO.N,mprj_io[4]*
X54530000Y-81000000D02*
X54930000Y-81000000D01*
X52430000Y-83100000D02*
X54530000Y-81000000D01*
X42290000Y-83100000D02*
X52430000Y-83100000D01*
X42010000Y-83380000D02*
X42290000Y-83100000D01*
G04 #@! TO.N,mprj_io[3]*
X40830000Y-82900000D02*
X41430000Y-82300000D01*
X42630000Y-82300000D02*
X42930000Y-82600000D01*
X40830000Y-84740000D02*
X40830000Y-82900000D01*
X42010000Y-85920000D02*
X40830000Y-84740000D01*
X41430000Y-82300000D02*
X42630000Y-82300000D01*
X42930000Y-82600000D02*
X52414222Y-82600000D01*
X52414222Y-82600000D02*
X54122118Y-80892104D01*
G04 #@! TO.N,flash_clk*
X60480000Y-78250000D02*
X60730000Y-78000000D01*
X60480000Y-80500000D02*
X60480000Y-78250000D01*
X58230000Y-80500000D02*
X57930000Y-80200000D01*
X60480000Y-80500000D02*
X58230000Y-80500000D01*
G04 #@! TO.N,mprj_io[8]*
X53653646Y-84500000D02*
X54485734Y-83667912D01*
X54485734Y-83667912D02*
X55024332Y-83667912D01*
X42630000Y-88281796D02*
X46411796Y-84500000D01*
X55024332Y-83667912D02*
X55631896Y-84275476D01*
X42630000Y-88599994D02*
X42630000Y-88281796D01*
X46411796Y-84500000D02*
X53653646Y-84500000D01*
G04 #@! TO.N,mprj_io[10]*
X54356466Y-85050999D02*
X55106311Y-84301154D01*
X43730000Y-88300000D02*
X46979001Y-85050999D01*
X46979001Y-85050999D02*
X54356466Y-85050999D01*
G04 #@! TO.N,mprj_io[9]*
X43155227Y-88249622D02*
X46604849Y-84800000D01*
X53889388Y-84800000D02*
X54649596Y-84039792D01*
X43155227Y-88567820D02*
X43155227Y-88249622D01*
X46604849Y-84800000D02*
X53889388Y-84800000D01*
G04 #@! TO.N,mprj_io[12]*
X47194000Y-102586000D02*
X46530000Y-103250000D01*
X47194000Y-99540000D02*
X47194000Y-102586000D01*
X54380827Y-82683393D02*
X54155828Y-82458394D01*
X55413393Y-82683393D02*
X54380827Y-82683393D01*
X57030000Y-97200000D02*
X57030000Y-84300000D01*
X48434000Y-98300000D02*
X55930000Y-98300000D01*
X47194000Y-99540000D02*
X48434000Y-98300000D01*
X57030000Y-84300000D02*
X55413393Y-82683393D01*
X55930000Y-98300000D02*
X57030000Y-97200000D01*
G04 #@! TO.N,mprj_io[11]*
X49480000Y-102600000D02*
X48830000Y-103250000D01*
X49480000Y-99540000D02*
X49480000Y-102600000D01*
X57433209Y-98496791D02*
X57433209Y-84203209D01*
X55530000Y-82300000D02*
X54830000Y-82300000D01*
X54430000Y-101500000D02*
X57433209Y-98496791D01*
X51440000Y-101500000D02*
X54430000Y-101500000D01*
X57433209Y-84203209D02*
X55530000Y-82300000D01*
X49480000Y-99540000D02*
X51440000Y-101500000D01*
G04 #@! TO.N,mprj_io[14]*
X50930000Y-86900000D02*
X50730000Y-87100000D01*
X54230000Y-86900000D02*
X50930000Y-86900000D01*
G04 #@! TO.N,mprj_io[17]*
X54437434Y-86316808D02*
X51613192Y-86316808D01*
X51613192Y-86316808D02*
X51430000Y-86500000D01*
G04 #@! TO.N,mprj_io[18]*
X54224587Y-85835564D02*
X51175890Y-85835564D01*
X51175890Y-85835564D02*
X50713846Y-86297608D01*
G04 #@! TO.N,gpio*
X51130000Y-75000000D02*
X52730000Y-76600000D01*
X52730000Y-76600000D02*
X52730000Y-77400000D01*
G04 #@! TD*
D20*
G04 #@! TO.N,GND*
X63069678Y-60284505D02*
X63396416Y-60383153D01*
X63697775Y-60543389D01*
X63962267Y-60759104D01*
X64179822Y-61022082D01*
X64342154Y-61322310D01*
X64443083Y-61648359D01*
X64479997Y-61999576D01*
X64480001Y-62000592D01*
X64480000Y-95469976D01*
X64341646Y-95262914D01*
X63962086Y-94883354D01*
X63515771Y-94585136D01*
X63019853Y-94379720D01*
X62493389Y-94275000D01*
X61956611Y-94275000D01*
X61430147Y-94379720D01*
X60934229Y-94585136D01*
X60487914Y-94883354D01*
X60108354Y-95262914D01*
X59810136Y-95709229D01*
X59604720Y-96205147D01*
X59500000Y-96731611D01*
X59500000Y-97268389D01*
X59604720Y-97794853D01*
X59810136Y-98290771D01*
X60108354Y-98737086D01*
X60487914Y-99116646D01*
X60934229Y-99414864D01*
X61430147Y-99620280D01*
X61956611Y-99725000D01*
X62493389Y-99725000D01*
X63019853Y-99620280D01*
X63515771Y-99414864D01*
X63962086Y-99116646D01*
X64341646Y-98737086D01*
X64480000Y-98530024D01*
X64480000Y-105987771D01*
X64445495Y-106339679D01*
X64346847Y-106666416D01*
X64186612Y-106967773D01*
X63970900Y-107232262D01*
X63707918Y-107449822D01*
X63407690Y-107612154D01*
X63081642Y-107713083D01*
X62730424Y-107749997D01*
X62729693Y-107750000D01*
X36742229Y-107750000D01*
X36390321Y-107715495D01*
X36063584Y-107616847D01*
X35762227Y-107456612D01*
X35497738Y-107240900D01*
X35280178Y-106977918D01*
X35117846Y-106677690D01*
X35016917Y-106351642D01*
X34980003Y-106000424D01*
X34980000Y-105999693D01*
X34980000Y-98530025D01*
X35118354Y-98737086D01*
X35497914Y-99116646D01*
X35944229Y-99414864D01*
X36440147Y-99620280D01*
X36966611Y-99725000D01*
X37503389Y-99725000D01*
X38029853Y-99620280D01*
X38514945Y-99419348D01*
X43683000Y-99419348D01*
X43683000Y-99660652D01*
X43730076Y-99897319D01*
X43822419Y-100120255D01*
X43956481Y-100320892D01*
X44127108Y-100491519D01*
X44327745Y-100625581D01*
X44550681Y-100717924D01*
X44787348Y-100765000D01*
X45028652Y-100765000D01*
X45265319Y-100717924D01*
X45488255Y-100625581D01*
X45688892Y-100491519D01*
X45859519Y-100320892D01*
X45993581Y-100120255D01*
X46051000Y-99981633D01*
X46108419Y-100120255D01*
X46242481Y-100320892D01*
X46413108Y-100491519D01*
X46613745Y-100625581D01*
X46836681Y-100717924D01*
X46905500Y-100731613D01*
X46905501Y-102466499D01*
X46796392Y-102575608D01*
X46741475Y-102552861D01*
X46601406Y-102525000D01*
X46458594Y-102525000D01*
X46318525Y-102552861D01*
X46186584Y-102607513D01*
X46067839Y-102686856D01*
X45966856Y-102787839D01*
X45887513Y-102906584D01*
X45832861Y-103038525D01*
X45805000Y-103178594D01*
X45805000Y-103321406D01*
X45832861Y-103461475D01*
X45887513Y-103593416D01*
X45966856Y-103712161D01*
X46067839Y-103813144D01*
X46186584Y-103892487D01*
X46318525Y-103947139D01*
X46458594Y-103975000D01*
X46601406Y-103975000D01*
X46741475Y-103947139D01*
X46873416Y-103892487D01*
X46992161Y-103813144D01*
X47093144Y-103712161D01*
X47172487Y-103593416D01*
X47227139Y-103461475D01*
X47255000Y-103321406D01*
X47255000Y-103178594D01*
X47227139Y-103038525D01*
X47204392Y-102983608D01*
X47387979Y-102800021D01*
X47398987Y-102790987D01*
X47435039Y-102747057D01*
X47461828Y-102696938D01*
X47478325Y-102642556D01*
X47482500Y-102600164D01*
X47482500Y-102600162D01*
X47483895Y-102586000D01*
X47482500Y-102571838D01*
X47482500Y-100731613D01*
X47551319Y-100717924D01*
X47774255Y-100625581D01*
X47974892Y-100491519D01*
X48145519Y-100320892D01*
X48279581Y-100120255D01*
X48337000Y-99981633D01*
X48394419Y-100120255D01*
X48528481Y-100320892D01*
X48699108Y-100491519D01*
X48899745Y-100625581D01*
X49122681Y-100717924D01*
X49191500Y-100731613D01*
X49191501Y-102480499D01*
X49096392Y-102575608D01*
X49041475Y-102552861D01*
X48901406Y-102525000D01*
X48758594Y-102525000D01*
X48618525Y-102552861D01*
X48486584Y-102607513D01*
X48367839Y-102686856D01*
X48266856Y-102787839D01*
X48187513Y-102906584D01*
X48132861Y-103038525D01*
X48105000Y-103178594D01*
X48105000Y-103321406D01*
X48132861Y-103461475D01*
X48187513Y-103593416D01*
X48266856Y-103712161D01*
X48367839Y-103813144D01*
X48486584Y-103892487D01*
X48618525Y-103947139D01*
X48758594Y-103975000D01*
X48901406Y-103975000D01*
X49041475Y-103947139D01*
X49173416Y-103892487D01*
X49292161Y-103813144D01*
X49393144Y-103712161D01*
X49472487Y-103593416D01*
X49527139Y-103461475D01*
X49555000Y-103321406D01*
X49555000Y-103178594D01*
X49527139Y-103038525D01*
X49504392Y-102983608D01*
X49673979Y-102814021D01*
X49684987Y-102804987D01*
X49721039Y-102761057D01*
X49747828Y-102710938D01*
X49764325Y-102656556D01*
X49768500Y-102614164D01*
X49768500Y-102614162D01*
X49769895Y-102600000D01*
X49768500Y-102585838D01*
X49768500Y-100731613D01*
X49837319Y-100717924D01*
X50060255Y-100625581D01*
X50118598Y-100586598D01*
X51225984Y-101693985D01*
X51235013Y-101704987D01*
X51246014Y-101714015D01*
X51246015Y-101714016D01*
X51278943Y-101741039D01*
X51329062Y-101767828D01*
X51383444Y-101784325D01*
X51440000Y-101789895D01*
X51454164Y-101788500D01*
X54415838Y-101788500D01*
X54430000Y-101789895D01*
X54444162Y-101788500D01*
X54444164Y-101788500D01*
X54486556Y-101784325D01*
X54540938Y-101767828D01*
X54591057Y-101741039D01*
X54634987Y-101704987D01*
X54644025Y-101693974D01*
X57627190Y-98710810D01*
X57638196Y-98701778D01*
X57674248Y-98657848D01*
X57701037Y-98607729D01*
X57717534Y-98553347D01*
X57721709Y-98510955D01*
X57721709Y-98510953D01*
X57723104Y-98496791D01*
X57721709Y-98482629D01*
X57721709Y-84217371D01*
X57723104Y-84203209D01*
X57721709Y-84189045D01*
X57717534Y-84146653D01*
X57701037Y-84092271D01*
X57674248Y-84042152D01*
X57638196Y-83998222D01*
X57627188Y-83989188D01*
X56893679Y-83255679D01*
X58780000Y-83255679D01*
X58780000Y-83344321D01*
X58797294Y-83431260D01*
X58831215Y-83513155D01*
X58880462Y-83586858D01*
X58943142Y-83649538D01*
X59016845Y-83698785D01*
X59098740Y-83732706D01*
X59185679Y-83750000D01*
X59274321Y-83750000D01*
X59361260Y-83732706D01*
X59443155Y-83698785D01*
X59516858Y-83649538D01*
X59577896Y-83588500D01*
X59665838Y-83588500D01*
X59680000Y-83589895D01*
X59694162Y-83588500D01*
X59694164Y-83588500D01*
X59736556Y-83584325D01*
X59790938Y-83567828D01*
X59841057Y-83541039D01*
X59884987Y-83504987D01*
X59894025Y-83493974D01*
X60213608Y-83174391D01*
X60268525Y-83197139D01*
X60408594Y-83225000D01*
X60551406Y-83225000D01*
X60691475Y-83197139D01*
X60823416Y-83142487D01*
X60942161Y-83063144D01*
X61043144Y-82962161D01*
X61122487Y-82843416D01*
X61177139Y-82711475D01*
X61205000Y-82571406D01*
X61205000Y-82428594D01*
X61177139Y-82288525D01*
X61122487Y-82156584D01*
X61043144Y-82037839D01*
X60960984Y-81955679D01*
X61180000Y-81955679D01*
X61180000Y-82044321D01*
X61197294Y-82131260D01*
X61231215Y-82213155D01*
X61280462Y-82286858D01*
X61343142Y-82349538D01*
X61416845Y-82398785D01*
X61498740Y-82432706D01*
X61585679Y-82450000D01*
X61674321Y-82450000D01*
X61755000Y-82433951D01*
X61755000Y-82571406D01*
X61782861Y-82711475D01*
X61837513Y-82843416D01*
X61916856Y-82962161D01*
X62017839Y-83063144D01*
X62136584Y-83142487D01*
X62268525Y-83197139D01*
X62408594Y-83225000D01*
X62551406Y-83225000D01*
X62691475Y-83197139D01*
X62823416Y-83142487D01*
X62942161Y-83063144D01*
X63043144Y-82962161D01*
X63122487Y-82843416D01*
X63177139Y-82711475D01*
X63205000Y-82571406D01*
X63205000Y-82428594D01*
X63177139Y-82288525D01*
X63122487Y-82156584D01*
X63043144Y-82037839D01*
X62942161Y-81936856D01*
X62823416Y-81857513D01*
X62691475Y-81802861D01*
X62551406Y-81775000D01*
X62408594Y-81775000D01*
X62268525Y-81802861D01*
X62213608Y-81825609D01*
X62194025Y-81806026D01*
X62184987Y-81795013D01*
X62141057Y-81758961D01*
X62090938Y-81732172D01*
X62036556Y-81715675D01*
X61994164Y-81711500D01*
X61994162Y-81711500D01*
X61980000Y-81710105D01*
X61976815Y-81710419D01*
X61916858Y-81650462D01*
X61843155Y-81601215D01*
X61761260Y-81567294D01*
X61674321Y-81550000D01*
X61585679Y-81550000D01*
X61498740Y-81567294D01*
X61416845Y-81601215D01*
X61343142Y-81650462D01*
X61280462Y-81713142D01*
X61231215Y-81786845D01*
X61197294Y-81868740D01*
X61180000Y-81955679D01*
X60960984Y-81955679D01*
X60942161Y-81936856D01*
X60823416Y-81857513D01*
X60691475Y-81802861D01*
X60551406Y-81775000D01*
X60408594Y-81775000D01*
X60268525Y-81802861D01*
X60136584Y-81857513D01*
X60017839Y-81936856D01*
X59916856Y-82037839D01*
X59837513Y-82156584D01*
X59782861Y-82288525D01*
X59755000Y-82428594D01*
X59755000Y-82571406D01*
X59782861Y-82711475D01*
X59805609Y-82766392D01*
X59569198Y-83002802D01*
X59516858Y-82950462D01*
X59443155Y-82901215D01*
X59361260Y-82867294D01*
X59274321Y-82850000D01*
X59185679Y-82850000D01*
X59098740Y-82867294D01*
X59016845Y-82901215D01*
X58943142Y-82950462D01*
X58880462Y-83013142D01*
X58831215Y-83086845D01*
X58797294Y-83168740D01*
X58780000Y-83255679D01*
X56893679Y-83255679D01*
X55744025Y-82106026D01*
X55734987Y-82095013D01*
X55691057Y-82058961D01*
X55640938Y-82032172D01*
X55586556Y-82015675D01*
X55544164Y-82011500D01*
X55544162Y-82011500D01*
X55530000Y-82010105D01*
X55515838Y-82011500D01*
X55177896Y-82011500D01*
X55116858Y-81950462D01*
X55043155Y-81901215D01*
X54961260Y-81867294D01*
X54874321Y-81850000D01*
X54785679Y-81850000D01*
X54698740Y-81867294D01*
X54616845Y-81901215D01*
X54543142Y-81950462D01*
X54480462Y-82013142D01*
X54431215Y-82086845D01*
X54426561Y-82098081D01*
X54368983Y-82059609D01*
X54287088Y-82025688D01*
X54200149Y-82008394D01*
X54111507Y-82008394D01*
X54024568Y-82025688D01*
X53942673Y-82059609D01*
X53868970Y-82108856D01*
X53806290Y-82171536D01*
X53757043Y-82245239D01*
X53723122Y-82327134D01*
X53705828Y-82414073D01*
X53705828Y-82502715D01*
X53723122Y-82589654D01*
X53757043Y-82671549D01*
X53806290Y-82745252D01*
X53868970Y-82807932D01*
X53942673Y-82857179D01*
X54024568Y-82891100D01*
X54111507Y-82908394D01*
X54200149Y-82908394D01*
X54200212Y-82908381D01*
X54219770Y-82924432D01*
X54269889Y-82951221D01*
X54324271Y-82967718D01*
X54380827Y-82973288D01*
X54394991Y-82971893D01*
X55293894Y-82971893D01*
X56741501Y-84419502D01*
X56741500Y-96641741D01*
X56730093Y-96575950D01*
X56617907Y-96285006D01*
X56580909Y-96215787D01*
X56337407Y-96112737D01*
X55450144Y-97000000D01*
X55464287Y-97014143D01*
X55211143Y-97267287D01*
X55197000Y-97253144D01*
X55182858Y-97267287D01*
X54929714Y-97014143D01*
X54943856Y-97000000D01*
X54396577Y-96452721D01*
X54331907Y-96285006D01*
X54294909Y-96215787D01*
X54060398Y-96116542D01*
X54056593Y-96112737D01*
X54054000Y-96113834D01*
X54051407Y-96112737D01*
X54047602Y-96116542D01*
X53813091Y-96215787D01*
X53705324Y-96458820D01*
X53164144Y-97000000D01*
X53178287Y-97014143D01*
X52925143Y-97267287D01*
X52911000Y-97253144D01*
X52896858Y-97267287D01*
X52643714Y-97014143D01*
X52657856Y-97000000D01*
X52110577Y-96452721D01*
X52045907Y-96285006D01*
X52008909Y-96215787D01*
X51774398Y-96116542D01*
X51770593Y-96112737D01*
X51768000Y-96113834D01*
X51765407Y-96112737D01*
X51761602Y-96116542D01*
X51527091Y-96215787D01*
X51419324Y-96458820D01*
X50878144Y-97000000D01*
X50892287Y-97014143D01*
X50639143Y-97267287D01*
X50625000Y-97253144D01*
X50610858Y-97267287D01*
X50357714Y-97014143D01*
X50371856Y-97000000D01*
X49484593Y-96112737D01*
X49273488Y-96202077D01*
X49119892Y-96048481D01*
X48919255Y-95914419D01*
X48696319Y-95822076D01*
X48459652Y-95775000D01*
X48218348Y-95775000D01*
X47981681Y-95822076D01*
X47758745Y-95914419D01*
X47558108Y-96048481D01*
X47404512Y-96202077D01*
X47193407Y-96112737D01*
X46306144Y-97000000D01*
X47193407Y-97887263D01*
X47404512Y-97797923D01*
X47558108Y-97951519D01*
X47758745Y-98085581D01*
X47981681Y-98177924D01*
X48120469Y-98205531D01*
X47832598Y-98493403D01*
X47774255Y-98454419D01*
X47551319Y-98362076D01*
X47314652Y-98315000D01*
X47073348Y-98315000D01*
X46847351Y-98359954D01*
X46940263Y-98140407D01*
X46053000Y-97253144D01*
X45165737Y-98140407D01*
X45259017Y-98360822D01*
X45028652Y-98315000D01*
X44787348Y-98315000D01*
X44550681Y-98362076D01*
X44327745Y-98454419D01*
X44127108Y-98588481D01*
X43956481Y-98759108D01*
X43822419Y-98959745D01*
X43730076Y-99182681D01*
X43683000Y-99419348D01*
X38514945Y-99419348D01*
X38525771Y-99414864D01*
X38972086Y-99116646D01*
X39351646Y-98737086D01*
X39649864Y-98290771D01*
X39855280Y-97794853D01*
X39960000Y-97268389D01*
X39960000Y-96731611D01*
X39855280Y-96205147D01*
X39649864Y-95709229D01*
X39577152Y-95600407D01*
X44020737Y-95600407D01*
X44123787Y-95843909D01*
X44408843Y-95970310D01*
X44713081Y-96038670D01*
X44841697Y-96041844D01*
X44912591Y-96112738D01*
X44669091Y-96215787D01*
X44542690Y-96500843D01*
X44474330Y-96805081D01*
X44466637Y-97116810D01*
X44519907Y-97424050D01*
X44632093Y-97714994D01*
X44669091Y-97784213D01*
X44912593Y-97887263D01*
X45799856Y-97000000D01*
X45785714Y-96985858D01*
X46038858Y-96732714D01*
X46053000Y-96746856D01*
X46940263Y-95859593D01*
X46847351Y-95640046D01*
X47073348Y-95685000D01*
X47314652Y-95685000D01*
X47551319Y-95637924D01*
X47774255Y-95545581D01*
X47974892Y-95411519D01*
X48145519Y-95240892D01*
X48279581Y-95040255D01*
X48337000Y-94901633D01*
X48394419Y-95040255D01*
X48528481Y-95240892D01*
X48699108Y-95411519D01*
X48899745Y-95545581D01*
X49122681Y-95637924D01*
X49359348Y-95685000D01*
X49600652Y-95685000D01*
X49831017Y-95639178D01*
X49737737Y-95859593D01*
X50625000Y-96746856D01*
X51512263Y-95859593D01*
X51419351Y-95640046D01*
X51645348Y-95685000D01*
X51886652Y-95685000D01*
X52117017Y-95639178D01*
X52023737Y-95859593D01*
X52911000Y-96746856D01*
X53798263Y-95859593D01*
X53705351Y-95640046D01*
X53931348Y-95685000D01*
X54172652Y-95685000D01*
X54403017Y-95639178D01*
X54309737Y-95859593D01*
X55197000Y-96746856D01*
X56084263Y-95859593D01*
X55981213Y-95616091D01*
X55696157Y-95489690D01*
X55391919Y-95421330D01*
X55080190Y-95413637D01*
X54772950Y-95466907D01*
X54718681Y-95487833D01*
X54832892Y-95411519D01*
X55003519Y-95240892D01*
X55137581Y-95040255D01*
X55229924Y-94817319D01*
X55277000Y-94580652D01*
X55277000Y-94339348D01*
X55229924Y-94102681D01*
X55137581Y-93879745D01*
X55003519Y-93679108D01*
X54832892Y-93508481D01*
X54632255Y-93374419D01*
X54409319Y-93282076D01*
X54172652Y-93235000D01*
X53931348Y-93235000D01*
X53694681Y-93282076D01*
X53471745Y-93374419D01*
X53271108Y-93508481D01*
X53100481Y-93679108D01*
X52966419Y-93879745D01*
X52909000Y-94018367D01*
X52851581Y-93879745D01*
X52717519Y-93679108D01*
X52546892Y-93508481D01*
X52346255Y-93374419D01*
X52123319Y-93282076D01*
X51886652Y-93235000D01*
X51645348Y-93235000D01*
X51408681Y-93282076D01*
X51185745Y-93374419D01*
X50985108Y-93508481D01*
X50814481Y-93679108D01*
X50680419Y-93879745D01*
X50623000Y-94018367D01*
X50565581Y-93879745D01*
X50431519Y-93679108D01*
X50260892Y-93508481D01*
X50060255Y-93374419D01*
X49837319Y-93282076D01*
X49600652Y-93235000D01*
X49359348Y-93235000D01*
X49122681Y-93282076D01*
X48899745Y-93374419D01*
X48699108Y-93508481D01*
X48528481Y-93679108D01*
X48394419Y-93879745D01*
X48337000Y-94018367D01*
X48279581Y-93879745D01*
X48145519Y-93679108D01*
X47974892Y-93508481D01*
X47774255Y-93374419D01*
X47551319Y-93282076D01*
X47314652Y-93235000D01*
X47073348Y-93235000D01*
X46836681Y-93282076D01*
X46613745Y-93374419D01*
X46413108Y-93508481D01*
X46259512Y-93662077D01*
X46048407Y-93572737D01*
X45161144Y-94460000D01*
X45175287Y-94474143D01*
X44922143Y-94727287D01*
X44908000Y-94713144D01*
X44020737Y-95600407D01*
X39577152Y-95600407D01*
X39351646Y-95262914D01*
X38972086Y-94883354D01*
X38525771Y-94585136D01*
X38505671Y-94576810D01*
X43321637Y-94576810D01*
X43374907Y-94884050D01*
X43487093Y-95174994D01*
X43524091Y-95244213D01*
X43767593Y-95347263D01*
X44654856Y-94460000D01*
X43767593Y-93572737D01*
X43524091Y-93675787D01*
X43397690Y-93960843D01*
X43329330Y-94265081D01*
X43321637Y-94576810D01*
X38505671Y-94576810D01*
X38029853Y-94379720D01*
X37503389Y-94275000D01*
X36966611Y-94275000D01*
X36440147Y-94379720D01*
X35944229Y-94585136D01*
X35497914Y-94883354D01*
X35118354Y-95262914D01*
X34980000Y-95469975D01*
X34980000Y-93319593D01*
X44020737Y-93319593D01*
X44908000Y-94206856D01*
X45795263Y-93319593D01*
X45692213Y-93076091D01*
X45407157Y-92949690D01*
X45102919Y-92881330D01*
X44791190Y-92873637D01*
X44483950Y-92926907D01*
X44193006Y-93039093D01*
X44123787Y-93076091D01*
X44020737Y-93319593D01*
X34980000Y-93319593D01*
X34980000Y-88555673D01*
X42180000Y-88555673D01*
X42180000Y-88644315D01*
X42197294Y-88731254D01*
X42231215Y-88813149D01*
X42280462Y-88886852D01*
X42343142Y-88949532D01*
X42416845Y-88998779D01*
X42498740Y-89032700D01*
X42585679Y-89049994D01*
X42674321Y-89049994D01*
X42761260Y-89032700D01*
X42843155Y-88998779D01*
X42916689Y-88949645D01*
X42942072Y-88966605D01*
X43023967Y-89000526D01*
X43110906Y-89017820D01*
X43199548Y-89017820D01*
X43286487Y-89000526D01*
X43368382Y-88966605D01*
X43442085Y-88917358D01*
X43504765Y-88854678D01*
X43554012Y-88780975D01*
X43577627Y-88723961D01*
X43598740Y-88732706D01*
X43685679Y-88750000D01*
X43774321Y-88750000D01*
X43861260Y-88732706D01*
X43943155Y-88698785D01*
X44016858Y-88649538D01*
X44079538Y-88586858D01*
X44128785Y-88513155D01*
X44162706Y-88431260D01*
X44180000Y-88344321D01*
X44180000Y-88257999D01*
X46184713Y-86253287D01*
X50263846Y-86253287D01*
X50263846Y-86341929D01*
X50281140Y-86428868D01*
X50315061Y-86510763D01*
X50364308Y-86584466D01*
X50426988Y-86647146D01*
X50500691Y-86696393D01*
X50515118Y-86702369D01*
X50443142Y-86750462D01*
X50380462Y-86813142D01*
X50331215Y-86886845D01*
X50297294Y-86968740D01*
X50280000Y-87055679D01*
X50280000Y-87144321D01*
X50297294Y-87231260D01*
X50331215Y-87313155D01*
X50380462Y-87386858D01*
X50443142Y-87449538D01*
X50516845Y-87498785D01*
X50598740Y-87532706D01*
X50685679Y-87550000D01*
X50774321Y-87550000D01*
X50861260Y-87532706D01*
X50943155Y-87498785D01*
X51016858Y-87449538D01*
X51079538Y-87386858D01*
X51128785Y-87313155D01*
X51162706Y-87231260D01*
X51171212Y-87188500D01*
X53882104Y-87188500D01*
X53943142Y-87249538D01*
X54016845Y-87298785D01*
X54098740Y-87332706D01*
X54185679Y-87350000D01*
X54274321Y-87350000D01*
X54361260Y-87332706D01*
X54443155Y-87298785D01*
X54516858Y-87249538D01*
X54579538Y-87186858D01*
X54628785Y-87113155D01*
X54662706Y-87031260D01*
X54680000Y-86944321D01*
X54680000Y-86855679D01*
X54662706Y-86768740D01*
X54642142Y-86719092D01*
X54650589Y-86715593D01*
X54724292Y-86666346D01*
X54786972Y-86603666D01*
X54836219Y-86529963D01*
X54870140Y-86448068D01*
X54887434Y-86361129D01*
X54887434Y-86272487D01*
X54870140Y-86185548D01*
X54836219Y-86103653D01*
X54786972Y-86029950D01*
X54724292Y-85967270D01*
X54665075Y-85927702D01*
X54674587Y-85879885D01*
X54674587Y-85791243D01*
X54657293Y-85704304D01*
X54623372Y-85622409D01*
X54574125Y-85548706D01*
X54511445Y-85486026D01*
X54437742Y-85436779D01*
X54355847Y-85402858D01*
X54268908Y-85385564D01*
X54180266Y-85385564D01*
X54093327Y-85402858D01*
X54011432Y-85436779D01*
X53937729Y-85486026D01*
X53876691Y-85547064D01*
X51190052Y-85547064D01*
X51175890Y-85545669D01*
X51161728Y-85547064D01*
X51161726Y-85547064D01*
X51119334Y-85551239D01*
X51064952Y-85567736D01*
X51014833Y-85594525D01*
X50970903Y-85630577D01*
X50961869Y-85641585D01*
X50755846Y-85847608D01*
X50669525Y-85847608D01*
X50582586Y-85864902D01*
X50500691Y-85898823D01*
X50426988Y-85948070D01*
X50364308Y-86010750D01*
X50315061Y-86084453D01*
X50281140Y-86166348D01*
X50263846Y-86253287D01*
X46184713Y-86253287D01*
X47098502Y-85339499D01*
X54342304Y-85339499D01*
X54356466Y-85340894D01*
X54370628Y-85339499D01*
X54370630Y-85339499D01*
X54413022Y-85335324D01*
X54467404Y-85318827D01*
X54517523Y-85292038D01*
X54561453Y-85255986D01*
X54570491Y-85244973D01*
X55064311Y-84751154D01*
X55150632Y-84751154D01*
X55237571Y-84733860D01*
X55319466Y-84699939D01*
X55388318Y-84653933D01*
X55418741Y-84674261D01*
X55500636Y-84708182D01*
X55587575Y-84725476D01*
X55676217Y-84725476D01*
X55763156Y-84708182D01*
X55845051Y-84674261D01*
X55918754Y-84625014D01*
X55981434Y-84562334D01*
X56030681Y-84488631D01*
X56064602Y-84406736D01*
X56081896Y-84319797D01*
X56081896Y-84231155D01*
X56064602Y-84144216D01*
X56030681Y-84062321D01*
X55981434Y-83988618D01*
X55918754Y-83925938D01*
X55845051Y-83876691D01*
X55763156Y-83842770D01*
X55676217Y-83825476D01*
X55589896Y-83825476D01*
X55238357Y-83473938D01*
X55229319Y-83462925D01*
X55185389Y-83426873D01*
X55135270Y-83400084D01*
X55080888Y-83383587D01*
X55038496Y-83379412D01*
X55038494Y-83379412D01*
X55024332Y-83378017D01*
X55010170Y-83379412D01*
X54499895Y-83379412D01*
X54485733Y-83378017D01*
X54471571Y-83379412D01*
X54471570Y-83379412D01*
X54429178Y-83383587D01*
X54374796Y-83400084D01*
X54353627Y-83411399D01*
X54324676Y-83426873D01*
X54319331Y-83431260D01*
X54280747Y-83462925D01*
X54271713Y-83473933D01*
X54236414Y-83509232D01*
X54212925Y-83474079D01*
X54150245Y-83411399D01*
X54076542Y-83362152D01*
X53994647Y-83328231D01*
X53907708Y-83310937D01*
X53819066Y-83310937D01*
X53732127Y-83328231D01*
X53650232Y-83362152D01*
X53577220Y-83410937D01*
X53562374Y-83410937D01*
X53545188Y-83409244D01*
X53528002Y-83410937D01*
X53528000Y-83410937D01*
X53476577Y-83416002D01*
X53410602Y-83436015D01*
X53349799Y-83468515D01*
X53296504Y-83512252D01*
X53285544Y-83525607D01*
X53061152Y-83750000D01*
X49904166Y-83750000D01*
X49879538Y-83713142D01*
X49816858Y-83650462D01*
X49743155Y-83601215D01*
X49661260Y-83567294D01*
X49574321Y-83550000D01*
X49485679Y-83550000D01*
X49398740Y-83567294D01*
X49316845Y-83601215D01*
X49243142Y-83650462D01*
X49180462Y-83713142D01*
X49131215Y-83786845D01*
X49097294Y-83868740D01*
X49080000Y-83955679D01*
X49080000Y-84044321D01*
X49097294Y-84131260D01*
X49130529Y-84211500D01*
X46425957Y-84211500D01*
X46411795Y-84210105D01*
X46397633Y-84211500D01*
X46397632Y-84211500D01*
X46355240Y-84215675D01*
X46300858Y-84232172D01*
X46277609Y-84244599D01*
X46250738Y-84258961D01*
X46235921Y-84271122D01*
X46206809Y-84295013D01*
X46197775Y-84306021D01*
X42436022Y-88067775D01*
X42425014Y-88076809D01*
X42403779Y-88102684D01*
X42388961Y-88120739D01*
X42379369Y-88138685D01*
X42362172Y-88170858D01*
X42345675Y-88225240D01*
X42343195Y-88250421D01*
X42343142Y-88250456D01*
X42280462Y-88313136D01*
X42231215Y-88386839D01*
X42197294Y-88468734D01*
X42180000Y-88555673D01*
X34980000Y-88555673D01*
X34980000Y-85814122D01*
X38395000Y-85814122D01*
X38395000Y-86025878D01*
X38436312Y-86233566D01*
X38517348Y-86429203D01*
X38634993Y-86605272D01*
X38784728Y-86755007D01*
X38960797Y-86872652D01*
X39156434Y-86953688D01*
X39364122Y-86995000D01*
X39575878Y-86995000D01*
X39783566Y-86953688D01*
X39979203Y-86872652D01*
X40155272Y-86755007D01*
X40305007Y-86605272D01*
X40422652Y-86429203D01*
X40503688Y-86233566D01*
X40545000Y-86025878D01*
X40545000Y-85814122D01*
X40503688Y-85606434D01*
X40422652Y-85410797D01*
X40305007Y-85234728D01*
X40155272Y-85084993D01*
X39979203Y-84967348D01*
X39783566Y-84886312D01*
X39575878Y-84845000D01*
X39364122Y-84845000D01*
X39156434Y-84886312D01*
X38960797Y-84967348D01*
X38784728Y-85084993D01*
X38634993Y-85234728D01*
X38517348Y-85410797D01*
X38436312Y-85606434D01*
X38395000Y-85814122D01*
X34980000Y-85814122D01*
X34980000Y-83779211D01*
X38093730Y-83779211D01*
X38103877Y-83812685D01*
X38214539Y-84070889D01*
X38373448Y-84302542D01*
X38574497Y-84498742D01*
X38809960Y-84651950D01*
X39070788Y-84756277D01*
X39291000Y-84656033D01*
X39291000Y-83559000D01*
X38195256Y-83559000D01*
X38093730Y-83779211D01*
X34980000Y-83779211D01*
X34980000Y-82980789D01*
X38093730Y-82980789D01*
X38195256Y-83201000D01*
X39291000Y-83201000D01*
X39291000Y-82103967D01*
X39649000Y-82103967D01*
X39649000Y-83201000D01*
X39669000Y-83201000D01*
X39669000Y-83559000D01*
X39649000Y-83559000D01*
X39649000Y-84656033D01*
X39869212Y-84756277D01*
X40130040Y-84651950D01*
X40365503Y-84498742D01*
X40541500Y-84326990D01*
X40541500Y-84725838D01*
X40540105Y-84740000D01*
X40541500Y-84754162D01*
X40541500Y-84754163D01*
X40545675Y-84796555D01*
X40560041Y-84843912D01*
X40562172Y-84850937D01*
X40588961Y-84901057D01*
X40596409Y-84910132D01*
X40625013Y-84944987D01*
X40636026Y-84954025D01*
X40933912Y-85251911D01*
X40933912Y-86770000D01*
X40938256Y-86814108D01*
X40951122Y-86856520D01*
X40972015Y-86895608D01*
X41000132Y-86929868D01*
X41034392Y-86957985D01*
X41073480Y-86978878D01*
X41115892Y-86991744D01*
X41160000Y-86996088D01*
X42860000Y-86996088D01*
X42904108Y-86991744D01*
X42946520Y-86978878D01*
X42985608Y-86957985D01*
X43019868Y-86929868D01*
X43047985Y-86895608D01*
X43068878Y-86856520D01*
X43081744Y-86814108D01*
X43086088Y-86770000D01*
X43086088Y-85070000D01*
X43081744Y-85025892D01*
X43068878Y-84983480D01*
X43047985Y-84944392D01*
X43019868Y-84910132D01*
X42985608Y-84882015D01*
X42946520Y-84861122D01*
X42904108Y-84848256D01*
X42860000Y-84843912D01*
X41341911Y-84843912D01*
X41118500Y-84620501D01*
X41118500Y-83980724D01*
X41174993Y-84065272D01*
X41324728Y-84215007D01*
X41500797Y-84332652D01*
X41696434Y-84413688D01*
X41904122Y-84455000D01*
X42115878Y-84455000D01*
X42323566Y-84413688D01*
X42519203Y-84332652D01*
X42695272Y-84215007D01*
X42845007Y-84065272D01*
X42962652Y-83889203D01*
X43043688Y-83693566D01*
X43085000Y-83485878D01*
X43085000Y-83388500D01*
X52415838Y-83388500D01*
X52430000Y-83389895D01*
X52444162Y-83388500D01*
X52444164Y-83388500D01*
X52486556Y-83384325D01*
X52540938Y-83367828D01*
X52591057Y-83341039D01*
X52634987Y-83304987D01*
X52644025Y-83293974D01*
X54615802Y-81322198D01*
X54643142Y-81349538D01*
X54716845Y-81398785D01*
X54798740Y-81432706D01*
X54885679Y-81450000D01*
X54974321Y-81450000D01*
X55061260Y-81432706D01*
X55143155Y-81398785D01*
X55216858Y-81349538D01*
X55279538Y-81286858D01*
X55328785Y-81213155D01*
X55362706Y-81131260D01*
X55380000Y-81044321D01*
X55380000Y-80955679D01*
X55362706Y-80868740D01*
X55328785Y-80786845D01*
X55279538Y-80713142D01*
X55216858Y-80650462D01*
X55143155Y-80601215D01*
X55061260Y-80567294D01*
X54974321Y-80550000D01*
X54885679Y-80550000D01*
X54798740Y-80567294D01*
X54716845Y-80601215D01*
X54643142Y-80650462D01*
X54582104Y-80711500D01*
X54544161Y-80711500D01*
X54533970Y-80710496D01*
X54520903Y-80678949D01*
X54471656Y-80605246D01*
X54408976Y-80542566D01*
X54335273Y-80493319D01*
X54253378Y-80459398D01*
X54166439Y-80442104D01*
X54077797Y-80442104D01*
X53990858Y-80459398D01*
X53908963Y-80493319D01*
X53835260Y-80542566D01*
X53772580Y-80605246D01*
X53723333Y-80678949D01*
X53689412Y-80760844D01*
X53672118Y-80847783D01*
X53672118Y-80934104D01*
X52294723Y-82311500D01*
X43049500Y-82311500D01*
X42844025Y-82106026D01*
X42834987Y-82095013D01*
X42791057Y-82058961D01*
X42740938Y-82032172D01*
X42686556Y-82015675D01*
X42644164Y-82011500D01*
X42644162Y-82011500D01*
X42630000Y-82010105D01*
X42615838Y-82011500D01*
X41444161Y-82011500D01*
X41429999Y-82010105D01*
X41415837Y-82011500D01*
X41415836Y-82011500D01*
X41373444Y-82015675D01*
X41319062Y-82032172D01*
X41308460Y-82037839D01*
X41268942Y-82058961D01*
X41258138Y-82067828D01*
X41225013Y-82095013D01*
X41215979Y-82106021D01*
X40687796Y-82634205D01*
X40566552Y-82457458D01*
X40365503Y-82261258D01*
X40130040Y-82108050D01*
X39869212Y-82003723D01*
X39649000Y-82103967D01*
X39291000Y-82103967D01*
X39070788Y-82003723D01*
X38809960Y-82108050D01*
X38574497Y-82261258D01*
X38373448Y-82457458D01*
X38214539Y-82689111D01*
X38103877Y-82947315D01*
X38093730Y-82980789D01*
X34980000Y-82980789D01*
X34980000Y-80734122D01*
X38395000Y-80734122D01*
X38395000Y-80945878D01*
X38436312Y-81153566D01*
X38517348Y-81349203D01*
X38634993Y-81525272D01*
X38784728Y-81675007D01*
X38960797Y-81792652D01*
X39156434Y-81873688D01*
X39364122Y-81915000D01*
X39575878Y-81915000D01*
X39783566Y-81873688D01*
X39979203Y-81792652D01*
X40155272Y-81675007D01*
X40305007Y-81525272D01*
X40422652Y-81349203D01*
X40503688Y-81153566D01*
X40545000Y-80945878D01*
X40545000Y-80734122D01*
X40935000Y-80734122D01*
X40935000Y-80945878D01*
X40976312Y-81153566D01*
X41057348Y-81349203D01*
X41174993Y-81525272D01*
X41324728Y-81675007D01*
X41500797Y-81792652D01*
X41696434Y-81873688D01*
X41904122Y-81915000D01*
X42115878Y-81915000D01*
X42323566Y-81873688D01*
X42519203Y-81792652D01*
X42695272Y-81675007D01*
X42845007Y-81525272D01*
X42962652Y-81349203D01*
X43043688Y-81153566D01*
X43085000Y-80945878D01*
X43085000Y-80734122D01*
X43043688Y-80526434D01*
X42962652Y-80330797D01*
X42948453Y-80309547D01*
X43369500Y-79888500D01*
X46033499Y-79888500D01*
X44572001Y-81350000D01*
X44485679Y-81350000D01*
X44398740Y-81367294D01*
X44316845Y-81401215D01*
X44243142Y-81450462D01*
X44180462Y-81513142D01*
X44131215Y-81586845D01*
X44097294Y-81668740D01*
X44080000Y-81755679D01*
X44080000Y-81844321D01*
X44097294Y-81931260D01*
X44131215Y-82013155D01*
X44180462Y-82086858D01*
X44243142Y-82149538D01*
X44316845Y-82198785D01*
X44398740Y-82232706D01*
X44485679Y-82250000D01*
X44574321Y-82250000D01*
X44661260Y-82232706D01*
X44743155Y-82198785D01*
X44816858Y-82149538D01*
X44879538Y-82086858D01*
X44928785Y-82013155D01*
X44962706Y-81931260D01*
X44980000Y-81844321D01*
X44980000Y-81757999D01*
X46449501Y-80288500D01*
X49237499Y-80288500D01*
X49176000Y-80350000D01*
X49089679Y-80350000D01*
X49002740Y-80367294D01*
X48920845Y-80401215D01*
X48847142Y-80450462D01*
X48784462Y-80513142D01*
X48735215Y-80586845D01*
X48701294Y-80668740D01*
X48684000Y-80755679D01*
X48684000Y-80844321D01*
X48701294Y-80931260D01*
X48735215Y-81013155D01*
X48784462Y-81086858D01*
X48847142Y-81149538D01*
X48920845Y-81198785D01*
X49002740Y-81232706D01*
X49089679Y-81250000D01*
X49178321Y-81250000D01*
X49265260Y-81232706D01*
X49347155Y-81198785D01*
X49420858Y-81149538D01*
X49483538Y-81086858D01*
X49532785Y-81013155D01*
X49566706Y-80931260D01*
X49584000Y-80844321D01*
X49584000Y-80758000D01*
X49588790Y-80753210D01*
X53269326Y-80753210D01*
X53283488Y-80754605D01*
X53297650Y-80753210D01*
X53297652Y-80753210D01*
X53340044Y-80749035D01*
X53394426Y-80732538D01*
X53444545Y-80705749D01*
X53488475Y-80669697D01*
X53497513Y-80658684D01*
X54723980Y-79432218D01*
X54734987Y-79423185D01*
X54765516Y-79385985D01*
X54771039Y-79379256D01*
X54786784Y-79349798D01*
X54797828Y-79329136D01*
X54814325Y-79274754D01*
X54816805Y-79249573D01*
X54816858Y-79249538D01*
X54879538Y-79186858D01*
X54928785Y-79113155D01*
X54962706Y-79031260D01*
X54980000Y-78944321D01*
X54980000Y-78855679D01*
X54962706Y-78768740D01*
X54928785Y-78686845D01*
X54879538Y-78613142D01*
X54816858Y-78550462D01*
X54743155Y-78501215D01*
X54661260Y-78467294D01*
X54574321Y-78450000D01*
X54565485Y-78450000D01*
X54580000Y-78377029D01*
X54580000Y-78288387D01*
X54562706Y-78201448D01*
X54528785Y-78119553D01*
X54479538Y-78045850D01*
X54416858Y-77983170D01*
X54343155Y-77933923D01*
X54261260Y-77900002D01*
X54174321Y-77882708D01*
X54085679Y-77882708D01*
X53998740Y-77900002D01*
X53916845Y-77933923D01*
X53843142Y-77983170D01*
X53780462Y-78045850D01*
X53731215Y-78119553D01*
X53697294Y-78201448D01*
X53680000Y-78288387D01*
X53680000Y-78374707D01*
X52743209Y-79311500D01*
X43264162Y-79311500D01*
X43250000Y-79310105D01*
X43235838Y-79311500D01*
X43235836Y-79311500D01*
X43193444Y-79315675D01*
X43139062Y-79332172D01*
X43088943Y-79358961D01*
X43045013Y-79395013D01*
X43035979Y-79406021D01*
X42540453Y-79901547D01*
X42519203Y-79887348D01*
X42323566Y-79806312D01*
X42115878Y-79765000D01*
X41904122Y-79765000D01*
X41696434Y-79806312D01*
X41500797Y-79887348D01*
X41324728Y-80004993D01*
X41174993Y-80154728D01*
X41057348Y-80330797D01*
X40976312Y-80526434D01*
X40935000Y-80734122D01*
X40545000Y-80734122D01*
X40503688Y-80526434D01*
X40422652Y-80330797D01*
X40305007Y-80154728D01*
X40155272Y-80004993D01*
X39979203Y-79887348D01*
X39783566Y-79806312D01*
X39575878Y-79765000D01*
X39364122Y-79765000D01*
X39156434Y-79806312D01*
X38960797Y-79887348D01*
X38784728Y-80004993D01*
X38634993Y-80154728D01*
X38517348Y-80330797D01*
X38436312Y-80526434D01*
X38395000Y-80734122D01*
X34980000Y-80734122D01*
X34980000Y-78655679D01*
X49080000Y-78655679D01*
X49080000Y-78744321D01*
X49097294Y-78831260D01*
X49131215Y-78913155D01*
X49180462Y-78986858D01*
X49243142Y-79049538D01*
X49316845Y-79098785D01*
X49398740Y-79132706D01*
X49485679Y-79150000D01*
X49574321Y-79150000D01*
X49661260Y-79132706D01*
X49743155Y-79098785D01*
X49816858Y-79049538D01*
X49877896Y-78988500D01*
X52515838Y-78988500D01*
X52530000Y-78989895D01*
X52544162Y-78988500D01*
X52544164Y-78988500D01*
X52586556Y-78984325D01*
X52640938Y-78967828D01*
X52691057Y-78941039D01*
X52734987Y-78904987D01*
X52744025Y-78893974D01*
X53849501Y-77788500D01*
X54310501Y-77788500D01*
X55241501Y-78719501D01*
X55241500Y-79652104D01*
X55180462Y-79713142D01*
X55131215Y-79786845D01*
X55097294Y-79868740D01*
X55080000Y-79955679D01*
X55080000Y-80044321D01*
X55097294Y-80131260D01*
X55131215Y-80213155D01*
X55180462Y-80286858D01*
X55243142Y-80349538D01*
X55316845Y-80398785D01*
X55398740Y-80432706D01*
X55485679Y-80450000D01*
X55574321Y-80450000D01*
X55661260Y-80432706D01*
X55743155Y-80398785D01*
X55816858Y-80349538D01*
X55879538Y-80286858D01*
X55928785Y-80213155D01*
X55952591Y-80155679D01*
X57480000Y-80155679D01*
X57480000Y-80244321D01*
X57497294Y-80331260D01*
X57531215Y-80413155D01*
X57580462Y-80486858D01*
X57643142Y-80549538D01*
X57716845Y-80598785D01*
X57798740Y-80632706D01*
X57885679Y-80650000D01*
X57972000Y-80650000D01*
X58015979Y-80693979D01*
X58025013Y-80704987D01*
X58054125Y-80728878D01*
X58068942Y-80741039D01*
X58091713Y-80753210D01*
X58119062Y-80767828D01*
X58173444Y-80784325D01*
X58215836Y-80788500D01*
X58215837Y-80788500D01*
X58229999Y-80789895D01*
X58244161Y-80788500D01*
X59814766Y-80788500D01*
X59837513Y-80843416D01*
X59916856Y-80962161D01*
X60017839Y-81063144D01*
X60136584Y-81142487D01*
X60268525Y-81197139D01*
X60408594Y-81225000D01*
X60551406Y-81225000D01*
X60691475Y-81197139D01*
X60823416Y-81142487D01*
X60942161Y-81063144D01*
X61043144Y-80962161D01*
X61122487Y-80843416D01*
X61177139Y-80711475D01*
X61205000Y-80571406D01*
X61205000Y-80428594D01*
X61177139Y-80288525D01*
X61122487Y-80156584D01*
X61043144Y-80037839D01*
X60942161Y-79936856D01*
X60823416Y-79857513D01*
X60768500Y-79834766D01*
X60768500Y-78555679D01*
X61680000Y-78555679D01*
X61680000Y-78644321D01*
X61697294Y-78731260D01*
X61731215Y-78813155D01*
X61780462Y-78886858D01*
X61843142Y-78949538D01*
X61916845Y-78998785D01*
X61998740Y-79032706D01*
X62085679Y-79050000D01*
X62172000Y-79050000D01*
X62191501Y-79069501D01*
X62191500Y-79834766D01*
X62136584Y-79857513D01*
X62017839Y-79936856D01*
X61916856Y-80037839D01*
X61837513Y-80156584D01*
X61782861Y-80288525D01*
X61755000Y-80428594D01*
X61755000Y-80571406D01*
X61782861Y-80711475D01*
X61837513Y-80843416D01*
X61916856Y-80962161D01*
X62017839Y-81063144D01*
X62136584Y-81142487D01*
X62268525Y-81197139D01*
X62408594Y-81225000D01*
X62551406Y-81225000D01*
X62691475Y-81197139D01*
X62823416Y-81142487D01*
X62942161Y-81063144D01*
X63043144Y-80962161D01*
X63122487Y-80843416D01*
X63177139Y-80711475D01*
X63205000Y-80571406D01*
X63205000Y-80428594D01*
X63177139Y-80288525D01*
X63122487Y-80156584D01*
X63043144Y-80037839D01*
X62942161Y-79936856D01*
X62823416Y-79857513D01*
X62768500Y-79834766D01*
X62768500Y-78964162D01*
X62769895Y-78950000D01*
X62767758Y-78928303D01*
X62764325Y-78893444D01*
X62747828Y-78839062D01*
X62721039Y-78788943D01*
X62684987Y-78745013D01*
X62673979Y-78735979D01*
X62580000Y-78642000D01*
X62580000Y-78555679D01*
X62562706Y-78468740D01*
X62528785Y-78386845D01*
X62479538Y-78313142D01*
X62416858Y-78250462D01*
X62343155Y-78201215D01*
X62261260Y-78167294D01*
X62174321Y-78150000D01*
X62085679Y-78150000D01*
X61998740Y-78167294D01*
X61916845Y-78201215D01*
X61843142Y-78250462D01*
X61780462Y-78313142D01*
X61731215Y-78386845D01*
X61697294Y-78468740D01*
X61680000Y-78555679D01*
X60768500Y-78555679D01*
X60768500Y-78450000D01*
X60774321Y-78450000D01*
X60861260Y-78432706D01*
X60943155Y-78398785D01*
X61016858Y-78349538D01*
X61079538Y-78286858D01*
X61128785Y-78213155D01*
X61162706Y-78131260D01*
X61180000Y-78044321D01*
X61180000Y-77955679D01*
X61162706Y-77868740D01*
X61128785Y-77786845D01*
X61079538Y-77713142D01*
X61016858Y-77650462D01*
X60943155Y-77601215D01*
X60861260Y-77567294D01*
X60774321Y-77550000D01*
X60685679Y-77550000D01*
X60598740Y-77567294D01*
X60516845Y-77601215D01*
X60443142Y-77650462D01*
X60380462Y-77713142D01*
X60331215Y-77786845D01*
X60297294Y-77868740D01*
X60280000Y-77955679D01*
X60280000Y-78040921D01*
X60275014Y-78045013D01*
X60253779Y-78070888D01*
X60238961Y-78088943D01*
X60212172Y-78139063D01*
X60195676Y-78193445D01*
X60190105Y-78250000D01*
X60191501Y-78264172D01*
X60191500Y-79834766D01*
X60136584Y-79857513D01*
X60017839Y-79936856D01*
X59916856Y-80037839D01*
X59837513Y-80156584D01*
X59814766Y-80211500D01*
X58380000Y-80211500D01*
X58380000Y-80155679D01*
X58362706Y-80068740D01*
X58328785Y-79986845D01*
X58279538Y-79913142D01*
X58216858Y-79850462D01*
X58143155Y-79801215D01*
X58061260Y-79767294D01*
X57974321Y-79750000D01*
X57885679Y-79750000D01*
X57798740Y-79767294D01*
X57716845Y-79801215D01*
X57643142Y-79850462D01*
X57580462Y-79913142D01*
X57531215Y-79986845D01*
X57497294Y-80068740D01*
X57480000Y-80155679D01*
X55952591Y-80155679D01*
X55962706Y-80131260D01*
X55980000Y-80044321D01*
X55980000Y-79955679D01*
X55962706Y-79868740D01*
X55928785Y-79786845D01*
X55879538Y-79713142D01*
X55818500Y-79652104D01*
X55818500Y-78614162D01*
X55819895Y-78600000D01*
X55816816Y-78568740D01*
X55814325Y-78543444D01*
X55797828Y-78489062D01*
X55771039Y-78438943D01*
X55734987Y-78395013D01*
X55723979Y-78385979D01*
X54644025Y-77306026D01*
X54634987Y-77295013D01*
X54591057Y-77258961D01*
X54540938Y-77232172D01*
X54486556Y-77215675D01*
X54444164Y-77211500D01*
X54444162Y-77211500D01*
X54430000Y-77210105D01*
X54415838Y-77211500D01*
X53744161Y-77211500D01*
X53729999Y-77210105D01*
X53715837Y-77211500D01*
X53715836Y-77211500D01*
X53673444Y-77215675D01*
X53619062Y-77232172D01*
X53595731Y-77244643D01*
X53568942Y-77258961D01*
X53557027Y-77268740D01*
X53525013Y-77295013D01*
X53515984Y-77306015D01*
X52410501Y-78411500D01*
X49877896Y-78411500D01*
X49816858Y-78350462D01*
X49743155Y-78301215D01*
X49661260Y-78267294D01*
X49574321Y-78250000D01*
X49485679Y-78250000D01*
X49398740Y-78267294D01*
X49316845Y-78301215D01*
X49243142Y-78350462D01*
X49180462Y-78413142D01*
X49131215Y-78486845D01*
X49097294Y-78568740D01*
X49080000Y-78655679D01*
X34980000Y-78655679D01*
X34980000Y-74955679D01*
X50680000Y-74955679D01*
X50680000Y-75044321D01*
X50697294Y-75131260D01*
X50731215Y-75213155D01*
X50780462Y-75286858D01*
X50843142Y-75349538D01*
X50916845Y-75398785D01*
X50998740Y-75432706D01*
X51085679Y-75450000D01*
X51172001Y-75450000D01*
X52441500Y-76719500D01*
X52441501Y-77052103D01*
X52380462Y-77113142D01*
X52331215Y-77186845D01*
X52327001Y-77197020D01*
X52250283Y-77165243D01*
X52163344Y-77147949D01*
X52074702Y-77147949D01*
X51987763Y-77165243D01*
X51918498Y-77193933D01*
X51918498Y-77047898D01*
X51979538Y-76986858D01*
X52028785Y-76913155D01*
X52062706Y-76831260D01*
X52080000Y-76744321D01*
X52080000Y-76655679D01*
X52062706Y-76568740D01*
X52028785Y-76486845D01*
X51979538Y-76413142D01*
X51916858Y-76350462D01*
X51843155Y-76301215D01*
X51761260Y-76267294D01*
X51674321Y-76250000D01*
X51585679Y-76250000D01*
X51498740Y-76267294D01*
X51416845Y-76301215D01*
X51343142Y-76350462D01*
X51280462Y-76413142D01*
X51231215Y-76486845D01*
X51197294Y-76568740D01*
X51180000Y-76655679D01*
X51180000Y-76744321D01*
X51197294Y-76831260D01*
X51231215Y-76913155D01*
X51280462Y-76986858D01*
X51341499Y-77047895D01*
X51341498Y-77452104D01*
X51280460Y-77513142D01*
X51231213Y-77586845D01*
X51197292Y-77668740D01*
X51179998Y-77755679D01*
X51179998Y-77844321D01*
X51197292Y-77931260D01*
X51231213Y-78013155D01*
X51280460Y-78086858D01*
X51343140Y-78149538D01*
X51416843Y-78198785D01*
X51498738Y-78232706D01*
X51585677Y-78250000D01*
X51674319Y-78250000D01*
X51761258Y-78232706D01*
X51843153Y-78198785D01*
X51916856Y-78149538D01*
X51979536Y-78086858D01*
X52013649Y-78035804D01*
X52074702Y-78047949D01*
X52163344Y-78047949D01*
X52250283Y-78030655D01*
X52332178Y-77996734D01*
X52405881Y-77947487D01*
X52468561Y-77884807D01*
X52517808Y-77811104D01*
X52522022Y-77800929D01*
X52598740Y-77832706D01*
X52685679Y-77850000D01*
X52774321Y-77850000D01*
X52861260Y-77832706D01*
X52943155Y-77798785D01*
X53016858Y-77749538D01*
X53079538Y-77686858D01*
X53128785Y-77613155D01*
X53162706Y-77531260D01*
X53180000Y-77444321D01*
X53180000Y-77355679D01*
X53162706Y-77268740D01*
X53128785Y-77186845D01*
X53079538Y-77113142D01*
X53018500Y-77052104D01*
X53018500Y-76614164D01*
X53019895Y-76600000D01*
X53014325Y-76543444D01*
X52997828Y-76489062D01*
X52971039Y-76438943D01*
X52951944Y-76415676D01*
X52934987Y-76395013D01*
X52923980Y-76385980D01*
X51580000Y-75042001D01*
X51580000Y-74955679D01*
X51562706Y-74868740D01*
X51528785Y-74786845D01*
X51479538Y-74713142D01*
X51416858Y-74650462D01*
X51343155Y-74601215D01*
X51261260Y-74567294D01*
X51174321Y-74550000D01*
X51085679Y-74550000D01*
X50998740Y-74567294D01*
X50916845Y-74601215D01*
X50843142Y-74650462D01*
X50780462Y-74713142D01*
X50731215Y-74786845D01*
X50697294Y-74868740D01*
X50680000Y-74955679D01*
X34980000Y-74955679D01*
X34980000Y-64606433D01*
X54280000Y-64606433D01*
X54280000Y-64793567D01*
X54316508Y-64977105D01*
X54388121Y-65149994D01*
X54492087Y-65305590D01*
X54624410Y-65437913D01*
X54780006Y-65541879D01*
X54952895Y-65613492D01*
X55136433Y-65650000D01*
X55323567Y-65650000D01*
X55507105Y-65613492D01*
X55679994Y-65541879D01*
X55835590Y-65437913D01*
X55967913Y-65305590D01*
X56071879Y-65149994D01*
X56143492Y-64977105D01*
X56180000Y-64793567D01*
X56180000Y-64606433D01*
X59280000Y-64606433D01*
X59280000Y-64793567D01*
X59316508Y-64977105D01*
X59388121Y-65149994D01*
X59492087Y-65305590D01*
X59624410Y-65437913D01*
X59780006Y-65541879D01*
X59952895Y-65613492D01*
X60136433Y-65650000D01*
X60323567Y-65650000D01*
X60507105Y-65613492D01*
X60679994Y-65541879D01*
X60835590Y-65437913D01*
X60967913Y-65305590D01*
X61071879Y-65149994D01*
X61143492Y-64977105D01*
X61180000Y-64793567D01*
X61180000Y-64606433D01*
X61143492Y-64422895D01*
X61071879Y-64250006D01*
X60967913Y-64094410D01*
X60835590Y-63962087D01*
X60679994Y-63858121D01*
X60507105Y-63786508D01*
X60323567Y-63750000D01*
X60136433Y-63750000D01*
X59952895Y-63786508D01*
X59780006Y-63858121D01*
X59624410Y-63962087D01*
X59492087Y-64094410D01*
X59388121Y-64250006D01*
X59316508Y-64422895D01*
X59280000Y-64606433D01*
X56180000Y-64606433D01*
X56143492Y-64422895D01*
X56071879Y-64250006D01*
X55967913Y-64094410D01*
X55835590Y-63962087D01*
X55679994Y-63858121D01*
X55507105Y-63786508D01*
X55323567Y-63750000D01*
X55136433Y-63750000D01*
X54952895Y-63786508D01*
X54780006Y-63858121D01*
X54624410Y-63962087D01*
X54492087Y-64094410D01*
X54388121Y-64250006D01*
X54316508Y-64422895D01*
X54280000Y-64606433D01*
X34980000Y-64606433D01*
X34980000Y-62012229D01*
X35014505Y-61660322D01*
X35029855Y-61609479D01*
X53405000Y-61609479D01*
X53405000Y-62390520D01*
X53416938Y-62511727D01*
X53464112Y-62667240D01*
X53540719Y-62810562D01*
X53643815Y-62936185D01*
X53769437Y-63039281D01*
X53912759Y-63115888D01*
X54068272Y-63163062D01*
X54230000Y-63178991D01*
X54391727Y-63163062D01*
X54547240Y-63115888D01*
X54690562Y-63039281D01*
X54816185Y-62936185D01*
X54919281Y-62810563D01*
X54995888Y-62667241D01*
X55043062Y-62511728D01*
X55055000Y-62390521D01*
X55055000Y-61609480D01*
X60405000Y-61609480D01*
X60405000Y-62390521D01*
X60416938Y-62511728D01*
X60464113Y-62667241D01*
X60540720Y-62810563D01*
X60643816Y-62936185D01*
X60769438Y-63039281D01*
X60912760Y-63115888D01*
X61068273Y-63163062D01*
X61230000Y-63178991D01*
X61391728Y-63163062D01*
X61547241Y-63115888D01*
X61690563Y-63039281D01*
X61816185Y-62936185D01*
X61919281Y-62810563D01*
X61995888Y-62667241D01*
X62043062Y-62511728D01*
X62055000Y-62390521D01*
X62055000Y-61609479D01*
X62043062Y-61488272D01*
X61995888Y-61332759D01*
X61919281Y-61189437D01*
X61816185Y-61063815D01*
X61690562Y-60960719D01*
X61547240Y-60884112D01*
X61391727Y-60836938D01*
X61230000Y-60821009D01*
X61068272Y-60836938D01*
X60912759Y-60884112D01*
X60769437Y-60960719D01*
X60643815Y-61063815D01*
X60540719Y-61189438D01*
X60464112Y-61332760D01*
X60416938Y-61488273D01*
X60405000Y-61609480D01*
X55055000Y-61609480D01*
X55055000Y-61609479D01*
X55043062Y-61488272D01*
X54995888Y-61332759D01*
X54919281Y-61189437D01*
X54816185Y-61063815D01*
X54690563Y-60960719D01*
X54547241Y-60884112D01*
X54391728Y-60836938D01*
X54230000Y-60821009D01*
X54068273Y-60836938D01*
X53912760Y-60884112D01*
X53769438Y-60960719D01*
X53643816Y-61063815D01*
X53540720Y-61189437D01*
X53464113Y-61332759D01*
X53416938Y-61488272D01*
X53405000Y-61609479D01*
X35029855Y-61609479D01*
X35113153Y-61333584D01*
X35273389Y-61032225D01*
X35489104Y-60767733D01*
X35752082Y-60550178D01*
X36052310Y-60387846D01*
X36378359Y-60286917D01*
X36729576Y-60250003D01*
X36730307Y-60250000D01*
X62717771Y-60250000D01*
X63069678Y-60284505D01*
G04 #@! TA.AperFunction,Conductor*
D21*
G36*
X63069678Y-60284505D02*
G01*
X63396416Y-60383153D01*
X63697775Y-60543389D01*
X63962267Y-60759104D01*
X64179822Y-61022082D01*
X64342154Y-61322310D01*
X64443083Y-61648359D01*
X64479997Y-61999576D01*
X64480001Y-62000592D01*
X64480000Y-95469976D01*
X64341646Y-95262914D01*
X63962086Y-94883354D01*
X63515771Y-94585136D01*
X63019853Y-94379720D01*
X62493389Y-94275000D01*
X61956611Y-94275000D01*
X61430147Y-94379720D01*
X60934229Y-94585136D01*
X60487914Y-94883354D01*
X60108354Y-95262914D01*
X59810136Y-95709229D01*
X59604720Y-96205147D01*
X59500000Y-96731611D01*
X59500000Y-97268389D01*
X59604720Y-97794853D01*
X59810136Y-98290771D01*
X60108354Y-98737086D01*
X60487914Y-99116646D01*
X60934229Y-99414864D01*
X61430147Y-99620280D01*
X61956611Y-99725000D01*
X62493389Y-99725000D01*
X63019853Y-99620280D01*
X63515771Y-99414864D01*
X63962086Y-99116646D01*
X64341646Y-98737086D01*
X64480000Y-98530024D01*
X64480000Y-105987771D01*
X64445495Y-106339679D01*
X64346847Y-106666416D01*
X64186612Y-106967773D01*
X63970900Y-107232262D01*
X63707918Y-107449822D01*
X63407690Y-107612154D01*
X63081642Y-107713083D01*
X62730424Y-107749997D01*
X62729693Y-107750000D01*
X36742229Y-107750000D01*
X36390321Y-107715495D01*
X36063584Y-107616847D01*
X35762227Y-107456612D01*
X35497738Y-107240900D01*
X35280178Y-106977918D01*
X35117846Y-106677690D01*
X35016917Y-106351642D01*
X34980003Y-106000424D01*
X34980000Y-105999693D01*
X34980000Y-98530025D01*
X35118354Y-98737086D01*
X35497914Y-99116646D01*
X35944229Y-99414864D01*
X36440147Y-99620280D01*
X36966611Y-99725000D01*
X37503389Y-99725000D01*
X38029853Y-99620280D01*
X38514945Y-99419348D01*
X43683000Y-99419348D01*
X43683000Y-99660652D01*
X43730076Y-99897319D01*
X43822419Y-100120255D01*
X43956481Y-100320892D01*
X44127108Y-100491519D01*
X44327745Y-100625581D01*
X44550681Y-100717924D01*
X44787348Y-100765000D01*
X45028652Y-100765000D01*
X45265319Y-100717924D01*
X45488255Y-100625581D01*
X45688892Y-100491519D01*
X45859519Y-100320892D01*
X45993581Y-100120255D01*
X46051000Y-99981633D01*
X46108419Y-100120255D01*
X46242481Y-100320892D01*
X46413108Y-100491519D01*
X46613745Y-100625581D01*
X46836681Y-100717924D01*
X46905500Y-100731613D01*
X46905501Y-102466499D01*
X46796392Y-102575608D01*
X46741475Y-102552861D01*
X46601406Y-102525000D01*
X46458594Y-102525000D01*
X46318525Y-102552861D01*
X46186584Y-102607513D01*
X46067839Y-102686856D01*
X45966856Y-102787839D01*
X45887513Y-102906584D01*
X45832861Y-103038525D01*
X45805000Y-103178594D01*
X45805000Y-103321406D01*
X45832861Y-103461475D01*
X45887513Y-103593416D01*
X45966856Y-103712161D01*
X46067839Y-103813144D01*
X46186584Y-103892487D01*
X46318525Y-103947139D01*
X46458594Y-103975000D01*
X46601406Y-103975000D01*
X46741475Y-103947139D01*
X46873416Y-103892487D01*
X46992161Y-103813144D01*
X47093144Y-103712161D01*
X47172487Y-103593416D01*
X47227139Y-103461475D01*
X47255000Y-103321406D01*
X47255000Y-103178594D01*
X47227139Y-103038525D01*
X47204392Y-102983608D01*
X47387979Y-102800021D01*
X47398987Y-102790987D01*
X47435039Y-102747057D01*
X47461828Y-102696938D01*
X47478325Y-102642556D01*
X47482500Y-102600164D01*
X47482500Y-102600162D01*
X47483895Y-102586000D01*
X47482500Y-102571838D01*
X47482500Y-100731613D01*
X47551319Y-100717924D01*
X47774255Y-100625581D01*
X47974892Y-100491519D01*
X48145519Y-100320892D01*
X48279581Y-100120255D01*
X48337000Y-99981633D01*
X48394419Y-100120255D01*
X48528481Y-100320892D01*
X48699108Y-100491519D01*
X48899745Y-100625581D01*
X49122681Y-100717924D01*
X49191500Y-100731613D01*
X49191501Y-102480499D01*
X49096392Y-102575608D01*
X49041475Y-102552861D01*
X48901406Y-102525000D01*
X48758594Y-102525000D01*
X48618525Y-102552861D01*
X48486584Y-102607513D01*
X48367839Y-102686856D01*
X48266856Y-102787839D01*
X48187513Y-102906584D01*
X48132861Y-103038525D01*
X48105000Y-103178594D01*
X48105000Y-103321406D01*
X48132861Y-103461475D01*
X48187513Y-103593416D01*
X48266856Y-103712161D01*
X48367839Y-103813144D01*
X48486584Y-103892487D01*
X48618525Y-103947139D01*
X48758594Y-103975000D01*
X48901406Y-103975000D01*
X49041475Y-103947139D01*
X49173416Y-103892487D01*
X49292161Y-103813144D01*
X49393144Y-103712161D01*
X49472487Y-103593416D01*
X49527139Y-103461475D01*
X49555000Y-103321406D01*
X49555000Y-103178594D01*
X49527139Y-103038525D01*
X49504392Y-102983608D01*
X49673979Y-102814021D01*
X49684987Y-102804987D01*
X49721039Y-102761057D01*
X49747828Y-102710938D01*
X49764325Y-102656556D01*
X49768500Y-102614164D01*
X49768500Y-102614162D01*
X49769895Y-102600000D01*
X49768500Y-102585838D01*
X49768500Y-100731613D01*
X49837319Y-100717924D01*
X50060255Y-100625581D01*
X50118598Y-100586598D01*
X51225984Y-101693985D01*
X51235013Y-101704987D01*
X51246014Y-101714015D01*
X51246015Y-101714016D01*
X51278943Y-101741039D01*
X51329062Y-101767828D01*
X51383444Y-101784325D01*
X51440000Y-101789895D01*
X51454164Y-101788500D01*
X54415838Y-101788500D01*
X54430000Y-101789895D01*
X54444162Y-101788500D01*
X54444164Y-101788500D01*
X54486556Y-101784325D01*
X54540938Y-101767828D01*
X54591057Y-101741039D01*
X54634987Y-101704987D01*
X54644025Y-101693974D01*
X57627190Y-98710810D01*
X57638196Y-98701778D01*
X57674248Y-98657848D01*
X57701037Y-98607729D01*
X57717534Y-98553347D01*
X57721709Y-98510955D01*
X57721709Y-98510953D01*
X57723104Y-98496791D01*
X57721709Y-98482629D01*
X57721709Y-84217371D01*
X57723104Y-84203209D01*
X57721709Y-84189045D01*
X57717534Y-84146653D01*
X57701037Y-84092271D01*
X57674248Y-84042152D01*
X57638196Y-83998222D01*
X57627188Y-83989188D01*
X56893679Y-83255679D01*
X58780000Y-83255679D01*
X58780000Y-83344321D01*
X58797294Y-83431260D01*
X58831215Y-83513155D01*
X58880462Y-83586858D01*
X58943142Y-83649538D01*
X59016845Y-83698785D01*
X59098740Y-83732706D01*
X59185679Y-83750000D01*
X59274321Y-83750000D01*
X59361260Y-83732706D01*
X59443155Y-83698785D01*
X59516858Y-83649538D01*
X59577896Y-83588500D01*
X59665838Y-83588500D01*
X59680000Y-83589895D01*
X59694162Y-83588500D01*
X59694164Y-83588500D01*
X59736556Y-83584325D01*
X59790938Y-83567828D01*
X59841057Y-83541039D01*
X59884987Y-83504987D01*
X59894025Y-83493974D01*
X60213608Y-83174391D01*
X60268525Y-83197139D01*
X60408594Y-83225000D01*
X60551406Y-83225000D01*
X60691475Y-83197139D01*
X60823416Y-83142487D01*
X60942161Y-83063144D01*
X61043144Y-82962161D01*
X61122487Y-82843416D01*
X61177139Y-82711475D01*
X61205000Y-82571406D01*
X61205000Y-82428594D01*
X61177139Y-82288525D01*
X61122487Y-82156584D01*
X61043144Y-82037839D01*
X60960984Y-81955679D01*
X61180000Y-81955679D01*
X61180000Y-82044321D01*
X61197294Y-82131260D01*
X61231215Y-82213155D01*
X61280462Y-82286858D01*
X61343142Y-82349538D01*
X61416845Y-82398785D01*
X61498740Y-82432706D01*
X61585679Y-82450000D01*
X61674321Y-82450000D01*
X61755000Y-82433951D01*
X61755000Y-82571406D01*
X61782861Y-82711475D01*
X61837513Y-82843416D01*
X61916856Y-82962161D01*
X62017839Y-83063144D01*
X62136584Y-83142487D01*
X62268525Y-83197139D01*
X62408594Y-83225000D01*
X62551406Y-83225000D01*
X62691475Y-83197139D01*
X62823416Y-83142487D01*
X62942161Y-83063144D01*
X63043144Y-82962161D01*
X63122487Y-82843416D01*
X63177139Y-82711475D01*
X63205000Y-82571406D01*
X63205000Y-82428594D01*
X63177139Y-82288525D01*
X63122487Y-82156584D01*
X63043144Y-82037839D01*
X62942161Y-81936856D01*
X62823416Y-81857513D01*
X62691475Y-81802861D01*
X62551406Y-81775000D01*
X62408594Y-81775000D01*
X62268525Y-81802861D01*
X62213608Y-81825609D01*
X62194025Y-81806026D01*
X62184987Y-81795013D01*
X62141057Y-81758961D01*
X62090938Y-81732172D01*
X62036556Y-81715675D01*
X61994164Y-81711500D01*
X61994162Y-81711500D01*
X61980000Y-81710105D01*
X61976815Y-81710419D01*
X61916858Y-81650462D01*
X61843155Y-81601215D01*
X61761260Y-81567294D01*
X61674321Y-81550000D01*
X61585679Y-81550000D01*
X61498740Y-81567294D01*
X61416845Y-81601215D01*
X61343142Y-81650462D01*
X61280462Y-81713142D01*
X61231215Y-81786845D01*
X61197294Y-81868740D01*
X61180000Y-81955679D01*
X60960984Y-81955679D01*
X60942161Y-81936856D01*
X60823416Y-81857513D01*
X60691475Y-81802861D01*
X60551406Y-81775000D01*
X60408594Y-81775000D01*
X60268525Y-81802861D01*
X60136584Y-81857513D01*
X60017839Y-81936856D01*
X59916856Y-82037839D01*
X59837513Y-82156584D01*
X59782861Y-82288525D01*
X59755000Y-82428594D01*
X59755000Y-82571406D01*
X59782861Y-82711475D01*
X59805609Y-82766392D01*
X59569198Y-83002802D01*
X59516858Y-82950462D01*
X59443155Y-82901215D01*
X59361260Y-82867294D01*
X59274321Y-82850000D01*
X59185679Y-82850000D01*
X59098740Y-82867294D01*
X59016845Y-82901215D01*
X58943142Y-82950462D01*
X58880462Y-83013142D01*
X58831215Y-83086845D01*
X58797294Y-83168740D01*
X58780000Y-83255679D01*
X56893679Y-83255679D01*
X55744025Y-82106026D01*
X55734987Y-82095013D01*
X55691057Y-82058961D01*
X55640938Y-82032172D01*
X55586556Y-82015675D01*
X55544164Y-82011500D01*
X55544162Y-82011500D01*
X55530000Y-82010105D01*
X55515838Y-82011500D01*
X55177896Y-82011500D01*
X55116858Y-81950462D01*
X55043155Y-81901215D01*
X54961260Y-81867294D01*
X54874321Y-81850000D01*
X54785679Y-81850000D01*
X54698740Y-81867294D01*
X54616845Y-81901215D01*
X54543142Y-81950462D01*
X54480462Y-82013142D01*
X54431215Y-82086845D01*
X54426561Y-82098081D01*
X54368983Y-82059609D01*
X54287088Y-82025688D01*
X54200149Y-82008394D01*
X54111507Y-82008394D01*
X54024568Y-82025688D01*
X53942673Y-82059609D01*
X53868970Y-82108856D01*
X53806290Y-82171536D01*
X53757043Y-82245239D01*
X53723122Y-82327134D01*
X53705828Y-82414073D01*
X53705828Y-82502715D01*
X53723122Y-82589654D01*
X53757043Y-82671549D01*
X53806290Y-82745252D01*
X53868970Y-82807932D01*
X53942673Y-82857179D01*
X54024568Y-82891100D01*
X54111507Y-82908394D01*
X54200149Y-82908394D01*
X54200212Y-82908381D01*
X54219770Y-82924432D01*
X54269889Y-82951221D01*
X54324271Y-82967718D01*
X54380827Y-82973288D01*
X54394991Y-82971893D01*
X55293894Y-82971893D01*
X56741501Y-84419502D01*
X56741500Y-96641741D01*
X56730093Y-96575950D01*
X56617907Y-96285006D01*
X56580909Y-96215787D01*
X56337407Y-96112737D01*
X55450144Y-97000000D01*
X55464287Y-97014143D01*
X55211143Y-97267287D01*
X55197000Y-97253144D01*
X55182858Y-97267287D01*
X54929714Y-97014143D01*
X54943856Y-97000000D01*
X54396577Y-96452721D01*
X54331907Y-96285006D01*
X54294909Y-96215787D01*
X54060398Y-96116542D01*
X54056593Y-96112737D01*
X54054000Y-96113834D01*
X54051407Y-96112737D01*
X54047602Y-96116542D01*
X53813091Y-96215787D01*
X53705324Y-96458820D01*
X53164144Y-97000000D01*
X53178287Y-97014143D01*
X52925143Y-97267287D01*
X52911000Y-97253144D01*
X52896858Y-97267287D01*
X52643714Y-97014143D01*
X52657856Y-97000000D01*
X52110577Y-96452721D01*
X52045907Y-96285006D01*
X52008909Y-96215787D01*
X51774398Y-96116542D01*
X51770593Y-96112737D01*
X51768000Y-96113834D01*
X51765407Y-96112737D01*
X51761602Y-96116542D01*
X51527091Y-96215787D01*
X51419324Y-96458820D01*
X50878144Y-97000000D01*
X50892287Y-97014143D01*
X50639143Y-97267287D01*
X50625000Y-97253144D01*
X50610858Y-97267287D01*
X50357714Y-97014143D01*
X50371856Y-97000000D01*
X49484593Y-96112737D01*
X49273488Y-96202077D01*
X49119892Y-96048481D01*
X48919255Y-95914419D01*
X48696319Y-95822076D01*
X48459652Y-95775000D01*
X48218348Y-95775000D01*
X47981681Y-95822076D01*
X47758745Y-95914419D01*
X47558108Y-96048481D01*
X47404512Y-96202077D01*
X47193407Y-96112737D01*
X46306144Y-97000000D01*
X47193407Y-97887263D01*
X47404512Y-97797923D01*
X47558108Y-97951519D01*
X47758745Y-98085581D01*
X47981681Y-98177924D01*
X48120469Y-98205531D01*
X47832598Y-98493403D01*
X47774255Y-98454419D01*
X47551319Y-98362076D01*
X47314652Y-98315000D01*
X47073348Y-98315000D01*
X46847351Y-98359954D01*
X46940263Y-98140407D01*
X46053000Y-97253144D01*
X45165737Y-98140407D01*
X45259017Y-98360822D01*
X45028652Y-98315000D01*
X44787348Y-98315000D01*
X44550681Y-98362076D01*
X44327745Y-98454419D01*
X44127108Y-98588481D01*
X43956481Y-98759108D01*
X43822419Y-98959745D01*
X43730076Y-99182681D01*
X43683000Y-99419348D01*
X38514945Y-99419348D01*
X38525771Y-99414864D01*
X38972086Y-99116646D01*
X39351646Y-98737086D01*
X39649864Y-98290771D01*
X39855280Y-97794853D01*
X39960000Y-97268389D01*
X39960000Y-96731611D01*
X39855280Y-96205147D01*
X39649864Y-95709229D01*
X39577152Y-95600407D01*
X44020737Y-95600407D01*
X44123787Y-95843909D01*
X44408843Y-95970310D01*
X44713081Y-96038670D01*
X44841697Y-96041844D01*
X44912591Y-96112738D01*
X44669091Y-96215787D01*
X44542690Y-96500843D01*
X44474330Y-96805081D01*
X44466637Y-97116810D01*
X44519907Y-97424050D01*
X44632093Y-97714994D01*
X44669091Y-97784213D01*
X44912593Y-97887263D01*
X45799856Y-97000000D01*
X45785714Y-96985858D01*
X46038858Y-96732714D01*
X46053000Y-96746856D01*
X46940263Y-95859593D01*
X46847351Y-95640046D01*
X47073348Y-95685000D01*
X47314652Y-95685000D01*
X47551319Y-95637924D01*
X47774255Y-95545581D01*
X47974892Y-95411519D01*
X48145519Y-95240892D01*
X48279581Y-95040255D01*
X48337000Y-94901633D01*
X48394419Y-95040255D01*
X48528481Y-95240892D01*
X48699108Y-95411519D01*
X48899745Y-95545581D01*
X49122681Y-95637924D01*
X49359348Y-95685000D01*
X49600652Y-95685000D01*
X49831017Y-95639178D01*
X49737737Y-95859593D01*
X50625000Y-96746856D01*
X51512263Y-95859593D01*
X51419351Y-95640046D01*
X51645348Y-95685000D01*
X51886652Y-95685000D01*
X52117017Y-95639178D01*
X52023737Y-95859593D01*
X52911000Y-96746856D01*
X53798263Y-95859593D01*
X53705351Y-95640046D01*
X53931348Y-95685000D01*
X54172652Y-95685000D01*
X54403017Y-95639178D01*
X54309737Y-95859593D01*
X55197000Y-96746856D01*
X56084263Y-95859593D01*
X55981213Y-95616091D01*
X55696157Y-95489690D01*
X55391919Y-95421330D01*
X55080190Y-95413637D01*
X54772950Y-95466907D01*
X54718681Y-95487833D01*
X54832892Y-95411519D01*
X55003519Y-95240892D01*
X55137581Y-95040255D01*
X55229924Y-94817319D01*
X55277000Y-94580652D01*
X55277000Y-94339348D01*
X55229924Y-94102681D01*
X55137581Y-93879745D01*
X55003519Y-93679108D01*
X54832892Y-93508481D01*
X54632255Y-93374419D01*
X54409319Y-93282076D01*
X54172652Y-93235000D01*
X53931348Y-93235000D01*
X53694681Y-93282076D01*
X53471745Y-93374419D01*
X53271108Y-93508481D01*
X53100481Y-93679108D01*
X52966419Y-93879745D01*
X52909000Y-94018367D01*
X52851581Y-93879745D01*
X52717519Y-93679108D01*
X52546892Y-93508481D01*
X52346255Y-93374419D01*
X52123319Y-93282076D01*
X51886652Y-93235000D01*
X51645348Y-93235000D01*
X51408681Y-93282076D01*
X51185745Y-93374419D01*
X50985108Y-93508481D01*
X50814481Y-93679108D01*
X50680419Y-93879745D01*
X50623000Y-94018367D01*
X50565581Y-93879745D01*
X50431519Y-93679108D01*
X50260892Y-93508481D01*
X50060255Y-93374419D01*
X49837319Y-93282076D01*
X49600652Y-93235000D01*
X49359348Y-93235000D01*
X49122681Y-93282076D01*
X48899745Y-93374419D01*
X48699108Y-93508481D01*
X48528481Y-93679108D01*
X48394419Y-93879745D01*
X48337000Y-94018367D01*
X48279581Y-93879745D01*
X48145519Y-93679108D01*
X47974892Y-93508481D01*
X47774255Y-93374419D01*
X47551319Y-93282076D01*
X47314652Y-93235000D01*
X47073348Y-93235000D01*
X46836681Y-93282076D01*
X46613745Y-93374419D01*
X46413108Y-93508481D01*
X46259512Y-93662077D01*
X46048407Y-93572737D01*
X45161144Y-94460000D01*
X45175287Y-94474143D01*
X44922143Y-94727287D01*
X44908000Y-94713144D01*
X44020737Y-95600407D01*
X39577152Y-95600407D01*
X39351646Y-95262914D01*
X38972086Y-94883354D01*
X38525771Y-94585136D01*
X38505671Y-94576810D01*
X43321637Y-94576810D01*
X43374907Y-94884050D01*
X43487093Y-95174994D01*
X43524091Y-95244213D01*
X43767593Y-95347263D01*
X44654856Y-94460000D01*
X43767593Y-93572737D01*
X43524091Y-93675787D01*
X43397690Y-93960843D01*
X43329330Y-94265081D01*
X43321637Y-94576810D01*
X38505671Y-94576810D01*
X38029853Y-94379720D01*
X37503389Y-94275000D01*
X36966611Y-94275000D01*
X36440147Y-94379720D01*
X35944229Y-94585136D01*
X35497914Y-94883354D01*
X35118354Y-95262914D01*
X34980000Y-95469975D01*
X34980000Y-93319593D01*
X44020737Y-93319593D01*
X44908000Y-94206856D01*
X45795263Y-93319593D01*
X45692213Y-93076091D01*
X45407157Y-92949690D01*
X45102919Y-92881330D01*
X44791190Y-92873637D01*
X44483950Y-92926907D01*
X44193006Y-93039093D01*
X44123787Y-93076091D01*
X44020737Y-93319593D01*
X34980000Y-93319593D01*
X34980000Y-88555673D01*
X42180000Y-88555673D01*
X42180000Y-88644315D01*
X42197294Y-88731254D01*
X42231215Y-88813149D01*
X42280462Y-88886852D01*
X42343142Y-88949532D01*
X42416845Y-88998779D01*
X42498740Y-89032700D01*
X42585679Y-89049994D01*
X42674321Y-89049994D01*
X42761260Y-89032700D01*
X42843155Y-88998779D01*
X42916689Y-88949645D01*
X42942072Y-88966605D01*
X43023967Y-89000526D01*
X43110906Y-89017820D01*
X43199548Y-89017820D01*
X43286487Y-89000526D01*
X43368382Y-88966605D01*
X43442085Y-88917358D01*
X43504765Y-88854678D01*
X43554012Y-88780975D01*
X43577627Y-88723961D01*
X43598740Y-88732706D01*
X43685679Y-88750000D01*
X43774321Y-88750000D01*
X43861260Y-88732706D01*
X43943155Y-88698785D01*
X44016858Y-88649538D01*
X44079538Y-88586858D01*
X44128785Y-88513155D01*
X44162706Y-88431260D01*
X44180000Y-88344321D01*
X44180000Y-88257999D01*
X46184713Y-86253287D01*
X50263846Y-86253287D01*
X50263846Y-86341929D01*
X50281140Y-86428868D01*
X50315061Y-86510763D01*
X50364308Y-86584466D01*
X50426988Y-86647146D01*
X50500691Y-86696393D01*
X50515118Y-86702369D01*
X50443142Y-86750462D01*
X50380462Y-86813142D01*
X50331215Y-86886845D01*
X50297294Y-86968740D01*
X50280000Y-87055679D01*
X50280000Y-87144321D01*
X50297294Y-87231260D01*
X50331215Y-87313155D01*
X50380462Y-87386858D01*
X50443142Y-87449538D01*
X50516845Y-87498785D01*
X50598740Y-87532706D01*
X50685679Y-87550000D01*
X50774321Y-87550000D01*
X50861260Y-87532706D01*
X50943155Y-87498785D01*
X51016858Y-87449538D01*
X51079538Y-87386858D01*
X51128785Y-87313155D01*
X51162706Y-87231260D01*
X51171212Y-87188500D01*
X53882104Y-87188500D01*
X53943142Y-87249538D01*
X54016845Y-87298785D01*
X54098740Y-87332706D01*
X54185679Y-87350000D01*
X54274321Y-87350000D01*
X54361260Y-87332706D01*
X54443155Y-87298785D01*
X54516858Y-87249538D01*
X54579538Y-87186858D01*
X54628785Y-87113155D01*
X54662706Y-87031260D01*
X54680000Y-86944321D01*
X54680000Y-86855679D01*
X54662706Y-86768740D01*
X54642142Y-86719092D01*
X54650589Y-86715593D01*
X54724292Y-86666346D01*
X54786972Y-86603666D01*
X54836219Y-86529963D01*
X54870140Y-86448068D01*
X54887434Y-86361129D01*
X54887434Y-86272487D01*
X54870140Y-86185548D01*
X54836219Y-86103653D01*
X54786972Y-86029950D01*
X54724292Y-85967270D01*
X54665075Y-85927702D01*
X54674587Y-85879885D01*
X54674587Y-85791243D01*
X54657293Y-85704304D01*
X54623372Y-85622409D01*
X54574125Y-85548706D01*
X54511445Y-85486026D01*
X54437742Y-85436779D01*
X54355847Y-85402858D01*
X54268908Y-85385564D01*
X54180266Y-85385564D01*
X54093327Y-85402858D01*
X54011432Y-85436779D01*
X53937729Y-85486026D01*
X53876691Y-85547064D01*
X51190052Y-85547064D01*
X51175890Y-85545669D01*
X51161728Y-85547064D01*
X51161726Y-85547064D01*
X51119334Y-85551239D01*
X51064952Y-85567736D01*
X51014833Y-85594525D01*
X50970903Y-85630577D01*
X50961869Y-85641585D01*
X50755846Y-85847608D01*
X50669525Y-85847608D01*
X50582586Y-85864902D01*
X50500691Y-85898823D01*
X50426988Y-85948070D01*
X50364308Y-86010750D01*
X50315061Y-86084453D01*
X50281140Y-86166348D01*
X50263846Y-86253287D01*
X46184713Y-86253287D01*
X47098502Y-85339499D01*
X54342304Y-85339499D01*
X54356466Y-85340894D01*
X54370628Y-85339499D01*
X54370630Y-85339499D01*
X54413022Y-85335324D01*
X54467404Y-85318827D01*
X54517523Y-85292038D01*
X54561453Y-85255986D01*
X54570491Y-85244973D01*
X55064311Y-84751154D01*
X55150632Y-84751154D01*
X55237571Y-84733860D01*
X55319466Y-84699939D01*
X55388318Y-84653933D01*
X55418741Y-84674261D01*
X55500636Y-84708182D01*
X55587575Y-84725476D01*
X55676217Y-84725476D01*
X55763156Y-84708182D01*
X55845051Y-84674261D01*
X55918754Y-84625014D01*
X55981434Y-84562334D01*
X56030681Y-84488631D01*
X56064602Y-84406736D01*
X56081896Y-84319797D01*
X56081896Y-84231155D01*
X56064602Y-84144216D01*
X56030681Y-84062321D01*
X55981434Y-83988618D01*
X55918754Y-83925938D01*
X55845051Y-83876691D01*
X55763156Y-83842770D01*
X55676217Y-83825476D01*
X55589896Y-83825476D01*
X55238357Y-83473938D01*
X55229319Y-83462925D01*
X55185389Y-83426873D01*
X55135270Y-83400084D01*
X55080888Y-83383587D01*
X55038496Y-83379412D01*
X55038494Y-83379412D01*
X55024332Y-83378017D01*
X55010170Y-83379412D01*
X54499895Y-83379412D01*
X54485733Y-83378017D01*
X54471571Y-83379412D01*
X54471570Y-83379412D01*
X54429178Y-83383587D01*
X54374796Y-83400084D01*
X54353627Y-83411399D01*
X54324676Y-83426873D01*
X54319331Y-83431260D01*
X54280747Y-83462925D01*
X54271713Y-83473933D01*
X54236414Y-83509232D01*
X54212925Y-83474079D01*
X54150245Y-83411399D01*
X54076542Y-83362152D01*
X53994647Y-83328231D01*
X53907708Y-83310937D01*
X53819066Y-83310937D01*
X53732127Y-83328231D01*
X53650232Y-83362152D01*
X53577220Y-83410937D01*
X53562374Y-83410937D01*
X53545188Y-83409244D01*
X53528002Y-83410937D01*
X53528000Y-83410937D01*
X53476577Y-83416002D01*
X53410602Y-83436015D01*
X53349799Y-83468515D01*
X53296504Y-83512252D01*
X53285544Y-83525607D01*
X53061152Y-83750000D01*
X49904166Y-83750000D01*
X49879538Y-83713142D01*
X49816858Y-83650462D01*
X49743155Y-83601215D01*
X49661260Y-83567294D01*
X49574321Y-83550000D01*
X49485679Y-83550000D01*
X49398740Y-83567294D01*
X49316845Y-83601215D01*
X49243142Y-83650462D01*
X49180462Y-83713142D01*
X49131215Y-83786845D01*
X49097294Y-83868740D01*
X49080000Y-83955679D01*
X49080000Y-84044321D01*
X49097294Y-84131260D01*
X49130529Y-84211500D01*
X46425957Y-84211500D01*
X46411795Y-84210105D01*
X46397633Y-84211500D01*
X46397632Y-84211500D01*
X46355240Y-84215675D01*
X46300858Y-84232172D01*
X46277609Y-84244599D01*
X46250738Y-84258961D01*
X46235921Y-84271122D01*
X46206809Y-84295013D01*
X46197775Y-84306021D01*
X42436022Y-88067775D01*
X42425014Y-88076809D01*
X42403779Y-88102684D01*
X42388961Y-88120739D01*
X42379369Y-88138685D01*
X42362172Y-88170858D01*
X42345675Y-88225240D01*
X42343195Y-88250421D01*
X42343142Y-88250456D01*
X42280462Y-88313136D01*
X42231215Y-88386839D01*
X42197294Y-88468734D01*
X42180000Y-88555673D01*
X34980000Y-88555673D01*
X34980000Y-85814122D01*
X38395000Y-85814122D01*
X38395000Y-86025878D01*
X38436312Y-86233566D01*
X38517348Y-86429203D01*
X38634993Y-86605272D01*
X38784728Y-86755007D01*
X38960797Y-86872652D01*
X39156434Y-86953688D01*
X39364122Y-86995000D01*
X39575878Y-86995000D01*
X39783566Y-86953688D01*
X39979203Y-86872652D01*
X40155272Y-86755007D01*
X40305007Y-86605272D01*
X40422652Y-86429203D01*
X40503688Y-86233566D01*
X40545000Y-86025878D01*
X40545000Y-85814122D01*
X40503688Y-85606434D01*
X40422652Y-85410797D01*
X40305007Y-85234728D01*
X40155272Y-85084993D01*
X39979203Y-84967348D01*
X39783566Y-84886312D01*
X39575878Y-84845000D01*
X39364122Y-84845000D01*
X39156434Y-84886312D01*
X38960797Y-84967348D01*
X38784728Y-85084993D01*
X38634993Y-85234728D01*
X38517348Y-85410797D01*
X38436312Y-85606434D01*
X38395000Y-85814122D01*
X34980000Y-85814122D01*
X34980000Y-83779211D01*
X38093730Y-83779211D01*
X38103877Y-83812685D01*
X38214539Y-84070889D01*
X38373448Y-84302542D01*
X38574497Y-84498742D01*
X38809960Y-84651950D01*
X39070788Y-84756277D01*
X39291000Y-84656033D01*
X39291000Y-83559000D01*
X38195256Y-83559000D01*
X38093730Y-83779211D01*
X34980000Y-83779211D01*
X34980000Y-82980789D01*
X38093730Y-82980789D01*
X38195256Y-83201000D01*
X39291000Y-83201000D01*
X39291000Y-82103967D01*
X39649000Y-82103967D01*
X39649000Y-83201000D01*
X39669000Y-83201000D01*
X39669000Y-83559000D01*
X39649000Y-83559000D01*
X39649000Y-84656033D01*
X39869212Y-84756277D01*
X40130040Y-84651950D01*
X40365503Y-84498742D01*
X40541500Y-84326990D01*
X40541500Y-84725838D01*
X40540105Y-84740000D01*
X40541500Y-84754162D01*
X40541500Y-84754163D01*
X40545675Y-84796555D01*
X40560041Y-84843912D01*
X40562172Y-84850937D01*
X40588961Y-84901057D01*
X40596409Y-84910132D01*
X40625013Y-84944987D01*
X40636026Y-84954025D01*
X40933912Y-85251911D01*
X40933912Y-86770000D01*
X40938256Y-86814108D01*
X40951122Y-86856520D01*
X40972015Y-86895608D01*
X41000132Y-86929868D01*
X41034392Y-86957985D01*
X41073480Y-86978878D01*
X41115892Y-86991744D01*
X41160000Y-86996088D01*
X42860000Y-86996088D01*
X42904108Y-86991744D01*
X42946520Y-86978878D01*
X42985608Y-86957985D01*
X43019868Y-86929868D01*
X43047985Y-86895608D01*
X43068878Y-86856520D01*
X43081744Y-86814108D01*
X43086088Y-86770000D01*
X43086088Y-85070000D01*
X43081744Y-85025892D01*
X43068878Y-84983480D01*
X43047985Y-84944392D01*
X43019868Y-84910132D01*
X42985608Y-84882015D01*
X42946520Y-84861122D01*
X42904108Y-84848256D01*
X42860000Y-84843912D01*
X41341911Y-84843912D01*
X41118500Y-84620501D01*
X41118500Y-83980724D01*
X41174993Y-84065272D01*
X41324728Y-84215007D01*
X41500797Y-84332652D01*
X41696434Y-84413688D01*
X41904122Y-84455000D01*
X42115878Y-84455000D01*
X42323566Y-84413688D01*
X42519203Y-84332652D01*
X42695272Y-84215007D01*
X42845007Y-84065272D01*
X42962652Y-83889203D01*
X43043688Y-83693566D01*
X43085000Y-83485878D01*
X43085000Y-83388500D01*
X52415838Y-83388500D01*
X52430000Y-83389895D01*
X52444162Y-83388500D01*
X52444164Y-83388500D01*
X52486556Y-83384325D01*
X52540938Y-83367828D01*
X52591057Y-83341039D01*
X52634987Y-83304987D01*
X52644025Y-83293974D01*
X54615802Y-81322198D01*
X54643142Y-81349538D01*
X54716845Y-81398785D01*
X54798740Y-81432706D01*
X54885679Y-81450000D01*
X54974321Y-81450000D01*
X55061260Y-81432706D01*
X55143155Y-81398785D01*
X55216858Y-81349538D01*
X55279538Y-81286858D01*
X55328785Y-81213155D01*
X55362706Y-81131260D01*
X55380000Y-81044321D01*
X55380000Y-80955679D01*
X55362706Y-80868740D01*
X55328785Y-80786845D01*
X55279538Y-80713142D01*
X55216858Y-80650462D01*
X55143155Y-80601215D01*
X55061260Y-80567294D01*
X54974321Y-80550000D01*
X54885679Y-80550000D01*
X54798740Y-80567294D01*
X54716845Y-80601215D01*
X54643142Y-80650462D01*
X54582104Y-80711500D01*
X54544161Y-80711500D01*
X54533970Y-80710496D01*
X54520903Y-80678949D01*
X54471656Y-80605246D01*
X54408976Y-80542566D01*
X54335273Y-80493319D01*
X54253378Y-80459398D01*
X54166439Y-80442104D01*
X54077797Y-80442104D01*
X53990858Y-80459398D01*
X53908963Y-80493319D01*
X53835260Y-80542566D01*
X53772580Y-80605246D01*
X53723333Y-80678949D01*
X53689412Y-80760844D01*
X53672118Y-80847783D01*
X53672118Y-80934104D01*
X52294723Y-82311500D01*
X43049500Y-82311500D01*
X42844025Y-82106026D01*
X42834987Y-82095013D01*
X42791057Y-82058961D01*
X42740938Y-82032172D01*
X42686556Y-82015675D01*
X42644164Y-82011500D01*
X42644162Y-82011500D01*
X42630000Y-82010105D01*
X42615838Y-82011500D01*
X41444161Y-82011500D01*
X41429999Y-82010105D01*
X41415837Y-82011500D01*
X41415836Y-82011500D01*
X41373444Y-82015675D01*
X41319062Y-82032172D01*
X41308460Y-82037839D01*
X41268942Y-82058961D01*
X41258138Y-82067828D01*
X41225013Y-82095013D01*
X41215979Y-82106021D01*
X40687796Y-82634205D01*
X40566552Y-82457458D01*
X40365503Y-82261258D01*
X40130040Y-82108050D01*
X39869212Y-82003723D01*
X39649000Y-82103967D01*
X39291000Y-82103967D01*
X39070788Y-82003723D01*
X38809960Y-82108050D01*
X38574497Y-82261258D01*
X38373448Y-82457458D01*
X38214539Y-82689111D01*
X38103877Y-82947315D01*
X38093730Y-82980789D01*
X34980000Y-82980789D01*
X34980000Y-80734122D01*
X38395000Y-80734122D01*
X38395000Y-80945878D01*
X38436312Y-81153566D01*
X38517348Y-81349203D01*
X38634993Y-81525272D01*
X38784728Y-81675007D01*
X38960797Y-81792652D01*
X39156434Y-81873688D01*
X39364122Y-81915000D01*
X39575878Y-81915000D01*
X39783566Y-81873688D01*
X39979203Y-81792652D01*
X40155272Y-81675007D01*
X40305007Y-81525272D01*
X40422652Y-81349203D01*
X40503688Y-81153566D01*
X40545000Y-80945878D01*
X40545000Y-80734122D01*
X40935000Y-80734122D01*
X40935000Y-80945878D01*
X40976312Y-81153566D01*
X41057348Y-81349203D01*
X41174993Y-81525272D01*
X41324728Y-81675007D01*
X41500797Y-81792652D01*
X41696434Y-81873688D01*
X41904122Y-81915000D01*
X42115878Y-81915000D01*
X42323566Y-81873688D01*
X42519203Y-81792652D01*
X42695272Y-81675007D01*
X42845007Y-81525272D01*
X42962652Y-81349203D01*
X43043688Y-81153566D01*
X43085000Y-80945878D01*
X43085000Y-80734122D01*
X43043688Y-80526434D01*
X42962652Y-80330797D01*
X42948453Y-80309547D01*
X43369500Y-79888500D01*
X46033499Y-79888500D01*
X44572001Y-81350000D01*
X44485679Y-81350000D01*
X44398740Y-81367294D01*
X44316845Y-81401215D01*
X44243142Y-81450462D01*
X44180462Y-81513142D01*
X44131215Y-81586845D01*
X44097294Y-81668740D01*
X44080000Y-81755679D01*
X44080000Y-81844321D01*
X44097294Y-81931260D01*
X44131215Y-82013155D01*
X44180462Y-82086858D01*
X44243142Y-82149538D01*
X44316845Y-82198785D01*
X44398740Y-82232706D01*
X44485679Y-82250000D01*
X44574321Y-82250000D01*
X44661260Y-82232706D01*
X44743155Y-82198785D01*
X44816858Y-82149538D01*
X44879538Y-82086858D01*
X44928785Y-82013155D01*
X44962706Y-81931260D01*
X44980000Y-81844321D01*
X44980000Y-81757999D01*
X46449501Y-80288500D01*
X49237499Y-80288500D01*
X49176000Y-80350000D01*
X49089679Y-80350000D01*
X49002740Y-80367294D01*
X48920845Y-80401215D01*
X48847142Y-80450462D01*
X48784462Y-80513142D01*
X48735215Y-80586845D01*
X48701294Y-80668740D01*
X48684000Y-80755679D01*
X48684000Y-80844321D01*
X48701294Y-80931260D01*
X48735215Y-81013155D01*
X48784462Y-81086858D01*
X48847142Y-81149538D01*
X48920845Y-81198785D01*
X49002740Y-81232706D01*
X49089679Y-81250000D01*
X49178321Y-81250000D01*
X49265260Y-81232706D01*
X49347155Y-81198785D01*
X49420858Y-81149538D01*
X49483538Y-81086858D01*
X49532785Y-81013155D01*
X49566706Y-80931260D01*
X49584000Y-80844321D01*
X49584000Y-80758000D01*
X49588790Y-80753210D01*
X53269326Y-80753210D01*
X53283488Y-80754605D01*
X53297650Y-80753210D01*
X53297652Y-80753210D01*
X53340044Y-80749035D01*
X53394426Y-80732538D01*
X53444545Y-80705749D01*
X53488475Y-80669697D01*
X53497513Y-80658684D01*
X54723980Y-79432218D01*
X54734987Y-79423185D01*
X54765516Y-79385985D01*
X54771039Y-79379256D01*
X54786784Y-79349798D01*
X54797828Y-79329136D01*
X54814325Y-79274754D01*
X54816805Y-79249573D01*
X54816858Y-79249538D01*
X54879538Y-79186858D01*
X54928785Y-79113155D01*
X54962706Y-79031260D01*
X54980000Y-78944321D01*
X54980000Y-78855679D01*
X54962706Y-78768740D01*
X54928785Y-78686845D01*
X54879538Y-78613142D01*
X54816858Y-78550462D01*
X54743155Y-78501215D01*
X54661260Y-78467294D01*
X54574321Y-78450000D01*
X54565485Y-78450000D01*
X54580000Y-78377029D01*
X54580000Y-78288387D01*
X54562706Y-78201448D01*
X54528785Y-78119553D01*
X54479538Y-78045850D01*
X54416858Y-77983170D01*
X54343155Y-77933923D01*
X54261260Y-77900002D01*
X54174321Y-77882708D01*
X54085679Y-77882708D01*
X53998740Y-77900002D01*
X53916845Y-77933923D01*
X53843142Y-77983170D01*
X53780462Y-78045850D01*
X53731215Y-78119553D01*
X53697294Y-78201448D01*
X53680000Y-78288387D01*
X53680000Y-78374707D01*
X52743209Y-79311500D01*
X43264162Y-79311500D01*
X43250000Y-79310105D01*
X43235838Y-79311500D01*
X43235836Y-79311500D01*
X43193444Y-79315675D01*
X43139062Y-79332172D01*
X43088943Y-79358961D01*
X43045013Y-79395013D01*
X43035979Y-79406021D01*
X42540453Y-79901547D01*
X42519203Y-79887348D01*
X42323566Y-79806312D01*
X42115878Y-79765000D01*
X41904122Y-79765000D01*
X41696434Y-79806312D01*
X41500797Y-79887348D01*
X41324728Y-80004993D01*
X41174993Y-80154728D01*
X41057348Y-80330797D01*
X40976312Y-80526434D01*
X40935000Y-80734122D01*
X40545000Y-80734122D01*
X40503688Y-80526434D01*
X40422652Y-80330797D01*
X40305007Y-80154728D01*
X40155272Y-80004993D01*
X39979203Y-79887348D01*
X39783566Y-79806312D01*
X39575878Y-79765000D01*
X39364122Y-79765000D01*
X39156434Y-79806312D01*
X38960797Y-79887348D01*
X38784728Y-80004993D01*
X38634993Y-80154728D01*
X38517348Y-80330797D01*
X38436312Y-80526434D01*
X38395000Y-80734122D01*
X34980000Y-80734122D01*
X34980000Y-78655679D01*
X49080000Y-78655679D01*
X49080000Y-78744321D01*
X49097294Y-78831260D01*
X49131215Y-78913155D01*
X49180462Y-78986858D01*
X49243142Y-79049538D01*
X49316845Y-79098785D01*
X49398740Y-79132706D01*
X49485679Y-79150000D01*
X49574321Y-79150000D01*
X49661260Y-79132706D01*
X49743155Y-79098785D01*
X49816858Y-79049538D01*
X49877896Y-78988500D01*
X52515838Y-78988500D01*
X52530000Y-78989895D01*
X52544162Y-78988500D01*
X52544164Y-78988500D01*
X52586556Y-78984325D01*
X52640938Y-78967828D01*
X52691057Y-78941039D01*
X52734987Y-78904987D01*
X52744025Y-78893974D01*
X53849501Y-77788500D01*
X54310501Y-77788500D01*
X55241501Y-78719501D01*
X55241500Y-79652104D01*
X55180462Y-79713142D01*
X55131215Y-79786845D01*
X55097294Y-79868740D01*
X55080000Y-79955679D01*
X55080000Y-80044321D01*
X55097294Y-80131260D01*
X55131215Y-80213155D01*
X55180462Y-80286858D01*
X55243142Y-80349538D01*
X55316845Y-80398785D01*
X55398740Y-80432706D01*
X55485679Y-80450000D01*
X55574321Y-80450000D01*
X55661260Y-80432706D01*
X55743155Y-80398785D01*
X55816858Y-80349538D01*
X55879538Y-80286858D01*
X55928785Y-80213155D01*
X55952591Y-80155679D01*
X57480000Y-80155679D01*
X57480000Y-80244321D01*
X57497294Y-80331260D01*
X57531215Y-80413155D01*
X57580462Y-80486858D01*
X57643142Y-80549538D01*
X57716845Y-80598785D01*
X57798740Y-80632706D01*
X57885679Y-80650000D01*
X57972000Y-80650000D01*
X58015979Y-80693979D01*
X58025013Y-80704987D01*
X58054125Y-80728878D01*
X58068942Y-80741039D01*
X58091713Y-80753210D01*
X58119062Y-80767828D01*
X58173444Y-80784325D01*
X58215836Y-80788500D01*
X58215837Y-80788500D01*
X58229999Y-80789895D01*
X58244161Y-80788500D01*
X59814766Y-80788500D01*
X59837513Y-80843416D01*
X59916856Y-80962161D01*
X60017839Y-81063144D01*
X60136584Y-81142487D01*
X60268525Y-81197139D01*
X60408594Y-81225000D01*
X60551406Y-81225000D01*
X60691475Y-81197139D01*
X60823416Y-81142487D01*
X60942161Y-81063144D01*
X61043144Y-80962161D01*
X61122487Y-80843416D01*
X61177139Y-80711475D01*
X61205000Y-80571406D01*
X61205000Y-80428594D01*
X61177139Y-80288525D01*
X61122487Y-80156584D01*
X61043144Y-80037839D01*
X60942161Y-79936856D01*
X60823416Y-79857513D01*
X60768500Y-79834766D01*
X60768500Y-78555679D01*
X61680000Y-78555679D01*
X61680000Y-78644321D01*
X61697294Y-78731260D01*
X61731215Y-78813155D01*
X61780462Y-78886858D01*
X61843142Y-78949538D01*
X61916845Y-78998785D01*
X61998740Y-79032706D01*
X62085679Y-79050000D01*
X62172000Y-79050000D01*
X62191501Y-79069501D01*
X62191500Y-79834766D01*
X62136584Y-79857513D01*
X62017839Y-79936856D01*
X61916856Y-80037839D01*
X61837513Y-80156584D01*
X61782861Y-80288525D01*
X61755000Y-80428594D01*
X61755000Y-80571406D01*
X61782861Y-80711475D01*
X61837513Y-80843416D01*
X61916856Y-80962161D01*
X62017839Y-81063144D01*
X62136584Y-81142487D01*
X62268525Y-81197139D01*
X62408594Y-81225000D01*
X62551406Y-81225000D01*
X62691475Y-81197139D01*
X62823416Y-81142487D01*
X62942161Y-81063144D01*
X63043144Y-80962161D01*
X63122487Y-80843416D01*
X63177139Y-80711475D01*
X63205000Y-80571406D01*
X63205000Y-80428594D01*
X63177139Y-80288525D01*
X63122487Y-80156584D01*
X63043144Y-80037839D01*
X62942161Y-79936856D01*
X62823416Y-79857513D01*
X62768500Y-79834766D01*
X62768500Y-78964162D01*
X62769895Y-78950000D01*
X62767758Y-78928303D01*
X62764325Y-78893444D01*
X62747828Y-78839062D01*
X62721039Y-78788943D01*
X62684987Y-78745013D01*
X62673979Y-78735979D01*
X62580000Y-78642000D01*
X62580000Y-78555679D01*
X62562706Y-78468740D01*
X62528785Y-78386845D01*
X62479538Y-78313142D01*
X62416858Y-78250462D01*
X62343155Y-78201215D01*
X62261260Y-78167294D01*
X62174321Y-78150000D01*
X62085679Y-78150000D01*
X61998740Y-78167294D01*
X61916845Y-78201215D01*
X61843142Y-78250462D01*
X61780462Y-78313142D01*
X61731215Y-78386845D01*
X61697294Y-78468740D01*
X61680000Y-78555679D01*
X60768500Y-78555679D01*
X60768500Y-78450000D01*
X60774321Y-78450000D01*
X60861260Y-78432706D01*
X60943155Y-78398785D01*
X61016858Y-78349538D01*
X61079538Y-78286858D01*
X61128785Y-78213155D01*
X61162706Y-78131260D01*
X61180000Y-78044321D01*
X61180000Y-77955679D01*
X61162706Y-77868740D01*
X61128785Y-77786845D01*
X61079538Y-77713142D01*
X61016858Y-77650462D01*
X60943155Y-77601215D01*
X60861260Y-77567294D01*
X60774321Y-77550000D01*
X60685679Y-77550000D01*
X60598740Y-77567294D01*
X60516845Y-77601215D01*
X60443142Y-77650462D01*
X60380462Y-77713142D01*
X60331215Y-77786845D01*
X60297294Y-77868740D01*
X60280000Y-77955679D01*
X60280000Y-78040921D01*
X60275014Y-78045013D01*
X60253779Y-78070888D01*
X60238961Y-78088943D01*
X60212172Y-78139063D01*
X60195676Y-78193445D01*
X60190105Y-78250000D01*
X60191501Y-78264172D01*
X60191500Y-79834766D01*
X60136584Y-79857513D01*
X60017839Y-79936856D01*
X59916856Y-80037839D01*
X59837513Y-80156584D01*
X59814766Y-80211500D01*
X58380000Y-80211500D01*
X58380000Y-80155679D01*
X58362706Y-80068740D01*
X58328785Y-79986845D01*
X58279538Y-79913142D01*
X58216858Y-79850462D01*
X58143155Y-79801215D01*
X58061260Y-79767294D01*
X57974321Y-79750000D01*
X57885679Y-79750000D01*
X57798740Y-79767294D01*
X57716845Y-79801215D01*
X57643142Y-79850462D01*
X57580462Y-79913142D01*
X57531215Y-79986845D01*
X57497294Y-80068740D01*
X57480000Y-80155679D01*
X55952591Y-80155679D01*
X55962706Y-80131260D01*
X55980000Y-80044321D01*
X55980000Y-79955679D01*
X55962706Y-79868740D01*
X55928785Y-79786845D01*
X55879538Y-79713142D01*
X55818500Y-79652104D01*
X55818500Y-78614162D01*
X55819895Y-78600000D01*
X55816816Y-78568740D01*
X55814325Y-78543444D01*
X55797828Y-78489062D01*
X55771039Y-78438943D01*
X55734987Y-78395013D01*
X55723979Y-78385979D01*
X54644025Y-77306026D01*
X54634987Y-77295013D01*
X54591057Y-77258961D01*
X54540938Y-77232172D01*
X54486556Y-77215675D01*
X54444164Y-77211500D01*
X54444162Y-77211500D01*
X54430000Y-77210105D01*
X54415838Y-77211500D01*
X53744161Y-77211500D01*
X53729999Y-77210105D01*
X53715837Y-77211500D01*
X53715836Y-77211500D01*
X53673444Y-77215675D01*
X53619062Y-77232172D01*
X53595731Y-77244643D01*
X53568942Y-77258961D01*
X53557027Y-77268740D01*
X53525013Y-77295013D01*
X53515984Y-77306015D01*
X52410501Y-78411500D01*
X49877896Y-78411500D01*
X49816858Y-78350462D01*
X49743155Y-78301215D01*
X49661260Y-78267294D01*
X49574321Y-78250000D01*
X49485679Y-78250000D01*
X49398740Y-78267294D01*
X49316845Y-78301215D01*
X49243142Y-78350462D01*
X49180462Y-78413142D01*
X49131215Y-78486845D01*
X49097294Y-78568740D01*
X49080000Y-78655679D01*
X34980000Y-78655679D01*
X34980000Y-74955679D01*
X50680000Y-74955679D01*
X50680000Y-75044321D01*
X50697294Y-75131260D01*
X50731215Y-75213155D01*
X50780462Y-75286858D01*
X50843142Y-75349538D01*
X50916845Y-75398785D01*
X50998740Y-75432706D01*
X51085679Y-75450000D01*
X51172001Y-75450000D01*
X52441500Y-76719500D01*
X52441501Y-77052103D01*
X52380462Y-77113142D01*
X52331215Y-77186845D01*
X52327001Y-77197020D01*
X52250283Y-77165243D01*
X52163344Y-77147949D01*
X52074702Y-77147949D01*
X51987763Y-77165243D01*
X51918498Y-77193933D01*
X51918498Y-77047898D01*
X51979538Y-76986858D01*
X52028785Y-76913155D01*
X52062706Y-76831260D01*
X52080000Y-76744321D01*
X52080000Y-76655679D01*
X52062706Y-76568740D01*
X52028785Y-76486845D01*
X51979538Y-76413142D01*
X51916858Y-76350462D01*
X51843155Y-76301215D01*
X51761260Y-76267294D01*
X51674321Y-76250000D01*
X51585679Y-76250000D01*
X51498740Y-76267294D01*
X51416845Y-76301215D01*
X51343142Y-76350462D01*
X51280462Y-76413142D01*
X51231215Y-76486845D01*
X51197294Y-76568740D01*
X51180000Y-76655679D01*
X51180000Y-76744321D01*
X51197294Y-76831260D01*
X51231215Y-76913155D01*
X51280462Y-76986858D01*
X51341499Y-77047895D01*
X51341498Y-77452104D01*
X51280460Y-77513142D01*
X51231213Y-77586845D01*
X51197292Y-77668740D01*
X51179998Y-77755679D01*
X51179998Y-77844321D01*
X51197292Y-77931260D01*
X51231213Y-78013155D01*
X51280460Y-78086858D01*
X51343140Y-78149538D01*
X51416843Y-78198785D01*
X51498738Y-78232706D01*
X51585677Y-78250000D01*
X51674319Y-78250000D01*
X51761258Y-78232706D01*
X51843153Y-78198785D01*
X51916856Y-78149538D01*
X51979536Y-78086858D01*
X52013649Y-78035804D01*
X52074702Y-78047949D01*
X52163344Y-78047949D01*
X52250283Y-78030655D01*
X52332178Y-77996734D01*
X52405881Y-77947487D01*
X52468561Y-77884807D01*
X52517808Y-77811104D01*
X52522022Y-77800929D01*
X52598740Y-77832706D01*
X52685679Y-77850000D01*
X52774321Y-77850000D01*
X52861260Y-77832706D01*
X52943155Y-77798785D01*
X53016858Y-77749538D01*
X53079538Y-77686858D01*
X53128785Y-77613155D01*
X53162706Y-77531260D01*
X53180000Y-77444321D01*
X53180000Y-77355679D01*
X53162706Y-77268740D01*
X53128785Y-77186845D01*
X53079538Y-77113142D01*
X53018500Y-77052104D01*
X53018500Y-76614164D01*
X53019895Y-76600000D01*
X53014325Y-76543444D01*
X52997828Y-76489062D01*
X52971039Y-76438943D01*
X52951944Y-76415676D01*
X52934987Y-76395013D01*
X52923980Y-76385980D01*
X51580000Y-75042001D01*
X51580000Y-74955679D01*
X51562706Y-74868740D01*
X51528785Y-74786845D01*
X51479538Y-74713142D01*
X51416858Y-74650462D01*
X51343155Y-74601215D01*
X51261260Y-74567294D01*
X51174321Y-74550000D01*
X51085679Y-74550000D01*
X50998740Y-74567294D01*
X50916845Y-74601215D01*
X50843142Y-74650462D01*
X50780462Y-74713142D01*
X50731215Y-74786845D01*
X50697294Y-74868740D01*
X50680000Y-74955679D01*
X34980000Y-74955679D01*
X34980000Y-64606433D01*
X54280000Y-64606433D01*
X54280000Y-64793567D01*
X54316508Y-64977105D01*
X54388121Y-65149994D01*
X54492087Y-65305590D01*
X54624410Y-65437913D01*
X54780006Y-65541879D01*
X54952895Y-65613492D01*
X55136433Y-65650000D01*
X55323567Y-65650000D01*
X55507105Y-65613492D01*
X55679994Y-65541879D01*
X55835590Y-65437913D01*
X55967913Y-65305590D01*
X56071879Y-65149994D01*
X56143492Y-64977105D01*
X56180000Y-64793567D01*
X56180000Y-64606433D01*
X59280000Y-64606433D01*
X59280000Y-64793567D01*
X59316508Y-64977105D01*
X59388121Y-65149994D01*
X59492087Y-65305590D01*
X59624410Y-65437913D01*
X59780006Y-65541879D01*
X59952895Y-65613492D01*
X60136433Y-65650000D01*
X60323567Y-65650000D01*
X60507105Y-65613492D01*
X60679994Y-65541879D01*
X60835590Y-65437913D01*
X60967913Y-65305590D01*
X61071879Y-65149994D01*
X61143492Y-64977105D01*
X61180000Y-64793567D01*
X61180000Y-64606433D01*
X61143492Y-64422895D01*
X61071879Y-64250006D01*
X60967913Y-64094410D01*
X60835590Y-63962087D01*
X60679994Y-63858121D01*
X60507105Y-63786508D01*
X60323567Y-63750000D01*
X60136433Y-63750000D01*
X59952895Y-63786508D01*
X59780006Y-63858121D01*
X59624410Y-63962087D01*
X59492087Y-64094410D01*
X59388121Y-64250006D01*
X59316508Y-64422895D01*
X59280000Y-64606433D01*
X56180000Y-64606433D01*
X56143492Y-64422895D01*
X56071879Y-64250006D01*
X55967913Y-64094410D01*
X55835590Y-63962087D01*
X55679994Y-63858121D01*
X55507105Y-63786508D01*
X55323567Y-63750000D01*
X55136433Y-63750000D01*
X54952895Y-63786508D01*
X54780006Y-63858121D01*
X54624410Y-63962087D01*
X54492087Y-64094410D01*
X54388121Y-64250006D01*
X54316508Y-64422895D01*
X54280000Y-64606433D01*
X34980000Y-64606433D01*
X34980000Y-62012229D01*
X35014505Y-61660322D01*
X35029855Y-61609479D01*
X53405000Y-61609479D01*
X53405000Y-62390520D01*
X53416938Y-62511727D01*
X53464112Y-62667240D01*
X53540719Y-62810562D01*
X53643815Y-62936185D01*
X53769437Y-63039281D01*
X53912759Y-63115888D01*
X54068272Y-63163062D01*
X54230000Y-63178991D01*
X54391727Y-63163062D01*
X54547240Y-63115888D01*
X54690562Y-63039281D01*
X54816185Y-62936185D01*
X54919281Y-62810563D01*
X54995888Y-62667241D01*
X55043062Y-62511728D01*
X55055000Y-62390521D01*
X55055000Y-61609480D01*
X60405000Y-61609480D01*
X60405000Y-62390521D01*
X60416938Y-62511728D01*
X60464113Y-62667241D01*
X60540720Y-62810563D01*
X60643816Y-62936185D01*
X60769438Y-63039281D01*
X60912760Y-63115888D01*
X61068273Y-63163062D01*
X61230000Y-63178991D01*
X61391728Y-63163062D01*
X61547241Y-63115888D01*
X61690563Y-63039281D01*
X61816185Y-62936185D01*
X61919281Y-62810563D01*
X61995888Y-62667241D01*
X62043062Y-62511728D01*
X62055000Y-62390521D01*
X62055000Y-61609479D01*
X62043062Y-61488272D01*
X61995888Y-61332759D01*
X61919281Y-61189437D01*
X61816185Y-61063815D01*
X61690562Y-60960719D01*
X61547240Y-60884112D01*
X61391727Y-60836938D01*
X61230000Y-60821009D01*
X61068272Y-60836938D01*
X60912759Y-60884112D01*
X60769437Y-60960719D01*
X60643815Y-61063815D01*
X60540719Y-61189438D01*
X60464112Y-61332760D01*
X60416938Y-61488273D01*
X60405000Y-61609480D01*
X55055000Y-61609480D01*
X55055000Y-61609479D01*
X55043062Y-61488272D01*
X54995888Y-61332759D01*
X54919281Y-61189437D01*
X54816185Y-61063815D01*
X54690563Y-60960719D01*
X54547241Y-60884112D01*
X54391728Y-60836938D01*
X54230000Y-60821009D01*
X54068273Y-60836938D01*
X53912760Y-60884112D01*
X53769438Y-60960719D01*
X53643816Y-61063815D01*
X53540720Y-61189437D01*
X53464113Y-61332759D01*
X53416938Y-61488272D01*
X53405000Y-61609479D01*
X35029855Y-61609479D01*
X35113153Y-61333584D01*
X35273389Y-61032225D01*
X35489104Y-60767733D01*
X35752082Y-60550178D01*
X36052310Y-60387846D01*
X36378359Y-60286917D01*
X36729576Y-60250003D01*
X36730307Y-60250000D01*
X62717771Y-60250000D01*
X63069678Y-60284505D01*
G37*
G04 #@! TD.AperFunction*
G04 #@! TD*
M02*
