M48
; DRILL file {KiCad 5.1.10-88a1d61d58~88~ubuntu20.04.1} date Fri Sep 24 12:37:37 2021
; FORMAT={-:-/ absolute / inch / decimal}
; #@! TF.CreationDate,2021-09-24T12:37:37+02:00
; #@! TF.GenerationSoftware,Kicad,Pcbnew,5.1.10-88a1d61d58~88~ubuntu20.04.1
FMAT,2
INCH
T1C0.0079
T2C0.0236
T3C0.0335
T4C0.0394
T5C0.0469
T6C0.1201
%
G90
G05
T1
X1.6154Y-3.0039
X1.6783Y-3.4882
X1.699Y-3.4869
X1.7217Y-3.4764
X1.7531Y-3.2205
X1.8398Y-2.9134
X1.8791Y-2.9331
X1.9067Y-2.9921
X1.9344Y-3.1811
X1.95Y-3.0984
X1.95Y-3.3071
X1.9619Y-3.2362
X1.9966Y-3.3975
X1.9972Y-3.4291
X2.013Y-2.9528
X2.0248Y-3.4055
X2.0268Y-2.6772
X2.0268Y-2.8937
X2.0327Y-3.063
X2.0327Y-3.0197
X2.0366Y-3.189
X2.0519Y-3.055
X2.076Y-3.0472
X2.1198Y-3.1156
X2.1206Y-3.2977
X2.1308Y-3.1847
X2.1311Y-3.084
X2.1321Y-3.2464
X2.1348Y-3.3794
X2.135Y-3.4213
X2.1432Y-3.3983
X2.1469Y-3.1063
X2.1516Y-3.3087
X2.1587Y-3.2402
X2.1626Y-3.189
X2.1695Y-3.3189
X2.1862Y-3.1496
X2.1902Y-3.3179
X2.2138Y-2.6083
X2.2256Y-3.1575
X2.2492Y-2.6063
X2.2807Y-3.1575
X2.2925Y-2.6772
X2.2925Y-2.8937
X2.3319Y-3.2795
X2.3909Y-3.0709
X2.4264Y-3.2283
X2.4461Y-3.0945
X2.4795Y-3.3889
T3
X2.1744Y-2.5472
X2.3713Y-2.5472
T4
X1.5539Y-3.1827
X1.5539Y-3.2827
X1.5539Y-3.3827
X1.6539Y-3.1827
X1.6539Y-3.2827
X1.6539Y-3.3827
T5
X1.768Y-3.7189
X1.768Y-3.9189
X1.8131Y-3.8189
X1.858Y-3.7189
X1.858Y-3.9189
X1.9031Y-3.8189
X1.948Y-3.7189
X1.948Y-3.9189
X1.9931Y-3.8189
X2.038Y-3.7189
X2.038Y-3.9189
X2.0831Y-3.8189
X2.128Y-3.7189
X2.128Y-3.9189
X2.1731Y-3.8189
T6
X1.4659Y-3.8189
X2.4498Y-3.8189
T2
G00X2.135Y-2.4547
M15
G01X2.135Y-2.4272
M16
G05
G00X2.4106Y-2.4272
M15
G01X2.4106Y-2.4547
M16
G05
T0
M30
