G04 #@! TF.GenerationSoftware,KiCad,Pcbnew,5.1.10-88a1d61d58~88~ubuntu20.04.1*
G04 #@! TF.CreationDate,2021-09-24T12:37:35+02:00*
G04 #@! TF.ProjectId,carrier,63617272-6965-4722-9e6b-696361645f70,0.1*
G04 #@! TF.SameCoordinates,Original*
G04 #@! TF.FileFunction,Copper,L1,Top*
G04 #@! TF.FilePolarity,Positive*
%FSLAX46Y46*%
G04 Gerber Fmt 4.6, Leading zero omitted, Abs format (unit mm)*
G04 Created by KiCad (PCBNEW 5.1.10-88a1d61d58~88~ubuntu20.04.1) date 2021-09-24 12:37:35*
%MOMM*%
%LPD*%
G01*
G04 APERTURE LIST*
G04 #@! TA.AperFunction,SMDPad,CuDef*
%ADD10C,0.270000*%
G04 #@! TD*
G04 #@! TA.AperFunction,ComponentPad*
%ADD11R,1.700000X1.700000*%
G04 #@! TD*
G04 #@! TA.AperFunction,ComponentPad*
%ADD12O,1.700000X1.700000*%
G04 #@! TD*
G04 #@! TA.AperFunction,ComponentPad*
%ADD13C,2.000000*%
G04 #@! TD*
G04 #@! TA.AperFunction,ComponentPad*
%ADD14C,5.000000*%
G04 #@! TD*
G04 #@! TA.AperFunction,SMDPad,CuDef*
%ADD15R,0.650000X1.060000*%
G04 #@! TD*
G04 #@! TA.AperFunction,SMDPad,CuDef*
%ADD16R,1.500000X1.900000*%
G04 #@! TD*
G04 #@! TA.AperFunction,ComponentPad*
%ADD17C,1.450000*%
G04 #@! TD*
G04 #@! TA.AperFunction,SMDPad,CuDef*
%ADD18R,0.400000X1.350000*%
G04 #@! TD*
G04 #@! TA.AperFunction,ComponentPad*
%ADD19O,1.200000X1.900000*%
G04 #@! TD*
G04 #@! TA.AperFunction,SMDPad,CuDef*
%ADD20R,1.200000X1.900000*%
G04 #@! TD*
G04 #@! TA.AperFunction,SMDPad,CuDef*
%ADD21R,2.200000X2.200000*%
G04 #@! TD*
G04 #@! TA.AperFunction,SMDPad,CuDef*
%ADD22R,1.200000X1.400000*%
G04 #@! TD*
G04 #@! TA.AperFunction,SMDPad,CuDef*
%ADD23C,1.000000*%
G04 #@! TD*
G04 #@! TA.AperFunction,ViaPad*
%ADD24C,0.450000*%
G04 #@! TD*
G04 #@! TA.AperFunction,Conductor*
%ADD25C,0.450000*%
G04 #@! TD*
G04 #@! TA.AperFunction,Conductor*
%ADD26C,0.127000*%
G04 #@! TD*
G04 #@! TA.AperFunction,Conductor*
%ADD27C,0.280000*%
G04 #@! TD*
G04 #@! TA.AperFunction,Conductor*
%ADD28C,0.076200*%
G04 #@! TD*
G04 #@! TA.AperFunction,Conductor*
%ADD29C,0.101600*%
G04 #@! TD*
G04 #@! TA.AperFunction,Conductor*
%ADD30C,0.500000*%
G04 #@! TD*
G04 #@! TA.AperFunction,Conductor*
%ADD31C,0.250000*%
G04 #@! TD*
G04 APERTURE END LIST*
G04 #@! TO.P,C9,2*
G04 #@! TO.N,GND*
G04 #@! TA.AperFunction,SMDPad,CuDef*
G36*
G01*
X47980000Y-81825000D02*
X48480000Y-81825000D01*
G75*
G02*
X48705000Y-82050000I0J-225000D01*
G01*
X48705000Y-82500000D01*
G75*
G02*
X48480000Y-82725000I-225000J0D01*
G01*
X47980000Y-82725000D01*
G75*
G02*
X47755000Y-82500000I0J225000D01*
G01*
X47755000Y-82050000D01*
G75*
G02*
X47980000Y-81825000I225000J0D01*
G01*
G37*
G04 #@! TD.AperFunction*
G04 #@! TO.P,C9,1*
G04 #@! TO.N,vdda*
G04 #@! TA.AperFunction,SMDPad,CuDef*
G36*
G01*
X47980000Y-80275000D02*
X48480000Y-80275000D01*
G75*
G02*
X48705000Y-80500000I0J-225000D01*
G01*
X48705000Y-80950000D01*
G75*
G02*
X48480000Y-81175000I-225000J0D01*
G01*
X47980000Y-81175000D01*
G75*
G02*
X47755000Y-80950000I0J225000D01*
G01*
X47755000Y-80500000D01*
G75*
G02*
X47980000Y-80275000I225000J0D01*
G01*
G37*
G04 #@! TD.AperFunction*
G04 #@! TD*
G04 #@! TO.P,C11,2*
G04 #@! TO.N,GND*
G04 #@! TA.AperFunction,SMDPad,CuDef*
G36*
G01*
X56788000Y-81453000D02*
X56288000Y-81453000D01*
G75*
G02*
X56063000Y-81228000I0J225000D01*
G01*
X56063000Y-80778000D01*
G75*
G02*
X56288000Y-80553000I225000J0D01*
G01*
X56788000Y-80553000D01*
G75*
G02*
X57013000Y-80778000I0J-225000D01*
G01*
X57013000Y-81228000D01*
G75*
G02*
X56788000Y-81453000I-225000J0D01*
G01*
G37*
G04 #@! TD.AperFunction*
G04 #@! TO.P,C11,1*
G04 #@! TO.N,vccd*
G04 #@! TA.AperFunction,SMDPad,CuDef*
G36*
G01*
X56788000Y-83003000D02*
X56288000Y-83003000D01*
G75*
G02*
X56063000Y-82778000I0J225000D01*
G01*
X56063000Y-82328000D01*
G75*
G02*
X56288000Y-82103000I225000J0D01*
G01*
X56788000Y-82103000D01*
G75*
G02*
X57013000Y-82328000I0J-225000D01*
G01*
X57013000Y-82778000D01*
G75*
G02*
X56788000Y-83003000I-225000J0D01*
G01*
G37*
G04 #@! TD.AperFunction*
G04 #@! TD*
D10*
G04 #@! TO.P,ASIC1,F10*
G04 #@! TO.N,vdda*
X52980000Y-78750000D03*
G04 #@! TO.P,ASIC1,E10*
G04 #@! TO.N,gpio*
X52480000Y-78750000D03*
G04 #@! TO.P,ASIC1,D10*
G04 #@! TO.N,flash_io0*
X51980000Y-78750000D03*
G04 #@! TO.P,ASIC1,C10*
G04 #@! TO.N,flash_csb*
X51480000Y-78750000D03*
G04 #@! TO.P,ASIC1,B10*
G04 #@! TO.N,resetb*
X50980000Y-78750000D03*
G04 #@! TO.P,ASIC1,A10*
G04 #@! TO.N,vccd*
X50480000Y-78750000D03*
G04 #@! TO.P,ASIC1,F9*
G04 #@! TO.N,mprj_io[2]*
X52980000Y-79250000D03*
G04 #@! TO.P,ASIC1,E9*
G04 #@! TO.N,mprj_io[1]*
X52480000Y-79250000D03*
G04 #@! TO.P,ASIC1,D9*
G04 #@! TO.N,flash_io1*
X51980000Y-79250000D03*
G04 #@! TO.P,ASIC1,C9*
G04 #@! TO.N,clock*
X51480000Y-79250000D03*
G04 #@! TO.P,ASIC1,B9*
G04 #@! TO.N,Net-(U1-PadB9)*
X50980000Y-79250000D03*
G04 #@! TO.P,ASIC1,A9*
G04 #@! TO.N,Net-(U1-PadA9)*
X50480000Y-79250000D03*
G04 #@! TO.P,ASIC1,F8*
G04 #@! TO.N,mprj_io[4]*
X52980000Y-79750000D03*
G04 #@! TO.P,ASIC1,E8*
G04 #@! TO.N,mprj_io[3]*
X52480000Y-79750000D03*
G04 #@! TO.P,ASIC1,D8*
G04 #@! TO.N,flash_clk*
X51980000Y-79750000D03*
G04 #@! TO.P,ASIC1,C8*
G04 #@! TO.N,Net-(U1-PadC8)*
X51480000Y-79750000D03*
G04 #@! TO.P,ASIC1,B8*
G04 #@! TO.N,Net-(U1-PadB8)*
X50980000Y-79750000D03*
G04 #@! TO.P,ASIC1,A8*
G04 #@! TO.N,Net-(U1-PadA8)*
X50480000Y-79750000D03*
G04 #@! TO.P,ASIC1,F7*
G04 #@! TO.N,Net-(U1-PadF7)*
X52980000Y-80250000D03*
G04 #@! TO.P,ASIC1,E7*
G04 #@! TO.N,Net-(U1-PadE7)*
X52480000Y-80250000D03*
G04 #@! TO.P,ASIC1,D7*
G04 #@! TO.N,Net-(U1-PadD7)*
X51980000Y-80250000D03*
G04 #@! TO.P,ASIC1,C7*
G04 #@! TO.N,vdda*
X51480000Y-80250000D03*
G04 #@! TO.P,ASIC1,B7*
G04 #@! TO.N,GND*
X50980000Y-80250000D03*
G04 #@! TO.P,ASIC1,A7*
G04 #@! TO.N,Net-(U1-PadA7)*
X50480000Y-80250000D03*
G04 #@! TO.P,ASIC1,F6*
G04 #@! TO.N,GND*
X52980000Y-80750000D03*
G04 #@! TO.P,ASIC1,E6*
X52480000Y-80750000D03*
G04 #@! TO.P,ASIC1,D6*
X51980000Y-80750000D03*
G04 #@! TO.P,ASIC1,C6*
X51480000Y-80750000D03*
G04 #@! TO.P,ASIC1,B6*
G04 #@! TO.N,Net-(U1-PadB6)*
X50980000Y-80750000D03*
G04 #@! TO.P,ASIC1,A6*
G04 #@! TO.N,Net-(U1-PadA6)*
X50480000Y-80750000D03*
G04 #@! TO.P,ASIC1,F5*
G04 #@! TO.N,mprj_io[8]*
X52980000Y-81250000D03*
G04 #@! TO.P,ASIC1,E5*
G04 #@! TO.N,Net-(U1-PadE5)*
X52480000Y-81250000D03*
G04 #@! TO.P,ASIC1,D5*
G04 #@! TO.N,GND*
X51980000Y-81250000D03*
G04 #@! TO.P,ASIC1,C5*
X51480000Y-81250000D03*
G04 #@! TO.P,ASIC1,B5*
G04 #@! TO.N,Net-(U1-PadB5)*
X50980000Y-81250000D03*
G04 #@! TO.P,ASIC1,A5*
G04 #@! TO.N,Net-(U1-PadA5)*
X50480000Y-81250000D03*
G04 #@! TO.P,ASIC1,F4*
G04 #@! TO.N,mprj_io[10]*
X52980000Y-81750000D03*
G04 #@! TO.P,ASIC1,E4*
G04 #@! TO.N,mprj_io[9]*
X52480000Y-81750000D03*
G04 #@! TO.P,ASIC1,D4*
G04 #@! TO.N,vdda*
X51980000Y-81750000D03*
G04 #@! TO.P,ASIC1,C4*
X51480000Y-81750000D03*
G04 #@! TO.P,ASIC1,B4*
G04 #@! TO.N,Net-(U1-PadB4)*
X50980000Y-81750000D03*
G04 #@! TO.P,ASIC1,A4*
G04 #@! TO.N,Net-(U1-PadA4)*
X50480000Y-81750000D03*
G04 #@! TO.P,ASIC1,F3*
G04 #@! TO.N,mprj_io[12]*
X52980000Y-82250000D03*
G04 #@! TO.P,ASIC1,E3*
G04 #@! TO.N,mprj_io[11]*
X52480000Y-82250000D03*
G04 #@! TO.P,ASIC1,D3*
G04 #@! TO.N,mprj_io[13]*
X51980000Y-82250000D03*
G04 #@! TO.P,ASIC1,C3*
G04 #@! TO.N,Net-(U1-PadC3)*
X51480000Y-82250000D03*
G04 #@! TO.P,ASIC1,B3*
G04 #@! TO.N,GND*
X50980000Y-82250000D03*
G04 #@! TO.P,ASIC1,A3*
G04 #@! TO.N,Net-(U1-PadA3)*
X50480000Y-82250000D03*
G04 #@! TO.P,ASIC1,F2*
G04 #@! TO.N,vccd*
X52980000Y-82750000D03*
G04 #@! TO.P,ASIC1,E2*
G04 #@! TO.N,mprj_io[14]*
X52480000Y-82750000D03*
G04 #@! TO.P,ASIC1,D2*
G04 #@! TO.N,mprj_io[17]*
X51980000Y-82750000D03*
G04 #@! TO.P,ASIC1,C2*
G04 #@! TO.N,Net-(U1-PadC2)*
X51480000Y-82750000D03*
G04 #@! TO.P,ASIC1,B2*
G04 #@! TO.N,Net-(U1-PadB2)*
X50980000Y-82750000D03*
G04 #@! TO.P,ASIC1,A2*
G04 #@! TO.N,vccd*
X50480000Y-82750000D03*
G04 #@! TO.P,ASIC1,F1*
G04 #@! TO.N,mprj_io[15]*
X52980000Y-83250000D03*
G04 #@! TO.P,ASIC1,E1*
G04 #@! TO.N,mprj_io[16]*
X52480000Y-83250000D03*
G04 #@! TO.P,ASIC1,D1*
G04 #@! TO.N,mprj_io[18]*
X51980000Y-83250000D03*
G04 #@! TO.P,ASIC1,C1*
G04 #@! TO.N,Net-(U1-PadC1)*
X51480000Y-83250000D03*
G04 #@! TO.P,ASIC1,B1*
G04 #@! TO.N,Net-(U1-PadB1)*
X50980000Y-83250000D03*
G04 #@! TO.P,ASIC1,A1*
G04 #@! TO.N,Net-(U1-PadA1)*
X50480000Y-83250000D03*
G04 #@! TD*
D11*
G04 #@! TO.P,J1,1*
G04 #@! TO.N,mprj_io[3]*
X42010000Y-85920000D03*
D12*
G04 #@! TO.P,J1,2*
G04 #@! TO.N,mprj_io[2]*
X39470000Y-85920000D03*
G04 #@! TO.P,J1,3*
G04 #@! TO.N,mprj_io[4]*
X42010000Y-83380000D03*
G04 #@! TO.P,J1,4*
G04 #@! TO.N,GND*
X39470000Y-83380000D03*
G04 #@! TO.P,J1,5*
G04 #@! TO.N,mprj_io[1]*
X42010000Y-80840000D03*
G04 #@! TO.P,J1,6*
G04 #@! TO.N,+5V*
X39470000Y-80840000D03*
G04 #@! TD*
D13*
G04 #@! TO.P,J2,7*
G04 #@! TO.N,GND*
X52911000Y-97000000D03*
G04 #@! TO.P,J2,8*
X50625000Y-97000000D03*
G04 #@! TO.P,J2,6*
X55197000Y-97000000D03*
G04 #@! TO.P,J2,9*
G04 #@! TO.N,Net-(J2-Pad9)*
X48339000Y-97000000D03*
G04 #@! TO.P,J2,10*
G04 #@! TO.N,GND*
X46053000Y-97000000D03*
G04 #@! TO.P,J2,3*
G04 #@! TO.N,/blue*
X49480000Y-94460000D03*
G04 #@! TO.P,J2,5*
G04 #@! TO.N,GND*
X44908000Y-94460000D03*
G04 #@! TO.P,J2,1*
G04 #@! TO.N,/red*
X54052000Y-94460000D03*
G04 #@! TO.P,J2,4*
G04 #@! TO.N,Net-(J2-Pad4)*
X47194000Y-94460000D03*
G04 #@! TO.P,J2,2*
G04 #@! TO.N,/green*
X51766000Y-94460000D03*
G04 #@! TO.P,J2,15*
G04 #@! TO.N,Net-(J2-Pad15)*
X44908000Y-99540000D03*
G04 #@! TO.P,J2,14*
G04 #@! TO.N,mprj_io[12]*
X47194000Y-99540000D03*
G04 #@! TO.P,J2,13*
G04 #@! TO.N,mprj_io[11]*
X49480000Y-99540000D03*
G04 #@! TO.P,J2,12*
G04 #@! TO.N,Net-(J2-Pad12)*
X51766000Y-99540000D03*
G04 #@! TO.P,J2,11*
G04 #@! TO.N,Net-(J2-Pad11)*
X54052000Y-99540000D03*
D14*
G04 #@! TO.P,J2,*
G04 #@! TO.N,*
X37235000Y-97000000D03*
X62225000Y-97000000D03*
G04 #@! TD*
G04 #@! TO.P,U2,8*
G04 #@! TO.N,vdda*
G04 #@! TA.AperFunction,SMDPad,CuDef*
G36*
G01*
X58975000Y-78200000D02*
X58675000Y-78200000D01*
G75*
G02*
X58525000Y-78050000I0J150000D01*
G01*
X58525000Y-76750000D01*
G75*
G02*
X58675000Y-76600000I150000J0D01*
G01*
X58975000Y-76600000D01*
G75*
G02*
X59125000Y-76750000I0J-150000D01*
G01*
X59125000Y-78050000D01*
G75*
G02*
X58975000Y-78200000I-150000J0D01*
G01*
G37*
G04 #@! TD.AperFunction*
G04 #@! TO.P,U2,7*
G04 #@! TO.N,Net-(U2-Pad7)*
G04 #@! TA.AperFunction,SMDPad,CuDef*
G36*
G01*
X60245000Y-78200000D02*
X59945000Y-78200000D01*
G75*
G02*
X59795000Y-78050000I0J150000D01*
G01*
X59795000Y-76750000D01*
G75*
G02*
X59945000Y-76600000I150000J0D01*
G01*
X60245000Y-76600000D01*
G75*
G02*
X60395000Y-76750000I0J-150000D01*
G01*
X60395000Y-78050000D01*
G75*
G02*
X60245000Y-78200000I-150000J0D01*
G01*
G37*
G04 #@! TD.AperFunction*
G04 #@! TO.P,U2,6*
G04 #@! TO.N,flash_clk*
G04 #@! TA.AperFunction,SMDPad,CuDef*
G36*
G01*
X61515000Y-78200000D02*
X61215000Y-78200000D01*
G75*
G02*
X61065000Y-78050000I0J150000D01*
G01*
X61065000Y-76750000D01*
G75*
G02*
X61215000Y-76600000I150000J0D01*
G01*
X61515000Y-76600000D01*
G75*
G02*
X61665000Y-76750000I0J-150000D01*
G01*
X61665000Y-78050000D01*
G75*
G02*
X61515000Y-78200000I-150000J0D01*
G01*
G37*
G04 #@! TD.AperFunction*
G04 #@! TO.P,U2,5*
G04 #@! TO.N,flash_io0*
G04 #@! TA.AperFunction,SMDPad,CuDef*
G36*
G01*
X62785000Y-78200000D02*
X62485000Y-78200000D01*
G75*
G02*
X62335000Y-78050000I0J150000D01*
G01*
X62335000Y-76750000D01*
G75*
G02*
X62485000Y-76600000I150000J0D01*
G01*
X62785000Y-76600000D01*
G75*
G02*
X62935000Y-76750000I0J-150000D01*
G01*
X62935000Y-78050000D01*
G75*
G02*
X62785000Y-78200000I-150000J0D01*
G01*
G37*
G04 #@! TD.AperFunction*
G04 #@! TO.P,U2,4*
G04 #@! TO.N,GND*
G04 #@! TA.AperFunction,SMDPad,CuDef*
G36*
G01*
X62785000Y-85400000D02*
X62485000Y-85400000D01*
G75*
G02*
X62335000Y-85250000I0J150000D01*
G01*
X62335000Y-83950000D01*
G75*
G02*
X62485000Y-83800000I150000J0D01*
G01*
X62785000Y-83800000D01*
G75*
G02*
X62935000Y-83950000I0J-150000D01*
G01*
X62935000Y-85250000D01*
G75*
G02*
X62785000Y-85400000I-150000J0D01*
G01*
G37*
G04 #@! TD.AperFunction*
G04 #@! TO.P,U2,3*
G04 #@! TO.N,Net-(U2-Pad3)*
G04 #@! TA.AperFunction,SMDPad,CuDef*
G36*
G01*
X61515000Y-85400000D02*
X61215000Y-85400000D01*
G75*
G02*
X61065000Y-85250000I0J150000D01*
G01*
X61065000Y-83950000D01*
G75*
G02*
X61215000Y-83800000I150000J0D01*
G01*
X61515000Y-83800000D01*
G75*
G02*
X61665000Y-83950000I0J-150000D01*
G01*
X61665000Y-85250000D01*
G75*
G02*
X61515000Y-85400000I-150000J0D01*
G01*
G37*
G04 #@! TD.AperFunction*
G04 #@! TO.P,U2,2*
G04 #@! TO.N,flash_io1*
G04 #@! TA.AperFunction,SMDPad,CuDef*
G36*
G01*
X60245000Y-85400000D02*
X59945000Y-85400000D01*
G75*
G02*
X59795000Y-85250000I0J150000D01*
G01*
X59795000Y-83950000D01*
G75*
G02*
X59945000Y-83800000I150000J0D01*
G01*
X60245000Y-83800000D01*
G75*
G02*
X60395000Y-83950000I0J-150000D01*
G01*
X60395000Y-85250000D01*
G75*
G02*
X60245000Y-85400000I-150000J0D01*
G01*
G37*
G04 #@! TD.AperFunction*
G04 #@! TO.P,U2,1*
G04 #@! TO.N,flash_csb*
G04 #@! TA.AperFunction,SMDPad,CuDef*
G36*
G01*
X58975000Y-85400000D02*
X58675000Y-85400000D01*
G75*
G02*
X58525000Y-85250000I0J150000D01*
G01*
X58525000Y-83950000D01*
G75*
G02*
X58675000Y-83800000I150000J0D01*
G01*
X58975000Y-83800000D01*
G75*
G02*
X59125000Y-83950000I0J-150000D01*
G01*
X59125000Y-85250000D01*
G75*
G02*
X58975000Y-85400000I-150000J0D01*
G01*
G37*
G04 #@! TD.AperFunction*
G04 #@! TD*
D15*
G04 #@! TO.P,U6,5*
G04 #@! TO.N,vdda*
X53830000Y-71850000D03*
G04 #@! TO.P,U6,4*
G04 #@! TO.N,Net-(U6-Pad4)*
X51930000Y-71850000D03*
G04 #@! TO.P,U6,3*
G04 #@! TO.N,+5V*
X51930000Y-69650000D03*
G04 #@! TO.P,U6,2*
G04 #@! TO.N,GND*
X52880000Y-69650000D03*
G04 #@! TO.P,U6,1*
G04 #@! TO.N,+5V*
X53830000Y-69650000D03*
G04 #@! TD*
G04 #@! TO.P,U5,5*
G04 #@! TO.N,vccd*
X60580000Y-71850000D03*
G04 #@! TO.P,U5,4*
G04 #@! TO.N,Net-(U5-Pad4)*
X58680000Y-71850000D03*
G04 #@! TO.P,U5,3*
G04 #@! TO.N,+5V*
X58680000Y-69650000D03*
G04 #@! TO.P,U5,2*
G04 #@! TO.N,GND*
X59630000Y-69650000D03*
G04 #@! TO.P,U5,1*
G04 #@! TO.N,+5V*
X60580000Y-69650000D03*
G04 #@! TD*
G04 #@! TO.P,C7,2*
G04 #@! TO.N,GND*
G04 #@! TA.AperFunction,SMDPad,CuDef*
G36*
G01*
X52830000Y-73243750D02*
X52830000Y-73756250D01*
G75*
G02*
X52611250Y-73975000I-218750J0D01*
G01*
X52173750Y-73975000D01*
G75*
G02*
X51955000Y-73756250I0J218750D01*
G01*
X51955000Y-73243750D01*
G75*
G02*
X52173750Y-73025000I218750J0D01*
G01*
X52611250Y-73025000D01*
G75*
G02*
X52830000Y-73243750I0J-218750D01*
G01*
G37*
G04 #@! TD.AperFunction*
G04 #@! TO.P,C7,1*
G04 #@! TO.N,vdda*
G04 #@! TA.AperFunction,SMDPad,CuDef*
G36*
G01*
X54405000Y-73243750D02*
X54405000Y-73756250D01*
G75*
G02*
X54186250Y-73975000I-218750J0D01*
G01*
X53748750Y-73975000D01*
G75*
G02*
X53530000Y-73756250I0J218750D01*
G01*
X53530000Y-73243750D01*
G75*
G02*
X53748750Y-73025000I218750J0D01*
G01*
X54186250Y-73025000D01*
G75*
G02*
X54405000Y-73243750I0J-218750D01*
G01*
G37*
G04 #@! TD.AperFunction*
G04 #@! TD*
G04 #@! TO.P,C5,2*
G04 #@! TO.N,GND*
G04 #@! TA.AperFunction,SMDPad,CuDef*
G36*
G01*
X52830000Y-67743750D02*
X52830000Y-68256250D01*
G75*
G02*
X52611250Y-68475000I-218750J0D01*
G01*
X52173750Y-68475000D01*
G75*
G02*
X51955000Y-68256250I0J218750D01*
G01*
X51955000Y-67743750D01*
G75*
G02*
X52173750Y-67525000I218750J0D01*
G01*
X52611250Y-67525000D01*
G75*
G02*
X52830000Y-67743750I0J-218750D01*
G01*
G37*
G04 #@! TD.AperFunction*
G04 #@! TO.P,C5,1*
G04 #@! TO.N,+5V*
G04 #@! TA.AperFunction,SMDPad,CuDef*
G36*
G01*
X54405000Y-67743750D02*
X54405000Y-68256250D01*
G75*
G02*
X54186250Y-68475000I-218750J0D01*
G01*
X53748750Y-68475000D01*
G75*
G02*
X53530000Y-68256250I0J218750D01*
G01*
X53530000Y-67743750D01*
G75*
G02*
X53748750Y-67525000I218750J0D01*
G01*
X54186250Y-67525000D01*
G75*
G02*
X54405000Y-67743750I0J-218750D01*
G01*
G37*
G04 #@! TD.AperFunction*
G04 #@! TD*
G04 #@! TO.P,C3,2*
G04 #@! TO.N,GND*
G04 #@! TA.AperFunction,SMDPad,CuDef*
G36*
G01*
X59580000Y-73243750D02*
X59580000Y-73756250D01*
G75*
G02*
X59361250Y-73975000I-218750J0D01*
G01*
X58923750Y-73975000D01*
G75*
G02*
X58705000Y-73756250I0J218750D01*
G01*
X58705000Y-73243750D01*
G75*
G02*
X58923750Y-73025000I218750J0D01*
G01*
X59361250Y-73025000D01*
G75*
G02*
X59580000Y-73243750I0J-218750D01*
G01*
G37*
G04 #@! TD.AperFunction*
G04 #@! TO.P,C3,1*
G04 #@! TO.N,vccd*
G04 #@! TA.AperFunction,SMDPad,CuDef*
G36*
G01*
X61155000Y-73243750D02*
X61155000Y-73756250D01*
G75*
G02*
X60936250Y-73975000I-218750J0D01*
G01*
X60498750Y-73975000D01*
G75*
G02*
X60280000Y-73756250I0J218750D01*
G01*
X60280000Y-73243750D01*
G75*
G02*
X60498750Y-73025000I218750J0D01*
G01*
X60936250Y-73025000D01*
G75*
G02*
X61155000Y-73243750I0J-218750D01*
G01*
G37*
G04 #@! TD.AperFunction*
G04 #@! TD*
G04 #@! TO.P,C1,2*
G04 #@! TO.N,GND*
G04 #@! TA.AperFunction,SMDPad,CuDef*
G36*
G01*
X59580000Y-67743750D02*
X59580000Y-68256250D01*
G75*
G02*
X59361250Y-68475000I-218750J0D01*
G01*
X58923750Y-68475000D01*
G75*
G02*
X58705000Y-68256250I0J218750D01*
G01*
X58705000Y-67743750D01*
G75*
G02*
X58923750Y-67525000I218750J0D01*
G01*
X59361250Y-67525000D01*
G75*
G02*
X59580000Y-67743750I0J-218750D01*
G01*
G37*
G04 #@! TD.AperFunction*
G04 #@! TO.P,C1,1*
G04 #@! TO.N,+5V*
G04 #@! TA.AperFunction,SMDPad,CuDef*
G36*
G01*
X61155000Y-67743750D02*
X61155000Y-68256250D01*
G75*
G02*
X60936250Y-68475000I-218750J0D01*
G01*
X60498750Y-68475000D01*
G75*
G02*
X60280000Y-68256250I0J218750D01*
G01*
X60280000Y-67743750D01*
G75*
G02*
X60498750Y-67525000I218750J0D01*
G01*
X60936250Y-67525000D01*
G75*
G02*
X61155000Y-67743750I0J-218750D01*
G01*
G37*
G04 #@! TD.AperFunction*
G04 #@! TD*
G04 #@! TO.P,C10,1*
G04 #@! TO.N,vdda*
G04 #@! TA.AperFunction,SMDPad,CuDef*
G36*
G01*
X51180000Y-75750000D02*
X51180000Y-76250000D01*
G75*
G02*
X50955000Y-76475000I-225000J0D01*
G01*
X50505000Y-76475000D01*
G75*
G02*
X50280000Y-76250000I0J225000D01*
G01*
X50280000Y-75750000D01*
G75*
G02*
X50505000Y-75525000I225000J0D01*
G01*
X50955000Y-75525000D01*
G75*
G02*
X51180000Y-75750000I0J-225000D01*
G01*
G37*
G04 #@! TD.AperFunction*
G04 #@! TO.P,C10,2*
G04 #@! TO.N,GND*
G04 #@! TA.AperFunction,SMDPad,CuDef*
G36*
G01*
X49630000Y-75750000D02*
X49630000Y-76250000D01*
G75*
G02*
X49405000Y-76475000I-225000J0D01*
G01*
X48955000Y-76475000D01*
G75*
G02*
X48730000Y-76250000I0J225000D01*
G01*
X48730000Y-75750000D01*
G75*
G02*
X48955000Y-75525000I225000J0D01*
G01*
X49405000Y-75525000D01*
G75*
G02*
X49630000Y-75750000I0J-225000D01*
G01*
G37*
G04 #@! TD.AperFunction*
G04 #@! TD*
G04 #@! TO.P,C16,1*
G04 #@! TO.N,vdda*
G04 #@! TA.AperFunction,SMDPad,CuDef*
G36*
G01*
X45030000Y-75250000D02*
X45030000Y-74750000D01*
G75*
G02*
X45255000Y-74525000I225000J0D01*
G01*
X45705000Y-74525000D01*
G75*
G02*
X45930000Y-74750000I0J-225000D01*
G01*
X45930000Y-75250000D01*
G75*
G02*
X45705000Y-75475000I-225000J0D01*
G01*
X45255000Y-75475000D01*
G75*
G02*
X45030000Y-75250000I0J225000D01*
G01*
G37*
G04 #@! TD.AperFunction*
G04 #@! TO.P,C16,2*
G04 #@! TO.N,GND*
G04 #@! TA.AperFunction,SMDPad,CuDef*
G36*
G01*
X46580000Y-75250000D02*
X46580000Y-74750000D01*
G75*
G02*
X46805000Y-74525000I225000J0D01*
G01*
X47255000Y-74525000D01*
G75*
G02*
X47480000Y-74750000I0J-225000D01*
G01*
X47480000Y-75250000D01*
G75*
G02*
X47255000Y-75475000I-225000J0D01*
G01*
X46805000Y-75475000D01*
G75*
G02*
X46580000Y-75250000I0J225000D01*
G01*
G37*
G04 #@! TD.AperFunction*
G04 #@! TD*
G04 #@! TO.P,R1,2*
G04 #@! TO.N,mprj_io[18]*
G04 #@! TA.AperFunction,SMDPad,CuDef*
G36*
G01*
X58005000Y-88575000D02*
X57455000Y-88575000D01*
G75*
G02*
X57255000Y-88375000I0J200000D01*
G01*
X57255000Y-87975000D01*
G75*
G02*
X57455000Y-87775000I200000J0D01*
G01*
X58005000Y-87775000D01*
G75*
G02*
X58205000Y-87975000I0J-200000D01*
G01*
X58205000Y-88375000D01*
G75*
G02*
X58005000Y-88575000I-200000J0D01*
G01*
G37*
G04 #@! TD.AperFunction*
G04 #@! TO.P,R1,1*
G04 #@! TO.N,/red*
G04 #@! TA.AperFunction,SMDPad,CuDef*
G36*
G01*
X58005000Y-90225000D02*
X57455000Y-90225000D01*
G75*
G02*
X57255000Y-90025000I0J200000D01*
G01*
X57255000Y-89625000D01*
G75*
G02*
X57455000Y-89425000I200000J0D01*
G01*
X58005000Y-89425000D01*
G75*
G02*
X58205000Y-89625000I0J-200000D01*
G01*
X58205000Y-90025000D01*
G75*
G02*
X58005000Y-90225000I-200000J0D01*
G01*
G37*
G04 #@! TD.AperFunction*
G04 #@! TD*
G04 #@! TO.P,R2,1*
G04 #@! TO.N,/red*
G04 #@! TA.AperFunction,SMDPad,CuDef*
G36*
G01*
X56005000Y-90225000D02*
X55455000Y-90225000D01*
G75*
G02*
X55255000Y-90025000I0J200000D01*
G01*
X55255000Y-89625000D01*
G75*
G02*
X55455000Y-89425000I200000J0D01*
G01*
X56005000Y-89425000D01*
G75*
G02*
X56205000Y-89625000I0J-200000D01*
G01*
X56205000Y-90025000D01*
G75*
G02*
X56005000Y-90225000I-200000J0D01*
G01*
G37*
G04 #@! TD.AperFunction*
G04 #@! TO.P,R2,2*
G04 #@! TO.N,mprj_io[17]*
G04 #@! TA.AperFunction,SMDPad,CuDef*
G36*
G01*
X56005000Y-88575000D02*
X55455000Y-88575000D01*
G75*
G02*
X55255000Y-88375000I0J200000D01*
G01*
X55255000Y-87975000D01*
G75*
G02*
X55455000Y-87775000I200000J0D01*
G01*
X56005000Y-87775000D01*
G75*
G02*
X56205000Y-87975000I0J-200000D01*
G01*
X56205000Y-88375000D01*
G75*
G02*
X56005000Y-88575000I-200000J0D01*
G01*
G37*
G04 #@! TD.AperFunction*
G04 #@! TD*
G04 #@! TO.P,R3,2*
G04 #@! TO.N,mprj_io[16]*
G04 #@! TA.AperFunction,SMDPad,CuDef*
G36*
G01*
X54005000Y-88575000D02*
X53455000Y-88575000D01*
G75*
G02*
X53255000Y-88375000I0J200000D01*
G01*
X53255000Y-87975000D01*
G75*
G02*
X53455000Y-87775000I200000J0D01*
G01*
X54005000Y-87775000D01*
G75*
G02*
X54205000Y-87975000I0J-200000D01*
G01*
X54205000Y-88375000D01*
G75*
G02*
X54005000Y-88575000I-200000J0D01*
G01*
G37*
G04 #@! TD.AperFunction*
G04 #@! TO.P,R3,1*
G04 #@! TO.N,/green*
G04 #@! TA.AperFunction,SMDPad,CuDef*
G36*
G01*
X54005000Y-90225000D02*
X53455000Y-90225000D01*
G75*
G02*
X53255000Y-90025000I0J200000D01*
G01*
X53255000Y-89625000D01*
G75*
G02*
X53455000Y-89425000I200000J0D01*
G01*
X54005000Y-89425000D01*
G75*
G02*
X54205000Y-89625000I0J-200000D01*
G01*
X54205000Y-90025000D01*
G75*
G02*
X54005000Y-90225000I-200000J0D01*
G01*
G37*
G04 #@! TD.AperFunction*
G04 #@! TD*
G04 #@! TO.P,R4,1*
G04 #@! TO.N,/green*
G04 #@! TA.AperFunction,SMDPad,CuDef*
G36*
G01*
X52005000Y-90280001D02*
X51455000Y-90280001D01*
G75*
G02*
X51255000Y-90080001I0J200000D01*
G01*
X51255000Y-89680001D01*
G75*
G02*
X51455000Y-89480001I200000J0D01*
G01*
X52005000Y-89480001D01*
G75*
G02*
X52205000Y-89680001I0J-200000D01*
G01*
X52205000Y-90080001D01*
G75*
G02*
X52005000Y-90280001I-200000J0D01*
G01*
G37*
G04 #@! TD.AperFunction*
G04 #@! TO.P,R4,2*
G04 #@! TO.N,mprj_io[15]*
G04 #@! TA.AperFunction,SMDPad,CuDef*
G36*
G01*
X52005000Y-88630001D02*
X51455000Y-88630001D01*
G75*
G02*
X51255000Y-88430001I0J200000D01*
G01*
X51255000Y-88030001D01*
G75*
G02*
X51455000Y-87830001I200000J0D01*
G01*
X52005000Y-87830001D01*
G75*
G02*
X52205000Y-88030001I0J-200000D01*
G01*
X52205000Y-88430001D01*
G75*
G02*
X52005000Y-88630001I-200000J0D01*
G01*
G37*
G04 #@! TD.AperFunction*
G04 #@! TD*
G04 #@! TO.P,R5,2*
G04 #@! TO.N,mprj_io[14]*
G04 #@! TA.AperFunction,SMDPad,CuDef*
G36*
G01*
X50005000Y-88575000D02*
X49455000Y-88575000D01*
G75*
G02*
X49255000Y-88375000I0J200000D01*
G01*
X49255000Y-87975000D01*
G75*
G02*
X49455000Y-87775000I200000J0D01*
G01*
X50005000Y-87775000D01*
G75*
G02*
X50205000Y-87975000I0J-200000D01*
G01*
X50205000Y-88375000D01*
G75*
G02*
X50005000Y-88575000I-200000J0D01*
G01*
G37*
G04 #@! TD.AperFunction*
G04 #@! TO.P,R5,1*
G04 #@! TO.N,/blue*
G04 #@! TA.AperFunction,SMDPad,CuDef*
G36*
G01*
X50005000Y-90225000D02*
X49455000Y-90225000D01*
G75*
G02*
X49255000Y-90025000I0J200000D01*
G01*
X49255000Y-89625000D01*
G75*
G02*
X49455000Y-89425000I200000J0D01*
G01*
X50005000Y-89425000D01*
G75*
G02*
X50205000Y-89625000I0J-200000D01*
G01*
X50205000Y-90025000D01*
G75*
G02*
X50005000Y-90225000I-200000J0D01*
G01*
G37*
G04 #@! TD.AperFunction*
G04 #@! TD*
G04 #@! TO.P,R6,1*
G04 #@! TO.N,/blue*
G04 #@! TA.AperFunction,SMDPad,CuDef*
G36*
G01*
X48005000Y-90225000D02*
X47455000Y-90225000D01*
G75*
G02*
X47255000Y-90025000I0J200000D01*
G01*
X47255000Y-89625000D01*
G75*
G02*
X47455000Y-89425000I200000J0D01*
G01*
X48005000Y-89425000D01*
G75*
G02*
X48205000Y-89625000I0J-200000D01*
G01*
X48205000Y-90025000D01*
G75*
G02*
X48005000Y-90225000I-200000J0D01*
G01*
G37*
G04 #@! TD.AperFunction*
G04 #@! TO.P,R6,2*
G04 #@! TO.N,mprj_io[13]*
G04 #@! TA.AperFunction,SMDPad,CuDef*
G36*
G01*
X48005000Y-88575000D02*
X47455000Y-88575000D01*
G75*
G02*
X47255000Y-88375000I0J200000D01*
G01*
X47255000Y-87975000D01*
G75*
G02*
X47455000Y-87775000I200000J0D01*
G01*
X48005000Y-87775000D01*
G75*
G02*
X48205000Y-87975000I0J-200000D01*
G01*
X48205000Y-88375000D01*
G75*
G02*
X48005000Y-88575000I-200000J0D01*
G01*
G37*
G04 #@! TD.AperFunction*
G04 #@! TD*
D16*
G04 #@! TO.P,J3,6*
G04 #@! TO.N,Net-(J3-Pad6)*
X56730000Y-62000000D03*
D17*
X60230000Y-64700000D03*
D18*
G04 #@! TO.P,J3,2*
G04 #@! TO.N,Net-(J3-Pad2)*
X58380000Y-64700000D03*
G04 #@! TO.P,J3,1*
G04 #@! TO.N,+5V*
X59030000Y-64700000D03*
G04 #@! TO.P,J3,5*
G04 #@! TO.N,GND*
X56430000Y-64700000D03*
G04 #@! TO.P,J3,4*
G04 #@! TO.N,Net-(J3-Pad4)*
X57080000Y-64700000D03*
G04 #@! TO.P,J3,3*
G04 #@! TO.N,Net-(J3-Pad3)*
X57730000Y-64700000D03*
D17*
G04 #@! TO.P,J3,6*
G04 #@! TO.N,Net-(J3-Pad6)*
X55230000Y-64700000D03*
D16*
X58730000Y-62000000D03*
D19*
X61230000Y-62000000D03*
X54230000Y-62000000D03*
D20*
X54830000Y-62000000D03*
X60630000Y-62000000D03*
G04 #@! TD*
G04 #@! TO.P,D1,1*
G04 #@! TO.N,Net-(D1-Pad1)*
G04 #@! TA.AperFunction,SMDPad,CuDef*
G36*
G01*
X45105000Y-71456250D02*
X45105000Y-70943750D01*
G75*
G02*
X45323750Y-70725000I218750J0D01*
G01*
X45761250Y-70725000D01*
G75*
G02*
X45980000Y-70943750I0J-218750D01*
G01*
X45980000Y-71456250D01*
G75*
G02*
X45761250Y-71675000I-218750J0D01*
G01*
X45323750Y-71675000D01*
G75*
G02*
X45105000Y-71456250I0J218750D01*
G01*
G37*
G04 #@! TD.AperFunction*
G04 #@! TO.P,D1,2*
G04 #@! TO.N,gpio*
G04 #@! TA.AperFunction,SMDPad,CuDef*
G36*
G01*
X46680000Y-71456250D02*
X46680000Y-70943750D01*
G75*
G02*
X46898750Y-70725000I218750J0D01*
G01*
X47336250Y-70725000D01*
G75*
G02*
X47555000Y-70943750I0J-218750D01*
G01*
X47555000Y-71456250D01*
G75*
G02*
X47336250Y-71675000I-218750J0D01*
G01*
X46898750Y-71675000D01*
G75*
G02*
X46680000Y-71456250I0J218750D01*
G01*
G37*
G04 #@! TD.AperFunction*
G04 #@! TD*
G04 #@! TO.P,R7,1*
G04 #@! TO.N,Net-(D1-Pad1)*
G04 #@! TA.AperFunction,SMDPad,CuDef*
G36*
G01*
X45105000Y-73475000D02*
X45105000Y-72925000D01*
G75*
G02*
X45305000Y-72725000I200000J0D01*
G01*
X45705000Y-72725000D01*
G75*
G02*
X45905000Y-72925000I0J-200000D01*
G01*
X45905000Y-73475000D01*
G75*
G02*
X45705000Y-73675000I-200000J0D01*
G01*
X45305000Y-73675000D01*
G75*
G02*
X45105000Y-73475000I0J200000D01*
G01*
G37*
G04 #@! TD.AperFunction*
G04 #@! TO.P,R7,2*
G04 #@! TO.N,GND*
G04 #@! TA.AperFunction,SMDPad,CuDef*
G36*
G01*
X46755000Y-73475000D02*
X46755000Y-72925000D01*
G75*
G02*
X46955000Y-72725000I200000J0D01*
G01*
X47355000Y-72725000D01*
G75*
G02*
X47555000Y-72925000I0J-200000D01*
G01*
X47555000Y-73475000D01*
G75*
G02*
X47355000Y-73675000I-200000J0D01*
G01*
X46955000Y-73675000D01*
G75*
G02*
X46755000Y-73475000I0J200000D01*
G01*
G37*
G04 #@! TD.AperFunction*
G04 #@! TD*
D21*
G04 #@! TO.P,SW1,1*
G04 #@! TO.N,mprj_io[8]*
X48730000Y-61550000D03*
G04 #@! TO.P,SW1,2*
G04 #@! TO.N,vdda*
X48730000Y-68450000D03*
G04 #@! TD*
G04 #@! TO.P,SW2,2*
G04 #@! TO.N,vdda*
X44230000Y-68450000D03*
G04 #@! TO.P,SW2,1*
G04 #@! TO.N,mprj_io[9]*
X44230000Y-61550000D03*
G04 #@! TD*
G04 #@! TO.P,SW3,1*
G04 #@! TO.N,mprj_io[10]*
X39730000Y-61550000D03*
G04 #@! TO.P,SW3,2*
G04 #@! TO.N,vdda*
X39730000Y-68450000D03*
G04 #@! TD*
D22*
G04 #@! TO.P,X1,1*
G04 #@! TO.N,Net-(X1-Pad1)*
X40780000Y-72800000D03*
G04 #@! TO.P,X1,2*
G04 #@! TO.N,GND*
X40780000Y-75200000D03*
G04 #@! TO.P,X1,3*
G04 #@! TO.N,clock*
X42680000Y-75200000D03*
G04 #@! TO.P,X1,4*
G04 #@! TO.N,vdda*
X42680000Y-72800000D03*
G04 #@! TD*
D23*
G04 #@! TO.P,TP1,1*
G04 #@! TO.N,resetb*
X45730000Y-78400000D03*
G04 #@! TD*
G04 #@! TO.P,TP6,1*
G04 #@! TO.N,clock*
X43930000Y-77400000D03*
G04 #@! TD*
G04 #@! TO.P,TP9,1*
G04 #@! TO.N,vccd*
X62980000Y-72500000D03*
G04 #@! TD*
G04 #@! TO.P,TP10,1*
G04 #@! TO.N,+5V*
X62980000Y-69000000D03*
G04 #@! TD*
G04 #@! TO.P,TP11,1*
G04 #@! TO.N,vdda*
X55930000Y-72600000D03*
G04 #@! TD*
G04 #@! TO.P,TP12,1*
G04 #@! TO.N,GND*
X52230000Y-64500000D03*
G04 #@! TD*
D24*
G04 #@! TO.N,GND*
X51480000Y-68000000D03*
X58230000Y-73500000D03*
X58230000Y-68000000D03*
X56230000Y-66250000D03*
X46730000Y-74000000D03*
X47730000Y-74500000D03*
X51730000Y-81000000D03*
X49831394Y-82200000D03*
X57130000Y-66200000D03*
X62980000Y-86077790D03*
X56530000Y-80200000D03*
X41029996Y-76300000D03*
X51480000Y-73500000D03*
X48430000Y-75999986D03*
G04 #@! TO.N,vccd*
X55530000Y-80000000D03*
X53863387Y-83760937D03*
X49530000Y-84000000D03*
X49530000Y-78700000D03*
G04 #@! TO.N,vdda*
X54530000Y-78900000D03*
X49134000Y-80800000D03*
G04 #@! TO.N,flash_io0*
X62130000Y-78600000D03*
X51629998Y-77800000D03*
X51630000Y-76700000D03*
G04 #@! TO.N,flash_csb*
X59230000Y-83300000D03*
G04 #@! TO.N,mprj_io[2]*
X44530000Y-81800000D03*
X53841843Y-79136643D03*
G04 #@! TO.N,mprj_io[1]*
X54130000Y-78332708D03*
G04 #@! TO.N,flash_io1*
X61630000Y-82000000D03*
X52119023Y-77597949D03*
G04 #@! TO.N,mprj_io[4]*
X54930000Y-81000000D03*
G04 #@! TO.N,mprj_io[3]*
X54122118Y-80892104D03*
G04 #@! TO.N,flash_clk*
X60730000Y-78000000D03*
X57930000Y-80200000D03*
G04 #@! TO.N,mprj_io[8]*
X42630000Y-88599994D03*
X55631896Y-84275476D03*
G04 #@! TO.N,mprj_io[10]*
X43730000Y-88300000D03*
X55106311Y-84301154D03*
G04 #@! TO.N,mprj_io[9]*
X43155227Y-88567820D03*
X54649596Y-84039792D03*
G04 #@! TO.N,mprj_io[12]*
X54155828Y-82458394D03*
G04 #@! TO.N,mprj_io[11]*
X54830000Y-82300000D03*
G04 #@! TO.N,mprj_io[14]*
X54230000Y-86900000D03*
X50730000Y-87100000D03*
G04 #@! TO.N,mprj_io[17]*
X54437434Y-86316808D03*
X51430000Y-86500000D03*
G04 #@! TO.N,mprj_io[18]*
X54224587Y-85835564D03*
X50713846Y-86297608D03*
G04 #@! TO.N,gpio*
X51130000Y-75000000D03*
X52730000Y-77400000D03*
G04 #@! TD*
D25*
G04 #@! TO.N,GND*
X52392500Y-68000000D02*
X51480000Y-68000000D01*
X59142500Y-73500000D02*
X58230000Y-73500000D01*
X59142500Y-68000000D02*
X58230000Y-68000000D01*
X52880000Y-69650000D02*
X52880000Y-68487492D01*
X52880000Y-68487492D02*
X52392508Y-68000000D01*
X59630000Y-69650000D02*
X59630000Y-68487500D01*
X59630000Y-68487500D02*
X59142506Y-68000006D01*
X56430000Y-66050000D02*
X56230000Y-66250000D01*
X56430000Y-64700000D02*
X56430000Y-66050000D01*
D26*
X47155000Y-73575000D02*
X46730000Y-74000000D01*
X47155000Y-73200000D02*
X47155000Y-73575000D01*
D27*
X47230000Y-75000000D02*
X47730000Y-74500000D01*
X47030000Y-75000000D02*
X47230000Y-75000000D01*
D26*
X50980000Y-80250000D02*
X51480000Y-80750000D01*
D27*
X51730000Y-81000000D02*
X51980000Y-81250000D01*
X51480000Y-81250000D02*
X51730000Y-81000000D01*
X51480000Y-80750000D02*
X51730000Y-81000000D01*
X51980000Y-80750000D02*
X51730000Y-81000000D01*
X51980000Y-80750000D02*
X52280000Y-80750000D01*
X52280000Y-80750000D02*
X52480000Y-80750000D01*
X52480000Y-80750000D02*
X52980000Y-80750000D01*
D28*
X50730699Y-82499301D02*
X50130699Y-82499301D01*
D29*
X50980000Y-82250000D02*
X50730699Y-82499301D01*
D25*
X52392500Y-73500000D02*
X52156210Y-73500000D01*
D26*
X50130699Y-82499301D02*
X49831398Y-82200000D01*
X49831398Y-82200000D02*
X49831394Y-82200000D01*
D25*
X56430000Y-65500000D02*
X57130000Y-66200000D01*
X56430000Y-64700000D02*
X56430000Y-65500000D01*
X62635000Y-84600000D02*
X62635000Y-85732790D01*
X62635000Y-85732790D02*
X62980000Y-86077790D01*
D30*
X56538000Y-80208000D02*
X56530000Y-80200000D01*
X56538000Y-81003000D02*
X56538000Y-80208000D01*
D25*
X40630000Y-75270000D02*
X40630000Y-75900004D01*
X40630000Y-75900004D02*
X41029996Y-76300000D01*
D30*
X48130000Y-82200000D02*
X47830000Y-82500000D01*
X49831394Y-82200000D02*
X48130000Y-82200000D01*
D31*
X53980000Y-66250000D02*
X56230000Y-66250000D01*
X52230000Y-64500000D02*
X53980000Y-66250000D01*
D25*
X52392500Y-73500000D02*
X51480000Y-73500000D01*
X49180000Y-76000000D02*
X48430000Y-76000000D01*
X48430000Y-76000000D02*
X48430000Y-75999986D01*
X45730000Y-84600000D02*
X47830000Y-82500000D01*
X40690000Y-84600000D02*
X45730000Y-84600000D01*
X39470000Y-83380000D02*
X40690000Y-84600000D01*
G04 #@! TO.N,+5V*
X59941290Y-67223790D02*
X60717500Y-68000000D01*
X53967500Y-68000000D02*
X54743710Y-67223790D01*
X59030000Y-67050000D02*
X59203790Y-67223790D01*
X59203790Y-67223790D02*
X59941290Y-67223790D01*
X59030000Y-64700000D02*
X59030000Y-67050000D01*
X54743710Y-67223790D02*
X59203790Y-67223790D01*
X60580000Y-68137500D02*
X60717500Y-68000000D01*
X60580000Y-69650000D02*
X60580000Y-68137500D01*
X51930000Y-69650000D02*
X51930000Y-70450000D01*
X60282838Y-70750000D02*
X60580000Y-70452838D01*
X60580000Y-70452838D02*
X60580000Y-69650000D01*
X59209039Y-70750000D02*
X60282838Y-70750000D01*
X58680000Y-70220961D02*
X59209039Y-70750000D01*
X58680000Y-69650000D02*
X58680000Y-70220961D01*
X53967500Y-69512500D02*
X53830000Y-69650000D01*
X53967500Y-68000000D02*
X53967500Y-69512500D01*
X37330000Y-65800000D02*
X37330000Y-77800000D01*
X49130000Y-64600000D02*
X38530000Y-64600000D01*
X37330000Y-77800000D02*
X37730000Y-78200000D01*
X50730000Y-66200000D02*
X49130000Y-64600000D01*
X50730000Y-68359071D02*
X50730000Y-66200000D01*
X38530000Y-64600000D02*
X37330000Y-65800000D01*
X51930000Y-69559071D02*
X50730000Y-68359071D01*
X51930000Y-70450000D02*
X51930000Y-69559071D01*
X37730000Y-79100000D02*
X39470000Y-80840000D01*
X37730000Y-78200000D02*
X37730000Y-79100000D01*
X61980000Y-68000000D02*
X62980000Y-69000000D01*
X60717500Y-68000000D02*
X61980000Y-68000000D01*
X53730000Y-70528778D02*
X53730000Y-69750000D01*
X53730000Y-69750000D02*
X53830000Y-69650000D01*
X53544389Y-70714389D02*
X53730000Y-70528778D01*
X52194389Y-70714389D02*
X53544389Y-70714389D01*
X51930000Y-70450000D02*
X52194389Y-70714389D01*
G04 #@! TO.N,vccd*
X60717500Y-73500000D02*
X61155000Y-73500000D01*
X60717500Y-73500000D02*
X61980000Y-73500000D01*
X61980000Y-73500000D02*
X62980000Y-72500000D01*
X60580000Y-71850000D02*
X60580000Y-73362500D01*
X60580000Y-73362500D02*
X60717500Y-73500000D01*
D26*
X49580000Y-82750000D02*
X50480000Y-82750000D01*
X49530000Y-82800000D02*
X49580000Y-82750000D01*
D25*
X56538000Y-85080000D02*
X56538000Y-82553000D01*
X58458000Y-87000000D02*
X56538000Y-85080000D01*
X63904000Y-86626000D02*
X63530000Y-87000000D01*
X61722000Y-73500000D02*
X63904000Y-75682000D01*
X63530000Y-87000000D02*
X58458000Y-87000000D01*
X63904000Y-75682000D02*
X63904000Y-86626000D01*
X60717500Y-73500000D02*
X61722000Y-73500000D01*
D31*
X56538000Y-82553000D02*
X56538000Y-84318000D01*
X54610252Y-84826000D02*
X53863387Y-84079135D01*
X56538000Y-84318000D02*
X56030000Y-84826000D01*
X56030000Y-84826000D02*
X54610252Y-84826000D01*
X53863387Y-84079135D02*
X53863387Y-83760937D01*
X55530000Y-81095000D02*
X55530000Y-80000000D01*
D26*
X53638388Y-83535938D02*
X53863387Y-83760937D01*
X53380000Y-82750000D02*
X53638388Y-83008388D01*
X52980000Y-82750000D02*
X53380000Y-82750000D01*
D31*
X56538000Y-82553000D02*
X56538000Y-82103000D01*
D26*
X53638388Y-83008388D02*
X53638388Y-83535938D01*
D31*
X56538000Y-82103000D02*
X55530000Y-81095000D01*
D26*
X49580000Y-78750000D02*
X49530000Y-78700000D01*
X50480000Y-78750000D02*
X49580000Y-78750000D01*
D31*
X49530000Y-82800000D02*
X49530000Y-84000000D01*
D25*
G04 #@! TO.N,vdda*
X42830000Y-70325000D02*
X42505000Y-70000000D01*
X42830000Y-72730000D02*
X42830000Y-70325000D01*
X53830000Y-73362500D02*
X53967500Y-73500000D01*
X53830000Y-71850000D02*
X53830000Y-73362500D01*
X51467500Y-76000000D02*
X53967500Y-73500000D01*
X50730000Y-76000000D02*
X51467500Y-76000000D01*
X40930002Y-70000000D02*
X39555001Y-68624999D01*
X42505000Y-70000000D02*
X40930002Y-70000000D01*
X42630000Y-70000000D02*
X44005001Y-68624999D01*
X42505000Y-70000000D02*
X42630000Y-70000000D01*
X44005001Y-68624999D02*
X48455001Y-68624999D01*
X43210000Y-72730000D02*
X45480000Y-75000000D01*
X42830000Y-72730000D02*
X43210000Y-72730000D01*
X55030000Y-73500000D02*
X55930000Y-72600000D01*
X53967500Y-73500000D02*
X55030000Y-73500000D01*
D26*
X51980000Y-81750000D02*
X51480000Y-81750000D01*
D28*
X51230699Y-81500699D02*
X50130699Y-81500699D01*
D29*
X51480000Y-81750000D02*
X51230699Y-81500699D01*
X51480000Y-80250000D02*
X51230000Y-80000000D01*
D28*
X51230000Y-80000000D02*
X50130000Y-80000000D01*
D25*
X54925000Y-73500000D02*
X53967500Y-73500000D01*
X58825000Y-77400000D02*
X54925000Y-73500000D01*
D31*
X48305000Y-80800000D02*
X49230000Y-80800000D01*
D26*
X50030000Y-81400000D02*
X50130000Y-81500000D01*
X50030000Y-81100000D02*
X50030000Y-81400000D01*
X49730000Y-80400000D02*
X49330000Y-80800000D01*
X49730000Y-80100000D02*
X49730000Y-80400000D01*
X50030000Y-80100000D02*
X49730000Y-80100000D01*
X50130000Y-80000000D02*
X50030000Y-80100000D01*
X49330000Y-80800000D02*
X49730000Y-80800000D01*
X50030000Y-81100000D02*
X49930000Y-81000000D01*
X49730000Y-80800000D02*
X49230000Y-80800000D01*
X49930000Y-81000000D02*
X49730000Y-80800000D01*
D25*
X39430000Y-76500000D02*
X39430000Y-74500000D01*
X41560000Y-74000000D02*
X42830000Y-72730000D01*
X41530000Y-78600000D02*
X39430000Y-76500000D01*
X39430000Y-74500000D02*
X39930000Y-74000000D01*
X39930000Y-74000000D02*
X41560000Y-74000000D01*
X42730000Y-78600000D02*
X41530000Y-78600000D01*
D30*
X48305000Y-80800000D02*
X48305000Y-80775000D01*
X47130000Y-79600000D02*
X43730000Y-79600000D01*
X48305000Y-80775000D02*
X47130000Y-79600000D01*
D25*
X43730000Y-79600000D02*
X42730000Y-78600000D01*
X48410000Y-74920000D02*
X47330000Y-76000000D01*
X46480000Y-76000000D02*
X45480000Y-75000000D01*
X47330000Y-76000000D02*
X46480000Y-76000000D01*
X49650000Y-74920000D02*
X48410000Y-74920000D01*
X50730000Y-76000000D02*
X49650000Y-74920000D01*
D26*
X54394702Y-78764702D02*
X54530000Y-78900000D01*
X52980000Y-78750000D02*
X52994702Y-78764702D01*
X52994702Y-78764702D02*
X54394702Y-78764702D01*
G04 #@! TO.N,flash_io0*
X61535000Y-78500000D02*
X62635000Y-77400000D01*
X61635000Y-78600000D02*
X61535000Y-78500000D01*
X62130000Y-78600000D02*
X61635000Y-78600000D01*
X51980000Y-78150002D02*
X51629998Y-77800000D01*
X51980000Y-78750000D02*
X51980000Y-78150002D01*
X53979767Y-76475001D02*
X51854999Y-76475001D01*
X61535000Y-78500000D02*
X61135000Y-78900000D01*
X56183437Y-76953437D02*
X54458203Y-76953437D01*
X51854999Y-76475001D02*
X51630000Y-76700000D01*
X54458203Y-76953437D02*
X53979767Y-76475001D01*
X58130000Y-78900000D02*
X56183437Y-76953437D01*
X61135000Y-78900000D02*
X58130000Y-78900000D01*
G04 #@! TO.N,flash_csb*
X58825000Y-83705000D02*
X59230000Y-83300000D01*
X58825000Y-84600000D02*
X58825000Y-83705000D01*
X54049471Y-76832088D02*
X52037672Y-76832088D01*
X54517383Y-77300000D02*
X54049471Y-76832088D01*
X56086309Y-77300000D02*
X54517383Y-77300000D01*
X58825000Y-80038691D02*
X56086309Y-77300000D01*
X58825000Y-84600000D02*
X58825000Y-80038691D01*
X52037672Y-76832088D02*
X51165298Y-77704462D01*
X51165298Y-77704462D02*
X51165298Y-77975058D01*
X51165298Y-77975058D02*
X51480000Y-78289760D01*
X51480000Y-78289760D02*
X51480000Y-78750000D01*
G04 #@! TO.N,resetb*
X50980000Y-78750000D02*
X50130001Y-77900001D01*
X46229999Y-77900001D02*
X45730000Y-78400000D01*
X50130001Y-77900001D02*
X46229999Y-77900001D01*
G04 #@! TO.N,mprj_io[2]*
X38230000Y-82900000D02*
X38230000Y-84680000D01*
X39030000Y-82100000D02*
X38230000Y-82900000D01*
X40830000Y-82100000D02*
X39030000Y-82100000D01*
X38230000Y-84680000D02*
X39470000Y-85920000D01*
X40980000Y-82250000D02*
X40830000Y-82100000D01*
X44080000Y-82250000D02*
X40980000Y-82250000D01*
X44530000Y-81800000D02*
X44080000Y-82250000D01*
X53728486Y-79250000D02*
X53841843Y-79136643D01*
X52980000Y-79250000D02*
X53728486Y-79250000D01*
D29*
G04 #@! TO.N,mprj_io[1]*
X52480000Y-79250000D02*
X52730000Y-79000000D01*
D28*
X52730000Y-79000000D02*
X52730000Y-78500000D01*
D26*
X52897292Y-78332708D02*
X54130000Y-78332708D01*
X52730000Y-78500000D02*
X52897292Y-78332708D01*
D28*
G04 #@! TO.N,flash_io1*
X52229301Y-79000699D02*
X52229301Y-78500699D01*
D29*
X51980000Y-79250000D02*
X52229301Y-79000699D01*
D26*
X61530000Y-83165000D02*
X60095000Y-84600000D01*
X61530000Y-82100000D02*
X61530000Y-83165000D01*
X61630000Y-82000000D02*
X61530000Y-82100000D01*
X55930000Y-77600000D02*
X54530000Y-77600000D01*
X52363475Y-77035299D02*
X52119023Y-77279751D01*
X52119023Y-77279751D02*
X52119023Y-77597949D01*
X52229301Y-77708227D02*
X52119023Y-77597949D01*
X58330000Y-80000000D02*
X55930000Y-77600000D01*
X52229301Y-78500699D02*
X52229301Y-77708227D01*
X54530000Y-77600000D02*
X53965299Y-77035299D01*
X60095000Y-84600000D02*
X60095000Y-85400000D01*
X53965299Y-77035299D02*
X52363475Y-77035299D01*
X60095000Y-85400000D02*
X59495000Y-86000000D01*
X59495000Y-86000000D02*
X58930000Y-86000000D01*
X58930000Y-86000000D02*
X58330000Y-85400000D01*
X58330000Y-85400000D02*
X58330000Y-80000000D01*
D30*
G04 #@! TO.N,clock*
X42680000Y-76150000D02*
X43930000Y-77400000D01*
X42680000Y-75200000D02*
X42680000Y-76150000D01*
D28*
X51230699Y-79000699D02*
X51230699Y-78500699D01*
X51480000Y-79250000D02*
X51230699Y-79000699D01*
D26*
X50130000Y-77400000D02*
X43930000Y-77400000D01*
X51230699Y-78500699D02*
X50130000Y-77400000D01*
G04 #@! TO.N,mprj_io[4]*
X53680000Y-79750000D02*
X54930000Y-81000000D01*
X52980000Y-79750000D02*
X53680000Y-79750000D01*
D29*
G04 #@! TO.N,mprj_io[3]*
X52480000Y-79750000D02*
X52730000Y-80000000D01*
D28*
X52730000Y-80000000D02*
X53230000Y-80000000D01*
D26*
X54122104Y-80892104D02*
X54122118Y-80892104D01*
X53230000Y-80000000D02*
X54122104Y-80892104D01*
D28*
G04 #@! TO.N,flash_clk*
X52229301Y-79500699D02*
X53229301Y-79500699D01*
D29*
X51980000Y-79750000D02*
X52229301Y-79500699D01*
D26*
X60765000Y-78000000D02*
X61365000Y-77400000D01*
X60730000Y-78000000D02*
X60765000Y-78000000D01*
X57705001Y-79975001D02*
X57930000Y-80200000D01*
X53229301Y-79500699D02*
X53229946Y-79501344D01*
X53229946Y-79501344D02*
X54016900Y-79501344D01*
X55730699Y-79500699D02*
X55830000Y-79600000D01*
X54017545Y-79500699D02*
X55730699Y-79500699D01*
X54016900Y-79501344D02*
X54017545Y-79500699D01*
X57330000Y-79600000D02*
X57705001Y-79975001D01*
X55830000Y-79600000D02*
X57330000Y-79600000D01*
G04 #@! TO.N,mprj_io[8]*
X46280000Y-64000000D02*
X37430000Y-64000000D01*
X36530000Y-64900000D02*
X36530000Y-87000000D01*
X36530000Y-87000000D02*
X37904995Y-88374995D01*
X37904995Y-88374995D02*
X42405001Y-88374995D01*
X42405001Y-88374995D02*
X42630000Y-88599994D01*
X37430000Y-64000000D02*
X36530000Y-64900000D01*
X48730000Y-61550000D02*
X46280000Y-64000000D01*
X55856895Y-84050477D02*
X55631896Y-84275476D01*
X52980000Y-81250000D02*
X53114999Y-81384999D01*
X55029523Y-81384999D02*
X55856895Y-82212371D01*
X53114999Y-81384999D02*
X55029523Y-81384999D01*
X55856895Y-82212371D02*
X55856895Y-84050477D01*
G04 #@! TO.N,mprj_io[10]*
X43730000Y-88800000D02*
X43730000Y-88300000D01*
X43130000Y-89400000D02*
X43730000Y-88800000D01*
X42330000Y-89400000D02*
X43130000Y-89400000D01*
X41930000Y-89000000D02*
X42330000Y-89400000D01*
X36123578Y-63929422D02*
X36123578Y-87193579D01*
X36123578Y-87193579D02*
X37929999Y-89000000D01*
X38503000Y-61550000D02*
X36123578Y-63929422D01*
X37929999Y-89000000D02*
X41930000Y-89000000D01*
X39730000Y-61550000D02*
X38503000Y-61550000D01*
X52980000Y-81750000D02*
X53114999Y-81615001D01*
X54972142Y-81615001D02*
X55497912Y-82140771D01*
X53114999Y-81615001D02*
X54972142Y-81615001D01*
X55497912Y-83591355D02*
X55106311Y-83982956D01*
X55106311Y-83982956D02*
X55106311Y-84301154D01*
X55497912Y-82140771D02*
X55497912Y-83591355D01*
D28*
G04 #@! TO.N,mprj_io[9]*
X52729301Y-81999301D02*
X53329301Y-81999301D01*
D29*
X52480000Y-81750000D02*
X52729301Y-81999301D01*
D26*
X42976543Y-89064702D02*
X43155227Y-88886018D01*
X44230000Y-61550000D02*
X42280000Y-63500000D01*
X38002052Y-88784670D02*
X42174910Y-88784670D01*
X36326789Y-87109407D02*
X38002052Y-88784670D01*
X37230000Y-63500000D02*
X36326789Y-64403211D01*
X36326789Y-64403211D02*
X36326789Y-87109407D01*
X42280000Y-63500000D02*
X37230000Y-63500000D01*
X42454942Y-89064702D02*
X42976543Y-89064702D01*
X42174910Y-88784670D02*
X42454942Y-89064702D01*
X43155227Y-88886018D02*
X43155227Y-88567820D01*
X55294701Y-82224943D02*
X55294701Y-83394687D01*
X55294701Y-83394687D02*
X54649596Y-84039792D01*
X53393303Y-81935299D02*
X55005057Y-81935299D01*
X55005057Y-81935299D02*
X55294701Y-82224943D01*
X53329301Y-81999301D02*
X53393303Y-81935299D01*
G04 #@! TO.N,mprj_io[12]*
X53947434Y-82250000D02*
X54155828Y-82458394D01*
X52980000Y-82250000D02*
X53947434Y-82250000D01*
D28*
G04 #@! TO.N,mprj_io[11]*
X52729301Y-82499301D02*
X53329301Y-82499301D01*
D29*
X52480000Y-82250000D02*
X52729301Y-82499301D01*
D26*
X53521402Y-82499301D02*
X53858411Y-82836310D01*
X53858411Y-82836310D02*
X54293690Y-82836310D01*
X54293690Y-82836310D02*
X54830000Y-82300000D01*
X53329301Y-82499301D02*
X53521402Y-82499301D01*
D28*
G04 #@! TO.N,mprj_io[13]*
X51730699Y-82499301D02*
X51730699Y-83499301D01*
D29*
X51980000Y-82250000D02*
X51730699Y-82499301D01*
D26*
X47730000Y-87500000D02*
X51730699Y-83499301D01*
X47730000Y-88175000D02*
X47730000Y-87500000D01*
D28*
G04 #@! TO.N,mprj_io[14]*
X52729301Y-82999301D02*
X53329301Y-82999301D01*
D29*
X52480000Y-82750000D02*
X52729301Y-82999301D01*
D26*
X53430000Y-83100000D02*
X53430000Y-86100000D01*
X53430000Y-86100000D02*
X54230000Y-86900000D01*
X53329301Y-82999301D02*
X53430000Y-83100000D01*
X49730000Y-88175000D02*
X50730000Y-87175000D01*
X50730000Y-87175000D02*
X50730000Y-87100000D01*
D29*
G04 #@! TO.N,mprj_io[17]*
X51980000Y-82750000D02*
X52230000Y-83000000D01*
D28*
X52230000Y-83000000D02*
X52230000Y-83500000D01*
D26*
X55730000Y-88175000D02*
X55730000Y-87609374D01*
X55730000Y-87609374D02*
X54437434Y-86316808D01*
X51654999Y-86275001D02*
X51430000Y-86500000D01*
X52230000Y-85700000D02*
X51654999Y-86275001D01*
X52230000Y-83500000D02*
X52230000Y-85700000D01*
G04 #@! TO.N,mprj_io[15]*
X52205000Y-88230001D02*
X51730000Y-88230001D01*
X52930000Y-87505001D02*
X52205000Y-88230001D01*
X52930000Y-85091853D02*
X52930000Y-87505001D01*
X52845001Y-85006854D02*
X52930000Y-85091853D01*
X52845001Y-83384999D02*
X52845001Y-85006854D01*
X52980000Y-83250000D02*
X52845001Y-83384999D01*
G04 #@! TO.N,mprj_io[16]*
X51115290Y-88785290D02*
X51115290Y-87889287D01*
X53005000Y-88900000D02*
X51230000Y-88900000D01*
X51230000Y-88900000D02*
X51115290Y-88785290D01*
X51115290Y-87889287D02*
X51314286Y-87690291D01*
X52480000Y-86826455D02*
X52480000Y-83440918D01*
X52480000Y-83440918D02*
X52480000Y-83250000D01*
X53730000Y-88175000D02*
X53005000Y-88900000D01*
X51314286Y-87690291D02*
X51616164Y-87690291D01*
X51616164Y-87690291D02*
X52480000Y-86826455D01*
G04 #@! TO.N,mprj_io[18]*
X57730000Y-87775000D02*
X55790564Y-85835564D01*
X57730000Y-88175000D02*
X57730000Y-87775000D01*
X55790564Y-85835564D02*
X54224587Y-85835564D01*
X51980000Y-85031454D02*
X50713846Y-86297608D01*
X51980000Y-83250000D02*
X51980000Y-85031454D01*
D25*
G04 #@! TO.N,/red*
X55730000Y-89825000D02*
X57730000Y-89825000D01*
X55730000Y-92782000D02*
X54052000Y-94460000D01*
X55730000Y-89825000D02*
X55730000Y-92782000D01*
G04 #@! TO.N,/green*
X53674999Y-89880001D02*
X53730000Y-89825000D01*
X51730000Y-89880001D02*
X53674999Y-89880001D01*
X51766000Y-89916001D02*
X51730000Y-89880001D01*
X51766000Y-94460000D02*
X51766000Y-89916001D01*
G04 #@! TO.N,/blue*
X47730000Y-89825000D02*
X49730000Y-89825000D01*
X49480000Y-90075000D02*
X49730000Y-89825000D01*
X49480000Y-94460000D02*
X49480000Y-90075000D01*
G04 #@! TO.N,Net-(J3-Pad6)*
X55230000Y-62400000D02*
X54830000Y-62000000D01*
X55230000Y-64700000D02*
X55230000Y-62400000D01*
X60230000Y-62400000D02*
X60630000Y-62000000D01*
X60230000Y-64700000D02*
X60230000Y-62400000D01*
X56730000Y-62000000D02*
X54830000Y-62000000D01*
X56730000Y-62000000D02*
X58730000Y-62000000D01*
X58730000Y-62000000D02*
X60630000Y-62000000D01*
D26*
G04 #@! TO.N,Net-(D1-Pad1)*
X45505000Y-71237500D02*
X45542500Y-71200000D01*
X45505000Y-73200000D02*
X45505000Y-71237500D01*
G04 #@! TO.N,gpio*
X47330000Y-71200000D02*
X47117500Y-71200000D01*
X51130000Y-75000000D02*
X47330000Y-71200000D01*
X52480000Y-78750000D02*
X52480000Y-77650000D01*
X52480000Y-77650000D02*
X52730000Y-77400000D01*
G04 #@! TD*
M02*
